# Blender v3.1.2 OBJ File: ''
# www.blender.org
mtllib (2)sex(bl).mtl
o blue_Cylinder.002
v -0.135186 1.009504 0.222532
v -0.120212 1.003758 0.218955
v -0.117125 1.002574 0.218218
v -0.108975 0.995830 0.213635
v -0.104807 0.992381 0.211292
v -0.085550 0.991043 0.211102
v -0.064429 1.001679 0.219712
v -0.037938 1.013182 0.229172
v -0.023915 1.018148 0.233361
v -0.008254 1.009991 0.228056
v 0.007133 0.997450 0.219543
v 0.028988 0.993358 0.217452
v 0.051197 0.992059 0.217409
v 0.059115 0.996499 0.220967
v 0.069387 1.002258 0.225581
v 0.091611 1.010518 0.232505
v 0.085844 1.017611 0.237439
v 0.068106 1.008215 0.229870
v 0.047238 1.002362 0.224756
v 0.018717 1.001984 0.223319
v 0.000418 1.013691 0.231104
v -0.019768 1.023779 0.237634
v -0.040655 1.018324 0.232808
v -0.066753 1.008817 0.224819
v -0.085887 0.997810 0.216019
v -0.104082 0.997569 0.215102
v -0.114945 1.008179 0.222391
v -0.133064 1.016303 0.227573
v -0.048225 1.101069 0.292795
v -0.053797 1.114139 0.302091
v -0.075518 1.125401 0.309414
v -0.094696 1.125147 0.308448
v -0.115857 1.115307 0.300416
v -0.126096 1.093664 0.284228
v -0.122212 1.074996 0.270783
v -0.090902 1.083125 0.277982
v -0.087978 1.087312 0.281152
v -0.081522 1.083480 0.278622
v -0.044461 1.084789 0.281085
v -0.009243 1.105010 0.297253
v -0.011811 1.091196 0.287083
v 0.014186 1.088666 0.286298
v 0.020944 1.095901 0.291845
v 0.026331 1.090671 0.288254
v 0.053140 1.091260 0.289774
v 0.052207 1.109967 0.303368
v 0.046262 1.120642 0.310905
v 0.031669 1.128500 0.316036
v 0.022222 1.129086 0.316079
v 0.007548 1.127299 0.314179
v -0.002913 1.119991 0.308428
v 0.077554 0.988550 0.215926
v -0.116016 0.987137 0.207015
v -0.085584 1.079277 0.275394
v -0.105504 1.055701 0.257404
v -0.082725 1.052816 0.256229
v -0.057784 1.055935 0.259517
v -0.045261 1.071236 0.271177
v 0.020334 1.085291 0.284089
v -0.009209 1.078485 0.277927
v -0.004759 1.068188 0.270605
v 0.009760 1.063203 0.267563
v 0.030314 1.065467 0.270050
v 0.047069 1.074849 0.277569
v -0.136128 0.992853 0.245618
v -0.121154 0.987107 0.242041
v -0.118068 0.985923 0.241303
v -0.109917 0.979179 0.236721
v -0.105750 0.975730 0.234378
v -0.086492 0.974393 0.234187
v -0.065371 0.985028 0.242797
v -0.038880 0.996532 0.252258
v -0.024858 1.001497 0.256447
v -0.009197 0.993340 0.251141
v 0.006191 0.980799 0.242629
v 0.028046 0.976707 0.240537
v 0.050254 0.975408 0.240495
v 0.058173 0.979848 0.244052
v 0.068445 0.985607 0.248667
v 0.090668 0.993867 0.255591
v 0.084902 1.000960 0.260525
v 0.067164 0.991564 0.252956
v 0.046296 0.985712 0.247842
v 0.017775 0.985334 0.246405
v -0.000524 0.997040 0.254190
v -0.020710 1.007128 0.260719
v -0.041597 1.001673 0.255894
v -0.067695 0.992167 0.247904
v -0.086829 0.981159 0.239104
v -0.105024 0.980918 0.238188
v -0.115887 0.991528 0.245477
v -0.134007 0.999652 0.250659
v -0.049167 1.084418 0.315880
v -0.054739 1.097488 0.325177
v -0.076460 1.108751 0.332500
v -0.095638 1.108496 0.331534
v -0.116799 1.098657 0.323502
v -0.127038 1.077013 0.307314
v -0.123155 1.058345 0.293869
v -0.091844 1.066474 0.301067
v -0.088920 1.070662 0.304238
v -0.082464 1.066829 0.301708
v -0.045403 1.068138 0.304170
v -0.010185 1.088359 0.320339
v -0.012753 1.074545 0.310168
v 0.013243 1.072016 0.309384
v 0.020002 1.079251 0.314931
v 0.025388 1.074021 0.311339
v 0.052198 1.074609 0.312860
v 0.051265 1.093317 0.326454
v 0.045320 1.103992 0.333990
v 0.030727 1.111849 0.339122
v 0.021279 1.112436 0.339164
v 0.006606 1.110648 0.337264
v -0.003855 1.103340 0.331513
v -0.116959 0.970486 0.230100
v -0.086526 1.062626 0.298480
v -0.106446 1.039050 0.280489
v -0.083667 1.036166 0.279315
v -0.058726 1.039284 0.282603
v -0.046203 1.054585 0.294262
v 0.019392 1.068640 0.307174
v -0.010151 1.061834 0.301012
v -0.005701 1.051537 0.293690
v 0.008818 1.046552 0.290649
v 0.029372 1.048816 0.293135
v 0.046127 1.058199 0.300655
v 0.105740 0.804192 0.448078
v 0.090772 0.799280 0.443405
v 0.087686 0.798267 0.442441
v 0.079545 0.792490 0.436673
v 0.075383 0.789537 0.433723
v 0.056121 0.788410 0.433109
v 0.034971 0.797556 0.443228
v 0.008448 0.807452 0.454282
v -0.005589 0.811727 0.459132
v -0.021240 0.804747 0.452329
v -0.036609 0.794005 0.441609
v -0.058465 0.790519 0.438618
v -0.080679 0.789429 0.438127
v -0.088609 0.793245 0.442324
v -0.098896 0.798196 0.447768
v -0.121144 0.805306 0.455802
v -0.115389 0.811384 0.461954
v -0.097626 0.803305 0.453042
v -0.076739 0.798262 0.447196
v -0.048206 0.797907 0.446001
v -0.029924 0.807930 0.455889
v -0.009749 0.816561 0.464278
v 0.011156 0.811860 0.458786
v 0.037283 0.803677 0.449524
v 0.056445 0.794214 0.439133
v 0.074647 0.793988 0.438371
v 0.085493 0.803077 0.447505
v 0.103604 0.810027 0.454204
v 0.018569 0.882831 0.532342
v 0.024119 0.894036 0.543829
v 0.045826 0.903674 0.553219
v 0.065012 0.903435 0.552415
v 0.086200 0.894972 0.543005
v 0.096484 0.876395 0.523397
v 0.092635 0.860385 0.506867
v 0.061297 0.867393 0.515058
v 0.058364 0.870988 0.518880
v 0.051913 0.867707 0.515656
v 0.014835 0.868870 0.517938
v -0.020435 0.886253 0.537028
v -0.017839 0.874401 0.524633
v -0.043840 0.872259 0.523159
v -0.050615 0.878472 0.529814
v -0.055994 0.873992 0.525313
v -0.082814 0.874526 0.526643
v -0.081917 0.890572 0.543297
v -0.075991 0.899723 0.552637
v -0.061407 0.906447 0.559205
v -0.051957 0.906940 0.559444
v -0.037275 0.905391 0.557408
v -0.026796 0.899111 0.550577
v -0.107040 0.786447 0.435791
v 0.086606 0.785027 0.428710
v 0.055985 0.864097 0.511787
v 0.075958 0.843852 0.490165
v 0.053175 0.841402 0.488277
v 0.028220 0.844104 0.491808
v 0.015662 0.857243 0.505829
v -0.049985 0.869370 0.520334
v -0.020417 0.863500 0.513377
v -0.024849 0.854672 0.504329
v -0.039364 0.850411 0.500320
v -0.059930 0.852376 0.502957
v -0.076710 0.860442 0.511828
v 0.105174 0.824808 0.428437
v 0.090206 0.819895 0.423764
v 0.087120 0.818882 0.422800
v 0.078979 0.813106 0.417032
v 0.074817 0.810152 0.414082
v 0.055555 0.809026 0.413468
v 0.034405 0.818172 0.423587
v 0.007882 0.828068 0.434641
v -0.006155 0.832342 0.439491
v -0.021806 0.825362 0.432689
v -0.037175 0.814621 0.421968
v -0.059031 0.811134 0.418977
v -0.081245 0.810044 0.418486
v -0.089175 0.813861 0.422683
v -0.099462 0.818812 0.428128
v -0.121710 0.825922 0.436162
v -0.115955 0.832000 0.442313
v -0.098192 0.823921 0.433401
v -0.077305 0.818878 0.427555
v -0.048772 0.818523 0.426360
v -0.030489 0.828545 0.436248
v -0.010315 0.837177 0.444637
v 0.010590 0.832475 0.439145
v 0.036717 0.824292 0.429883
v 0.055879 0.814829 0.419492
v 0.074081 0.814603 0.418730
v 0.084928 0.823693 0.427864
v 0.103038 0.830642 0.434563
v 0.018003 0.903446 0.512701
v 0.023553 0.914652 0.524188
v 0.045260 0.924289 0.533578
v 0.064446 0.924051 0.532774
v 0.085634 0.915587 0.523364
v 0.095918 0.897011 0.503756
v 0.092069 0.881001 0.487227
v 0.060731 0.888008 0.495417
v 0.057798 0.891603 0.499239
v 0.051347 0.888322 0.496015
v 0.014269 0.889485 0.498297
v -0.021001 0.906869 0.517387
v -0.018405 0.895016 0.504992
v -0.044406 0.892874 0.503519
v -0.051181 0.899088 0.510173
v -0.056560 0.894607 0.505672
v -0.083380 0.895141 0.507003
v -0.082483 0.911187 0.523656
v -0.076557 0.920338 0.532996
v -0.061973 0.927063 0.539564
v -0.052523 0.927556 0.539803
v -0.037841 0.926006 0.537768
v -0.027362 0.919726 0.530936
v -0.107606 0.807062 0.416150
v 0.086040 0.805642 0.409069
v 0.055419 0.884713 0.492146
v 0.075392 0.864468 0.470524
v 0.052609 0.862018 0.468637
v 0.027654 0.864720 0.472167
v 0.015096 0.877858 0.486188
v -0.050551 0.889985 0.500693
v -0.020983 0.884115 0.493736
v -0.025415 0.875288 0.484688
v -0.039930 0.871027 0.480679
v -0.060496 0.872991 0.483316
v -0.077275 0.881058 0.492187
vt 0.832121 4.073462
vt 0.874484 4.101318
vt 0.870544 4.130963
vt 0.108376 4.567328
vt 0.247488 4.512771
vt 0.260056 4.533340
vt 0.805376 4.689744
vt 0.748394 4.729648
vt 0.698836 4.568748
vt 0.710600 4.733223
vt 0.607922 4.689772
vt 0.579532 4.615890
vt 0.904518 4.032863
vt 0.114003 4.121293
vt 0.157506 4.081233
vt 0.126146 4.115173
vt 0.183408 4.377775
vt 0.274235 4.361974
vt 0.268057 4.493340
vt 0.590158 4.433081
vt 0.647417 4.407393
vt 0.670270 4.533336
vt 0.710611 4.059914
vt 0.785637 4.103344
vt 0.671120 4.103360
vt 0.108376 4.567328
vt 0.247487 4.512779
vt 0.260057 4.533340
vt 0.805378 4.689754
vt 0.748392 4.729658
vt 0.698836 4.568754
vt 0.710596 4.733217
vt 0.607925 4.689783
vt 0.579530 4.615889
vt 0.114005 4.121289
vt 0.157508 4.081246
vt 0.126146 4.115171
vt 0.183408 4.377785
vt 0.274237 4.361994
vt 0.268056 4.493351
vt 0.590155 4.433071
vt 0.647418 4.407412
vt 0.670268 4.533325
vt 0.064941 4.184288
vt 0.055072 4.150726
vt 0.126156 4.115170
vt 0.177480 4.089477
vt 0.173539 4.063837
vt 0.136020 4.142856
vt 0.436139 4.188216
vt 0.329519 4.142827
vt 0.446016 4.162537
vt 0.250546 4.089525
vt 0.337418 4.107312
vt 0.521050 4.213932
vt 0.503272 4.186220
vt 0.250543 4.055923
vt 0.671119 4.103368
vt 0.600035 4.162570
vt 0.623732 4.081646
vt 0.564496 4.144834
vt 0.710608 4.059925
vt 0.799450 4.051945
vt 0.785633 4.103312
vt 0.965307 4.140835
vt 0.943601 4.176404
vt 0.434169 4.517962
vt 0.422323 4.598925
vt 0.285195 4.513911
vt 0.402579 4.664085
vt 0.317674 4.721344
vt 0.240668 4.721344
vt 0.153790 4.673950
vt 0.120223 4.474527
vt 0.566461 4.547573
vt 0.719405 4.542477
vt 0.827095 4.636407
vt 0.827096 4.543616
vt 0.748392 4.729710
vt 0.651363 4.725348
vt 0.127507 4.038569
vt 0.428248 4.450838
vt 0.374937 4.375810
vt 0.799454 4.462689
vt 0.694267 4.516208
vt 0.574359 4.484405
vt 0.730343 4.417263
vt 0.064941 4.184243
vt 0.055060 4.150736
vt 0.136020 4.142819
vt 0.126150 4.115147
vt 0.177482 4.089489
vt 0.436149 4.188227
vt 0.329515 4.142814
vt 0.446022 4.162564
vt 0.250550 4.089529
vt 0.337419 4.107309
vt 0.521056 4.213929
vt 0.503288 4.186285
vt 0.250538 4.055965
vt 0.173528 4.063776
vt 0.600029 4.162562
vt 0.623729 4.081609
vt 0.564489 4.144805
vt 0.965313 4.140864
vt 0.943598 4.176387
vt 0.870547 4.130989
vt 0.799453 4.051966
vt 0.832112 4.073442
vt 0.874485 4.101350
vt 0.434170 4.517963
vt 0.422323 4.598926
vt 0.285195 4.513914
vt 0.402578 4.664079
vt 0.317674 4.721338
vt 0.240669 4.721348
vt 0.153790 4.673952
vt 0.120223 4.474527
vt 0.566461 4.547587
vt 0.719404 4.542475
vt 0.827098 4.636420
vt 0.827096 4.543624
vt 0.651363 4.725334
vt 0.127508 4.038569
vt 0.428246 4.450826
vt 0.374936 4.375799
vt 0.799454 4.462683
vt 0.694263 4.516195
vt 0.574358 4.484400
vt 0.730347 4.417278
vt 0.710608 4.059925
vt 0.785633 4.103312
vt 0.671119 4.103368
vt 0.108376 4.567328
vt 0.247488 4.512771
vt 0.260056 4.533340
vt 0.805376 4.689744
vt 0.748394 4.729648
vt 0.698836 4.568748
vt 0.710600 4.733223
vt 0.607922 4.689772
vt 0.579532 4.615890
vt 0.832121 4.073462
vt 0.904518 4.032863
vt 0.874484 4.101318
vt 0.114003 4.121293
vt 0.157506 4.081233
vt 0.126146 4.115173
vt 0.183408 4.377775
vt 0.274235 4.361974
vt 0.268057 4.493340
vt 0.590158 4.433081
vt 0.647417 4.407393
vt 0.670270 4.533336
vt 0.521056 4.213929
vt 0.503288 4.186285
vt 0.564489 4.144805
vt 0.108376 4.567328
vt 0.247487 4.512779
vt 0.260057 4.533340
vt 0.805378 4.689754
vt 0.748392 4.729658
vt 0.698836 4.568754
vt 0.710596 4.733217
vt 0.607925 4.689783
vt 0.579530 4.615889
vt 0.832112 4.073442
vt 0.904518 4.032856
vt 0.874485 4.101350
vt 0.114005 4.121289
vt 0.157508 4.081246
vt 0.126146 4.115171
vt 0.183408 4.377785
vt 0.274237 4.361994
vt 0.268056 4.493351
vt 0.590155 4.433071
vt 0.647418 4.407412
vt 0.670268 4.533325
vt 0.064941 4.184288
vt 0.055072 4.150726
vt 0.136020 4.142856
vt 0.126156 4.115170
vt 0.177480 4.089477
vt 0.436139 4.188216
vt 0.329519 4.142827
vt 0.446016 4.162537
vt 0.250546 4.089525
vt 0.337418 4.107312
vt 0.521050 4.213932
vt 0.503272 4.186220
vt 0.250543 4.055923
vt 0.173539 4.063837
vt 0.600035 4.162570
vt 0.623732 4.081646
vt 0.564496 4.144834
vt 0.965307 4.140835
vt 0.943601 4.176404
vt 0.870544 4.130963
vt 0.799450 4.051945
vt 0.434169 4.517962
vt 0.422323 4.598925
vt 0.285195 4.513911
vt 0.402579 4.664085
vt 0.317674 4.721344
vt 0.240668 4.721344
vt 0.153790 4.673950
vt 0.120223 4.474527
vt 0.566461 4.547573
vt 0.719405 4.542477
vt 0.827095 4.636407
vt 0.827096 4.543616
vt 0.748392 4.729710
vt 0.651363 4.725348
vt 0.127507 4.038569
vt 0.428248 4.450838
vt 0.374937 4.375810
vt 0.799454 4.462689
vt 0.694267 4.516208
vt 0.574359 4.484405
vt 0.730343 4.417263
vt 0.064941 4.184243
vt 0.055060 4.150736
vt 0.136020 4.142819
vt 0.126150 4.115147
vt 0.177482 4.089489
vt 0.436149 4.188227
vt 0.329515 4.142814
vt 0.446022 4.162564
vt 0.250550 4.089529
vt 0.337419 4.107309
vt 0.250538 4.055965
vt 0.173528 4.063776
vt 0.671120 4.103360
vt 0.600029 4.162562
vt 0.623729 4.081609
vt 0.965313 4.140864
vt 0.943598 4.176387
vt 0.870547 4.130989
vt 0.785637 4.103344
vt 0.710611 4.059914
vt 0.799453 4.051966
vt 0.434170 4.517963
vt 0.422323 4.598926
vt 0.285195 4.513914
vt 0.402578 4.664079
vt 0.317674 4.721338
vt 0.240669 4.721348
vt 0.153790 4.673952
vt 0.120223 4.474527
vt 0.566461 4.547587
vt 0.719404 4.542475
vt 0.827098 4.636420
vt 0.827096 4.543624
vt 0.651363 4.725334
vt 0.127508 4.038569
vt 0.428246 4.450826
vt 0.374936 4.375799
vt 0.799454 4.462683
vt 0.694263 4.516195
vt 0.574358 4.484400
vt 0.730347 4.417278
vn -0.0329 -0.5886 0.8078
vn -0.0329 -0.5886 0.8077
vn -0.0328 -0.5886 0.8077
vn -0.0329 -0.5885 0.8078
vn -0.0329 -0.5887 0.8077
vn -0.0330 -0.5885 0.8078
vn -0.0327 -0.5885 0.8078
vn -0.0328 -0.5886 0.8078
vn -0.0201 0.7205 -0.6931
vn -0.0200 0.7205 -0.6931
vn -0.0201 0.7205 -0.6932
vn -0.0200 0.7205 -0.6932
vn -0.0200 0.7204 -0.6932
vn -0.0201 0.7206 -0.6931
vn -0.0200 0.7206 -0.6931
vn -0.0200 0.7206 -0.6930
usemtl Material.034
s 1
f 14/1/1 15/2/1 18/3/2
f 34/4/1 36/5/1 37/6/1
f 47/7/1 48/8/2 43/9/1
f 49/10/3 51/11/2 40/12/1
f 14/1/1 52/13/4 15/2/1
f 2/14/2 4/15/2 3/16/5
f 55/17/1 56/18/1 54/19/1
f 61/20/1 62/21/2 42/22/1
f 76/23/1 83/24/1 84/25/1
f 98/26/1 100/27/1 101/28/1
f 111/29/1 112/30/1 107/31/1
f 113/32/6 115/33/1 104/34/1
f 66/35/3 68/36/2 67/37/7
f 118/38/1 119/39/1 117/40/1
f 124/41/1 125/42/1 106/43/1
f 28/44/2 1/45/2 2/14/2
f 3/46/5 4/15/2 26/47/2
f 4/15/2 5/48/1 26/47/2
f 28/44/2 2/14/2 27/49/2
f 2/14/2 3/46/5 27/49/2
f 26/47/2 27/49/2 3/46/5
f 23/50/1 24/51/2 8/52/1
f 24/51/2 25/53/1 7/54/2
f 22/55/2 23/50/1 9/56/5
f 24/51/2 7/54/2 8/52/1
f 25/53/1 26/47/2 6/57/1
f 26/47/2 5/48/1 6/57/1
f 6/57/1 7/54/2 25/53/1
f 20/58/1 21/59/8 11/60/1
f 21/59/8 22/55/2 10/61/8
f 23/50/1 8/52/1 9/56/5
f 10/61/8 11/60/1 21/59/8
f 11/60/1 12/62/1 20/58/1
f 22/55/2 9/56/5 10/61/8
f 12/62/1 13/63/2 19/64/2
f 20/58/1 12/62/1 19/64/2
f 19/64/2 13/63/2 14/1/1
f 16/65/2 17/66/1 18/3/2
f 18/3/2 19/64/2 14/1/1
f 15/2/1 16/65/2 18/3/2
f 39/67/1 29/68/1 38/69/2
f 29/68/1 30/70/1 37/6/1
f 30/70/1 31/71/1 37/6/1
f 31/71/1 32/72/1 37/6/1
f 32/72/1 33/73/1 37/6/1
f 33/73/1 34/4/1 37/6/1
f 34/4/1 35/74/1 36/5/1
f 37/6/1 38/69/2 29/68/1
f 48/8/2 40/12/1 43/9/1
f 40/12/1 41/75/1 42/22/1
f 43/9/1 40/12/1 42/22/1
f 43/9/1 44/76/1 46/77/2
f 44/76/1 45/78/1 46/77/2
f 46/77/2 47/7/1 43/9/1
f 40/12/1 48/79/2 49/10/3
f 49/10/3 50/80/1 51/11/2
f 2/14/2 53/81/8 4/15/2
f 58/82/1 39/67/1 38/69/2
f 54/19/1 36/5/1 55/17/1
f 36/5/1 35/74/1 55/17/1
f 58/82/1 38/69/2 57/83/1
f 38/69/2 54/19/1 57/83/1
f 56/18/1 57/83/1 54/19/1
f 64/84/1 45/78/1 44/76/1
f 59/85/2 42/22/1 62/21/2
f 42/22/1 41/75/1 60/86/1
f 64/84/1 44/76/1 59/85/2
f 62/21/2 63/87/1 59/85/2
f 63/87/1 64/84/1 59/85/2
f 60/86/1 61/20/1 42/22/1
f 92/88/2 65/89/2 66/35/3
f 92/88/2 66/35/3 91/90/2
f 66/35/3 67/91/7 91/90/2
f 90/92/2 91/90/2 67/91/7
f 87/93/2 88/94/1 72/95/2
f 88/94/1 89/96/2 71/97/1
f 72/95/2 88/94/1 71/97/1
f 86/98/1 87/93/2 73/99/1
f 73/99/1 87/93/2 72/95/2
f 90/92/2 67/91/7 68/36/2
f 89/96/2 90/92/2 70/100/2
f 90/92/2 68/36/2 69/101/1
f 70/100/2 90/92/2 69/101/1
f 84/25/1 85/102/1 75/103/1
f 85/102/1 86/98/1 74/104/1
f 74/104/1 86/98/1 73/99/1
f 89/96/2 70/100/2 71/97/1
f 80/105/2 81/106/1 82/107/2
f 77/108/1 78/109/2 83/24/1
f 78/109/2 79/110/2 82/107/2
f 83/24/1 78/109/2 82/107/2
f 79/110/2 80/105/2 82/107/2
f 76/23/1 77/108/1 83/24/1
f 74/104/1 75/103/1 85/102/1
f 75/103/1 76/23/1 84/25/1
f 103/111/1 93/112/1 102/113/1
f 93/112/1 94/114/1 101/28/1
f 94/114/1 95/115/1 101/28/1
f 95/115/1 96/116/1 101/28/1
f 96/116/1 97/117/1 101/28/1
f 97/117/1 98/26/1 101/28/1
f 98/26/1 99/118/1 100/27/1
f 101/28/1 102/113/1 93/112/1
f 112/30/1 104/34/1 107/31/1
f 104/34/1 105/119/1 106/43/1
f 107/31/1 104/34/1 106/43/1
f 107/31/1 108/120/1 110/121/1
f 108/120/1 109/122/1 110/121/1
f 110/121/1 111/29/1 107/31/1
f 104/34/1 112/30/1 113/32/6
f 113/32/6 114/123/1 115/33/1
f 66/35/3 116/124/1 68/36/2
f 121/125/1 103/111/1 102/113/1
f 117/40/1 100/27/1 118/38/1
f 100/27/1 99/118/1 118/38/1
f 121/125/1 102/113/1 120/126/1
f 102/113/1 117/40/1 120/126/1
f 119/39/1 120/126/1 117/40/1
f 127/127/1 109/122/1 108/120/1
f 122/128/1 106/43/1 125/42/1
f 106/43/1 105/119/1 123/129/1
f 127/127/1 108/120/1 122/128/1
f 125/42/1 126/130/1 122/128/1
f 126/130/1 127/127/1 122/128/1
f 123/129/1 124/41/1 106/43/1
usemtl Material.035
f 139/131/9 146/132/10 147/133/9
f 161/134/11 163/135/11 164/136/9
f 174/137/12 175/138/12 170/139/11
f 176/140/9 178/141/11 167/142/11
f 141/143/9 179/144/11 142/145/10
f 129/146/11 131/147/12 130/148/13
f 182/149/11 183/150/9 181/151/11
f 188/152/11 189/153/12 169/154/11
f 213/155/11 200/156/9 201/157/12
f 225/158/11 227/159/11 228/160/9
f 238/161/11 239/162/11 234/163/11
f 240/164/10 242/165/10 231/166/11
f 205/167/9 243/168/9 206/169/11
f 193/170/12 195/171/11 194/172/12
f 246/173/11 247/174/11 245/175/11
f 252/176/9 253/177/9 233/178/12
f 155/179/12 128/180/12 129/146/11
f 155/179/12 129/146/11 154/181/9
f 129/146/11 130/182/13 154/181/9
f 153/183/12 154/181/9 130/182/13
f 150/184/10 151/185/10 135/186/10
f 151/185/10 152/187/9 134/188/10
f 135/186/10 151/185/10 134/188/10
f 149/189/14 150/184/10 136/190/14
f 136/190/14 150/184/10 135/186/10
f 153/183/12 130/182/13 131/147/12
f 152/187/9 153/183/12 133/191/9
f 153/183/12 131/147/12 132/192/10
f 133/191/9 153/183/12 132/192/10
f 147/133/9 148/193/11 138/194/11
f 148/193/11 149/189/14 137/195/9
f 137/195/9 149/189/14 136/190/14
f 152/187/9 133/191/9 134/188/10
f 143/196/10 144/197/10 145/198/10
f 140/199/14 141/143/9 146/132/10
f 141/143/9 142/145/10 145/198/10
f 146/132/10 141/143/9 145/198/10
f 142/145/10 143/196/10 145/198/10
f 139/131/9 140/199/14 146/132/10
f 137/195/9 138/194/11 148/193/11
f 138/194/11 139/131/9 147/133/9
f 166/200/11 156/201/9 165/202/12
f 156/201/9 157/203/9 164/136/9
f 157/203/9 158/204/11 164/136/9
f 158/204/11 159/205/11 164/136/9
f 159/205/11 160/206/11 164/136/9
f 160/206/11 161/134/11 164/136/9
f 161/134/11 162/207/11 163/135/11
f 164/136/9 165/202/12 156/201/9
f 175/138/12 167/142/11 170/139/11
f 167/142/11 168/208/11 169/154/11
f 170/139/11 167/142/11 169/154/11
f 170/139/11 171/209/11 173/210/11
f 171/209/11 172/211/12 173/210/11
f 173/210/11 174/137/12 170/139/11
f 167/142/11 175/212/12 176/140/9
f 176/140/9 177/213/11 178/141/11
f 129/146/11 180/214/9 131/147/12
f 185/215/11 166/200/11 165/202/12
f 181/151/11 163/135/11 182/149/11
f 163/135/11 162/207/11 182/149/11
f 185/215/11 165/202/12 184/216/11
f 165/202/12 181/151/11 184/216/11
f 183/150/9 184/216/11 181/151/11
f 191/217/11 172/211/12 171/209/11
f 186/218/11 169/154/11 189/153/12
f 169/154/11 168/208/11 187/219/11
f 191/217/11 171/209/11 186/218/11
f 189/153/12 190/220/11 186/218/11
f 190/220/11 191/217/11 186/218/11
f 187/219/11 188/152/11 169/154/11
f 219/221/11 192/222/11 193/170/12
f 219/221/11 193/170/12 218/223/12
f 193/170/12 194/224/12 218/223/12
f 217/225/9 218/223/12 194/224/12
f 214/226/15 215/227/15 199/228/15
f 215/227/15 216/229/15 198/230/15
f 199/228/15 215/227/15 198/230/15
f 213/155/11 214/226/15 200/156/9
f 217/225/9 194/224/12 195/171/11
f 216/229/15 217/225/9 197/231/15
f 217/225/9 195/171/11 196/232/12
f 197/231/15 217/225/9 196/232/12
f 211/233/11 212/234/12 202/235/11
f 212/234/12 213/155/11 201/157/12
f 202/235/11 212/234/12 201/157/12
f 216/229/15 197/231/15 198/230/15
f 207/236/11 208/237/11 209/238/11
f 206/169/11 207/236/11 209/238/11
f 206/169/11 209/238/11 205/167/9
f 209/238/11 210/239/12 205/167/9
f 203/240/11 204/241/10 210/239/12
f 204/241/10 205/167/9 210/239/12
f 210/239/12 211/233/11 203/240/11
f 202/235/11 203/240/11 211/233/11
f 214/226/15 199/228/15 200/156/9
f 230/242/11 220/243/11 229/244/11
f 220/243/11 221/245/11 228/160/9
f 221/245/11 222/246/11 228/160/9
f 222/246/11 223/247/11 228/160/9
f 223/247/11 224/248/11 228/160/9
f 224/248/11 225/158/11 228/160/9
f 225/158/11 226/249/11 227/159/11
f 228/160/9 229/244/11 220/243/11
f 239/162/11 231/166/11 234/163/11
f 231/166/11 232/250/11 233/178/12
f 234/163/11 231/166/11 233/178/12
f 234/163/11 235/251/11 237/252/11
f 235/251/11 236/253/11 237/252/11
f 237/252/11 238/161/11 234/163/11
f 231/166/11 239/162/11 240/164/10
f 240/164/10 241/254/16 242/165/10
f 193/170/12 244/255/11 195/171/11
f 249/256/11 230/242/11 229/244/11
f 245/175/11 227/159/11 246/173/11
f 227/159/11 226/249/11 246/173/11
f 249/256/11 229/244/11 248/257/9
f 229/244/11 245/175/11 248/257/9
f 247/174/11 248/257/9 245/175/11
f 255/258/9 236/253/11 235/251/11
f 250/259/10 233/178/12 253/177/9
f 233/178/12 232/250/11 251/260/9
f 255/258/9 235/251/11 250/259/10
f 253/177/9 254/261/9 250/259/10
f 254/261/9 255/258/9 250/259/10
f 251/260/9 252/176/9 233/178/12
