# Blender v3.1.2 OBJ File: ''
# www.blender.org
mtllib AFF(B).mtl
o Black_Plane.004
v -0.017883 3.131937 0.014505
v 7.698798 3.131937 0.014505
v -0.017883 8.340628 0.014506
v 7.698798 8.340628 0.014506
v -0.017883 3.131937 -0.011538
v 7.698798 3.131937 -0.011538
v -0.017883 8.340628 -0.011538
v 7.698798 8.340628 -0.011538
vt 1.000000 0.000000
vt 0.000000 1.000000
vt 0.000000 0.000000
vt 0.000000 1.000000
vt 1.000000 0.000000
vt 0.000000 0.000000
vt 1.000000 1.000000
vt 1.000000 1.000000
vn 0.0000 -0.0000 1.0000
vn 0.0000 0.0000 -1.0000
vn -1.0000 0.0000 0.0000
vn 0.0000 -1.0000 0.0000
vn 1.0000 0.0000 0.0000
vn 0.0000 1.0000 0.0000
usemtl Material.001
s off
f 2/1/1 3/2/1 1/3/1
f 7/4/2 6/5/2 5/6/2
f 3/2/3 5/6/3 1/3/3
f 1/3/4 6/5/4 2/1/4
f 2/1/5 8/7/5 4/8/5
f 4/8/6 7/4/6 3/2/6
f 2/1/1 4/8/1 3/2/1
f 7/4/2 8/7/2 6/5/2
f 3/2/3 7/4/3 5/6/3
f 1/3/4 5/6/4 6/5/4
f 2/1/5 6/5/5 8/7/5
f 4/8/6 8/7/6 7/4/6
