# Blender v3.1.2 OBJ File: ''
# www.blender.org
mtllib Avtomat1.mtl
o Cube
v 1.000000 1.000000 -1.000000
v 1.000000 -1.000000 -1.000000
v 0.855189 1.128278 0.932807
v 1.000000 -1.000000 1.000000
v -1.000000 1.000000 -1.000000
v -1.000000 -1.000000 -1.000000
v -0.855189 1.128278 0.932807
v -1.000000 -1.000000 1.000000
v 1.000000 2.984646 -1.000000
v 0.855189 2.856368 0.027617
v -1.000000 2.984646 -1.000000
v -0.855189 2.856368 0.027617
v 1.000000 1.000000 1.000000
v -1.000000 1.000000 1.000000
v 1.000000 2.984646 -0.039576
v -1.000000 2.984646 -0.039576
v 0.855189 1.045223 0.774247
v -0.855189 1.045223 0.774247
v 0.855189 2.773313 -0.130943
v -0.855189 2.773313 -0.130943
vt 0.625000 0.981899
vt 0.625000 0.981899
vt 0.625000 0.981899
vt 0.625000 0.750000
vt 0.375000 1.000000
vt 0.375000 0.750000
vt 0.625000 0.000000
vt 0.375000 0.250000
vt 0.375000 0.000000
vt 0.375000 0.500000
vt 0.125000 0.750000
vt 0.125000 0.500000
vt 0.625000 0.500000
vt 0.625000 0.250000
vt 0.875000 0.500000
vt 0.625000 0.750000
vt 0.625000 0.500000
vt 0.625000 0.000000
vt 0.625000 0.250000
vt 0.625000 0.981899
vt 0.625000 0.768101
vt 0.625000 0.768101
vt 0.625000 1.000000
vt 0.625000 1.000000
vt 0.625000 0.768101
vt 0.625000 0.768101
vt 0.875000 0.750000
vn 1.0000 0.0000 0.0000
vn 0.0000 0.0000 1.0000
vn -1.0000 0.0000 0.0000
vn 0.0000 -1.0000 0.0000
vn 0.0000 0.0000 -1.0000
vn 0.0000 1.0000 0.0000
vn 0.0000 0.4640 0.8858
vn 0.0000 -0.8858 0.4640
vn 0.0000 0.8858 -0.4640
usemtl Material
s off
f 12/1/1 18/2/1 20/3/1
f 13/4/2 8/5/2 4/6/2
f 14/7/3 6/8/3 8/9/3
f 2/10/4 8/11/4 6/12/4
f 1/13/1 4/6/1 2/10/1
f 5/14/5 2/10/5 6/8/5
f 11/15/6 15/16/6 9/17/6
f 5/14/3 16/18/3 11/19/3
f 1/13/1 15/16/1 13/4/1
f 5/14/5 9/17/5 1/13/5
f 7/20/7 13/4/7 3/21/7
f 10/22/7 16/23/7 12/1/7
f 3/21/7 15/16/7 10/22/7
f 12/1/7 14/24/7 7/20/7
f 17/25/7 20/3/7 18/2/7
f 12/1/8 19/26/8 10/22/8
f 10/22/3 17/25/3 3/21/3
f 3/21/9 18/2/9 7/20/9
f 12/1/1 7/20/1 18/2/1
f 13/4/2 14/24/2 8/5/2
f 14/7/3 5/14/3 6/8/3
f 2/10/4 4/6/4 8/11/4
f 1/13/1 13/4/1 4/6/1
f 5/14/5 1/13/5 2/10/5
f 11/15/6 16/27/6 15/16/6
f 5/14/3 14/7/3 16/18/3
f 1/13/1 9/17/1 15/16/1
f 5/14/5 11/19/5 9/17/5
f 7/20/7 14/24/7 13/4/7
f 10/22/7 15/16/7 16/23/7
f 3/21/7 13/4/7 15/16/7
f 12/1/7 16/23/7 14/24/7
f 17/25/7 19/26/7 20/3/7
f 12/1/8 20/3/8 19/26/8
f 10/22/3 19/26/3 17/25/3
f 3/21/9 17/25/9 18/2/9
