# Blender v3.1.2 OBJ File: ''
# www.blender.org
mtllib baraban(white).mtl
o White_Cube.001
v 0.505540 0.984910 -0.505540
v 0.505540 0.984910 0.505540
v -0.505540 0.984910 -0.505540
v -0.505540 0.984910 0.505540
v -0.638090 0.950888 0.638090
v 0.000000 0.988217 0.615185
v 0.615185 0.988217 -0.000000
v -0.615185 0.988217 -0.000000
v -0.000000 0.988217 -0.615185
v 0.638090 0.950888 -0.638090
v 0.638090 0.950888 0.638090
v -0.638090 0.950888 -0.638090
v -0.000000 0.995156 -0.000000
v -0.000000 0.951213 0.877813
v -0.877813 0.951214 0.000000
v 0.877813 0.951213 0.000000
v -0.000000 0.951214 -0.877813
v 0.491449 -0.984694 -0.494683
v 0.491449 -0.984693 0.494683
v -0.491449 -0.984694 -0.501149
v -0.491449 -0.984694 0.501149
v 0.591236 0.003800 -0.591236
v -0.591236 0.003800 0.591236
v 0.591236 0.003800 0.591236
v -0.591236 0.003800 -0.591236
v 0.328539 -0.182705 -0.330695
v 0.328539 -0.182705 0.330695
v -0.328539 -0.182705 -0.335006
v -0.328539 -0.182705 0.335006
v -0.346425 0.198051 0.346425
v 0.346425 0.198051 -0.346425
v 0.346425 0.198051 0.346425
v -0.346425 0.198051 -0.346425
v 0.554425 -0.799077 -0.563047
v 0.554425 -0.799077 0.563047
v -0.554425 -0.799077 -0.580291
v -0.554425 -0.799077 0.580291
v -0.600899 -0.988048 -0.000000
v 0.000000 -0.988048 -0.607455
v 0.610133 -0.949988 -0.616435
v 0.610133 -0.949988 0.616435
v -0.610133 -0.949988 -0.629248
v 0.000000 -0.988048 0.607455
v 0.600899 -0.988048 -0.000000
v 0.477741 0.048544 -0.477741
v -0.470729 -0.037125 0.471537
v 0.477741 0.048544 0.477741
v -0.477741 0.048544 -0.477741
v -0.000000 0.003800 -0.812950
v 0.812950 0.003800 -0.000000
v -0.812950 0.003800 0.000000
v 0.000000 0.003800 0.812950
v 0.470729 -0.037125 -0.470998
v 0.470729 -0.037125 0.470998
v -0.470729 -0.037125 -0.471537
v -0.396305 -0.489524 0.414896
v 0.000000 -0.182705 0.457669
v -0.451741 -0.182705 0.000000
v 0.451742 -0.182705 0.000000
v -0.000000 -0.182705 -0.457669
v -0.477741 0.048544 0.477741
v -0.000000 0.198051 -0.476334
v 0.476334 0.198051 -0.000000
v -0.476334 0.198051 0.000000
v 0.000000 0.198051 0.476334
v 0.396305 -0.489524 -0.402502
v 0.396305 -0.489525 0.402502
v -0.396305 -0.489525 -0.414896
v -0.610133 -0.949988 0.629248
v -0.000000 -0.799076 -0.786045
v 0.762335 -0.799076 0.000000
v -0.762335 -0.799077 0.000000
v 0.000000 -0.799077 0.786045
v 0.000000 -0.995087 -0.000000
v 0.000000 -0.037125 -0.647993
v 0.647252 -0.037125 0.000000
v -0.647252 -0.037125 -0.000000
v 0.000000 -0.037125 0.647993
v 0.000000 -0.489525 0.561961
v -0.544920 -0.489525 -0.000000
v 0.544920 -0.489525 -0.000000
v 0.000000 -0.489525 -0.561962
v 0.000000 0.048544 -0.656894
v 0.656894 0.048544 0.000000
v -0.656894 0.048544 0.000000
v 0.000000 0.048544 0.656894
v 0.000000 -0.950319 -0.857170
v 0.839972 -0.950319 -0.000000
v -0.839972 -0.950319 0.000000
v 0.000000 -0.950319 0.857170
vt 0.625000 0.500000
vt 0.753367 0.625000
vt 0.658674 0.625000
vt 0.875000 0.500000
vt 0.750000 0.500000
vt 0.875000 0.750000
vt 0.750000 0.750000
vt 0.625000 0.750000
vt 0.619454 0.875000
vt 0.619941 0.750000
vt 0.625000 1.000000
vt 0.621228 1.000000
vt 0.625000 0.000000
vt 0.619454 0.125000
vt 0.621228 0.000000
vt 0.625000 0.250000
vt 0.619100 0.250000
vt 0.622467 0.625000
vt 0.619941 0.500000
vt 0.619100 0.375000
vt 0.875000 0.625000
vt 0.625000 0.875000
vt 0.625000 0.125000
vt 0.625000 0.375000
vt 0.125000 0.500000
vt 0.246634 0.625000
vt 0.125000 0.625000
vt 0.375000 0.500000
vt 0.250000 0.500000
vt 0.375000 0.750000
vt 0.250000 0.750000
vt 0.125000 0.750000
vt 0.477162 0.250000
vt 0.495359 0.375000
vt 0.477162 0.375000
vt 0.495359 0.250000
vt 0.500475 0.375000
vt 0.495359 0.500000
vt 0.477162 0.500000
vt 0.495359 0.625000
vt 0.477162 0.625000
vt 0.500475 0.625000
vt 0.495359 0.750000
vt 0.477162 0.750000
vt 0.495079 0.000000
vt 0.495723 0.125000
vt 0.478655 0.125000
vt 0.497540 0.000000
vt 0.500436 0.125000
vt 0.495723 0.875000
vt 0.478655 0.875000
vt 0.500435 0.875000
vt 0.497540 1.000000
vt 0.495079 1.000000
vt 0.438810 0.750000
vt 0.398660 0.875000
vt 0.400115 0.750000
vt 0.438819 0.875000
vt 0.438866 1.000000
vt 0.382653 1.000000
vt 0.438866 0.000000
vt 0.398660 0.125000
vt 0.382653 0.000000
vt 0.438819 0.125000
vt 0.438810 0.250000
vt 0.400115 0.250000
vt 0.438810 0.500000
vt 0.400115 0.625000
vt 0.400115 0.500000
vt 0.438809 0.625000
vt 0.400115 0.375000
vt 0.438809 0.375000
vt 0.506068 0.250000
vt 0.500475 0.250000
vt 0.524756 0.250000
vt 0.506068 0.375000
vt 0.524756 0.500000
vt 0.506068 0.500000
vt 0.500475 0.500000
vt 0.506068 0.625000
vt 0.524756 0.750000
vt 0.506068 0.750000
vt 0.500475 0.750000
vt 0.503885 0.000000
vt 0.500000 0.000000
vt 0.507771 0.000000
vt 0.505704 0.125000
vt 0.505704 0.875000
vt 0.507771 1.000000
vt 0.503885 1.000000
vt 0.500000 1.000000
vt 0.375000 0.250000
vt 0.381009 0.375000
vt 0.375000 0.375000
vt 0.381009 0.250000
vt 0.380168 0.500000
vt 0.377643 0.625000
vt 0.341341 0.625000
vt 0.380168 0.750000
vt 0.375000 0.000000
vt 0.380646 0.125000
vt 0.375000 0.125000
vt 0.378827 0.000000
vt 0.375000 0.875000
vt 0.380646 0.875000
vt 0.378827 1.000000
vt 0.375000 1.000000
vt 0.524756 0.375000
vt 0.524756 0.625000
vt 0.523341 0.125000
vt 0.523341 0.875000
vn 0.0113 0.9999 -0.0090
vn -0.0090 0.9999 -0.0113
vn -0.0090 0.9999 0.0113
vn 0.0113 0.9999 0.0090
vn 0.0691 0.9808 0.1826
vn -0.0691 0.9808 0.1826
vn -0.1826 0.9808 0.0691
vn -0.1826 0.9808 -0.0691
vn 0.1826 0.9808 -0.0691
vn 0.1826 0.9808 0.0691
vn -0.0691 0.9808 -0.1826
vn 0.0691 0.9808 -0.1826
vn 0.0090 0.9999 -0.0113
vn -0.0113 0.9999 -0.0090
vn -0.0113 0.9999 0.0090
vn 0.0090 0.9999 0.0113
vn 0.0367 0.9896 0.1394
vn -0.0367 0.9896 0.1394
vn -0.1394 0.9896 0.0367
vn -0.1394 0.9896 -0.0367
vn 0.1394 0.9896 -0.0367
vn 0.1394 0.9896 0.0367
vn -0.0367 0.9896 -0.1394
vn 0.0367 0.9896 -0.1394
vn -0.0117 -0.9999 -0.0093
vn 0.0095 -0.9999 -0.0116
vn 0.0095 -0.9999 0.0116
vn -0.0117 -0.9999 0.0093
vn -0.2212 -0.7746 -0.5925
vn -0.0899 -0.9666 -0.2398
vn 0.0902 -0.9666 -0.2398
vn 0.2286 -0.7732 -0.5915
vn 0.5830 -0.7829 -0.2172
vn 0.2388 -0.9669 -0.0895
vn 0.2388 -0.9669 0.0895
vn 0.5830 -0.7829 0.2172
vn -0.5833 -0.7834 0.2145
vn -0.2388 -0.9669 0.0894
vn -0.2388 -0.9669 -0.0894
vn -0.5833 -0.7834 -0.2145
vn 0.2286 -0.7732 0.5915
vn 0.0902 -0.9666 0.2398
vn -0.0899 -0.9666 0.2398
vn -0.2212 -0.7746 0.5925
vn 0.3098 0.5576 0.7701
vn 0.3560 0.3007 0.8848
vn -0.3315 0.3036 0.8933
vn -0.2879 0.5615 0.7758
vn -0.7853 0.5515 0.2814
vn -0.9028 0.2836 0.3234
vn -0.9028 0.2836 -0.3234
vn -0.7853 0.5515 -0.2814
vn 0.7834 0.5502 -0.2893
vn 0.9014 0.2770 -0.3328
vn 0.9014 0.2770 0.3328
vn 0.7834 0.5502 0.2893
vn -0.2879 0.5615 -0.7758
vn -0.3315 0.3036 -0.8933
vn 0.3560 0.3007 -0.8848
vn 0.3098 0.5576 -0.7701
vn -0.1028 0.9562 -0.2741
vn -0.2326 0.7491 -0.6203
vn 0.2326 0.7491 -0.6203
vn 0.1028 0.9562 -0.2741
vn 0.2741 0.9562 -0.1028
vn 0.6203 0.7491 -0.2326
vn 0.6203 0.7491 0.2326
vn 0.2741 0.9562 0.1028
vn -0.2741 0.9562 0.1028
vn -0.6203 0.7491 0.2326
vn -0.6203 0.7491 -0.2326
vn -0.2741 0.9562 -0.1028
vn 0.1028 0.9562 0.2741
vn 0.2326 0.7491 0.6203
vn -0.2326 0.7491 0.6203
vn -0.1028 0.9562 0.2741
vn -0.0390 -0.9880 -0.1493
vn -0.3209 0.3974 -0.8597
vn 0.3327 0.4213 -0.8437
vn 0.0575 -0.9735 -0.2215
vn 0.1558 -0.9869 -0.0412
vn 0.8483 0.4249 -0.3160
vn 0.8483 0.4249 0.3160
vn 0.1558 -0.9869 0.0412
vn -0.1558 -0.9870 0.0406
vn -0.8541 0.4164 0.3117
vn -0.8541 0.4164 -0.3117
vn -0.1558 -0.9870 -0.0406
vn 0.0575 -0.9735 0.2215
vn 0.3327 0.4213 0.8437
vn -0.3209 0.3974 0.8597
vn -0.0390 -0.9880 0.1493
vn -0.0093 -0.9999 -0.0116
vn 0.0117 -0.9999 -0.0094
vn 0.0117 -0.9999 0.0094
vn -0.0093 -0.9999 0.0116
vn -0.2224 -0.7736 -0.5933
vn -0.0900 -0.9666 -0.2399
vn 0.0897 -0.9668 -0.2392
vn 0.2203 -0.7799 -0.5859
vn 0.5842 -0.7816 -0.2189
vn 0.2390 -0.9669 -0.0896
vn 0.2390 -0.9669 0.0896
vn 0.5842 -0.7816 0.2189
vn -0.5869 -0.7793 0.2197
vn -0.2392 -0.9668 0.0897
vn -0.2392 -0.9668 -0.0897
vn -0.5869 -0.7793 -0.2197
vn 0.2203 -0.7799 0.5859
vn 0.0897 -0.9668 0.2392
vn -0.0900 -0.9666 0.2399
vn -0.2224 -0.7736 0.5933
vn 0.3099 0.5575 0.7702
vn 0.3455 0.2855 0.8939
vn -0.3330 0.3058 0.8920
vn -0.2879 0.5616 0.7757
vn -0.7853 0.5515 0.2813
vn -0.9026 0.2741 0.3319
vn -0.9026 0.2741 -0.3319
vn -0.7853 0.5515 -0.2813
vn 0.7833 0.5502 -0.2892
vn 0.9013 0.2737 -0.3358
vn 0.9013 0.2737 0.3358
vn 0.7833 0.5502 0.2892
vn -0.2879 0.5616 -0.7757
vn -0.3330 0.3058 -0.8920
vn 0.3455 0.2855 -0.8939
vn 0.3099 0.5575 -0.7702
vn -0.0739 -0.9777 -0.1964
vn -0.3184 0.4034 -0.8578
vn 0.3420 0.3999 -0.8504
vn 0.0594 -0.9870 -0.1491
vn 0.2059 -0.9755 -0.0773
vn 0.8452 0.4339 -0.3121
vn 0.8452 0.4339 0.3121
vn 0.2059 -0.9755 0.0773
vn -0.2043 -0.9760 0.0751
vn -0.8476 0.4351 0.3037
vn -0.8476 0.4351 -0.3037
vn -0.2043 -0.9760 -0.0751
vn 0.0594 -0.9870 0.1491
vn 0.3420 0.3999 0.8504
vn -0.3184 0.4034 0.8578
vn -0.0739 -0.9777 0.1964
usemtl Material
s off
f 1/1/1 13/2/1 7/3/1
f 3/4/2 13/2/2 9/5/2
f 13/2/3 4/6/3 6/7/3
f 13/2/4 2/8/4 7/3/4
f 2/8/5 14/9/5 11/10/5
f 14/9/6 4/11/6 5/12/6
f 4/13/7 15/14/7 5/15/7
f 15/14/8 3/16/8 12/17/8
f 1/1/9 16/18/9 10/19/9
f 16/18/10 2/8/10 11/10/10
f 3/16/11 17/20/11 12/17/11
f 17/20/12 1/1/12 10/19/12
f 1/1/13 9/5/13 13/2/13
f 3/4/14 8/21/14 13/2/14
f 13/2/15 8/21/15 4/6/15
f 13/2/16 6/7/16 2/8/16
f 2/8/17 6/22/17 14/9/17
f 14/9/18 6/22/18 4/11/18
f 4/13/19 8/23/19 15/14/19
f 15/14/20 8/23/20 3/16/20
f 1/1/21 7/3/21 16/18/21
f 16/18/22 7/3/22 2/8/22
f 3/16/23 9/24/23 17/20/23
f 17/20/24 9/24/24 1/1/24
f 20/25/25 74/26/25 38/27/25
f 18/28/26 74/26/26 39/29/26
f 74/26/27 19/30/27 43/31/27
f 74/26/28 21/32/28 38/27/28
f 28/33/29 75/34/29 60/35/29
f 55/36/30 49/37/30 75/34/30
f 49/37/31 53/38/31 75/34/31
f 75/34/32 26/39/32 60/35/32
f 26/39/33 76/40/33 59/41/33
f 53/38/34 50/42/34 76/40/34
f 50/42/35 54/43/35 76/40/35
f 76/40/36 27/44/36 59/41/36
f 29/45/37 77/46/37 58/47/37
f 46/48/38 51/49/38 77/46/38
f 51/49/39 55/36/39 77/46/39
f 77/46/40 28/33/40 58/47/40
f 27/44/41 78/50/41 57/51/41
f 54/43/42 52/52/42 78/50/42
f 52/52/43 46/53/43 78/50/43
f 78/50/44 29/54/44 57/51/44
f 67/55/45 73/56/45 35/57/45
f 67/55/46 57/51/46 79/58/46
f 57/51/47 56/59/47 79/58/47
f 73/56/48 56/59/48 37/60/48
f 56/61/49 72/62/49 37/63/49
f 29/45/50 80/64/50 56/61/50
f 80/64/51 28/33/51 68/65/51
f 72/62/52 68/65/52 36/66/52
f 66/67/53 71/68/53 34/69/53
f 26/39/54 81/70/54 66/67/54
f 81/70/55 27/44/55 67/55/55
f 71/68/56 67/55/56 35/57/56
f 68/65/57 70/71/57 36/66/57
f 68/65/58 60/35/58 82/72/58
f 60/35/59 66/67/59 82/72/59
f 70/71/60 66/67/60 34/69/60
f 48/73/61 49/37/61 25/74/61
f 33/75/62 83/76/62 48/73/62
f 83/76/63 31/77/63 45/78/63
f 49/37/64 45/78/64 22/79/64
f 45/78/65 50/42/65 22/79/65
f 31/77/66 84/80/66 45/78/66
f 84/80/67 32/81/67 47/82/67
f 50/42/68 47/82/68 24/83/68
f 61/84/69 51/49/69 23/85/69
f 30/86/70 85/87/70 61/84/70
f 85/87/71 33/75/71 48/73/71
f 51/49/72 48/73/72 25/74/72
f 47/82/73 52/52/73 24/83/73
f 32/81/74 86/88/74 47/82/74
f 86/88/75 30/89/75 61/90/75
f 52/52/76 61/90/76 23/91/76
f 20/92/77 87/93/77 39/94/77
f 36/66/78 87/93/78 42/95/78
f 87/93/79 34/69/79 40/96/79
f 39/94/80 40/96/80 18/28/80
f 18/28/81 88/97/81 44/98/81
f 34/69/82 88/97/82 40/96/82
f 88/97/83 35/57/83 41/99/83
f 88/97/84 19/30/84 44/98/84
f 21/100/85 89/101/85 38/102/85
f 37/63/86 89/101/86 69/103/86
f 89/101/87 36/66/87 42/95/87
f 89/101/88 20/92/88 38/102/88
f 41/99/89 43/104/89 19/30/89
f 35/57/90 90/105/90 41/99/90
f 90/105/91 37/60/91 69/106/91
f 90/105/92 21/107/92 43/104/92
f 20/25/93 39/29/93 74/26/93
f 18/28/94 44/98/94 74/26/94
f 74/26/95 44/98/95 19/30/95
f 74/26/96 43/31/96 21/32/96
f 28/33/97 55/36/97 75/34/97
f 55/36/98 25/74/98 49/37/98
f 49/37/99 22/79/99 53/38/99
f 75/34/100 53/38/100 26/39/100
f 26/39/101 53/38/101 76/40/101
f 53/38/102 22/79/102 50/42/102
f 50/42/103 24/83/103 54/43/103
f 76/40/104 54/43/104 27/44/104
f 29/45/105 46/48/105 77/46/105
f 46/48/106 23/85/106 51/49/106
f 51/49/107 25/74/107 55/36/107
f 77/46/108 55/36/108 28/33/108
f 27/44/109 54/43/109 78/50/109
f 54/43/110 24/83/110 52/52/110
f 52/52/111 23/91/111 46/53/111
f 78/50/112 46/53/112 29/54/112
f 67/55/113 79/58/113 73/56/113
f 67/55/114 27/44/114 57/51/114
f 57/51/115 29/54/115 56/59/115
f 73/56/116 79/58/116 56/59/116
f 56/61/117 80/64/117 72/62/117
f 29/45/118 58/47/118 80/64/118
f 80/64/119 58/47/119 28/33/119
f 72/62/120 80/64/120 68/65/120
f 66/67/121 81/70/121 71/68/121
f 26/39/122 59/41/122 81/70/122
f 81/70/123 59/41/123 27/44/123
f 71/68/124 81/70/124 67/55/124
f 68/65/125 82/72/125 70/71/125
f 68/65/126 28/33/126 60/35/126
f 60/35/127 26/39/127 66/67/127
f 70/71/128 82/72/128 66/67/128
f 48/73/61 83/76/61 49/37/61
f 33/75/62 62/108/62 83/76/62
f 83/76/63 62/108/63 31/77/63
f 49/37/64 83/76/64 45/78/64
f 45/78/65 84/80/65 50/42/65
f 31/77/66 63/109/66 84/80/66
f 84/80/67 63/109/67 32/81/67
f 50/42/68 84/80/68 47/82/68
f 61/84/69 85/87/69 51/49/69
f 30/86/70 64/110/70 85/87/70
f 85/87/71 64/110/71 33/75/71
f 51/49/72 85/87/72 48/73/72
f 47/82/73 86/88/73 52/52/73
f 32/81/74 65/111/74 86/88/74
f 86/88/75 65/111/75 30/89/75
f 52/52/76 86/88/76 61/90/76
f 20/92/129 42/95/129 87/93/129
f 36/66/130 70/71/130 87/93/130
f 87/93/131 70/71/131 34/69/131
f 39/94/132 87/93/132 40/96/132
f 18/28/133 40/96/133 88/97/133
f 34/69/134 71/68/134 88/97/134
f 88/97/135 71/68/135 35/57/135
f 88/97/136 41/99/136 19/30/136
f 21/100/137 69/103/137 89/101/137
f 37/63/138 72/62/138 89/101/138
f 89/101/139 72/62/139 36/66/139
f 89/101/140 42/95/140 20/92/140
f 41/99/141 90/105/141 43/104/141
f 35/57/142 73/56/142 90/105/142
f 90/105/143 73/56/143 37/60/143
f 90/105/144 69/106/144 21/107/144
