# Blender v3.1.2 OBJ File: ''
# www.blender.org
mtllib baraban(black).mtl
o Black_Cube.003
v 1.658561 1.346350 -0.477448
v 1.658561 1.314569 -0.477448
v 1.658561 1.346350 -0.445667
v 1.658561 1.314569 -0.445667
v -0.054183 1.346350 -0.477448
v -0.054183 1.314569 -0.477448
v -0.054183 1.346350 -0.445667
v -0.054183 1.314569 -0.445667
v 1.658561 1.346350 0.432623
v 1.658561 1.314569 0.432623
v 1.658561 1.346350 0.464404
v 1.658561 1.314569 0.464404
v -0.054183 1.346350 0.432623
v -0.054183 1.314569 0.432623
v -0.054183 1.346350 0.464404
v -0.054183 1.314569 0.464404
v -0.346425 0.198051 0.346425
v 0.346425 0.198051 -0.346425
v 0.346425 0.198051 0.346425
v -0.346425 0.198051 -0.346425
v -0.594123 0.803455 0.594123
v 0.594123 0.803455 -0.594123
v 0.594123 0.803455 0.594123
v -0.594123 0.803455 -0.594123
v -0.638090 0.950888 0.638090
v 0.429416 0.500866 -0.429416
v 0.429416 0.500866 0.429415
v -0.429416 0.500866 -0.429416
v 0.000000 0.198051 -0.476334
v 0.476334 0.198051 -0.000000
v -0.476334 0.198051 -0.000000
v 0.000000 0.198051 0.476334
v -0.429416 0.500866 0.429415
v 0.638090 0.950888 -0.638090
v 0.638090 0.950888 0.638090
v -0.638090 0.950888 -0.638090
v 0.000000 0.803455 -0.816919
v 0.816919 0.803455 -0.000000
v -0.816919 0.803455 -0.000000
v 0.000000 0.803455 0.816918
v 0.000000 0.951213 0.877813
v -0.877813 0.951214 -0.000000
v 0.877813 0.951213 -0.000000
v 0.000000 0.951214 -0.877813
v 0.000000 0.500866 -0.590446
v 0.590446 0.500866 -0.000000
v -0.590446 0.500866 -0.000000
v 0.000000 0.500866 0.590446
vt 0.625000 0.000000
vt 0.375000 0.000000
vt 0.375000 0.250000
vt 0.625000 0.250000
vt 0.375000 0.500000
vt 0.625000 0.500000
vt 0.375000 0.750000
vt 0.625000 0.750000
vt 0.375000 1.000000
vt 0.125000 0.500000
vt 0.125000 0.750000
vt 0.875000 0.500000
vt 0.625000 0.000000
vt 0.375000 0.000000
vt 0.375000 0.250000
vt 0.625000 0.250000
vt 0.375000 0.500000
vt 0.625000 0.500000
vt 0.375000 0.750000
vt 0.625000 0.750000
vt 0.375000 1.000000
vt 0.125000 0.500000
vt 0.125000 0.750000
vt 0.875000 0.500000
vt 0.600432 0.750000
vt 0.619454 0.875000
vt 0.601850 0.875000
vt 0.617455 1.000000
vt 0.617455 0.000000
vt 0.619454 0.125000
vt 0.601850 0.125000
vt 0.600432 0.250000
vt 0.600432 0.500000
vt 0.622467 0.625000
vt 0.600432 0.625000
vt 0.619100 0.375000
vt 0.600432 0.375000
vt 0.524756 0.250000
vt 0.562608 0.375000
vt 0.524756 0.375000
vt 0.562608 0.250000
vt 0.562608 0.500000
vt 0.524756 0.500000
vt 0.562608 0.625000
vt 0.524756 0.625000
vt 0.562608 0.750000
vt 0.524756 0.750000
vt 0.507771 0.000000
vt 0.562609 0.125000
vt 0.523341 0.125000
vt 0.562613 0.000000
vt 0.562609 0.875000
vt 0.523341 0.875000
vt 0.562613 1.000000
vt 0.507771 1.000000
vt 0.619941 0.750000
vt 0.621228 1.000000
vt 0.621228 0.000000
vt 0.619100 0.250000
vt 0.619941 0.500000
vt 0.625000 1.000000
vt 0.875000 0.750000
vt 0.625000 1.000000
vt 0.875000 0.750000
vn 1.0000 0.0000 0.0000
vn 0.0000 0.0000 1.0000
vn -1.0000 0.0000 0.0000
vn 0.0000 0.0000 -1.0000
vn 0.0000 1.0000 0.0000
vn 0.0000 -1.0000 0.0000
vn 0.3276 -0.3600 0.8735
vn -0.3276 -0.3600 0.8735
vn -0.8735 -0.3600 0.3276
vn -0.8735 -0.3600 -0.3276
vn 0.8735 -0.3600 -0.3276
vn 0.8735 -0.3600 0.3276
vn -0.3276 -0.3600 -0.8735
vn 0.3276 -0.3600 -0.8735
vn -0.3311 -0.3327 -0.8830
vn -0.2875 -0.5739 -0.7668
vn 0.2875 -0.5739 -0.7668
vn 0.3311 -0.3327 -0.8830
vn 0.8830 -0.3327 -0.3311
vn 0.7668 -0.5739 -0.2875
vn 0.7668 -0.5739 0.2875
vn 0.8830 -0.3327 0.3311
vn -0.8830 -0.3327 0.3311
vn -0.7668 -0.5739 0.2875
vn -0.7668 -0.5739 -0.2875
vn -0.8830 -0.3327 -0.3311
vn 0.3311 -0.3327 0.8830
vn 0.2875 -0.5739 0.7668
vn -0.2875 -0.5739 0.7668
vn -0.3311 -0.3327 0.8830
vn 0.3282 -0.3585 0.8740
vn -0.3282 -0.3585 0.8740
vn -0.8740 -0.3585 0.3282
vn -0.8740 -0.3585 -0.3282
vn 0.8740 -0.3585 -0.3282
vn 0.8740 -0.3585 0.3282
vn -0.3282 -0.3585 -0.8740
vn 0.3282 -0.3585 -0.8740
usemtl Material
s off
f 2/1/1 1/2/1 3/3/1
f 4/4/2 3/3/2 7/5/2
f 8/6/3 7/5/3 5/7/3
f 6/8/4 5/7/4 1/9/4
f 7/5/5 3/10/5 1/11/5
f 4/12/6 8/6/6 6/8/6
f 10/13/1 9/14/1 11/15/1
f 12/16/2 11/15/2 15/17/2
f 16/18/3 15/17/3 13/19/3
f 14/20/4 13/19/4 9/21/4
f 15/17/5 11/22/5 9/23/5
f 12/24/6 16/18/6 14/20/6
f 23/25/7 41/26/7 40/27/7
f 41/26/8 21/28/8 40/27/8
f 21/29/9 42/30/9 39/31/9
f 42/30/10 24/32/10 39/31/10
f 22/33/11 43/34/11 38/35/11
f 43/34/12 23/25/12 38/35/12
f 24/32/13 44/36/13 37/37/13
f 44/36/14 22/33/14 37/37/14
f 20/38/15 45/39/15 29/40/15
f 28/41/16 37/37/16 45/39/16
f 37/37/17 26/42/17 45/39/17
f 45/39/18 18/43/18 29/40/18
f 18/43/19 46/44/19 30/45/19
f 26/42/20 38/35/20 46/44/20
f 38/35/21 27/46/21 46/44/21
f 46/44/22 19/47/22 30/45/22
f 17/48/23 47/49/23 31/50/23
f 33/51/24 39/31/24 47/49/24
f 39/31/25 28/41/25 47/49/25
f 47/49/26 20/38/26 31/50/26
f 19/47/27 48/52/27 32/53/27
f 27/46/28 40/27/28 48/52/28
f 40/27/29 33/54/29 48/52/29
f 48/52/30 17/55/30 32/53/30
f 23/25/31 35/56/31 41/26/31
f 41/26/32 25/57/32 21/28/32
f 21/29/33 25/58/33 42/30/33
f 42/30/34 36/59/34 24/32/34
f 22/33/35 34/60/35 43/34/35
f 43/34/36 35/56/36 23/25/36
f 24/32/37 36/59/37 44/36/37
f 44/36/38 34/60/38 22/33/38
f 20/38/15 28/41/15 45/39/15
f 28/41/16 24/32/16 37/37/16
f 37/37/17 22/33/17 26/42/17
f 45/39/18 26/42/18 18/43/18
f 18/43/19 26/42/19 46/44/19
f 26/42/20 22/33/20 38/35/20
f 38/35/21 23/25/21 27/46/21
f 46/44/22 27/46/22 19/47/22
f 17/48/23 33/51/23 47/49/23
f 33/51/24 21/29/24 39/31/24
f 39/31/25 24/32/25 28/41/25
f 47/49/26 28/41/26 20/38/26
f 19/47/27 27/46/27 48/52/27
f 27/46/28 23/25/28 40/27/28
f 40/27/29 21/28/29 33/54/29
f 48/52/30 33/54/30 17/55/30
f 2/1/1 3/3/1 4/4/1
f 4/4/2 7/5/2 8/6/2
f 8/6/3 5/7/3 6/8/3
f 6/8/4 1/9/4 2/61/4
f 7/5/5 1/11/5 5/7/5
f 4/12/6 6/8/6 2/62/6
f 10/13/1 11/15/1 12/16/1
f 12/16/2 15/17/2 16/18/2
f 16/18/3 13/19/3 14/20/3
f 14/20/4 9/21/4 10/63/4
f 15/17/5 9/23/5 13/19/5
f 12/24/6 14/20/6 10/64/6
