# Blender v3.1.2 OBJ File: ''
# www.blender.org
mtllib BGSpamton(M)(G1).mtl
o Circle.001
v -0.115019 1.826227 0.301430
v -0.132717 1.823902 0.301430
v -0.149735 1.817017 0.301430
v -0.165419 1.805836 0.301430
v -0.179166 1.790788 0.301430
v -0.190447 1.772452 0.301430
v -0.198831 1.751533 0.301430
v -0.203993 1.728835 0.301430
v -0.205736 1.705229 0.301430
v -0.203993 1.681624 0.301430
v -0.198831 1.658925 0.301430
v -0.190447 1.638006 0.301430
v -0.179166 1.619671 0.301430
v -0.165419 1.604623 0.301430
v -0.149735 1.593441 0.301430
v -0.132717 1.586556 0.301430
v -0.115019 1.584231 0.301430
v -0.097320 1.586556 0.301430
v -0.080302 1.593441 0.301430
v -0.064619 1.604623 0.301430
v -0.050872 1.619671 0.301430
v -0.039590 1.638006 0.301430
v -0.031206 1.658925 0.301430
v -0.026044 1.681624 0.301430
v -0.024301 1.705229 0.301430
v -0.026044 1.728835 0.301430
v -0.031206 1.751533 0.301430
v -0.039590 1.772452 0.301430
v -0.050872 1.790788 0.301430
v -0.064619 1.805836 0.301430
v -0.080302 1.817017 0.301430
v -0.097320 1.823902 0.301430
v -0.115019 1.826227 0.318988
v -0.132717 1.823902 0.318988
v -0.149735 1.817017 0.318988
v -0.165419 1.805836 0.318988
v -0.179166 1.790788 0.318988
v -0.190447 1.772452 0.318988
v -0.198831 1.751533 0.318988
v -0.203993 1.728835 0.318988
v -0.205736 1.705229 0.318988
v -0.203993 1.681624 0.318988
v -0.198831 1.658925 0.318988
v -0.190447 1.638006 0.318988
v -0.179166 1.619671 0.318988
v -0.165419 1.604623 0.318988
v -0.149735 1.593441 0.318988
v -0.132717 1.586556 0.318988
v -0.115019 1.584231 0.318988
v -0.097320 1.586556 0.318988
v -0.080302 1.593441 0.318988
v -0.064619 1.604623 0.318988
v -0.050872 1.619671 0.318988
v -0.039590 1.638006 0.318988
v -0.031206 1.658925 0.318988
v -0.026044 1.681624 0.318988
v -0.024301 1.705229 0.318988
v -0.026044 1.728835 0.318988
v -0.031206 1.751533 0.318988
v -0.039590 1.772452 0.318988
v -0.050872 1.790788 0.318988
v -0.064619 1.805836 0.318988
v -0.080302 1.817017 0.318988
v -0.097320 1.823902 0.318988
vt 0.000000 0.000000
vt 0.000000 0.000000
vt 0.000000 0.000000
vt 0.000000 0.000000
vt 0.000000 0.000000
vt 0.000000 0.000000
vt 0.000000 0.000000
vt 0.000000 0.000000
vt 0.000000 0.000000
vt 0.000000 0.000000
vt 0.000000 0.000000
vt 0.000000 0.000000
vt 0.000000 0.000000
vt 0.000000 0.000000
vt 0.000000 0.000000
vt 0.000000 0.000000
vt 0.000000 0.000000
vt 0.000000 0.000000
vt 0.000000 0.000000
vt 0.000000 0.000000
vt 0.000000 0.000000
vt 0.000000 0.000000
vt 0.000000 0.000000
vt 0.000000 0.000000
vt 0.000000 0.000000
vt 0.000000 0.000000
vt 0.000000 0.000000
vt 0.000000 0.000000
vt 0.000000 0.000000
vt 0.000000 0.000000
vt 0.000000 0.000000
vt 0.000000 0.000000
vt 0.000000 0.000000
vt 0.000000 0.000000
vt 0.000000 0.000000
vt 0.000000 0.000000
vt 0.000000 0.000000
vt 0.000000 0.000000
vt 0.000000 0.000000
vt 0.000000 0.000000
vt 0.000000 0.000000
vt 0.000000 0.000000
vt 0.000000 0.000000
vt 0.000000 0.000000
vt 0.000000 0.000000
vt 0.000000 0.000000
vt 0.000000 0.000000
vt 0.000000 0.000000
vt 0.000000 0.000000
vt 0.000000 0.000000
vt 0.000000 0.000000
vt 0.000000 0.000000
vt 0.000000 0.000000
vt 0.000000 0.000000
vt 0.000000 0.000000
vt 0.000000 0.000000
vt 0.000000 0.000000
vt 0.000000 0.000000
vt 0.000000 0.000000
vt 0.000000 0.000000
vt 0.000000 0.000000
vt 0.000000 0.000000
vt 0.000000 0.000000
vt 0.000000 0.000000
vn 0.0000 0.0000 -1.0000
vn 0.0000 -0.0000 1.0000
vn 0.9973 0.0736 0.0000
vn -0.8517 -0.5240 0.0000
vn 0.9751 0.2218 0.0000
vn -0.7383 -0.6745 0.0000
vn 0.9282 0.3720 0.0000
vn -0.5805 -0.8143 0.0000
vn -0.1302 0.9915 0.0000
vn 0.8517 0.5240 0.0000
vn -0.3751 -0.9270 0.0000
vn -0.3751 0.9270 0.0000
vn 0.7383 0.6745 0.0000
vn -0.1302 -0.9915 0.0000
vn -0.5805 0.8143 0.0000
vn 0.5805 0.8143 0.0000
vn 0.1302 -0.9915 0.0000
vn -0.7383 0.6745 0.0000
vn 0.3751 0.9270 0.0000
vn 0.3751 -0.9270 0.0000
vn -0.8517 0.5240 0.0000
vn 0.1302 0.9915 0.0000
vn 0.5805 -0.8143 0.0000
vn -0.9282 0.3720 0.0000
vn 0.7383 -0.6745 0.0000
vn -0.9751 0.2218 0.0000
vn 0.8517 -0.5240 0.0000
vn -0.9973 0.0736 0.0000
vn 0.9282 -0.3720 0.0000
vn -0.9973 -0.0736 0.0000
vn 0.9751 -0.2218 0.0000
vn -0.9751 -0.2218 0.0000
vn 0.9973 -0.0736 0.0000
vn -0.9282 -0.3720 0.0000
usemtl Material.025
s off
f 27/1/1 19/2/1 11/3/1
f 33/4/2 41/5/2 49/6/2
f 26/7/3 57/8/3 25/9/3
f 13/10/4 44/11/4 12/12/4
f 27/1/5 58/13/5 26/7/5
f 14/14/6 45/15/6 13/10/6
f 28/16/7 59/17/7 27/1/7
f 15/18/8 46/19/8 14/14/8
f 2/20/9 33/4/9 1/21/9
f 29/22/10 60/23/10 28/16/10
f 16/24/11 47/25/11 15/18/11
f 3/26/12 34/27/12 2/20/12
f 30/28/13 61/29/13 29/22/13
f 17/30/14 48/31/14 16/24/14
f 4/32/15 35/33/15 3/26/15
f 31/34/16 62/35/16 30/28/16
f 18/36/17 49/6/17 17/30/17
f 5/37/18 36/38/18 4/32/18
f 32/39/19 63/40/19 31/34/19
f 19/2/20 50/41/20 18/36/20
f 6/42/21 37/43/21 5/37/21
f 1/21/22 64/44/22 32/39/22
f 20/45/23 51/46/23 19/2/23
f 7/47/24 38/48/24 6/42/24
f 21/49/25 52/50/25 20/45/25
f 8/51/26 39/52/26 7/47/26
f 22/53/27 53/54/27 21/49/27
f 9/55/28 40/56/28 8/51/28
f 23/57/29 54/58/29 22/53/29
f 10/59/30 41/5/30 9/55/30
f 24/60/31 55/61/31 23/57/31
f 11/3/32 42/62/32 10/59/32
f 25/9/33 56/63/33 24/60/33
f 12/12/34 43/64/34 11/3/34
f 3/26/1 2/20/1 31/34/1
f 2/20/1 1/21/1 31/34/1
f 1/21/1 32/39/1 31/34/1
f 31/34/1 30/28/1 29/22/1
f 29/22/1 28/16/1 31/34/1
f 28/16/1 27/1/1 31/34/1
f 27/1/1 26/7/1 25/9/1
f 25/9/1 24/60/1 23/57/1
f 23/57/1 22/53/1 21/49/1
f 21/49/1 20/45/1 19/2/1
f 19/2/1 18/36/1 17/30/1
f 17/30/1 16/24/1 15/18/1
f 15/18/1 14/14/1 13/10/1
f 13/10/1 12/12/1 11/3/1
f 11/3/1 10/59/1 9/55/1
f 9/55/1 8/51/1 7/47/1
f 7/47/1 6/42/1 5/37/1
f 5/37/1 4/32/1 3/26/1
f 27/1/1 25/9/1 19/2/1
f 25/9/1 23/57/1 19/2/1
f 23/57/1 21/49/1 19/2/1
f 19/2/1 17/30/1 15/18/1
f 15/18/1 13/10/1 19/2/1
f 13/10/1 11/3/1 19/2/1
f 11/3/1 9/55/1 3/26/1
f 9/55/1 7/47/1 3/26/1
f 7/47/1 5/37/1 3/26/1
f 3/26/1 31/34/1 27/1/1
f 3/26/1 27/1/1 11/3/1
f 33/4/2 34/27/2 37/43/2
f 34/27/2 35/33/2 37/43/2
f 35/33/2 36/38/2 37/43/2
f 37/43/2 38/48/2 39/52/2
f 39/52/2 40/56/2 37/43/2
f 40/56/2 41/5/2 37/43/2
f 41/5/2 42/62/2 45/15/2
f 42/62/2 43/64/2 45/15/2
f 43/64/2 44/11/2 45/15/2
f 45/15/2 46/19/2 47/25/2
f 47/25/2 48/31/2 49/6/2
f 49/6/2 50/41/2 51/46/2
f 51/46/2 52/50/2 53/54/2
f 53/54/2 54/58/2 55/61/2
f 55/61/2 56/63/2 53/54/2
f 56/63/2 57/8/2 53/54/2
f 57/8/2 58/13/2 59/17/2
f 59/17/2 60/23/2 57/8/2
f 60/23/2 61/29/2 57/8/2
f 61/29/2 62/35/2 33/4/2
f 62/35/2 63/40/2 33/4/2
f 63/40/2 64/44/2 33/4/2
f 45/15/2 47/25/2 41/5/2
f 47/25/2 49/6/2 41/5/2
f 49/6/2 51/46/2 57/8/2
f 51/46/2 53/54/2 57/8/2
f 33/4/2 37/43/2 41/5/2
f 57/8/2 61/29/2 49/6/2
f 61/29/2 33/4/2 49/6/2
f 26/7/3 58/13/3 57/8/3
f 13/10/4 45/15/4 44/11/4
f 27/1/5 59/17/5 58/13/5
f 14/14/6 46/19/6 45/15/6
f 28/16/7 60/23/7 59/17/7
f 15/18/8 47/25/8 46/19/8
f 2/20/9 34/27/9 33/4/9
f 29/22/10 61/29/10 60/23/10
f 16/24/11 48/31/11 47/25/11
f 3/26/12 35/33/12 34/27/12
f 30/28/13 62/35/13 61/29/13
f 17/30/14 49/6/14 48/31/14
f 4/32/15 36/38/15 35/33/15
f 31/34/16 63/40/16 62/35/16
f 18/36/17 50/41/17 49/6/17
f 5/37/18 37/43/18 36/38/18
f 32/39/19 64/44/19 63/40/19
f 19/2/20 51/46/20 50/41/20
f 6/42/21 38/48/21 37/43/21
f 1/21/22 33/4/22 64/44/22
f 20/45/23 52/50/23 51/46/23
f 7/47/24 39/52/24 38/48/24
f 21/49/25 53/54/25 52/50/25
f 8/51/26 40/56/26 39/52/26
f 22/53/27 54/58/27 53/54/27
f 9/55/28 41/5/28 40/56/28
f 23/57/29 55/61/29 54/58/29
f 10/59/30 42/62/30 41/5/30
f 24/60/31 56/63/31 55/61/31
f 11/3/32 43/64/32 42/62/32
f 25/9/33 57/8/33 56/63/33
f 12/12/34 44/11/34 43/64/34
