# Blender v3.1.2 OBJ File: ''
# www.blender.org
mtllib BGSpamton(F)(G2).mtl
o Circle.002
v -0.021333 1.782328 0.327457
v -0.098650 1.533363 0.327457
v -0.285309 1.636488 0.327457
v -0.153321 1.899958 0.355108
v -0.296185 1.709408 0.355108
v -0.153321 1.518859 0.355108
v -0.013203 1.746583 0.327457
v -0.010458 1.709408 0.355108
v -0.010458 1.709408 0.327457
v -0.254340 1.574670 0.327457
v -0.272108 1.603544 0.355108
v -0.272108 1.603544 0.327457
v -0.013203 1.746583 0.355108
v -0.232691 1.550972 0.327457
v -0.254340 1.574670 0.355108
v -0.034534 1.815272 0.327457
v -0.021333 1.782328 0.355108
v -0.207992 1.533363 0.327457
v -0.232691 1.550972 0.355108
v -0.181192 1.896296 0.327457
v -0.153321 1.899958 0.327457
v -0.052301 1.844148 0.327457
v -0.034534 1.815272 0.355108
v -0.181192 1.522520 0.327457
v -0.207992 1.533363 0.355108
v -0.207992 1.885454 0.327457
v -0.181192 1.896296 0.355108
v -0.073950 1.867846 0.327457
v -0.052301 1.844148 0.355108
v -0.153321 1.518859 0.327457
v -0.181192 1.522520 0.355108
v -0.232691 1.867846 0.327457
v -0.207992 1.885454 0.355108
v -0.098650 1.885454 0.327457
v -0.073950 1.867846 0.355108
v -0.125450 1.522520 0.327457
v -0.254340 1.844148 0.327457
v -0.232691 1.867846 0.355108
v -0.125450 1.896296 0.327457
v -0.098650 1.885454 0.355108
v -0.125450 1.522520 0.355108
v -0.272108 1.815272 0.327457
v -0.254340 1.844148 0.355108
v -0.125450 1.896296 0.355108
v -0.073950 1.550972 0.327457
v -0.098650 1.533363 0.355108
v -0.285309 1.782328 0.327457
v -0.272108 1.815272 0.355108
v -0.052301 1.574670 0.327457
v -0.073950 1.550972 0.355108
v -0.293440 1.746583 0.327457
v -0.285309 1.782328 0.355108
v -0.034534 1.603544 0.327457
v -0.052301 1.574670 0.355108
v -0.296185 1.709408 0.327457
v -0.293440 1.746583 0.355108
v -0.021333 1.636488 0.327457
v -0.034534 1.603544 0.355108
v -0.293440 1.672235 0.327457
v -0.013203 1.672235 0.327457
v -0.021333 1.636488 0.355108
v -0.293440 1.672235 0.355108
v -0.013203 1.672235 0.355108
v -0.285309 1.636488 0.355108
vt 0.000000 0.000000
vt 0.000000 0.000000
vt 0.000000 0.000000
vt 0.000000 0.000000
vt 0.000000 0.000000
vt 0.000000 0.000000
vt 0.000000 0.000000
vt 0.000000 0.000000
vt 0.000000 0.000000
vt 0.000000 0.000000
vt 0.000000 0.000000
vt 0.000000 0.000000
vt 0.000000 0.000000
vt 0.000000 0.000000
vt 0.000000 0.000000
vt 0.000000 0.000000
vt 0.000000 0.000000
vt 0.000000 0.000000
vt 0.000000 0.000000
vt 0.000000 0.000000
vt 0.000000 0.000000
vt 0.000000 0.000000
vt 0.000000 0.000000
vt 0.000000 0.000000
vt 0.000000 0.000000
vt 0.000000 0.000000
vt 0.000000 0.000000
vt 0.000000 0.000000
vt 0.000000 0.000000
vt 0.000000 0.000000
vt 0.000000 0.000000
vt 0.000000 0.000000
vt 0.000000 0.000000
vt 0.000000 0.000000
vt 0.000000 0.000000
vt 0.000000 0.000000
vt 0.000000 0.000000
vt 0.000000 0.000000
vt 0.000000 0.000000
vt 0.000000 0.000000
vt 0.000000 0.000000
vt 0.000000 0.000000
vt 0.000000 0.000000
vt 0.000000 0.000000
vt 0.000000 0.000000
vt 0.000000 0.000000
vt 0.000000 0.000000
vt 0.000000 0.000000
vt 0.000000 0.000000
vt 0.000000 0.000000
vt 0.000000 0.000000
vt 0.000000 0.000000
vt 0.000000 0.000000
vt 0.000000 0.000000
vt 0.000000 0.000000
vt 0.000000 0.000000
vt 0.000000 0.000000
vt 0.000000 0.000000
vt 0.000000 0.000000
vt 0.000000 0.000000
vt 0.000000 0.000000
vt 0.000000 0.000000
vt 0.000000 0.000000
vt 0.000000 0.000000
vn 0.0000 0.0000 -1.0000
vn 0.0000 -0.0000 1.0000
vn 0.9973 0.0736 0.0000
vn -0.8517 -0.5241 0.0000
vn 0.9751 0.2218 0.0000
vn -0.7383 -0.6745 0.0000
vn 0.9282 0.3720 0.0000
vn -0.5805 -0.8142 0.0000
vn -0.1302 0.9915 0.0000
vn 0.8517 0.5240 0.0000
vn -0.3750 -0.9270 0.0000
vn -0.3750 0.9270 0.0000
vn 0.7383 0.6745 0.0000
vn -0.1302 -0.9915 0.0000
vn -0.5805 0.8143 0.0000
vn 0.5805 0.8143 0.0000
vn 0.1302 -0.9915 0.0000
vn -0.7383 0.6745 0.0000
vn 0.3750 0.9270 0.0000
vn 0.3750 -0.9270 0.0000
vn -0.8517 0.5240 0.0000
vn 0.1302 0.9915 0.0000
vn 0.5805 -0.8142 0.0000
vn -0.9282 0.3720 0.0000
vn 0.7383 -0.6745 0.0000
vn -0.9751 0.2218 0.0000
vn 0.8517 -0.5241 0.0000
vn -0.9973 0.0736 0.0000
vn 0.9282 -0.3720 0.0000
vn -0.9973 -0.0736 0.0000
vn 0.9751 -0.2217 0.0000
vn -0.9751 -0.2218 0.0000
vn 0.9973 -0.0736 0.0000
vn -0.9282 -0.3720 0.0000
usemtl Material.026
s 1
f 1/1/1 2/2/1 3/3/1
f 4/4/2 5/5/2 6/6/2
f 7/7/3 8/8/3 9/9/3
f 10/10/4 11/11/4 12/12/4
f 1/1/5 13/13/5 7/7/5
f 14/14/6 15/15/6 10/10/6
f 16/16/7 17/17/7 1/1/7
f 18/18/8 19/19/8 14/14/8
f 20/20/9 4/4/9 21/21/9
f 22/22/10 23/23/10 16/16/10
f 24/24/11 25/25/11 18/18/11
f 26/26/12 27/27/12 20/20/12
f 28/28/13 29/29/13 22/22/13
f 30/30/14 31/31/14 24/24/14
f 32/32/15 33/33/15 26/26/15
f 34/34/16 35/35/16 28/28/16
f 36/36/17 6/6/17 30/30/17
f 37/37/18 38/38/18 32/32/18
f 39/39/19 40/40/19 34/34/19
f 2/2/20 41/41/20 36/36/20
f 42/42/21 43/43/21 37/37/21
f 21/21/22 44/44/22 39/39/22
f 45/45/23 46/46/23 2/2/23
f 47/47/24 48/48/24 42/42/24
f 49/49/25 50/50/25 45/45/25
f 51/51/26 52/52/26 47/47/26
f 53/53/27 54/54/27 49/49/27
f 55/55/28 56/56/28 51/51/28
f 57/57/29 58/58/29 53/53/29
f 59/59/30 5/5/30 55/55/30
f 60/60/31 61/61/31 57/57/31
f 3/3/32 62/62/32 59/59/32
f 9/9/33 63/63/33 60/60/33
f 12/12/34 64/64/34 3/3/34
f 26/26/1 20/20/1 34/34/1
f 20/20/1 21/21/1 34/34/1
f 21/21/1 39/39/1 34/34/1
f 34/34/1 28/28/1 22/22/1
f 22/22/1 16/16/1 34/34/1
f 16/16/1 1/1/1 34/34/1
f 1/1/1 7/7/1 9/9/1
f 9/9/1 60/60/1 57/57/1
f 57/57/1 53/53/1 49/49/1
f 49/49/1 45/45/1 2/2/1
f 2/2/1 36/36/1 30/30/1
f 30/30/1 24/24/1 18/18/1
f 18/18/1 14/14/1 10/10/1
f 10/10/1 12/12/1 3/3/1
f 3/3/1 59/59/1 55/55/1
f 55/55/1 51/51/1 47/47/1
f 47/47/1 42/42/1 37/37/1
f 37/37/1 32/32/1 26/26/1
f 1/1/1 9/9/1 2/2/1
f 9/9/1 57/57/1 2/2/1
f 57/57/1 49/49/1 2/2/1
f 2/2/1 30/30/1 18/18/1
f 18/18/1 10/10/1 2/2/1
f 10/10/1 3/3/1 2/2/1
f 3/3/1 55/55/1 26/26/1
f 55/55/1 47/47/1 26/26/1
f 47/47/1 37/37/1 26/26/1
f 26/26/1 34/34/1 1/1/1
f 26/26/1 1/1/1 3/3/1
f 4/4/2 27/27/2 43/43/2
f 27/27/2 33/33/2 43/43/2
f 33/33/2 38/38/2 43/43/2
f 43/43/2 48/48/2 52/52/2
f 52/52/2 56/56/2 43/43/2
f 56/56/2 5/5/2 43/43/2
f 5/5/2 62/62/2 15/15/2
f 62/62/2 64/64/2 15/15/2
f 64/64/2 11/11/2 15/15/2
f 15/15/2 19/19/2 25/25/2
f 25/25/2 31/31/2 6/6/2
f 6/6/2 41/41/2 46/46/2
f 46/46/2 50/50/2 54/54/2
f 54/54/2 58/58/2 61/61/2
f 61/61/2 63/63/2 54/54/2
f 63/63/2 8/8/2 54/54/2
f 8/8/2 13/13/2 17/17/2
f 17/17/2 23/23/2 8/8/2
f 23/23/2 29/29/2 8/8/2
f 29/29/2 35/35/2 4/4/2
f 35/35/2 40/40/2 4/4/2
f 40/40/2 44/44/2 4/4/2
f 15/15/2 25/25/2 5/5/2
f 25/25/2 6/6/2 5/5/2
f 6/6/2 46/46/2 8/8/2
f 46/46/2 54/54/2 8/8/2
f 4/4/2 43/43/2 5/5/2
f 8/8/2 29/29/2 6/6/2
f 29/29/2 4/4/2 6/6/2
f 7/7/3 13/13/3 8/8/3
f 10/10/4 15/15/4 11/11/4
f 1/1/5 17/17/5 13/13/5
f 14/14/6 19/19/6 15/15/6
f 16/16/7 23/23/7 17/17/7
f 18/18/8 25/25/8 19/19/8
f 20/20/9 27/27/9 4/4/9
f 22/22/10 29/29/10 23/23/10
f 24/24/11 31/31/11 25/25/11
f 26/26/12 33/33/12 27/27/12
f 28/28/13 35/35/13 29/29/13
f 30/30/14 6/6/14 31/31/14
f 32/32/15 38/38/15 33/33/15
f 34/34/16 40/40/16 35/35/16
f 36/36/17 41/41/17 6/6/17
f 37/37/18 43/43/18 38/38/18
f 39/39/19 44/44/19 40/40/19
f 2/2/20 46/46/20 41/41/20
f 42/42/21 48/48/21 43/43/21
f 21/21/22 4/4/22 44/44/22
f 45/45/23 50/50/23 46/46/23
f 47/47/24 52/52/24 48/48/24
f 49/49/25 54/54/25 50/50/25
f 51/51/26 56/56/26 52/52/26
f 53/53/27 58/58/27 54/54/27
f 55/55/28 5/5/28 56/56/28
f 57/57/29 61/61/29 58/58/29
f 59/59/30 62/62/30 5/5/30
f 60/60/31 63/63/31 61/61/31
f 3/3/32 64/64/32 62/62/32
f 9/9/33 8/8/33 63/63/33
f 12/12/34 11/11/34 64/64/34
