# Blender v3.1.2 OBJ File: ''
# www.blender.org
mtllib brick.mtl
o Cube
v 0.750000 0.291546 -1.452652
v 0.750000 -0.291546 -1.421478
v 0.750000 0.291546 1.297438
v 0.750000 -0.291546 1.328612
v -0.750000 0.291546 -1.905826
v -0.750000 -0.291546 -1.712546
v -0.750000 0.291546 0.844264
v -0.750000 -0.291546 1.037544
v -0.833333 -0.323940 -0.342588
v 0.000000 -0.323940 -1.713560
v 0.833333 0.000000 -1.569175
v -0.833333 0.000000 1.073013
v 0.833334 0.000000 1.486481
v -0.833334 0.000000 -1.982643
v 0.000000 0.323940 1.217399
v 0.833334 0.323940 -0.053816
v -0.000000 -0.323940 1.342095
v -0.833333 0.323940 -0.567042
v -0.000000 0.323940 -1.838257
v 0.833333 -0.323940 -0.028877
v 0.000000 0.388728 -0.322899
v 0.000000 0.000000 1.585313
v -1.000000 0.000000 -0.496161
v 0.000000 -0.388728 -0.173263
v 1.000000 0.000000 0.000000
v -0.000000 0.000000 -2.081474
v -0.819059 -0.318391 -1.200456
v -0.819059 -0.318391 0.516936
v 0.468364 -0.318391 -1.600365
v -0.468364 -0.318391 -1.776549
v 0.819059 0.182066 -1.553487
v 0.819059 -0.182066 -1.539603
v -0.819059 -0.182066 1.113525
v -0.819059 0.182066 0.987241
v 0.819059 0.182066 1.449827
v 0.819059 -0.182066 1.463711
v -0.819059 0.182066 -2.016072
v -0.819059 -0.182066 -1.889788
v 0.468364 0.318391 1.336588
v -0.468364 0.318391 1.048003
v 0.819059 0.318391 -0.916631
v 0.819059 0.318391 0.800761
v -0.468364 -0.318391 1.226764
v 0.468364 -0.318391 1.402948
v -0.819059 0.318391 0.297909
v -0.819059 0.318391 -1.419483
v -0.468364 0.318391 -1.955310
v 0.468364 0.318391 -1.666726
v 0.819059 -0.318391 0.826855
v 0.819059 -0.318391 -0.890537
v 0.000000 0.380630 -1.199841
v -0.479167 0.380630 -0.474504
v -0.000000 0.380630 0.557161
v 0.479167 0.380630 -0.168176
v 0.479167 0.000000 1.665989
v 0.000000 0.186266 1.511267
v -0.479167 0.000000 1.428245
v 0.000000 -0.186266 1.582967
v -0.979167 0.000000 0.387508
v -0.979167 0.186266 -0.561135
v -0.979167 0.000000 -1.369494
v -0.979167 -0.186266 -0.420851
v 0.000000 -0.380630 -1.053323
v 0.479167 -0.380630 -0.090241
v 0.000000 -0.380630 0.703680
v -0.479167 -0.380630 -0.259402
v 0.979167 0.000000 -0.883669
v 0.979167 0.186266 -0.006727
v 0.979167 0.000000 0.873333
v 0.979167 -0.186266 -0.003610
v -0.479167 0.000000 -2.162150
v -0.000000 0.186266 -2.079129
v 0.479167 0.000000 -1.924407
v -0.000000 -0.186266 -2.007428
v 0.476466 0.372831 -1.041761
v -0.476466 0.372831 -1.345016
v -0.476466 0.372831 0.402083
v 0.476466 0.372831 0.705338
v 0.476466 -0.185216 1.647387
v 0.476466 0.185216 1.609689
v -0.476466 0.185216 1.339686
v -0.476466 -0.185216 1.444581
v -0.959105 -0.185216 0.456607
v -0.959105 0.185216 0.318460
v -0.959105 0.185216 -1.428640
v -0.959105 -0.185216 -1.290492
v -0.476466 -0.372831 -1.134649
v 0.476466 -0.372831 -0.965096
v 0.476466 -0.372831 0.782004
v -0.476466 -0.372831 0.612451
v 0.959105 -0.185216 -0.881472
v 0.959105 0.185216 -0.885918
v 0.959105 0.185216 0.861182
v 0.959105 -0.185216 0.865627
v -0.476466 -0.185216 -2.072252
v -0.476466 0.185216 -2.177147
v 0.476466 0.185216 -1.907144
v 0.476466 -0.185216 -1.869447
vt 0.625000 0.500000
vt 0.687500 0.562500
vt 0.625000 0.562500
vt 0.687500 0.500000
vt 0.750000 0.562500
vt 0.750000 0.625000
vt 0.687500 0.625000
vt 0.625000 0.625000
vt 0.750000 0.500000
vt 0.812500 0.562500
vt 0.875000 0.500000
vt 0.812500 0.500000
vt 0.875000 0.625000
vt 0.812500 0.625000
vt 0.812500 0.687500
vt 0.750000 0.687500
vt 0.875000 0.687500
vt 0.875000 0.750000
vt 0.812500 0.750000
vt 0.750000 0.750000
vt 0.687500 0.687500
vt 0.625000 0.687500
vt 0.687500 0.750000
vt 0.625000 0.750000
vt 0.437500 0.750000
vt 0.375000 0.812500
vt 0.375000 0.750000
vt 0.500000 0.750000
vt 0.437500 0.812500
vt 0.500000 0.875000
vt 0.437500 0.875000
vt 0.375000 0.875000
vt 0.562500 0.812500
vt 0.500000 0.812500
vt 0.562500 0.750000
vt 0.625000 0.812500
vt 0.562500 0.875000
vt 0.500000 0.937500
vt 0.625000 0.875000
vt 0.562500 0.937500
vt 0.625000 0.937500
vt 0.562500 1.000000
vt 0.500000 1.000000
vt 0.437500 0.937500
vt 0.375000 0.937500
vt 0.437500 1.000000
vt 0.375000 1.000000
vt 0.437500 0.000000
vt 0.375000 0.062500
vt 0.375000 0.000000
vt 0.500000 0.000000
vt 0.437500 0.062500
vt 0.500000 0.062500
vt 0.437500 0.125000
vt 0.375000 0.125000
vt 0.562500 0.000000
vt 0.625000 0.000000
vt 0.562500 0.062500
vt 0.625000 0.062500
vt 0.562500 0.125000
vt 0.500000 0.125000
vt 0.500000 0.187500
vt 0.625000 0.125000
vt 0.562500 0.187500
vt 0.625000 0.250000
vt 0.562500 0.250000
vt 0.500000 0.250000
vt 0.375000 0.187500
vt 0.437500 0.187500
vt 0.437500 0.250000
vt 0.375000 0.250000
vt 0.125000 0.500000
vt 0.187500 0.562500
vt 0.125000 0.562500
vt 0.250000 0.500000
vt 0.187500 0.500000
vt 0.250000 0.562500
vt 0.187500 0.625000
vt 0.125000 0.625000
vt 0.312500 0.500000
vt 0.375000 0.500000
vt 0.312500 0.562500
vt 0.375000 0.562500
vt 0.312500 0.625000
vt 0.250000 0.625000
vt 0.250000 0.687500
vt 0.375000 0.625000
vt 0.312500 0.687500
vt 0.312500 0.750000
vt 0.250000 0.750000
vt 0.125000 0.687500
vt 0.187500 0.687500
vt 0.187500 0.750000
vt 0.125000 0.750000
vt 0.437500 0.562500
vt 0.437500 0.500000
vt 0.500000 0.562500
vt 0.437500 0.625000
vt 0.562500 0.500000
vt 0.500000 0.500000
vt 0.562500 0.562500
vt 0.562500 0.625000
vt 0.500000 0.625000
vt 0.562500 0.687500
vt 0.500000 0.687500
vt 0.375000 0.687500
vt 0.437500 0.687500
vt 0.375000 0.312500
vt 0.437500 0.312500
vt 0.500000 0.375000
vt 0.437500 0.375000
vt 0.375000 0.375000
vt 0.500000 0.312500
vt 0.625000 0.312500
vt 0.562500 0.312500
vt 0.562500 0.375000
vt 0.500000 0.437500
vt 0.625000 0.375000
vt 0.562500 0.437500
vt 0.625000 0.437500
vt 0.437500 0.437500
vt 0.375000 0.437500
vt 0.875000 0.562500
vt 0.625000 1.000000
vt 0.625000 0.187500
vn 0.1823 0.9806 -0.0726
vn 0.0452 0.9952 -0.0873
vn 0.0198 0.9998 -0.0090
vn 0.1609 0.9869 -0.0090
vn 0.0106 0.9960 -0.0884
vn -0.1101 0.9899 -0.0898
vn -0.1557 0.9878 -0.0093
vn -0.0140 0.9999 -0.0092
vn -0.0194 0.9998 0.0092
vn -0.1597 0.9871 0.0093
vn -0.1552 0.9842 0.0849
vn -0.0427 0.9954 0.0855
vn 0.1545 0.9880 0.0090
vn 0.0136 0.9999 0.0090
vn -0.0100 0.9963 0.0858
vn 0.1040 0.9922 0.0681
vn 0.2207 -0.8099 0.5435
vn 0.4685 -0.1457 0.8714
vn -0.1339 -0.0125 0.9909
vn -0.0541 -0.8669 0.4955
vn 0.4356 0.2676 0.8594
vn 0.2059 0.8820 0.4240
vn -0.0887 0.8942 0.4387
vn -0.1591 0.2850 0.9452
vn -0.2914 0.3534 0.8889
vn -0.1529 0.8949 0.4193
vn -0.3916 0.8411 0.3731
vn -0.6688 0.3286 0.6668
vn -0.1364 -0.8474 0.5131
vn -0.2789 -0.0121 0.9602
vn -0.6937 0.0532 0.7183
vn -0.4510 -0.6831 0.5744
vn -0.7927 -0.5943 0.1358
vn -0.9775 -0.0302 0.2085
vn -0.9948 -0.0992 0.0229
vn -0.6927 -0.7211 0.0162
vn -0.9635 0.1721 0.2050
vn -0.7306 0.6647 0.1561
vn -0.6877 0.7258 0.0166
vn -0.9929 0.1163 0.0234
vn -0.9944 0.1029 -0.0237
vn -0.6867 0.7267 -0.0168
vn -0.7401 0.6480 -0.1799
vn -0.9724 0.0315 -0.2313
vn -0.6818 -0.7314 -0.0161
vn -0.9925 -0.1203 -0.0230
vn -0.9541 -0.1989 -0.2240
vn -0.6399 -0.7581 -0.1260
vn -0.1432 -0.9871 -0.0711
vn -0.0004 -0.9964 -0.0845
vn -0.0148 -0.9998 -0.0090
vn -0.1552 -0.9878 -0.0090
vn 0.0325 -0.9958 -0.0855
vn 0.1487 -0.9851 -0.0863
vn 0.1589 -0.9873 -0.0093
vn 0.0181 -0.9998 -0.0092
vn 0.0153 -0.9998 0.0092
vn 0.1565 -0.9876 0.0093
vn 0.1176 -0.9891 0.0883
vn 0.0018 -0.9961 0.0884
vn -0.1601 -0.9871 0.0090
vn -0.0185 -0.9998 0.0090
vn -0.0333 -0.9955 0.0887
vn -0.1766 -0.9815 0.0740
vn 0.6879 -0.7148 -0.1256
vn 0.9723 -0.1078 -0.2074
vn 0.9939 -0.1079 -0.0228
vn 0.6896 -0.7240 -0.0161
vn 0.9738 0.0942 -0.2072
vn 0.7602 0.6291 -0.1624
vn 0.6892 0.7244 -0.0166
vn 0.9936 0.1103 -0.0234
vn 0.9937 0.1092 0.0237
vn 0.6852 0.7282 0.0167
vn 0.7074 0.6856 0.1720
vn 0.9656 0.1219 0.2297
vn 0.6849 -0.7285 0.0161
vn 0.9935 -0.1116 0.0231
vn 0.9672 -0.1142 0.2271
vn 0.6639 -0.7363 0.1308
vn -0.1877 -0.8667 -0.4622
vn -0.4259 -0.4373 -0.7921
vn 0.1246 -0.3665 -0.9220
vn 0.0463 -0.9046 -0.4238
vn -0.4484 -0.1273 -0.8847
vn -0.2396 0.8362 -0.4933
vn 0.1040 0.8510 -0.5147
vn 0.1655 -0.0820 -0.9828
vn 0.3115 0.0120 -0.9502
vn 0.1781 0.8543 -0.4883
vn 0.4437 0.7902 -0.4228
vn 0.7061 0.0759 -0.7040
vn 0.1164 -0.8915 -0.4377
vn 0.2678 -0.2777 -0.9226
vn 0.6844 -0.1689 -0.7093
vn 0.3880 -0.7780 -0.4942
vn 0.1604 0.9831 -0.0877
vn 0.0442 0.9951 -0.0884
vn 0.0194 0.9998 -0.0092
vn 0.1602 0.9870 -0.0093
vn 0.0104 0.9960 -0.0887
vn -0.1407 0.9872 -0.0745
vn -0.1550 0.9879 -0.0090
vn -0.0136 0.9999 -0.0090
vn -0.0197 0.9998 0.0090
vn -0.1603 0.9870 0.0090
vn -0.1775 0.9816 0.0707
vn -0.0438 0.9955 0.0844
vn 0.1551 0.9879 0.0093
vn 0.0139 0.9999 0.0092
vn -0.0103 0.9963 0.0855
vn 0.1327 0.9873 0.0869
vn 0.2526 -0.8532 0.4564
vn 0.4500 -0.0957 0.8879
vn -0.1653 -0.0962 0.9815
vn -0.0628 -0.8755 0.4791
vn 0.4149 0.2107 0.8851
vn 0.1532 0.8341 0.5299
vn -0.0968 0.9013 0.4223
vn -0.1877 0.3628 0.9127
vn -0.3092 0.4139 0.8562
vn -0.1577 0.8999 0.4065
vn -0.3908 0.8122 0.4332
vn -0.6710 0.3584 0.6491
vn -0.1445 -0.8591 0.4910
vn -0.3105 0.0790 0.9473
vn -0.7045 0.1011 0.7024
vn -0.4464 -0.7707 0.4546
vn -0.7151 -0.6815 0.1557
vn -0.9777 -0.0283 0.2080
vn -0.9945 -0.1018 0.0234
vn -0.6911 -0.7226 0.0167
vn -0.9627 0.1797 0.2024
vn -0.6747 0.7281 0.1211
vn -0.6860 0.7274 0.0160
vn -0.9926 0.1190 0.0228
vn -0.9947 0.1004 -0.0231
vn -0.6885 0.7251 -0.0162
vn -0.6780 0.7223 -0.1361
vn -0.9721 0.0336 -0.2319
vn -0.6834 -0.7299 -0.0166
vn -0.9928 -0.1176 -0.0237
vn -0.9550 -0.1907 -0.2271
vn -0.6912 -0.7035 -0.1652
vn -0.1138 -0.9898 -0.0854
vn -0.0017 -0.9963 -0.0855
vn -0.0152 -0.9998 -0.0092
vn -0.1559 -0.9877 -0.0093
vn 0.0322 -0.9958 -0.0857
vn 0.1718 -0.9825 -0.0720
vn 0.1596 -0.9871 -0.0090
vn 0.0185 -0.9998 -0.0090
vn 0.0149 -0.9998 0.0090
vn 0.1558 -0.9878 0.0090
vn 0.1472 -0.9864 0.0730
vn 0.0005 -0.9962 0.0873
vn -0.1595 -0.9872 0.0093
vn -0.0181 -0.9998 0.0092
vn -0.0336 -0.9955 0.0884
vn -0.1538 -0.9841 0.0892
vn 0.7464 -0.6455 -0.1619
vn 0.9722 -0.1098 -0.2068
vn 0.9936 -0.1107 -0.0234
vn 0.6879 -0.7256 -0.0166
vn 0.9734 0.1029 -0.2047
vn 0.6980 0.7051 -0.1252
vn 0.6909 0.7228 -0.0161
vn 0.9940 0.1074 -0.0228
vn 0.9934 0.1119 0.0231
vn 0.6836 0.7297 0.0162
vn 0.6529 0.7460 0.1311
vn 0.9657 0.1197 0.2304
vn 0.6866 -0.7269 0.0167
vn 0.9938 -0.1086 0.0237
vn 0.9675 -0.1046 0.2301
vn 0.7228 -0.6691 0.1728
vn -0.2189 -0.8919 -0.3957
vn -0.4139 -0.4024 -0.8166
vn 0.1499 -0.4300 -0.8903
vn 0.0539 -0.9099 -0.4113
vn -0.4240 -0.0669 -0.9032
vn -0.1829 0.7525 -0.6327
vn 0.1130 0.8626 -0.4931
vn 0.2015 0.0123 -0.9794
vn 0.3383 0.0922 -0.9365
vn 0.1830 0.8626 -0.4717
vn 0.4492 0.7419 -0.4979
vn 0.7140 0.1155 -0.6906
vn 0.1239 -0.8986 -0.4210
vn 0.2914 -0.3534 -0.8889
vn 0.6917 -0.2147 -0.6896
vn 0.3915 -0.8293 -0.3987
usemtl Material
s off
f 1/1/1 75/2/1 41/3/1
f 48/4/2 51/5/2 75/2/2
f 75/2/3 21/6/3 54/7/3
f 41/3/4 54/7/4 16/8/4
f 19/9/5 76/10/5 51/5/5
f 5/11/6 76/10/6 47/12/6
f 76/10/7 18/13/7 52/14/7
f 51/5/8 52/14/8 21/6/8
f 21/6/9 77/15/9 53/16/9
f 52/14/10 45/17/10 77/15/10
f 77/15/11 7/18/11 40/19/11
f 53/16/12 40/19/12 15/20/12
f 16/8/13 78/21/13 42/22/13
f 54/7/14 53/16/14 78/21/14
f 78/21/15 15/20/15 39/23/15
f 42/22/16 39/23/16 3/24/16
f 36/25/17 44/26/17 4/27/17
f 13/28/18 79/29/18 36/25/18
f 79/29/19 22/30/19 58/31/19
f 44/26/20 58/31/20 17/32/20
f 13/28/21 80/33/21 55/34/21
f 35/35/22 39/36/22 80/33/22
f 39/36/23 56/37/23 80/33/23
f 80/33/24 22/30/24 55/34/24
f 56/37/25 57/38/25 22/30/25
f 15/39/26 81/40/26 56/37/26
f 40/41/27 34/42/27 81/40/27
f 81/40/28 12/43/28 57/38/28
f 17/32/29 82/44/29 43/45/29
f 22/30/30 82/44/30 58/31/30
f 57/38/31 33/46/31 82/44/31
f 43/45/32 33/46/32 8/47/32
f 33/48/33 28/49/33 8/50/33
f 12/51/34 83/52/34 33/48/34
f 59/53/35 62/54/35 83/52/35
f 83/52/36 9/55/36 28/49/36
f 34/56/37 59/53/37 12/51/37
f 7/57/38 84/58/38 34/56/38
f 45/59/39 60/60/39 84/58/39
f 84/58/40 23/61/40 59/53/40
f 60/60/41 61/62/41 23/61/41
f 18/63/42 85/64/42 60/60/42
f 85/64/43 5/65/43 37/66/43
f 85/64/44 14/67/44 61/62/44
f 62/54/45 27/68/45 9/55/45
f 23/61/46 86/69/46 62/54/46
f 61/62/47 38/70/47 86/69/47
f 86/69/48 6/71/48 27/68/48
f 6/72/49 87/73/49 27/74/49
f 10/75/50 87/73/50 30/76/50
f 63/77/51 66/78/51 87/73/51
f 87/73/52 9/79/52 27/74/52
f 29/80/53 63/77/53 10/75/53
f 2/81/54 88/82/54 29/80/54
f 50/83/55 64/84/55 88/82/55
f 88/82/56 24/85/56 63/77/56
f 64/84/57 65/86/57 24/85/57
f 20/87/58 89/88/58 64/84/58
f 89/88/59 4/27/59 44/89/59
f 89/88/60 17/90/60 65/86/60
f 66/78/61 28/91/61 9/79/61
f 24/85/62 90/92/62 66/78/62
f 65/86/63 43/93/63 90/92/63
f 90/92/64 8/94/64 28/91/64
f 2/81/65 91/95/65 50/83/65
f 32/96/66 67/97/66 91/95/66
f 67/97/67 70/98/67 91/95/67
f 91/95/68 20/87/68 50/83/68
f 31/99/69 67/97/69 11/100/69
f 1/1/70 92/101/70 31/99/70
f 92/101/71 16/8/71 68/102/71
f 67/97/72 68/102/72 25/103/72
f 25/103/73 93/104/73 69/105/73
f 68/102/74 42/22/74 93/104/74
f 93/104/75 3/24/75 35/35/75
f 69/105/76 35/35/76 13/28/76
f 70/98/77 49/106/77 20/87/77
f 25/103/78 94/107/78 70/98/78
f 69/105/79 36/25/79 94/107/79
f 94/107/80 4/27/80 49/106/80
f 38/70/81 30/108/81 6/71/81
f 14/67/82 95/109/82 38/70/82
f 95/109/83 26/110/83 74/111/83
f 30/108/84 74/111/84 10/112/84
f 37/66/85 71/113/85 14/67/85
f 37/66/86 47/114/86 96/115/86
f 47/114/87 72/116/87 96/115/87
f 96/115/88 26/110/88 71/113/88
f 72/116/89 73/117/89 26/110/89
f 19/118/90 97/119/90 72/116/90
f 48/120/91 31/99/91 97/119/91
f 97/119/92 11/100/92 73/117/92
f 10/112/93 98/121/93 29/122/93
f 74/111/94 73/117/94 98/121/94
f 98/121/95 11/100/95 32/96/95
f 29/122/96 32/96/96 2/81/96
f 1/1/97 48/4/97 75/2/97
f 48/4/98 19/9/98 51/5/98
f 75/2/99 51/5/99 21/6/99
f 41/3/100 75/2/100 54/7/100
f 19/9/101 47/12/101 76/10/101
f 5/11/102 46/123/102 76/10/102
f 76/10/103 46/123/103 18/13/103
f 51/5/104 76/10/104 52/14/104
f 21/6/105 52/14/105 77/15/105
f 52/14/106 18/13/106 45/17/106
f 77/15/107 45/17/107 7/18/107
f 53/16/108 77/15/108 40/19/108
f 16/8/109 54/7/109 78/21/109
f 54/7/110 21/6/110 53/16/110
f 78/21/111 53/16/111 15/20/111
f 42/22/112 78/21/112 39/23/112
f 36/25/113 79/29/113 44/26/113
f 13/28/114 55/34/114 79/29/114
f 79/29/115 55/34/115 22/30/115
f 44/26/116 79/29/116 58/31/116
f 13/28/117 35/35/117 80/33/117
f 35/35/118 3/24/118 39/36/118
f 39/36/119 15/39/119 56/37/119
f 80/33/120 56/37/120 22/30/120
f 56/37/121 81/40/121 57/38/121
f 15/39/122 40/41/122 81/40/122
f 40/41/123 7/124/123 34/42/123
f 81/40/124 34/42/124 12/43/124
f 17/32/125 58/31/125 82/44/125
f 22/30/126 57/38/126 82/44/126
f 57/38/127 12/43/127 33/46/127
f 43/45/128 82/44/128 33/46/128
f 33/48/129 83/52/129 28/49/129
f 12/51/130 59/53/130 83/52/130
f 59/53/131 23/61/131 62/54/131
f 83/52/132 62/54/132 9/55/132
f 34/56/133 84/58/133 59/53/133
f 7/57/134 45/59/134 84/58/134
f 45/59/135 18/63/135 60/60/135
f 84/58/136 60/60/136 23/61/136
f 60/60/137 85/64/137 61/62/137
f 18/63/138 46/125/138 85/64/138
f 85/64/139 46/125/139 5/65/139
f 85/64/140 37/66/140 14/67/140
f 62/54/141 86/69/141 27/68/141
f 23/61/142 61/62/142 86/69/142
f 61/62/143 14/67/143 38/70/143
f 86/69/144 38/70/144 6/71/144
f 6/72/145 30/76/145 87/73/145
f 10/75/146 63/77/146 87/73/146
f 63/77/147 24/85/147 66/78/147
f 87/73/148 66/78/148 9/79/148
f 29/80/149 88/82/149 63/77/149
f 2/81/150 50/83/150 88/82/150
f 50/83/151 20/87/151 64/84/151
f 88/82/152 64/84/152 24/85/152
f 64/84/153 89/88/153 65/86/153
f 20/87/154 49/106/154 89/88/154
f 89/88/155 49/106/155 4/27/155
f 89/88/156 44/89/156 17/90/156
f 66/78/157 90/92/157 28/91/157
f 24/85/158 65/86/158 90/92/158
f 65/86/159 17/90/159 43/93/159
f 90/92/160 43/93/160 8/94/160
f 2/81/161 32/96/161 91/95/161
f 32/96/162 11/100/162 67/97/162
f 67/97/163 25/103/163 70/98/163
f 91/95/164 70/98/164 20/87/164
f 31/99/165 92/101/165 67/97/165
f 1/1/166 41/3/166 92/101/166
f 92/101/167 41/3/167 16/8/167
f 67/97/168 92/101/168 68/102/168
f 25/103/169 68/102/169 93/104/169
f 68/102/170 16/8/170 42/22/170
f 93/104/171 42/22/171 3/24/171
f 69/105/172 93/104/172 35/35/172
f 70/98/173 94/107/173 49/106/173
f 25/103/174 69/105/174 94/107/174
f 69/105/175 13/28/175 36/25/175
f 94/107/176 36/25/176 4/27/176
f 38/70/177 95/109/177 30/108/177
f 14/67/178 71/113/178 95/109/178
f 95/109/179 71/113/179 26/110/179
f 30/108/180 95/109/180 74/111/180
f 37/66/181 96/115/181 71/113/181
f 37/66/182 5/65/182 47/114/182
f 47/114/183 19/118/183 72/116/183
f 96/115/184 72/116/184 26/110/184
f 72/116/185 97/119/185 73/117/185
f 19/118/186 48/120/186 97/119/186
f 48/120/187 1/1/187 31/99/187
f 97/119/188 31/99/188 11/100/188
f 10/112/189 74/111/189 98/121/189
f 74/111/190 26/110/190 73/117/190
f 98/121/191 73/117/191 11/100/191
f 29/122/192 98/121/192 32/96/192
