# Blender v3.1.2 OBJ File: ''
# www.blender.org
mtllib Brush.mtl
o Cube
v 0.259758 0.096754 -0.085662
v 0.291311 -0.096754 -0.117215
v 0.259758 0.096754 0.085662
v 0.291311 -0.096754 0.117215
v -0.259758 0.096754 -0.085662
v -0.291311 -0.096754 -0.117215
v -0.259758 0.096754 0.085662
v -0.291311 -0.096754 0.117215
v 0.097104 -0.096754 -0.117215
v -0.097104 -0.096754 -0.117215
v 0.097104 0.096754 0.085662
v -0.097104 0.096754 0.085662
v -0.097104 -0.096754 0.117215
v 0.097104 -0.096754 0.117215
v -0.097104 0.096754 -0.085662
v 0.097104 0.096754 -0.085662
v 0.125806 -0.692242 -0.151862
v -0.125806 -0.692242 -0.151862
v -0.125806 -0.692242 0.151862
v 0.125806 -0.692242 0.151862
v 0.088374 -0.824118 -0.106677
v -0.088374 -0.824118 -0.106677
v -0.088374 -0.824118 0.106677
v 0.088374 -0.824118 0.106677
v -0.097104 0.096754 0.117215
v -0.291311 0.096754 0.117215
v 0.291311 0.096754 -0.117215
v 0.291311 0.096754 0.117215
v -0.291311 0.096754 -0.117215
v 0.097104 0.096754 -0.117215
v 0.097104 0.096754 0.117215
v -0.097104 0.096754 -0.117215
v -0.311944 0.653880 0.102872
v 0.311944 0.653880 -0.102872
v 0.311944 0.653880 0.102872
v -0.311944 0.653880 -0.102872
v 0.087157 0.653880 -0.102872
v 0.146067 0.653880 -0.102872
v 0.118941 0.558523 -0.101963
v 0.146067 0.653880 0.102872
v 0.087157 0.653880 0.102872
v 0.118941 0.558523 0.101963
v -0.192758 0.653880 -0.102872
v -0.161791 0.653880 -0.102872
v -0.163787 0.510837 -0.102399
v -0.161791 0.653880 0.102872
v -0.192758 0.653880 0.102872
v -0.163787 0.510837 0.102399
vt 0.861461 0.716352
vt 0.861461 0.533648
vt 0.861461 0.533648
vt 0.625000 0.916667
vt 0.375000 1.000000
vt 0.375000 0.916667
vt 0.625000 0.000000
vt 0.375000 0.250000
vt 0.375000 0.000000
vt 0.375000 0.500000
vt 0.291667 0.750000
vt 0.291667 0.500000
vt 0.625000 0.500000
vt 0.375000 0.750000
vt 0.625000 0.416667
vt 0.375000 0.416667
vt 0.625000 0.250000
vt 0.375000 0.333333
vt 0.625000 0.333333
vt 0.208333 0.500000
vt 0.125000 0.750000
vt 0.125000 0.500000
vt 0.291667 0.500000
vt 0.625000 0.750000
vt 0.375000 0.833333
vt 0.625000 0.833333
vt 0.787403 0.533648
vt 0.718858 0.716352
vt 0.718858 0.533648
vt 0.291667 0.750000
vt 0.291667 0.500000
vt 0.375000 0.833333
vt 0.375000 0.333333
vt 0.208333 0.750000
vt 0.208333 0.750000
vt 0.208333 0.750000
vt 0.208333 0.500000
vt 0.375000 0.916667
vt 0.375000 0.833333
vt 0.208333 0.500000
vt 0.375000 0.416667
vt 0.375000 0.333333
vt 0.791667 0.750000
vt 0.791667 0.716352
vt 0.638539 0.716352
vt 0.638539 0.533648
vt 0.875000 0.750000
vt 0.708333 0.500000
vt 0.708333 0.533648
vt 0.708333 0.750000
vt 0.708333 0.716352
vt 0.791667 0.500000
vt 0.875000 0.500000
vt 0.791667 0.533648
vt 0.791667 0.716352
vt 0.799691 0.716352
vt 0.861461 0.716352
vt 0.708333 0.533648
vt 0.697809 0.533648
vt 0.638539 0.533648
vt 0.799691 0.533648
vt 0.791667 0.533648
vt 0.787403 0.716352
vt 0.638539 0.716352
vt 0.697809 0.716352
vt 0.708333 0.716352
vt 0.625000 1.000000
vt 0.291667 0.750000
vt 0.375000 0.916667
vt 0.375000 0.416667
vn -0.9956 -0.0933 0.0000
vn 0.0000 0.0000 1.0000
vn -1.0000 0.0000 0.0000
vn 0.0000 -1.0000 0.0000
vn 1.0000 0.0000 0.0000
vn 0.0000 0.0000 -1.0000
vn 0.9988 0.0481 0.0000
vn 0.0000 1.0000 0.0000
vn 0.9620 -0.2731 0.0000
vn 0.0000 0.0581 0.9983
vn 0.0000 0.0581 -0.9983
vn -0.9988 0.0481 0.0000
vn 0.0000 -0.3241 0.9460
vn -0.9620 -0.2731 0.0000
vn 0.0000 -0.3241 -0.9460
vn 0.0000 -0.0033 1.0000
vn 0.0000 -0.0095 -1.0000
vn 0.0000 -0.0033 -1.0000
vn 0.0000 -0.0095 1.0000
vn 0.9956 -0.0933 0.0000
vn 0.9487 0.3162 0.0000
vn -0.9618 0.2736 0.0000
vn -0.9999 0.0140 0.0000
vn 0.9801 0.1985 0.0000
vn 0.0030 -0.0085 -1.0000
vn -0.0292 -0.0336 0.9990
vn 0.0000 -0.0404 0.9992
vn 0.0111 -0.0319 -0.9994
vn 0.0000 -0.0353 -0.9994
vn 0.0000 -0.0404 -0.9992
vn -0.0292 -0.0336 -0.9990
vn 0.0076 -0.0356 0.9993
vn 0.0030 -0.0085 1.0000
vn 0.0000 -0.0353 0.9994
vn 0.0111 -0.0319 0.9994
vn 0.0076 -0.0356 -0.9993
usemtl Material
s off
f 7/1/1 36/2/1 5/3/1
f 25/4/2 8/5/2 13/6/2
f 26/7/3 6/8/3 8/9/3
f 2/10/4 14/11/4 9/12/4
f 27/13/5 4/14/5 2/10/5
f 30/15/6 2/10/6 9/16/6
f 29/17/6 10/18/6 6/8/6
f 32/19/6 9/16/6 10/18/6
f 10/20/4 8/21/4 6/22/4
f 14/11/7 17/23/7 9/12/7
f 28/24/2 14/25/2 4/14/2
f 31/26/2 13/6/2 14/25/2
f 44/27/8 41/28/8 37/29/8
f 20/30/9 21/31/9 17/23/9
f 13/6/10 20/32/10 14/25/10
f 9/16/11 18/33/11 10/18/11
f 10/20/12 19/34/12 13/35/12
f 21/31/4 23/36/4 22/37/4
f 19/38/13 24/39/13 20/32/13
f 18/40/14 23/36/14 19/34/14
f 17/41/15 22/42/15 18/33/15
f 7/1/8 25/43/8 12/44/8
f 3/45/8 27/13/8 1/46/8
f 5/3/8 26/47/8 7/1/8
f 1/46/8 30/48/8 16/49/8
f 3/45/8 31/50/8 28/24/8
f 12/44/8 31/50/8 11/51/8
f 5/3/8 32/52/8 29/53/8
f 16/49/8 32/52/8 15/54/8
f 48/55/16 47/56/16 33/57/16
f 39/58/17 38/59/17 34/60/17
f 36/2/18 43/61/18 45/62/18
f 41/28/16 46/63/16 48/55/16
f 38/59/8 35/64/8 34/60/8
f 35/64/19 40/65/19 42/66/19
f 1/46/20 35/64/20 3/45/20
f 37/29/21 42/66/21 39/58/21
f 39/58/22 40/65/22 38/59/22
f 36/2/8 47/56/8 43/61/8
f 45/62/23 46/63/23 44/27/23
f 43/61/24 48/55/24 45/62/24
f 39/58/25 45/62/25 37/29/25
f 7/1/1 33/57/1 36/2/1
f 25/4/2 26/67/2 8/5/2
f 26/7/3 29/17/3 6/8/3
f 2/10/4 4/14/4 14/11/4
f 27/13/5 28/24/5 4/14/5
f 30/15/6 27/13/6 2/10/6
f 29/17/6 32/19/6 10/18/6
f 32/19/6 30/15/6 9/16/6
f 10/20/4 13/35/4 8/21/4
f 14/11/7 20/30/7 17/23/7
f 28/24/2 31/26/2 14/25/2
f 31/26/2 25/4/2 13/6/2
f 44/27/8 46/63/8 41/28/8
f 20/30/9 24/68/9 21/31/9
f 13/6/10 19/38/10 20/32/10
f 9/16/11 17/41/11 18/33/11
f 10/20/12 18/40/12 19/34/12
f 21/31/4 24/68/4 23/36/4
f 19/38/13 23/69/13 24/39/13
f 18/40/14 22/37/14 23/36/14
f 17/41/15 21/70/15 22/42/15
f 7/1/8 26/47/8 25/43/8
f 3/45/8 28/24/8 27/13/8
f 5/3/8 29/53/8 26/47/8
f 1/46/8 27/13/8 30/48/8
f 3/45/8 11/51/8 31/50/8
f 12/44/8 25/43/8 31/50/8
f 5/3/8 15/54/8 32/52/8
f 16/49/8 30/48/8 32/52/8
f 33/57/26 7/1/26 48/55/26
f 7/1/27 12/44/27 48/55/27
f 34/60/28 1/46/28 39/58/28
f 1/46/29 16/49/29 39/58/29
f 45/62/30 15/54/30 5/3/30
f 5/3/31 36/2/31 45/62/31
f 48/55/27 12/44/27 11/51/27
f 11/51/32 42/66/32 48/55/32
f 42/66/33 41/28/33 48/55/33
f 38/59/8 40/65/8 35/64/8
f 42/66/34 11/51/34 3/45/34
f 3/45/35 35/64/35 42/66/35
f 1/46/20 34/60/20 35/64/20
f 37/29/21 41/28/21 42/66/21
f 39/58/22 42/66/22 40/65/22
f 36/2/8 33/57/8 47/56/8
f 45/62/23 48/55/23 46/63/23
f 43/61/24 47/56/24 48/55/24
f 39/58/36 16/49/36 45/62/36
f 16/49/30 15/54/30 45/62/30
f 45/62/18 44/27/18 37/29/18
