# Blender v3.1.2 OBJ File: ''
# www.blender.org
mtllib CapRB.mtl
o RainBow_Cube.008
v -0.814839 -0.229643 0.453944
v -0.601977 2.224457 0.360008
v -0.814839 -0.229643 -0.440402
v -0.601977 2.224457 -0.312270
v 0.788291 -0.229643 0.453944
v 0.571365 2.224457 0.360008
v 0.788291 -0.229643 -0.440402
v 0.571365 2.224457 -0.312270
v 0.487626 -0.486428 -0.653613
v 0.338363 2.240349 -0.453313
v 0.487627 -0.486428 0.410951
v 0.338363 2.240349 0.322408
v -0.556682 -0.486428 -0.653613
v -0.399894 2.240349 0.322408
v -0.399894 2.240350 -0.453313
v -0.556683 -0.486428 0.410951
v -0.184630 2.240350 -0.571456
v -0.252178 -0.486428 -0.418658
v -0.252178 -0.486428 -0.830765
v -0.184630 2.240349 -0.271164
v 0.141248 2.240349 -0.571456
v 0.208795 -0.486428 -0.418658
v 0.208795 -0.486428 -0.830765
v 0.141248 2.240349 -0.271164
v -0.683415 1.599642 0.510639
v -0.683415 1.599642 -0.466927
v 0.659914 1.599642 -0.466927
v 0.659914 1.599642 0.510639
v 0.372555 1.599642 0.560205
v 0.372555 1.599642 -0.711318
v -0.435809 1.599642 -0.711318
v -0.435809 1.599642 0.560205
v -0.200103 1.599642 -0.219094
v -0.200103 1.599642 -0.711318
v 0.156721 1.599642 -0.219094
v 0.156721 1.599642 -0.711318
v -0.852616 -0.398456 0.005287
v -0.632674 2.110525 0.459895
v -0.617930 2.234905 0.023634
v -0.771253 0.577975 -0.515925
v -0.719793 -0.442442 -0.585558
v 0.471811 2.237627 -0.408388
v 0.749181 0.577975 -0.515925
v 0.831285 -0.398456 0.005287
v 0.590890 2.234905 0.023634
v 0.749181 0.577975 0.543416
v 0.671356 -0.442442 0.563899
v -0.518606 2.237627 0.433292
v 0.671356 -0.442442 -0.585558
v 0.243577 2.240349 -0.512385
v 0.353545 -0.486428 -0.003853
v 0.471811 2.237627 0.433292
v 0.337279 2.264187 -0.065721
v 0.508931 -0.871607 -0.129981
v 0.430633 0.544688 0.594979
v 0.430633 0.544688 -0.791598
v -0.415542 -0.486428 -0.742189
v -0.300117 2.240349 0.025622
v -0.518606 2.237627 -0.408388
v -0.719793 -0.442442 0.563899
v -0.496816 0.544688 -0.791598
v -0.579061 -0.871607 -0.129981
v -0.398755 2.264187 -0.065721
v -0.496816 0.544688 0.594979
v -0.300117 2.240349 -0.512385
v -0.415542 -0.486428 -0.003853
v -0.017840 -0.486428 -0.863981
v -0.018968 2.240349 -0.382459
v -0.226386 0.544688 -0.276980
v -0.184139 2.264187 -0.420506
v -0.226386 0.544688 -0.813742
v -0.261819 -0.871607 -0.654418
v -0.018968 2.240349 -0.593608
v -0.017840 -0.486428 -0.574210
v 0.353545 -0.486428 -0.742189
v 0.243577 2.240349 0.025622
v 0.140757 2.264187 -0.420506
v 0.183003 0.544688 -0.276980
v 0.183003 0.544688 -0.813742
v 0.218436 -0.871607 -0.654418
v -0.771253 0.577975 0.543416
v -0.632674 2.110525 -0.411049
v 0.606851 2.110525 -0.411049
v 0.606851 2.110525 0.459895
v 0.344807 2.112585 0.500740
v 0.344807 2.112585 -0.633099
v -0.406662 2.112585 -0.633099
v -0.406662 2.112585 0.500740
v -0.187545 2.112585 -0.208943
v -0.187545 2.112585 -0.647867
v 0.144164 2.112585 -0.208943
v 0.144164 2.112585 -0.647867
v -0.018710 1.599642 -0.711318
v 0.268767 1.599642 0.170555
v -0.326557 1.599642 -0.711318
v -0.018710 1.599642 -0.365213
v -0.326557 1.599642 0.170555
v -0.569144 1.599642 -0.680769
v 0.268767 1.599642 -0.711318
v 0.522785 1.599642 0.700128
v -0.569144 1.599642 0.700128
v 0.710519 1.599642 0.021856
v 0.522785 1.599642 -0.680769
v -0.725075 1.599642 0.021856
v -0.669801 2.111555 0.024400
v 0.483511 2.112070 -0.602520
v 0.651963 2.111555 0.024400
v -0.529834 2.112070 0.628657
v 0.702019 -0.812166 -0.014738
v -0.518822 2.260509 0.011971
v 0.472391 2.260509 0.011971
v 0.369241 -0.871607 -0.392199
v 0.483511 2.112070 0.628657
v 0.248324 2.112585 -0.640483
v -0.529834 2.112070 -0.602520
v -0.750180 -0.812166 -0.014738
v -0.299279 2.264187 -0.243113
v -0.305100 2.112585 0.145898
v -0.018920 2.112585 -0.342008
v -0.018976 2.264187 -0.487028
v -0.305100 2.112585 -0.640483
v -0.432017 -0.871607 -0.392199
v 0.242778 2.264187 -0.243113
v 0.248324 2.112585 0.145898
v -0.018920 2.112585 -0.650636
v -0.017679 -0.871607 -0.752750
v -0.018271 0.544688 -0.817894
v 0.311556 0.544688 0.158999
v -0.371469 0.544688 -0.802670
v -0.018271 0.544688 -0.440472
v -0.371469 0.544688 0.159000
v -0.647776 0.553010 -0.752533
v 0.311556 0.544688 -0.802670
v 0.600688 0.553010 0.751645
v -0.647776 0.553010 0.751645
v 0.806102 0.561331 0.013599
v 0.600688 0.553010 -0.752533
v -0.818348 0.561331 0.013599
vt 0.617127 0.000000
vt 0.575871 0.120975
vt 0.609254 0.000000
vt 0.625000 0.000000
vt 0.613334 0.121646
vt 0.625000 0.250000
vt 0.612575 0.220487
vt 0.572836 0.217804
vt 0.572836 0.439504
vt 0.612575 0.469520
vt 0.572836 0.470326
vt 0.625000 0.430979
vt 0.612575 0.438794
vt 0.625000 0.465490
vt 0.612760 0.527650
vt 0.572836 0.530163
vt 0.572836 0.625000
vt 0.625000 0.500000
vt 0.613315 0.625000
vt 0.625000 0.750000
vt 0.612760 0.722351
vt 0.572836 0.719837
vt 0.572836 0.948315
vt 0.613334 0.972125
vt 0.575871 0.972232
vt 0.612575 0.947887
vt 0.625000 0.971589
vt 0.617127 1.000000
vt 0.609254 1.000000
vt 0.340490 0.500000
vt 0.313083 0.625000
vt 0.305979 0.500000
vt 0.397949 0.625000
vt 0.343495 0.625000
vt 0.340490 0.750000
vt 0.305979 0.750000
vt 0.846589 0.500000
vt 0.822459 0.625000
vt 0.818179 0.500000
vt 0.875000 0.500000
vt 0.847017 0.625000
vt 0.875000 0.750000
vt 0.846589 0.750000
vt 0.818179 0.750000
vt 0.659540 0.625000
vt 0.632399 0.625000
vt 0.659511 0.500000
vt 0.686917 0.625000
vt 0.694021 0.750000
vt 0.659511 0.750000
vt 0.297044 0.500000
vt 0.279440 0.625000
vt 0.288109 0.500000
vt 0.296887 0.625000
vt 0.297044 0.750000
vt 0.288109 0.750000
vt 0.612575 0.780480
vt 0.572836 0.779675
vt 0.625000 0.784511
vt 0.612575 0.811206
vt 0.572836 0.810496
vt 0.572836 0.402706
vt 0.612575 0.421848
vt 0.572836 0.421809
vt 0.625000 0.413109
vt 0.612575 0.403573
vt 0.625000 0.422044
vt 0.612575 0.274522
vt 0.572836 0.273744
vt 0.625000 0.278411
vt 0.625000 0.306821
vt 0.612575 0.302113
vt 0.572836 0.301685
vt 0.153411 0.500000
vt 0.125000 0.625000
vt 0.125000 0.500000
vt 0.177541 0.625000
vt 0.152983 0.625000
vt 0.181821 0.750000
vt 0.153411 0.750000
vt 0.125000 0.750000
vt 0.805177 0.500000
vt 0.784637 0.625000
vt 0.792176 0.500000
vt 0.804852 0.625000
vt 0.805177 0.750000
vt 0.792176 0.750000
vt 0.572836 0.908129
vt 0.612575 0.929770
vt 0.572836 0.929689
vt 0.612575 0.908883
vt 0.625000 0.930178
vt 0.625000 0.943179
vt 0.572836 0.847294
vt 0.612575 0.877175
vt 0.572836 0.877203
vt 0.625000 0.836891
vt 0.612575 0.846427
vt 0.625000 0.917176
vt 0.711891 0.500000
vt 0.752147 0.625000
vt 0.720560 0.625000
vt 0.752034 0.500000
vt 0.752034 0.750000
vt 0.711891 0.750000
vt 0.572836 0.320311
vt 0.625000 0.319823
vt 0.612575 0.320230
vt 0.625000 0.332824
vt 0.612575 0.341117
vt 0.572836 0.341871
vt 0.181821 0.500000
vt 0.195148 0.625000
vt 0.194823 0.500000
vt 0.215363 0.625000
vt 0.207824 0.750000
vt 0.194823 0.750000
vt 0.694021 0.500000
vt 0.703113 0.625000
vt 0.702956 0.500000
vt 0.702956 0.750000
vt 0.572836 0.828191
vt 0.625000 0.819021
vt 0.612575 0.828152
vt 0.625000 0.827956
vt 0.572836 0.372797
vt 0.625000 0.372966
vt 0.612575 0.372825
vt 0.207824 0.500000
vt 0.247853 0.625000
vt 0.247966 0.500000
vt 0.247966 0.750000
vt 0.487575 0.341117
vt 0.375000 0.372966
vt 0.375000 0.332824
vt 0.487575 0.372825
vt 0.487575 0.403573
vt 0.375000 0.413109
vt 0.375000 0.819021
vt 0.487575 0.828152
vt 0.375000 0.827956
vt 0.487575 0.811206
vt 0.487575 0.846427
vt 0.375000 0.836891
vt 0.487575 0.302113
vt 0.375000 0.319823
vt 0.375000 0.306821
vt 0.487575 0.320230
vt 0.487575 0.877175
vt 0.375000 0.877034
vt 0.487575 0.908883
vt 0.375000 0.917176
vt 0.375000 0.930178
vt 0.487575 0.929770
vt 0.487575 0.947887
vt 0.375000 0.943179
vt 0.375000 0.250000
vt 0.487575 0.274522
vt 0.375000 0.278411
vt 0.487575 0.220487
vt 0.487575 0.421848
vt 0.375000 0.422044
vt 0.487575 0.438794
vt 0.375000 0.430979
vt 0.375000 0.750000
vt 0.487575 0.780481
vt 0.375000 0.784511
vt 0.488149 0.722350
vt 0.375000 0.971589
vt 0.488334 0.972125
vt 0.492127 1.000000
vt 0.375000 1.000000
vt 0.375000 0.500000
vt 0.489870 0.625000
vt 0.488149 0.527650
vt 0.375000 0.465490
vt 0.487575 0.469520
vt 0.375000 0.000000
vt 0.488334 0.121646
vt 0.375000 0.125000
vt 0.492127 0.000000
vt 0.625000 0.125000
vt 0.625000 1.000000
vt 0.875000 0.625000
vt 0.625000 0.877034
vn -0.9907 0.1068 0.0844
vn -0.9422 0.3250 0.0811
vn -0.9425 0.3243 -0.0811
vn -0.9906 0.1076 -0.0844
vn 0.1966 0.1627 -0.9669
vn 0.1290 0.8105 -0.5714
vn 0.6249 0.6722 -0.3971
vn 0.8328 0.1454 -0.5341
vn 0.9882 0.1138 -0.1023
vn 0.9235 0.3713 -0.0966
vn 0.9231 0.3721 0.0965
vn 0.9883 0.1128 0.1023
vn 0.7233 0.0406 0.6893
vn 0.5033 0.7135 0.4875
vn -0.6446 0.6595 0.3868
vn -0.8483 0.1364 0.5116
vn 0.3829 -0.7367 -0.5575
vn 0.9317 -0.2799 -0.2314
vn 0.9231 -0.3001 0.2406
vn -0.0930 -0.8128 0.5751
vn -0.0460 0.9971 -0.0612
vn -0.2154 0.9751 -0.0532
vn -0.2013 0.9781 0.0532
vn 0.0091 0.9981 0.0613
vn 0.2150 0.9757 -0.0428
vn 0.0584 0.9968 -0.0543
vn -0.0247 0.9982 0.0542
vn 0.2070 0.9774 0.0424
vn 0.4883 -0.3531 -0.7980
vn 0.4440 -0.5926 -0.6721
vn -0.7862 -0.4543 0.4188
vn -0.8240 -0.3107 0.4739
vn 0.8019 0.1424 0.5803
vn 0.5784 0.7016 0.4163
vn -0.4582 0.7350 0.4998
vn -0.6807 0.0498 0.7309
vn 0.0000 0.1368 -0.9906
vn 0.0607 0.5133 -0.8560
vn 0.0539 0.7080 -0.7042
vn 0.0000 0.1507 -0.9886
vn -0.8735 0.1383 -0.4668
vn -0.6891 0.6260 -0.3650
vn -0.1448 0.8091 -0.5695
vn -0.2203 0.1637 -0.9616
vn -0.9382 -0.2899 -0.1893
vn -0.5558 -0.6839 -0.4726
vn 0.2576 -0.8203 0.5106
vn -0.9291 -0.3136 0.1962
vn -0.0794 0.9847 -0.1552
vn -0.0520 0.9948 -0.0879
vn 0.1565 0.9838 0.0878
vn 0.2371 0.9592 0.1539
vn 0.9509 -0.0249 0.3086
vn 0.9189 0.2508 0.3044
vn 0.9121 0.3161 0.2611
vn 0.9626 -0.0234 0.2699
vn -0.6396 -0.0350 0.7679
vn -0.5943 0.3411 0.7283
vn 0.5813 0.3455 0.7367
vn 0.6269 -0.0350 0.7783
vn 0.0647 0.9857 -0.1555
vn -0.0292 0.9755 -0.2182
vn 0.0892 0.9711 0.2214
vn -0.1091 0.9816 0.1570
vn -0.0512 0.7081 -0.7043
vn -0.0538 0.5134 -0.8564
vn -0.7432 -0.5234 -0.4168
vn -0.7624 -0.4170 -0.4948
vn 0.8611 -0.3788 0.3391
vn 0.8442 -0.4525 0.2873
vn 0.1139 0.9916 -0.0607
vn 0.1508 0.9848 -0.0867
vn -0.2503 0.9643 0.0863
vn -0.1901 0.9799 0.0607
vn -0.9661 -0.0224 0.2573
vn -0.9197 0.3027 0.2501
vn -0.9352 0.2237 0.2745
vn -0.9608 -0.0250 0.2763
vn -0.0000 0.1228 -0.9924
vn -0.0150 0.4075 -0.9131
vn 0.0155 0.4076 -0.9131
vn -0.3450 -0.3836 -0.8566
vn 0.1394 -0.2747 -0.9514
vn -0.3534 -0.3935 0.8487
vn 0.4899 -0.4640 0.7380
vn -0.1403 0.0199 -0.9899
vn -0.0199 0.0971 -0.9951
vn 0.0205 0.0971 -0.9951
vn 0.1450 0.0200 -0.9892
vn -0.9479 -0.0870 0.3064
vn -0.9637 -0.0444 0.2632
vn -0.9584 -0.0394 0.2826
vn -0.9419 -0.0687 0.3287
vn -0.5298 -0.0822 -0.8441
vn -0.0877 0.0806 -0.9929
vn -0.0758 0.0892 -0.9931
vn -0.4764 -0.0312 -0.8787
vn -0.5627 -0.1066 0.8198
vn -0.6295 -0.0555 0.7750
vn 0.6168 -0.0558 0.7851
vn 0.5499 -0.1072 0.8284
vn 0.9279 -0.0734 0.3655
vn 0.9480 -0.0409 0.3155
vn 0.9600 -0.0464 0.2760
vn 0.9428 -0.0910 0.3208
vn -0.8532 -0.0257 -0.5210
vn -0.8780 0.0981 -0.4685
vn -0.2452 0.0846 -0.9658
vn -0.4056 -0.0981 -0.9088
vn 0.5217 -0.0288 -0.8526
vn 0.0855 0.0894 -0.9923
vn 0.0923 0.0806 -0.9925
vn 0.5494 -0.0809 -0.8316
vn 0.7489 -0.0711 0.6589
vn 0.8059 0.0888 0.5854
vn -0.6771 -0.0142 0.7357
vn -0.6056 -0.1721 0.7770
vn 0.6493 -0.1700 0.7413
vn 0.7194 -0.0199 0.6943
vn -0.8520 0.0894 0.5159
vn -0.8043 -0.0534 0.5918
vn 0.9959 0.0269 -0.0859
vn 0.9904 0.0915 -0.1036
vn 0.9905 0.0904 0.1036
vn 0.9960 0.0254 0.0859
vn 0.3672 -0.1034 -0.9244
vn 0.2193 0.0830 -0.9721
vn 0.8381 0.0992 -0.5364
vn 0.8069 -0.0415 -0.5892
vn -0.9969 0.0350 0.0708
vn -0.9924 0.0885 0.0854
vn -0.9923 0.0894 -0.0854
vn -0.9968 0.0362 -0.0708
vn -0.9907 0.1065 0.0847
vn -0.9203 0.3873 0.0557
vn -0.9205 0.3867 -0.0557
vn -0.9906 0.1074 -0.0847
vn 0.2131 0.1585 -0.9641
vn 0.1935 0.8291 -0.5246
vn 0.5816 0.6287 -0.5162
vn 0.8323 0.1450 -0.5350
vn 0.9882 0.1135 -0.1026
vn 0.8944 0.4424 -0.0657
vn 0.8941 0.4431 0.0657
vn 0.9883 0.1125 0.1026
vn 0.7197 0.0395 0.6932
vn 0.4739 0.7072 0.5247
vn -0.5695 0.6233 0.5359
vn -0.8466 0.1352 0.5147
vn 0.5091 -0.7097 -0.4870
vn 0.9105 -0.3500 -0.2204
vn 0.8982 -0.3760 0.2276
vn -0.2312 -0.8253 0.5151
vn -0.0656 0.9964 -0.0543
vn -0.2546 0.9661 -0.0421
vn -0.2453 0.9685 0.0417
vn 0.0277 0.9981 0.0542
vn 0.1817 0.9819 -0.0537
vn 0.0410 0.9973 -0.0612
vn -0.0081 0.9981 0.0613
vn 0.1697 0.9840 0.0537
vn 0.7999 -0.3854 -0.4600
vn 0.7600 -0.5084 -0.4049
vn -0.8563 -0.4361 0.2768
vn -0.8853 -0.3476 0.3089
vn 0.7999 0.1410 0.5833
vn 0.5031 0.6530 0.5661
vn -0.4305 0.7263 0.5359
vn -0.6771 0.0485 0.7343
vn 0.0702 0.1242 -0.9898
vn 0.3740 0.6635 -0.6479
vn 0.3351 0.7736 -0.5378
vn 0.0756 0.1394 -0.9874
vn -0.8730 0.1379 -0.4678
vn -0.6476 0.5912 -0.4807
vn -0.2162 0.8255 -0.5214
vn -0.2385 0.1596 -0.9579
vn -0.9537 -0.2266 -0.1975
vn -0.4233 -0.7211 -0.5485
vn 0.1044 -0.8122 0.5740
vn -0.9475 -0.2446 0.2060
vn -0.1340 0.9872 -0.0870
vn -0.1083 0.9923 -0.0607
vn 0.1809 0.9816 0.0608
vn 0.2231 0.9709 0.0868
vn 0.9489 -0.0294 0.3143
vn 0.9209 0.1535 0.3583
vn 0.9167 0.2544 0.3082
vn 0.9610 -0.0270 0.2751
vn -0.6319 -0.0308 0.7744
vn -0.5522 0.2515 0.7949
vn 0.5393 0.2544 0.8028
vn 0.6192 -0.0307 0.7846
vn 0.0302 0.9754 -0.2182
vn -0.0626 0.9859 -0.1555
vn 0.1055 0.9819 0.1571
vn -0.0922 0.9708 0.2213
vn -0.0718 0.1394 -0.9876
vn -0.3201 0.7779 -0.5408
vn -0.3367 0.6732 -0.6583
vn -0.0622 0.1240 -0.9903
vn -0.4259 -0.5984 -0.6786
vn -0.4440 -0.3638 -0.8189
vn 0.7907 -0.3339 0.5132
vn 0.7705 -0.4686 0.4321
vn 0.0548 0.9946 -0.0879
vn 0.0895 0.9838 -0.1551
vn -0.2657 0.9519 0.1528
vn -0.1645 0.9825 0.0876
vn -0.9646 -0.0258 0.2623
vn -0.9239 0.2435 0.2951
vn -0.9366 0.1359 0.3229
vn -0.9591 -0.0291 0.2815
vn -0.0163 0.1175 -0.9929
vn -0.1139 0.5118 -0.8515
vn 0.1177 0.5117 -0.8511
vn 0.0169 0.1175 -0.9929
vn -0.1349 -0.2750 -0.9519
vn 0.3553 -0.3817 -0.8532
vn -0.5023 -0.4605 0.7319
vn 0.3432 -0.3949 0.8522
vn -0.0199 0.0446 -0.9988
vn 0.0000 0.1005 -0.9949
vn 0.0206 0.0447 -0.9988
vn -0.9598 -0.0998 0.2622
vn -0.9655 -0.0420 0.2572
vn -0.9602 -0.0420 0.2761
vn -0.9558 -0.0834 0.2818
vn -0.0879 -0.0546 -0.9946
vn -0.0000 0.0863 -0.9963
vn 0.0000 0.0966 -0.9953
vn -0.0761 0.0184 -0.9969
vn -0.6258 -0.1215 0.7704
vn -0.6389 -0.0580 0.7671
vn 0.6263 -0.0583 0.7774
vn 0.6131 -0.1226 0.7804
vn 0.9450 -0.0901 0.3145
vn 0.9502 -0.0438 0.3084
vn 0.9619 -0.0439 0.2697
vn 0.9558 -0.1045 0.2748
vn -0.8863 0.0045 -0.4630
vn -0.8777 0.0980 -0.4690
vn -0.2225 0.0868 -0.9711
vn -0.2553 -0.1420 -0.9564
vn 0.0858 0.0186 -0.9961
vn 0.0924 -0.0546 -0.9942
vn 0.8153 -0.0246 0.5785
vn 0.8069 0.0892 0.5839
vn -0.6815 -0.0134 0.7317
vn -0.6611 -0.1841 0.7274
vn 0.7035 -0.1805 0.6874
vn 0.7238 -0.0191 0.6897
vn -0.8529 0.0898 0.5143
vn -0.8606 -0.0100 0.5091
vn 0.9937 0.0382 -0.1056
vn 0.9905 0.0920 -0.1025
vn 0.9907 0.0898 0.1026
vn 0.9937 0.0364 0.1056
vn 0.2283 -0.1453 -0.9627
vn 0.1985 0.0852 -0.9764
vn 0.8377 0.0990 -0.5372
vn 0.8474 -0.0086 -0.5309
vn -0.9952 0.0441 0.0871
vn -0.9925 0.0880 0.0846
vn -0.9924 0.0898 -0.0846
vn -0.9952 0.0456 -0.0871
usemtl Material.003
s off
f 38/1/1 104/2/1 25/3/1
f 2/4/2 105/5/2 38/1/2
f 105/5/3 4/6/3 82/7/3
f 104/2/4 82/7/4 26/8/4
f 30/9/5 106/10/5 103/11/5
f 10/12/6 106/10/6 86/13/6
f 42/14/7 83/15/7 106/10/7
f 106/10/8 27/16/8 103/11/8
f 83/15/9 102/17/9 27/16/9
f 8/18/10 107/19/10 83/15/10
f 107/19/11 6/20/11 84/21/11
f 102/17/12 84/21/12 28/22/12
f 32/23/13 108/24/13 101/25/13
f 88/26/14 48/27/14 108/24/14
f 48/27/15 38/28/15 108/24/15
f 108/24/16 25/29/16 101/25/16
f 49/30/17 54/31/17 9/32/17
f 49/30/18 44/33/18 109/34/18
f 44/33/19 47/35/19 109/34/19
f 109/34/20 11/36/20 54/31/20
f 59/37/21 63/38/21 15/39/21
f 4/40/22 110/41/22 59/37/22
f 110/41/23 2/42/23 48/43/23
f 110/41/24 14/44/24 63/38/24
f 8/18/25 111/45/25 45/46/25
f 42/47/26 53/48/26 111/45/26
f 111/45/27 12/49/27 52/50/27
f 111/45/28 6/20/28 45/46/28
f 75/51/29 80/52/29 23/53/29
f 9/32/30 112/54/30 75/51/30
f 54/31/31 51/55/31 112/54/31
f 112/54/32 22/56/32 80/52/32
f 28/22/33 113/57/33 100/58/33
f 84/21/34 52/59/34 113/57/34
f 52/59/35 85/60/35 113/57/35
f 113/57/36 29/61/36 100/58/36
f 36/62/37 114/63/37 99/64/37
f 21/65/38 114/63/38 92/66/38
f 50/67/39 86/13/39 114/63/39
f 99/64/40 86/13/40 30/9/40
f 26/8/41 115/68/41 98/69/41
f 82/7/42 59/70/42 115/68/42
f 115/68/43 15/71/43 87/72/43
f 115/68/44 31/73/44 98/69/44
f 41/74/45 37/75/45 3/76/45
f 41/74/46 62/77/46 116/78/46
f 116/78/47 16/79/47 60/80/47
f 37/75/48 60/80/48 1/81/48
f 65/82/49 70/83/49 17/84/49
f 15/39/50 117/85/50 65/82/50
f 63/38/51 58/86/51 117/85/51
f 117/85/52 20/87/52 70/83/52
f 33/88/53 118/89/53 97/90/53
f 89/91/54 58/92/54 118/89/54
f 118/89/55 14/93/55 88/26/55
f 97/90/56 88/26/56 32/23/56
f 35/94/57 119/95/57 96/96/57
f 24/97/58 119/95/58 91/98/58
f 119/95/59 20/99/59 89/91/59
f 119/95/60 33/88/60 96/96/60
f 21/100/61 120/101/61 77/102/61
f 17/84/62 120/101/62 73/103/62
f 70/83/63 68/104/63 120/101/63
f 77/102/64 68/104/64 24/105/64
f 87/72/40 95/106/40 31/73/40
f 87/72/65 65/107/65 121/108/65
f 121/108/66 17/109/66 90/110/66
f 121/108/37 34/111/37 95/106/37
f 13/112/67 122/113/67 62/77/67
f 57/114/68 72/115/68 122/113/68
f 122/113/69 18/116/69 66/117/69
f 62/77/70 66/117/70 16/79/70
f 10/118/71 123/119/71 53/48/71
f 50/120/72 77/102/72 123/119/72
f 123/119/73 24/105/73 76/121/73
f 53/48/74 76/121/74 12/49/74
f 85/60/75 94/122/75 29/61/75
f 12/123/76 124/124/76 85/60/76
f 76/125/77 91/98/77 124/124/77
f 124/124/78 35/94/78 94/122/78
f 90/110/79 93/126/79 34/111/79
f 90/110/80 73/127/80 125/128/80
f 73/127/81 92/66/81 125/128/81
f 93/126/79 92/66/79 36/62/79
f 19/129/82 126/130/82 72/115/82
f 23/53/83 126/130/83 67/131/83
f 80/52/84 74/132/84 126/130/84
f 72/115/85 74/132/85 18/116/85
f 71/133/86 67/134/86 19/135/86
f 34/111/87 127/136/87 71/133/87
f 127/136/88 36/62/88 79/137/88
f 67/134/89 79/137/89 23/138/89
f 11/139/90 128/140/90 51/141/90
f 29/61/91 128/140/91 55/142/91
f 128/140/92 35/94/92 78/143/92
f 51/141/93 78/143/93 22/144/93
f 61/145/94 57/146/94 13/147/94
f 31/73/95 129/148/95 61/145/95
f 95/106/96 71/133/96 129/148/96
f 129/148/97 19/135/97 57/146/97
f 22/144/98 130/149/98 74/150/98
f 78/143/99 96/96/99 130/149/99
f 96/96/100 69/151/100 130/149/100
f 130/149/101 18/152/101 74/150/101
f 69/151/102 66/153/102 18/152/102
f 33/88/103 131/154/103 69/151/103
f 131/154/104 32/23/104 64/155/104
f 131/154/105 16/156/105 66/153/105
f 3/157/106 132/158/106 41/159/106
f 40/160/107 98/69/107 132/158/107
f 98/69/108 61/145/108 132/158/108
f 41/159/109 61/145/109 13/147/109
f 23/138/110 133/161/110 75/162/110
f 79/137/111 99/64/111 133/161/111
f 133/161/112 30/9/112 56/163/112
f 75/162/113 56/163/113 9/164/113
f 5/165/114 134/166/114 47/167/114
f 46/168/115 100/58/115 134/166/115
f 100/58/116 55/142/116 134/166/116
f 47/167/117 55/142/117 11/139/117
f 64/155/118 60/169/118 16/156/118
f 64/155/119 101/25/119 135/170/119
f 101/25/120 81/171/120 135/170/120
f 135/170/121 1/172/121 60/169/121
f 7/173/122 136/174/122 44/33/122
f 27/16/123 136/174/123 43/175/123
f 102/17/124 46/168/124 136/174/124
f 136/174/125 5/165/125 44/33/125
f 56/163/126 49/176/126 9/164/126
f 56/163/127 103/11/127 137/177/127
f 103/11/128 43/175/128 137/177/128
f 137/177/129 7/173/129 49/176/129
f 1/178/130 138/179/130 37/180/130
f 81/181/131 104/2/131 138/179/131
f 138/179/132 26/8/132 40/160/132
f 138/179/133 3/157/133 37/180/133
f 38/1/134 105/5/134 104/2/134
f 2/4/135 39/182/135 105/5/135
f 105/5/136 39/182/136 4/6/136
f 104/2/137 105/5/137 82/7/137
f 30/9/138 86/13/138 106/10/138
f 10/12/139 42/14/139 106/10/139
f 42/14/140 8/18/140 83/15/140
f 106/10/141 83/15/141 27/16/141
f 83/15/142 107/19/142 102/17/142
f 8/18/143 45/46/143 107/19/143
f 107/19/144 45/46/144 6/20/144
f 102/17/145 107/19/145 84/21/145
f 32/23/146 88/26/146 108/24/146
f 88/26/147 14/93/147 48/27/147
f 48/27/148 2/183/148 38/28/148
f 108/24/149 38/28/149 25/29/149
f 49/30/150 109/34/150 54/31/150
f 49/30/151 7/173/151 44/33/151
f 44/33/152 5/165/152 47/35/152
f 109/34/153 47/35/153 11/36/153
f 59/37/154 110/41/154 63/38/154
f 4/40/155 39/184/155 110/41/155
f 110/41/156 39/184/156 2/42/156
f 110/41/157 48/43/157 14/44/157
f 8/18/158 42/47/158 111/45/158
f 42/47/159 10/118/159 53/48/159
f 111/45/160 53/48/160 12/49/160
f 111/45/161 52/50/161 6/20/161
f 75/51/162 112/54/162 80/52/162
f 9/32/163 54/31/163 112/54/163
f 54/31/164 11/36/164 51/55/164
f 112/54/165 51/55/165 22/56/165
f 28/22/166 84/21/166 113/57/166
f 84/21/167 6/20/167 52/59/167
f 52/59/168 12/123/168 85/60/168
f 113/57/169 85/60/169 29/61/169
f 36/62/170 92/66/170 114/63/170
f 21/65/171 50/67/171 114/63/171
f 50/67/172 10/12/172 86/13/172
f 99/64/173 114/63/173 86/13/173
f 26/8/174 82/7/174 115/68/174
f 82/7/175 4/6/175 59/70/175
f 115/68/176 59/70/176 15/71/176
f 115/68/177 87/72/177 31/73/177
f 41/74/178 116/78/178 37/75/178
f 41/74/179 13/112/179 62/77/179
f 116/78/180 62/77/180 16/79/180
f 37/75/181 116/78/181 60/80/181
f 65/82/182 117/85/182 70/83/182
f 15/39/183 63/38/183 117/85/183
f 63/38/184 14/44/184 58/86/184
f 117/85/185 58/86/185 20/87/185
f 33/88/186 89/91/186 118/89/186
f 89/91/187 20/99/187 58/92/187
f 118/89/188 58/92/188 14/93/188
f 97/90/189 118/89/189 88/26/189
f 35/94/190 91/98/190 119/95/190
f 24/97/191 68/185/191 119/95/191
f 119/95/192 68/185/192 20/99/192
f 119/95/193 89/91/193 33/88/193
f 21/100/194 73/103/194 120/101/194
f 17/84/195 70/83/195 120/101/195
f 70/83/196 20/87/196 68/104/196
f 77/102/197 120/101/197 68/104/197
f 87/72/198 121/108/198 95/106/198
f 87/72/199 15/71/199 65/107/199
f 121/108/200 65/107/200 17/109/200
f 121/108/201 90/110/201 34/111/201
f 13/112/202 57/114/202 122/113/202
f 57/114/203 19/129/203 72/115/203
f 122/113/204 72/115/204 18/116/204
f 62/77/205 122/113/205 66/117/205
f 10/118/206 50/120/206 123/119/206
f 50/120/207 21/100/207 77/102/207
f 123/119/208 77/102/208 24/105/208
f 53/48/209 123/119/209 76/121/209
f 85/60/210 124/124/210 94/122/210
f 12/123/211 76/125/211 124/124/211
f 76/125/212 24/97/212 91/98/212
f 124/124/213 91/98/213 35/94/213
f 90/110/214 125/128/214 93/126/214
f 90/110/215 17/109/215 73/127/215
f 73/127/216 21/65/216 92/66/216
f 93/126/217 125/128/217 92/66/217
f 19/129/218 67/131/218 126/130/218
f 23/53/219 80/52/219 126/130/219
f 80/52/220 22/56/220 74/132/220
f 72/115/221 126/130/221 74/132/221
f 71/133/222 127/136/222 67/134/222
f 34/111/223 93/126/223 127/136/223
f 127/136/223 93/126/223 36/62/223
f 67/134/224 127/136/224 79/137/224
f 11/139/225 55/142/225 128/140/225
f 29/61/226 94/122/226 128/140/226
f 128/140/227 94/122/227 35/94/227
f 51/141/228 128/140/228 78/143/228
f 61/145/229 129/148/229 57/146/229
f 31/73/230 95/106/230 129/148/230
f 95/106/231 34/111/231 71/133/231
f 129/148/232 71/133/232 19/135/232
f 22/144/233 78/143/233 130/149/233
f 78/143/234 35/94/234 96/96/234
f 96/96/235 33/88/235 69/151/235
f 130/149/236 69/151/236 18/152/236
f 69/151/237 131/154/237 66/153/237
f 33/88/238 97/90/238 131/154/238
f 131/154/239 97/90/239 32/23/239
f 131/154/240 64/155/240 16/156/240
f 3/157/241 40/160/241 132/158/241
f 40/160/242 26/8/242 98/69/242
f 98/69/243 31/73/243 61/145/243
f 41/159/244 132/158/244 61/145/244
f 23/138/245 79/137/245 133/161/245
f 79/137/231 36/62/231 99/64/231
f 133/161/230 99/64/230 30/9/230
f 75/162/246 133/161/246 56/163/246
f 5/165/247 46/168/247 134/166/247
f 46/168/248 28/22/248 100/58/248
f 100/58/249 29/61/249 55/142/249
f 47/167/250 134/166/250 55/142/250
f 64/155/251 135/170/251 60/169/251
f 64/155/252 32/23/252 101/25/252
f 101/25/253 25/29/253 81/171/253
f 135/170/254 81/171/254 1/172/254
f 7/173/255 43/175/255 136/174/255
f 27/16/256 102/17/256 136/174/256
f 102/17/257 28/22/257 46/168/257
f 136/174/258 46/168/258 5/165/258
f 56/163/259 137/177/259 49/176/259
f 56/163/260 30/9/260 103/11/260
f 103/11/261 27/16/261 43/175/261
f 137/177/262 43/175/262 7/173/262
f 1/178/263 81/181/263 138/179/263
f 81/181/264 25/3/264 104/2/264
f 138/179/265 104/2/265 26/8/265
f 138/179/266 40/160/266 3/157/266
