# Blender v3.1.2 OBJ File: ''
# www.blender.org
mtllib CharaSmile.mtl
o Plane
v -0.197861 1.023536 0.349418
v -0.164334 0.959781 0.349418
v -0.121464 0.916361 0.349418
v -0.068152 0.884484 0.349418
v -0.027481 0.875140 0.349418
v 0.000550 0.870194 0.349418
v 0.039023 0.875690 0.349418
v 0.090686 0.890530 0.349418
v 0.159937 0.926804 0.349418
v 0.186868 0.976269 0.349418
v 0.200609 1.033978 0.349418
v 0.140151 0.959781 0.349418
v 0.053312 0.918010 0.349418
v -0.002748 0.905919 0.349418
v -0.078595 0.933949 0.349418
v -0.139602 0.978468 0.349418
v -0.128609 1.014192 0.349418
v -0.154991 1.029032 0.349418
v -0.123663 1.141153 0.349418
v -0.156090 1.256022 0.349418
v -0.080243 1.271961 0.349418
v -0.135205 1.245579 0.349418
v -0.111022 1.146099 0.349418
v -0.077495 1.209305 0.349418
v -0.098930 1.140603 0.349418
v 0.050015 1.003200 0.349418
v 0.070350 1.111474 0.349418
v 0.048366 1.218099 0.349418
v 0.077495 1.132909 0.349418
v 0.113220 1.206007 0.349418
v 0.092335 1.228541 0.349418
v 0.131357 1.208755 0.349418
v 0.084640 1.113123 0.349418
v 0.070350 0.958132 0.349418
vt 0.493406 0.103796
vt 0.311418 0.171052
vt 0.336474 0.052364
vt 0.233611 0.680093
vt 0.203279 0.668224
vt 0.262623 0.666905
vt 0.668801 0.597011
vt 0.620007 0.337216
vt 0.703089 0.600967
vt 0.165035 0.277872
vt 0.025247 0.386010
vt 0.105691 0.233034
vt 0.208554 0.128852
vt 0.434062 0.029945
vt 0.501319 0.018076
vt 0.593632 0.031264
vt 0.717595 0.066870
vt 0.627920 0.132808
vt 0.883759 0.153908
vt 0.836283 0.233034
vt 0.948378 0.272597
vt 0.981347 0.411066
vt 0.175585 0.918788
vt 0.307461 0.982089
vt 0.125473 0.943844
vt 0.128110 0.399197
vt 0.191411 0.363591
vt 0.314055 0.831750
vt 0.815183 0.830431
vt 0.721551 0.877907
vt 0.771664 0.823837
vt 0.685945 0.648443
vt 0.616051 0.852850
vt 0.668801 0.229078
vn 0.0000 0.0000 1.0000
usemtl None
s off
f 14/1/1 15/2/1 4/3/1
f 23/4/1 19/5/1 25/6/1
f 27/7/1 26/8/1 33/9/1
f 16/10/1 1/11/1 2/12/1
f 2/12/1 3/13/1 16/10/1
f 3/13/1 4/3/1 15/2/1
f 4/3/1 5/14/1 14/1/1
f 5/14/1 6/15/1 14/1/1
f 6/15/1 7/16/1 14/1/1
f 7/16/1 8/17/1 13/18/1
f 8/17/1 9/19/1 12/20/1
f 9/19/1 10/21/1 12/20/1
f 10/21/1 11/22/1 12/20/1
f 12/20/1 13/18/1 8/17/1
f 7/16/1 13/18/1 14/1/1
f 3/13/1 15/2/1 16/10/1
f 22/23/1 21/24/1 20/25/1
f 19/5/1 18/26/1 25/6/1
f 18/26/1 17/27/1 25/6/1
f 22/23/1 20/25/1 19/5/1
f 25/6/1 24/28/1 23/4/1
f 23/4/1 22/23/1 19/5/1
f 32/29/1 31/30/1 30/31/1
f 29/32/1 28/33/1 27/7/1
f 32/29/1 30/31/1 29/32/1
f 26/8/1 34/34/1 33/9/1
f 33/9/1 32/29/1 29/32/1
f 29/32/1 27/7/1 33/9/1
