# Blender v3.1.2 OBJ File: ''
# www.blender.org
mtllib coconut1.mtl
o Icosphere.001_Icosphere.036
v 0.000000 -0.915820 0.000000
v 0.662694 -0.409572 0.481470
v -0.253122 -0.409573 0.779041
v -0.819133 -0.409569 0.000000
v -0.253122 -0.409573 -0.779041
v 0.662694 -0.409572 -0.481470
v -0.148780 -0.779046 0.457906
v 0.389519 -0.779046 0.282999
v 0.240740 -0.481481 0.740909
v 0.779040 -0.481479 0.000000
v 0.389519 -0.779046 -0.282999
v -0.481474 -0.779044 0.000000
v -0.630257 -0.481480 0.457907
v -0.148780 -0.779046 -0.457906
v -0.630257 -0.481480 -0.457907
v 0.240740 -0.481481 -0.740909
v 0.870998 -0.000000 0.283000
v 0.870998 -0.000000 -0.283000
v 0.000000 -0.000000 0.915820
v 0.538306 -0.000000 0.740913
v -0.870998 -0.000000 0.283000
v -0.538306 -0.000000 0.740913
v -0.538306 -0.000000 -0.740913
v -0.870998 -0.000000 -0.283000
v 0.538306 -0.000000 -0.740913
v 0.000000 -0.000000 -0.915820
v 0.000000 -0.677707 -0.000000
v 0.490393 -0.303084 0.356287
v -0.187310 -0.303084 0.576491
v -0.606158 -0.303081 0.000000
v -0.187310 -0.303084 -0.576491
v 0.490393 -0.303084 -0.356287
v 0.187310 0.303084 0.576491
v -0.490393 0.303084 0.356287
v -0.490393 0.303084 -0.356287
v 0.187310 0.303084 -0.576491
v 0.606158 0.303081 0.000000
v -0.110097 -0.576494 0.338850
v 0.288244 -0.576494 0.209419
v 0.178148 -0.356296 0.548272
v 0.576489 -0.356295 0.000000
v 0.288244 -0.576494 -0.209419
v -0.356291 -0.576492 -0.000000
v -0.466390 -0.356295 0.338851
v -0.110097 -0.576494 -0.338850
v -0.466390 -0.356295 -0.338851
v 0.178148 -0.356296 -0.548272
v 0.644538 0.000000 0.209419
v 0.644538 0.000000 -0.209419
v -0.000000 0.000000 0.677707
v 0.398346 -0.000000 0.548276
v -0.644538 -0.000000 0.209419
v -0.398346 0.000000 0.548276
v -0.398346 0.000000 -0.548276
v -0.644538 -0.000000 -0.209419
v 0.398346 -0.000000 -0.548276
v 0.000000 0.000000 -0.677707
v 0.709925 0.322145 -0.400026
v 0.830204 0.322145 -0.060407
v 0.599828 0.322145 -0.551561
v 0.313997 0.322145 -0.770903
v 0.199090 0.322145 -0.808238
v -0.161073 0.322145 -0.798792
v -0.339213 0.322145 -0.740910
v -0.636142 0.322145 -0.536850
v -0.707158 0.322145 -0.439104
v -0.809471 0.322145 -0.093652
v -0.809471 0.322145 0.093652
v -0.707158 0.322145 0.439104
v -0.339213 0.322145 0.740910
v -0.636142 0.322145 0.536850
v -0.161073 0.322145 0.798792
v 0.199090 0.322145 0.808238
v 0.599828 0.322145 0.551561
v 0.313997 0.322145 0.770903
v 0.709925 0.322145 0.400026
v 0.830204 0.322145 0.060407
v 0.287281 0.322145 0.491364
v 0.181927 0.322145 0.559923
v -0.378544 0.322145 0.425058
v -0.476300 0.322145 0.346048
v -0.476300 0.322145 -0.346048
v -0.521235 0.322145 -0.228658
v 0.181927 0.322145 -0.559923
v 0.056399 0.322145 -0.566382
v 0.556086 0.322145 -0.121395
v 0.588736 0.322145 -0.000000
v 0.287281 0.322145 -0.491364
v -0.378544 0.322145 -0.425058
v -0.521235 0.322145 0.228658
v 0.056399 0.322145 0.566382
v 0.556086 0.322145 0.121395
v 0.483466 0.322145 -0.326445
v 0.459869 0.322145 -0.358924
v -0.161072 0.322145 -0.560678
v -0.199254 0.322145 -0.548272
v -0.583012 0.322145 -0.020072
v -0.583012 0.322145 0.020072
v -0.199254 0.322145 0.548272
v -0.161072 0.322145 0.560678
v 0.459869 0.322145 0.358924
v 0.483466 0.322145 0.326445
vt 0.181819 0.000000
vt 0.227273 0.078731
vt 0.136365 0.078731
vt 0.272728 0.157461
vt 0.318182 0.078731
vt 0.363637 0.157461
vt 0.909091 0.000000
vt 0.954545 0.078731
vt 0.863636 0.078731
vt 0.727273 0.000000
vt 0.772727 0.078731
vt 0.681818 0.078731
vt 0.545455 0.000000
vt 0.590909 0.078731
vt 0.500000 0.078731
vt 0.318182 0.236191
vt 0.090910 0.157461
vt 0.181819 0.157461
vt 0.136365 0.236191
vt 0.818182 0.157461
vt 0.909091 0.157461
vt 0.863636 0.236191
vt 0.636364 0.157461
vt 0.727273 0.157461
vt 0.681818 0.236191
vt 0.454546 0.157461
vt 0.545455 0.157461
vt 0.500000 0.236191
vt 0.227273 0.236191
vt 0.045455 0.236191
vt 0.772727 0.236191
vt 0.590909 0.236191
vt 0.409092 0.236191
vt 0.439504 0.288867
vt 0.373339 0.298116
vt 0.469588 0.288867
vt 0.535752 0.298115
vt 0.621322 0.288867
vt 0.555158 0.298115
vt 0.717570 0.298115
vt 0.651406 0.288867
vt 0.803140 0.288867
vt 0.736976 0.298115
vt 0.899388 0.298115
vt 0.833224 0.288867
vt 0.075867 0.288867
vt 0.009703 0.298115
vt 0.105952 0.288867
vt 0.172116 0.298115
vt 0.191522 0.298115
vt 0.257686 0.288867
vt 0.287770 0.288867
vt 0.353935 0.298116
vt 0.918794 0.298115
vt 0.954545 0.236191
vt 1.000000 0.157461
vt 0.409092 0.078731
vt 0.363637 0.000000
vt 0.181819 0.000000
vt 0.136365 0.078731
vt 0.227273 0.078731
vt 0.272728 0.157461
vt 0.363637 0.157461
vt 0.318182 0.078731
vt 0.909091 0.000000
vt 0.863636 0.078731
vt 0.954545 0.078731
vt 0.727273 0.000000
vt 0.681818 0.078731
vt 0.772727 0.078731
vt 0.545455 0.000000
vt 0.500000 0.078731
vt 0.590909 0.078731
vt 0.318182 0.236191
vt 0.090910 0.157461
vt 0.136365 0.236191
vt 0.181819 0.157461
vt 0.818182 0.157461
vt 0.863636 0.236191
vt 0.909091 0.157461
vt 0.636364 0.157461
vt 0.681818 0.236191
vt 0.727273 0.157461
vt 0.454546 0.157461
vt 0.500000 0.236191
vt 0.545455 0.157461
vt 0.227273 0.236191
vt 0.045455 0.236191
vt 0.772727 0.236191
vt 0.590909 0.236191
vt 0.409092 0.236191
vt 0.181819 0.314921
vt 0.184988 0.320410
vt 0.214384 0.314921
vt 0.003169 0.320410
vt 0.032565 0.314921
vt 0.000000 0.314921
vt 0.730442 0.320410
vt 0.759838 0.314921
vt 0.727273 0.314921
vt 0.545455 0.314921
vt 0.548624 0.320410
vt 0.578020 0.314921
vt 0.366806 0.320411
vt 0.396206 0.314921
vt 0.363637 0.314921
vt 0.512890 0.314921
vt 0.542286 0.320410
vt 0.694708 0.314921
vt 0.724104 0.320410
vt 0.905922 0.320410
vt 0.909091 0.314921
vt 0.876526 0.314921
vt 0.149254 0.314921
vt 0.178650 0.320410
vt 0.331068 0.314921
vt 0.360468 0.320411
vt 0.450189 0.307375
vt 0.458903 0.307375
vt 0.632007 0.307375
vt 0.640721 0.307375
vt 0.813825 0.307375
vt 0.822539 0.307375
vt 0.086553 0.307375
vt 0.095266 0.307375
vt 0.268371 0.307375
vt 0.277085 0.307375
vt 0.954545 0.236191
vt 1.000000 0.157461
vt 0.409092 0.078731
vt 0.363637 0.000000
vt 0.353775 0.617449
vt 0.319511 0.609826
vt 0.323592 0.625000
vt 0.148816 0.613294
vt 0.177124 0.627509
vt 0.177124 0.622491
vt 0.319511 0.640174
vt 0.310433 0.665806
vt 0.338741 0.675003
vt 0.353775 0.632551
vt 0.338741 0.574997
vt 0.310433 0.584194
vt 0.307484 0.580135
vt 0.324979 0.556055
vt 0.289250 0.528637
vt 0.285910 0.563579
vt 0.274886 0.523970
vt 0.272741 0.555010
vt 0.229866 0.525151
vt 0.257050 0.554202
vt 0.207598 0.532386
vt 0.225093 0.556466
vt 0.170482 0.557894
vt 0.202682 0.571868
vt 0.161605 0.570112
vt 0.190462 0.581744
vt 0.184846 0.596418
vt 0.148816 0.636706
vt 0.161605 0.679888
vt 0.184846 0.653582
vt 0.170482 0.692106
vt 0.190462 0.668256
vt 0.207598 0.717614
vt 0.202682 0.678132
vt 0.229866 0.724849
vt 0.229866 0.695085
vt 0.274886 0.726030
vt 0.257050 0.695798
vt 0.289250 0.721363
vt 0.272741 0.694990
vt 0.324979 0.693945
vt 0.285910 0.686420
vt 0.307484 0.669865
vt 0.229866 0.554915
vt 0.225093 0.693534
vn 0.1024 -0.9435 0.3151
vn 0.7002 -0.6617 0.2680
vn -0.2680 -0.9435 0.1947
vn -0.2680 -0.9435 -0.1947
vn 0.1024 -0.9435 -0.3151
vn 0.9050 -0.3304 0.2680
vn 0.0247 -0.3304 0.9435
vn -0.8897 -0.3304 0.3151
vn -0.5746 -0.3304 -0.7488
vn 0.5346 -0.3304 -0.7779
vn 0.8026 -0.1256 0.5831
vn -0.3066 -0.1256 0.9435
vn -0.9921 -0.1256 0.0000
vn -0.3066 -0.1256 -0.9435
vn 0.8026 -0.1256 -0.5831
vn 0.8897 0.3304 -0.3151
vn 0.7947 0.1876 -0.5773
vn 0.5746 0.3304 -0.7488
vn -0.0247 0.3304 -0.9435
vn -0.3035 0.1876 -0.9342
vn -0.5346 0.3304 -0.7779
vn -0.9050 0.3304 -0.2680
vn -0.9822 0.1876 0.0000
vn -0.9050 0.3304 0.2680
vn -0.5346 0.3304 0.7779
vn -0.3035 0.1876 0.9342
vn -0.0247 0.3304 0.9435
vn 0.5746 0.3304 0.7488
vn 0.7947 0.1876 0.5773
vn 0.8897 0.3304 0.3151
vn 0.3066 0.1256 -0.9435
vn 0.3035 -0.1876 -0.9342
vn 0.0247 -0.3304 -0.9435
vn -0.8026 0.1256 -0.5831
vn -0.7947 -0.1876 -0.5773
vn -0.8897 -0.3304 -0.3151
vn -0.8026 0.1256 0.5831
vn -0.7947 -0.1876 0.5773
vn -0.5746 -0.3304 0.7488
vn 0.3066 0.1256 0.9435
vn 0.3035 -0.1876 0.9342
vn 0.5346 -0.3304 0.7779
vn 0.9921 0.1256 0.0000
vn 0.9822 -0.1876 0.0000
vn 0.9050 -0.3304 -0.2680
vn 0.4713 -0.6617 -0.5831
vn 0.1876 -0.7947 -0.5773
vn -0.0385 -0.6617 -0.7488
vn -0.4089 -0.6617 -0.6284
vn -0.4911 -0.7947 -0.3568
vn -0.7240 -0.6617 -0.1947
vn -0.7240 -0.6617 0.1947
vn -0.4911 -0.7947 0.3568
vn -0.4089 -0.6617 0.6284
vn 0.7002 -0.6617 -0.2680
vn 0.6071 -0.7947 0.0000
vn 0.3313 -0.9435 0.0000
vn -0.0385 -0.6617 0.7488
vn 0.1876 -0.7947 0.5773
vn 0.4713 -0.6617 0.5831
vn -0.1024 0.9435 -0.3151
vn -0.7002 0.6617 -0.2680
vn 0.2680 0.9435 -0.1947
vn 0.2680 0.9435 0.1947
vn -0.1024 0.9435 0.3151
vn -0.4713 0.6617 0.5831
vn -0.1876 0.7947 0.5773
vn 0.0385 0.6617 0.7488
vn 0.4089 0.6617 0.6284
vn 0.4911 0.7947 0.3568
vn 0.7240 0.6617 0.1947
vn 0.7240 0.6617 -0.1947
vn 0.4911 0.7947 -0.3568
vn 0.4089 0.6617 -0.6284
vn -0.7002 0.6617 0.2680
vn -0.6071 0.7947 0.0000
vn -0.3313 0.9435 0.0000
vn 0.0385 0.6617 -0.7488
vn -0.1876 0.7947 -0.5773
vn -0.4713 0.6617 -0.5831
vn 0.0000 1.0000 -0.0000
usemtl None
s off
f 1/1/1 8/2/1 7/3/1
f 2/4/2 8/5/2 10/6/2
f 1/7/3 7/8/3 12/9/3
f 1/10/4 12/11/4 14/12/4
f 1/13/5 14/14/5 11/15/5
f 2/4/6 10/6/6 17/16/6
f 3/17/7 9/18/7 19/19/7
f 4/20/8 13/21/8 21/22/8
f 5/23/9 15/24/9 23/25/9
f 6/26/10 16/27/10 25/28/10
f 2/4/11 17/16/11 20/29/11
f 3/17/12 19/19/12 22/30/12
f 4/20/13 21/22/13 24/31/13
f 5/23/14 23/25/14 26/32/14
f 6/26/15 25/28/15 18/33/15
f 18/33/16 58/34/16 59/35/16
f 58/34/17 25/28/17 60/36/17
f 25/28/18 61/37/18 60/36/18
f 26/32/19 63/38/19 62/39/19
f 23/25/20 63/38/20 26/32/20
f 23/25/21 65/40/21 64/41/21
f 24/31/22 67/42/22 66/43/22
f 21/22/23 67/42/23 24/31/23
f 21/22/24 69/44/24 68/45/24
f 22/30/25 70/46/25 71/47/25
f 22/30/26 72/48/26 70/46/26
f 19/19/27 73/49/27 72/48/27
f 75/50/28 20/29/28 74/51/28
f 20/29/29 76/52/29 74/51/29
f 17/16/30 77/53/30 76/52/30
f 26/32/31 61/37/31 25/28/31
f 25/28/32 16/27/32 26/32/32
f 16/27/33 5/23/33 26/32/33
f 24/31/34 65/40/34 23/25/34
f 23/25/35 15/24/35 24/31/35
f 15/24/36 4/20/36 24/31/36
f 21/22/37 71/54/37 69/44/37
f 21/22/38 13/21/38 22/55/38
f 13/21/39 3/56/39 22/55/39
f 19/19/40 75/50/40 73/49/40
f 19/19/41 9/18/41 20/29/41
f 9/18/42 2/4/42 20/29/42
f 17/16/43 59/35/43 77/53/43
f 17/16/44 10/6/44 18/33/44
f 10/6/45 6/26/45 18/33/45
f 11/15/46 16/27/46 6/26/46
f 11/15/47 14/14/47 16/27/47
f 14/14/48 5/23/48 16/27/48
f 14/12/49 15/24/49 5/23/49
f 14/12/50 12/11/50 15/24/50
f 12/11/51 4/20/51 15/24/51
f 12/9/52 13/21/52 4/20/52
f 12/9/53 7/8/53 13/21/53
f 7/8/54 3/56/54 13/21/54
f 10/6/55 11/57/55 6/26/55
f 10/6/56 8/5/56 11/57/56
f 8/5/57 1/58/57 11/57/57
f 7/3/58 9/18/58 3/17/58
f 7/3/59 8/2/59 9/18/59
f 8/2/60 2/4/60 9/18/60
f 27/59/61 38/60/61 39/61/61
f 28/62/62 41/63/62 39/64/62
f 27/65/63 43/66/63 38/67/63
f 27/68/64 45/69/64 43/70/64
f 27/71/65 42/72/65 45/73/65
f 28/62/22 48/74/22 41/63/22
f 29/75/19 50/76/19 40/77/19
f 30/78/16 52/79/16 44/80/16
f 31/81/28 54/82/28 46/83/28
f 32/84/25 56/85/25 47/86/25
f 28/62/34 51/87/34 48/74/34
f 29/75/31 53/88/31 50/76/31
f 30/78/43 55/89/43 52/79/43
f 31/81/40 57/90/40 54/82/40
f 32/84/37 49/91/37 56/85/37
f 33/92/49 79/93/49 78/94/49
f 81/95/46 80/96/46 34/97/46
f 82/98/2 83/99/2 35/100/2
f 36/101/58 84/102/58 85/103/58
f 87/104/52 86/105/52 37/106/52
f 88/107/54 84/108/54 36/101/54
f 35/100/60 89/109/60 82/110/60
f 81/111/55 34/112/55 90/113/55
f 33/92/48 91/114/48 79/115/48
f 37/106/51 92/116/51 87/117/51
f 49/91/8 86/105/8 93/118/8
f 56/85/38 93/118/38 94/119/38
f 88/107/39 56/85/39 94/119/39
f 57/90/7 85/103/7 95/120/7
f 54/82/41 95/120/41 96/121/41
f 54/82/42 89/109/42 35/100/42
f 55/89/6 83/99/6 97/122/6
f 52/79/44 97/122/44 98/123/44
f 90/113/45 52/79/45 98/123/45
f 53/88/10 80/96/10 99/124/10
f 53/88/32 100/125/32 50/76/32
f 91/114/33 50/76/33 100/125/33
f 51/87/9 78/94/9 101/126/9
f 51/87/35 102/127/35 48/74/35
f 92/116/36 48/74/36 102/127/36
f 56/85/12 36/101/12 57/90/12
f 56/85/26 57/90/26 47/86/26
f 47/86/27 57/90/27 31/81/27
f 54/82/11 35/100/11 55/89/11
f 54/82/29 55/89/29 46/83/29
f 46/83/30 55/89/30 30/78/30
f 52/79/15 34/112/15 53/128/15
f 52/79/17 53/128/17 44/80/17
f 44/80/18 53/128/18 29/129/18
f 50/76/14 33/92/14 51/87/14
f 50/76/20 51/87/20 40/77/20
f 40/77/21 51/87/21 28/62/21
f 48/74/13 37/106/13 49/91/13
f 48/74/23 49/91/23 41/63/23
f 41/63/24 49/91/24 32/84/24
f 42/72/66 32/84/66 47/86/66
f 42/72/67 47/86/67 45/73/67
f 45/73/68 47/86/68 31/81/68
f 45/69/69 31/81/69 46/83/69
f 45/69/70 46/83/70 43/70/70
f 43/70/71 46/83/71 30/78/71
f 43/66/72 30/78/72 44/80/72
f 43/66/73 44/80/73 38/67/73
f 38/67/74 44/80/74 29/129/74
f 41/63/75 32/84/75 42/130/75
f 41/63/76 42/130/76 39/64/76
f 39/64/77 42/130/77 27/131/77
f 38/60/78 29/75/78 40/77/78
f 38/60/79 40/77/79 39/61/79
f 39/61/80 40/77/80 28/62/80
f 59/132/81 86/133/81 87/134/81
f 67/135/81 98/136/81 97/137/81
f 58/34/17 18/33/17 25/28/17
f 23/25/20 64/41/20 63/38/20
f 21/22/23 68/45/23 67/42/23
f 22/30/26 19/19/26 72/48/26
f 20/29/29 17/16/29 76/52/29
f 26/32/31 62/39/31 61/37/31
f 24/31/34 66/43/34 65/40/34
f 21/22/37 22/55/37 71/54/37
f 19/19/40 20/29/40 75/50/40
f 17/16/43 18/33/43 59/35/43
f 49/91/8 37/106/8 86/105/8
f 56/85/38 49/91/38 93/118/38
f 88/107/39 36/101/39 56/85/39
f 57/90/7 36/101/7 85/103/7
f 54/82/41 57/90/41 95/120/41
f 54/82/42 96/121/42 89/109/42
f 55/89/6 35/100/6 83/99/6
f 52/79/44 55/89/44 97/122/44
f 90/113/45 34/112/45 52/79/45
f 53/88/10 34/97/10 80/96/10
f 53/88/32 99/124/32 100/125/32
f 91/114/33 33/92/33 50/76/33
f 51/87/9 33/92/9 78/94/9
f 51/87/35 101/126/35 102/127/35
f 92/116/36 37/106/36 48/74/36
f 92/138/81 102/139/81 76/140/81
f 76/140/81 77/141/81 92/138/81
f 77/141/81 59/132/81 87/134/81
f 92/138/81 77/141/81 87/134/81
f 59/132/81 58/142/81 86/133/81
f 58/142/81 93/143/81 86/133/81
f 94/144/81 93/143/81 58/142/81
f 58/142/81 60/145/81 94/144/81
f 60/145/81 61/146/81 88/147/81
f 61/146/81 62/148/81 84/149/81
f 62/148/81 63/150/81 85/151/81
f 84/149/81 62/148/81 85/151/81
f 63/150/81 64/152/81 96/153/81
f 64/152/81 65/154/81 89/155/81
f 65/154/81 66/156/81 82/157/81
f 66/156/81 67/135/81 83/158/81
f 82/157/81 66/156/81 83/158/81
f 67/135/81 68/159/81 98/136/81
f 68/159/81 69/160/81 90/161/81
f 69/160/81 71/162/81 81/163/81
f 71/162/81 70/164/81 80/165/81
f 81/163/81 71/162/81 80/165/81
f 70/164/81 72/166/81 100/167/81
f 72/166/81 73/168/81 91/169/81
f 73/168/81 75/170/81 79/171/81
f 75/170/81 74/172/81 78/173/81
f 79/171/81 75/170/81 78/173/81
f 74/172/81 76/140/81 101/174/81
f 76/140/81 102/139/81 101/174/81
f 72/166/81 91/169/81 100/167/81
f 68/159/81 90/161/81 98/136/81
f 64/152/81 89/155/81 96/153/81
f 60/145/81 88/147/81 94/144/81
f 84/149/81 88/147/81 61/146/81
f 74/172/81 101/174/81 78/173/81
f 73/168/81 79/171/81 91/169/81
f 95/175/81 85/151/81 63/150/81
f 96/153/81 95/175/81 63/150/81
f 70/164/81 100/167/81 99/176/81
f 82/157/81 89/155/81 65/154/81
f 70/164/81 99/176/81 80/165/81
f 69/160/81 81/163/81 90/161/81
f 97/137/81 83/158/81 67/135/81
