# Blender v3.1.2 OBJ File: ''
# www.blender.org
mtllib coconut0.mtl
o Icosphere_Icosphere.035
v 0.000000 -1.000000 0.000000
v 0.723607 -0.447220 0.525725
v -0.276388 -0.447220 0.850649
v -0.894426 -0.447216 0.000000
v -0.276388 -0.447220 -0.850649
v 0.723607 -0.447220 -0.525725
v -0.162456 -0.850654 0.499995
v 0.425323 -0.850654 0.309011
v 0.262869 -0.525738 0.809012
v 0.850648 -0.525736 0.000000
v 0.425323 -0.850654 -0.309011
v -0.525730 -0.850652 0.000000
v -0.688189 -0.525736 0.499997
v -0.162456 -0.850654 -0.499995
v -0.688189 -0.525736 -0.499997
v 0.262869 -0.525738 -0.809012
v 0.951058 0.000000 0.309013
v 0.951058 0.000000 -0.309013
v 0.000000 0.000000 1.000000
v 0.587786 0.000000 0.809017
v -0.951058 0.000000 0.309013
v -0.587786 0.000000 0.809017
v -0.587786 0.000000 -0.809017
v -0.951058 0.000000 -0.309013
v 0.587786 0.000000 -0.809017
v 0.000000 0.000000 -1.000000
v 0.000000 -0.740000 -0.000000
v 0.535469 -0.330943 0.389036
v -0.204527 -0.330943 0.629480
v -0.661875 -0.330940 0.000000
v -0.204527 -0.330943 -0.629480
v 0.535469 -0.330943 -0.389036
v -0.120217 -0.629485 0.369996
v 0.314739 -0.629484 0.228668
v 0.194523 -0.389046 0.598668
v 0.629479 -0.389045 0.000000
v 0.314739 -0.629484 -0.228668
v -0.389040 -0.629482 -0.000000
v -0.509260 -0.389045 0.369997
v -0.120217 -0.629485 -0.369996
v -0.509260 -0.389045 -0.369997
v 0.194523 -0.389046 -0.598668
v 0.703783 0.000000 0.228669
v 0.703783 0.000000 -0.228669
v -0.000000 0.000000 0.740000
v 0.434961 -0.000000 0.598672
v -0.703783 -0.000000 0.228669
v -0.434961 0.000000 0.598672
v -0.434961 0.000000 -0.598672
v -0.703783 -0.000000 -0.228669
v 0.434961 -0.000000 -0.598672
v 0.000000 0.000000 -0.740000
v 0.816695 0.268725 -0.406633
v 0.917029 0.268725 -0.123331
v 0.639106 0.268725 -0.651064
v 0.400673 0.268725 -0.834033
v 0.166076 0.268725 -0.910258
v -0.134363 0.268725 -0.902378
v -0.421708 0.268725 -0.809014
v -0.669398 0.268725 -0.638793
v -0.814387 0.268725 -0.439231
v -0.899734 0.268725 -0.151064
v -0.899734 0.268725 0.151064
v -0.814387 0.268725 0.439231
v -0.421708 0.268725 0.809014
v -0.669398 0.268725 0.638793
v -0.134363 0.268725 0.902378
v 0.166076 0.268725 0.910258
v 0.639106 0.268725 0.651064
v 0.400673 0.268725 0.834033
v 0.644138 0.268725 0.644138
v 0.816695 0.268725 0.406633
v 0.917029 0.268725 0.123331
v 0.569420 0.268725 -0.326289
v 0.669754 0.268725 -0.042988
v 0.486282 0.268725 -0.440720
v 0.247849 0.268725 -0.623688
v 0.166075 0.268725 -0.650258
v -0.134362 0.268725 -0.642378
v -0.268884 0.268725 -0.598670
v -0.516574 0.268725 -0.428448
v -0.567113 0.268725 -0.358887
v -0.652459 0.268725 -0.070720
v -0.652459 0.268725 0.070720
v -0.567113 0.268725 0.358887
v -0.268884 0.268725 0.598670
v -0.516574 0.268725 0.428448
v -0.134362 0.268725 0.642378
v 0.166075 0.268725 0.650258
v 0.486282 0.268725 0.440720
v 0.247849 0.268725 0.623688
v 0.569420 0.268725 0.326289
v 0.669754 0.268725 0.042988
vt 0.181819 0.000000
vt 0.227273 0.078731
vt 0.136365 0.078731
vt 0.272728 0.157461
vt 0.318182 0.078731
vt 0.363637 0.157461
vt 0.909091 0.000000
vt 0.954545 0.078731
vt 0.863636 0.078731
vt 0.727273 0.000000
vt 0.772727 0.078731
vt 0.681818 0.078731
vt 0.545455 0.000000
vt 0.590909 0.078731
vt 0.500000 0.078731
vt 0.318182 0.236191
vt 0.090910 0.157461
vt 0.181819 0.157461
vt 0.136365 0.236191
vt 0.818182 0.157461
vt 0.909091 0.157461
vt 0.863636 0.236191
vt 0.636364 0.157461
vt 0.727273 0.157461
vt 0.681818 0.236191
vt 0.454546 0.157461
vt 0.545455 0.157461
vt 0.500000 0.236191
vt 0.227273 0.236191
vt 0.045455 0.236191
vt 0.772727 0.236191
vt 0.590909 0.236191
vt 0.409092 0.236191
vt 0.432325 0.276433
vt 0.381779 0.283499
vt 0.476767 0.276433
vt 0.527313 0.283498
vt 0.614143 0.276433
vt 0.563597 0.283498
vt 0.709131 0.283498
vt 0.658585 0.276433
vt 0.795961 0.276433
vt 0.745415 0.283498
vt 0.890949 0.283498
vt 0.840403 0.276433
vt 0.068689 0.276433
vt 0.018142 0.283498
vt 0.113131 0.276433
vt 0.163677 0.283498
vt 0.250507 0.276433
vt 0.199961 0.283498
vt 0.294949 0.276433
vt 0.251766 0.276433
vt 0.345495 0.283499
vt 0.927233 0.283498
vt 0.954545 0.236191
vt 1.000000 0.157461
vt 0.409092 0.078731
vt 0.363637 0.000000
vt 0.181819 0.000000
vt 0.136365 0.078731
vt 0.227273 0.078731
vt 0.272728 0.157461
vt 0.363637 0.157461
vt 0.318182 0.078731
vt 0.909091 0.000000
vt 0.863636 0.078731
vt 0.954545 0.078731
vt 0.727273 0.000000
vt 0.681818 0.078731
vt 0.772727 0.078731
vt 0.545455 0.000000
vt 0.500000 0.078731
vt 0.590909 0.078731
vt 0.318182 0.236191
vt 0.090910 0.157461
vt 0.136365 0.236191
vt 0.181819 0.157461
vt 0.818182 0.157461
vt 0.863636 0.236191
vt 0.909091 0.157461
vt 0.636364 0.157461
vt 0.681818 0.236191
vt 0.727273 0.157461
vt 0.454546 0.157461
vt 0.500000 0.236191
vt 0.545455 0.157461
vt 0.227273 0.236191
vt 0.045455 0.236191
vt 0.772727 0.236191
vt 0.590909 0.236191
vt 0.409092 0.236191
vt 0.372182 0.300120
vt 0.440488 0.290572
vt 0.468604 0.290572
vt 0.536909 0.300120
vt 0.554000 0.300120
vt 0.622306 0.290572
vt 0.650422 0.290572
vt 0.718728 0.300120
vt 0.735819 0.300120
vt 0.804124 0.290572
vt 0.832240 0.290572
vt 0.900546 0.300120
vt 0.008546 0.300120
vt 0.076852 0.290572
vt 0.104967 0.290572
vt 0.173274 0.300120
vt 0.258670 0.290572
vt 0.190365 0.300120
vt 0.286786 0.290572
vt 0.355092 0.300120
vt 0.917637 0.300120
vt 0.954545 0.236191
vt 1.000000 0.157461
vt 0.409092 0.078731
vt 0.363637 0.000000
vt 0.321178 0.665786
vt 0.330517 0.705517
vt 0.352087 0.675829
vt 0.185428 0.571444
vt 0.216390 0.550166
vt 0.197287 0.523873
vt 0.310785 0.680090
vt 0.333719 0.630374
vt 0.364629 0.640416
vt 0.364629 0.609584
vt 0.333719 0.619626
vt 0.352087 0.574171
vt 0.329888 0.543617
vt 0.321178 0.584214
vt 0.300084 0.520746
vt 0.280981 0.547039
vt 0.270759 0.511218
vt 0.270759 0.543718
vt 0.233205 0.512203
vt 0.233205 0.544703
vt 0.166325 0.545151
vt 0.148202 0.570096
vt 0.179111 0.580139
vt 0.137533 0.606117
vt 0.137533 0.643883
vt 0.168443 0.616160
vt 0.148202 0.679904
vt 0.179111 0.669861
vt 0.166325 0.704849
vt 0.185428 0.678556
vt 0.197287 0.726127
vt 0.233205 0.737797
vt 0.216390 0.699834
vt 0.270759 0.738782
vt 0.270759 0.706282
vt 0.300084 0.729254
vt 0.329888 0.706383
vt 0.280981 0.702961
vt 0.233205 0.705297
vt 0.310785 0.569910
vt 0.168443 0.633840
vn 0.1024 -0.9435 0.3151
vn 0.7002 -0.6617 0.2680
vn -0.2680 -0.9435 0.1947
vn -0.2680 -0.9435 -0.1947
vn 0.1024 -0.9435 -0.3151
vn 0.9050 -0.3304 0.2680
vn 0.0247 -0.3304 0.9435
vn -0.8897 -0.3304 0.3151
vn -0.5746 -0.3304 -0.7488
vn 0.5346 -0.3304 -0.7779
vn 0.8026 -0.1256 0.5831
vn -0.3066 -0.1256 0.9435
vn -0.9921 -0.1256 0.0000
vn -0.3066 -0.1256 -0.9435
vn 0.8026 -0.1256 -0.5831
vn 0.8897 0.3304 -0.3151
vn 0.7947 0.1876 -0.5773
vn 0.5746 0.3304 -0.7488
vn -0.0247 0.3304 -0.9435
vn -0.3035 0.1876 -0.9342
vn -0.5346 0.3304 -0.7779
vn -0.9050 0.3304 -0.2680
vn -0.9822 0.1876 0.0000
vn -0.9050 0.3304 0.2680
vn -0.5346 0.3304 0.7779
vn -0.3035 0.1876 0.9342
vn -0.0247 0.3304 0.9435
vn 0.5746 0.3304 0.7488
vn 0.7947 0.1876 0.5773
vn 0.8897 0.3304 0.3151
vn 0.3066 0.1256 -0.9435
vn 0.3035 -0.1876 -0.9342
vn 0.0247 -0.3304 -0.9435
vn -0.8026 0.1256 -0.5831
vn -0.7947 -0.1876 -0.5773
vn -0.8897 -0.3304 -0.3151
vn -0.8026 0.1256 0.5831
vn -0.7947 -0.1876 0.5773
vn -0.5746 -0.3304 0.7488
vn 0.3066 0.1256 0.9435
vn 0.3035 -0.1876 0.9342
vn 0.5346 -0.3304 0.7779
vn 0.9921 0.1256 0.0000
vn 0.9822 -0.1876 0.0000
vn 0.9050 -0.3304 -0.2680
vn 0.4713 -0.6617 -0.5831
vn 0.1876 -0.7947 -0.5773
vn -0.0385 -0.6617 -0.7488
vn -0.4089 -0.6617 -0.6284
vn -0.4911 -0.7947 -0.3568
vn -0.7240 -0.6617 -0.1947
vn -0.7240 -0.6617 0.1947
vn -0.4911 -0.7947 0.3568
vn -0.4089 -0.6617 0.6284
vn 0.7002 -0.6617 -0.2680
vn 0.6071 -0.7947 0.0000
vn 0.3313 -0.9435 0.0000
vn -0.0385 -0.6617 0.7488
vn 0.1876 -0.7947 0.5773
vn 0.4713 -0.6617 0.5831
vn -0.1024 0.9435 -0.3151
vn -0.7002 0.6617 -0.2680
vn 0.2680 0.9435 -0.1947
vn 0.2680 0.9435 0.1947
vn -0.1024 0.9435 0.3151
vn -0.4713 0.6617 0.5831
vn -0.1876 0.7947 0.5773
vn 0.0385 0.6617 0.7488
vn 0.4089 0.6617 0.6284
vn 0.4911 0.7947 0.3568
vn 0.7240 0.6617 0.1947
vn 0.7240 0.6617 -0.1947
vn 0.4911 0.7947 -0.3568
vn 0.4089 0.6617 -0.6284
vn -0.7002 0.6617 0.2680
vn -0.6071 0.7947 0.0000
vn -0.3313 0.9435 0.0000
vn 0.0385 0.6617 -0.7488
vn -0.1876 0.7947 -0.5773
vn -0.4713 0.6617 -0.5831
vn 0.0000 1.0000 0.0000
usemtl Material.001
s off
f 1/1/1 8/2/1 7/3/1
f 2/4/2 8/5/2 10/6/2
f 1/7/3 7/8/3 12/9/3
f 1/10/4 12/11/4 14/12/4
f 1/13/5 14/14/5 11/15/5
f 2/4/6 10/6/6 17/16/6
f 3/17/7 9/18/7 19/19/7
f 4/20/8 13/21/8 21/22/8
f 5/23/9 15/24/9 23/25/9
f 6/26/10 16/27/10 25/28/10
f 2/4/11 17/16/11 20/29/11
f 3/17/12 19/19/12 22/30/12
f 4/20/13 21/22/13 24/31/13
f 5/23/14 23/25/14 26/32/14
f 6/26/15 25/28/15 18/33/15
f 18/33/16 53/34/16 54/35/16
f 53/34/17 25/28/17 55/36/17
f 25/28/18 56/37/18 55/36/18
f 26/32/19 58/38/19 57/39/19
f 23/25/20 58/38/20 26/32/20
f 23/25/21 60/40/21 59/41/21
f 24/31/22 62/42/22 61/43/22
f 21/22/23 62/42/23 24/31/23
f 21/22/24 64/44/24 63/45/24
f 22/30/25 65/46/25 66/47/25
f 22/30/26 67/48/26 65/46/26
f 19/19/27 68/49/27 67/48/27
f 20/29/28 69/50/28 70/51/28
f 17/16/29 72/52/29 71/53/29
f 17/16/30 73/54/30 72/52/30
f 26/32/31 56/37/31 25/28/31
f 25/28/32 16/27/32 26/32/32
f 16/27/33 5/23/33 26/32/33
f 24/31/34 60/40/34 23/25/34
f 23/25/35 15/24/35 24/31/35
f 15/24/36 4/20/36 24/31/36
f 21/22/37 66/55/37 64/44/37
f 21/22/38 13/21/38 22/56/38
f 13/21/39 3/57/39 22/56/39
f 19/19/40 70/51/40 68/49/40
f 19/19/41 9/18/41 20/29/41
f 9/18/42 2/4/42 20/29/42
f 17/16/43 54/35/43 73/54/43
f 17/16/44 10/6/44 18/33/44
f 10/6/45 6/26/45 18/33/45
f 11/15/46 16/27/46 6/26/46
f 11/15/47 14/14/47 16/27/47
f 14/14/48 5/23/48 16/27/48
f 14/12/49 15/24/49 5/23/49
f 14/12/50 12/11/50 15/24/50
f 12/11/51 4/20/51 15/24/51
f 12/9/52 13/21/52 4/20/52
f 12/9/53 7/8/53 13/21/53
f 7/8/54 3/57/54 13/21/54
f 10/6/55 11/58/55 6/26/55
f 10/6/56 8/5/56 11/58/56
f 8/5/57 1/59/57 11/58/57
f 7/3/58 9/18/58 3/17/58
f 7/3/59 8/2/59 9/18/59
f 8/2/60 2/4/60 9/18/60
f 27/60/61 33/61/61 34/62/61
f 28/63/62 36/64/62 34/65/62
f 27/66/63 38/67/63 33/68/63
f 27/69/64 40/70/64 38/71/64
f 27/72/65 37/73/65 40/74/65
f 28/63/22 43/75/22 36/64/22
f 29/76/19 45/77/19 35/78/19
f 30/79/16 47/80/16 39/81/16
f 31/82/28 49/83/28 41/84/28
f 32/85/25 51/86/25 42/87/25
f 28/63/34 46/88/34 43/75/34
f 29/76/31 48/89/31 45/77/31
f 30/79/43 50/90/43 47/80/43
f 31/82/40 52/91/40 49/83/40
f 32/85/37 44/92/37 51/86/37
f 44/92/8 75/93/8 74/94/8
f 51/86/38 74/94/38 76/95/38
f 51/86/39 76/95/39 77/96/39
f 52/91/7 78/97/7 79/98/7
f 49/83/41 79/98/41 80/99/41
f 81/100/42 49/83/42 80/99/42
f 50/90/6 82/101/6 83/102/6
f 47/80/44 83/102/44 84/103/44
f 47/80/45 84/103/45 85/104/45
f 48/89/10 87/105/10 86/106/10
f 48/89/32 88/107/32 45/77/32
f 45/77/33 88/107/33 89/108/33
f 90/109/9 46/88/9 91/110/9
f 46/88/35 92/111/35 43/75/35
f 43/75/36 92/111/36 93/112/36
f 52/91/12 77/96/12 78/97/12
f 51/86/26 52/91/26 42/87/26
f 42/87/27 52/91/27 31/82/27
f 50/90/11 81/100/11 82/101/11
f 49/83/29 50/90/29 41/84/29
f 41/84/30 50/90/30 30/79/30
f 87/113/15 47/80/15 85/104/15
f 47/80/17 48/114/17 39/81/17
f 39/81/18 48/114/18 29/115/18
f 45/77/14 91/110/14 46/88/14
f 45/77/20 46/88/20 35/78/20
f 35/78/21 46/88/21 28/63/21
f 43/75/13 75/93/13 44/92/13
f 43/75/23 44/92/23 36/64/23
f 36/64/24 44/92/24 32/85/24
f 37/73/66 32/85/66 42/87/66
f 37/73/67 42/87/67 40/74/67
f 40/74/68 42/87/68 31/82/68
f 40/70/69 31/82/69 41/84/69
f 40/70/70 41/84/70 38/71/70
f 38/71/71 41/84/71 30/79/71
f 38/67/72 30/79/72 39/81/72
f 38/67/73 39/81/73 33/68/73
f 33/68/74 39/81/74 29/115/74
f 36/64/75 32/85/75 37/116/75
f 36/64/76 37/116/76 34/65/76
f 34/65/77 37/116/77 27/117/77
f 33/61/78 29/76/78 35/78/78
f 33/61/79 35/78/79 34/62/79
f 34/62/80 35/78/80 28/63/80
f 92/118/81 71/119/81 72/120/81
f 81/121/81 80/122/81 59/123/81
f 53/34/17 18/33/17 25/28/17
f 23/25/20 59/41/20 58/38/20
f 21/22/23 63/45/23 62/42/23
f 22/30/26 19/19/26 67/48/26
f 71/53/29 69/50/29 20/29/29
f 20/29/29 17/16/29 71/53/29
f 26/32/31 57/39/31 56/37/31
f 24/31/34 61/43/34 60/40/34
f 21/22/37 22/56/37 66/55/37
f 19/19/40 20/29/40 70/51/40
f 17/16/43 18/33/43 54/35/43
f 51/86/38 44/92/38 74/94/38
f 49/83/41 52/91/41 79/98/41
f 47/80/44 50/90/44 83/102/44
f 48/89/32 86/106/32 88/107/32
f 46/88/35 90/109/35 92/111/35
f 52/91/12 51/86/12 77/96/12
f 50/90/11 49/83/11 81/100/11
f 87/113/15 48/114/15 47/80/15
f 45/77/14 89/108/14 91/110/14
f 43/75/13 93/112/13 75/93/13
f 92/118/81 90/124/81 71/119/81
f 93/125/81 92/118/81 72/120/81
f 72/120/81 73/126/81 93/125/81
f 73/126/81 54/127/81 75/128/81
f 54/127/81 53/129/81 75/128/81
f 53/129/81 55/130/81 74/131/81
f 75/128/81 53/129/81 74/131/81
f 55/130/81 56/132/81 77/133/81
f 56/132/81 57/134/81 78/135/81
f 57/134/81 58/136/81 78/135/81
f 58/136/81 59/123/81 79/137/81
f 78/135/81 58/136/81 79/137/81
f 59/123/81 60/138/81 81/121/81
f 60/138/81 61/139/81 82/140/81
f 61/139/81 62/141/81 82/140/81
f 62/141/81 63/142/81 83/143/81
f 82/140/81 62/141/81 83/143/81
f 63/142/81 64/144/81 85/145/81
f 64/144/81 66/146/81 87/147/81
f 66/146/81 65/148/81 87/147/81
f 65/148/81 67/149/81 86/150/81
f 87/147/81 65/148/81 86/150/81
f 67/149/81 68/151/81 89/152/81
f 68/151/81 70/153/81 89/152/81
f 70/153/81 69/154/81 91/155/81
f 69/154/81 71/119/81 90/124/81
f 91/155/81 69/154/81 90/124/81
f 91/155/81 89/152/81 70/153/81
f 64/144/81 87/147/81 85/145/81
f 60/138/81 82/140/81 81/121/81
f 56/132/81 78/135/81 77/133/81
f 73/126/81 75/128/81 93/125/81
f 67/149/81 89/152/81 88/156/81
f 76/157/81 74/131/81 55/130/81
f 67/149/81 88/156/81 86/150/81
f 77/133/81 76/157/81 55/130/81
f 63/142/81 85/145/81 84/158/81
f 63/142/81 84/158/81 83/143/81
f 80/122/81 79/137/81 59/123/81
