# Blender v3.1.2 OBJ File: ''
# www.blender.org
mtllib command_block(g).mtl
o Cube.001
v 0.500000 0.500000 -0.500000
v 0.500000 -0.500000 -0.500000
v 0.500000 0.500000 0.500000
v 0.500000 -0.500000 0.500000
v -0.500000 0.500000 -0.500000
v -0.500000 -0.500000 -0.500000
v -0.500000 0.500000 0.500000
v -0.500000 -0.500000 0.500000
v -0.401099 -0.500000 -0.500000
v -0.401099 0.500000 0.500000
v -0.401099 -0.500000 0.500000
v -0.401099 0.500000 -0.500000
v 0.395604 -0.500000 0.500000
v 0.395604 0.500000 -0.500000
v 0.395604 -0.500000 -0.500000
v 0.395604 0.500000 0.500000
v 0.500000 -0.395604 -0.500000
v -0.500000 -0.395604 0.500000
v 0.500000 -0.395604 0.500000
v -0.500000 -0.395604 -0.500000
v -0.401099 -0.395604 -0.500000
v -0.401099 -0.395604 0.500000
v 0.395604 -0.395604 0.500000
v 0.395604 -0.395604 -0.500000
v -0.500000 0.398352 0.500000
v 0.500000 0.398352 -0.500000
v 0.500000 0.398352 0.500000
v -0.500000 0.398352 -0.500000
v -0.401099 0.398352 -0.500000
v -0.401099 0.398352 0.500000
v 0.395604 0.398352 0.500000
v 0.395604 0.398352 -0.500000
v 0.500000 0.302529 -0.500000
v 0.500000 0.302529 0.500000
v -0.500000 0.302529 -0.500000
v -0.401099 0.302529 -0.500000
v -0.401099 0.302529 0.500000
v 0.395604 0.302529 0.500000
v 0.395604 0.302529 -0.500000
v -0.500000 0.302529 0.500000
v 0.500000 -0.296656 -0.500000
v 0.500000 -0.296656 0.500000
v -0.500000 -0.296656 -0.500000
v -0.401099 -0.296656 -0.500000
v -0.401099 -0.296656 0.500000
v 0.395604 -0.296656 0.500000
v 0.395604 -0.296656 -0.500000
v -0.500000 -0.296656 0.500000
v -0.296703 -0.500000 -0.500000
v -0.296703 0.500000 0.500000
v -0.296703 -0.500000 0.500000
v -0.296703 0.500000 -0.500000
v -0.296703 -0.395604 -0.500000
v -0.296703 -0.395604 0.500000
v -0.296703 0.398352 -0.500000
v -0.296703 0.398352 0.500000
v -0.296703 0.302529 0.500000
v -0.296703 0.302529 -0.500000
v -0.296703 -0.296656 -0.500000
v -0.296703 -0.296656 0.500000
v 0.302198 -0.500000 0.500000
v 0.302198 0.500000 -0.500000
v 0.302198 -0.395604 -0.500000
v 0.302198 0.398352 -0.500000
v 0.302198 0.302529 -0.500000
v 0.302198 -0.296656 -0.500000
v 0.302198 -0.500000 -0.500000
v 0.302198 0.500000 0.500000
v 0.302198 -0.395604 0.500000
v 0.302198 0.398352 0.500000
v 0.302198 0.302529 0.500000
v 0.302198 -0.296656 0.500000
v -0.199659 -0.500000 -0.500000
v -0.199659 0.500000 0.500000
v -0.199659 -0.395604 0.500000
v -0.199659 0.398352 0.500000
v -0.199659 -0.500000 0.500000
v -0.199659 0.500000 -0.500000
v -0.199659 -0.395604 -0.500000
v -0.199659 0.398352 -0.500000
v 0.196836 -0.500000 0.500000
v 0.196836 0.500000 -0.500000
v 0.196836 -0.395604 -0.500000
v 0.196836 0.398352 -0.500000
v 0.196836 -0.500000 -0.500000
v 0.196836 0.500000 0.500000
v 0.196836 -0.395604 0.500000
v 0.196836 0.398352 0.500000
v -0.500000 0.202665 0.500000
v 0.500000 0.202665 -0.500000
v 0.500000 0.202665 0.500000
v -0.500000 0.202665 -0.500000
v -0.401099 0.202665 -0.500000
v -0.401099 0.202665 0.500000
v 0.395604 0.202665 0.500000
v 0.395604 0.202665 -0.500000
v 0.500000 -0.194018 -0.500000
v 0.500000 -0.194018 0.500000
v -0.500000 -0.194018 -0.500000
v -0.401099 -0.194018 -0.500000
v -0.401099 -0.194018 0.500000
v 0.395604 -0.194018 0.500000
v 0.395604 -0.194018 -0.500000
v -0.500000 -0.194018 0.500000
v -0.500000 -0.500000 0.403846
v 0.500000 0.500000 0.403846
v -0.500000 0.500000 0.403846
v 0.500000 -0.500000 0.403846
v -0.401099 -0.500000 0.403846
v -0.401099 0.500000 0.403846
v 0.395604 0.500000 0.403846
v 0.395604 -0.500000 0.403846
v 0.500000 -0.395604 0.403846
v -0.500000 -0.395604 0.403846
v 0.500000 0.398352 0.403846
v -0.500000 0.398352 0.403846
v -0.500000 0.302529 0.403846
v 0.500000 0.302529 0.403846
v 0.500000 -0.296656 0.403846
v -0.500000 -0.296656 0.403846
v -0.296703 -0.500000 0.403846
v -0.296703 0.500000 0.403846
v 0.302198 0.500000 0.403846
v 0.302198 -0.500000 0.403846
v -0.199659 -0.500000 0.403846
v -0.199659 0.500000 0.403846
v 0.196836 0.500000 0.403846
v 0.196836 -0.500000 0.403846
v 0.500000 0.202665 0.403846
v -0.500000 0.202665 0.403846
v 0.500000 -0.194018 0.403846
v -0.500000 -0.194018 0.403846
v -0.500000 0.500000 -0.396548
v 0.500000 -0.500000 -0.396548
v -0.500000 -0.395604 -0.396548
v -0.500000 0.398352 -0.396548
v -0.500000 0.302529 -0.396548
v -0.500000 -0.296656 -0.396548
v -0.500000 0.202665 -0.396548
v -0.500000 -0.194018 -0.396548
v -0.500000 -0.500000 -0.396548
v 0.500000 0.500000 -0.396548
v -0.401099 -0.500000 -0.396548
v -0.401099 0.500000 -0.396548
v 0.395604 0.500000 -0.396548
v 0.395604 -0.500000 -0.396548
v 0.500000 -0.395604 -0.396548
v 0.500000 0.398352 -0.396548
v 0.500000 0.302529 -0.396548
v 0.500000 -0.296656 -0.396548
v -0.296703 -0.500000 -0.396548
v -0.296703 0.500000 -0.396548
v 0.302198 0.500000 -0.396548
v 0.302198 -0.500000 -0.396548
v -0.199659 -0.500000 -0.396548
v -0.199659 0.500000 -0.396548
v 0.196836 0.500000 -0.396548
v 0.196836 -0.500000 -0.396548
v 0.500000 0.202665 -0.396548
v 0.500000 -0.194018 -0.396548
v -0.500000 -0.500000 0.305167
v 0.500000 0.500000 0.305167
v -0.401099 -0.500000 0.305167
v -0.401099 0.500000 0.305167
v 0.395604 0.500000 0.305167
v 0.395604 -0.500000 0.305167
v 0.500000 -0.395604 0.305167
v 0.500000 0.398352 0.305167
v 0.500000 0.302529 0.305167
v 0.500000 -0.296656 0.305167
v -0.296703 -0.500000 0.305167
v -0.296703 0.500000 0.305167
v 0.302198 0.500000 0.305167
v 0.302198 -0.500000 0.305167
v -0.500000 0.500000 0.305167
v 0.500000 -0.500000 0.305167
v -0.500000 -0.395604 0.305167
v -0.500000 0.398352 0.305167
v -0.500000 0.302529 0.305167
v -0.500000 -0.296656 0.305167
v -0.500000 0.500000 -0.295914
v 0.500000 -0.500000 -0.295914
v -0.500000 -0.395604 -0.295914
v -0.500000 0.398352 -0.295914
v -0.500000 0.302529 -0.295914
v -0.500000 -0.296656 -0.295914
v -0.500000 -0.500000 -0.295914
v 0.500000 0.500000 -0.295914
v -0.401099 -0.500000 -0.295914
v -0.401099 0.500000 -0.295914
v 0.395604 0.500000 -0.295914
v 0.395604 -0.500000 -0.295914
v 0.500000 -0.395604 -0.295914
v 0.500000 0.398352 -0.295914
v 0.500000 0.302529 -0.295914
v 0.500000 -0.296656 -0.295914
v -0.296703 -0.500000 -0.295914
v -0.296703 0.500000 -0.295914
v 0.302198 0.500000 -0.295914
v 0.302198 -0.500000 -0.295914
v -0.500000 -0.500000 -0.191138
v 0.500000 0.500000 -0.191138
v -0.401099 -0.500000 -0.191138
v -0.401099 0.500000 -0.191138
v 0.395604 0.500000 -0.191138
v 0.395604 -0.500000 -0.191138
v 0.500000 -0.395604 -0.191138
v 0.500000 0.398352 -0.191138
v -0.500000 0.500000 -0.191138
v 0.500000 -0.500000 -0.191138
v -0.500000 -0.395604 -0.191138
v -0.500000 0.398352 -0.191138
v -0.500000 -0.500000 0.203149
v 0.500000 0.500000 0.203149
v -0.401099 -0.500000 0.203149
v -0.401099 0.500000 0.203149
v 0.395604 0.500000 0.203149
v 0.395604 -0.500000 0.203149
v 0.500000 -0.395604 0.203149
v 0.500000 0.398352 0.203149
v -0.500000 0.500000 0.203149
v 0.500000 -0.500000 0.203149
v -0.500000 -0.395604 0.203149
v -0.500000 0.398352 0.203149
vt 0.875000 0.725962
vt 0.850275 0.750000
vt 0.850275 0.725962
vt 0.625000 0.975275
vt 0.599588 1.000000
vt 0.599588 0.975275
vt 0.625000 0.224137
vt 0.599588 0.250000
vt 0.599588 0.224137
vt 0.375000 0.725962
vt 0.348901 0.750000
vt 0.348901 0.725962
vt 0.625000 0.725962
vt 0.599588 0.750000
vt 0.599588 0.725962
vt 0.625000 0.473901
vt 0.599588 0.500000
vt 0.599588 0.473901
vt 0.625000 0.250000
vt 0.599588 0.274725
vt 0.149725 0.725962
vt 0.125000 0.750000
vt 0.125000 0.725962
vt 0.625000 0.949176
vt 0.599588 0.949176
vt 0.824176 0.750000
vt 0.824176 0.725962
vt 0.651099 0.725962
vt 0.625000 0.750000
vt 0.599588 0.776099
vt 0.625000 0.450549
vt 0.599588 0.450549
vt 0.325549 0.750000
vt 0.325549 0.725962
vt 0.401099 0.450549
vt 0.375000 0.473901
vt 0.375000 0.450549
vt 0.401099 0.750000
vt 0.375000 0.776099
vt 0.375000 0.750000
vt 0.401099 0.949176
vt 0.375000 0.975275
vt 0.375000 0.949176
vt 0.401099 0.250000
vt 0.375000 0.274725
vt 0.375000 0.250000
vt 0.401099 0.473901
vt 0.375000 0.500000
vt 0.401099 0.725962
vt 0.401099 0.224137
vt 0.375000 0.224137
vt 0.401099 0.975275
vt 0.375000 1.000000
vt 0.575632 0.473901
vt 0.575632 0.450549
vt 0.575632 0.776099
vt 0.575632 0.750000
vt 0.575632 0.975275
vt 0.575632 0.949176
vt 0.575632 0.274725
vt 0.575632 0.250000
vt 0.575632 0.500000
vt 0.575632 0.725962
vt 0.575632 0.224137
vt 0.575632 1.000000
vt 0.550666 1.000000
vt 0.550666 0.975275
vt 0.550666 0.250000
vt 0.550666 0.224137
vt 0.550666 0.750000
vt 0.550666 0.725962
vt 0.550666 0.500000
vt 0.550666 0.473901
vt 0.550666 0.274725
vt 0.550666 0.776099
vt 0.425836 0.450549
vt 0.425836 0.750000
vt 0.401099 0.776099
vt 0.425836 0.949176
vt 0.425836 0.250000
vt 0.401099 0.274725
vt 0.425836 0.473901
vt 0.401099 0.500000
vt 0.425836 0.725962
vt 0.425836 0.224137
vt 0.425836 0.975275
vt 0.401099 1.000000
vt 0.425836 0.274725
vt 0.401099 0.300824
vt 0.575632 0.300824
vt 0.401099 0.924915
vt 0.375000 0.924915
vt 0.375000 0.300824
vt 0.175824 0.725962
vt 0.149725 0.750000
vt 0.625000 0.274725
vt 0.599588 0.300824
vt 0.799915 0.750000
vt 0.799915 0.725962
vt 0.625000 0.924915
vt 0.599588 0.924915
vt 0.625000 0.776099
vt 0.599588 0.799451
vt 0.674451 0.725962
vt 0.651099 0.750000
vt 0.375000 0.799451
vt 0.575632 0.799451
vt 0.425836 0.776099
vt 0.401099 0.799451
vt 0.401099 0.424209
vt 0.375000 0.424209
vt 0.299209 0.750000
vt 0.299209 0.725962
vt 0.625000 0.424209
vt 0.599588 0.424209
vt 0.625000 0.300824
vt 0.599588 0.325085
vt 0.200085 0.725962
vt 0.175824 0.750000
vt 0.375000 0.325085
vt 0.625000 0.799451
vt 0.599588 0.825791
vt 0.700791 0.725962
vt 0.674451 0.750000
vt 0.375000 0.825791
vt 0.451496 0.750000
vt 0.451496 0.250000
vt 0.451496 0.473901
vt 0.425836 0.500000
vt 0.451496 0.725962
vt 0.451496 0.224137
vt 0.451496 0.975275
vt 0.425836 1.000000
vt 0.451495 0.000000
vt 0.425836 0.024038
vt 0.425836 0.000000
vt 0.674451 0.701292
vt 0.651099 0.701292
vt 0.175824 0.701292
vt 0.149725 0.701292
vt 0.401099 0.024038
vt 0.401099 0.000000
vt 0.425836 0.701292
vt 0.401099 0.701292
vt 0.575632 0.000000
vt 0.550666 0.024038
vt 0.550666 0.000000
vt 0.599588 0.000000
vt 0.575632 0.024038
vt 0.599588 0.701292
vt 0.575632 0.701292
vt 0.375000 0.024038
vt 0.375000 0.000000
vt 0.375000 0.701292
vt 0.348901 0.701292
vt 0.325549 0.701292
vt 0.625000 0.701292
vt 0.850275 0.701292
vt 0.824176 0.701292
vt 0.125000 0.701292
vt 0.625000 0.000000
vt 0.599588 0.024038
vt 0.875000 0.701292
vt 0.875000 0.500000
vt 0.850275 0.525863
vt 0.850275 0.500000
vt 0.348901 0.525863
vt 0.348901 0.500000
vt 0.625000 0.500000
vt 0.599588 0.525863
vt 0.149725 0.500000
vt 0.125000 0.525863
vt 0.125000 0.500000
vt 0.824176 0.525863
vt 0.824176 0.500000
vt 0.651099 0.500000
vt 0.625000 0.525863
vt 0.325549 0.525863
vt 0.325549 0.500000
vt 0.375000 0.525863
vt 0.575632 0.525863
vt 0.550666 0.525863
vt 0.401099 0.525863
vt 0.175824 0.500000
vt 0.149725 0.525863
vt 0.799915 0.525863
vt 0.799915 0.500000
vt 0.674451 0.500000
vt 0.651099 0.525863
vt 0.299209 0.525863
vt 0.299209 0.500000
vt 0.200085 0.500000
vt 0.175824 0.525863
vt 0.700791 0.500000
vt 0.674451 0.525863
vt 0.451496 0.500000
vt 0.425836 0.525863
vt 0.425836 0.198979
vt 0.401099 0.198979
vt 0.599588 0.198979
vt 0.575632 0.198979
vt 0.375000 0.198979
vt 0.625000 0.198979
vt 0.625000 0.024038
vt 0.599588 0.048708
vt 0.375000 0.048708
vt 0.575632 0.048708
vt 0.401099 0.048708
vt 0.875000 0.675787
vt 0.850275 0.675787
vt 0.375000 0.675787
vt 0.348901 0.675787
vt 0.625000 0.675787
vt 0.599588 0.675787
vt 0.149725 0.675787
vt 0.125000 0.675787
vt 0.651099 0.675787
vt 0.401099 0.675787
vt 0.651099 0.551021
vt 0.149725 0.551021
vt 0.401099 0.551021
vt 0.575632 0.551021
vt 0.375000 0.551021
vt 0.325549 0.551021
vt 0.625000 0.551021
vt 0.824176 0.551021
vt 0.125000 0.551021
vt 0.599588 0.551021
vt 0.348901 0.551021
vt 0.875000 0.525863
vt 0.850275 0.551021
vt 0.625000 0.172785
vt 0.599588 0.172785
vt 0.375000 0.172785
vt 0.401099 0.577215
vt 0.375000 0.577215
vt 0.625000 0.577215
vt 0.125000 0.577215
vt 0.599588 0.577215
vt 0.348901 0.577215
vt 0.875000 0.551022
vt 0.850275 0.577215
vt 0.625000 0.048708
vt 0.599588 0.074213
vt 0.375000 0.074213
vt 0.875000 0.750000
vt 0.625000 1.000000
vt 0.425836 0.300824
vt 0.425836 0.799451
vt 0.625000 0.325085
vt 0.200085 0.750000
vt 0.401099 0.325085
vt 0.625000 0.825791
vt 0.700791 0.750000
vt 0.401099 0.825791
vt 0.451496 0.776099
vt 0.451496 0.274725
vt 0.451495 1.000000
vt 0.451495 0.024038
vt 0.200085 0.525863
vt 0.700791 0.525863
vt 0.451496 0.525863
vt 0.425836 0.048708
vt 0.674451 0.551021
vt 0.175824 0.551021
vt 0.425836 0.551021
vt 0.401099 0.172785
vt 0.651099 0.577215
vt 0.149725 0.577215
vt 0.875000 0.577215
vt 0.625000 0.074213
vt 0.401099 0.074213
vn 0.0000 1.0000 0.0000
vn 0.0000 0.0000 1.0000
vn -1.0000 0.0000 0.0000
vn 0.0000 -1.0000 0.0000
vn 1.0000 0.0000 0.0000
vn 0.0000 0.0000 -1.0000
usemtl Material.001
s off
f 107/1/1 10/2/1 110/3/1
f 10/4/2 25/5/2 30/6/2
f 133/7/3 28/8/3 136/9/3
f 108/10/4 13/11/4 112/12/4
f 106/13/5 27/14/5 115/15/5
f 14/16/6 26/17/6 32/18/6
f 5/19/6 29/20/6 28/8/6
f 109/21/4 8/22/4 105/23/4
f 50/24/2 30/6/2 56/25/2
f 110/3/1 50/26/1 122/27/1
f 111/28/1 3/29/1 106/13/1
f 3/29/2 31/30/2 27/14/2
f 62/31/6 32/18/6 64/32/6
f 112/12/4 61/33/4 124/34/4
f 63/35/6 15/36/6 67/37/6
f 19/38/2 13/39/2 4/40/2
f 54/41/2 11/42/2 51/43/2
f 20/44/6 9/45/6 6/46/6
f 24/47/6 2/48/6 15/36/6
f 113/49/5 4/40/5 108/10/5
f 135/50/3 6/46/3 141/51/3
f 22/52/2 8/53/2 11/42/2
f 64/32/6 39/54/6 65/55/6
f 27/14/2 38/56/2 34/57/2
f 56/25/2 37/58/2 57/59/2
f 28/8/6 36/60/6 35/61/6
f 32/18/6 33/62/6 39/54/6
f 115/15/5 34/57/5 118/63/5
f 136/9/3 35/61/3 137/64/3
f 30/6/2 40/65/2 37/58/2
f 37/58/2 89/66/2 94/67/2
f 137/64/3 92/68/3 139/69/3
f 118/63/5 91/70/5 129/71/5
f 39/54/6 90/72/6 96/73/6
f 35/61/6 93/74/6 92/68/6
f 34/57/2 95/75/2 91/70/2
f 66/76/6 24/47/6 63/35/6
f 42/77/2 23/78/2 19/38/2
f 60/79/2 22/52/2 54/41/2
f 43/80/6 21/81/6 20/44/6
f 47/82/6 17/83/6 24/47/6
f 119/84/5 19/38/5 113/49/5
f 138/85/3 20/44/3 135/50/3
f 45/86/2 18/87/2 22/52/2
f 44/88/6 53/89/6 21/81/6
f 29/20/6 58/90/6 36/60/6
f 75/91/2 51/43/2 77/92/2
f 21/81/6 49/93/6 9/45/6
f 121/94/4 11/95/4 109/21/4
f 12/96/6 55/97/6 29/20/6
f 122/27/1 74/98/1 126/99/1
f 74/100/2 56/25/2 76/101/2
f 16/102/2 70/103/2 31/30/2
f 123/104/1 16/105/1 111/28/1
f 23/78/2 61/106/2 13/39/2
f 31/30/2 71/107/2 38/56/2
f 46/108/2 69/109/2 23/78/2
f 83/110/6 67/37/6 85/111/6
f 124/34/4 81/112/4 128/113/4
f 82/114/6 64/32/6 84/115/6
f 52/116/6 80/117/6 55/97/6
f 125/118/4 51/119/4 121/94/4
f 53/89/6 73/120/6 49/93/6
f 68/121/2 88/122/2 70/103/2
f 127/123/1 68/124/1 123/104/1
f 69/109/2 81/125/2 61/106/2
f 98/126/2 46/108/2 42/77/2
f 99/127/6 44/88/6 43/80/6
f 103/128/6 41/129/6 47/82/6
f 131/130/5 42/77/5 119/84/5
f 140/131/3 43/80/3 138/85/3
f 101/132/2 48/133/2 45/86/2
f 104/134/3 120/135/3 48/136/3
f 173/137/1 111/28/1 165/138/1
f 171/139/4 109/21/4 163/140/4
f 48/136/3 114/141/3 18/142/3
f 170/143/5 113/49/5 167/144/5
f 40/145/3 130/146/3 89/147/3
f 25/148/3 117/149/3 40/145/3
f 168/150/5 118/63/5 169/151/5
f 18/142/3 105/152/3 8/153/3
f 167/144/5 108/10/5 176/154/5
f 166/155/4 124/34/4 174/156/4
f 165/138/1 106/13/1 162/157/1
f 164/158/1 122/27/1 172/159/1
f 163/140/4 105/23/4 161/160/4
f 162/157/5 115/15/5 168/150/5
f 176/154/4 112/12/4 166/155/4
f 7/161/3 116/162/3 25/148/3
f 175/163/1 110/3/1 164/158/1
f 5/164/1 144/165/1 12/166/1
f 2/48/4 146/167/4 15/168/4
f 1/169/5 148/170/5 26/17/5
f 9/171/4 141/172/4 6/173/4
f 12/166/1 152/174/1 52/175/1
f 14/176/1 142/177/1 1/169/1
f 15/168/4 154/178/4 67/179/4
f 17/83/5 134/180/5 2/48/5
f 26/17/5 149/181/5 33/62/5
f 33/62/5 159/182/5 90/72/5
f 41/129/5 147/183/5 17/83/5
f 49/184/4 143/185/4 9/171/4
f 52/175/1 156/186/1 78/187/1
f 62/188/1 145/189/1 14/176/1
f 67/179/4 158/190/4 85/191/4
f 73/192/4 151/193/4 49/184/4
f 82/194/1 153/195/1 62/188/1
f 97/196/5 150/197/5 41/129/5
f 186/198/3 135/50/3 183/199/3
f 184/200/3 137/64/3 185/201/3
f 187/202/3 135/50/3 141/51/3
f 181/203/3 136/9/3 184/200/3
f 107/204/3 178/205/3 116/162/3
f 114/141/3 161/206/3 105/152/3
f 116/162/3 179/207/3 117/149/3
f 120/135/3 177/208/3 114/141/3
f 221/209/1 164/158/1 216/210/1
f 222/211/4 166/155/4 218/212/4
f 214/213/5 168/150/5 220/214/5
f 215/215/4 161/160/4 213/216/4
f 217/217/1 162/157/1 214/213/1
f 219/218/5 176/154/5 222/211/5
f 153/195/1 191/219/1 145/189/1
f 151/193/4 189/220/4 143/185/4
f 150/197/5 193/221/5 147/183/5
f 148/170/5 195/222/5 149/181/5
f 134/180/5 193/221/5 182/223/5
f 146/167/4 200/224/4 154/178/4
f 145/189/1 188/225/1 142/177/1
f 144/165/1 198/226/1 152/174/1
f 143/185/4 187/227/4 141/172/4
f 142/177/5 194/228/5 148/170/5
f 134/180/4 192/229/4 146/167/4
f 133/230/1 190/231/1 144/165/1
f 209/232/3 184/200/3 212/233/3
f 201/234/3 183/199/3 187/202/3
f 182/223/5 207/235/5 210/236/5
f 191/219/1 202/237/1 188/225/1
f 189/220/4 201/238/4 187/227/4
f 188/225/5 208/239/5 194/228/5
f 182/223/4 206/240/4 192/229/4
f 181/241/1 204/242/1 190/231/1
f 175/243/3 224/244/3 178/205/3
f 177/208/3 213/245/3 161/206/3
f 107/1/1 7/246/1 10/2/1
f 10/4/2 7/247/2 25/5/2
f 133/7/3 5/19/3 28/8/3
f 108/10/4 4/40/4 13/11/4
f 106/13/5 3/29/5 27/14/5
f 14/16/6 1/169/6 26/17/6
f 5/19/6 12/96/6 29/20/6
f 109/21/4 11/95/4 8/22/4
f 50/24/2 10/4/2 30/6/2
f 110/3/1 10/2/1 50/26/1
f 111/28/1 16/105/1 3/29/1
f 3/29/2 16/102/2 31/30/2
f 62/31/6 14/16/6 32/18/6
f 112/12/4 13/11/4 61/33/4
f 63/35/6 24/47/6 15/36/6
f 19/38/2 23/78/2 13/39/2
f 54/41/2 22/52/2 11/42/2
f 20/44/6 21/81/6 9/45/6
f 24/47/6 17/83/6 2/48/6
f 113/49/5 19/38/5 4/40/5
f 135/50/3 20/44/3 6/46/3
f 22/52/2 18/87/2 8/53/2
f 64/32/6 32/18/6 39/54/6
f 27/14/2 31/30/2 38/56/2
f 56/25/2 30/6/2 37/58/2
f 28/8/6 29/20/6 36/60/6
f 32/18/6 26/17/6 33/62/6
f 115/15/5 27/14/5 34/57/5
f 136/9/3 28/8/3 35/61/3
f 30/6/2 25/5/2 40/65/2
f 37/58/2 40/65/2 89/66/2
f 137/64/3 35/61/3 92/68/3
f 118/63/5 34/57/5 91/70/5
f 39/54/6 33/62/6 90/72/6
f 35/61/6 36/60/6 93/74/6
f 34/57/2 38/56/2 95/75/2
f 66/76/6 47/82/6 24/47/6
f 42/77/2 46/108/2 23/78/2
f 60/79/2 45/86/2 22/52/2
f 43/80/6 44/88/6 21/81/6
f 47/82/6 41/129/6 17/83/6
f 119/84/5 42/77/5 19/38/5
f 138/85/3 43/80/3 20/44/3
f 45/86/2 48/133/2 18/87/2
f 44/88/6 59/248/6 53/89/6
f 29/20/6 55/97/6 58/90/6
f 75/91/2 54/41/2 51/43/2
f 21/81/6 53/89/6 49/93/6
f 121/94/4 51/119/4 11/95/4
f 12/96/6 52/116/6 55/97/6
f 122/27/1 50/26/1 74/98/1
f 74/100/2 50/24/2 56/25/2
f 16/102/2 68/121/2 70/103/2
f 123/104/1 68/124/1 16/105/1
f 23/78/2 69/109/2 61/106/2
f 31/30/2 70/103/2 71/107/2
f 46/108/2 72/249/2 69/109/2
f 83/110/6 63/35/6 67/37/6
f 124/34/4 61/33/4 81/112/4
f 82/114/6 62/31/6 64/32/6
f 52/116/6 78/250/6 80/117/6
f 125/118/4 77/251/4 51/119/4
f 53/89/6 79/252/6 73/120/6
f 68/121/2 86/253/2 88/122/2
f 127/123/1 86/254/1 68/124/1
f 69/109/2 87/255/2 81/125/2
f 98/126/2 102/256/2 46/108/2
f 99/127/6 100/257/6 44/88/6
f 103/128/6 97/196/6 41/129/6
f 131/130/5 98/126/5 42/77/5
f 140/131/3 99/127/3 43/80/3
f 101/132/2 104/258/2 48/133/2
f 104/134/3 132/259/3 120/135/3
f 173/137/1 123/104/1 111/28/1
f 171/139/4 121/94/4 109/21/4
f 48/136/3 120/135/3 114/141/3
f 170/143/5 119/84/5 113/49/5
f 40/145/3 117/149/3 130/146/3
f 25/148/3 116/162/3 117/149/3
f 168/150/5 115/15/5 118/63/5
f 18/142/3 114/141/3 105/152/3
f 167/144/5 113/49/5 108/10/5
f 166/155/4 112/12/4 124/34/4
f 165/138/1 111/28/1 106/13/1
f 164/158/1 110/3/1 122/27/1
f 163/140/4 109/21/4 105/23/4
f 162/157/5 106/13/5 115/15/5
f 176/154/4 108/10/4 112/12/4
f 7/161/3 107/204/3 116/162/3
f 175/163/1 107/1/1 110/3/1
f 5/164/1 133/230/1 144/165/1
f 2/48/4 134/180/4 146/167/4
f 1/169/5 142/177/5 148/170/5
f 9/171/4 143/185/4 141/172/4
f 12/166/1 144/165/1 152/174/1
f 14/176/1 145/189/1 142/177/1
f 15/168/4 146/167/4 154/178/4
f 17/83/5 147/183/5 134/180/5
f 26/17/5 148/170/5 149/181/5
f 33/62/5 149/181/5 159/182/5
f 41/129/5 150/197/5 147/183/5
f 49/184/4 151/193/4 143/185/4
f 52/175/1 152/174/1 156/186/1
f 62/188/1 153/195/1 145/189/1
f 67/179/4 154/178/4 158/190/4
f 73/192/4 155/260/4 151/193/4
f 82/194/1 157/261/1 153/195/1
f 97/196/5 160/262/5 150/197/5
f 186/198/3 138/85/3 135/50/3
f 184/200/3 136/9/3 137/64/3
f 187/202/3 183/199/3 135/50/3
f 181/203/3 133/7/3 136/9/3
f 107/204/3 175/243/3 178/205/3
f 114/141/3 177/208/3 161/206/3
f 116/162/3 178/205/3 179/207/3
f 120/135/3 180/263/3 177/208/3
f 221/209/1 175/163/1 164/158/1
f 222/211/4 176/154/4 166/155/4
f 214/213/5 162/157/5 168/150/5
f 215/215/4 163/140/4 161/160/4
f 217/217/1 165/138/1 162/157/1
f 219/218/5 167/144/5 176/154/5
f 153/195/1 199/264/1 191/219/1
f 151/193/4 197/265/4 189/220/4
f 150/197/5 196/266/5 193/221/5
f 148/170/5 194/228/5 195/222/5
f 134/180/5 147/183/5 193/221/5
f 146/167/4 192/229/4 200/224/4
f 145/189/1 191/219/1 188/225/1
f 144/165/1 190/231/1 198/226/1
f 143/185/4 189/220/4 187/227/4
f 142/177/5 188/225/5 194/228/5
f 134/180/4 182/223/4 192/229/4
f 133/230/1 181/241/1 190/231/1
f 209/232/3 181/203/3 184/200/3
f 201/234/3 211/267/3 183/199/3
f 182/223/5 193/221/5 207/235/5
f 191/219/1 205/268/1 202/237/1
f 189/220/4 203/269/4 201/238/4
f 188/225/5 202/237/5 208/239/5
f 182/223/4 210/236/4 206/240/4
f 181/241/1 209/270/1 204/242/1
f 175/243/3 221/271/3 224/244/3
f 177/208/3 223/272/3 213/245/3
