# Blender v3.1.2 OBJ File: ''
# www.blender.org
mtllib command_block(b).mtl
o Cube.003
v 0.152473 0.002937 0.500000
v 0.152473 0.002937 -0.500000
v -0.146978 0.002937 -0.500000
v -0.146978 0.002937 0.500000
v 0.002747 0.152733 -0.500000
v 0.002747 0.152733 0.500000
v 0.152473 0.152733 0.500000
v 0.152473 0.152733 -0.500000
v -0.146978 0.152733 -0.500000
v -0.146978 0.152733 0.500000
v 0.002747 -0.146860 -0.500000
v 0.002747 -0.146860 0.500000
v 0.152473 -0.146860 0.500000
v 0.152473 -0.146860 -0.500000
v -0.146978 -0.146860 -0.500000
v -0.146978 -0.146860 0.500000
v -0.500000 0.002937 0.151838
v -0.500000 0.152733 0.151838
v -0.500000 -0.146860 0.151838
v 0.002747 -0.500000 0.151838
v 0.002747 0.500000 0.151838
v 0.152473 0.500000 0.151838
v 0.152473 -0.500000 0.151838
v -0.146978 -0.500000 0.151838
v -0.146978 0.500000 0.151838
v 0.500000 0.002937 0.151838
v 0.500000 0.152733 0.151838
v 0.500000 -0.146860 0.151838
v -0.500000 0.002937 -0.142142
v -0.500000 0.152733 -0.142142
v -0.500000 -0.146860 -0.142142
v 0.002747 -0.500000 -0.142142
v 0.002747 0.500000 -0.142142
v 0.152473 0.500000 -0.142142
v 0.152473 -0.500000 -0.142142
v -0.146978 -0.500000 -0.142142
v -0.146978 0.500000 -0.142142
v 0.500000 0.002937 -0.142142
v 0.500000 0.152733 -0.142142
v 0.500000 -0.146860 -0.142142
v 0.152473 0.500000 0.004848
v 0.152473 -0.500000 0.004848
v -0.146978 -0.500000 0.004848
v -0.146978 0.500000 0.004848
v 0.500000 0.152733 0.004848
v 0.500000 -0.146860 0.004848
v -0.500000 0.152733 0.004848
v -0.500000 -0.146860 0.004848
v 0.092711 0.092972 0.500000
v 0.092711 0.002937 0.500000
v 0.092711 0.092972 -0.500000
v 0.092711 0.002937 -0.500000
v -0.087217 0.092972 -0.500000
v -0.087217 0.002937 -0.500000
v -0.087217 0.092972 0.500000
v -0.087217 0.002937 0.500000
v 0.002747 0.092972 0.500000
v 0.002747 0.092972 -0.500000
v 0.092711 -0.087099 0.500000
v 0.092711 -0.087099 -0.500000
v -0.087217 -0.087099 -0.500000
v -0.087217 -0.087099 0.500000
v 0.002747 -0.087099 -0.500000
v 0.002747 -0.087099 0.500000
v 0.092711 0.500000 0.004848
v 0.092711 0.500000 0.092077
v 0.092711 -0.500000 0.004848
v 0.092711 -0.500000 0.092077
v -0.087217 -0.500000 0.004848
v -0.087217 -0.500000 0.092077
v -0.087217 0.500000 0.004848
v -0.087217 0.500000 0.092077
v 0.500000 0.092972 0.004848
v 0.500000 0.092972 0.092077
v 0.500000 -0.087099 0.004848
v 0.500000 -0.087099 0.092077
v 0.002747 -0.500000 0.092077
v 0.002747 0.500000 0.092077
v 0.500000 0.002937 0.092077
v -0.500000 0.002937 0.092077
v -0.500000 -0.087099 0.092077
v -0.500000 0.092972 0.092077
v -0.500000 0.092972 0.004848
v -0.500000 0.092972 -0.082381
v -0.500000 -0.087099 0.004848
v -0.500000 -0.087099 -0.082381
v 0.500000 0.092972 -0.082381
v 0.500000 0.002937 -0.082381
v 0.500000 -0.087099 -0.082381
v -0.087217 0.500000 -0.082381
v 0.002747 0.500000 -0.082381
v 0.092711 -0.500000 -0.082381
v 0.002747 -0.500000 -0.082381
v 0.092711 0.500000 -0.082381
v -0.087217 -0.500000 -0.082381
v -0.500000 0.002937 -0.082381
v 0.002747 0.002937 -0.500000
v 0.002747 0.002937 0.500000
v 0.002747 -0.500000 0.004848
v 0.002747 0.500000 0.004848
v 0.500000 0.002937 0.004848
v -0.500000 0.002937 0.004848
v 0.092711 0.002937 0.500000
v 0.092711 0.002937 -0.500000
v -0.087217 0.002937 -0.500000
v -0.087217 0.002937 0.500000
v 0.002747 0.092972 0.500000
v 0.002747 0.092972 -0.500000
v 0.002747 -0.087099 -0.500000
v 0.002747 -0.087099 0.500000
v 0.092711 0.500000 0.004848
v 0.092711 -0.500000 0.004848
v -0.087217 -0.500000 0.004848
v -0.087217 0.500000 0.004848
v 0.500000 0.092972 0.004848
v 0.500000 -0.087099 0.004848
v 0.002747 -0.500000 0.092077
v 0.002747 0.500000 0.092077
v 0.500000 0.002937 0.092077
v -0.500000 0.002937 0.092077
v -0.500000 0.092972 0.004848
v -0.500000 -0.087099 0.004848
v 0.500000 0.002937 -0.082381
v 0.002747 0.500000 -0.082381
v 0.002747 -0.500000 -0.082381
v -0.500000 0.002937 -0.082381
v 0.002747 -0.042081 -0.500000
v -0.087217 -0.042081 -0.500000
v 0.002747 0.047954 0.500000
v -0.087217 0.047954 0.500000
v 0.047729 0.002937 0.500000
v 0.047729 0.092972 0.500000
v 0.047729 0.047954 0.500000
v -0.042235 0.002937 -0.500000
v -0.042235 0.092972 -0.500000
v -0.042235 -0.042081 -0.500000
v -0.500000 0.002937 -0.038766
v -0.500000 -0.087099 -0.038766
v 0.500000 0.002937 0.048462
v 0.500000 -0.087099 0.048462
v -0.500000 -0.042081 0.092077
v -0.500000 -0.042081 0.004848
v -0.500000 -0.042081 -0.038766
v -0.500000 0.047954 -0.082381
v -0.500000 0.047954 0.004848
v -0.500000 0.047954 -0.038766
v -0.042235 0.500000 0.092077
v -0.042235 0.500000 0.004848
v 0.002747 0.500000 -0.038766
v -0.087217 0.500000 -0.038766
v -0.042235 0.500000 -0.038766
v 0.047729 0.500000 -0.082381
v 0.047729 0.500000 0.004848
v 0.047729 0.500000 -0.038766
v 0.002747 0.500000 0.048462
v 0.092711 0.500000 0.048462
v -0.042235 0.500000 0.048462
v 0.047729 0.500000 0.048462
v 0.002747 -0.042081 0.500000
v 0.092711 -0.042081 0.500000
v 0.047729 -0.042081 0.500000
v -0.042235 0.002937 0.500000
v -0.042235 -0.087099 0.500000
v -0.042235 0.047954 0.500000
v -0.042235 -0.042081 0.500000
v 0.002747 0.047954 -0.500000
v 0.092711 0.047954 -0.500000
v -0.042235 0.047954 -0.500000
v 0.047729 0.002937 -0.500000
v 0.047729 -0.087099 -0.500000
v 0.047729 -0.042081 -0.500000
v 0.047729 0.047954 -0.500000
v 0.500000 0.047954 0.092077
v 0.500000 0.047954 0.004848
v 0.500000 0.047954 0.048462
v 0.500000 -0.042081 -0.082381
v 0.500000 -0.042081 0.004848
v 0.500000 -0.042081 0.048462
v 0.500000 0.002937 -0.038766
v 0.500000 0.092972 -0.038766
v 0.500000 0.047954 -0.038766
v 0.500000 -0.042081 -0.038766
v -0.500000 0.002937 0.048462
v -0.500000 0.092972 0.048462
v -0.500000 -0.042081 0.048462
v -0.500000 0.047954 0.048462
v 0.002747 -0.500000 0.048462
v -0.087217 -0.500000 0.048462
v 0.002747 -0.500000 -0.038766
v 0.092711 -0.500000 -0.038766
v 0.047729 -0.500000 0.092077
v 0.047729 -0.500000 0.004848
v 0.047729 -0.500000 0.048462
v 0.047729 -0.500000 -0.038766
v -0.042235 -0.500000 -0.082381
v -0.042235 -0.500000 0.004848
v -0.042235 -0.500000 0.048462
v -0.042235 -0.500000 -0.038766
vt 0.523243 0.398178
vt 0.500734 0.413118
vt 0.500734 0.398178
vt 0.523243 0.896804
vt 0.500734 0.911744
vt 0.500734 0.896804
vt 0.523243 0.851822
vt 0.538183 0.874313
vt 0.523243 0.874313
vt 0.523243 0.353196
vt 0.538183 0.375687
vt 0.523243 0.375687
vt 0.478225 0.851822
vt 0.500734 0.836882
vt 0.500734 0.851822
vt 0.478225 0.353196
vt 0.500734 0.338255
vt 0.500734 0.353196
vt 0.478225 0.398178
vt 0.463285 0.375687
vt 0.478225 0.375687
vt 0.478225 0.896804
vt 0.463285 0.874313
vt 0.478225 0.874313
vt 0.726822 0.648019
vt 0.711882 0.626212
vt 0.726822 0.626212
vt 0.228196 0.648019
vt 0.213255 0.626212
vt 0.228196 0.626212
vt 0.478225 0.648019
vt 0.463285 0.626212
vt 0.478225 0.626212
vt 0.273178 0.648019
vt 0.250687 0.662959
vt 0.250687 0.648019
vt 0.771804 0.648019
vt 0.749313 0.662959
vt 0.749313 0.648019
vt 0.523243 0.648019
vt 0.500734 0.662959
vt 0.500734 0.648019
vt 0.478225 0.101981
vt 0.500734 0.087041
vt 0.500734 0.101981
vt 0.478225 0.145595
vt 0.463285 0.123788
vt 0.478225 0.123788
vt 0.478225 0.604405
vt 0.500734 0.589465
vt 0.500734 0.604405
vt 0.726822 0.604405
vt 0.749313 0.589465
vt 0.749313 0.604405
vt 0.228196 0.604405
vt 0.250687 0.589465
vt 0.250687 0.604405
vt 0.523243 0.145595
vt 0.500734 0.160535
vt 0.500734 0.145595
vt 0.273178 0.604405
vt 0.288118 0.626212
vt 0.273178 0.626212
vt 0.771804 0.604405
vt 0.786744 0.626212
vt 0.771804 0.626212
vt 0.523243 0.604405
vt 0.538183 0.626212
vt 0.523243 0.626212
vt 0.523243 0.101981
vt 0.538183 0.123788
vt 0.523243 0.123788
vt 0.500734 0.863068
vt 0.489480 0.874313
vt 0.489480 0.863068
vt 0.500734 0.364441
vt 0.489480 0.375687
vt 0.489480 0.364441
vt 0.511989 0.863068
vt 0.523243 0.874313
vt 0.511989 0.874313
vt 0.511989 0.364441
vt 0.523243 0.375687
vt 0.511989 0.375687
vt 0.511989 0.112884
vt 0.523243 0.123788
vt 0.511989 0.123788
vt 0.500734 0.112884
vt 0.489480 0.123788
vt 0.489480 0.112884
vt 0.511989 0.615308
vt 0.523243 0.626212
vt 0.511989 0.626212
vt 0.500734 0.615308
vt 0.489480 0.626212
vt 0.489480 0.615308
vt 0.771804 0.615308
vt 0.760559 0.626212
vt 0.760559 0.615308
vt 0.261932 0.615308
vt 0.273178 0.626212
vt 0.261932 0.626212
vt 0.749313 0.615308
vt 0.738068 0.626212
vt 0.738068 0.615308
vt 0.250687 0.615308
vt 0.239441 0.626212
vt 0.239441 0.615308
vt 0.500734 0.874313
vt 0.511989 0.885559
vt 0.500734 0.896804
vt 0.500734 0.885559
vt 0.500734 0.851822
vt 0.489480 0.851822
vt 0.500734 0.353196
vt 0.489480 0.353196
vt 0.500734 0.134692
vt 0.489480 0.134692
vt 0.500734 0.637115
vt 0.489480 0.637115
vt 0.478225 0.123788
vt 0.478225 0.134692
vt 0.500734 0.123788
vt 0.511989 0.134692
vt 0.500734 0.145595
vt 0.749313 0.626212
vt 0.760559 0.637116
vt 0.749313 0.648019
vt 0.749313 0.637115
vt 0.749313 0.604405
vt 0.738068 0.604405
vt 0.726822 0.626212
vt 0.738068 0.637116
vt 0.726822 0.637115
vt 0.478225 0.874313
vt 0.489480 0.885559
vt 0.478225 0.885559
vt 0.500734 0.375687
vt 0.511989 0.386932
vt 0.500734 0.398178
vt 0.500734 0.386932
vt 0.478225 0.375687
vt 0.489480 0.386932
vt 0.478225 0.386932
vt 0.500734 0.626212
vt 0.511989 0.637115
vt 0.500734 0.648019
vt 0.478225 0.626212
vt 0.478225 0.637115
vt 0.500734 0.604405
vt 0.489480 0.604405
vt 0.500734 0.101981
vt 0.489480 0.101981
vt 0.250687 0.626212
vt 0.239441 0.637115
vt 0.250687 0.604405
vt 0.239441 0.604405
vt 0.250687 0.637115
vt 0.261932 0.637115
vt 0.250687 0.648019
vt 0.228196 0.637115
vt 0.228196 0.626212
vt 0.538183 0.413118
vt 0.538183 0.911744
vt 0.538183 0.836882
vt 0.538183 0.338255
vt 0.463285 0.836882
vt 0.463285 0.338255
vt 0.463285 0.413118
vt 0.463285 0.911744
vt 0.711882 0.662959
vt 0.213255 0.662959
vt 0.463285 0.662959
vt 0.288118 0.662959
vt 0.786744 0.662959
vt 0.538183 0.662959
vt 0.463285 0.087041
vt 0.463285 0.160535
vt 0.463285 0.589465
vt 0.711882 0.589465
vt 0.213256 0.589465
vt 0.538183 0.160535
vt 0.288118 0.589465
vt 0.786744 0.589465
vt 0.538183 0.589465
vt 0.538183 0.087041
vt 0.523243 0.863068
vt 0.523243 0.364441
vt 0.523243 0.112884
vt 0.523243 0.615308
vt 0.771804 0.626212
vt 0.273178 0.615308
vt 0.511989 0.896804
vt 0.511989 0.145595
vt 0.760559 0.648019
vt 0.511989 0.398178
vt 0.511989 0.648019
vt 0.261932 0.648019
vn 0.0000 0.0000 -1.0000
vn 0.0000 0.0000 1.0000
vn 0.0000 1.0000 0.0000
vn 0.0000 -1.0000 0.0000
vn 1.0000 0.0000 0.0000
vn -1.0000 0.0000 0.0000
usemtl Material.003
s off
f 51/1/1 2/2/1 52/3/1
f 55/4/2 4/5/2 56/6/2
f 49/7/2 6/8/2 57/9/2
f 53/10/1 5/11/1 58/12/1
f 59/13/2 1/14/2 50/15/2
f 61/16/1 3/17/1 54/18/1
f 60/19/1 11/20/1 63/21/1
f 62/22/2 12/23/2 64/24/2
f 66/25/3 41/26/3 65/27/3
f 70/28/4 43/29/4 69/30/4
f 76/31/5 46/32/5 75/33/5
f 68/34/4 20/35/4 77/36/4
f 72/37/3 21/38/3 78/39/3
f 74/40/5 26/41/5 79/42/5
f 81/43/6 17/44/6 80/45/6
f 86/46/6 48/47/6 85/48/6
f 89/49/5 38/50/5 88/51/5
f 94/52/3 33/53/3 91/54/3
f 95/55/4 32/56/4 93/57/4
f 84/58/6 29/59/6 96/60/6
f 92/61/4 42/62/4 67/63/4
f 90/64/3 44/65/3 71/66/3
f 87/67/5 45/68/5 73/69/5
f 82/70/6 47/71/6 83/72/6
f 131/73/2 159/74/2 161/75/2
f 134/76/1 127/77/1 136/78/1
f 133/79/2 107/80/2 129/81/2
f 168/82/1 108/83/1 166/84/1
f 186/85/6 121/86/6 145/87/6
f 183/88/6 142/89/6 185/90/6
f 181/91/5 115/92/5 174/93/5
f 179/94/5 177/95/5 182/96/5
f 150/97/3 148/98/3 151/99/3
f 194/100/4 112/101/4 192/102/4
f 149/103/3 153/104/3 154/105/3
f 189/106/4 196/107/4 198/108/4
f 133/79/2 98/109/2 131/73/2
f 164/110/2 106/111/2 162/112/2
f 103/113/2 161/75/2 160/114/2
f 105/115/1 136/78/1 128/116/1
f 142/89/6 137/117/6 143/118/6
f 177/95/5 139/119/5 178/120/5
f 122/121/6 143/118/6 138/122/6
f 145/87/6 137/117/6 102/123/6
f 183/88/6 145/87/6 102/123/6
f 146/124/6 126/125/6 137/117/6
f 151/99/3 100/126/3 149/103/3
f 157/127/3 118/128/3 155/129/3
f 124/130/3 154/105/3 152/131/3
f 111/132/3 158/133/3 156/134/3
f 148/98/3 155/129/3 100/126/3
f 100/126/3 158/133/3 153/104/3
f 110/135/2 165/136/2 163/137/2
f 129/81/2 162/112/2 98/109/2
f 159/74/2 162/112/2 165/136/2
f 134/76/1 166/84/1 97/138/1
f 172/139/1 104/140/1 169/141/1
f 166/84/1 169/141/1 97/138/1
f 109/142/1 171/143/1 170/144/1
f 127/77/1 169/141/1 171/143/1
f 174/93/5 139/119/5 101/145/5
f 179/94/5 174/93/5 101/145/5
f 175/146/5 119/147/5 139/119/5
f 116/148/5 178/120/5 140/149/5
f 123/150/5 182/96/5 176/151/5
f 120/152/6 185/90/6 141/153/6
f 99/154/4 197/155/4 196/107/4
f 125/156/4 198/108/4 195/157/4
f 192/102/4 187/158/4 99/154/4
f 194/100/4 99/154/4 189/106/4
f 193/159/4 117/160/4 187/158/4
f 196/107/4 188/161/4 113/162/4
f 51/1/1 8/163/1 2/2/1
f 55/4/2 10/164/2 4/5/2
f 49/7/2 7/165/2 6/8/2
f 53/10/1 9/166/1 5/11/1
f 59/13/2 13/167/2 1/14/2
f 61/16/1 15/168/1 3/17/1
f 60/19/1 14/169/1 11/20/1
f 62/22/2 16/170/2 12/23/2
f 66/25/3 22/171/3 41/26/3
f 70/28/4 24/172/4 43/29/4
f 76/31/5 28/173/5 46/32/5
f 68/34/4 23/174/4 20/35/4
f 72/37/3 25/175/3 21/38/3
f 74/40/5 27/176/5 26/41/5
f 81/43/6 19/177/6 17/44/6
f 86/46/6 31/178/6 48/47/6
f 89/49/5 40/179/5 38/50/5
f 94/52/3 34/180/3 33/53/3
f 95/55/4 36/181/4 32/56/4
f 84/58/6 30/182/6 29/59/6
f 92/61/4 35/183/4 42/62/4
f 90/64/3 37/184/3 44/65/3
f 87/67/5 39/185/5 45/68/5
f 82/70/6 18/186/6 47/71/6
f 131/73/2 98/109/2 159/74/2
f 134/76/1 97/138/1 127/77/1
f 133/79/2 132/187/2 107/80/2
f 168/82/1 135/188/1 108/83/1
f 186/85/6 184/189/6 121/86/6
f 183/88/6 102/123/6 142/89/6
f 181/91/5 180/190/5 115/92/5
f 179/94/5 101/145/5 177/95/5
f 150/97/3 114/191/3 148/98/3
f 194/100/4 190/192/4 112/101/4
f 149/103/3 100/126/3 153/104/3
f 189/106/4 99/154/4 196/107/4
f 133/79/2 129/81/2 98/109/2
f 164/110/2 130/193/2 106/111/2
f 103/113/2 131/73/2 161/75/2
f 105/115/1 134/76/1 136/78/1
f 142/89/6 102/123/6 137/117/6
f 177/95/5 101/145/5 139/119/5
f 122/121/6 142/89/6 143/118/6
f 145/87/6 146/124/6 137/117/6
f 183/88/6 186/85/6 145/87/6
f 146/124/6 144/194/6 126/125/6
f 151/99/3 148/98/3 100/126/3
f 157/127/3 147/195/3 118/128/3
f 124/130/3 149/103/3 154/105/3
f 111/132/3 153/104/3 158/133/3
f 148/98/3 157/127/3 155/129/3
f 100/126/3 155/129/3 158/133/3
f 110/135/2 159/74/2 165/136/2
f 129/81/2 164/110/2 162/112/2
f 159/74/2 98/109/2 162/112/2
f 134/76/1 168/82/1 166/84/1
f 172/139/1 167/196/1 104/140/1
f 166/84/1 172/139/1 169/141/1
f 109/142/1 127/77/1 171/143/1
f 127/77/1 97/138/1 169/141/1
f 174/93/5 175/146/5 139/119/5
f 179/94/5 181/91/5 174/93/5
f 175/146/5 173/197/5 119/147/5
f 116/148/5 177/95/5 178/120/5
f 123/150/5 179/94/5 182/96/5
f 120/152/6 183/88/6 185/90/6
f 99/154/4 187/158/4 197/155/4
f 125/156/4 189/106/4 198/108/4
f 192/102/4 193/159/4 187/158/4
f 194/100/4 192/102/4 99/154/4
f 193/159/4 191/198/4 117/160/4
f 196/107/4 197/155/4 188/161/4
