# Blender v3.1.2 OBJ File: ''
# www.blender.org
mtllib command_block(w).mtl
o Cube.002
v 0.152473 0.002937 0.500000
v 0.152473 0.002937 -0.500000
v -0.146978 0.002937 -0.500000
v -0.146978 0.002937 0.500000
v 0.002747 0.152733 -0.500000
v 0.002747 0.152733 0.500000
v 0.152473 0.152733 0.500000
v 0.152473 0.152733 -0.500000
v -0.146978 0.152733 -0.500000
v -0.146978 0.152733 0.500000
v 0.002747 -0.146860 -0.500000
v 0.002747 -0.146860 0.500000
v 0.152473 -0.146860 0.500000
v 0.152473 -0.146860 -0.500000
v -0.146978 -0.146860 -0.500000
v -0.146978 -0.146860 0.500000
v -0.500000 0.002937 0.151838
v -0.500000 0.152733 0.151838
v -0.500000 -0.146860 0.151838
v 0.002747 -0.500000 0.151838
v 0.002747 0.500000 0.151838
v 0.152473 0.500000 0.151838
v 0.152473 -0.500000 0.151838
v -0.146978 -0.500000 0.151838
v -0.146978 0.500000 0.151838
v 0.500000 0.002937 0.151838
v 0.500000 0.152733 0.151838
v 0.500000 -0.146860 0.151838
v -0.500000 0.002937 -0.142142
v -0.500000 0.152733 -0.142142
v -0.500000 -0.146860 -0.142142
v 0.002747 -0.500000 -0.142142
v 0.002747 0.500000 -0.142142
v 0.152473 0.500000 -0.142142
v 0.152473 -0.500000 -0.142142
v -0.146978 -0.500000 -0.142142
v -0.146978 0.500000 -0.142142
v 0.500000 0.002937 -0.142142
v 0.500000 0.152733 -0.142142
v 0.500000 -0.146860 -0.142142
v 0.152473 0.500000 0.004848
v 0.152473 -0.500000 0.004848
v -0.146978 -0.500000 0.004848
v -0.146978 0.500000 0.004848
v 0.500000 0.152733 0.004848
v 0.500000 -0.146860 0.004848
v -0.500000 0.152733 0.004848
v -0.500000 -0.146860 0.004848
v 0.092711 0.092972 0.500000
v 0.092711 0.002937 0.500000
v 0.092711 0.092972 -0.500000
v 0.092711 0.002937 -0.500000
v -0.087217 0.092972 -0.500000
v -0.087217 0.002937 -0.500000
v -0.087217 0.092972 0.500000
v -0.087217 0.002937 0.500000
v 0.002747 0.092972 0.500000
v 0.002747 0.092972 -0.500000
v 0.092711 -0.087099 0.500000
v 0.092711 -0.087099 -0.500000
v -0.087217 -0.087099 -0.500000
v -0.087217 -0.087099 0.500000
v 0.002747 -0.087099 -0.500000
v 0.002747 -0.087099 0.500000
v 0.092711 0.500000 0.004848
v 0.092711 0.500000 0.092077
v 0.092711 -0.500000 0.004848
v 0.092711 -0.500000 0.092077
v -0.087217 -0.500000 0.004848
v -0.087217 -0.500000 0.092077
v -0.087217 0.500000 0.004848
v -0.087217 0.500000 0.092077
v 0.500000 0.092972 0.004848
v 0.500000 0.092972 0.092077
v 0.500000 -0.087099 0.004848
v 0.500000 -0.087099 0.092077
v 0.002747 -0.500000 0.092077
v 0.002747 0.500000 0.092077
v 0.500000 0.002937 0.092077
v -0.500000 0.002937 0.092077
v -0.500000 -0.087099 0.092077
v -0.500000 0.092972 0.092077
v -0.500000 0.092972 0.004848
v -0.500000 0.092972 -0.082381
v -0.500000 -0.087099 0.004848
v -0.500000 -0.087099 -0.082381
v 0.500000 0.092972 -0.082381
v 0.500000 0.002937 -0.082381
v 0.500000 -0.087099 -0.082381
v -0.087217 0.500000 -0.082381
v 0.002747 0.500000 -0.082381
v 0.092711 -0.500000 -0.082381
v 0.002747 -0.500000 -0.082381
v 0.092711 0.500000 -0.082381
v -0.087217 -0.500000 -0.082381
v -0.500000 0.002937 -0.082381
v 0.002747 -0.042081 -0.500000
v 0.092711 -0.042081 -0.500000
v -0.087217 -0.042081 -0.500000
v 0.152473 -0.071962 -0.500000
v 0.002747 0.047954 0.500000
v 0.092711 0.047954 0.500000
v -0.087217 0.047954 0.500000
v 0.152473 0.077835 0.500000
v 0.047729 0.002937 0.500000
v 0.047729 0.092972 0.500000
v 0.047729 -0.087099 0.500000
v 0.077610 -0.146860 0.500000
v 0.047729 0.047954 0.500000
v -0.042235 0.002937 -0.500000
v -0.042235 0.092972 -0.500000
v -0.042235 -0.087099 -0.500000
v -0.072115 -0.146860 -0.500000
v -0.042235 -0.042081 -0.500000
v -0.500000 0.002937 -0.038766
v -0.500000 0.092972 -0.038766
v -0.500000 -0.087099 -0.038766
v -0.500000 0.152733 -0.068647
v 0.500000 0.002937 0.048462
v 0.500000 0.092972 0.048462
v 0.500000 -0.087099 0.048462
v 0.500000 0.152733 0.078343
v -0.500000 -0.042081 0.092077
v -0.500000 -0.042081 -0.082381
v -0.500000 -0.042081 0.004848
v -0.500000 -0.071962 -0.142142
v -0.500000 -0.042081 -0.038766
v -0.500000 0.047954 0.092077
v -0.500000 0.047954 -0.082381
v -0.500000 0.047954 0.004848
v -0.500000 0.077835 0.151838
v -0.500000 0.047954 -0.038766
v -0.042235 0.500000 0.092077
v -0.042235 0.500000 -0.082381
v -0.042235 0.500000 0.004848
v -0.072115 0.500000 -0.142142
v 0.002747 0.500000 -0.038766
v 0.092711 0.500000 -0.038766
v -0.087217 0.500000 -0.038766
v 0.152473 0.500000 -0.068647
v -0.042235 0.500000 -0.038766
v 0.047729 0.500000 0.092077
v 0.047729 0.500000 -0.082381
v 0.047729 0.500000 0.004848
v 0.077610 0.500000 0.151838
v 0.047729 0.500000 -0.038766
v 0.002747 0.500000 0.048462
v 0.092711 0.500000 0.048462
v -0.087217 0.500000 0.048462
v -0.146978 0.500000 0.078343
v -0.042235 0.500000 0.048462
v 0.047729 0.500000 0.048462
v 0.002747 -0.042081 0.500000
v 0.092711 -0.042081 0.500000
v -0.087217 -0.042081 0.500000
v -0.146978 -0.071962 0.500000
v 0.047729 -0.042081 0.500000
v -0.042235 0.002937 0.500000
v -0.042235 0.092972 0.500000
v -0.042235 -0.087099 0.500000
v -0.072115 0.152733 0.500000
v -0.042235 0.047954 0.500000
v -0.042235 -0.042081 0.500000
v 0.002747 0.047954 -0.500000
v 0.092711 0.047954 -0.500000
v -0.087217 0.047954 -0.500000
v -0.146978 0.077835 -0.500000
v -0.042235 0.047954 -0.500000
v 0.047729 0.002937 -0.500000
v 0.047729 0.092972 -0.500000
v 0.047729 -0.087099 -0.500000
v 0.077610 0.152733 -0.500000
v 0.047729 -0.042081 -0.500000
v 0.047729 0.047954 -0.500000
v 0.500000 0.047954 0.092077
v 0.500000 0.047954 -0.082381
v 0.500000 0.047954 0.004848
v 0.500000 0.077835 -0.142142
v 0.500000 0.047954 0.048462
v 0.500000 -0.042081 0.092077
v 0.500000 -0.042081 -0.082381
v 0.500000 -0.042081 0.004848
v 0.500000 -0.071962 0.151838
v 0.500000 -0.042081 0.048462
v 0.500000 0.002937 -0.038766
v 0.500000 0.092972 -0.038766
v 0.500000 -0.087099 -0.038766
v 0.500000 -0.146860 -0.068647
v 0.500000 0.047954 -0.038766
v 0.500000 -0.042081 -0.038766
v -0.500000 0.002937 0.048462
v -0.500000 0.092972 0.048462
v -0.500000 -0.087099 0.048462
v -0.500000 -0.146860 0.078343
v -0.500000 -0.042081 0.048462
v -0.500000 0.047954 0.048462
v 0.002747 -0.500000 0.048462
v 0.092711 -0.500000 0.048462
v -0.087217 -0.500000 0.048462
v 0.152473 -0.500000 0.078343
v 0.002747 -0.500000 -0.038766
v 0.092711 -0.500000 -0.038766
v -0.087217 -0.500000 -0.038766
v -0.146978 -0.500000 -0.068647
v 0.047729 -0.500000 0.092077
v 0.047729 -0.500000 -0.082381
v 0.047729 -0.500000 0.004848
v 0.077610 -0.500000 -0.142142
v 0.047729 -0.500000 0.048462
v 0.047729 -0.500000 -0.038766
v -0.042235 -0.500000 0.092077
v -0.042235 -0.500000 -0.082381
v -0.042235 -0.500000 0.004848
v -0.072115 -0.500000 0.151838
v -0.042235 -0.500000 0.048462
v -0.042235 -0.500000 -0.038766
vt 0.489480 0.885559
vt 0.500734 0.896804
vt 0.489480 0.896804
vt 0.489480 0.386932
vt 0.500734 0.398178
vt 0.489480 0.398178
vt 0.523243 0.885559
vt 0.511989 0.896804
vt 0.511989 0.885559
vt 0.523243 0.386932
vt 0.511989 0.398178
vt 0.511989 0.386932
vt 0.239441 0.637115
vt 0.250687 0.648019
vt 0.239441 0.648019
vt 0.738068 0.637116
vt 0.749313 0.648019
vt 0.738068 0.648019
vt 0.273178 0.637115
vt 0.261932 0.648019
vt 0.261932 0.637115
vt 0.771804 0.637115
vt 0.760559 0.648019
vt 0.760559 0.637116
vt 0.489480 0.637115
vt 0.500734 0.648019
vt 0.489480 0.648019
vt 0.523243 0.637115
vt 0.511989 0.648019
vt 0.511989 0.637115
vt 0.489480 0.134692
vt 0.500734 0.145595
vt 0.489480 0.145595
vt 0.511989 0.134692
vt 0.523243 0.145595
vt 0.511989 0.145595
vt 0.511989 0.851822
vt 0.500734 0.836882
vt 0.519459 0.836882
vt 0.511989 0.353196
vt 0.500734 0.338255
vt 0.519459 0.338255
vt 0.538183 0.874313
vt 0.538183 0.893029
vt 0.538183 0.375687
vt 0.538183 0.394402
vt 0.500734 0.413118
vt 0.482010 0.413118
vt 0.500734 0.911744
vt 0.482010 0.911744
vt 0.478225 0.364441
vt 0.463285 0.375687
vt 0.463285 0.356971
vt 0.478225 0.863068
vt 0.463285 0.874313
vt 0.463285 0.855598
vt 0.288118 0.626212
vt 0.288118 0.644586
vt 0.786744 0.626212
vt 0.786744 0.644586
vt 0.538183 0.626212
vt 0.538183 0.644586
vt 0.250687 0.662959
vt 0.231971 0.662959
vt 0.749313 0.662959
vt 0.730597 0.662959
vt 0.500734 0.662959
vt 0.482010 0.662959
vt 0.511989 0.101981
vt 0.500734 0.087041
vt 0.519459 0.087041
vt 0.523243 0.134692
vt 0.538183 0.123788
vt 0.538183 0.142162
vt 0.511989 0.604405
vt 0.500734 0.589465
vt 0.519459 0.589465
vt 0.760559 0.604405
vt 0.749313 0.589465
vt 0.768029 0.589465
vt 0.261932 0.604405
vt 0.250687 0.589465
vt 0.269402 0.589465
vt 0.500734 0.160535
vt 0.482010 0.160535
vt 0.726822 0.615308
vt 0.711882 0.626212
vt 0.711882 0.607838
vt 0.228196 0.615308
vt 0.213255 0.626212
vt 0.213255 0.607838
vt 0.478225 0.615308
vt 0.463285 0.626212
vt 0.463285 0.607838
vt 0.478225 0.112884
vt 0.463285 0.123788
vt 0.463285 0.105414
vt 0.478225 0.398178
vt 0.463285 0.413118
vt 0.489480 0.364441
vt 0.478225 0.375687
vt 0.478225 0.386932
vt 0.523243 0.851822
vt 0.538183 0.836882
vt 0.500734 0.851822
vt 0.511989 0.863068
vt 0.500734 0.863068
vt 0.478225 0.851822
vt 0.463285 0.836882
vt 0.489480 0.353196
vt 0.478225 0.353196
vt 0.463285 0.338255
vt 0.523243 0.353196
vt 0.511989 0.364441
vt 0.538183 0.160535
vt 0.523243 0.123788
vt 0.511989 0.123788
vt 0.523243 0.648019
vt 0.538183 0.662959
vt 0.523243 0.626212
vt 0.511989 0.626212
vt 0.478225 0.145595
vt 0.463285 0.160535
vt 0.489480 0.112884
vt 0.478225 0.123788
vt 0.478225 0.134692
vt 0.523243 0.101981
vt 0.538183 0.087041
vt 0.771804 0.604405
vt 0.786744 0.589465
vt 0.749313 0.615308
vt 0.749313 0.604405
vt 0.726822 0.604405
vt 0.711882 0.589465
vt 0.760559 0.615308
vt 0.738068 0.604405
vt 0.726822 0.648019
vt 0.711882 0.662959
vt 0.738068 0.615308
vt 0.726822 0.626212
vt 0.726822 0.637115
vt 0.771804 0.648019
vt 0.786744 0.662959
vt 0.771804 0.626212
vt 0.760559 0.626212
vt 0.489480 0.851822
vt 0.478225 0.896804
vt 0.463285 0.911744
vt 0.489480 0.863068
vt 0.478225 0.874313
vt 0.478225 0.885559
vt 0.523243 0.896804
vt 0.538183 0.911744
vt 0.523243 0.874313
vt 0.511989 0.874313
vt 0.500734 0.353196
vt 0.500734 0.364441
vt 0.538183 0.338255
vt 0.523243 0.398178
vt 0.538183 0.413118
vt 0.523243 0.375687
vt 0.511989 0.375687
vt 0.523243 0.604405
vt 0.538183 0.589465
vt 0.478225 0.648019
vt 0.463285 0.662959
vt 0.489480 0.615308
vt 0.478225 0.626212
vt 0.478225 0.637115
vt 0.489480 0.604405
vt 0.478225 0.604405
vt 0.500734 0.604405
vt 0.511989 0.615308
vt 0.500734 0.615308
vt 0.463285 0.589465
vt 0.500734 0.101981
vt 0.511989 0.112884
vt 0.500734 0.112884
vt 0.489480 0.101981
vt 0.478225 0.101981
vt 0.463285 0.087041
vt 0.523243 0.112884
vt 0.273178 0.648019
vt 0.288118 0.662959
vt 0.273178 0.626212
vt 0.261932 0.626212
vt 0.228196 0.604405
vt 0.213256 0.589465
vt 0.273178 0.604405
vt 0.261932 0.615308
vt 0.250687 0.604405
vt 0.250687 0.615308
vt 0.288118 0.589465
vt 0.239441 0.604405
vt 0.228196 0.648019
vt 0.213255 0.662959
vt 0.239441 0.615308
vt 0.228196 0.626212
vt 0.228196 0.637115
vt 0.500734 0.885559
vt 0.500734 0.386932
vt 0.250687 0.637115
vt 0.749313 0.637115
vt 0.500734 0.637115
vt 0.500734 0.134692
vt 0.489480 0.375687
vt 0.523243 0.863068
vt 0.523243 0.364441
vt 0.489480 0.123788
vt 0.771804 0.615308
vt 0.738068 0.626212
vt 0.489480 0.874313
vt 0.489480 0.626212
vt 0.523243 0.615308
vt 0.273178 0.615308
vt 0.239441 0.626212
vn 0.0000 0.0000 1.0000
vn 0.0000 0.0000 -1.0000
vn 0.0000 -1.0000 0.0000
vn 0.0000 1.0000 0.0000
vn 1.0000 0.0000 0.0000
vn -1.0000 0.0000 0.0000
usemtl Material.002
s off
f 163/1/1 56/2/1 155/3/1
f 173/4/2 52/5/2 98/6/2
f 159/7/1 103/8/1 162/9/1
f 170/10/2 165/11/2 174/12/2
f 215/13/3 77/14/3 211/15/3
f 152/16/4 78/17/4 142/18/4
f 198/19/3 205/20/3 209/21/3
f 149/22/4 133/23/4 151/24/4
f 184/25/5 79/26/5 180/27/5
f 120/28/5 175/29/5 179/30/5
f 127/31/6 96/32/6 124/33/6
f 132/34/6 84/35/6 129/36/6
f 102/37/1 1/38/1 104/39/1
f 166/40/2 3/41/2 167/42/2
f 159/7/1 6/43/1 161/44/1
f 170/10/2 5/45/2 172/46/2
f 98/6/2 2/47/2 100/48/2
f 155/3/1 4/49/1 156/50/1
f 112/51/2 11/52/2 113/53/2
f 107/54/1 12/55/1 108/56/1
f 198/19/3 42/57/3 200/58/3
f 149/22/4 44/59/4 150/60/4
f 120/28/5 45/61/5 122/62/5
f 211/15/3 20/63/3 214/64/3
f 142/18/4 21/65/4 145/66/4
f 180/27/5 26/67/5 183/68/5
f 128/69/6 17/70/6 131/71/6
f 116/72/6 47/73/6 118/74/6
f 176/75/5 38/76/5 178/77/5
f 134/78/4 33/79/4 136/80/4
f 206/81/3 32/82/3 208/83/3
f 124/33/6 29/84/6 126/85/6
f 138/86/4 41/87/4 140/88/4
f 203/89/3 43/90/3 204/91/3
f 187/92/5 46/93/5 188/94/5
f 193/95/6 48/96/6 194/97/6
f 60/98/2 100/48/2 14/99/2
f 114/100/2 63/101/2 112/51/2
f 173/4/2 60/98/2 171/102/2
f 49/103/1 104/39/1 7/104/1
f 50/105/1 109/106/1 105/107/1
f 59/108/1 108/56/1 13/109/1
f 49/103/1 109/106/1 102/37/1
f 99/110/2 112/51/2 61/111/2
f 61/111/2 113/53/2 15/112/2
f 53/113/2 168/114/2 166/40/2
f 84/35/6 118/74/6 30/115/6
f 83/116/6 132/34/6 130/117/6
f 74/118/5 122/62/5 27/119/5
f 73/120/5 179/30/5 177/121/5
f 86/122/6 126/85/6 31/123/6
f 195/124/6 85/125/6 193/95/6
f 117/126/6 124/33/6 86/122/6
f 82/127/6 131/71/6 18/128/6
f 90/129/4 136/80/4 37/130/4
f 134/78/4 137/131/4 91/132/4
f 94/133/4 140/88/4 34/134/4
f 90/129/4 141/135/4 134/78/4
f 143/136/4 138/86/4 94/133/4
f 66/137/4 145/66/4 22/138/4
f 146/139/4 65/140/4 138/86/4
f 152/16/4 66/137/4 148/141/4
f 72/142/4 150/60/4 25/143/4
f 71/144/4 151/24/4 135/145/4
f 154/146/1 107/54/1 59/108/1
f 62/147/1 156/50/1 16/148/1
f 157/149/1 64/150/1 107/54/1
f 163/1/1 62/147/1 160/151/1
f 55/152/1 161/44/1 10/153/1
f 57/154/1 162/9/1 101/155/1
f 54/156/2 168/114/2 110/157/2
f 53/113/2 167/42/2 9/158/2
f 51/159/2 172/46/2 8/160/2
f 58/161/2 174/12/2 164/162/2
f 87/163/5 178/77/5 39/164/5
f 76/165/5 183/68/5 28/166/5
f 190/167/5 75/168/5 187/92/5
f 184/25/5 76/165/5 121/169/5
f 181/170/5 187/92/5 89/171/5
f 88/172/5 189/173/5 185/174/5
f 89/171/5 188/94/5 40/175/5
f 87/163/5 189/173/5 176/75/5
f 80/176/6 196/177/6 191/178/6
f 123/179/6 193/95/6 81/180/6
f 81/180/6 194/97/6 19/181/6
f 128/69/6 192/182/6 196/177/6
f 68/183/3 200/58/3 23/184/3
f 67/185/3 209/21/3 207/186/3
f 95/187/3 204/91/3 36/188/3
f 92/189/3 210/190/3 206/81/3
f 93/191/3 210/190/3 201/192/3
f 92/189/3 208/83/3 35/193/3
f 212/194/3 203/89/3 95/187/3
f 70/195/3 214/64/3 24/196/3
f 216/197/3 69/198/3 203/89/3
f 199/199/3 211/15/3 70/195/3
f 163/1/1 158/200/1 56/2/1
f 173/4/2 169/201/2 52/5/2
f 159/7/1 55/152/1 103/8/1
f 170/10/2 51/159/2 165/11/2
f 215/13/3 197/202/3 77/14/3
f 152/16/4 147/203/4 78/17/4
f 198/19/3 68/183/3 205/20/3
f 149/22/4 72/142/4 133/23/4
f 184/25/5 119/204/5 79/26/5
f 120/28/5 74/118/5 175/29/5
f 127/31/6 115/205/6 96/32/6
f 132/34/6 116/72/6 84/35/6
f 102/37/1 50/105/1 1/38/1
f 166/40/2 54/156/2 3/41/2
f 159/7/1 57/154/1 6/43/1
f 170/10/2 58/161/2 5/45/2
f 98/6/2 52/5/2 2/47/2
f 155/3/1 56/2/1 4/49/1
f 112/51/2 63/101/2 11/52/2
f 107/54/1 64/150/1 12/55/1
f 198/19/3 67/185/3 42/57/3
f 149/22/4 71/144/4 44/59/4
f 120/28/5 73/120/5 45/61/5
f 211/15/3 77/14/3 20/63/3
f 142/18/4 78/17/4 21/65/4
f 180/27/5 79/26/5 26/67/5
f 128/69/6 80/176/6 17/70/6
f 116/72/6 83/116/6 47/73/6
f 176/75/5 88/172/5 38/76/5
f 134/78/4 91/132/4 33/79/4
f 206/81/3 93/191/3 32/82/3
f 124/33/6 96/32/6 29/84/6
f 138/86/4 65/140/4 41/87/4
f 203/89/3 69/198/3 43/90/3
f 187/92/5 75/168/5 46/93/5
f 193/95/6 85/125/6 48/96/6
f 60/98/2 98/6/2 100/48/2
f 114/100/2 97/206/2 63/101/2
f 173/4/2 98/6/2 60/98/2
f 49/103/1 102/37/1 104/39/1
f 50/105/1 102/37/1 109/106/1
f 59/108/1 107/54/1 108/56/1
f 49/103/1 106/207/1 109/106/1
f 99/110/2 114/100/2 112/51/2
f 61/111/2 112/51/2 113/53/2
f 53/113/2 111/208/2 168/114/2
f 84/35/6 116/72/6 118/74/6
f 83/116/6 116/72/6 132/34/6
f 74/118/5 120/28/5 122/62/5
f 73/120/5 120/28/5 179/30/5
f 86/122/6 124/33/6 126/85/6
f 195/124/6 125/209/6 85/125/6
f 117/126/6 127/31/6 124/33/6
f 82/127/6 128/69/6 131/71/6
f 90/129/4 134/78/4 136/80/4
f 134/78/4 141/135/4 137/131/4
f 94/133/4 138/86/4 140/88/4
f 90/129/4 139/210/4 141/135/4
f 143/136/4 146/139/4 138/86/4
f 66/137/4 142/18/4 145/66/4
f 146/139/4 144/211/4 65/140/4
f 152/16/4 142/18/4 66/137/4
f 72/142/4 149/22/4 150/60/4
f 71/144/4 149/22/4 151/24/4
f 154/146/1 157/149/1 107/54/1
f 62/147/1 155/3/1 156/50/1
f 157/149/1 153/212/1 64/150/1
f 163/1/1 155/3/1 62/147/1
f 55/152/1 159/7/1 161/44/1
f 57/154/1 159/7/1 162/9/1
f 54/156/2 166/40/2 168/114/2
f 53/113/2 166/40/2 167/42/2
f 51/159/2 170/10/2 172/46/2
f 58/161/2 170/10/2 174/12/2
f 87/163/5 176/75/5 178/77/5
f 76/165/5 180/27/5 183/68/5
f 190/167/5 182/213/5 75/168/5
f 184/25/5 180/27/5 76/165/5
f 181/170/5 190/167/5 187/92/5
f 88/172/5 176/75/5 189/173/5
f 89/171/5 187/92/5 188/94/5
f 87/163/5 186/214/5 189/173/5
f 80/176/6 128/69/6 196/177/6
f 123/179/6 195/124/6 193/95/6
f 81/180/6 193/95/6 194/97/6
f 128/69/6 82/127/6 192/182/6
f 68/183/3 198/19/3 200/58/3
f 67/185/3 198/19/3 209/21/3
f 95/187/3 203/89/3 204/91/3
f 92/189/3 202/215/3 210/190/3
f 93/191/3 206/81/3 210/190/3
f 92/189/3 206/81/3 208/83/3
f 212/194/3 216/197/3 203/89/3
f 70/195/3 211/15/3 214/64/3
f 216/197/3 213/216/3 69/198/3
f 199/199/3 215/13/3 211/15/3
