# Blender v3.1.2 OBJ File: ''
# www.blender.org
mtllib coolCubeHash1.mtl
o Plane_Plane.001
v -1.182724 0.238584 1.013895
v -1.076687 -0.087685 1.013895
v -0.827907 -0.279368 1.013895
v -0.387444 -0.307916 1.013895
v -0.159056 -0.148860 1.013895
v -0.114194 0.120312 1.013895
v 0.093802 0.120312 1.013895
v 0.126429 -0.132547 1.013895
v 0.346660 -0.287524 1.013895
v 0.717791 -0.283446 1.013895
v 0.982885 -0.169252 1.013895
v 1.060374 0.083606 1.013895
v 1.064452 0.450659 1.013895
v 0.089724 0.405797 1.013895
v 0.089724 0.332386 1.013895
v -0.118272 0.316073 1.013895
v -0.106037 0.401719 1.013895
v -1.170489 0.393562 1.013895
v -0.288187 -0.576253 1.021755
v 0.016374 -0.651575 1.021755
v 0.278363 -0.546780 1.021755
v 0.838363 -0.697423 1.021755
v 0.288187 -0.422335 1.021755
v 0.000000 -0.582803 1.021755
v -0.294737 -0.468183 1.021755
v -0.785965 -0.703973 1.021755
vt 0.454152 0.548304
vt 0.537661 0.548304
vt 0.452515 0.626901
vt 0.508187 0.050526
vt 0.639181 0.102924
vt 0.500000 0.084912
vt 0.927369 0.680936
vt 0.536023 0.662924
vt 0.536023 0.633450
vt 0.457427 0.661287
vt 0.030058 0.658012
vt 0.925731 0.533567
vt 0.025146 0.595789
vt 0.788187 0.386199
vt 0.894620 0.432047
vt 0.550760 0.446784
vt 0.639181 0.384561
vt 0.067719 0.464795
vt 0.167602 0.387836
vt 0.344444 0.376374
vt 0.436140 0.440234
vt 0.352632 0.142222
vt 0.107017 0.024327
vt 0.355906 0.088187
vt 0.919182 0.027602
vt 0.644094 0.165146
vn 0.0000 0.0000 1.0000
usemtl None
s off
f 6/1/1 7/2/1 16/3/1
f 20/4/1 21/5/1 24/6/1
f 13/7/1 14/8/1 15/9/1
f 16/3/1 17/10/1 18/11/1
f 12/12/1 13/7/1 15/9/1
f 16/3/1 18/11/1 1/13/1
f 12/12/1 15/9/1 7/2/1
f 15/9/1 16/3/1 7/2/1
f 12/12/1 7/2/1 10/14/1
f 10/14/1 11/15/1 12/12/1
f 8/16/1 9/17/1 7/2/1
f 9/17/1 10/14/1 7/2/1
f 16/3/1 1/13/1 2/18/1
f 2/18/1 3/19/1 16/3/1
f 3/19/1 4/20/1 6/1/1
f 4/20/1 5/21/1 6/1/1
f 3/19/1 6/1/1 16/3/1
f 25/22/1 26/23/1 19/24/1
f 21/5/1 22/25/1 23/26/1
f 24/6/1 25/22/1 19/24/1
f 21/5/1 23/26/1 24/6/1
f 24/6/1 19/24/1 20/4/1
