# Blender v3.1.2 OBJ File: 'untitled1.blend'
# www.blender.org
mtllib cube.mtl
o Cube
v 0.826346 1.000000 -0.826346
v 1.000000 -0.876277 -0.876277
v 0.826346 1.000000 0.826346
v 1.000000 -0.876277 0.876277
v -0.826346 1.000000 -0.826346
v -0.843506 -0.843506 -1.000000
v -0.826346 1.000000 0.826346
v -0.822429 -0.822429 1.000000
v 1.000000 0.876277 0.876277
v -0.822429 0.822429 1.000000
v 1.000000 0.876277 -0.876277
v -0.843506 0.843506 -1.000000
v 0.843506 0.843506 -1.000000
v 0.843506 -0.843506 -1.000000
v 0.822429 0.822429 1.000000
v 0.822429 -0.822429 1.000000
v -1.000000 -0.856203 0.856203
v -1.000000 0.856203 0.856203
v 1.000000 1.000000 1.000000
v 0.866731 -1.000000 0.866731
v 0.866731 -1.000000 -0.866731
v -1.000000 -0.856203 -0.856203
v 1.000000 1.000000 -1.000000
v -1.000000 0.856203 -0.856203
v -0.866731 -1.000000 -0.866731
v -0.866731 -1.000000 0.866731
v -1.000000 1.000000 1.000000
v -1.000000 1.000000 -1.000000
v -1.000000 -1.000000 -1.000000
v -1.000000 -1.000000 1.000000
v 1.000000 -1.000000 -1.000000
v 1.000000 -1.000000 1.000000
v 0.826346 1.131266 0.826346
v -0.826346 1.131266 0.826346
v 0.826346 1.131266 -0.826346
v -0.826346 1.131266 -0.826346
v 1.131266 0.876277 -0.876277
v 1.131266 -0.876277 -0.876277
v 1.131266 0.876277 0.876277
v 1.131266 -0.876277 0.876277
v -0.822429 -0.822429 1.131266
v -0.822429 0.822429 1.131266
v 0.822429 0.822429 1.131266
v 0.822429 -0.822429 1.131266
v 0.843506 -0.843506 -1.131266
v -0.843506 -0.843506 -1.131266
v 0.843506 0.843506 -1.131266
v -0.843506 0.843506 -1.131266
v -1.131266 -0.856203 -0.856203
v -1.131266 -0.856203 0.856203
v -1.131266 0.856203 0.856203
v -1.131266 0.856203 -0.856203
v -0.866731 -1.131266 -0.866731
v -0.866731 -1.131266 0.866731
v 0.866731 -1.131266 -0.866731
v 0.866731 -1.131266 0.866731
vt 0.924621 0.501139
vt 0.942463 0.271840
vt 0.942463 0.501139
vt 0.781888 0.510047
vt 0.799729 0.271840
vt 0.799729 0.510047
vt 0.969502 0.990819
vt 0.987343 0.767250
vt 0.987343 0.990819
vt 0.960304 0.271840
vt 0.942463 0.496474
vt 0.942463 0.271840
vt 0.835413 0.271840
vt 0.817571 0.510047
vt 0.817571 0.271840
vt 0.976096 0.000000
vt 0.958254 0.224634
vt 0.958254 0.000000
vt 0.023603 0.791917
vt 0.271840 0.815521
vt 0.000000 0.815520
vt 0.023603 0.567283
vt 0.000000 0.543680
vt 0.248237 0.791917
vt 0.271840 0.543680
vt 0.248237 0.567283
vt 0.526864 0.526864
vt 0.543680 0.271840
vt 0.543680 0.543680
vt 0.288657 0.288657
vt 0.271840 0.543680
vt 0.271840 0.271840
vt 0.288657 0.526864
vt 0.526864 0.288657
vt 0.567816 0.024135
vt 0.543680 0.271840
vt 0.543680 0.000000
vt 0.791385 0.247705
vt 0.815521 0.000000
vt 0.815520 0.271840
vt 0.567816 0.247705
vt 0.791385 0.024135
vt 0.522410 0.021271
vt 0.271840 0.000000
vt 0.543680 0.000000
vt 0.293111 0.021271
vt 0.271840 0.271840
vt 0.522410 0.250570
vt 0.543680 0.271840
vt 0.293111 0.250570
vt 0.252295 0.291385
vt 0.000000 0.271840
vt 0.271840 0.271840
vt 0.252295 0.524135
vt 0.271840 0.543680
vt 0.019545 0.291385
vt 0.000000 0.543680
vt 0.019545 0.524135
vt 0.018114 0.018114
vt 0.000000 0.271840
vt 0.000000 0.000000
vt 0.253726 0.018114
vt 0.018114 0.253726
vt 0.253726 0.253726
vt 0.740203 0.772979
vt 0.964837 0.997613
vt 0.740203 0.997613
vt 0.731022 0.776431
vt 0.507452 1.000000
vt 0.507452 0.776431
vt 0.740203 0.543680
vt 0.507452 0.776431
vt 0.507452 0.543680
vt 0.271840 0.543680
vt 0.507452 0.779293
vt 0.271840 0.779293
vt 0.781888 0.271840
vt 0.543680 0.510047
vt 0.543680 0.271840
vt 0.969502 0.543680
vt 0.740203 0.772979
vt 0.740203 0.543680
vt 0.978146 0.271840
vt 0.960305 0.496474
vt 0.960305 0.271840
vt 0.987343 0.543680
vt 0.969501 0.767250
vt 0.969501 0.543680
vt 0.888938 0.271840
vt 0.871096 0.504591
vt 0.871096 0.271840
vt 0.833362 0.000000
vt 0.815521 0.238207
vt 0.815521 0.000000
vt 0.904729 0.229299
vt 0.922571 0.000000
vt 0.922571 0.229299
vt 0.851204 0.235612
vt 0.869046 0.000000
vt 0.869046 0.235612
vt 0.958254 0.000000
vt 0.940413 0.224634
vt 0.940413 0.000000
vt 0.995988 0.271840
vt 0.978146 0.495409
vt 0.978146 0.271840
vt 0.904729 0.000000
vt 0.886887 0.232750
vt 0.886887 0.000000
vt 0.799729 0.510047
vt 0.817571 0.510047
vt 0.924621 0.271840
vt 0.906780 0.501139
vt 0.906780 0.271840
vt 0.853254 0.507452
vt 0.871096 0.271840
vt 0.871096 0.507452
vt 0.993937 0.000000
vt 0.976096 0.223569
vt 0.976096 0.000000
vt 0.888938 0.504590
vt 0.906780 0.271840
vt 0.906779 0.504590
vt 0.922571 0.229299
vt 0.940413 0.000000
vt 0.940413 0.229299
vt 0.835413 0.507452
vt 0.853254 0.271840
vt 0.853254 0.507452
vt 0.869046 0.232750
vt 0.886887 0.000000
vt 0.833362 0.235612
vt 0.851204 0.000000
vt 0.851204 0.235612
vt 0.781888 0.271840
vt 0.969502 0.767250
vt 0.960304 0.496474
vt 0.835413 0.510047
vt 0.976096 0.224634
vt 0.964837 0.772979
vt 0.731022 1.000000
vt 0.740203 0.776431
vt 0.507452 0.543680
vt 0.781888 0.510047
vt 0.969502 0.772979
vt 0.978146 0.496474
vt 0.987343 0.767250
vt 0.888938 0.504591
vt 0.833362 0.238207
vt 0.904729 0.000000
vt 0.851204 0.000000
vt 0.958254 0.224634
vt 0.995988 0.495409
vt 0.904729 0.232750
vt 0.799729 0.271840
vt 0.924621 0.501139
vt 0.853254 0.271840
vt 0.993937 0.223569
vt 0.922571 0.000000
vt 0.835413 0.271840
vt 0.869046 0.000000
vt 0.833362 0.000000
vn 0.0000 -1.0000 0.0000
vn 0.0000 0.0000 1.0000
vn -1.0000 0.0000 0.0000
vn 1.0000 0.0000 0.0000
vn 0.0000 0.0000 -1.0000
vn 0.0000 1.0000 0.0000
usemtl Material
s off
f 14/1/1 46/2/1 45/3/1
f 9/4/2 40/5/2 39/6/2
f 10/7/3 41/8/3 42/9/3
f 3/10/4 35/11/4 33/12/4
f 2/13/5 37/14/5 38/15/5
f 7/16/2 33/17/2 34/18/2
f 3/19/6 27/20/6 19/21/6
f 1/22/6 19/21/6 23/23/6
f 7/24/6 28/25/6 27/20/6
f 5/26/6 23/23/6 28/25/6
f 11/27/4 31/28/4 23/29/4
f 4/30/4 19/31/4 32/32/4
f 9/33/4 23/29/4 19/31/4
f 2/34/4 32/32/4 31/28/4
f 8/35/2 27/36/2 30/37/2
f 15/38/2 32/39/2 19/40/2
f 10/41/2 19/40/2 27/36/2
f 16/42/2 30/37/2 32/39/2
f 6/43/5 31/44/5 29/45/5
f 14/46/5 23/47/5 31/44/5
f 12/48/5 29/45/5 28/49/5
f 13/50/5 28/49/5 23/47/5
f 17/51/3 29/52/3 30/53/3
f 18/54/3 30/53/3 27/55/3
f 22/56/3 28/57/3 29/52/3
f 24/58/3 27/55/3 28/57/3
f 25/59/1 30/60/1 29/61/1
f 21/62/1 29/61/1 31/44/1
f 26/63/1 32/32/1 30/60/1
f 20/64/1 31/44/1 32/32/1
f 35/65/6 34/66/6 33/67/6
f 44/68/2 42/69/2 41/70/2
f 50/71/3 52/72/3 49/73/3
f 53/74/1 56/75/1 54/76/1
f 38/77/4 39/78/4 40/79/4
f 46/80/5 47/81/5 45/82/5
f 5/83/3 34/84/3 36/85/3
f 16/86/4 43/87/4 44/88/4
f 22/89/1 50/90/1 49/91/1
f 11/92/6 39/93/6 37/94/6
f 13/95/4 45/96/4 47/97/4
f 26/98/3 53/99/3 54/100/3
f 1/101/5 36/102/5 35/103/5
f 15/104/6 42/105/6 43/106/6
f 17/107/2 51/108/2 50/109/2
f 4/110/1 38/15/1 40/111/1
f 6/112/3 48/113/3 46/114/3
f 25/115/5 55/116/5 53/117/5
f 8/118/1 44/119/1 41/120/1
f 24/121/5 49/122/5 52/123/5
f 12/124/6 47/125/6 48/126/6
f 20/127/2 54/128/2 56/129/2
f 18/130/6 52/131/6 51/108/6
f 21/132/4 56/133/4 55/134/4
f 14/1/1 6/112/1 46/2/1
f 9/4/2 4/135/2 40/5/2
f 10/7/3 8/136/3 41/8/3
f 3/10/4 1/137/4 35/11/4
f 2/13/5 11/138/5 37/14/5
f 7/16/2 3/139/2 33/17/2
f 3/19/6 7/24/6 27/20/6
f 1/22/6 3/19/6 19/21/6
f 7/24/6 5/26/6 28/25/6
f 5/26/6 1/22/6 23/23/6
f 11/27/4 2/34/4 31/28/4
f 4/30/4 9/33/4 19/31/4
f 9/33/4 11/27/4 23/29/4
f 2/34/4 4/30/4 32/32/4
f 8/35/2 10/41/2 27/36/2
f 15/38/2 16/42/2 32/39/2
f 10/41/2 15/38/2 19/40/2
f 16/42/2 8/35/2 30/37/2
f 6/43/5 14/46/5 31/44/5
f 14/46/5 13/50/5 23/47/5
f 12/48/5 6/43/5 29/45/5
f 13/50/5 12/48/5 28/49/5
f 17/51/3 22/56/3 29/52/3
f 18/54/3 17/51/3 30/53/3
f 22/56/3 24/58/3 28/57/3
f 24/58/3 18/54/3 27/55/3
f 25/59/1 26/63/1 30/60/1
f 21/62/1 25/59/1 29/61/1
f 26/63/1 20/64/1 32/32/1
f 20/64/1 21/62/1 31/44/1
f 35/65/6 36/140/6 34/66/6
f 44/68/2 43/141/2 42/69/2
f 50/71/3 51/142/3 52/72/3
f 53/74/1 55/143/1 56/75/1
f 38/77/4 37/144/4 39/78/4
f 46/80/5 48/145/5 47/81/5
f 5/83/3 7/146/3 34/84/3
f 16/86/4 15/147/4 43/87/4
f 22/89/1 17/148/1 50/90/1
f 11/92/6 9/149/6 39/93/6
f 13/95/4 14/150/4 45/96/4
f 26/98/3 25/151/3 53/99/3
f 1/101/5 5/152/5 36/102/5
f 15/104/6 10/153/6 42/105/6
f 17/107/2 18/154/2 51/108/2
f 4/110/1 2/155/1 38/15/1
f 6/112/3 12/156/3 48/113/3
f 25/115/5 21/157/5 55/116/5
f 8/118/1 16/158/1 44/119/1
f 24/121/5 22/89/5 49/122/5
f 12/124/6 13/159/6 47/125/6
f 20/127/2 26/160/2 54/128/2
f 18/130/6 24/161/6 52/131/6
f 21/132/4 20/162/4 56/133/4
