# Blender v3.1.2 OBJ File: 'cube4.blend'
# www.blender.org
mtllib cube4.mtl
o Cube
v 0.557924 14.011607 -1.065172
v 0.557924 14.011607 0.934829
v 0.482950 14.861396 -0.548122
v 0.482950 14.861396 0.417779
v -0.557924 14.011607 -1.065172
v -0.557924 14.011607 0.934829
v -0.482950 14.861396 -0.548122
v -0.482950 14.861396 0.417779
v -0.557924 15.127455 0.934829
v -0.557924 15.127455 -1.065172
v 0.557924 15.127455 -1.065172
v 0.557924 15.127455 0.934829
v -0.267285 17.533463 0.202114
v -0.267285 17.533463 -0.332457
v 0.267285 17.533463 -0.332457
v 0.267285 17.533463 0.202114
v -0.482950 17.533463 0.417779
v -0.482950 17.533463 -0.548122
v 0.482950 17.533463 -0.548122
v 0.482950 17.533463 0.417779
v -0.267285 20.141724 0.202114
v -0.267285 20.141724 -0.332458
v 0.267285 20.141724 -0.332458
v 0.267285 20.141724 0.202114
v -1.000000 13.569531 0.934829
v -1.000000 15.569531 0.934829
v 1.000000 13.569531 0.934829
v 1.000000 15.569531 -1.065172
v -1.000000 15.569531 -1.065172
v 1.000000 13.569531 -1.065171
v 1.000000 15.569531 0.934829
v -1.000000 13.569531 -1.065171
v -0.557924 11.047832 5.603074
v -0.557924 11.084856 6.718307
v 0.557924 11.047832 5.603074
v 0.557924 11.074276 -6.848900
v -0.557924 11.074276 -6.848900
v 0.557924 11.058411 -5.733166
v 0.557924 11.084856 6.718307
v -0.557924 11.058411 -5.733166
v -0.557924 -0.124279 1.896564
v -0.557924 -0.087255 2.245380
v 0.557924 -0.124279 1.896564
v 0.557924 -0.102859 -2.163820
v -0.557924 -0.102859 -2.163820
v 0.557924 -0.118723 -1.814845
v 0.557924 -0.087255 2.245380
v -0.557924 -0.118723 -1.814845
vt 0.819740 0.555259
vt 0.680259 0.555260
vt 0.680259 0.555260
vt 0.560369 0.935369
vt 0.560369 0.814631
vt 0.560369 0.814631
vt 0.375000 0.000000
vt 0.625000 0.250000
vt 0.375000 0.250000
vt 0.319741 0.555259
vt 0.180260 0.555260
vt 0.180260 0.555260
vt 0.625000 0.500000
vt 0.375000 0.750000
vt 0.375000 0.500000
vt 0.375000 1.000000
vt 0.439631 0.935369
vt 0.625000 0.750000
vt 0.625000 1.000000
vt 0.439631 0.814631
vt 0.466589 0.841589
vt 0.466589 0.908411
vt 0.466589 0.908411
vt 0.560369 0.935369
vt 0.439631 0.935369
vt 0.439631 0.814631
vt 0.533411 0.908411
vt 0.533411 0.841589
vt 0.533411 0.841589
vt 0.466589 0.841589
vt 0.533411 0.908411
vt 0.180259 0.694740
vt 0.125000 0.500000
vt 0.819740 0.694740
vt 0.680259 0.694740
vt 0.319741 0.694740
vt 0.125000 0.750000
vt 0.875000 0.500000
vt 0.875000 0.750000
vt 0.819740 0.555259
vt 0.819740 0.694740
vt 0.819740 0.555259
vt 0.319741 0.555259
vt 0.319741 0.694740
vt 0.319741 0.555259
vt 0.319741 0.694740
vt 0.819740 0.694740
vt 0.180259 0.694740
vt 0.680259 0.694740
vt 0.680259 0.694740
vt 0.680259 0.555260
vt 0.180259 0.694740
vt 0.180260 0.555260
vt 0.625000 0.000000
vn 0.0000 -0.8451 0.5346
vn 0.0000 0.0000 -1.0000
vn -1.0000 0.0000 0.0000
vn 0.0000 -0.8442 -0.5360
vn 1.0000 0.0000 0.0000
vn 0.0000 -1.0000 0.0000
vn 0.8076 0.5897 0.0000
vn -0.8076 0.5897 0.0000
vn 0.0000 0.5897 0.8076
vn 0.0000 0.5897 -0.8076
vn 0.0000 0.0000 1.0000
vn 0.0000 1.0000 0.0000
vn 0.0000 0.8196 0.5729
vn 0.0000 0.8189 -0.5739
vn 0.0000 -0.9990 -0.0454
vn 0.0000 -0.9944 0.1056
vn 0.0000 0.3149 -0.9491
vn 0.0000 0.3308 0.9437
vn 0.0000 -0.3717 0.9284
vn 0.0000 -0.3866 -0.9223
usemtl Material
s off
f 5/1/1 38/2/1 1/3/1
f 7/4/2 19/5/2 3/6/2
f 26/7/3 32/8/3 25/9/3
f 2/10/4 33/11/4 6/12/4
f 30/13/5 31/14/5 27/15/5
f 32/8/6 27/15/6 25/9/6
f 7/4/7 26/16/7 8/17/7
f 3/6/8 31/14/8 28/18/8
f 3/6/9 29/19/9 7/4/9
f 8/17/10 31/14/10 4/20/10
f 16/21/11 21/22/11 13/23/11
f 8/17/3 18/24/3 7/4/3
f 4/20/11 17/25/11 8/17/11
f 3/6/5 20/26/5 4/20/5
f 14/27/12 17/25/12 13/23/12
f 16/21/12 19/5/12 15/28/12
f 15/28/12 18/24/12 14/27/12
f 13/23/12 20/26/12 16/21/12
f 23/29/12 21/22/12 24/30/12
f 15/28/5 24/30/5 16/21/5
f 14/27/2 23/29/2 15/28/2
f 14/27/3 21/22/3 22/31/3
f 9/32/11 25/33/11 6/12/11
f 6/12/11 27/15/11 2/10/11
f 10/34/2 28/18/2 11/35/2
f 11/35/2 30/13/2 1/3/2
f 12/36/11 26/37/11 9/32/11
f 10/34/2 32/38/2 29/39/2
f 1/3/2 32/38/2 5/1/2
f 12/36/11 27/15/11 31/14/11
f 40/40/3 45/41/3 48/42/3
f 35/43/5 47/44/5 43/45/5
f 9/32/13 39/46/13 12/36/13
f 11/35/14 37/47/14 10/34/14
f 9/32/3 33/11/3 34/48/3
f 12/36/5 35/43/5 2/10/5
f 10/34/3 40/40/3 5/1/3
f 11/35/5 38/2/5 36/49/5
f 48/42/15 44/50/15 46/51/15
f 43/45/16 42/52/16 41/53/16
f 38/2/5 44/50/5 36/49/5
f 35/43/17 41/53/17 33/11/17
f 40/40/18 46/51/18 38/2/18
f 34/48/19 47/44/19 39/46/19
f 36/49/20 45/41/20 37/47/20
f 33/11/3 42/52/3 34/48/3
f 5/1/1 40/40/1 38/2/1
f 7/4/2 18/24/2 19/5/2
f 26/7/3 29/54/3 32/8/3
f 2/10/4 35/43/4 33/11/4
f 30/13/5 28/18/5 31/14/5
f 32/8/6 30/13/6 27/15/6
f 7/4/7 29/19/7 26/16/7
f 3/6/8 4/20/8 31/14/8
f 3/6/9 28/18/9 29/19/9
f 8/17/10 26/16/10 31/14/10
f 16/21/11 24/30/11 21/22/11
f 8/17/3 17/25/3 18/24/3
f 4/20/11 20/26/11 17/25/11
f 3/6/5 19/5/5 20/26/5
f 14/27/12 18/24/12 17/25/12
f 16/21/12 20/26/12 19/5/12
f 15/28/12 19/5/12 18/24/12
f 13/23/12 17/25/12 20/26/12
f 23/29/12 22/31/12 21/22/12
f 15/28/5 23/29/5 24/30/5
f 14/27/2 22/31/2 23/29/2
f 14/27/3 13/23/3 21/22/3
f 9/32/11 26/37/11 25/33/11
f 6/12/11 25/33/11 27/15/11
f 10/34/2 29/39/2 28/18/2
f 11/35/2 28/18/2 30/13/2
f 12/36/11 31/14/11 26/37/11
f 10/34/2 5/1/2 32/38/2
f 1/3/2 30/13/2 32/38/2
f 12/36/11 2/10/11 27/15/11
f 40/40/3 37/47/3 45/41/3
f 35/43/5 39/46/5 47/44/5
f 9/32/13 34/48/13 39/46/13
f 11/35/14 36/49/14 37/47/14
f 9/32/3 6/12/3 33/11/3
f 12/36/5 39/46/5 35/43/5
f 10/34/3 37/47/3 40/40/3
f 11/35/5 1/3/5 38/2/5
f 48/42/15 45/41/15 44/50/15
f 43/45/16 47/44/16 42/52/16
f 38/2/5 46/51/5 44/50/5
f 35/43/17 43/45/17 41/53/17
f 40/40/18 48/42/18 46/51/18
f 34/48/19 42/52/19 47/44/19
f 36/49/20 44/50/20 45/41/20
f 33/11/3 41/53/3 42/52/3
