# Blender v3.1.2 OBJ File: 'untitled.blend'
# www.blender.org
mtllib cube3.mtl
o Cube
v 4.355395 103.943451 -4.355395
v 4.355395 -103.943451 -4.355395
v 4.355395 103.943451 4.355395
v 4.355395 -103.943451 4.355395
v -4.355395 103.943451 -4.355395
v -4.355395 -103.943451 -4.355395
v -4.355395 103.943451 4.355395
v -4.355395 -103.943451 4.355395
v -2.987499 103.943451 2.987499
v 2.987499 103.943451 -2.987499
v -2.987499 103.943451 -2.987499
v 2.987499 103.943451 2.987499
v 2.987499 -103.943451 2.987499
v -2.987499 -103.943451 -2.987499
v 2.987499 -103.943451 -2.987499
v -2.987499 -103.943451 2.987499
vt 0.875000 0.750000
vt 0.664259 0.710741
vt 0.835741 0.710741
vt 0.625000 0.500000
vt 0.835741 0.539259
vt 0.664259 0.539259
vt 0.625000 0.750000
vt 0.375000 1.000000
vt 0.375000 0.750000
vt 0.625000 0.000000
vt 0.375000 0.250000
vt 0.375000 0.000000
vt 0.125000 0.500000
vt 0.375000 0.500000
vt 0.164259 0.539259
vt 0.125000 0.750000
vt 0.335741 0.710741
vt 0.625000 0.250000
vt 0.553811 0.250000
vt 0.446189 0.000000
vt 0.446189 0.250000
vt 0.553811 0.500000
vt 0.446189 0.500000
vt 0.446189 0.750000
vt 0.553811 0.750000
vt 0.446189 1.000000
vt 0.553811 1.000000
vt 0.875000 0.500000
vt 0.625000 1.000000
vt 0.164259 0.710741
vt 0.335741 0.539259
vt 0.553811 0.000000
vn 0.0000 1.0000 0.0000
vn 0.0000 0.0000 1.0000
vn -1.0000 0.0000 0.0000
vn 0.0000 -1.0000 0.0000
vn 1.0000 0.0000 0.0000
vn 0.0000 0.0000 -1.0000
usemtl Material
s off
f 7/1/1 12/2/1 9/3/1
f 1/4/1 11/5/1 10/6/1
f 3/7/2 8/8/2 4/9/2
f 7/10/3 6/11/3 8/12/3
f 6/13/4 2/14/4 14/15/4
f 8/16/4 13/17/4 4/9/4
f 1/4/5 4/9/5 2/14/5
f 5/18/6 2/14/6 6/11/6
f 11/19/5 16/20/5 14/21/5
f 10/22/2 14/21/2 15/23/2
f 10/22/3 13/24/3 12/25/3
f 12/25/6 16/26/6 9/27/6
f 11/5/1 5/28/1 9/3/1
f 5/28/1 7/1/1 9/3/1
f 7/1/1 3/7/1 12/2/1
f 12/2/1 3/7/1 10/6/1
f 3/7/1 1/4/1 10/6/1
f 1/4/1 5/28/1 11/5/1
f 3/7/2 7/29/2 8/8/2
f 7/10/3 5/18/3 6/11/3
f 14/15/4 16/30/4 8/16/4
f 2/14/4 4/9/4 13/17/4
f 2/14/4 13/17/4 15/31/4
f 14/15/4 8/16/4 6/13/4
f 2/14/4 15/31/4 14/15/4
f 8/16/4 16/30/4 13/17/4
f 1/4/5 3/7/5 4/9/5
f 5/18/6 1/4/6 2/14/6
f 11/19/5 9/32/5 16/20/5
f 10/22/2 11/19/2 14/21/2
f 10/22/3 15/23/3 13/24/3
f 12/25/6 13/24/6 16/26/6
