# Blender v3.1.2 OBJ File: 'untitled.blend'
# www.blender.org
mtllib cube5.mtl
o Cube
v 0.047703 2.000000 -0.613521
v 1.000000 0.000000 -1.000000
v 0.047703 2.000000 0.613521
v 0.645125 0.354875 1.002390
v -0.047703 2.000000 -0.613521
v -1.000000 0.000000 -1.000000
v -0.047703 2.000000 0.613521
v -0.773430 0.226570 1.002390
v 0.773430 1.773430 1.002390
v -0.645125 1.645125 1.002390
v 1.000000 2.000000 -1.000000
v -1.000000 2.000000 -1.000000
v 0.845922 2.000000 0.845922
v -0.845922 2.000000 0.845922
v 0.845922 2.000000 -0.845922
v -0.845922 2.000000 -0.845922
v 0.845922 1.873058 0.845922
v -0.845922 1.873058 0.845922
v 0.845922 1.873058 -0.845922
v -0.845922 1.873058 -0.845922
v 0.716053 1.873058 0.716053
v -0.716053 1.873058 0.716053
v 0.716053 1.873058 -0.716053
v -0.716053 1.873058 -0.716053
v 0.716053 2.000000 0.716053
v -0.716053 2.000000 0.716053
v 0.716053 2.000000 -0.716053
v -0.716053 2.000000 -0.716053
v -1.000000 0.000000 0.776320
v 1.000000 2.000000 0.776320
v -1.000000 2.000000 0.776320
v 1.000000 0.000000 0.776320
v 0.845922 2.000000 0.656707
v -0.845922 2.000000 0.656707
v 0.476935 2.000000 0.096545
v -0.476935 2.000000 0.096545
v 0.845922 1.873058 0.656707
v -0.845922 1.873058 0.656707
v 0.716053 1.873058 0.555886
v -0.716053 1.873058 0.555886
v 0.286821 2.000000 0.088408
v -0.286821 2.000000 0.088408
v -1.000000 2.000000 -0.806871
v 1.000000 0.000000 -0.806871
v -0.845922 2.000000 -0.682550
v -0.476935 2.000000 -0.116880
v -0.845922 1.873058 -0.682550
v -0.716053 1.873058 -0.577762
v -0.286821 2.000000 -0.108422
v -1.000000 0.000000 -0.806871
v 1.000000 2.000000 -0.806871
v 0.845922 2.000000 -0.682550
v 0.476935 2.000000 -0.116880
v 0.845922 1.873058 -0.682550
v 0.716053 1.873058 -0.577762
v 0.286821 2.000000 -0.108422
v 0.047703 2.000000 0.613521
v -0.047703 2.000000 0.613521
v 0.047703 2.000000 0.476289
v -0.047703 2.000000 -0.495032
v -0.047703 2.000000 -0.613521
v 0.047703 2.000000 -0.613521
v 0.047703 2.000000 -0.495032
v -0.047703 2.000000 0.476289
v 0.047703 1.817799 0.613521
v -0.047703 1.817799 0.613521
v 0.047703 1.817799 0.476289
v -0.047703 1.817799 -0.495032
v -0.047703 1.817799 -0.613521
v 0.047703 1.817799 -0.613521
v -0.047703 1.817799 0.476289
v 0.047703 1.817799 -0.495032
v 0.716053 2.000000 -0.577762
v 0.716053 2.000000 0.555886
v 0.047703 2.000000 -0.495032
v 0.047703 2.000000 0.476289
v -0.047703 2.000000 0.476289
v -0.716053 2.000000 0.555886
v -0.716053 2.000000 -0.577762
v -0.047703 2.000000 -0.495032
v 0.611593 2.000000 -0.459574
v 0.611593 2.000000 0.438247
v 0.152163 2.000000 -0.402705
v 0.152163 2.000000 0.383531
v -0.152163 2.000000 0.383531
v -0.611593 2.000000 0.438247
v -0.611593 2.000000 -0.459574
v -0.152163 2.000000 -0.402705
v 0.443341 1.228797 -0.081758
v 0.443341 1.228797 0.061483
v 0.320415 1.228797 -0.076290
v 0.320415 1.228797 0.056221
v -0.320415 1.228797 0.056221
v -0.443341 1.228797 0.061483
v -0.443341 1.228797 -0.081758
v -0.320415 1.228797 -0.076290
v 0.476935 1.228797 -0.116880
v 0.476935 1.228797 0.096545
v 0.286821 1.228797 -0.108422
v 0.286821 1.228797 0.088408
v -0.286821 1.228797 0.088408
v -0.476935 1.228797 0.096545
v -0.476935 1.228797 -0.116880
v -0.286821 1.228797 -0.108422
v 0.443341 2.032540 -0.081758
v 0.443341 2.032540 0.061483
v 0.320415 2.032540 -0.076290
v 0.320415 2.032540 0.056221
v -0.320415 2.032540 0.056221
v -0.443341 2.032540 0.061483
v -0.443341 2.032540 -0.081758
v -0.320415 2.032540 -0.076290
v -1.000000 1.603340 -0.614441
v -1.000000 1.077203 -0.426284
v -1.000000 0.965813 0.127158
v -1.000000 0.176153 0.256312
v -1.000000 1.049066 0.298086
v -1.000000 1.154571 -0.256585
v -0.790679 1.157444 -0.379661
v -0.790679 0.991251 0.207650
v -1.000000 1.100222 0.029145
v -1.000000 1.111380 -0.029515
v -0.790679 1.076165 -0.092427
v -0.790679 1.041183 0.031194
v -1.000000 1.323145 0.019271
v -0.957230 1.117710 -0.003646
v -0.790679 1.056695 -0.023623
v -1.000000 0.000000 1.000000
v -1.000000 2.000000 1.000000
v 1.000000 2.000000 1.000000
v 1.000000 0.000000 1.000000
v -0.645125 0.354875 1.002390
v -0.773430 1.773430 1.002390
v 0.645125 1.645125 1.002390
v 0.773430 0.226570 1.002390
v -0.757750 0.242250 1.026827
v -0.757750 1.757750 1.026827
v 0.757750 1.757750 1.026827
v 0.757750 0.242250 1.026827
v -0.660804 0.339196 1.026827
v -0.660804 1.660804 1.026827
v 0.660804 1.660804 1.026827
v 0.660804 0.339196 1.026827
v -0.773430 0.226570 1.026827
v -0.773430 1.773430 1.026827
v 0.773430 1.773430 1.026827
v 0.773430 0.226570 1.026827
v -0.645125 0.354875 1.026827
v -0.645125 1.645125 1.026827
v 0.645125 1.645125 1.026827
v 0.645125 0.354875 1.026827
v -0.757750 0.242250 1.013928
v -0.688687 0.311313 1.013928
v -0.660804 1.660804 1.013928
v -0.757750 1.757750 1.013928
v 0.757750 1.757750 1.013928
v 0.688687 1.688687 1.013928
v 0.688687 0.311313 1.013928
v 0.729868 0.270132 1.013928
v -0.729868 0.270132 1.013928
v -0.729868 1.729868 1.013928
v 0.729868 1.729868 1.013928
v 0.757750 0.242250 1.013928
v -0.660804 0.339196 1.013928
v -0.688687 1.688687 1.013928
v 0.660804 1.660804 1.013928
v 0.660804 0.339196 1.013928
v -0.729868 0.270132 1.024450
v -0.688687 0.311313 1.024450
v -0.688687 1.688687 1.024450
v -0.729868 1.729868 1.024450
v 0.729868 1.729868 1.024450
v 0.688687 1.688687 1.024450
v 0.688687 0.311313 1.024450
v 0.729868 0.270132 1.024450
vt 0.673310 0.684536
vt 0.673310 0.701690
vt 0.673310 0.701690
vt 0.580641 0.794359
vt 0.419359 0.955641
vt 0.419359 0.794359
vt 0.625000 0.225859
vt 0.375000 0.250000
vt 0.375000 0.225859
vt 0.375000 0.722040
vt 0.125000 0.750000
vt 0.125000 0.722040
vt 0.625000 0.722040
vt 0.375000 0.750000
vt 0.625000 0.250000
vt 0.375000 0.500000
vt 0.855740 0.730740
vt 0.625000 0.750000
vt 0.644260 0.730740
vt 0.644260 0.707088
vt 0.855740 0.519260
vt 0.875000 0.524141
vt 0.855740 0.539681
vt 0.644260 0.519260
vt 0.875000 0.500000
vt 0.839507 0.535493
vt 0.839507 0.552780
vt 0.839507 0.552780
vt 0.644260 0.539681
vt 0.644260 0.539681
vt 0.644260 0.519260
vt 0.660493 0.714507
vt 0.660493 0.694486
vt 0.660493 0.694486
vt 0.839507 0.714507
vt 0.644260 0.730740
vt 0.660493 0.714507
vt 0.644260 0.707088
vt 0.839507 0.535493
vt 0.855740 0.539681
vt 0.660493 0.535493
vt 0.855740 0.519260
vt 0.839507 0.714507
vt 0.855740 0.707088
vt 0.855740 0.707088
vt 0.660493 0.535493
vt 0.855740 0.730740
vt 0.826690 0.701690
vt 0.826690 0.548310
vt 0.826690 0.563121
vt 0.673310 0.548310
vt 0.839507 0.694486
vt 0.665079 0.660825
vt 0.668725 0.657995
vt 0.668725 0.657995
vt 0.660493 0.552780
vt 0.660493 0.552780
vt 0.875000 0.722040
vt 0.875000 0.750000
vt 0.625000 0.524141
vt 0.375000 0.524141
vt 0.125000 0.524141
vt 0.625000 0.000000
vt 0.375000 0.027960
vt 0.375000 0.000000
vt 0.673310 0.548310
vt 0.673310 0.563121
vt 0.673310 0.563121
vt 0.125000 0.500000
vt 0.625000 0.500000
vt 0.831276 0.589539
vt 0.831276 0.657995
vt 0.831276 0.657995
vt 0.839507 0.694486
vt 0.397019 0.092961
vt 0.509650 0.178285
vt 0.826690 0.548310
vt 0.673310 0.548310
vt 0.826690 0.684536
vt 0.673310 0.684536
vt 0.826690 0.701690
vt 0.826690 0.684536
vt 0.826690 0.684536
vt 0.826690 0.563121
vt 0.673310 0.701690
vt 0.673310 0.684536
vt 0.826690 0.563121
vt 0.673310 0.563121
vt 0.826690 0.548310
vt 0.826690 0.701690
vt 0.662497 0.567553
vt 0.671307 0.672942
vt 0.837503 0.679781
vt 0.828693 0.672941
vt 0.662497 0.679781
vt 0.837503 0.567553
vt 0.828694 0.574662
vt 0.671307 0.574662
vt 0.665079 0.586597
vt 0.834921 0.660825
vt 0.834921 0.586597
vt 0.668725 0.589539
vt 0.831920 0.646801
vt 0.834277 0.648631
vt 0.834277 0.648631
vt 0.834277 0.598812
vt 0.834277 0.598812
vt 0.668725 0.589539
vt 0.665079 0.586597
vt 0.834921 0.586597
vt 0.834921 0.660825
vt 0.665079 0.660825
vt 0.831276 0.589539
vt 0.665723 0.598812
vt 0.668080 0.646801
vt 0.665723 0.648631
vt 0.831920 0.600714
vt 0.668080 0.600714
vt 0.668080 0.600714
vt 0.665723 0.648631
vt 0.665723 0.598812
vt 0.831920 0.600714
vt 0.831920 0.646801
vt 0.668080 0.646801
vt 0.575417 0.201805
vt 0.540393 0.122591
vt 0.625000 0.027960
vt 0.519321 0.157073
vt 0.519680 0.172458
vt 0.498906 0.099044
vt 0.495727 0.109105
vt 0.506133 0.087739
vt 0.509521 0.136553
vt 0.513307 0.125456
vt 0.513923 0.128689
vt 0.512528 0.121357
vt 0.505148 0.121101
vt 0.580641 0.955641
vt 0.507087 0.127953
vt 0.596679 0.971679
vt 0.375000 1.000000
vt 0.403321 0.971679
vt 0.403321 0.778321
vt 0.596679 0.778321
vt 0.625000 1.000000
vt 0.596679 0.971679
vt 0.419359 0.794359
vt 0.596679 0.778321
vt 0.419359 0.955641
vt 0.594719 0.780281
vt 0.405281 0.780281
vt 0.405281 0.780281
vt 0.405281 0.969719
vt 0.405281 0.969719
vt 0.417399 0.792399
vt 0.582601 0.792399
vt 0.582601 0.792399
vt 0.417399 0.957601
vt 0.417399 0.792399
vt 0.580641 0.794359
vt 0.403321 0.971679
vt 0.403321 0.778321
vt 0.580641 0.955641
vt 0.594719 0.969719
vt 0.582601 0.957601
vt 0.586086 0.788914
vt 0.586086 0.961086
vt 0.586086 0.961086
vt 0.591233 0.783767
vt 0.408767 0.783767
vt 0.408767 0.783767
vt 0.408767 0.966233
vt 0.408767 0.966233
vt 0.413914 0.788914
vt 0.586086 0.788914
vt 0.582601 0.957601
vt 0.417399 0.957601
vt 0.594719 0.780281
vt 0.594719 0.969719
vt 0.591233 0.966233
vt 0.413914 0.961086
vt 0.413914 0.961086
vt 0.413914 0.788914
vt 0.591233 0.783767
vt 0.591233 0.966233
vn 0.0000 0.0000 1.0000
vn -1.0000 0.0000 0.0000
vn 0.0000 -1.0000 0.0000
vn 1.0000 0.0000 0.0000
vn 0.0000 0.0000 -1.0000
vn 0.0000 1.0000 0.0000
vn 0.0428 0.0000 -0.9991
vn 0.0428 0.0000 0.9991
vn 0.0444 0.0000 0.9990
vn -0.0428 0.0000 -0.9991
vn -0.0444 0.0000 0.9990
vn 0.0444 0.0000 -0.9990
vn -0.0428 0.0000 0.9991
vn -0.0444 0.0000 -0.9990
vn -0.4112 -0.5683 -0.7127
vn -0.3707 0.1499 0.9166
vn -0.3859 0.0441 -0.9215
vn -0.3946 0.8841 0.2502
vn -0.3209 0.3189 0.8918
vn -0.1453 -0.9520 -0.2694
vn -0.0596 -0.9424 0.3292
vn -0.3321 -0.9266 -0.1763
vn -0.5989 -0.0354 -0.8001
vn -0.4861 -0.1962 0.8516
vn -0.2001 -0.7319 -0.6513
vn -0.2960 0.9364 0.1885
vn -0.2164 0.9394 0.2658
vn -0.2162 -0.9592 -0.1824
vn -0.3594 -0.8979 -0.2541
vn -0.2595 -0.9293 -0.2630
vn -0.0106 0.0000 0.9999
vn 0.0106 0.0000 0.9999
vn 0.0000 0.0105 0.9999
vn 0.0000 -0.0105 0.9999
vn -0.0105 0.0000 0.9999
vn 0.0105 0.0000 0.9999
usemtl Material
s off
f 76/1/1 57/2/1 3/3/1
f 134/4/1 132/5/1 4/6/1
f 43/7/2 6/8/2 50/9/2
f 32/10/3 128/11/3 29/12/3
f 30/13/4 131/14/4 32/10/4
f 12/15/5 2/16/5 6/8/5
f 14/17/6 130/18/6 13/19/6
f 13/19/6 30/13/6 33/20/6
f 16/21/6 43/22/6 45/23/6
f 15/24/6 12/25/6 16/21/6
f 28/26/2 48/27/2 79/28/2
f 15/24/2 54/29/2 52/30/2
f 16/21/1 19/31/1 15/24/1
f 25/32/4 39/33/4 74/34/4
f 22/35/6 17/36/6 21/37/6
f 21/37/6 37/38/6 39/33/6
f 24/39/6 47/40/6 48/27/6
f 23/41/6 20/42/6 24/39/6
f 26/43/1 21/37/1 25/32/1
f 14/17/4 38/44/4 34/45/4
f 27/46/5 24/39/5 28/26/5
f 13/19/5 18/47/5 14/17/5
f 7/48/6 25/32/6 3/3/6
f 3/3/6 74/34/6 76/1/6
f 5/49/6 79/28/6 80/50/6
f 1/51/6 28/26/6 5/49/6
f 7/48/6 78/52/6 26/43/6
f 35/53/7 100/54/7 41/55/7
f 34/45/4 47/40/4 45/23/4
f 22/35/6 38/44/6 18/47/6
f 55/56/6 37/38/6 54/29/6
f 74/34/4 55/56/4 73/57/4
f 33/20/2 17/36/2 13/19/2
f 78/52/2 22/35/2 26/43/2
f 14/17/6 31/58/6 129/59/6
f 52/30/6 30/13/6 51/60/6
f 51/60/4 32/10/4 44/61/4
f 44/61/3 29/12/3 50/62/3
f 129/63/2 29/64/2 128/65/2
f 5/49/1 62/66/1 1/51/1
f 1/51/1 63/67/1 75/68/1
f 2/16/3 50/62/3 6/69/3
f 11/70/4 44/61/4 2/16/4
f 15/24/6 51/60/6 11/70/6
f 73/57/4 23/41/4 27/46/4
f 23/41/6 54/29/6 19/31/6
f 45/23/4 20/42/4 16/21/4
f 1/51/6 73/57/6 27/46/6
f 49/71/2 101/72/2 42/73/2
f 48/27/6 38/44/6 40/74/6
f 52/30/2 37/38/2 33/20/2
f 79/28/2 40/74/2 78/52/2
f 45/23/6 31/58/6 34/45/6
f 116/75/2 114/76/2 50/9/2
f 61/77/1 70/78/1 62/66/1
f 63/67/6 64/79/6 59/80/6
f 58/81/4 71/82/4 64/79/4
f 7/48/1 64/79/1 77/83/1
f 80/50/1 61/77/1 5/49/1
f 3/3/1 58/81/1 7/48/1
f 77/83/1 60/84/1 80/50/1
f 75/68/1 59/80/1 76/1/1
f 71/82/6 65/85/6 67/86/6
f 70/78/6 68/87/6 72/88/6
f 59/80/2 65/85/2 57/2/2
f 62/66/2 72/88/2 63/67/2
f 64/79/1 67/86/1 59/80/1
f 60/84/4 69/89/4 61/77/4
f 57/2/5 66/90/5 58/81/5
f 63/67/5 68/87/5 60/84/5
f 81/91/6 74/34/6 73/57/6
f 84/92/6 75/68/6 76/1/6
f 86/93/6 77/83/6 85/94/6
f 82/95/6 76/1/6 74/34/6
f 87/96/6 78/52/6 86/93/6
f 85/94/6 80/50/6 88/97/6
f 81/91/6 75/68/6 83/98/6
f 87/96/6 80/50/6 79/28/6
f 53/99/6 82/95/6 81/91/6
f 41/55/6 83/98/6 84/92/6
f 36/100/6 85/94/6 42/73/6
f 35/53/6 84/92/6 82/95/6
f 46/101/6 86/93/6 36/100/6
f 42/73/6 88/97/6 49/71/6
f 53/99/6 83/98/6 56/102/6
f 46/101/6 88/97/6 87/96/6
f 93/103/8 110/104/8 94/105/8
f 94/105/2 111/106/2 95/107/2
f 41/55/4 99/108/4 56/102/4
f 56/102/9 97/109/9 53/99/9
f 36/100/4 103/110/4 46/101/4
f 42/73/10 102/111/10 36/100/10
f 53/99/2 98/112/2 35/53/2
f 46/101/11 104/113/11 49/71/11
f 89/114/6 98/112/6 97/109/6
f 92/115/6 99/108/6 100/54/6
f 94/105/6 101/72/6 93/103/6
f 90/116/6 100/54/6 98/112/6
f 95/107/6 102/111/6 94/105/6
f 93/103/6 104/113/6 96/117/6
f 89/114/6 99/108/6 91/118/6
f 95/107/6 104/113/6 103/110/6
f 107/119/6 106/120/6 105/121/6
f 112/122/6 110/104/6 109/123/6
f 89/114/4 106/120/4 90/116/4
f 95/107/12 112/122/12 96/117/12
f 96/117/4 109/123/4 93/103/4
f 90/116/13 108/124/13 92/115/13
f 92/115/2 107/119/2 91/118/2
f 91/118/14 105/121/14 89/114/14
f 113/125/2 125/126/2 31/127/2
f 118/128/15 113/125/15 119/129/15
f 116/75/16 120/130/16 115/131/16
f 117/132/17 120/130/17 116/75/17
f 123/133/18 119/129/18 114/76/18
f 114/76/19 119/129/19 113/125/19
f 123/133/20 118/128/20 119/129/20
f 123/133/21 126/134/21 122/135/21
f 121/136/22 120/130/22 117/132/22
f 121/136/23 125/126/23 126/134/23
f 126/134/24 125/126/24 122/135/24
f 126/134/25 124/137/25 121/136/25
f 76/1/1 59/80/1 57/2/1
f 134/4/1 10/138/1 132/5/1
f 43/7/2 12/15/2 6/8/2
f 32/10/3 131/14/3 128/11/3
f 30/13/4 130/18/4 131/14/4
f 12/15/5 11/70/5 2/16/5
f 14/17/6 129/59/6 130/18/6
f 13/19/6 130/18/6 30/13/6
f 16/21/6 12/25/6 43/22/6
f 15/24/6 11/70/6 12/25/6
f 28/26/2 24/39/2 48/27/2
f 15/24/2 19/31/2 54/29/2
f 16/21/1 20/42/1 19/31/1
f 25/32/4 21/37/4 39/33/4
f 22/35/6 18/47/6 17/36/6
f 21/37/6 17/36/6 37/38/6
f 24/39/6 20/42/6 47/40/6
f 23/41/6 19/31/6 20/42/6
f 26/43/1 22/35/1 21/37/1
f 14/17/4 18/47/4 38/44/4
f 27/46/5 23/41/5 24/39/5
f 13/19/5 17/36/5 18/47/5
f 7/48/6 26/43/6 25/32/6
f 3/3/6 25/32/6 74/34/6
f 5/49/6 28/26/6 79/28/6
f 1/51/6 27/46/6 28/26/6
f 7/48/6 77/83/6 78/52/6
f 35/53/7 98/112/7 100/54/7
f 34/45/4 38/44/4 47/40/4
f 22/35/6 40/74/6 38/44/6
f 55/56/6 39/33/6 37/38/6
f 74/34/4 39/33/4 55/56/4
f 33/20/2 37/38/2 17/36/2
f 78/52/2 40/74/2 22/35/2
f 14/17/6 34/45/6 31/58/6
f 52/30/6 33/20/6 30/13/6
f 51/60/4 30/13/4 32/10/4
f 44/61/3 32/10/3 29/12/3
f 129/63/2 31/127/2 29/64/2
f 5/49/1 61/77/1 62/66/1
f 1/51/1 62/66/1 63/67/1
f 2/16/3 44/61/3 50/62/3
f 11/70/4 51/60/4 44/61/4
f 15/24/6 52/30/6 51/60/6
f 73/57/4 55/56/4 23/41/4
f 23/41/6 55/56/6 54/29/6
f 45/23/4 47/40/4 20/42/4
f 1/51/6 75/68/6 73/57/6
f 49/71/2 104/113/2 101/72/2
f 48/27/6 47/40/6 38/44/6
f 52/30/2 54/29/2 37/38/2
f 79/28/2 48/27/2 40/74/2
f 45/23/6 43/22/6 31/58/6
f 29/64/2 31/127/2 117/132/2
f 116/75/2 115/131/2 114/76/2
f 29/64/2 117/132/2 116/75/2
f 113/125/2 43/7/2 50/9/2
f 114/76/2 113/125/2 50/9/2
f 50/9/2 29/64/2 116/75/2
f 61/77/1 69/89/1 70/78/1
f 63/67/6 60/84/6 64/79/6
f 58/81/4 66/90/4 71/82/4
f 7/48/1 58/81/1 64/79/1
f 80/50/1 60/84/1 61/77/1
f 3/3/1 57/2/1 58/81/1
f 77/83/1 64/79/1 60/84/1
f 75/68/1 63/67/1 59/80/1
f 71/82/6 66/90/6 65/85/6
f 70/78/6 69/89/6 68/87/6
f 59/80/2 67/86/2 65/85/2
f 62/66/2 70/78/2 72/88/2
f 64/79/1 71/82/1 67/86/1
f 60/84/4 68/87/4 69/89/4
f 57/2/5 65/85/5 66/90/5
f 63/67/5 72/88/5 68/87/5
f 81/91/6 82/95/6 74/34/6
f 84/92/6 83/98/6 75/68/6
f 86/93/6 78/52/6 77/83/6
f 82/95/6 84/92/6 76/1/6
f 87/96/6 79/28/6 78/52/6
f 85/94/6 77/83/6 80/50/6
f 81/91/6 73/57/6 75/68/6
f 87/96/6 88/97/6 80/50/6
f 53/99/6 35/53/6 82/95/6
f 41/55/6 56/102/6 83/98/6
f 36/100/6 86/93/6 85/94/6
f 35/53/6 41/55/6 84/92/6
f 46/101/6 87/96/6 86/93/6
f 42/73/6 85/94/6 88/97/6
f 53/99/6 81/91/6 83/98/6
f 46/101/6 49/71/6 88/97/6
f 93/103/8 109/123/8 110/104/8
f 94/105/2 110/104/2 111/106/2
f 41/55/4 100/54/4 99/108/4
f 56/102/9 99/108/9 97/109/9
f 36/100/4 102/111/4 103/110/4
f 42/73/10 101/72/10 102/111/10
f 53/99/2 97/109/2 98/112/2
f 46/101/11 103/110/11 104/113/11
f 89/114/6 90/116/6 98/112/6
f 92/115/6 91/118/6 99/108/6
f 94/105/6 102/111/6 101/72/6
f 90/116/6 92/115/6 100/54/6
f 95/107/6 103/110/6 102/111/6
f 93/103/6 101/72/6 104/113/6
f 89/114/6 97/109/6 99/108/6
f 95/107/6 96/117/6 104/113/6
f 107/119/6 108/124/6 106/120/6
f 112/122/6 111/106/6 110/104/6
f 89/114/4 105/121/4 106/120/4
f 95/107/12 111/106/12 112/122/12
f 96/117/4 112/122/4 109/123/4
f 90/116/13 106/120/13 108/124/13
f 92/115/2 108/124/2 107/119/2
f 91/118/14 107/119/14 105/121/14
f 31/127/2 43/7/2 113/125/2
f 113/125/2 118/128/2 125/126/2
f 118/128/2 122/135/2 125/126/2
f 125/126/2 121/136/2 117/132/2
f 125/126/2 117/132/2 31/127/2
f 114/76/26 115/131/26 123/133/26
f 115/131/27 120/130/27 124/137/27
f 123/133/27 115/131/27 127/139/27
f 124/137/27 127/139/27 115/131/27
f 123/133/28 122/135/28 118/128/28
f 123/133/29 127/139/29 126/134/29
f 121/136/30 124/137/30 120/130/30
f 126/134/29 127/139/29 124/137/29
f 133/140/31 128/141/31 8/142/31
f 135/143/32 130/18/32 9/144/32
f 9/144/33 129/145/33 133/140/33
f 8/142/34 131/14/34 135/143/34
f 8/142/2 145/146/2 133/140/2
f 132/5/6 151/147/6 4/6/6
f 133/140/6 146/148/6 9/144/6
f 10/138/4 148/149/4 132/5/4
f 138/150/2 163/151/2 139/152/2
f 139/152/6 152/153/6 136/154/6
f 143/155/4 166/156/4 142/157/4
f 140/158/3 167/159/3 143/155/3
f 4/6/2 150/160/2 134/4/2
f 135/143/3 144/161/3 8/142/3
f 9/144/4 147/162/4 135/143/4
f 134/4/3 149/163/3 10/138/3
f 137/164/1 144/161/1 136/154/1
f 139/152/1 146/148/1 138/150/1
f 138/150/1 145/146/1 137/164/1
f 136/154/1 147/162/1 139/152/1
f 140/158/1 149/163/1 141/165/1
f 142/157/1 151/147/1 143/155/1
f 141/165/1 150/160/1 142/157/1
f 143/155/1 148/149/1 140/158/1
f 157/166/3 170/167/3 165/168/3
f 162/169/4 175/170/4 159/171/4
f 159/171/3 168/172/3 160/173/3
f 158/174/2 173/175/2 157/166/2
f 142/157/6 154/176/6 141/165/6
f 141/165/2 164/177/2 140/158/2
f 137/164/3 156/178/3 138/150/3
f 136/154/4 155/179/4 137/164/4
f 161/180/1 152/153/1 160/173/1
f 159/171/1 156/178/1 162/169/1
f 162/169/1 155/179/1 161/180/1
f 160/173/1 163/151/1 159/171/1
f 153/181/1 154/176/1 165/168/1
f 157/166/1 167/159/1 158/174/1
f 165/168/1 166/156/1 157/166/1
f 158/174/1 164/177/1 153/181/1
f 170/167/1 168/172/1 169/182/1
f 174/183/1 172/184/1 173/175/1
f 173/175/1 171/185/1 170/167/1
f 169/182/1 175/170/1 174/183/1
f 165/168/4 169/182/4 153/181/4
f 161/180/6 172/184/6 162/169/6
f 160/173/2 171/185/2 161/180/2
f 153/181/6 174/183/6 158/174/6
f 133/140/35 129/145/35 128/141/35
f 135/143/36 131/14/36 130/18/36
f 9/144/33 130/18/33 129/145/33
f 8/142/34 128/141/34 131/14/34
f 8/142/2 144/161/2 145/146/2
f 132/5/6 148/149/6 151/147/6
f 133/140/6 145/146/6 146/148/6
f 10/138/4 149/163/4 148/149/4
f 138/150/2 156/178/2 163/151/2
f 139/152/6 163/151/6 152/153/6
f 143/155/4 167/159/4 166/156/4
f 140/158/3 164/177/3 167/159/3
f 4/6/2 151/147/2 150/160/2
f 135/143/3 147/162/3 144/161/3
f 9/144/4 146/148/4 147/162/4
f 134/4/3 150/160/3 149/163/3
f 137/164/1 145/146/1 144/161/1
f 139/152/1 147/162/1 146/148/1
f 138/150/1 146/148/1 145/146/1
f 136/154/1 144/161/1 147/162/1
f 140/158/1 148/149/1 149/163/1
f 142/157/1 150/160/1 151/147/1
f 141/165/1 149/163/1 150/160/1
f 143/155/1 151/147/1 148/149/1
f 157/166/3 173/175/3 170/167/3
f 162/169/4 172/184/4 175/170/4
f 159/171/3 175/170/3 168/172/3
f 158/174/2 174/183/2 173/175/2
f 142/157/6 166/156/6 154/176/6
f 141/165/2 154/176/2 164/177/2
f 137/164/3 155/179/3 156/178/3
f 136/154/4 152/153/4 155/179/4
f 161/180/1 155/179/1 152/153/1
f 159/171/1 163/151/1 156/178/1
f 162/169/1 156/178/1 155/179/1
f 160/173/1 152/153/1 163/151/1
f 153/181/1 164/177/1 154/176/1
f 157/166/1 166/156/1 167/159/1
f 165/168/1 154/176/1 166/156/1
f 158/174/1 167/159/1 164/177/1
f 170/167/1 171/185/1 168/172/1
f 174/183/1 175/170/1 172/184/1
f 173/175/1 172/184/1 171/185/1
f 169/182/1 168/172/1 175/170/1
f 165/168/4 170/167/4 169/182/4
f 161/180/6 171/185/6 172/184/6
f 160/173/2 168/172/2 171/185/2
f 153/181/6 169/182/6 174/183/6
