# Blender v3.1.2 OBJ File: ''
# www.blender.org
mtllib DishirackYellow.mtl
o Yollow_Cube.001
v 0.292651 0.202965 -0.475048
v 0.292651 0.202965 0.475048
v -0.292651 0.202965 -0.475048
v -0.292651 0.202965 0.475048
v -0.253028 0.202965 -0.145427
v -0.264274 0.202965 -0.097378
v -0.278075 0.202965 -0.096355
v -0.279609 0.202965 -0.067730
v -0.268363 0.202965 -0.067219
v -0.266830 0.202965 -0.088688
v -0.223892 0.202965 -0.088177
v -0.221336 0.202965 -0.068241
v -0.210090 0.202965 -0.069263
v -0.214179 0.202965 -0.098911
v -0.228492 0.202965 -0.099422
v -0.233604 0.202965 -0.145938
v -0.246894 0.202965 -0.138271
v -0.239738 0.202965 -0.138782
v -0.234115 0.202965 -0.103512
v -0.255584 0.202965 -0.101978
v -0.196546 0.202965 -0.080195
v -0.155345 0.202965 -0.113451
v -0.184532 0.202965 -0.071819
v -0.167152 0.202965 -0.071308
v -0.154884 0.202965 -0.082042
v -0.155395 0.202965 -0.131626
v -0.163063 0.202965 -0.143383
v -0.191177 0.202965 -0.143894
v -0.200378 0.202965 -0.130092
v -0.187228 0.202965 -0.087717
v -0.164066 0.202965 -0.106411
v -0.188621 0.202965 -0.128048
v -0.181976 0.202965 -0.132648
v -0.167152 0.202965 -0.133159
v -0.164085 0.202965 -0.130092
v -0.162551 0.202965 -0.089710
v -0.166130 0.202965 -0.082554
v -0.180442 0.202965 -0.083065
v -0.140805 0.202965 -0.125186
v -0.125591 0.202965 -0.137466
v -0.141594 0.202965 -0.072330
v -0.066452 0.202965 -0.070286
v -0.067985 0.202965 -0.141338
v -0.083832 0.202965 -0.140316
v -0.082809 0.202965 -0.085110
v -0.102234 0.202965 -0.084087
v -0.101211 0.202965 -0.139293
v -0.116547 0.202965 -0.137759
v -0.115013 0.202965 -0.083576
v -0.126259 0.202965 -0.084598
v -0.140571 0.202965 -0.140827
v -0.051628 0.202965 -0.141338
v -0.049072 0.202965 -0.071308
v -0.035271 0.202965 -0.070797
v -0.000511 0.202965 -0.131115
v -0.000511 0.202965 -0.067730
v 0.014313 0.202965 -0.069774
v 0.010735 0.202965 -0.144405
v -0.007156 0.202965 -0.144405
v -0.036293 0.202965 -0.094311
v -0.034759 0.202965 -0.143383
v 0.026602 0.202965 -0.087669
v 0.043525 0.202965 -0.112309
v 0.064041 0.202965 -0.142181
v 0.025047 0.202965 -0.142871
v 0.053161 0.202965 -0.155651
v 0.038338 0.202965 -0.143383
v 0.027092 0.202965 -0.070286
v 0.042427 0.202965 -0.073353
v 0.056740 0.202965 -0.105557
v 0.074631 0.202965 -0.129070
v 0.050522 0.202965 -0.122497
v 0.057809 0.202965 -0.133107
v 0.042427 0.202965 -0.129581
v 0.053161 0.202965 -0.138271
v 0.062362 0.202965 -0.128048
v 0.054695 0.202965 -0.118847
v 0.098144 0.202965 -0.147472
v 0.065429 0.202965 -0.070797
v 0.085365 0.202965 -0.071308
v 0.095588 0.202965 -0.101978
v 0.118080 0.202965 -0.101978
v 0.128814 0.202965 -0.071819
v 0.144149 0.202965 -0.071308
v 0.111435 0.202965 -0.148494
v 0.102234 0.202965 -0.137249
v 0.096100 0.202965 -0.112713
v 0.116546 0.202965 -0.111690
v 0.109390 0.202965 -0.138271
v 0.150517 0.202965 -0.088621
v 0.162545 0.202965 -0.121322
v 0.151306 0.202965 -0.146961
v 0.164596 0.202965 -0.148494
v 0.150283 0.202965 -0.071308
v 0.167663 0.202965 -0.073353
v 0.162551 0.202965 -0.104534
v 0.189643 0.202965 -0.069774
v 0.208557 0.202965 -0.070286
v 0.172775 0.202965 -0.112713
v 0.206512 0.202965 -0.146450
v 0.189132 0.202965 -0.147983
vt 0.816937 0.591655
vt 0.807093 0.591773
vt 0.852466 0.514914
vt 0.720111 0.608475
vt 0.647534 0.735086
vt 0.704898 0.608357
vt 0.836445 0.592958
vt 0.831971 0.601013
vt 0.833939 0.592839
vt 0.813715 0.594261
vt 0.816042 0.595327
vt 0.807445 0.600341
vt 0.813178 0.605751
vt 0.806914 0.604211
vt 0.779352 0.592484
vt 0.773804 0.592247
vt 0.647534 0.514914
vt 0.729759 0.594154
vt 0.735145 0.594971
vt 0.732311 0.596613
vt 0.728165 0.595327
vt 0.715637 0.590825
vt 0.710984 0.590589
vt 0.711699 0.592958
vt 0.716353 0.598880
vt 0.709194 0.599117
vt 0.793973 0.593144
vt 0.847899 0.609304
vt 0.847362 0.602671
vt 0.842530 0.602434
vt 0.838593 0.591299
vt 0.831792 0.591181
vt 0.830002 0.601960
vt 0.820158 0.594853
vt 0.824991 0.602079
vt 0.799218 0.592365
vt 0.804391 0.598709
vt 0.799300 0.595990
vt 0.804408 0.594498
vt 0.823559 0.608949
vt 0.818817 0.606416
vt 0.827496 0.609186
vt 0.828391 0.604566
vt 0.843962 0.609423
vt 0.843425 0.604448
vt 0.814610 0.608357
vt 0.808525 0.608475
vt 0.799576 0.608238
vt 0.804229 0.605988
vt 0.852466 0.735086
vt 0.768076 0.592247
vt 0.767182 0.608475
vt 0.773267 0.608712
vt 0.750179 0.609305
vt 0.750179 0.594616
vt 0.762349 0.608594
vt 0.693088 0.596885
vt 0.683779 0.590707
vt 0.677694 0.591062
vt 0.689507 0.598881
vt 0.676978 0.608712
vt 0.740514 0.608712
vt 0.740686 0.604684
vt 0.744989 0.608831
vt 0.683600 0.608831
vt 0.693086 0.600776
vt 0.691296 0.608002
vt 0.697381 0.608475
vt 0.697299 0.604463
vt 0.699529 0.608475
vt 0.727091 0.608594
vt 0.735145 0.608001
vt 0.708657 0.601368
vt 0.716532 0.601368
vt 0.839488 0.601368
vt 0.815554 0.604673
vt 0.807451 0.594853
vt 0.808525 0.594142
vt 0.808167 0.605869
vt 0.762170 0.591773
vt 0.762707 0.603145
vt 0.752506 0.591536
vt 0.746242 0.591536
vt 0.741230 0.591892
vt 0.736577 0.591773
vt 0.731387 0.588930
vt 0.727577 0.592052
vt 0.794207 0.605396
vt 0.790807 0.593076
vt 0.790269 0.605632
vt 0.785437 0.592721
vt 0.785795 0.605514
vt 0.778994 0.605277
vt 0.731387 0.592958
vt 0.730850 0.597459
vt 0.734760 0.598974
vt 0.730134 0.600539
vt 0.723870 0.595090
vt 0.692370 0.590589
vt 0.697023 0.590944
vt 0.714205 0.593195
vn 0.0000 1.0000 0.0000
usemtl Material
s off
f 28/1/1 27/2/1 3/3/1
f 80/4/1 2/5/1 83/6/1
f 17/7/1 19/8/1 18/9/1
f 33/10/1 32/11/1 31/12/1
f 38/13/1 36/14/1 31/12/1
f 44/15/1 43/16/1 1/17/1
f 73/18/1 74/19/1 72/20/1
f 72/20/1 76/21/1 73/18/1
f 1/17/1 78/22/1 85/23/1
f 89/24/1 87/25/1 88/26/1
f 40/27/1 1/17/1 3/3/1
f 3/3/1 8/28/1 7/29/1
f 7/29/1 6/30/1 5/31/1
f 16/32/1 15/33/1 29/34/1
f 15/33/1 14/35/1 29/34/1
f 3/3/1 7/29/1 5/31/1
f 3/3/1 5/31/1 16/32/1
f 51/36/1 40/27/1 3/3/1
f 22/37/1 39/38/1 26/39/1
f 39/38/1 51/36/1 26/39/1
f 3/3/1 16/32/1 28/1/1
f 14/35/1 13/40/1 21/41/1
f 14/35/1 21/41/1 29/34/1
f 26/39/1 51/36/1 27/2/1
f 51/36/1 3/3/1 27/2/1
f 16/32/1 29/34/1 28/1/1
f 12/42/1 11/43/1 9/44/1
f 11/43/1 10/45/1 9/44/1
f 23/46/1 21/41/1 13/40/1
f 24/47/1 23/46/1 13/40/1
f 39/38/1 22/37/1 41/48/1
f 22/37/1 25/49/1 41/48/1
f 24/47/1 13/40/1 4/50/1
f 13/40/1 12/42/1 4/50/1
f 41/48/1 25/49/1 24/47/1
f 52/51/1 43/16/1 53/52/1
f 43/16/1 42/53/1 53/52/1
f 42/53/1 41/48/1 4/50/1
f 41/48/1 24/47/1 4/50/1
f 56/54/1 55/55/1 54/56/1
f 54/56/1 53/52/1 42/53/1
f 12/42/1 9/44/1 4/50/1
f 8/28/1 3/3/1 4/50/1
f 9/44/1 8/28/1 4/50/1
f 1/17/1 91/57/1 101/58/1
f 100/59/1 99/60/1 98/61/1
f 1/17/1 101/58/1 100/59/1
f 4/50/1 2/5/1 56/54/1
f 42/53/1 4/50/1 56/54/1
f 56/54/1 54/56/1 42/53/1
f 2/5/1 1/17/1 98/61/1
f 1/17/1 100/59/1 98/61/1
f 68/62/1 62/63/1 57/64/1
f 57/64/1 56/54/1 68/62/1
f 56/54/1 2/5/1 68/62/1
f 2/5/1 98/61/1 97/65/1
f 97/65/1 96/66/1 95/67/1
f 94/68/1 90/69/1 84/70/1
f 97/65/1 95/67/1 94/68/1
f 2/5/1 97/65/1 94/68/1
f 68/62/1 2/5/1 79/71/1
f 79/71/1 69/72/1 68/62/1
f 79/71/1 2/5/1 80/4/1
f 94/68/1 84/70/1 2/5/1
f 83/6/1 82/73/1 80/4/1
f 82/73/1 81/74/1 80/4/1
f 84/70/1 83/6/1 2/5/1
f 17/7/1 20/75/1 19/8/1
f 30/76/1 31/12/1 32/11/1
f 31/12/1 35/77/1 33/10/1
f 35/77/1 34/78/1 33/10/1
f 31/12/1 30/76/1 38/13/1
f 38/13/1 37/79/1 36/14/1
f 43/16/1 52/51/1 61/80/1
f 61/80/1 60/81/1 59/82/1
f 58/83/1 57/64/1 62/63/1
f 58/83/1 62/63/1 65/84/1
f 65/84/1 67/85/1 66/86/1
f 66/86/1 64/87/1 1/17/1
f 40/27/1 50/88/1 48/89/1
f 50/88/1 49/90/1 48/89/1
f 66/86/1 1/17/1 61/80/1
f 1/17/1 40/27/1 47/91/1
f 47/91/1 40/27/1 48/89/1
f 58/83/1 65/84/1 66/86/1
f 59/82/1 58/83/1 66/86/1
f 47/91/1 46/92/1 45/93/1
f 1/17/1 47/91/1 44/15/1
f 61/80/1 59/82/1 66/86/1
f 43/16/1 61/80/1 1/17/1
f 47/91/1 45/93/1 44/15/1
f 73/18/1 75/94/1 74/19/1
f 72/20/1 77/95/1 76/21/1
f 63/96/1 69/72/1 70/97/1
f 69/72/1 79/71/1 70/97/1
f 1/17/1 64/87/1 78/22/1
f 64/87/1 71/98/1 78/22/1
f 71/98/1 70/97/1 79/71/1
f 71/98/1 79/71/1 78/22/1
f 93/99/1 91/57/1 1/17/1
f 84/70/1 90/69/1 85/23/1
f 90/69/1 92/100/1 85/23/1
f 92/100/1 93/99/1 85/23/1
f 93/99/1 1/17/1 85/23/1
f 89/24/1 86/101/1 87/25/1
