# Blender v3.1.2 OBJ File: ''
# www.blender.org
mtllib DT!Quene(Brown).mtl
o Brown_Cube.024
v -0.241864 2.818725 0.162153
v -0.269274 2.880856 -0.283308
v 0.244595 2.818725 0.162153
v 0.271236 2.880856 -0.283308
v -0.241816 2.879326 -0.626275
v 0.244642 2.879326 -0.626275
v 0.003641 2.872776 0.216204
v 0.003768 2.921257 -0.659827
v 0.003923 2.980878 -0.283308
v -0.253969 2.751832 0.186510
v -0.254442 2.843661 0.094281
v -0.264577 2.864527 -0.015395
v -0.268687 2.875028 -0.147422
v -0.300216 2.789606 -0.283244
v 0.083833 2.979315 -0.283308
v 0.158216 2.968375 -0.283308
v 0.222281 2.938681 -0.283308
v 0.301054 2.789606 -0.283244
v 0.270665 2.875028 -0.147422
v 0.266674 2.864527 -0.015395
v 0.256826 2.843661 0.094281
v 0.256167 2.751832 0.186510
v -0.076444 2.871619 0.215046
v -0.149216 2.863518 0.206945
v -0.207057 2.843535 0.186963
v -0.253883 2.837779 -0.640957
v 0.083260 2.920380 -0.659108
v 0.154663 2.914243 -0.654080
v 0.210955 2.898941 -0.641675
v 0.256228 2.837779 -0.640957
v 0.256851 2.888304 -0.583105
v 0.266681 2.891517 -0.507756
v 0.270666 2.887491 -0.406074
v -0.254418 2.888304 -0.583105
v -0.264570 2.891517 -0.507756
v -0.268686 2.887491 -0.406074
v 0.210890 2.843535 0.186963
v 0.154570 2.863518 0.206945
v 0.083144 2.871619 0.215046
v -0.206991 2.898941 -0.641675
v -0.149124 2.914243 -0.654080
v -0.076328 2.920380 -0.659108
v -0.218572 2.938681 -0.283308
v -0.152577 2.968375 -0.283308
v -0.076631 2.979315 -0.283308
v 0.003385 2.774740 0.278021
v 0.003921 2.979947 -0.406618
v 0.003904 2.973425 -0.512106
v 0.003858 2.955725 -0.597325
v 0.003625 2.866467 -0.697573
v 0.003804 2.935273 0.117188
v 0.003888 2.967365 -0.008388
v 0.003919 2.979189 -0.146546
v -0.280489 2.759266 0.101235
v -0.294400 2.771210 -0.013493
v -0.299542 2.780180 -0.147140
v 0.300326 2.803344 -0.406164
v 0.295300 2.817688 -0.508828
v 0.281836 2.828395 -0.587166
v 0.300397 2.780180 -0.147140
v 0.295403 2.771210 -0.013493
v 0.281900 2.759266 0.101235
v 0.221952 2.935237 -0.147176
v 0.158106 2.966165 -0.146765
v 0.083816 2.977561 -0.146573
v 0.219651 2.923906 -0.013424
v 0.157330 2.954479 -0.010140
v 0.083693 2.965755 -0.008607
v 0.214510 2.895982 0.101491
v 0.155656 2.923496 0.111870
v 0.083415 2.933800 0.116523
v -0.210390 2.850780 -0.673283
v -0.150118 2.861425 -0.690292
v -0.076570 2.865837 -0.696663
v -0.218235 2.940922 -0.406227
v -0.152467 2.968381 -0.406482
v -0.076619 2.978501 -0.406601
v -0.215876 2.938713 -0.508980
v -0.151699 2.963120 -0.511018
v -0.076537 2.972137 -0.511970
v -0.210617 2.926517 -0.587581
v -0.150062 2.946951 -0.594024
v -0.076370 2.954628 -0.596912
v -0.299459 2.803344 -0.406164
v -0.294262 2.817688 -0.508828
v -0.280348 2.828395 -0.587166
v 0.083464 2.954628 -0.596912
v 0.083708 2.972137 -0.511970
v 0.083818 2.978501 -0.406601
v 0.155695 2.946951 -0.594024
v 0.157342 2.963120 -0.511018
v 0.158107 2.968381 -0.406482
v 0.214539 2.926517 -0.587581
v 0.219660 2.938713 -0.508980
v 0.221953 2.940922 -0.406227
v 0.083236 2.865837 -0.696663
v 0.155420 2.861425 -0.690292
v 0.214102 2.850780 -0.673283
v -0.076420 2.933800 0.116523
v -0.076552 2.965755 -0.008607
v -0.076621 2.977561 -0.146573
v -0.150101 2.923496 0.111870
v -0.151711 2.954479 -0.010140
v -0.152469 2.966165 -0.146765
v -0.210646 2.895982 0.101491
v -0.215885 2.923906 -0.013424
v -0.218236 2.935237 -0.147176
v -0.149586 2.823017 0.232474
v -0.219116 2.775601 0.217515
v 0.113804 2.812669 0.246516
v 0.212986 2.783724 0.223638
v -0.076585 2.799978 0.260218
v 0.082943 2.802068 0.258900
v -0.176940 2.804363 0.228873
v 0.182679 2.806107 0.227008
v -0.209471 2.782178 0.224586
v 0.065267 2.795996 0.263148
v 0.154750 2.826734 0.230131
v -0.104910 2.808917 0.249436
v 0.222823 2.776459 0.216413
vt 0.625000 0.000000
vt 0.562798 0.062202
vt 0.562500 0.000000
vt 0.625000 0.062500
vt 0.562934 0.122613
vt 0.625000 0.125000
vt 0.562812 0.178467
vt 0.625000 0.187500
vt 0.562609 0.221354
vt 0.603789 0.541667
vt 0.553983 0.517312
vt 0.604010 0.517525
vt 0.557787 0.496089
vt 0.625000 0.500000
vt 0.610169 0.499370
vt 0.605556 0.504781
vt 0.555077 0.503941
vt 0.553856 0.541511
vt 0.604010 0.580023
vt 0.554144 0.579801
vt 0.605556 0.629768
vt 0.555400 0.628849
vt 0.610169 0.686830
vt 0.558267 0.683288
vt 0.625000 0.750000
vt 0.561825 0.735207
vt 0.581117 0.768415
vt 0.625000 0.780683
vt 0.593765 0.795615
vt 0.581135 0.777370
vt 0.625000 0.811366
vt 0.589838 0.828895
vt 0.600822 0.810930
vt 0.646905 0.580071
vt 0.684235 0.630208
vt 0.648015 0.630153
vt 0.717038 0.580078
vt 0.683862 0.580078
vt 0.650931 0.688034
vt 0.717046 0.630208
vt 0.685141 0.688151
vt 0.646746 0.541667
vt 0.683809 0.541667
vt 0.717036 0.541667
vt 0.748480 0.580078
vt 0.748425 0.630208
vt 0.717060 0.688151
vt 0.748260 0.688151
vt 0.717049 0.750000
vt 0.686366 0.750000
vt 0.655683 0.750000
vt 0.625000 0.250000
vt 0.562500 0.286368
vt 0.562500 0.264561
vt 0.625000 0.281817
vt 0.562500 0.314741
vt 0.625000 0.313634
vt 0.562500 0.345355
vt 0.625000 0.345451
vt 0.562500 0.376657
vt 0.811459 0.515082
vt 0.843193 0.502496
vt 0.843195 0.509345
vt 0.779862 0.517266
vt 0.811445 0.504340
vt 0.843189 0.500312
vt 0.779822 0.505100
vt 0.811411 0.500543
vt 0.843195 0.529080
vt 0.875000 0.500000
vt 0.875000 0.500000
vt 0.811461 0.538195
vt 0.779868 0.541233
vt 0.748488 0.541667
vt 0.748480 0.517578
vt 0.748425 0.505208
vt 0.779718 0.500638
vt 0.747732 0.500000
vt 0.779549 0.500000
vt 0.811366 0.500000
vt 0.843183 0.500000
vt 0.875000 0.500000
vt 0.875000 0.500000
vt 0.875000 0.500000
vt 0.625000 0.250000
vt 0.562514 0.241118
vt 0.625000 0.250000
vt 0.562500 0.248826
vt 0.625000 0.250000
vt 0.562500 0.254291
vt 0.563151 0.873412
vt 0.625000 0.904549
vt 0.579565 0.904776
vt 0.717046 0.505208
vt 0.685141 0.500651
vt 0.717060 0.500651
vt 0.717038 0.517578
vt 0.684235 0.505208
vt 0.650931 0.500538
vt 0.683862 0.517578
vt 0.648015 0.505155
vt 0.748259 0.500651
vt 0.717049 0.500000
vt 0.646905 0.517572
vt 0.655683 0.500000
vt 0.686366 0.500000
vt 0.625000 0.407951
vt 0.562500 0.407557
vt 0.625000 0.438634
vt 0.562500 0.437354
vt 0.625000 0.469317
vt 0.562389 0.464835
vt 0.561229 0.485889
vt 0.779822 0.630100
vt 0.811411 0.688043
vt 0.779718 0.688138
vt 0.779862 0.579766
vt 0.811445 0.629340
vt 0.843189 0.687812
vt 0.843195 0.571845
vt 0.843193 0.627496
vt 0.779549 0.750000
vt 0.747732 0.750000
vt 0.811458 0.577582
vt 0.875000 0.562500
vt 0.875000 0.625000
vt 0.875000 0.687500
vt 0.875000 0.750000
vt 0.843183 0.750000
vt 0.811366 0.750000
vt 0.625000 0.842049
vt 0.625000 0.377268
vt 0.625000 0.250000
vt 0.625000 0.872732
vt 0.579840 0.968228
vt 0.592253 0.951446
vt 0.625000 0.968183
vt 0.576888 0.848981
vt 0.580066 0.977055
vt 0.625000 1.000000
vt 0.587236 0.917132
vt 0.625000 0.936366
vt 0.562500 1.000000
vt 0.598333 0.936431
vt 0.580900 0.842156
vn -0.9105 0.2767 0.3073
vn -0.9419 0.3027 0.1457
vn -0.9507 0.3050 0.0570
vn -0.9506 0.3093 0.0261
vn 0.9430 0.3324 0.0136
vn 0.8651 0.3828 -0.3242
vn 0.9111 0.3892 -0.1355
vn 0.9321 0.3616 -0.0222
vn 0.9539 0.2991 0.0253
vn 0.9539 0.2948 0.0554
vn 0.9457 0.2926 0.1418
vn 0.9158 0.2675 0.2997
vn 0.7541 0.3359 0.5643
vn 0.4394 0.4807 0.7588
vn 0.1532 0.5275 0.8356
vn 0.4424 0.8929 0.0833
vn 0.1513 0.9848 0.0851
vn 0.4383 0.8687 0.2307
vn 0.1517 0.9575 0.2452
vn 0.7771 0.6286 0.0302
vn 0.4360 0.8997 0.0238
vn 0.1516 0.9883 0.0161
vn 0.0204 0.9997 0.0128
vn 0.0203 0.9962 0.0853
vn 0.0202 0.9687 0.2474
vn 0.0201 0.8455 0.5337
vn 0.1531 0.8350 0.5285
vn 0.4393 0.7573 0.4833
vn 0.7531 0.5619 0.3422
vn 0.7765 0.6026 0.1844
vn 0.7830 0.6177 0.0728
vn -0.6194 0.4153 -0.6663
vn -0.3156 0.5361 -0.7829
vn -0.1048 0.5637 -0.8193
vn -0.0138 0.5671 -0.8235
vn -0.3852 0.9224 -0.0287
vn -0.1322 0.9899 -0.0508
vn -0.3551 0.9199 -0.1665
vn -0.1193 0.9741 -0.1921
vn -0.7515 0.6589 0.0320
vn -0.4103 0.9118 0.0155
vn -0.1426 0.9898 -0.0001
vn -0.0194 0.9998 -0.0066
vn -0.0179 0.9980 -0.0603
vn -0.0160 0.9793 -0.2019
vn -0.0139 0.8759 -0.4823
vn -0.1096 0.8722 -0.4767
vn -0.3284 0.8324 -0.4464
vn -0.6393 0.6941 -0.3310
vn -0.6922 0.7110 -0.1236
vn -0.7271 0.6865 -0.0023
vn -0.9466 0.3210 0.0300
vn -0.9392 0.3435 0.0004
vn -0.9213 0.3722 -0.1128
vn -0.8562 0.3745 -0.3559
vn -0.0200 0.5333 0.8457
vn 0.1115 0.9732 -0.2009
vn 0.1221 0.9907 -0.0600
vn 0.3404 0.9216 -0.1863
vn 0.3656 0.9294 -0.0494
vn 0.0140 0.8756 -0.4829
vn 0.0145 0.9790 -0.2034
vn 0.0162 0.9980 -0.0617
vn 0.0181 0.9998 -0.0076
vn 0.1350 0.9908 -0.0066
vn 0.3951 0.9186 -0.0003
vn 0.7389 0.6737 0.0103
vn 0.7085 0.7051 -0.0310
vn 0.6711 0.7248 -0.1562
vn 0.5906 0.7024 -0.3972
vn 0.3257 0.8280 -0.4565
vn 0.1086 0.8706 -0.4798
vn 0.0139 0.5670 -0.8236
vn 0.1067 0.5633 -0.8193
vn 0.3233 0.5339 -0.7813
vn 0.6316 0.4089 -0.6587
vn -0.1494 0.9580 0.2448
vn -0.1495 0.9852 0.0844
vn -0.4349 0.8714 0.2270
vn -0.4321 0.8979 0.0837
vn -0.0199 0.8455 0.5336
vn -0.0198 0.9687 0.2476
vn -0.0202 0.9962 0.0853
vn -0.0202 0.9997 0.0128
vn -0.1486 0.9888 0.0161
vn -0.4256 0.9046 0.0239
vn -0.7662 0.6419 0.0308
vn -0.7723 0.6309 0.0742
vn -0.7658 0.6151 0.1878
vn -0.7028 0.5928 0.3933
vn -0.4305 0.7616 0.4845
vn -0.1518 0.8359 0.5275
vn -0.9104 0.3041 0.2804
vn -0.9416 0.3039 0.1448
vn -0.9495 0.3090 0.0541
vn -0.9469 0.3211 0.0179
vn 0.9501 0.3105 0.0291
vn 0.8641 0.3639 -0.3479
vn 0.9262 0.3606 -0.1099
vn 0.9431 0.3324 0.0003
vn 0.9504 0.3106 0.0173
vn 0.9529 0.2988 0.0526
vn 0.9454 0.2939 0.1408
vn 0.9157 0.2946 0.2733
vn 0.7138 0.3841 0.5856
vn 0.4397 0.4805 0.7588
vn 0.1545 0.5266 0.8359
vn 0.4350 0.8969 0.0792
vn 0.1525 0.9847 0.0844
vn 0.4450 0.8665 0.2262
vn 0.1523 0.9575 0.2449
vn 0.7631 0.6460 0.0182
vn 0.4205 0.9072 0.0150
vn 0.1455 0.9893 0.0127
vn 0.0196 0.9997 0.0123
vn 0.0200 0.9687 0.2476
vn 0.1546 0.8353 0.5276
vn 0.4400 0.7572 0.4827
vn 0.7143 0.5826 0.3878
vn 0.7738 0.6067 0.1821
vn 0.7758 0.6274 0.0665
vn -0.5665 0.4797 -0.6700
vn -0.3106 0.5415 -0.7812
vn -0.1042 0.5643 -0.8189
vn -0.0136 0.5673 -0.8234
vn -0.3564 0.9330 -0.0496
vn -0.1196 0.9910 -0.0599
vn -0.3319 0.9247 -0.1867
vn -0.1093 0.9735 -0.2009
vn -0.7270 0.6865 0.0105
vn -0.3853 0.9228 -0.0003
vn -0.1323 0.9912 -0.0066
vn -0.0179 0.9998 -0.0076
vn -0.0161 0.9980 -0.0617
vn -0.0144 0.9790 -0.2033
vn -0.0145 0.8756 -0.4828
vn -0.1066 0.8710 -0.4797
vn -0.3177 0.8306 -0.4573
vn -0.5778 0.7109 -0.4011
vn -0.6583 0.7360 -0.1582
vn -0.6960 0.7173 -0.0314
vn -0.9391 0.3434 0.0141
vn -0.9274 0.3733 -0.0228
vn -0.9053 0.4013 -0.1391
vn -0.8572 0.3935 -0.3321
vn -0.0199 0.5333 0.8457
vn 0.1217 0.9738 -0.1921
vn 0.1349 0.9896 -0.0508
vn 0.3643 0.9164 -0.1659
vn 0.3950 0.9182 -0.0286
vn 0.0146 0.8759 -0.4823
vn 0.0162 0.9793 -0.2019
vn 0.0181 0.9980 -0.0603
vn 0.0196 0.9998 -0.0066
vn 0.1455 0.9894 -0.0001
vn 0.4205 0.9072 0.0154
vn 0.7628 0.6458 0.0314
vn 0.7390 0.6737 -0.0023
vn 0.7047 0.6990 -0.1217
vn 0.6523 0.6840 -0.3267
vn 0.3369 0.8296 -0.4452
vn 0.1117 0.8719 -0.4768
vn 0.0137 0.5673 -0.8234
vn 0.1062 0.5639 -0.8190
vn 0.3184 0.5391 -0.7797
vn 0.5791 0.4734 -0.6637
vn -0.1487 0.9580 0.2452
vn -0.1483 0.9853 0.0851
vn -0.4280 0.8735 0.2318
vn -0.4246 0.9019 0.0795
vn -0.0201 0.9687 0.2474
vn -0.0202 0.9962 0.0852
vn -0.0194 0.9997 0.0124
vn -0.1426 0.9897 0.0127
vn -0.4103 0.9118 0.0151
vn -0.7518 0.6592 0.0185
vn -0.7649 0.6406 0.0677
vn -0.7629 0.6194 0.1853
vn -0.7419 0.5731 0.3480
vn -0.4293 0.7616 0.4854
vn -0.1502 0.8355 0.5285
vn -0.4305 0.4841 0.7618
vn 0.0201 0.5332 0.8457
vn -0.7026 0.3918 0.5939
vn -0.1518 0.5274 0.8360
vn -0.7440 0.3433 0.5732
vn -0.1506 0.5281 0.8357
vn -0.4304 0.4841 0.7618
usemtl Material.005
s off
f 1/1/1 54/2/1 10/3/1
f 11/4/2 55/5/2 54/2/2
f 12/6/3 56/7/3 55/5/3
f 13/8/4 14/9/4 56/7/4
f 4/10/5 57/11/5 33/12/5
f 59/13/6 6/14/6 31/15/6
f 32/16/7 59/13/7 31/15/7
f 33/12/8 58/17/8 32/16/8
f 18/18/9 19/19/9 60/20/9
f 60/20/10 20/21/10 61/22/10
f 61/22/11 21/23/11 62/24/11
f 62/24/12 3/25/12 22/26/12
f 3/25/13 120/27/13 22/26/13
f 37/28/14 115/29/14 111/30/14
f 38/31/15 110/32/15 118/33/15
f 63/34/16 67/35/16 66/36/16
f 65/37/17 67/35/17 64/38/17
f 67/35/18 69/39/18 66/36/18
f 68/40/19 70/41/19 67/35/19
f 4/10/20 63/34/20 19/19/20
f 17/42/21 64/38/21 63/34/21
f 16/43/22 65/37/22 64/38/22
f 15/44/23 53/45/23 65/37/23
f 53/45/24 68/40/24 65/37/24
f 52/46/25 71/47/25 68/40/25
f 51/48/26 39/49/26 71/47/26
f 71/47/27 38/50/27 70/41/27
f 70/41/28 37/51/28 69/39/28
f 69/39/29 3/25/29 21/23/29
f 20/21/30 69/39/30 21/23/30
f 19/19/31 66/36/31 20/21/31
f 5/52/32 72/53/32 26/54/32
f 40/55/33 73/56/33 72/53/33
f 41/57/34 74/58/34 73/56/34
f 42/59/35 50/60/35 74/58/35
f 76/61/36 78/62/36 75/63/36
f 77/64/37 79/65/37 76/61/37
f 79/65/38 81/66/38 78/62/38
f 80/67/39 82/68/39 79/65/39
f 43/69/40 36/70/40 2/71/40
f 44/72/41 75/63/41 43/69/41
f 45/73/42 76/61/42 44/72/42
f 9/74/43 77/64/43 45/73/43
f 47/75/44 80/67/44 77/64/44
f 48/76/45 83/77/45 80/67/45
f 83/77/46 8/78/46 42/79/46
f 83/77/47 41/80/47 82/68/47
f 82/68/48 40/81/48 81/66/48
f 81/66/49 5/82/49 34/83/49
f 78/62/50 34/83/50 35/84/50
f 75/63/51 35/84/51 36/70/51
f 2/85/52 84/86/52 14/9/52
f 36/87/53 85/88/53 84/86/53
f 35/89/54 86/90/54 85/88/54
f 86/90/55 5/52/55 26/54/55
f 46/91/56 23/92/56 112/93/56
f 88/94/57 90/95/57 87/96/57
f 89/97/58 91/98/58 88/94/58
f 91/98/59 93/99/59 90/95/59
f 92/100/60 94/101/60 91/98/60
f 49/102/61 27/103/61 8/78/61
f 48/76/62 87/96/62 49/102/62
f 47/75/63 88/94/63 48/76/63
f 9/74/64 89/97/64 47/75/64
f 15/44/65 92/100/65 89/97/65
f 16/43/66 95/104/66 92/100/66
f 17/42/67 33/12/67 95/104/67
f 95/104/68 32/16/68 94/101/68
f 94/101/69 31/15/69 93/99/69
f 93/99/70 6/14/70 29/105/70
f 90/95/71 29/105/71 28/106/71
f 87/96/72 28/106/72 27/103/72
f 50/60/73 27/107/73 96/108/73
f 96/108/74 28/109/74 97/110/74
f 97/110/75 29/111/75 98/112/75
f 98/112/76 6/14/76 30/113/76
f 100/114/77 102/115/77 99/116/77
f 101/117/78 103/118/78 100/114/78
f 103/118/79 105/119/79 102/115/79
f 103/118/80 107/120/80 106/121/80
f 51/48/81 23/122/81 7/123/81
f 52/46/82 99/116/82 51/48/82
f 52/46/83 101/117/83 100/114/83
f 53/45/84 45/73/84 101/117/84
f 101/117/85 44/72/85 104/124/85
f 104/124/86 43/69/86 107/120/86
f 107/120/87 2/71/87 13/125/87
f 106/121/88 13/125/88 12/126/88
f 105/119/89 12/126/89 11/127/89
f 105/119/90 1/128/90 25/129/90
f 102/115/91 25/129/91 24/130/91
f 99/116/92 24/130/92 23/122/92
f 1/1/93 11/4/93 54/2/93
f 11/4/94 12/6/94 55/5/94
f 12/6/95 13/8/95 56/7/95
f 13/8/96 2/85/96 14/9/96
f 4/10/97 18/18/97 57/11/97
f 59/13/98 30/113/98 6/14/98
f 32/16/99 58/17/99 59/13/99
f 33/12/100 57/11/100 58/17/100
f 18/18/101 4/10/101 19/19/101
f 60/20/102 19/19/102 20/21/102
f 61/22/103 20/21/103 21/23/103
f 62/24/104 21/23/104 3/25/104
f 37/28/105 120/27/105 3/25/105
f 38/31/106 115/29/106 37/28/106
f 39/131/107 110/32/107 38/31/107
f 63/34/108 64/38/108 67/35/108
f 65/37/109 68/40/109 67/35/109
f 67/35/110 70/41/110 69/39/110
f 68/40/111 71/47/111 70/41/111
f 4/10/112 17/42/112 63/34/112
f 17/42/113 16/43/113 64/38/113
f 16/43/114 15/44/114 65/37/114
f 15/44/115 9/74/115 53/45/115
f 53/45/24 52/46/24 68/40/24
f 52/46/116 51/48/116 71/47/116
f 51/48/26 7/123/26 39/49/26
f 71/47/117 39/49/117 38/50/117
f 70/41/118 38/50/118 37/51/118
f 69/39/119 37/51/119 3/25/119
f 20/21/120 66/36/120 69/39/120
f 19/19/121 63/34/121 66/36/121
f 5/52/122 40/55/122 72/53/122
f 40/55/123 41/57/123 73/56/123
f 41/57/124 42/59/124 74/58/124
f 42/59/125 8/132/125 50/60/125
f 76/61/126 79/65/126 78/62/126
f 77/64/127 80/67/127 79/65/127
f 79/65/128 82/68/128 81/66/128
f 80/67/129 83/77/129 82/68/129
f 43/69/130 75/63/130 36/70/130
f 44/72/131 76/61/131 75/63/131
f 45/73/132 77/64/132 76/61/132
f 9/74/133 47/75/133 77/64/133
f 47/75/134 48/76/134 80/67/134
f 48/76/135 49/102/135 83/77/135
f 83/77/136 49/102/136 8/78/136
f 83/77/137 42/79/137 41/80/137
f 82/68/138 41/80/138 40/81/138
f 81/66/139 40/81/139 5/82/139
f 78/62/140 81/66/140 34/83/140
f 75/63/141 78/62/141 35/84/141
f 2/85/142 36/87/142 84/86/142
f 36/87/143 35/89/143 85/88/143
f 35/89/144 34/133/144 86/90/144
f 86/90/145 34/133/145 5/52/145
f 46/91/146 7/134/146 23/92/146
f 88/94/147 91/98/147 90/95/147
f 89/97/148 92/100/148 91/98/148
f 91/98/149 94/101/149 93/99/149
f 92/100/150 95/104/150 94/101/150
f 49/102/151 87/96/151 27/103/151
f 48/76/152 88/94/152 87/96/152
f 47/75/153 89/97/153 88/94/153
f 9/74/154 15/44/154 89/97/154
f 15/44/155 16/43/155 92/100/155
f 16/43/156 17/42/156 95/104/156
f 17/42/157 4/10/157 33/12/157
f 95/104/158 33/12/158 32/16/158
f 94/101/159 32/16/159 31/15/159
f 93/99/160 31/15/160 6/14/160
f 90/95/161 93/99/161 29/105/161
f 87/96/162 90/95/162 28/106/162
f 50/60/163 8/132/163 27/107/163
f 96/108/164 27/107/164 28/109/164
f 97/110/165 28/109/165 29/111/165
f 98/112/166 29/111/166 6/14/166
f 100/114/167 103/118/167 102/115/167
f 101/117/168 104/124/168 103/118/168
f 103/118/169 106/121/169 105/119/169
f 103/118/170 104/124/170 107/120/170
f 51/48/81 99/116/81 23/122/81
f 52/46/171 100/114/171 99/116/171
f 52/46/172 53/45/172 101/117/172
f 53/45/173 9/74/173 45/73/173
f 101/117/174 45/73/174 44/72/174
f 104/124/175 44/72/175 43/69/175
f 107/120/176 43/69/176 2/71/176
f 106/121/177 107/120/177 13/125/177
f 105/119/178 106/121/178 12/126/178
f 105/119/179 11/127/179 1/128/179
f 102/115/180 105/119/180 25/129/180
f 99/116/181 102/115/181 24/130/181
f 116/135/182 114/136/182 25/137/182
f 117/138/183 39/131/183 7/134/183
f 109/139/184 25/137/184 1/140/184
f 119/141/185 23/92/185 24/142/185
f 10/143/186 109/139/186 1/140/186
f 46/91/183 117/138/183 7/134/183
f 108/144/187 119/141/187 24/142/187
f 114/136/188 24/142/188 25/137/188
f 37/28/105 111/30/105 120/27/105
f 38/31/106 118/33/106 115/29/106
f 39/131/107 113/145/107 110/32/107
f 117/138/183 113/145/183 39/131/183
f 109/139/184 116/135/184 25/137/184
f 119/141/185 112/93/185 23/92/185
f 114/136/188 108/144/188 24/142/188
