# Blender v3.1.2 OBJ File: ''
# www.blender.org
mtllib emerald.mtl
o Cylinder
v -0.000000 -1.000000 0.000000
v -0.000000 1.000000 0.000000
v -0.000000 0.000000 -0.317270
v 0.274764 0.000000 -0.158635
v 0.274764 0.000000 0.158635
v -0.000000 0.000000 0.317270
v -0.274764 0.000000 0.158635
v -0.274764 0.000000 -0.158635
vt 1.000000 0.750000
vt 0.833333 1.000000
vt 0.833333 0.750000
vt 0.666667 1.000000
vt 0.666667 0.750000
vt 0.500000 1.000000
vt 0.500000 0.750000
vt 0.333333 1.000000
vt 0.333333 0.750000
vt 0.166667 1.000000
vt 0.166667 0.750000
vt -0.000000 1.000000
vt -0.000000 0.750000
vt 0.166667 0.500000
vt 0.333333 0.500000
vt 0.500000 0.500000
vt 0.666667 0.500000
vt 0.833333 0.500000
vt 1.000000 0.500000
vn 0.4821 0.2649 -0.8351
vn 0.9643 0.2649 0.0000
vn 0.4821 0.2649 0.8351
vn -0.4821 0.2649 0.8351
vn -0.9643 0.2649 0.0000
vn -0.4821 0.2649 -0.8351
vn -0.4821 -0.2649 -0.8351
vn -0.9643 -0.2649 0.0000
vn -0.4821 -0.2649 0.8351
vn 0.4821 -0.2649 0.8351
vn 0.9643 -0.2649 0.0000
vn 0.4821 -0.2649 -0.8351
usemtl None
s off
f 3/1/1 2/2/1 4/3/1
f 4/3/2 2/4/2 5/5/2
f 5/5/3 2/6/3 6/7/3
f 6/7/4 2/8/4 7/9/4
f 7/9/5 2/10/5 8/11/5
f 8/11/6 2/12/6 3/13/6
f 1/14/7 8/11/7 3/13/7
f 1/15/8 7/9/8 8/11/8
f 1/16/9 6/7/9 7/9/9
f 1/17/10 5/5/10 6/7/10
f 1/18/11 4/3/11 5/5/11
f 1/19/12 3/1/12 4/3/12
