# Blender v3.1.2 OBJ File: ''
# www.blender.org
mtllib flegma.mtl
o Cylinder
v 0.137791 0.990144 -0.332657
v -0.137791 0.990144 -0.332657
v -0.061480 0.486527 -0.148427
v -0.061480 0.807839 -0.148427
v 0.061480 0.486527 -0.148427
v 0.061480 0.807839 -0.148427
v 0.148427 0.486527 -0.061480
v 0.148427 0.807839 -0.061480
v 0.148427 0.486527 0.061480
v 0.148427 0.807839 0.061480
v 0.061480 0.486527 0.148427
v 0.061480 0.807839 0.148427
v -0.061480 0.486527 0.148427
v -0.061480 0.807839 0.148427
v -0.148427 0.486527 0.061480
v -0.148427 0.807839 0.061480
v -0.148427 0.486527 -0.061480
v -0.148427 0.807839 -0.061480
v 0.108352 0.486527 -0.044881
v 0.108352 0.486527 0.044881
v 0.044881 0.486527 0.108352
v -0.044881 0.486527 0.108352
v -0.108352 0.486527 0.044881
v -0.108352 0.486527 -0.044881
v -0.044881 0.486527 -0.108352
v 0.044881 0.486527 -0.108352
v -0.108352 0.807839 -0.044881
v -0.108352 0.807839 0.044881
v -0.044881 0.807839 0.108352
v 0.044881 0.807839 0.108352
v 0.108352 0.807839 0.044881
v 0.108352 0.807839 -0.044881
v 0.044881 0.807839 -0.108352
v -0.044881 0.807839 -0.108352
v 0.332657 0.990144 -0.137791
v 0.332657 0.990144 0.137791
v 0.137791 0.990144 0.332657
v -0.137791 0.990144 0.332657
v -0.332657 0.990144 0.137791
v -0.332657 0.990144 -0.137791
v -0.242839 0.990144 -0.100587
v -0.242839 0.990144 0.100587
v -0.100587 0.990144 0.242839
v 0.100587 0.990144 0.242839
v 0.242839 0.990144 0.100587
v 0.242839 0.990144 -0.100587
v 0.100587 0.990144 -0.242839
v -0.100587 0.990144 -0.242839
v -0.221515 0.076340 -0.534784
v 0.221515 0.076340 -0.534784
v 0.534784 0.076340 -0.221515
v 0.534784 0.076340 0.221515
v 0.221515 0.076340 0.534784
v -0.221515 0.076340 0.534784
v -0.534784 0.076340 0.221515
v -0.534784 0.076340 -0.221515
v 0.390392 0.076340 -0.161706
v 0.390392 0.076340 0.161706
v 0.161706 0.076340 0.390392
v -0.161706 0.076340 0.390392
v -0.390392 0.076340 0.161706
v -0.390392 0.076340 -0.161706
v -0.161706 0.076340 -0.390392
v 0.161706 0.076340 -0.390392
v -0.221515 -0.356634 -0.534784
v 0.221515 -0.356634 -0.534784
v 0.534784 -0.356634 -0.221515
v 0.534784 -0.356634 0.221515
v 0.221515 -0.356634 0.534784
v -0.221515 -0.356634 0.534784
v -0.534784 -0.356634 0.221515
v -0.534784 -0.356634 -0.221515
v 0.390392 -0.356634 -0.161706
v 0.390392 -0.356634 0.161706
v 0.161706 -0.356634 0.390392
v -0.161706 -0.356634 0.390392
v -0.390392 -0.356634 0.161706
v -0.390392 -0.356634 -0.161706
v -0.161706 -0.356634 -0.390392
v 0.161706 -0.356634 -0.390392
v -0.125873 -0.748590 -0.303884
v 0.125873 -0.748590 -0.303884
v 0.303884 -0.748590 -0.125873
v 0.303884 -0.748590 0.125873
v 0.125873 -0.748590 0.303884
v -0.125873 -0.748590 0.303884
v -0.303884 -0.748590 0.125873
v -0.303884 -0.748590 -0.125873
v 0.221835 -0.748590 -0.091887
v 0.221835 -0.748590 0.091887
v 0.091887 -0.748590 0.221836
v -0.091887 -0.748590 0.221835
v -0.221836 -0.748590 0.091887
v -0.221836 -0.748590 -0.091887
v -0.091887 -0.748590 -0.221835
v 0.091887 -0.748590 -0.221835
v -0.149325 -0.652478 0.360503
v 0.149325 -0.652478 0.360503
v 0.360503 -0.652478 -0.149325
v 0.360503 -0.652478 0.149325
v -0.360503 -0.652478 0.149325
v -0.360503 -0.652478 -0.149325
v -0.149325 -0.652478 -0.360503
v 0.149325 -0.652478 -0.360503
v -0.108923 -0.652954 0.262963
v 0.108923 -0.652954 0.262963
v 0.262963 -0.652954 0.108923
v 0.262963 -0.652954 -0.108923
v -0.262963 -0.652954 0.108923
v -0.262963 -0.652954 -0.108923
v -0.108923 -0.652954 -0.262963
v 0.108923 -0.652954 -0.262963
v -0.000000 -0.653344 0.000000
v -0.000000 -0.749083 0.000000
vt 0.574800 0.250000
vt 0.626115 0.126115
vt 0.574800 0.250000
vt 0.125000 1.000000
vt 0.250000 1.000000
vt 0.125000 1.000000
vt 1.000000 1.000000
vt 0.875000 0.500000
vt 1.000000 0.500000
vt 0.375000 0.500000
vt 0.250000 0.500000
vt 0.375000 0.500000
vt 0.625000 1.000000
vt 0.500000 1.000000
vt 0.500000 1.000000
vt 0.875000 1.000000
vt 0.750000 0.500000
vt 0.625000 0.500000
vt 0.750000 0.500000
vt 0.074800 0.250000
vt 0.126115 0.126115
vt 0.126115 0.126115
vt 0.750000 1.000000
vt 0.625000 0.500000
vt 0.750000 0.074800
vt 0.626115 0.126115
vt 0.875000 1.000000
vt 0.500000 0.500000
vt 0.873885 0.126115
vt 0.750000 0.074800
vt 0.126115 0.373885
vt 0.074800 0.250000
vt 0.125000 0.500000
vt 0.250000 0.500000
vt 0.375000 1.000000
vt 0.375000 1.000000
vt 0.626115 0.373885
vt 0.250000 1.000000
vt 0.250000 0.425200
vt 0.126115 0.373885
vt 0.750000 1.000000
vt 0.000000 0.500000
vt 0.750000 0.425200
vt 0.873885 0.373885
vt 0.373885 0.373885
vt 0.873885 0.126115
vt 0.925200 0.250000
vt 0.250000 0.074800
vt 0.373885 0.126115
vt 0.425200 0.250000
vt 0.925200 0.250000
vt 0.373885 0.373885
vt 0.490000 0.250000
vt 0.419706 0.419706
vt 0.373885 0.126115
vt 0.425200 0.250000
vt 0.250000 0.074800
vt 0.419706 0.080294
vt 0.250000 0.010000
vt 0.080294 0.080294
vt 0.010000 0.250000
vt 0.250000 0.425200
vt 0.080294 0.419706
vt 0.250000 0.490000
vt 0.625000 1.000000
vt 0.000000 1.000000
vt 0.000000 1.000000
vt 0.875000 0.500000
vt 1.000000 0.500000
vt 1.000000 0.500000
vt 0.000000 0.500000
vt 0.125000 0.500000
vt 0.125000 0.500000
vt 0.626115 0.373885
vt 0.750000 0.425200
vt 0.750000 0.425200
vt 0.250000 0.500000
vt 0.626115 0.373885
vt 0.375000 0.500000
vt 0.574800 0.250000
vt 0.500000 0.500000
vt 0.500000 0.500000
vt 0.873885 0.373885
vt 0.250000 0.500000
vt 0.375000 0.500000
vt 0.375000 0.500000
vt 0.873885 0.126115
vt 0.750000 0.074800
vt 0.873885 0.126115
vt 0.500000 0.500000
vt 0.500000 0.500000
vt 0.750000 0.074800
vt 0.873885 0.126115
vt 0.750000 0.074800
vt 0.625000 0.500000
vt 0.625000 0.500000
vt 0.925200 0.250000
vt 0.925200 0.250000
vt 0.750000 0.500000
vt 0.750000 0.500000
vt 0.925200 0.250000
vt 0.873885 0.126115
vt 0.873885 0.373885
vt 0.925200 0.250000
vt 0.875000 0.500000
vt 0.873885 0.126115
vt 0.750000 0.500000
vt 0.750000 0.074800
vt 0.625000 0.500000
vt 0.626115 0.126115
vt 0.990000 0.250000
vt 0.919706 0.080294
vt 0.873885 0.373885
vt 0.750000 0.490000
vt 0.919706 0.419706
vt 0.750000 0.010000
vt 0.626115 0.126115
vt 0.580294 0.080294
vt 0.510000 0.250000
vt 0.574800 0.250000
vt 0.626115 0.373885
vt 0.580294 0.419706
vt 0.750000 0.425200
vt 0.873885 0.373885
vt 0.125000 0.500000
vt 0.250000 0.500000
vt 0.750000 0.425200
vt 0.000000 0.500000
vt 0.125000 0.500000
vt 1.000000 0.500000
vt 0.875000 0.500000
vt 1.000000 0.500000
vt 0.626115 0.373885
vt 0.574800 0.250000
vt 0.626115 0.373885
vt 0.626115 0.373885
vt 0.875000 0.500000
vt 0.000000 0.500000
vt 0.873885 0.373885
vt 0.750000 0.425200
vt 0.626115 0.126115
vt 0.626115 0.126115
vt 0.750000 0.074800
vt 0.574800 0.250000
vt 0.925200 0.250000
vt 0.626115 0.126115
vt 0.873885 0.373885
vt 0.574800 0.250000
vt 0.750000 0.425200
vt 1.000000 1.000000
vt 0.000000 0.500000
vn 0.5827 -0.5666 -0.5827
vn -0.7034 -0.7108 -0.0000
vn -0.0000 0.0000 -1.0000
vn -0.5147 0.6856 0.5147
vn 0.4974 -0.7108 0.4974
vn 0.7071 0.0000 -0.7071
vn 0.7279 0.6856 0.0000
vn 0.5690 0.5936 -0.5690
vn 1.0000 0.0000 0.0000
vn 0.0000 -0.5666 -0.8240
vn 0.0000 -0.7108 -0.7034
vn 0.7071 0.0000 0.7071
vn -0.5827 -0.5666 -0.5827
vn 0.8047 0.5936 0.0000
vn 0.0000 0.0000 1.0000
vn -0.7279 0.6856 0.0000
vn 0.0000 -0.7108 0.7034
vn -0.7071 0.0000 0.7071
vn 0.5147 0.6856 0.5147
vn -1.0000 0.0000 0.0000
vn 0.5690 0.5936 0.5690
vn 0.4974 -0.7108 -0.4974
vn -0.7071 0.0000 -0.7071
vn -0.8240 -0.5666 0.0000
vn 0.0000 1.0000 -0.0000
vn 0.0000 0.5936 -0.8047
vn -0.5690 0.5936 -0.5690
vn -0.8047 0.5936 0.0000
vn 0.7034 -0.7108 0.0000
vn -0.4974 -0.7108 0.4974
vn -0.4974 -0.7108 -0.4974
vn -0.5690 0.5936 0.5690
vn 0.0000 0.5936 0.8047
vn 0.8240 -0.5666 0.0000
vn -0.5147 0.6856 -0.5147
vn 0.5827 -0.5666 0.5827
vn 0.5147 0.6856 -0.5147
vn 0.0000 0.6856 0.7279
vn 0.0000 0.6856 -0.7279
vn 0.0000 -0.5666 0.8240
vn -0.5827 -0.5666 0.5827
vn -0.6093 -0.5076 0.6093
vn 0.0016 -1.0000 0.0016
vn 0.0000 -0.5076 0.8616
vn -0.0011 1.0000 -0.0011
vn 0.6093 -0.5076 0.6093
vn 0.0022 -1.0000 0.0000
vn 0.8616 -0.5076 0.0000
vn -0.0015 1.0000 -0.0000
vn 0.0000 -1.0000 0.0000
vn 0.0016 -1.0000 -0.0016
vn -0.8616 -0.5076 0.0000
vn -0.0000 -1.0000 -0.0022
vn -0.6092 -0.5076 -0.6093
vn -0.0000 -0.5076 -0.8616
vn 0.0015 1.0000 0.0000
vn -0.0016 -1.0000 -0.0016
vn 0.6093 -0.5076 -0.6093
vn -0.6093 -0.5076 -0.6093
vn -0.6496 0.3951 0.6496
vn 0.0000 0.3951 0.9187
vn 0.6496 0.3951 0.6496
vn 0.9187 0.3951 -0.0000
vn -0.9187 0.3951 0.0000
vn -0.6496 0.3951 -0.6496
vn 0.0000 0.3951 -0.9187
vn 0.6496 0.3951 -0.6496
vn 0.0000 1.0000 -0.0015
vn -0.0000 -1.0000 0.0022
vn 0.0011 1.0000 -0.0010
vn -0.0011 1.0000 0.0011
vn -0.0016 -1.0000 0.0016
vn 0.0000 1.0000 0.0015
vn -0.0022 -1.0000 0.0000
vn 0.0011 1.0000 0.0010
usemtl None
s off
f 23/1/1 60/2/1 61/3/1
f 18/4/2 39/5/2 40/6/2
f 4/7/3 5/8/3 3/9/3
f 13/10/4 55/11/4 54/12/4
f 10/13/5 37/14/5 12/15/5
f 6/16/6 7/17/6 5/8/6
f 7/17/7 52/18/7 51/19/7
f 28/20/8 43/21/8 29/22/8
f 8/23/9 9/24/9 7/17/9
f 21/25/10 60/2/10 22/26/10
f 4/7/11 1/27/11 6/16/11
f 10/13/12 11/28/12 9/24/12
f 21/25/13 58/29/13 59/30/13
f 27/31/14 42/32/14 28/20/14
f 12/15/15 13/10/15 11/28/15
f 17/33/16 55/11/16 15/34/16
f 14/35/17 37/14/17 38/36/17
f 14/35/18 15/34/18 13/10/18
f 11/28/19 52/18/19 9/24/19
f 28/20/9 24/37/9 27/31/9
f 16/38/20 17/33/20 15/34/20
f 34/39/21 41/40/21 27/31/21
f 6/16/22 35/41/22 8/23/22
f 18/4/23 3/42/23 17/33/23
f 27/31/12 25/43/12 34/39/12
f 34/39/15 26/44/15 33/45/15
f 20/46/24 57/47/24 58/29/24
f 29/22/6 23/1/6 28/20/6
f 30/48/3 22/26/3 29/22/3
f 31/49/23 21/25/23 30/48/23
f 32/50/20 20/46/20 31/49/20
f 33/45/18 19/51/18 32/50/18
f 47/52/25 35/53/25 1/54/25
f 45/55/25 35/53/25 46/56/25
f 44/57/25 36/58/25 45/55/25
f 43/21/25 37/59/25 44/57/25
f 42/32/25 38/60/25 43/21/25
f 41/40/25 39/61/25 42/32/25
f 48/62/25 40/63/25 41/40/25
f 48/62/25 1/54/25 2/64/25
f 29/22/26 44/57/26 30/48/26
f 30/48/27 45/55/27 31/49/27
f 31/49/28 46/56/28 32/50/28
f 8/23/29 36/65/29 10/13/29
f 14/35/30 39/5/30 16/38/30
f 18/4/31 2/66/31 4/67/31
f 33/45/32 46/56/32 47/52/32
f 33/45/33 48/62/33 34/39/33
f 50/68/3 65/69/3 49/70/3
f 49/71/23 72/72/23 56/73/23
f 62/74/12 79/75/12 63/76/12
f 56/73/20 71/77/20 55/11/20
f 61/3/9 78/78/9 62/74/9
f 55/11/18 70/79/18 54/12/18
f 60/2/6 77/80/6 61/3/6
f 54/12/15 69/81/15 53/82/15
f 23/1/34 62/74/34 24/37/34
f 17/33/35 49/71/35 56/73/35
f 25/43/36 62/74/36 63/76/36
f 5/8/37 51/19/37 50/68/37
f 13/10/38 53/82/38 11/28/38
f 5/8/39 49/70/39 3/9/39
f 26/44/40 63/76/40 64/83/40
f 26/44/41 57/47/41 19/51/41
f 101/84/42 86/85/42 97/86/42
f 90/87/43 91/88/43 114/89/43
f 98/90/44 86/85/44 85/91/44
f 106/92/45 107/93/45 113/94/45
f 100/95/46 85/91/46 84/96/46
f 89/97/47 90/87/47 114/98/47
f 100/95/48 83/99/48 99/100/48
f 107/93/49 108/101/49 113/102/49
f 63/76/15 80/103/15 64/83/15
f 64/83/18 73/104/18 57/47/18
f 51/19/6 66/105/6 50/68/6
f 57/47/20 74/106/20 58/29/20
f 52/18/9 67/107/9 51/19/9
f 58/29/23 75/108/23 59/30/23
f 53/82/12 68/109/12 52/18/12
f 59/30/3 76/110/3 60/2/3
f 90/87/50 83/111/50 84/112/50
f 96/113/50 81/114/50 82/115/50
f 91/88/50 84/112/50 85/116/50
f 92/117/50 85/116/50 86/118/50
f 92/117/50 87/119/50 93/120/50
f 94/121/50 87/119/50 88/122/50
f 94/121/50 81/114/50 95/123/50
f 96/113/50 83/111/50 89/97/50
f 96/113/51 89/97/51 114/124/51
f 101/84/52 88/125/52 87/126/52
f 95/123/53 96/113/53 114/127/53
f 103/128/54 88/125/54 102/129/54
f 103/130/55 82/131/55 81/132/55
f 110/133/56 109/134/56 113/135/56
f 94/121/57 95/123/57 114/136/57
f 99/100/58 82/131/58 104/137/58
f 67/107/58 104/137/58 66/105/58
f 65/69/55 104/137/55 103/130/55
f 65/138/59 102/129/59 72/72/59
f 71/77/52 102/129/52 101/84/52
f 68/109/48 99/100/48 67/107/48
f 69/81/46 100/95/46 68/109/46
f 69/81/44 97/86/44 98/90/44
f 71/77/42 97/86/42 70/79/42
f 73/104/60 112/139/60 108/101/60
f 79/75/61 112/139/61 80/103/61
f 78/78/62 111/140/62 79/75/62
f 78/78/63 109/134/63 110/133/63
f 73/104/64 107/93/64 74/106/64
f 74/106/65 106/92/65 75/108/65
f 76/110/66 106/92/66 105/141/66
f 76/110/67 109/134/67 77/80/67
f 105/141/68 106/92/68 113/142/68
f 91/88/69 92/117/69 114/143/69
f 109/134/70 105/141/70 113/144/70
f 108/101/71 112/139/71 113/145/71
f 92/117/72 93/120/72 114/146/72
f 112/139/73 111/140/73 113/147/73
f 93/120/74 94/121/74 114/148/74
f 111/140/75 110/133/75 113/149/75
f 23/1/1 22/26/1 60/2/1
f 18/4/2 16/38/2 39/5/2
f 4/7/3 6/16/3 5/8/3
f 13/10/4 15/34/4 55/11/4
f 10/13/5 36/65/5 37/14/5
f 6/16/6 8/23/6 7/17/6
f 7/17/7 9/24/7 52/18/7
f 28/20/8 42/32/8 43/21/8
f 8/23/9 10/13/9 9/24/9
f 21/25/10 59/30/10 60/2/10
f 4/7/11 2/150/11 1/27/11
f 10/13/12 12/15/12 11/28/12
f 21/25/13 20/46/13 58/29/13
f 27/31/14 41/40/14 42/32/14
f 12/15/15 14/35/15 13/10/15
f 17/33/16 56/73/16 55/11/16
f 14/35/17 12/15/17 37/14/17
f 14/35/18 16/38/18 15/34/18
f 11/28/19 53/82/19 52/18/19
f 28/20/9 23/1/9 24/37/9
f 16/38/20 18/4/20 17/33/20
f 34/39/21 48/62/21 41/40/21
f 6/16/22 1/27/22 35/41/22
f 18/4/23 4/67/23 3/42/23
f 27/31/12 24/37/12 25/43/12
f 34/39/15 25/43/15 26/44/15
f 20/46/24 19/51/24 57/47/24
f 29/22/6 22/26/6 23/1/6
f 30/48/3 21/25/3 22/26/3
f 31/49/23 20/46/23 21/25/23
f 32/50/20 19/51/20 20/46/20
f 33/45/18 26/44/18 19/51/18
f 47/52/25 46/56/25 35/53/25
f 45/55/25 36/58/25 35/53/25
f 44/57/25 37/59/25 36/58/25
f 43/21/25 38/60/25 37/59/25
f 42/32/25 39/61/25 38/60/25
f 41/40/25 40/63/25 39/61/25
f 48/62/25 2/64/25 40/63/25
f 48/62/25 47/52/25 1/54/25
f 29/22/26 43/21/26 44/57/26
f 30/48/27 44/57/27 45/55/27
f 31/49/28 45/55/28 46/56/28
f 8/23/29 35/41/29 36/65/29
f 14/35/30 38/36/30 39/5/30
f 18/4/31 40/6/31 2/66/31
f 33/45/32 32/50/32 46/56/32
f 33/45/33 47/52/33 48/62/33
f 50/68/3 66/105/3 65/69/3
f 49/71/23 65/138/23 72/72/23
f 62/74/12 78/78/12 79/75/12
f 56/73/20 72/72/20 71/77/20
f 61/3/9 77/80/9 78/78/9
f 55/11/18 71/77/18 70/79/18
f 60/2/6 76/110/6 77/80/6
f 54/12/15 70/79/15 69/81/15
f 23/1/34 61/3/34 62/74/34
f 17/33/35 3/42/35 49/71/35
f 25/43/36 24/37/36 62/74/36
f 5/8/37 7/17/37 51/19/37
f 13/10/38 54/12/38 53/82/38
f 5/8/39 50/68/39 49/70/39
f 26/44/40 25/43/40 63/76/40
f 26/44/41 64/83/41 57/47/41
f 101/84/42 87/126/42 86/85/42
f 98/90/44 97/86/44 86/85/44
f 100/95/46 98/90/46 85/91/46
f 100/95/48 84/96/48 83/99/48
f 63/76/15 79/75/15 80/103/15
f 64/83/18 80/103/18 73/104/18
f 51/19/6 67/107/6 66/105/6
f 57/47/20 73/104/20 74/106/20
f 52/18/9 68/109/9 67/107/9
f 58/29/23 74/106/23 75/108/23
f 53/82/12 69/81/12 68/109/12
f 59/30/3 75/108/3 76/110/3
f 90/87/50 89/97/50 83/111/50
f 96/113/50 95/123/50 81/114/50
f 91/88/50 90/87/50 84/112/50
f 92/117/50 91/88/50 85/116/50
f 92/117/50 86/118/50 87/119/50
f 94/121/50 93/120/50 87/119/50
f 94/121/50 88/122/50 81/114/50
f 96/113/50 82/115/50 83/111/50
f 101/84/52 102/129/52 88/125/52
f 103/128/59 81/151/59 88/125/59
f 103/130/55 104/137/55 82/131/55
f 99/100/58 83/99/58 82/131/58
f 67/107/58 99/100/58 104/137/58
f 65/69/55 66/105/55 104/137/55
f 65/138/59 103/128/59 102/129/59
f 71/77/52 72/72/52 102/129/52
f 68/109/48 100/95/48 99/100/48
f 69/81/46 98/90/46 100/95/46
f 69/81/44 70/79/44 97/86/44
f 71/77/42 101/84/42 97/86/42
f 73/104/60 80/103/60 112/139/60
f 79/75/61 111/140/61 112/139/61
f 78/78/62 110/133/62 111/140/62
f 78/78/63 77/80/63 109/134/63
f 73/104/64 108/101/64 107/93/64
f 74/106/65 107/93/65 106/92/65
f 76/110/66 75/108/66 106/92/66
f 76/110/67 105/141/67 109/134/67
l 113 114
