# Blender v3.1.2 OBJ File: ''
# www.blender.org
mtllib Flopa1.mtl
o Cube.002_Cube.003
v 0.256297 0.996287 4.886211
v 0.251773 1.243959 4.890735
v 0.256297 0.996287 4.794515
v 0.251773 1.243959 4.789991
v 0.347993 0.996287 4.886211
v 0.352517 1.243959 4.890735
v 0.347993 0.996287 4.794515
v 0.352517 1.243959 4.789991
v 0.256034 0.625806 4.886475
v 0.256034 0.625806 4.794252
v 0.348256 0.625806 4.886475
v 0.348256 0.625806 4.794252
v 0.237928 0.442177 4.904581
v 0.237928 0.442177 4.776147
v 0.366362 0.442177 4.904581
v 0.366362 0.442177 4.776147
v 0.250587 0.310514 4.891921
v 0.250587 0.310514 4.788805
v 0.353703 0.310514 4.891921
v 0.353703 0.310514 4.788806
v 0.239245 1.210378 4.903263
v 0.239245 1.210378 4.777464
v 0.365044 1.210378 4.777464
v 0.365044 1.210378 4.903263
v 0.239104 0.996287 4.840363
v 0.238392 1.239762 4.904117
v 0.240735 1.243960 4.840364
v 0.247771 1.133245 4.785990
v 0.302145 0.996287 4.777322
v 0.302145 1.243959 4.778954
v 0.356519 1.133245 4.785990
v 0.365186 0.996287 4.840364
v 0.363555 1.243959 4.840364
v 0.356519 1.133245 4.894737
v 0.302145 0.996287 4.903403
v 0.302145 1.243959 4.901774
v 0.238742 0.625806 4.840363
v 0.302145 0.625806 4.776960
v 0.365548 0.625806 4.840364
v 0.302145 0.625806 4.903766
v 0.344829 0.805142 4.797680
v 0.259461 0.805142 4.797680
v 0.259461 0.805142 4.883047
v 0.344829 0.805142 4.883047
v 0.213846 0.442177 4.840364
v 0.302145 0.442177 4.752065
v 0.390443 0.442177 4.840363
v 0.302145 0.442177 4.928662
v 0.246981 0.516275 4.895528
v 0.357309 0.516275 4.895528
v 0.357309 0.516275 4.785199
v 0.246981 0.516275 4.785200
v 0.239289 0.299823 4.840363
v 0.302145 0.299823 4.777508
v 0.365001 0.299823 4.840363
v 0.302145 0.299823 4.903218
v 0.367379 0.363635 4.905597
v 0.367379 0.363635 4.775130
v 0.236911 0.363635 4.775130
v 0.236911 0.363635 4.905597
v 0.247771 1.133245 4.894736
v 0.238392 1.239762 4.776610
v 0.365898 1.239762 4.776610
v 0.365898 1.239762 4.904118
v 0.302145 1.210378 4.926850
v 0.388632 1.210378 4.840363
v 0.302145 1.210378 4.753876
v 0.215658 1.210378 4.840363
v 0.214416 1.239762 4.840363
v 0.302145 1.239762 4.752635
v 0.389874 1.239762 4.840363
v 0.302145 1.239762 4.928092
v 0.302145 0.805142 4.781673
v 0.302145 1.243959 4.840364
v 0.302145 0.516275 4.916214
v 0.243455 0.805142 4.840364
v 0.360835 0.805142 4.840363
v 0.302145 0.805142 4.899054
v 0.391911 0.362581 4.840363
v 0.302145 0.516275 4.764513
v 0.377996 0.516275 4.840363
v 0.226294 0.516275 4.840363
v 0.302145 0.277389 4.840363
v 0.212379 0.362581 4.840363
v 0.302145 0.362581 4.930129
v 0.302145 0.362581 4.750597
v 0.302145 1.133245 4.915127
v 0.376909 1.133245 4.840364
v 0.302145 1.133245 4.765600
v 0.227381 1.133245 4.840364
vt 0.625000 0.000000
vt 0.620660 0.125000
vt 0.586806 0.125000
vt 0.625000 0.000000
vt 0.625000 0.000000
vt 0.625000 0.250000
vt 0.619792 0.250000
vt 0.583333 0.250000
vt 0.619792 0.375000
vt 0.583333 0.375000
vt 0.625000 0.500000
vt 0.620660 0.500000
vt 0.583333 0.500000
vt 0.623264 0.625000
vt 0.583333 0.625000
vt 0.625000 0.750000
vt 0.620660 0.750000
vt 0.583333 0.750000
vt 0.620660 0.875000
vt 0.586806 0.875000
vt 0.625000 1.000000
vt 0.625000 1.000000
vt 0.625000 1.000000
vt 0.416667 0.375000
vt 0.380208 0.250000
vt 0.416667 0.250000
vt 0.380208 0.500000
vt 0.380208 0.375000
vt 0.375000 0.375000
vt 0.375000 0.250000
vt 0.753472 0.625000
vt 0.659722 0.625000
vt 0.875000 0.500000
vt 0.750000 0.500000
vt 0.875000 0.750000
vt 0.750000 0.750000
vt 0.375000 0.750000
vt 0.375000 0.875000
vt 0.375000 0.750000
vt 0.375000 1.000000
vt 0.375000 0.875000
vt 0.375000 1.000000
vt 0.375000 0.875000
vt 0.375000 0.750000
vt 0.413194 0.125000
vt 0.375000 0.000000
vt 0.375000 0.000000
vt 0.379340 0.125000
vt 0.375000 0.125000
vt 0.375000 0.000000
vt 0.416667 0.625000
vt 0.416667 0.500000
vt 0.380208 0.750000
vt 0.380208 0.625000
vt 0.375000 0.625000
vt 0.375000 0.500000
vt 0.413194 0.875000
vt 0.416667 0.750000
vt 0.375000 1.000000
vt 0.379340 0.875000
vt 0.375000 0.625000
vt 0.374132 0.500000
vt 0.375000 0.500000
vt 0.374132 0.750000
vt 0.371528 0.625000
vt 0.375000 0.750000
vt 0.340278 0.625000
vt 0.375000 0.500000
vt 0.375000 0.375000
vt 0.375000 0.250000
vt 0.375000 0.500000
vt 0.375000 0.375000
vt 0.375000 0.250000
vt 0.375000 0.625000
vt 0.375000 0.125000
vt 0.375000 0.000000
vt 0.375000 0.125000
vt 0.375000 0.000000
vt 0.125000 0.500000
vt 0.246528 0.625000
vt 0.125000 0.625000
vt 0.250000 0.500000
vt 0.250000 0.750000
vt 0.125000 0.750000
vt 0.375000 0.000000
vt 0.375000 0.250000
vt 0.375000 0.125000
vt 0.375000 0.250000
vt 0.375000 0.125000
vt 0.375000 0.000000
vt 0.375000 1.000000
vt 0.375000 0.875000
vt 0.375000 1.000000
vt 0.375000 0.875000
vt 0.375000 0.375000
vt 0.375000 0.375000
vt 0.500000 0.875000
vt 0.500000 0.750000
vt 0.500000 1.000000
vt 0.375000 1.000000
vt 0.500000 0.625000
vt 0.500000 0.500000
vt 0.500000 0.375000
vt 0.500000 0.250000
vt 0.500000 0.125000
vt 0.500000 0.000000
vt 0.625000 0.125000
vt 0.625000 0.375000
vt 0.625000 0.875000
vt 0.875000 0.625000
vt 0.375000 1.000000
vn -0.9356 -0.0395 0.3508
vn -0.2215 0.9716 0.0833
vn -0.2215 0.9716 -0.0833
vn -0.9356 -0.0395 -0.3509
vn -0.3508 -0.0395 -0.9356
vn -0.0833 0.9716 -0.2215
vn 0.0833 0.9716 -0.2215
vn 0.3508 -0.0395 -0.9356
vn 0.9356 -0.0395 -0.3509
vn 0.2215 0.9716 -0.0833
vn 0.2215 0.9716 0.0833
vn 0.9356 -0.0395 0.3508
vn 0.3508 -0.0396 0.9356
vn 0.0833 0.9716 0.2215
vn -0.0833 0.9716 0.2215
vn -0.3508 -0.0396 0.9356
vn -0.3510 -0.0213 -0.9361
vn 0.3510 -0.0213 -0.9361
vn 0.3510 0.0246 -0.9360
vn -0.3510 0.0246 -0.9360
vn 0.0000 1.0000 0.0000
vn 0.3491 0.1058 0.9311
vn -0.3492 0.1058 0.9311
vn -0.3469 0.1554 0.9250
vn 0.3469 0.1554 0.9250
vn -0.9361 -0.0213 0.3510
vn -0.9361 -0.0213 -0.3510
vn -0.9360 0.0246 -0.3510
vn -0.9360 0.0246 0.3510
vn 0.9361 -0.0213 -0.3510
vn 0.9361 -0.0213 0.3510
vn 0.9360 0.0246 0.3510
vn 0.9360 0.0246 -0.3510
vn 0.3510 -0.0213 0.9361
vn -0.3510 -0.0213 0.9361
vn -0.3510 0.0246 0.9360
vn 0.3510 0.0246 0.9360
vn 0.9362 0.0167 -0.3511
vn 0.9360 0.0173 0.3517
vn 0.8843 -0.3792 0.2724
vn 0.8865 -0.3154 -0.3385
vn -0.3492 0.1058 -0.9311
vn 0.3492 0.1058 -0.9311
vn 0.3469 0.1554 -0.9250
vn -0.3469 0.1554 -0.9250
vn 0.9311 0.1058 -0.3492
vn 0.9311 0.1058 0.3492
vn 0.9250 0.1554 0.3469
vn 0.9250 0.1554 -0.3469
vn -0.9311 0.1058 0.3491
vn -0.9311 0.1058 -0.3492
vn -0.9250 0.1554 -0.3469
vn -0.9250 0.1554 0.3469
vn -0.3246 -0.9095 -0.2597
vn 0.2597 -0.9095 -0.3246
vn 0.2597 -0.9095 0.3246
vn -0.3246 -0.9095 0.2597
vn -0.9362 0.0167 0.3511
vn -0.9360 0.0173 -0.3517
vn -0.8843 -0.3792 -0.2724
vn -0.8865 -0.3154 0.3385
vn 0.3511 0.0167 0.9362
vn -0.3517 0.0172 0.9360
vn -0.2724 -0.3792 0.8843
vn 0.3385 -0.3154 0.8865
vn -0.3511 0.0167 -0.9362
vn 0.3517 0.0173 -0.9360
vn 0.2724 -0.3792 -0.8843
vn -0.3385 -0.3154 -0.8865
vn 0.3500 -0.0799 0.9333
vn 0.3476 -0.1409 0.9270
vn -0.3476 -0.1409 0.9270
vn -0.3500 -0.0799 0.9333
vn 0.9333 -0.0799 -0.3500
vn 0.9270 -0.1409 -0.3476
vn 0.9270 -0.1409 0.3476
vn 0.9333 -0.0799 0.3500
vn -0.3500 -0.0799 -0.9333
vn -0.3476 -0.1409 -0.9270
vn 0.3476 -0.1409 -0.9270
vn 0.3500 -0.0799 -0.9333
vn -0.9333 -0.0799 0.3500
vn -0.9270 -0.1409 0.3476
vn -0.9270 -0.1409 -0.3476
vn -0.9333 -0.0799 -0.3500
vn -0.9353 -0.0374 0.3517
vn -0.1574 0.9869 0.0345
vn -0.1574 0.9869 -0.0345
vn -0.9353 -0.0374 -0.3518
vn -0.3518 -0.0374 -0.9353
vn -0.0345 0.9869 -0.1574
vn 0.0345 0.9869 -0.1574
vn 0.3518 -0.0374 -0.9353
vn 0.9353 -0.0374 -0.3518
vn 0.1574 0.9869 -0.0345
vn 0.1574 0.9869 0.0345
vn 0.9353 -0.0374 0.3517
vn 0.3518 -0.0374 0.9353
vn 0.0345 0.9869 0.1574
vn -0.0345 0.9869 0.1574
vn -0.3518 -0.0374 0.9353
vn -0.3491 0.1058 0.9311
vn -0.9361 -0.0213 -0.3511
vn 0.9360 0.0173 -0.3517
vn 0.9362 0.0167 0.3511
vn 0.8865 -0.3154 0.3385
vn 0.8843 -0.3792 -0.2724
vn 0.9311 0.1058 -0.3491
vn 0.9311 0.1058 0.3491
vn -0.9311 0.1058 0.3492
vn -0.2597 -0.9095 -0.3246
vn 0.3246 -0.9095 -0.2597
vn 0.3246 -0.9095 0.2597
vn -0.2597 -0.9095 0.3246
vn -0.9360 0.0173 0.3517
vn -0.9362 0.0167 -0.3511
vn -0.8865 -0.3154 -0.3385
vn -0.8843 -0.3792 0.2724
vn 0.3517 0.0172 0.9360
vn -0.3511 0.0167 0.9362
vn -0.3385 -0.3154 0.8865
vn 0.2724 -0.3792 0.8843
vn -0.3517 0.0173 -0.9360
vn 0.3511 0.0167 -0.9362
vn 0.3385 -0.3154 -0.8865
vn -0.2724 -0.3792 -0.8843
usemtl Material.002
s off
f 21/1/1 69/2/1 68/3/1
f 2/4/2 69/2/2 26/5/2
f 69/2/3 4/6/3 62/7/3
f 69/2/4 22/8/4 68/3/4
f 22/8/5 70/9/5 67/10/5
f 4/6/6 70/9/6 62/7/6
f 70/9/7 8/11/7 63/12/7
f 70/9/8 23/13/8 67/10/8
f 23/13/9 71/14/9 66/15/9
f 8/11/10 71/14/10 63/12/10
f 71/14/11 6/16/11 64/17/11
f 71/14/12 24/18/12 66/15/12
f 24/18/13 72/19/13 65/20/13
f 6/16/14 72/19/14 64/17/14
f 72/19/15 2/21/15 26/22/15
f 72/19/16 21/23/16 65/20/16
f 29/24/17 42/25/17 3/26/17
f 29/24/18 41/27/18 73/28/18
f 41/27/19 38/29/19 73/28/19
f 42/25/20 38/29/20 10/30/20
f 8/11/21 74/31/21 33/32/21
f 4/33/21 74/31/21 30/34/21
f 74/31/21 2/35/21 36/36/21
f 74/31/21 6/16/21 33/32/21
f 11/37/22 75/38/22 50/39/22
f 9/40/23 75/38/23 40/41/23
f 49/42/24 48/43/24 75/38/24
f 50/39/25 48/43/25 15/44/25
f 25/45/26 43/46/26 1/47/26
f 25/45/27 42/25/27 76/48/27
f 42/25/28 37/49/28 76/48/28
f 43/46/29 37/49/29 9/50/29
f 32/51/30 41/27/30 7/52/30
f 32/51/31 44/53/31 77/54/31
f 44/53/32 39/55/32 77/54/32
f 41/27/33 39/55/33 12/56/33
f 35/57/34 44/53/34 5/58/34
f 35/57/35 43/59/35 78/60/35
f 43/59/36 40/41/36 78/60/36
f 44/53/37 40/41/37 11/37/37
f 47/61/38 58/62/38 16/63/38
f 47/61/39 57/64/39 79/65/39
f 79/65/40 19/66/40 55/67/40
f 79/65/41 20/68/41 58/62/41
f 10/30/42 80/69/42 52/70/42
f 12/56/43 80/69/43 38/29/43
f 51/71/44 46/72/44 80/69/44
f 52/70/45 46/72/45 14/73/45
f 12/56/46 81/74/46 51/71/46
f 11/37/47 81/74/47 39/55/47
f 50/39/48 47/61/48 81/74/48
f 51/71/49 47/61/49 16/63/49
f 9/50/50 82/75/50 49/76/50
f 10/30/51 82/75/51 37/49/51
f 52/70/52 45/77/52 82/75/52
f 49/76/53 45/77/53 13/78/53
f 18/79/54 83/80/54 53/81/54
f 20/68/55 83/80/55 54/82/55
f 83/80/56 19/66/56 56/83/56
f 83/80/57 17/84/57 53/81/57
f 45/77/58 60/85/58 13/78/58
f 45/77/59 59/86/59 84/87/59
f 84/87/60 18/88/60 53/89/60
f 84/87/61 17/90/61 60/85/61
f 48/43/62 57/64/62 15/44/62
f 48/43/63 60/91/63 85/92/63
f 85/92/64 17/93/64 56/94/64
f 85/92/65 19/66/65 57/64/65
f 46/72/66 59/86/66 14/73/66
f 46/72/67 58/62/67 86/95/67
f 86/95/68 20/68/68 54/96/68
f 86/95/69 18/88/69 59/86/69
f 5/58/70 87/97/70 35/57/70
f 34/98/71 65/20/71 87/97/71
f 65/20/72 61/99/72 87/97/72
f 87/97/73 1/100/73 35/57/73
f 7/52/74 88/101/74 32/51/74
f 31/102/75 66/15/75 88/101/75
f 66/15/76 34/98/76 88/101/76
f 88/101/77 5/58/77 32/51/77
f 3/26/78 89/103/78 29/24/78
f 28/104/79 67/10/79 89/103/79
f 67/10/80 31/102/80 89/103/80
f 89/103/81 7/52/81 29/24/81
f 1/47/82 90/105/82 25/45/82
f 61/106/83 68/3/83 90/105/83
f 68/3/84 28/104/84 90/105/84
f 90/105/85 3/26/85 25/45/85
f 21/1/86 26/5/86 69/2/86
f 2/4/87 27/107/87 69/2/87
f 69/2/88 27/107/88 4/6/88
f 69/2/89 62/7/89 22/8/89
f 22/8/90 62/7/90 70/9/90
f 4/6/91 30/108/91 70/9/91
f 70/9/92 30/108/92 8/11/92
f 70/9/93 63/12/93 23/13/93
f 23/13/94 63/12/94 71/14/94
f 8/11/95 33/32/95 71/14/95
f 71/14/96 33/32/96 6/16/96
f 71/14/97 64/17/97 24/18/97
f 24/18/98 64/17/98 72/19/98
f 6/16/99 36/109/99 72/19/99
f 72/19/100 36/109/100 2/21/100
f 72/19/101 26/22/101 21/23/101
f 29/24/17 73/28/17 42/25/17
f 29/24/18 7/52/18 41/27/18
f 41/27/19 12/56/19 38/29/19
f 42/25/20 73/28/20 38/29/20
f 8/11/21 30/34/21 74/31/21
f 4/33/21 27/110/21 74/31/21
f 74/31/21 27/110/21 2/35/21
f 74/31/21 36/36/21 6/16/21
f 11/37/22 40/41/22 75/38/22
f 9/40/102 49/42/102 75/38/102
f 49/42/24 13/111/24 48/43/24
f 50/39/25 75/38/25 48/43/25
f 25/45/26 76/48/26 43/46/26
f 25/45/103 3/26/103 42/25/103
f 42/25/28 10/30/28 37/49/28
f 43/46/29 76/48/29 37/49/29
f 32/51/30 77/54/30 41/27/30
f 32/51/31 5/58/31 44/53/31
f 44/53/32 11/37/32 39/55/32
f 41/27/33 77/54/33 39/55/33
f 35/57/34 78/60/34 44/53/34
f 35/57/35 1/100/35 43/59/35
f 43/59/36 9/40/36 40/41/36
f 44/53/37 78/60/37 40/41/37
f 47/61/104 79/65/104 58/62/104
f 47/61/105 15/44/105 57/64/105
f 79/65/106 57/64/106 19/66/106
f 79/65/107 55/67/107 20/68/107
f 10/30/42 38/29/42 80/69/42
f 12/56/43 51/71/43 80/69/43
f 51/71/44 16/63/44 46/72/44
f 52/70/45 80/69/45 46/72/45
f 12/56/108 39/55/108 81/74/108
f 11/37/109 50/39/109 81/74/109
f 50/39/48 15/44/48 47/61/48
f 51/71/49 81/74/49 47/61/49
f 9/50/110 37/49/110 82/75/110
f 10/30/51 52/70/51 82/75/51
f 52/70/52 14/73/52 45/77/52
f 49/76/53 82/75/53 45/77/53
f 18/79/111 54/82/111 83/80/111
f 20/68/112 55/67/112 83/80/112
f 83/80/113 55/67/113 19/66/113
f 83/80/114 56/83/114 17/84/114
f 45/77/115 84/87/115 60/85/115
f 45/77/116 14/73/116 59/86/116
f 84/87/117 59/86/117 18/88/117
f 84/87/118 53/89/118 17/90/118
f 48/43/119 85/92/119 57/64/119
f 48/43/120 13/111/120 60/91/120
f 85/92/121 60/91/121 17/93/121
f 85/92/122 56/94/122 19/66/122
f 46/72/123 86/95/123 59/86/123
f 46/72/124 16/63/124 58/62/124
f 86/95/125 58/62/125 20/68/125
f 86/95/126 54/96/126 18/88/126
f 5/58/70 34/98/70 87/97/70
f 34/98/71 24/18/71 65/20/71
f 65/20/72 21/23/72 61/99/72
f 87/97/73 61/99/73 1/100/73
f 7/52/74 31/102/74 88/101/74
f 31/102/75 23/13/75 66/15/75
f 66/15/76 24/18/76 34/98/76
f 88/101/77 34/98/77 5/58/77
f 3/26/78 28/104/78 89/103/78
f 28/104/79 22/8/79 67/10/79
f 67/10/80 23/13/80 31/102/80
f 89/103/81 31/102/81 7/52/81
f 1/47/82 61/106/82 90/105/82
f 61/106/83 21/1/83 68/3/83
f 68/3/84 22/8/84 28/104/84
f 90/105/85 28/104/85 3/26/85
