# Blender v3.1.2 OBJ File: ''
# www.blender.org
mtllib FloveRoje.mtl
o Plane
v 0.780098 2.934593 -0.372178
v -0.780098 2.336915 0.148305
v 0.780098 2.350321 0.136630
v -0.561753 1.881106 0.545242
v 0.021332 1.797988 0.617625
v 0.618639 1.856975 0.566256
v 0.551087 1.926687 0.505548
v 0.014222 1.870381 0.554582
v -0.494200 1.937412 0.496209
v -0.728856 2.479020 0.024554
v -0.636416 2.369089 0.120286
v -0.135105 2.484382 0.019884
v 0.000000 2.347640 0.138965
v 0.124439 2.481701 0.022219
v 0.643527 2.366408 0.122621
v 0.725301 2.513875 -0.005800
v 0.687630 2.179270 0.285588
v -0.657846 2.166085 0.297071
v 0.127994 2.157272 0.304745
v 0.028443 2.202853 0.265051
v -0.053331 2.159954 0.302410
v 0.645000 2.100411 0.354262
v -0.614281 2.105209 0.350084
v -0.028443 2.095604 0.358448
v 0.078219 2.087561 0.365453
v -0.615084 2.578225 -0.061838
v -0.373317 2.621125 -0.099197
v -0.110217 2.567500 -0.052498
v -0.366206 2.674749 -0.145895
v -0.444425 2.688155 -0.157570
v -0.383983 2.712286 -0.178584
v -0.280876 2.672068 -0.143560
v -0.287987 2.846348 -0.295330
v -0.391094 2.819535 -0.271981
v -0.479978 2.859754 -0.307005
v -0.622988 2.895416 -0.338061
v -0.398205 2.862435 -0.309340
v -0.127994 2.902653 -0.344364
v -0.408871 2.894610 -0.337359
v 0.085330 2.556775 -0.043159
v 0.323541 2.639893 -0.115541
v 0.604417 2.562138 -0.047829
v 0.323541 2.599675 -0.080517
v 0.337717 2.825131 -0.276854
v 0.081774 2.878522 -0.323350
v 0.337763 2.865116 -0.311675
v 0.171512 2.784006 -0.241041
v 0.247753 2.802871 -0.257469
v 0.174214 2.822217 -0.274316
v 0.327096 2.781998 -0.239292
v 0.494200 2.819535 -0.271981
v 0.447980 2.642575 -0.117876
v 0.309320 2.688155 -0.157570
v 0.159993 2.621125 -0.099197
v 0.666505 2.178440 0.286312
v -0.578740 2.104626 0.350592
v 0.621518 2.099879 0.354726
v 0.023768 1.902778 0.526370
v 0.773470 2.381889 0.109139
v 0.008404 1.901089 0.527840
v 0.526033 1.957931 0.478340
v -0.451889 1.959142 0.477285
v -0.607878 2.165578 0.297512
v -0.766067 2.375825 0.114420
v 0.780098 2.888485 -0.425125
v -0.780098 2.290807 0.095358
v 0.780098 2.304213 0.083684
v -0.561753 1.834998 0.492295
v 0.021332 1.751880 0.564678
v 0.618639 1.810867 0.513310
v 0.551087 1.880579 0.452602
v 0.014222 1.824273 0.501635
v -0.494200 1.891304 0.443262
v -0.728856 2.432912 -0.028392
v -0.636416 2.322981 0.067339
v -0.135105 2.438274 -0.033062
v 0.000000 2.301532 0.086019
v 0.124439 2.435593 -0.030727
v 0.643527 2.320300 0.069674
v 0.725301 2.467767 -0.058746
v 0.687630 2.133162 0.232642
v -0.657846 2.119977 0.244124
v 0.127994 2.111164 0.251798
v 0.028443 2.156745 0.212105
v -0.053331 2.113846 0.249463
v 0.645000 2.054303 0.301316
v -0.614281 2.059101 0.297138
v -0.028443 2.049496 0.305502
v 0.078219 2.041452 0.312506
v -0.615084 2.532117 -0.114785
v -0.373317 2.575017 -0.152143
v -0.110217 2.521392 -0.105445
v -0.366206 2.628641 -0.198842
v -0.444425 2.642047 -0.210516
v -0.383983 2.666178 -0.231531
v -0.280876 2.625960 -0.196507
v -0.287987 2.800240 -0.348277
v -0.391094 2.773427 -0.324928
v -0.479978 2.813646 -0.359952
v -0.622988 2.849308 -0.391007
v -0.398205 2.816327 -0.362287
v -0.127994 2.856545 -0.397310
v -0.408871 2.848502 -0.390306
v 0.085330 2.510667 -0.096105
v 0.323541 2.593785 -0.168488
v 0.604417 2.516030 -0.100775
v 0.323541 2.553567 -0.133464
v 0.337717 2.779023 -0.329801
v 0.081774 2.832414 -0.376296
v 0.337763 2.819008 -0.364621
v 0.171512 2.737898 -0.293987
v 0.247753 2.756763 -0.310416
v 0.174214 2.776109 -0.327263
v 0.327096 2.735890 -0.292239
v 0.494200 2.773427 -0.324928
v 0.447980 2.596467 -0.170823
v 0.309320 2.642047 -0.210516
v 0.159993 2.575017 -0.152143
v 0.666505 2.132332 0.233365
v -0.578740 2.058518 0.297645
v 0.621518 2.053771 0.301779
v 0.023768 1.856670 0.473423
v 0.773470 2.335781 0.056193
v 0.008404 1.854981 0.474893
v 0.526033 1.911823 0.425393
v -0.451889 1.913034 0.424338
v -0.607878 2.119470 0.244566
v -0.766067 2.329717 0.061474
vt 0.509115 0.095511
vt 0.183245 0.152481
vt 0.513673 0.033983
vt 0.260725 0.733578
vt 0.265282 0.779155
vt 0.105765 0.697117
vt 0.249331 0.902210
vt 0.215148 0.790549
vt 0.253888 0.811058
vt 0.244773 0.938672
vt 0.237936 0.966017
vt 0.100699 0.966702
vt 0.707372 0.715348
vt 0.707372 0.749530
vt 0.554691 0.678887
vt 0.716487 0.940950
vt 0.552413 0.952344
vt 0.716458 0.906967
vt 1.000000 1.000000
vt 0.658796 0.888047
vt 0.611662 0.904489
vt 0.609930 0.872014
vt 0.698257 0.790549
vt 0.709651 0.870307
vt 0.837158 0.169920
vt 0.550134 0.280094
vt 0.515234 0.123045
vt 0.210364 0.170950
vt 0.481769 0.286931
vt 0.129059 0.294599
vt 0.500000 0.501139
vt 0.413405 0.617359
vt 0.465818 0.341623
vt 0.513673 0.033983
vt 0.509115 0.095511
vt 0.853216 0.143366
vt 0.265282 0.779155
vt 0.260725 0.733578
vt 0.105765 0.697117
vt 0.215148 0.790549
vt 0.192360 0.936393
vt 0.249331 0.902210
vt 0.244773 0.938672
vt 0.237936 0.966017
vt 0.417963 0.972854
vt 0.707372 0.715348
vt 0.707372 0.749530
vt 0.887398 0.683444
vt 0.716487 0.940950
vt 0.716458 0.906967
vt 0.552413 0.952344
vt 1.000000 1.000000
vt 0.658796 0.888047
vt 0.609930 0.872014
vt 0.611662 0.904489
vt 0.709651 0.870307
vt 0.787130 0.751809
vt 0.698257 0.790549
vt 0.550134 0.280094
vt 0.837158 0.169920
vt 0.515234 0.123045
vt 0.481769 0.286931
vt 0.210364 0.170950
vt 0.129059 0.294599
vt 0.500000 0.501139
vt 0.579758 0.615080
vt 0.582037 0.339344
vt 0.000000 0.492024
vt 0.139948 0.104626
vt 0.139948 0.104626
vt 0.896514 0.084117
vt 0.896514 0.084117
vt 1.000000 0.503418
vt 1.000000 0.503418
vt 0.913409 0.291016
vt 0.853216 0.143366
vt 0.183245 0.152481
vt 0.078357 0.346833
vt 0.000000 0.492024
vt 0.032843 0.612801
vt 0.008993 0.525095
vt 0.008993 0.525095
vt 0.092092 0.519370
vt 0.032843 0.612801
vt 0.092092 0.519370
vt 0.413405 0.617359
vt 0.579758 0.615080
vt 0.912465 0.517091
vt 0.964878 0.642426
vt 0.912465 0.517091
vt 0.940733 0.358040
vt 0.940733 0.358040
vt 0.106280 0.295094
vt 0.078357 0.346833
vt 0.582037 0.339344
vt 0.927193 0.357334
vt 0.927193 0.357334
vt 0.518231 0.378083
vt 0.518231 0.378083
vt 0.913409 0.291016
vt 0.106280 0.295094
vt 0.429357 0.688002
vt 0.429357 0.688002
vt 0.253888 0.811058
vt 0.319974 0.776876
vt 0.319974 0.776876
vt 0.315416 0.924999
vt 0.315416 0.924999
vt 0.192360 0.936393
vt 0.417963 0.972854
vt 0.100699 0.966702
vt 0.554691 0.678887
vt 0.887398 0.683444
vt 0.816755 0.902211
vt 0.787130 0.751809
vt 0.816755 0.902211
vt 0.602546 0.733578
vt 0.602546 0.733578
vt 0.898359 0.290564
vt 0.995752 0.530249
vt 0.964878 0.642426
vt 0.505387 0.121610
vt 0.995752 0.530249
vt 0.898359 0.290564
vt 0.505387 0.121610
vt 0.110384 0.346403
vt 0.465818 0.341623
vt 0.110384 0.346403
vn 0.0000 0.6567 0.7541
vn 0.0000 -0.6567 -0.7541
vn -0.9405 -0.2562 0.2231
vn -0.1857 -0.7410 0.6453
vn 0.1298 -0.7477 0.6512
vn 0.9709 -0.1807 0.1574
vn -0.9260 0.2847 -0.2479
vn -0.1377 0.7469 -0.6505
vn 0.1722 0.7429 -0.6469
vn 0.8800 0.3582 -0.3119
vn -0.9650 0.1979 -0.1723
vn 0.8445 0.4039 -0.3517
vn -0.2917 0.7213 -0.6282
vn 0.8019 0.4506 -0.3924
vn -0.8192 0.4325 -0.3766
vn 0.2825 0.7234 -0.6300
vn -0.9226 0.2909 -0.2534
vn 0.0521 -0.7531 0.6558
vn -0.5190 -0.6446 0.5614
vn 0.5711 -0.6191 0.5391
vn 0.0217 0.7540 -0.6566
vn -0.9762 0.1636 -0.1425
vn 0.2290 -0.7341 0.6393
vn -0.2609 -0.7280 0.6340
vn 0.4856 0.6592 -0.5741
vn -0.4573 0.6706 -0.5840
vn 0.4679 -0.6665 0.5804
vn -0.4594 -0.6698 0.5833
vn 0.9995 0.0232 -0.0202
vn -0.3260 0.7129 -0.6208
vn 0.5145 0.6467 -0.5631
vn -0.9880 -0.1164 0.1014
vn 0.3118 -0.7165 0.6240
vn -0.1910 -0.7402 0.6446
vn 0.1936 -0.7399 0.6443
vn -0.0379 0.7536 -0.6563
vn 0.0050 0.7541 -0.6567
vn -0.4199 0.6844 -0.5960
vn 0.3446 0.7079 -0.6165
vn -0.1745 -0.7426 0.6466
vn 0.2323 -0.7335 0.6388
vn -0.2666 -0.7268 0.6330
vn 0.0693 0.7523 -0.6552
vn -0.2039 0.7383 -0.6429
vn 0.3294 0.7120 -0.6201
vn -0.9986 0.0402 -0.0350
vn -0.2855 0.7227 -0.6294
vn 0.9811 -0.1457 0.1269
vn -0.3996 -0.6913 0.6020
vn 0.5115 -0.6480 0.5643
vn -0.0301 0.7538 -0.6564
vn 0.9642 0.2001 -0.1743
vn 0.9899 0.1066 -0.0929
vn 0.9296 -0.2780 0.2421
vn 0.1441 -0.7463 0.6499
vn 0.8918 -0.3412 0.2971
vn -0.8355 -0.4143 0.3608
vn -0.1650 -0.7438 0.6477
vn -0.0134 -0.7541 0.6567
vn -0.8697 -0.3722 0.3241
vn 0.0217 0.7539 -0.6566
vn -0.3260 0.7129 -0.6209
vn -0.1745 -0.7426 0.6467
vn 0.0693 0.7523 -0.6551
vn -0.8356 -0.4143 0.3608
usemtl None
s off
f 8/1/1 9/2/1 5/3/1
f 27/4/1 29/5/1 26/6/1
f 34/7/1 30/8/1 31/9/1
f 37/10/1 39/11/1 36/12/1
f 43/13/1 41/14/1 40/15/1
f 46/16/1 45/17/1 44/18/1
f 44/18/1 1/19/1 46/16/1
f 48/20/1 49/21/1 47/22/1
f 53/23/1 50/24/1 48/20/1
f 61/25/1 25/26/1 58/27/1
f 62/28/1 24/29/1 56/30/1
f 13/31/1 12/32/1 21/33/1
f 69/34/2 72/35/2 71/36/2
f 93/37/2 91/38/2 90/39/2
f 94/40/2 99/41/2 98/42/2
f 101/43/2 103/44/2 102/45/2
f 107/46/2 105/47/2 106/48/2
f 110/49/2 108/50/2 109/51/2
f 108/50/2 110/49/2 65/52/2
f 112/53/2 111/54/2 113/55/2
f 114/56/2 116/57/2 117/58/2
f 89/59/2 125/60/2 122/61/2
f 88/62/2 126/63/2 120/64/2
f 77/65/2 78/66/2 83/67/2
f 2/68/3 68/69/3 4/70/3
f 4/70/4 69/34/4 5/3/4
f 5/3/5 70/71/5 6/72/5
f 6/72/6 67/73/6 3/74/6
f 22/75/7 71/36/7 7/76/7
f 7/76/8 72/35/8 8/1/8
f 8/1/9 73/77/9 9/2/9
f 2/68/10 82/78/10 66/79/10
f 10/80/11 128/81/11 64/82/11
f 11/83/12 74/84/12 10/80/12
f 12/32/13 75/85/13 11/83/13
f 13/31/14 76/86/14 12/32/14
f 14/87/15 77/65/15 13/31/15
f 15/88/16 78/66/16 14/87/16
f 16/89/17 79/90/17 15/88/17
f 3/74/7 81/91/7 17/92/7
f 23/93/10 82/78/10 18/94/10
f 19/95/18 119/96/18 55/97/18
f 20/98/19 83/67/19 19/95/19
f 21/33/20 84/99/20 20/98/20
f 17/92/7 86/100/7 22/75/7
f 9/2/10 87/101/10 23/93/10
f 24/29/21 120/64/21 56/30/21
f 25/26/22 122/61/22 58/27/22
f 26/6/23 91/38/23 27/4/23
f 27/4/24 92/102/24 28/103/24
f 28/103/25 93/37/25 29/5/25
f 29/5/26 90/39/26 26/6/26
f 30/8/27 95/104/27 31/9/27
f 31/9/28 96/105/28 32/106/28
f 32/106/29 97/107/29 33/108/29
f 33/108/30 98/42/30 34/7/30
f 34/7/31 99/41/31 35/109/31
f 35/109/32 94/40/32 30/8/32
f 44/18/33 65/52/33 1/19/33
f 36/12/34 101/43/34 37/10/34
f 37/10/35 102/45/35 38/110/35
f 38/110/36 103/44/36 39/11/36
f 39/11/37 100/111/37 36/12/37
f 41/14/38 104/112/38 40/15/38
f 42/113/39 105/47/39 41/14/39
f 43/13/40 106/48/40 42/113/40
f 40/15/41 107/46/41 43/13/41
f 45/17/42 108/50/42 44/18/42
f 46/16/43 109/51/43 45/17/43
f 1/19/44 110/49/44 46/16/44
f 48/20/45 113/55/45 49/21/45
f 49/21/46 111/54/46 47/22/46
f 50/24/45 112/53/45 48/20/45
f 51/114/47 114/56/47 50/24/47
f 52/115/48 115/116/48 51/114/48
f 53/23/49 116/57/49 52/115/49
f 54/117/50 117/58/50 53/23/50
f 47/22/46 118/118/46 54/117/46
f 57/119/51 89/59/51 25/26/51
f 59/120/52 80/121/52 16/89/52
f 60/122/53 88/62/53 24/29/53
f 55/97/54 123/123/54 59/120/54
f 58/27/55 125/60/55 61/25/55
f 61/25/56 121/124/56 57/119/56
f 56/30/57 126/63/57 62/28/57
f 62/28/58 124/125/58 60/122/58
f 63/126/59 85/127/59 21/33/59
f 64/82/60 127/128/60 63/126/60
f 18/94/1 2/68/1 4/70/1
f 4/70/1 5/3/1 9/2/1
f 5/3/1 6/72/1 7/76/1
f 8/1/1 5/3/1 7/76/1
f 6/72/1 3/74/1 17/92/1
f 6/72/1 17/92/1 22/75/1
f 23/93/1 18/94/1 4/70/1
f 9/2/1 23/93/1 4/70/1
f 6/72/1 22/75/1 7/76/1
f 27/4/1 28/103/1 29/5/1
f 32/106/1 33/108/1 31/9/1
f 33/108/1 34/7/1 31/9/1
f 34/7/1 35/109/1 30/8/1
f 37/10/1 38/110/1 39/11/1
f 43/13/1 42/113/1 41/14/1
f 48/20/1 47/22/1 53/23/1
f 47/22/1 54/117/1 53/23/1
f 53/23/1 52/115/1 50/24/1
f 52/115/1 51/114/1 50/24/1
f 61/25/1 57/119/1 25/26/1
f 62/28/1 60/122/1 24/29/1
f 10/80/1 64/82/1 11/83/1
f 64/82/1 63/126/1 11/83/1
f 63/126/1 21/33/1 12/32/1
f 21/33/1 20/98/1 13/31/1
f 63/126/1 12/32/1 11/83/1
f 20/98/1 19/95/1 13/31/1
f 19/95/1 55/97/1 15/88/1
f 55/97/1 59/120/1 15/88/1
f 59/120/1 16/89/1 15/88/1
f 15/88/1 14/87/1 19/95/1
f 14/87/1 13/31/1 19/95/1
f 68/69/2 66/79/2 82/78/2
f 82/78/2 87/101/2 68/69/2
f 87/101/2 73/77/2 68/69/2
f 70/71/2 69/34/2 71/36/2
f 69/34/2 68/69/2 73/77/2
f 72/35/2 69/34/2 73/77/2
f 81/91/2 67/73/2 70/71/2
f 86/100/2 81/91/2 70/71/2
f 71/36/2 86/100/2 70/71/2
f 93/37/2 92/102/2 91/38/2
f 98/42/2 97/107/2 95/104/2
f 97/107/2 96/105/2 95/104/2
f 95/104/2 94/40/2 98/42/2
f 101/43/2 100/111/2 103/44/2
f 107/46/2 104/112/2 105/47/2
f 118/118/2 111/54/2 117/58/2
f 111/54/2 112/53/2 117/58/2
f 114/56/2 115/116/2 116/57/2
f 112/53/2 114/56/2 117/58/2
f 89/59/2 121/124/2 125/60/2
f 88/62/2 124/125/2 126/63/2
f 127/128/2 128/81/2 75/85/2
f 128/81/2 74/84/2 75/85/2
f 75/85/2 76/86/2 127/128/2
f 76/86/2 77/65/2 85/127/2
f 84/99/2 85/127/2 77/65/2
f 85/127/2 127/128/2 76/86/2
f 119/96/2 83/67/2 79/90/2
f 83/67/2 84/99/2 77/65/2
f 79/90/2 83/67/2 78/66/2
f 80/121/2 123/123/2 79/90/2
f 123/123/2 119/96/2 79/90/2
f 2/68/3 66/79/3 68/69/3
f 4/70/4 68/69/4 69/34/4
f 5/3/5 69/34/5 70/71/5
f 6/72/6 70/71/6 67/73/6
f 22/75/7 86/100/7 71/36/7
f 7/76/8 71/36/8 72/35/8
f 8/1/9 72/35/9 73/77/9
f 2/68/10 18/94/10 82/78/10
f 10/80/11 74/84/11 128/81/11
f 11/83/12 75/85/12 74/84/12
f 12/32/13 76/86/13 75/85/13
f 13/31/14 77/65/14 76/86/14
f 14/87/15 78/66/15 77/65/15
f 15/88/16 79/90/16 78/66/16
f 16/89/17 80/121/17 79/90/17
f 3/74/7 67/73/7 81/91/7
f 23/93/10 87/101/10 82/78/10
f 19/95/18 83/67/18 119/96/18
f 20/98/19 84/99/19 83/67/19
f 21/33/20 85/127/20 84/99/20
f 17/92/7 81/91/7 86/100/7
f 9/2/10 73/77/10 87/101/10
f 24/29/61 88/62/61 120/64/61
f 25/26/22 89/59/22 122/61/22
f 26/6/23 90/39/23 91/38/23
f 27/4/24 91/38/24 92/102/24
f 28/103/25 92/102/25 93/37/25
f 29/5/26 93/37/26 90/39/26
f 30/8/27 94/40/27 95/104/27
f 31/9/28 95/104/28 96/105/28
f 32/106/29 96/105/29 97/107/29
f 33/108/62 97/107/62 98/42/62
f 34/7/31 98/42/31 99/41/31
f 35/109/32 99/41/32 94/40/32
f 44/18/33 108/50/33 65/52/33
f 36/12/34 100/111/34 101/43/34
f 37/10/35 101/43/35 102/45/35
f 38/110/36 102/45/36 103/44/36
f 39/11/37 103/44/37 100/111/37
f 41/14/38 105/47/38 104/112/38
f 42/113/39 106/48/39 105/47/39
f 43/13/63 107/46/63 106/48/63
f 40/15/41 104/112/41 107/46/41
f 45/17/42 109/51/42 108/50/42
f 46/16/64 110/49/64 109/51/64
f 1/19/44 65/52/44 110/49/44
f 48/20/45 112/53/45 113/55/45
f 49/21/46 113/55/46 111/54/46
f 50/24/45 114/56/45 112/53/45
f 51/114/47 115/116/47 114/56/47
f 52/115/48 116/57/48 115/116/48
f 53/23/49 117/58/49 116/57/49
f 54/117/50 118/118/50 117/58/50
f 47/22/46 111/54/46 118/118/46
f 57/119/51 121/124/51 89/59/51
f 59/120/52 123/123/52 80/121/52
f 60/122/53 124/125/53 88/62/53
f 55/97/54 119/96/54 123/123/54
f 58/27/55 122/61/55 125/60/55
f 61/25/56 125/60/56 121/124/56
f 56/30/65 120/64/65 126/63/65
f 62/28/58 126/63/58 124/125/58
f 63/126/59 127/128/59 85/127/59
f 64/82/60 128/81/60 127/128/60
