# Blender v3.1.2 OBJ File: ''
# www.blender.org
mtllib FshiInk(w).mtl
o Plane.004_Plane.008
v -1.725715 1.895037 1.590419
v -1.725715 1.895037 -1.582887
v -1.725715 3.895037 1.590419
v -1.725715 3.895037 -1.582887
v -1.725715 1.895037 0.827569
v -1.725715 1.895037 0.505693
v -1.725715 1.895037 -0.370888
v -1.725715 1.895037 -0.724465
v -1.725715 3.895037 -0.094250
v -1.725715 3.895037 0.093756
v -1.725715 2.634630 0.556208
v -1.725715 2.653682 -0.485411
v -1.725715 3.151404 -1.135641
v -1.725715 3.146131 -0.330236
v -1.725715 3.141545 0.370217
v -1.725715 3.136212 1.184951
v -1.725715 2.237461 0.058347
v -1.711632 3.344437 0.022448
v -1.711632 3.332726 0.141354
v -1.711632 3.298042 0.255691
v -1.711632 3.241719 0.361064
v -1.711632 3.165921 0.453424
v -1.711632 3.073561 0.529222
v -1.711632 2.968188 0.585545
v -1.711632 2.853851 0.620229
v -1.711632 2.734945 0.631940
v -1.711632 2.616039 0.620229
v -1.711632 2.501703 0.585545
v -1.711632 2.396329 0.529222
v -1.711632 2.303969 0.453424
v -1.711632 2.228171 0.361064
v -1.711632 2.171848 0.255691
v -1.711632 2.137164 0.141354
v -1.711632 2.125453 0.022448
v -1.711632 2.137164 -0.096458
v -1.711632 2.171848 -0.210794
v -1.711632 2.228171 -0.316167
v -1.711632 2.303969 -0.408528
v -1.711632 2.396329 -0.484326
v -1.711632 2.501703 -0.540649
v -1.711632 2.616039 -0.575333
v -1.711632 2.734945 -0.587044
v -1.711632 2.853851 -0.575333
v -1.711632 2.968188 -0.540649
v -1.711632 3.073561 -0.484326
v -1.711632 3.165921 -0.408528
v -1.711632 3.241719 -0.316167
v -1.711632 3.298042 -0.210794
v -1.711632 3.332726 -0.096458
v -1.711632 2.487731 0.391176
v -1.711632 2.226454 0.102871
v -1.711632 2.231860 -0.037678
v -1.711632 2.907575 -0.468334
v -1.711632 2.963434 -0.464730
v -1.711632 2.965236 -0.309766
v -1.711632 2.435475 0.043408
v -1.711632 2.539986 0.178551
v -1.711632 2.572420 0.218193
v -1.711632 2.570618 0.400186
v -1.730251 1.895037 -1.582887
v -1.730251 1.895037 1.590419
v -1.730251 3.895037 -1.582887
v -1.730250 3.895037 1.590419
v -1.730251 1.895037 -0.820037
v -1.730251 1.895037 -0.498161
v -1.730251 1.895037 0.378420
v -1.730251 1.895037 0.731997
v -1.730251 3.895037 0.101782
v -1.730251 3.895037 -0.086223
v -1.730251 2.634630 -0.548676
v -1.730251 2.653682 0.492943
v -1.730251 3.151404 1.143173
v -1.730251 3.146131 0.337768
v -1.730251 3.141545 -0.362685
v -1.730251 3.136212 -1.177418
v -1.730251 2.237461 -0.050815
v -1.744334 3.344437 -0.014916
v -1.744334 3.332726 -0.133822
v -1.744334 3.298042 -0.248159
v -1.744334 3.241719 -0.353532
v -1.744334 3.165921 -0.445892
v -1.744334 3.073561 -0.521690
v -1.744334 2.968188 -0.578013
v -1.744334 2.853851 -0.612697
v -1.744334 2.734945 -0.624408
v -1.744334 2.616039 -0.612697
v -1.744334 2.501703 -0.578013
v -1.744334 2.396329 -0.521690
v -1.744334 2.303969 -0.445892
v -1.744334 2.228171 -0.353532
v -1.744334 2.171848 -0.248159
v -1.744334 2.137164 -0.133822
v -1.744334 2.125453 -0.014916
v -1.744334 2.137164 0.103990
v -1.744334 2.171848 0.218326
v -1.744334 2.228171 0.323700
v -1.744334 2.303969 0.416060
v -1.744334 2.396329 0.491858
v -1.744334 2.501703 0.548181
v -1.744334 2.616039 0.582865
v -1.744334 2.734945 0.594576
v -1.744334 2.853851 0.582865
v -1.744334 2.968188 0.548181
v -1.744334 3.073561 0.491858
v -1.744334 3.165921 0.416060
v -1.744334 3.241719 0.323700
v -1.744334 3.298042 0.218326
v -1.744334 3.332726 0.103990
v -1.744334 2.487731 -0.383644
v -1.744334 2.226454 -0.095339
v -1.744334 2.231860 0.045210
v -1.744334 2.907575 0.475866
v -1.744334 2.963434 0.472262
v -1.744334 2.965236 0.317298
v -1.744334 2.435475 -0.035876
v -1.744334 2.539986 -0.171019
v -1.744334 2.572420 -0.210661
v -1.744334 2.570618 -0.392653
v -1.586653 1.895037 1.729481
v 1.586653 1.895037 1.729481
v -1.586653 3.895037 1.729481
v 1.586653 3.895037 1.729481
v -0.823803 1.895037 1.729481
v -0.501927 1.895037 1.729481
v 0.374654 1.895037 1.729481
v 0.728231 1.895037 1.729481
v 0.098016 3.895037 1.729481
v -0.089990 3.895037 1.729481
v -0.552441 2.634630 1.729481
v 0.489177 2.653682 1.729481
v 1.139407 3.151404 1.729481
v 0.334002 3.146131 1.729481
v -0.366451 3.141545 1.729481
v -1.181185 3.136212 1.729481
v -0.054581 2.237461 1.729481
v -0.018682 3.344437 1.743564
v -0.137588 3.332726 1.743564
v -0.251925 3.298042 1.743564
v -0.357298 3.241719 1.743564
v -0.449658 3.165921 1.743564
v -0.525456 3.073561 1.743564
v -0.581779 2.968188 1.743564
v -0.616463 2.853851 1.743564
v -0.628174 2.734945 1.743564
v -0.616463 2.616039 1.743564
v -0.581779 2.501703 1.743564
v -0.525456 2.396329 1.743564
v -0.449658 2.303969 1.743564
v -0.357298 2.228171 1.743564
v -0.251925 2.171848 1.743564
v -0.137588 2.137164 1.743564
v -0.018682 2.125453 1.743564
v 0.100224 2.137164 1.743564
v 0.214560 2.171848 1.743564
v 0.319934 2.228171 1.743564
v 0.412294 2.303969 1.743564
v 0.488092 2.396329 1.743564
v 0.544415 2.501703 1.743564
v 0.579099 2.616039 1.743564
v 0.590810 2.734945 1.743564
v 0.579099 2.853851 1.743564
v 0.544415 2.968188 1.743564
v 0.488092 3.073560 1.743564
v 0.412294 3.165921 1.743564
v 0.319933 3.241719 1.743564
v 0.214560 3.298042 1.743564
v 0.100224 3.332726 1.743564
v -0.387410 2.487731 1.743564
v -0.099105 2.226454 1.743564
v 0.041444 2.231860 1.743564
v 0.472100 2.907575 1.743564
v 0.468496 2.963434 1.743564
v 0.313532 2.965236 1.743564
v -0.039642 2.435475 1.743564
v -0.174785 2.539986 1.743564
v -0.214427 2.572420 1.743564
v -0.396420 2.570618 1.743564
v 1.586653 1.895037 1.724945
v -1.586653 1.895037 1.724946
v 1.586653 3.895037 1.724945
v -1.586653 3.895037 1.724946
v 0.823803 1.895037 1.724945
v 0.501928 1.895037 1.724945
v -0.374654 1.895037 1.724946
v -0.728231 1.895037 1.724946
v -0.098016 3.895037 1.724946
v 0.089990 3.895037 1.724946
v 0.552442 2.634630 1.724945
v -0.489177 2.653682 1.724946
v -1.139407 3.151404 1.724946
v -0.334002 3.146131 1.724946
v 0.366451 3.141545 1.724945
v 1.181185 3.136212 1.724945
v 0.054581 2.237461 1.724945
v 0.018682 3.344437 1.710863
v 0.137588 3.332726 1.710863
v 0.251925 3.298042 1.710863
v 0.357298 3.241719 1.710863
v 0.449658 3.165921 1.710863
v 0.525456 3.073561 1.710863
v 0.581779 2.968188 1.710862
v 0.616463 2.853851 1.710862
v 0.628174 2.734945 1.710862
v 0.616463 2.616039 1.710862
v 0.581779 2.501703 1.710862
v 0.525456 2.396329 1.710862
v 0.449658 2.303969 1.710862
v 0.357298 2.228171 1.710862
v 0.251925 2.171848 1.710862
v 0.137588 2.137164 1.710862
v 0.018682 2.125453 1.710863
v -0.100224 2.137164 1.710863
v -0.214560 2.171848 1.710863
v -0.319934 2.228171 1.710863
v -0.412294 2.303969 1.710863
v -0.488092 2.396329 1.710863
v -0.544415 2.501703 1.710863
v -0.579098 2.616039 1.710863
v -0.590810 2.734945 1.710863
v -0.579098 2.853851 1.710863
v -0.544415 2.968188 1.710863
v -0.488092 3.073560 1.710863
v -0.412294 3.165921 1.710863
v -0.319933 3.241719 1.710863
v -0.214560 3.298042 1.710863
v -0.100224 3.332726 1.710863
v 0.387410 2.487731 1.710862
v 0.099105 2.226454 1.710863
v -0.041444 2.231860 1.710863
v -0.472100 2.907575 1.710863
v -0.468496 2.963434 1.710863
v -0.313532 2.965236 1.710863
v 0.039642 2.435475 1.710863
v 0.174785 2.539986 1.710863
v 0.214427 2.572420 1.710863
v 0.396420 2.570618 1.710862
v -1.586653 1.895037 -1.721949
v 1.586653 1.895037 -1.721949
v -1.586653 3.895037 -1.721949
v 1.586653 3.895037 -1.721949
v -0.823803 1.895037 -1.721949
v -0.501927 1.895037 -1.721949
v 0.374654 1.895037 -1.721949
v 0.728231 1.895037 -1.721949
v 0.098016 3.895037 -1.721949
v -0.089990 3.895037 -1.721949
v -0.552442 2.634630 -1.721949
v 0.489177 2.653682 -1.721949
v 1.139407 3.151404 -1.721949
v 0.334002 3.146131 -1.721949
v -0.366451 3.141545 -1.721949
v -1.181185 3.136212 -1.721949
v -0.054581 2.237461 -1.721949
v -0.018682 3.344437 -1.707866
v -0.137588 3.332726 -1.707866
v -0.251925 3.298042 -1.707866
v -0.357298 3.241719 -1.707866
v -0.449658 3.165921 -1.707866
v -0.525456 3.073561 -1.707866
v -0.581779 2.968188 -1.707866
v -0.616463 2.853851 -1.707866
v -0.628174 2.734945 -1.707866
v -0.616463 2.616039 -1.707866
v -0.581779 2.501703 -1.707866
v -0.525456 2.396329 -1.707866
v -0.449658 2.303969 -1.707866
v -0.357298 2.228171 -1.707866
v -0.251925 2.171848 -1.707866
v -0.137588 2.137164 -1.707866
v -0.018682 2.125453 -1.707866
v 0.100224 2.137164 -1.707866
v 0.214560 2.171848 -1.707866
v 0.319934 2.228171 -1.707866
v 0.412294 2.303969 -1.707866
v 0.488092 2.396329 -1.707866
v 0.544415 2.501703 -1.707866
v 0.579099 2.616039 -1.707866
v 0.590810 2.734945 -1.707866
v 0.579099 2.853851 -1.707866
v 0.544415 2.968188 -1.707866
v 0.488092 3.073560 -1.707866
v 0.412294 3.165921 -1.707866
v 0.319933 3.241719 -1.707866
v 0.214560 3.298042 -1.707866
v 0.100224 3.332726 -1.707866
v -0.387410 2.487731 -1.707866
v -0.099105 2.226454 -1.707866
v 0.041444 2.231860 -1.707866
v 0.472100 2.907575 -1.707866
v 0.468496 2.963434 -1.707866
v 0.313532 2.965236 -1.707866
v -0.039642 2.435475 -1.707866
v -0.174785 2.539986 -1.707866
v -0.214427 2.572420 -1.707866
v -0.396420 2.570618 -1.707866
v 1.586653 1.895037 -1.726485
v -1.586653 1.895037 -1.726485
v 1.586653 3.895037 -1.726485
v -1.586653 3.895037 -1.726485
v 0.823803 1.895037 -1.726485
v 0.501927 1.895037 -1.726485
v -0.374654 1.895037 -1.726485
v -0.728231 1.895037 -1.726485
v -0.098016 3.895037 -1.726485
v 0.089989 3.895037 -1.726485
v 0.552442 2.634630 -1.726485
v -0.489177 2.653682 -1.726485
v -1.139407 3.151404 -1.726485
v -0.334002 3.146131 -1.726485
v 0.366451 3.141545 -1.726485
v 1.181185 3.136212 -1.726485
v 0.054581 2.237461 -1.726485
v 0.018682 3.344437 -1.740568
v 0.137588 3.332726 -1.740568
v 0.251925 3.298042 -1.740568
v 0.357298 3.241719 -1.740568
v 0.449658 3.165921 -1.740568
v 0.525456 3.073561 -1.740568
v 0.581779 2.968188 -1.740568
v 0.616463 2.853851 -1.740568
v 0.628174 2.734945 -1.740568
v 0.616463 2.616039 -1.740568
v 0.581779 2.501703 -1.740568
v 0.525456 2.396329 -1.740568
v 0.449658 2.303969 -1.740568
v 0.357298 2.228171 -1.740568
v 0.251925 2.171848 -1.740568
v 0.137588 2.137164 -1.740568
v 0.018682 2.125453 -1.740568
v -0.100224 2.137164 -1.740568
v -0.214560 2.171848 -1.740568
v -0.319934 2.228171 -1.740568
v -0.412294 2.303969 -1.740568
v -0.488092 2.396329 -1.740568
v -0.544415 2.501703 -1.740568
v -0.579099 2.616039 -1.740568
v -0.590810 2.734945 -1.740568
v -0.579099 2.853851 -1.740568
v -0.544415 2.968188 -1.740568
v -0.488092 3.073560 -1.740568
v -0.412294 3.165921 -1.740568
v -0.319934 3.241719 -1.740568
v -0.214560 3.298042 -1.740568
v -0.100224 3.332726 -1.740568
v 0.387410 2.487731 -1.740568
v 0.099105 2.226454 -1.740568
v -0.041444 2.231860 -1.740568
v -0.472100 2.907575 -1.740568
v -0.468496 2.963434 -1.740568
v -0.313532 2.965236 -1.740568
v 0.039642 2.435475 -1.740568
v 0.174785 2.539986 -1.740568
v 0.214427 2.572420 -1.740568
v 0.396420 2.570618 -1.740568
v 1.725715 1.895037 1.590419
v 1.725715 1.895037 -1.582887
v 1.725715 3.895037 1.590419
v 1.725715 3.895037 -1.582887
v 1.725715 1.895037 0.827569
v 1.725715 1.895037 0.505693
v 1.725715 1.895037 -0.370888
v 1.725715 1.895037 -0.724465
v 1.725715 3.895037 -0.094250
v 1.725715 3.895037 0.093755
v 1.725715 2.634630 0.556207
v 1.725715 2.653682 -0.485411
v 1.725715 3.151404 -1.135641
v 1.725715 3.146131 -0.330236
v 1.725715 3.141545 0.370217
v 1.725715 3.136212 1.184950
v 1.725715 2.237461 0.058347
v 1.739798 3.344437 0.022448
v 1.739798 3.332726 0.141354
v 1.739798 3.298042 0.255690
v 1.739798 3.241719 0.361064
v 1.739798 3.165921 0.453424
v 1.739798 3.073561 0.529222
v 1.739798 2.968188 0.585545
v 1.739798 2.853851 0.620229
v 1.739798 2.734945 0.631940
v 1.739798 2.616039 0.620229
v 1.739798 2.501703 0.585545
v 1.739798 2.396329 0.529222
v 1.739798 2.303969 0.453424
v 1.739798 2.228171 0.361064
v 1.739798 2.171848 0.255690
v 1.739798 2.137164 0.141354
v 1.739798 2.125453 0.022448
v 1.739798 2.137164 -0.096458
v 1.739798 2.171848 -0.210795
v 1.739798 2.228171 -0.316168
v 1.739798 2.303969 -0.408528
v 1.739798 2.396329 -0.484326
v 1.739798 2.501703 -0.540649
v 1.739798 2.616039 -0.575333
v 1.739798 2.734945 -0.587044
v 1.739798 2.853851 -0.575333
v 1.739798 2.968188 -0.540649
v 1.739798 3.073560 -0.484326
v 1.739798 3.165921 -0.408528
v 1.739798 3.241719 -0.316168
v 1.739798 3.298042 -0.210795
v 1.739798 3.332726 -0.096458
v 1.739798 2.487731 0.391176
v 1.739798 2.226454 0.102871
v 1.739798 2.231860 -0.037678
v 1.739798 2.907575 -0.468334
v 1.739798 2.963434 -0.464730
v 1.739798 2.965236 -0.309766
v 1.739798 2.435475 0.043408
v 1.739798 2.539986 0.178551
v 1.739798 2.572420 0.218193
v 1.739798 2.570618 0.400185
v 1.721179 1.895037 -1.582887
v 1.721180 1.895037 1.590419
v 1.721179 3.895037 -1.582887
v 1.721180 3.895037 1.590419
v 1.721179 1.895037 -0.820037
v 1.721179 1.895037 -0.498162
v 1.721180 1.895037 0.378420
v 1.721180 1.895037 0.731997
v 1.721179 3.895037 0.101782
v 1.721179 3.895037 -0.086224
v 1.721179 2.634630 -0.548676
v 1.721180 2.653682 0.492942
v 1.721180 3.151404 1.143173
v 1.721180 3.146131 0.337768
v 1.721179 3.141545 -0.362685
v 1.721179 3.136212 -1.177419
v 1.721179 2.237461 -0.050815
v 1.707097 3.344437 -0.014916
v 1.707096 3.332726 -0.133822
v 1.707096 3.298042 -0.248159
v 1.707096 3.241719 -0.353532
v 1.707096 3.165921 -0.445892
v 1.707096 3.073561 -0.521690
v 1.707096 2.968188 -0.578013
v 1.707096 2.853851 -0.612697
v 1.707096 2.734945 -0.624408
v 1.707096 2.616039 -0.612697
v 1.707096 2.501703 -0.578013
v 1.707096 2.396329 -0.521690
v 1.707096 2.303969 -0.445892
v 1.707096 2.228171 -0.353532
v 1.707096 2.171848 -0.248159
v 1.707096 2.137164 -0.133822
v 1.707097 2.125453 -0.014916
v 1.707097 2.137164 0.103990
v 1.707097 2.171848 0.218326
v 1.707097 2.228171 0.323699
v 1.707097 2.303969 0.416060
v 1.707097 2.396329 0.491858
v 1.707097 2.501703 0.548181
v 1.707097 2.616039 0.582864
v 1.707097 2.734945 0.594576
v 1.707097 2.853851 0.582864
v 1.707097 2.968188 0.548181
v 1.707097 3.073560 0.491858
v 1.707097 3.165921 0.416060
v 1.707097 3.241719 0.323699
v 1.707097 3.298042 0.218326
v 1.707097 3.332726 0.103990
v 1.707096 2.487731 -0.383644
v 1.707096 2.226454 -0.095339
v 1.707097 2.231860 0.045210
v 1.707097 2.907575 0.475866
v 1.707097 2.963434 0.472262
v 1.707097 2.965236 0.317298
v 1.707097 2.435475 -0.035876
v 1.707096 2.539986 -0.171019
v 1.707096 2.572420 -0.210661
v 1.707096 2.570618 -0.392654
vt 0.127775 0.620587
vt 0.471642 1.000000
vt 0.000000 1.000000
vt 1.000000 0.000000
vt 1.000000 1.000000
vt 0.859060 0.628183
vt 0.618064 0.000000
vt 0.482800 0.171212
vt 0.341828 0.000000
vt 0.000000 0.000000
vt 0.240396 0.000000
vt 0.325910 0.369796
vt 0.384521 0.623254
vt 0.530888 1.000000
vt 0.605254 0.625547
vt 0.654154 0.379323
vt 0.729487 0.000000
vt 0.000000 0.000000
vt 0.000000 0.000000
vt 0.000000 0.000000
vt 0.000000 0.000000
vt 0.000000 0.000000
vt 0.000000 0.000000
vt 0.000000 0.000000
vt 0.000000 0.000000
vt 0.000000 0.000000
vt 0.000000 0.000000
vt 0.000000 0.000000
vt 0.000000 0.000000
vt 0.000000 0.000000
vt 0.000000 0.000000
vt 0.000000 0.000000
vt 0.000000 0.000000
vt 0.000000 0.000000
vt 0.000000 0.000000
vt 0.000000 0.000000
vt 0.000000 0.000000
vt 0.000000 0.000000
vt 0.000000 0.000000
vt 0.000000 0.000000
vt 0.000000 0.000000
vt 0.000000 0.000000
vt 0.000000 0.000000
vt 0.000000 0.000000
vt 0.000000 0.000000
vt 0.000000 0.000000
vt 0.000000 0.000000
vt 0.000000 0.000000
vt 0.000000 0.000000
vt 0.000000 0.000000
vt 0.000000 0.000000
vt 0.000000 0.000000
vt 0.000000 0.000000
vt 0.000000 0.000000
vt 0.000000 0.000000
vt 0.000000 0.000000
vt 0.000000 0.000000
vt 0.000000 0.000000
vt 0.000000 0.000000
vt 0.127775 0.620587
vt 0.471642 1.000000
vt 0.000000 1.000000
vt 1.000000 0.000000
vt 1.000000 1.000000
vt 0.859060 0.628183
vt 0.618064 0.000000
vt 0.482800 0.171212
vt 0.341828 0.000000
vt 0.000000 0.000000
vt 0.240396 0.000000
vt 0.325910 0.369796
vt 0.384521 0.623254
vt 0.530888 1.000000
vt 0.605254 0.625547
vt 0.654154 0.379323
vt 0.729487 0.000000
vt 0.000000 0.000000
vt 0.000000 0.000000
vt 0.000000 0.000000
vt 0.000000 0.000000
vt 0.000000 0.000000
vt 0.000000 0.000000
vt 0.000000 0.000000
vt 0.000000 0.000000
vt 0.000000 0.000000
vt 0.000000 0.000000
vt 0.000000 0.000000
vt 0.000000 0.000000
vt 0.000000 0.000000
vt 0.000000 0.000000
vt 0.000000 0.000000
vt 0.000000 0.000000
vt 0.000000 0.000000
vt 0.000000 0.000000
vt 0.000000 0.000000
vt 0.000000 0.000000
vt 0.000000 0.000000
vt 0.000000 0.000000
vt 0.000000 0.000000
vt 0.000000 0.000000
vt 0.000000 0.000000
vt 0.000000 0.000000
vt 0.000000 0.000000
vt 0.000000 0.000000
vt 0.000000 0.000000
vt 0.000000 0.000000
vt 0.000000 0.000000
vt 0.000000 0.000000
vt 0.000000 0.000000
vt 0.000000 0.000000
vt 0.000000 0.000000
vt 0.000000 0.000000
vt 0.000000 0.000000
vt 0.000000 0.000000
vt 0.000000 0.000000
vt 0.000000 0.000000
vt 0.000000 0.000000
vt 0.000000 0.000000
vt 0.127775 0.620587
vt 0.471642 1.000000
vt 0.000000 1.000000
vt 1.000000 0.000000
vt 1.000000 1.000000
vt 0.859060 0.628183
vt 0.618064 0.000000
vt 0.482800 0.171212
vt 0.341828 0.000000
vt 0.000000 0.000000
vt 0.240396 0.000000
vt 0.325910 0.369796
vt 0.384521 0.623254
vt 0.530888 1.000000
vt 0.605254 0.625547
vt 0.654154 0.379323
vt 0.729487 0.000000
vt 0.000000 0.000000
vt 0.000000 0.000000
vt 0.000000 0.000000
vt 0.000000 0.000000
vt 0.000000 0.000000
vt 0.000000 0.000000
vt 0.000000 0.000000
vt 0.000000 0.000000
vt 0.000000 0.000000
vt 0.000000 0.000000
vt 0.000000 0.000000
vt 0.000000 0.000000
vt 0.000000 0.000000
vt 0.000000 0.000000
vt 0.000000 0.000000
vt 0.000000 0.000000
vt 0.000000 0.000000
vt 0.000000 0.000000
vt 0.000000 0.000000
vt 0.000000 0.000000
vt 0.000000 0.000000
vt 0.000000 0.000000
vt 0.000000 0.000000
vt 0.000000 0.000000
vt 0.000000 0.000000
vt 0.000000 0.000000
vt 0.000000 0.000000
vt 0.000000 0.000000
vt 0.000000 0.000000
vt 0.000000 0.000000
vt 0.000000 0.000000
vt 0.000000 0.000000
vt 0.000000 0.000000
vt 0.000000 0.000000
vt 0.000000 0.000000
vt 0.000000 0.000000
vt 0.000000 0.000000
vt 0.000000 0.000000
vt 0.000000 0.000000
vt 0.000000 0.000000
vt 0.000000 0.000000
vt 0.000000 0.000000
vt 0.127775 0.620587
vt 0.471642 1.000000
vt 0.000000 1.000000
vt 1.000000 0.000000
vt 1.000000 1.000000
vt 0.859060 0.628183
vt 0.618064 0.000000
vt 0.482800 0.171212
vt 0.341828 0.000000
vt 0.000000 0.000000
vt 0.240396 0.000000
vt 0.325910 0.369796
vt 0.384521 0.623254
vt 0.530888 1.000000
vt 0.605254 0.625547
vt 0.654154 0.379323
vt 0.729487 0.000000
vt 0.000000 0.000000
vt 0.000000 0.000000
vt 0.000000 0.000000
vt 0.000000 0.000000
vt 0.000000 0.000000
vt 0.000000 0.000000
vt 0.000000 0.000000
vt 0.000000 0.000000
vt 0.000000 0.000000
vt 0.000000 0.000000
vt 0.000000 0.000000
vt 0.000000 0.000000
vt 0.000000 0.000000
vt 0.000000 0.000000
vt 0.000000 0.000000
vt 0.000000 0.000000
vt 0.000000 0.000000
vt 0.000000 0.000000
vt 0.000000 0.000000
vt 0.000000 0.000000
vt 0.000000 0.000000
vt 0.000000 0.000000
vt 0.000000 0.000000
vt 0.000000 0.000000
vt 0.000000 0.000000
vt 0.000000 0.000000
vt 0.000000 0.000000
vt 0.000000 0.000000
vt 0.000000 0.000000
vt 0.000000 0.000000
vt 0.000000 0.000000
vt 0.000000 0.000000
vt 0.000000 0.000000
vt 0.000000 0.000000
vt 0.000000 0.000000
vt 0.000000 0.000000
vt 0.000000 0.000000
vt 0.000000 0.000000
vt 0.000000 0.000000
vt 0.000000 0.000000
vt 0.000000 0.000000
vt 0.000000 0.000000
vt 0.127775 0.620587
vt 0.471642 1.000000
vt 0.000000 1.000000
vt 1.000000 0.000000
vt 1.000000 1.000000
vt 0.859060 0.628183
vt 0.618064 0.000000
vt 0.482800 0.171212
vt 0.341828 0.000000
vt 0.000000 0.000000
vt 0.240396 0.000000
vt 0.325910 0.369796
vt 0.384521 0.623254
vt 0.530888 1.000000
vt 0.605254 0.625547
vt 0.654154 0.379323
vt 0.729487 0.000000
vt 0.000000 0.000000
vt 0.000000 0.000000
vt 0.000000 0.000000
vt 0.000000 0.000000
vt 0.000000 0.000000
vt 0.000000 0.000000
vt 0.000000 0.000000
vt 0.000000 0.000000
vt 0.000000 0.000000
vt 0.000000 0.000000
vt 0.000000 0.000000
vt 0.000000 0.000000
vt 0.000000 0.000000
vt 0.000000 0.000000
vt 0.000000 0.000000
vt 0.000000 0.000000
vt 0.000000 0.000000
vt 0.000000 0.000000
vt 0.000000 0.000000
vt 0.000000 0.000000
vt 0.000000 0.000000
vt 0.000000 0.000000
vt 0.000000 0.000000
vt 0.000000 0.000000
vt 0.000000 0.000000
vt 0.000000 0.000000
vt 0.000000 0.000000
vt 0.000000 0.000000
vt 0.000000 0.000000
vt 0.000000 0.000000
vt 0.000000 0.000000
vt 0.000000 0.000000
vt 0.000000 0.000000
vt 0.000000 0.000000
vt 0.000000 0.000000
vt 0.000000 0.000000
vt 0.000000 0.000000
vt 0.000000 0.000000
vt 0.000000 0.000000
vt 0.000000 0.000000
vt 0.000000 0.000000
vt 0.000000 0.000000
vt 0.127775 0.620587
vt 0.471642 1.000000
vt 0.000000 1.000000
vt 1.000000 0.000000
vt 1.000000 1.000000
vt 0.859060 0.628183
vt 0.618064 0.000000
vt 0.482800 0.171212
vt 0.341828 0.000000
vt 0.000000 0.000000
vt 0.240396 0.000000
vt 0.325910 0.369796
vt 0.384521 0.623254
vt 0.530888 1.000000
vt 0.605254 0.625547
vt 0.654154 0.379323
vt 0.729487 0.000000
vt 0.000000 0.000000
vt 0.000000 0.000000
vt 0.000000 0.000000
vt 0.000000 0.000000
vt 0.000000 0.000000
vt 0.000000 0.000000
vt 0.000000 0.000000
vt 0.000000 0.000000
vt 0.000000 0.000000
vt 0.000000 0.000000
vt 0.000000 0.000000
vt 0.000000 0.000000
vt 0.000000 0.000000
vt 0.000000 0.000000
vt 0.000000 0.000000
vt 0.000000 0.000000
vt 0.000000 0.000000
vt 0.000000 0.000000
vt 0.000000 0.000000
vt 0.000000 0.000000
vt 0.000000 0.000000
vt 0.000000 0.000000
vt 0.000000 0.000000
vt 0.000000 0.000000
vt 0.000000 0.000000
vt 0.000000 0.000000
vt 0.000000 0.000000
vt 0.000000 0.000000
vt 0.000000 0.000000
vt 0.000000 0.000000
vt 0.000000 0.000000
vt 0.000000 0.000000
vt 0.000000 0.000000
vt 0.000000 0.000000
vt 0.000000 0.000000
vt 0.000000 0.000000
vt 0.000000 0.000000
vt 0.000000 0.000000
vt 0.000000 0.000000
vt 0.000000 0.000000
vt 0.000000 0.000000
vt 0.000000 0.000000
vt 0.127775 0.620587
vt 0.471642 1.000000
vt 0.000000 1.000000
vt 1.000000 0.000000
vt 1.000000 1.000000
vt 0.859060 0.628183
vt 0.618064 0.000000
vt 0.482800 0.171212
vt 0.341828 0.000000
vt 0.000000 0.000000
vt 0.240396 0.000000
vt 0.325910 0.369796
vt 0.384521 0.623254
vt 0.530888 1.000000
vt 0.605254 0.625547
vt 0.654154 0.379323
vt 0.729487 0.000000
vt 0.000000 0.000000
vt 0.000000 0.000000
vt 0.000000 0.000000
vt 0.000000 0.000000
vt 0.000000 0.000000
vt 0.000000 0.000000
vt 0.000000 0.000000
vt 0.000000 0.000000
vt 0.000000 0.000000
vt 0.000000 0.000000
vt 0.000000 0.000000
vt 0.000000 0.000000
vt 0.000000 0.000000
vt 0.000000 0.000000
vt 0.000000 0.000000
vt 0.000000 0.000000
vt 0.000000 0.000000
vt 0.000000 0.000000
vt 0.000000 0.000000
vt 0.000000 0.000000
vt 0.000000 0.000000
vt 0.000000 0.000000
vt 0.000000 0.000000
vt 0.000000 0.000000
vt 0.000000 0.000000
vt 0.000000 0.000000
vt 0.000000 0.000000
vt 0.000000 0.000000
vt 0.000000 0.000000
vt 0.000000 0.000000
vt 0.000000 0.000000
vt 0.000000 0.000000
vt 0.000000 0.000000
vt 0.000000 0.000000
vt 0.000000 0.000000
vt 0.000000 0.000000
vt 0.000000 0.000000
vt 0.000000 0.000000
vt 0.000000 0.000000
vt 0.000000 0.000000
vt 0.000000 0.000000
vt 0.000000 0.000000
vt 0.127775 0.620587
vt 0.471642 1.000000
vt 0.000000 1.000000
vt 1.000000 0.000000
vt 1.000000 1.000000
vt 0.859060 0.628183
vt 0.618064 0.000000
vt 0.482800 0.171212
vt 0.341828 0.000000
vt 0.000000 0.000000
vt 0.240396 0.000000
vt 0.325910 0.369796
vt 0.384521 0.623254
vt 0.530888 1.000000
vt 0.605254 0.625547
vt 0.654154 0.379323
vt 0.729487 0.000000
vt 0.000000 0.000000
vt 0.000000 0.000000
vt 0.000000 0.000000
vt 0.000000 0.000000
vt 0.000000 0.000000
vt 0.000000 0.000000
vt 0.000000 0.000000
vt 0.000000 0.000000
vt 0.000000 0.000000
vt 0.000000 0.000000
vt 0.000000 0.000000
vt 0.000000 0.000000
vt 0.000000 0.000000
vt 0.000000 0.000000
vt 0.000000 0.000000
vt 0.000000 0.000000
vt 0.000000 0.000000
vt 0.000000 0.000000
vt 0.000000 0.000000
vt 0.000000 0.000000
vt 0.000000 0.000000
vt 0.000000 0.000000
vt 0.000000 0.000000
vt 0.000000 0.000000
vt 0.000000 0.000000
vt 0.000000 0.000000
vt 0.000000 0.000000
vt 0.000000 0.000000
vt 0.000000 0.000000
vt 0.000000 0.000000
vt 0.000000 0.000000
vt 0.000000 0.000000
vt 0.000000 0.000000
vt 0.000000 0.000000
vt 0.000000 0.000000
vt 0.000000 0.000000
vt 0.000000 0.000000
vt 0.000000 0.000000
vt 0.000000 0.000000
vt 0.000000 0.000000
vt 0.000000 0.000000
vt 0.000000 0.000000
vn 1.0000 0.0000 -0.0000
vn -1.0000 0.0000 0.0000
vn 0.0000 0.0000 1.0000
vn 0.0000 0.0000 -1.0000
usemtl Material.023
s off
f 16/1/1 10/2/1 3/3/1
f 2/4/1 4/5/1 13/6/1
f 7/7/1 17/8/1 6/9/1
f 3/3/1 1/10/1 16/1/1
f 1/10/1 5/11/1 11/12/1
f 16/1/1 1/10/1 11/12/1
f 16/1/1 15/13/1 10/2/1
f 4/5/1 9/14/1 13/6/1
f 9/14/1 14/15/1 13/6/1
f 13/6/1 12/16/1 2/4/1
f 12/16/1 8/17/1 2/4/1
usemtl Material.024
f 58/18/1 57/19/1 55/20/1
f 51/21/1 50/22/1 31/23/1
f 18/24/1 19/25/1 55/20/1
f 19/25/1 20/26/1 58/18/1
f 55/20/1 19/25/1 58/18/1
f 20/26/1 21/27/1 58/18/1
f 21/27/1 22/28/1 58/18/1
f 22/28/1 23/29/1 58/18/1
f 23/29/1 24/30/1 58/18/1
f 24/30/1 25/31/1 59/32/1
f 25/31/1 26/33/1 59/32/1
f 26/33/1 27/34/1 59/32/1
f 27/34/1 28/35/1 59/32/1
f 48/36/1 49/37/1 55/20/1
f 49/37/1 18/24/1 55/20/1
f 46/38/1 47/39/1 55/20/1
f 47/39/1 48/36/1 55/20/1
f 44/40/1 45/41/1 54/42/1
f 45/41/1 46/38/1 55/20/1
f 54/42/1 53/43/1 44/40/1
f 57/19/1 56/44/1 55/20/1
f 55/20/1 54/42/1 45/41/1
f 24/30/1 59/32/1 58/18/1
f 43/45/1 44/40/1 53/43/1
f 43/45/1 53/43/1 42/46/1
f 53/43/1 52/47/1 39/48/1
f 41/49/1 53/43/1 40/50/1
f 41/49/1 42/46/1 53/43/1
f 39/48/1 40/50/1 53/43/1
f 37/51/1 38/52/1 52/47/1
f 38/52/1 39/48/1 52/47/1
f 35/53/1 36/54/1 52/47/1
f 36/54/1 37/51/1 52/47/1
f 33/55/1 34/56/1 51/21/1
f 34/56/1 35/53/1 52/47/1
f 51/21/1 34/56/1 52/47/1
f 31/23/1 32/57/1 51/21/1
f 32/57/1 33/55/1 51/21/1
f 29/58/1 30/59/1 50/22/1
f 30/59/1 31/23/1 50/22/1
f 59/32/1 28/35/1 50/22/1
f 28/35/1 29/58/1 50/22/1
usemtl Material.026
f 75/60/2 69/61/2 62/62/2
f 61/63/2 63/64/2 72/65/2
f 66/66/2 76/67/2 65/68/2
f 62/62/2 60/69/2 75/60/2
f 60/69/2 64/70/2 70/71/2
f 75/60/2 60/69/2 70/71/2
f 75/60/2 74/72/2 69/61/2
f 63/64/2 68/73/2 72/65/2
f 68/73/2 73/74/2 72/65/2
f 72/65/2 71/75/2 61/63/2
f 71/75/2 67/76/2 61/63/2
usemtl Material.027
f 117/77/2 116/78/2 114/79/2
f 110/80/2 109/81/2 90/82/2
f 77/83/2 78/84/2 114/79/2
f 78/84/2 79/85/2 117/77/2
f 114/79/2 78/84/2 117/77/2
f 79/85/2 80/86/2 117/77/2
f 80/86/2 81/87/2 117/77/2
f 81/87/2 82/88/2 117/77/2
f 82/88/2 83/89/2 117/77/2
f 83/89/2 84/90/2 118/91/2
f 84/90/2 85/92/2 118/91/2
f 85/92/2 86/93/2 118/91/2
f 86/93/2 87/94/2 118/91/2
f 107/95/2 108/96/2 114/79/2
f 108/96/2 77/83/2 114/79/2
f 105/97/2 106/98/2 114/79/2
f 106/98/2 107/95/2 114/79/2
f 103/99/2 104/100/2 113/101/2
f 104/100/2 105/97/2 114/79/2
f 113/101/2 112/102/2 103/99/2
f 116/78/2 115/103/2 114/79/2
f 114/79/2 113/101/2 104/100/2
f 83/89/2 118/91/2 117/77/2
f 102/104/2 103/99/2 112/102/2
f 102/104/2 112/102/2 101/105/2
f 112/102/2 111/106/2 98/107/2
f 100/108/2 112/102/2 99/109/2
f 100/108/2 101/105/2 112/102/2
f 98/107/2 99/109/2 112/102/2
f 96/110/2 97/111/2 111/106/2
f 97/111/2 98/107/2 111/106/2
f 94/112/2 95/113/2 111/106/2
f 95/113/2 96/110/2 111/106/2
f 92/114/2 93/115/2 110/80/2
f 93/115/2 94/112/2 111/106/2
f 110/80/2 93/115/2 111/106/2
f 90/82/2 91/116/2 110/80/2
f 91/116/2 92/114/2 110/80/2
f 88/117/2 89/118/2 109/81/2
f 89/118/2 90/82/2 109/81/2
f 118/91/2 87/94/2 109/81/2
f 87/94/2 88/117/2 109/81/2
usemtl Material.004
f 134/119/3 128/120/3 121/121/3
f 120/122/3 122/123/3 131/124/3
f 125/125/3 135/126/3 124/127/3
f 121/121/3 119/128/3 134/119/3
f 119/128/3 123/129/3 134/119/3
f 123/129/3 129/130/3 134/119/3
f 134/119/3 133/131/3 128/120/3
f 122/123/3 127/132/3 131/124/3
f 127/132/3 132/133/3 131/124/3
f 131/124/3 130/134/3 126/135/3
f 126/135/3 120/122/3 131/124/3
usemtl Material.006
f 173/136/3 172/137/3 164/138/3
f 168/139/3 177/140/3 148/141/3
f 136/142/3 137/143/3 175/144/3
f 137/143/3 138/145/3 176/146/3
f 138/145/3 139/147/3 176/146/3
f 139/147/3 140/148/3 177/140/3
f 176/146/3 139/147/3 177/140/3
f 140/148/3 141/149/3 177/140/3
f 141/149/3 142/150/3 177/140/3
f 142/150/3 143/151/3 145/152/3
f 143/151/3 144/153/3 145/152/3
f 145/152/3 146/154/3 142/150/3
f 146/154/3 177/140/3 142/150/3
f 137/143/3 176/146/3 175/144/3
f 166/155/3 167/156/3 173/136/3
f 167/156/3 136/142/3 174/157/3
f 164/138/3 165/158/3 173/136/3
f 165/158/3 166/155/3 173/136/3
f 162/159/3 163/160/3 172/137/3
f 163/160/3 164/138/3 172/137/3
f 172/137/3 171/161/3 162/159/3
f 175/144/3 174/157/3 136/142/3
f 174/157/3 173/136/3 167/156/3
f 161/162/3 162/159/3 171/161/3
f 161/162/3 171/161/3 160/163/3
f 171/161/3 170/164/3 154/165/3
f 159/166/3 171/161/3 158/167/3
f 159/166/3 160/163/3 171/161/3
f 157/168/3 158/167/3 171/161/3
f 155/169/3 156/170/3 171/161/3
f 156/170/3 157/168/3 171/161/3
f 153/171/3 154/165/3 170/164/3
f 154/165/3 155/169/3 171/161/3
f 151/172/3 152/173/3 169/174/3
f 152/173/3 153/171/3 170/164/3
f 169/174/3 152/173/3 170/164/3
f 149/175/3 150/176/3 168/139/3
f 150/176/3 151/172/3 169/174/3
f 168/139/3 150/176/3 169/174/3
f 147/177/3 148/141/3 177/140/3
f 148/141/3 149/175/3 168/139/3
f 177/140/3 146/154/3 147/177/3
usemtl Material.009
f 193/178/4 187/179/4 180/180/4
f 179/181/4 181/182/4 190/183/4
f 184/184/4 194/185/4 183/186/4
f 180/180/4 178/187/4 193/178/4
f 178/187/4 182/188/4 193/178/4
f 182/188/4 188/189/4 193/178/4
f 193/178/4 192/190/4 187/179/4
f 181/182/4 186/191/4 190/183/4
f 186/191/4 191/192/4 190/183/4
f 190/183/4 189/193/4 185/194/4
f 185/194/4 179/181/4 190/183/4
usemtl Material.010
f 232/195/4 231/196/4 223/197/4
f 227/198/4 236/199/4 207/200/4
f 195/201/4 196/202/4 234/203/4
f 196/202/4 197/204/4 235/205/4
f 197/204/4 198/206/4 235/205/4
f 198/206/4 199/207/4 236/199/4
f 235/205/4 198/206/4 236/199/4
f 199/207/4 200/208/4 236/199/4
f 200/208/4 201/209/4 236/199/4
f 201/209/4 202/210/4 204/211/4
f 202/210/4 203/212/4 204/211/4
f 204/211/4 205/213/4 201/209/4
f 205/213/4 236/199/4 201/209/4
f 196/202/4 235/205/4 234/203/4
f 225/214/4 226/215/4 232/195/4
f 226/215/4 195/201/4 233/216/4
f 223/197/4 224/217/4 232/195/4
f 224/217/4 225/214/4 232/195/4
f 221/218/4 222/219/4 231/196/4
f 222/219/4 223/197/4 231/196/4
f 231/196/4 230/220/4 221/218/4
f 234/203/4 233/216/4 195/201/4
f 233/216/4 232/195/4 226/215/4
f 220/221/4 221/218/4 230/220/4
f 220/221/4 230/220/4 219/222/4
f 230/220/4 229/223/4 213/224/4
f 218/225/4 230/220/4 217/226/4
f 218/225/4 219/222/4 230/220/4
f 216/227/4 217/226/4 230/220/4
f 214/228/4 215/229/4 230/220/4
f 215/229/4 216/227/4 230/220/4
f 212/230/4 213/224/4 229/223/4
f 213/224/4 214/228/4 230/220/4
f 210/231/4 211/232/4 228/233/4
f 211/232/4 212/230/4 229/223/4
f 228/233/4 211/232/4 229/223/4
f 208/234/4 209/235/4 227/198/4
f 209/235/4 210/231/4 228/233/4
f 227/198/4 209/235/4 228/233/4
f 206/236/4 207/200/4 236/199/4
f 207/200/4 208/234/4 227/198/4
f 236/199/4 205/213/4 206/236/4
usemtl Material.015
f 252/237/3 246/238/3 239/239/3
f 238/240/3 240/241/3 249/242/3
f 243/243/3 253/244/3 242/245/3
f 239/239/3 237/246/3 252/237/3
f 237/246/3 241/247/3 252/237/3
f 241/247/3 247/248/3 252/237/3
f 252/237/3 251/249/3 246/238/3
f 240/241/3 245/250/3 249/242/3
f 245/250/3 250/251/3 249/242/3
f 249/242/3 248/252/3 244/253/3
f 244/253/3 238/240/3 249/242/3
usemtl Material.016
f 291/254/3 290/255/3 282/256/3
f 286/257/3 295/258/3 266/259/3
f 254/260/3 255/261/3 293/262/3
f 255/261/3 256/263/3 294/264/3
f 256/263/3 257/265/3 294/264/3
f 257/265/3 258/266/3 295/258/3
f 294/264/3 257/265/3 295/258/3
f 258/266/3 259/267/3 295/258/3
f 259/267/3 260/268/3 295/258/3
f 260/268/3 261/269/3 263/270/3
f 261/269/3 262/271/3 263/270/3
f 263/270/3 264/272/3 260/268/3
f 264/272/3 295/258/3 260/268/3
f 255/261/3 294/264/3 293/262/3
f 284/273/3 285/274/3 291/254/3
f 285/274/3 254/260/3 292/275/3
f 282/256/3 283/276/3 291/254/3
f 283/276/3 284/273/3 291/254/3
f 280/277/3 281/278/3 290/255/3
f 281/278/3 282/256/3 290/255/3
f 290/255/3 289/279/3 280/277/3
f 293/262/3 292/275/3 254/260/3
f 292/275/3 291/254/3 285/274/3
f 279/280/3 280/277/3 289/279/3
f 279/280/3 289/279/3 278/281/3
f 289/279/3 288/282/3 272/283/3
f 277/284/3 289/279/3 276/285/3
f 277/284/3 278/281/3 289/279/3
f 275/286/3 276/285/3 289/279/3
f 273/287/3 274/288/3 289/279/3
f 274/288/3 275/286/3 289/279/3
f 271/289/3 272/283/3 288/282/3
f 272/283/3 273/287/3 289/279/3
f 269/290/3 270/291/3 287/292/3
f 270/291/3 271/289/3 288/282/3
f 287/292/3 270/291/3 288/282/3
f 267/293/3 268/294/3 286/257/3
f 268/294/3 269/290/3 287/292/3
f 286/257/3 268/294/3 287/292/3
f 265/295/3 266/259/3 295/258/3
f 266/259/3 267/293/3 286/257/3
f 295/258/3 264/272/3 265/295/3
usemtl Material.018
f 311/296/4 305/297/4 298/298/4
f 297/299/4 299/300/4 308/301/4
f 302/302/4 312/303/4 301/304/4
f 298/298/4 296/305/4 311/296/4
f 296/305/4 300/306/4 311/296/4
f 300/306/4 306/307/4 311/296/4
f 311/296/4 310/308/4 305/297/4
f 299/300/4 304/309/4 308/301/4
f 304/309/4 309/310/4 308/301/4
f 308/301/4 307/311/4 303/312/4
f 303/312/4 297/299/4 308/301/4
usemtl Material.019
f 350/313/4 349/314/4 341/315/4
f 345/316/4 354/317/4 325/318/4
f 313/319/4 314/320/4 352/321/4
f 314/320/4 315/322/4 353/323/4
f 315/322/4 316/324/4 353/323/4
f 316/324/4 317/325/4 354/317/4
f 353/323/4 316/324/4 354/317/4
f 317/325/4 318/326/4 354/317/4
f 318/326/4 319/327/4 354/317/4
f 319/327/4 320/328/4 322/329/4
f 320/328/4 321/330/4 322/329/4
f 322/329/4 323/331/4 319/327/4
f 323/331/4 354/317/4 319/327/4
f 314/320/4 353/323/4 352/321/4
f 343/332/4 344/333/4 350/313/4
f 344/333/4 313/319/4 351/334/4
f 341/315/4 342/335/4 350/313/4
f 342/335/4 343/332/4 350/313/4
f 339/336/4 340/337/4 349/314/4
f 340/337/4 341/315/4 349/314/4
f 349/314/4 348/338/4 339/336/4
f 352/321/4 351/334/4 313/319/4
f 351/334/4 350/313/4 344/333/4
f 338/339/4 339/336/4 348/338/4
f 338/339/4 348/338/4 337/340/4
f 348/338/4 347/341/4 331/342/4
f 336/343/4 348/338/4 335/344/4
f 336/343/4 337/340/4 348/338/4
f 334/345/4 335/344/4 348/338/4
f 332/346/4 333/347/4 348/338/4
f 333/347/4 334/345/4 348/338/4
f 330/348/4 331/342/4 347/341/4
f 331/342/4 332/346/4 348/338/4
f 328/349/4 329/350/4 346/351/4
f 329/350/4 330/348/4 347/341/4
f 346/351/4 329/350/4 347/341/4
f 326/352/4 327/353/4 345/316/4
f 327/353/4 328/349/4 346/351/4
f 345/316/4 327/353/4 346/351/4
f 324/354/4 325/318/4 354/317/4
f 325/318/4 326/352/4 345/316/4
f 354/317/4 323/331/4 324/354/4
usemtl Material.033
f 370/355/1 364/356/1 357/357/1
f 356/358/1 358/359/1 367/360/1
f 361/361/1 371/362/1 360/363/1
f 357/357/1 355/364/1 370/355/1
f 355/364/1 359/365/1 365/366/1
f 370/355/1 355/364/1 365/366/1
f 370/355/1 369/367/1 364/356/1
f 358/359/1 363/368/1 367/360/1
f 363/368/1 368/369/1 367/360/1
f 367/360/1 366/370/1 356/358/1
f 366/370/1 362/371/1 356/358/1
usemtl Material.034
f 412/372/1 411/373/1 409/374/1
f 405/375/1 404/376/1 385/377/1
f 372/378/1 373/379/1 409/374/1
f 373/379/1 374/380/1 412/372/1
f 409/374/1 373/379/1 412/372/1
f 374/380/1 375/381/1 412/372/1
f 375/381/1 376/382/1 412/372/1
f 376/382/1 377/383/1 412/372/1
f 377/383/1 378/384/1 412/372/1
f 378/384/1 379/385/1 413/386/1
f 379/385/1 380/387/1 413/386/1
f 380/387/1 381/388/1 413/386/1
f 381/388/1 382/389/1 413/386/1
f 402/390/1 403/391/1 409/374/1
f 403/391/1 372/378/1 409/374/1
f 400/392/1 401/393/1 409/374/1
f 401/393/1 402/390/1 409/374/1
f 398/394/1 399/395/1 408/396/1
f 399/395/1 400/392/1 409/374/1
f 408/396/1 407/397/1 398/394/1
f 411/373/1 410/398/1 409/374/1
f 409/374/1 408/396/1 399/395/1
f 378/384/1 413/386/1 412/372/1
f 397/399/1 398/394/1 407/397/1
f 397/399/1 407/397/1 396/400/1
f 407/397/1 406/401/1 393/402/1
f 395/403/1 407/397/1 394/404/1
f 395/403/1 396/400/1 407/397/1
f 393/402/1 394/404/1 407/397/1
f 391/405/1 392/406/1 406/401/1
f 392/406/1 393/402/1 406/401/1
f 389/407/1 390/408/1 406/401/1
f 390/408/1 391/405/1 406/401/1
f 387/409/1 388/410/1 405/375/1
f 388/410/1 389/407/1 406/401/1
f 405/375/1 388/410/1 406/401/1
f 385/377/1 386/411/1 405/375/1
f 386/411/1 387/409/1 405/375/1
f 383/412/1 384/413/1 404/376/1
f 384/413/1 385/377/1 404/376/1
f 413/386/1 382/389/1 404/376/1
f 382/389/1 383/412/1 404/376/1
usemtl Material.036
f 429/414/2 423/415/2 416/416/2
f 415/417/2 417/418/2 426/419/2
f 420/420/2 430/421/2 419/422/2
f 416/416/2 414/423/2 429/414/2
f 414/423/2 418/424/2 424/425/2
f 429/414/2 414/423/2 424/425/2
f 429/414/2 428/426/2 423/415/2
f 417/418/2 422/427/2 426/419/2
f 422/427/2 427/428/2 426/419/2
f 426/419/2 425/429/2 415/417/2
f 425/429/2 421/430/2 415/417/2
usemtl Material.037
f 471/431/2 470/432/2 468/433/2
f 464/434/2 463/435/2 444/436/2
f 431/437/2 432/438/2 468/433/2
f 432/438/2 433/439/2 471/431/2
f 468/433/2 432/438/2 471/431/2
f 433/439/2 434/440/2 471/431/2
f 434/440/2 435/441/2 471/431/2
f 435/441/2 436/442/2 471/431/2
f 436/442/2 437/443/2 471/431/2
f 437/443/2 438/444/2 472/445/2
f 438/444/2 439/446/2 472/445/2
f 439/446/2 440/447/2 472/445/2
f 440/447/2 441/448/2 472/445/2
f 461/449/2 462/450/2 468/433/2
f 462/450/2 431/437/2 468/433/2
f 459/451/2 460/452/2 468/433/2
f 460/452/2 461/449/2 468/433/2
f 457/453/2 458/454/2 467/455/2
f 458/454/2 459/451/2 468/433/2
f 467/455/2 466/456/2 457/453/2
f 470/432/2 469/457/2 468/433/2
f 468/433/2 467/455/2 458/454/2
f 437/443/2 472/445/2 471/431/2
f 456/458/2 457/453/2 466/456/2
f 456/458/2 466/456/2 455/459/2
f 466/456/2 465/460/2 452/461/2
f 454/462/2 466/456/2 453/463/2
f 454/462/2 455/459/2 466/456/2
f 452/461/2 453/463/2 466/456/2
f 450/464/2 451/465/2 465/460/2
f 451/465/2 452/461/2 465/460/2
f 448/466/2 449/467/2 465/460/2
f 449/467/2 450/464/2 465/460/2
f 446/468/2 447/469/2 464/434/2
f 447/469/2 448/466/2 465/460/2
f 464/434/2 447/469/2 465/460/2
f 444/436/2 445/470/2 464/434/2
f 445/470/2 446/468/2 464/434/2
f 442/471/2 443/472/2 463/435/2
f 443/472/2 444/436/2 463/435/2
f 472/445/2 441/448/2 463/435/2
f 441/448/2 442/471/2 463/435/2
