# Blender v3.1.2 OBJ File: ''
# www.blender.org
mtllib FshiInk(r).mtl
o Plane.005_Plane.009
v -1.725715 1.895037 0.827569
v -1.725715 1.895037 0.505693
v -1.725715 1.895037 -0.370888
v -1.725715 1.895037 -0.724465
v -1.725715 3.895037 -0.094250
v -1.725715 3.895037 0.093756
v -1.725715 2.634630 0.556208
v -1.725715 2.653682 -0.485411
v -1.725715 3.151404 -1.135641
v -1.725715 3.146131 -0.330236
v -1.725715 3.141545 0.370217
v -1.725715 3.136212 1.184951
v -1.725715 2.237461 0.058347
v -1.730251 1.895037 -0.820037
v -1.730251 1.895037 -0.498161
v -1.730251 1.895037 0.378420
v -1.730251 1.895037 0.731997
v -1.730251 3.895037 0.101782
v -1.730251 3.895037 -0.086223
v -1.730251 2.634630 -0.548676
v -1.730251 2.653682 0.492943
v -1.730251 3.151404 1.143173
v -1.730251 3.146131 0.337768
v -1.730251 3.141545 -0.362685
v -1.730251 3.136212 -1.177418
v -1.730251 2.237461 -0.050815
v -0.823803 1.895037 1.729481
v -0.501927 1.895037 1.729481
v 0.374654 1.895037 1.729481
v 0.728231 1.895037 1.729481
v 0.098016 3.895037 1.729481
v -0.089990 3.895037 1.729481
v -0.552441 2.634630 1.729481
v 0.489177 2.653682 1.729481
v 1.139407 3.151404 1.729481
v 0.334002 3.146131 1.729481
v -0.366451 3.141545 1.729481
v -1.181185 3.136212 1.729481
v -0.054581 2.237461 1.729481
v 0.823803 1.895037 1.724945
v 0.501928 1.895037 1.724945
v -0.374654 1.895037 1.724946
v -0.728231 1.895037 1.724946
v -0.098016 3.895037 1.724946
v 0.089990 3.895037 1.724946
v 0.552442 2.634630 1.724945
v -0.489177 2.653682 1.724946
v -1.139407 3.151404 1.724946
v -0.334002 3.146131 1.724946
v 0.366451 3.141545 1.724945
v 1.181185 3.136212 1.724945
v 0.054581 2.237461 1.724945
v -0.823803 1.895037 -1.721949
v -0.501927 1.895037 -1.721949
v 0.374654 1.895037 -1.721949
v 0.728231 1.895037 -1.721949
v 0.098016 3.895037 -1.721949
v -0.089990 3.895037 -1.721949
v -0.552442 2.634630 -1.721949
v 0.489177 2.653682 -1.721949
v 1.139407 3.151404 -1.721949
v 0.334002 3.146131 -1.721949
v -0.366451 3.141545 -1.721949
v -1.181185 3.136212 -1.721949
v -0.054581 2.237461 -1.721949
v 0.823803 1.895037 -1.726485
v 0.501927 1.895037 -1.726485
v -0.374654 1.895037 -1.726485
v -0.728231 1.895037 -1.726485
v -0.098016 3.895037 -1.726485
v 0.089989 3.895037 -1.726485
v 0.552442 2.634630 -1.726485
v -0.489177 2.653682 -1.726485
v -1.139407 3.151404 -1.726485
v -0.334002 3.146131 -1.726485
v 0.366451 3.141545 -1.726485
v 1.181185 3.136212 -1.726485
v 0.054581 2.237461 -1.726485
v 1.725715 1.895037 0.827569
v 1.725715 1.895037 0.505693
v 1.725715 1.895037 -0.370888
v 1.725715 1.895037 -0.724465
v 1.725715 3.895037 -0.094250
v 1.725715 3.895037 0.093755
v 1.725715 2.634630 0.556207
v 1.725715 2.653682 -0.485411
v 1.725715 3.151404 -1.135641
v 1.725715 3.146131 -0.330236
v 1.725715 3.141545 0.370217
v 1.725715 3.136212 1.184950
v 1.725715 2.237461 0.058347
v 1.721179 1.895037 -0.820037
v 1.721179 1.895037 -0.498162
v 1.721180 1.895037 0.378420
v 1.721180 1.895037 0.731997
v 1.721179 3.895037 0.101782
v 1.721179 3.895037 -0.086224
v 1.721179 2.634630 -0.548676
v 1.721180 2.653682 0.492942
v 1.721180 3.151404 1.143173
v 1.721180 3.146131 0.337768
v 1.721179 3.141545 -0.362685
v 1.721179 3.136212 -1.177419
v 1.721179 2.237461 -0.050815
vt 0.471642 1.000000
vt 0.605254 0.625547
vt 0.530888 1.000000
vt 0.654154 0.379323
vt 0.618064 0.000000
vt 0.729487 0.000000
vt 0.341828 0.000000
vt 0.325910 0.369796
vt 0.240396 0.000000
vt 0.384521 0.623254
vt 0.859060 0.628183
vt 0.127775 0.620587
vt 0.482800 0.171212
vt 0.471642 1.000000
vt 0.605254 0.625547
vt 0.530888 1.000000
vt 0.654154 0.379323
vt 0.618064 0.000000
vt 0.729487 0.000000
vt 0.341828 0.000000
vt 0.325910 0.369796
vt 0.240396 0.000000
vt 0.384521 0.623254
vt 0.859060 0.628183
vt 0.127775 0.620587
vt 0.482800 0.171212
vt 0.471642 1.000000
vt 0.605254 0.625547
vt 0.530888 1.000000
vt 0.654154 0.379323
vt 0.618064 0.000000
vt 0.729487 0.000000
vt 0.341828 0.000000
vt 0.325910 0.369796
vt 0.240396 0.000000
vt 0.384521 0.623254
vt 0.482800 0.171212
vt 0.859060 0.628183
vt 0.127775 0.620587
vt 0.471642 1.000000
vt 0.605254 0.625547
vt 0.530888 1.000000
vt 0.654154 0.379323
vt 0.618064 0.000000
vt 0.729487 0.000000
vt 0.341828 0.000000
vt 0.325910 0.369796
vt 0.240396 0.000000
vt 0.384521 0.623254
vt 0.482800 0.171212
vt 0.859060 0.628183
vt 0.127775 0.620587
vt 0.471642 1.000000
vt 0.605254 0.625547
vt 0.530888 1.000000
vt 0.654154 0.379323
vt 0.618064 0.000000
vt 0.729487 0.000000
vt 0.341828 0.000000
vt 0.325910 0.369796
vt 0.240396 0.000000
vt 0.384521 0.623254
vt 0.482800 0.171212
vt 0.859060 0.628183
vt 0.127775 0.620587
vt 0.471642 1.000000
vt 0.605254 0.625547
vt 0.530888 1.000000
vt 0.654154 0.379323
vt 0.618064 0.000000
vt 0.729487 0.000000
vt 0.341828 0.000000
vt 0.325910 0.369796
vt 0.240396 0.000000
vt 0.384521 0.623254
vt 0.482800 0.171212
vt 0.859060 0.628183
vt 0.127775 0.620587
vt 0.471642 1.000000
vt 0.605254 0.625547
vt 0.530888 1.000000
vt 0.654154 0.379323
vt 0.618064 0.000000
vt 0.729487 0.000000
vt 0.341828 0.000000
vt 0.325910 0.369796
vt 0.240396 0.000000
vt 0.384521 0.623254
vt 0.859060 0.628183
vt 0.127775 0.620587
vt 0.482800 0.171212
vt 0.471642 1.000000
vt 0.605254 0.625547
vt 0.530888 1.000000
vt 0.654154 0.379323
vt 0.618064 0.000000
vt 0.729487 0.000000
vt 0.341828 0.000000
vt 0.325910 0.369796
vt 0.240396 0.000000
vt 0.384521 0.623254
vt 0.859060 0.628183
vt 0.127775 0.620587
vt 0.482800 0.171212
vn 1.0000 -0.0000 0.0000
vn -1.0000 0.0000 0.0000
vn 0.0000 0.0000 1.0000
vn 0.0000 0.0000 -1.0000
usemtl Material.029
s off
f 6/1/1 10/2/1 5/3/1
f 8/4/1 3/5/1 4/6/1
f 2/7/1 7/8/1 1/9/1
f 8/4/1 10/2/1 11/10/1
f 8/4/1 9/11/1 10/2/1
f 11/10/1 12/12/1 7/8/1
f 6/1/1 11/10/1 10/2/1
f 8/4/1 13/13/1 3/5/1
f 2/7/1 13/13/1 7/8/1
f 7/8/1 13/13/1 11/10/1
f 13/13/1 8/4/1 11/10/1
usemtl Material.030
f 19/14/2 23/15/2 18/16/2
f 21/17/2 16/18/2 17/19/2
f 15/20/2 20/21/2 14/22/2
f 21/17/2 23/15/2 24/23/2
f 21/17/2 22/24/2 23/15/2
f 24/23/2 25/25/2 20/21/2
f 19/14/2 24/23/2 23/15/2
f 21/17/2 26/26/2 16/18/2
f 15/20/2 26/26/2 20/21/2
f 20/21/2 26/26/2 24/23/2
f 26/26/2 21/17/2 24/23/2
usemtl Material.005
f 32/27/3 36/28/3 31/29/3
f 34/30/3 29/31/3 30/32/3
f 28/33/3 33/34/3 27/35/3
f 37/36/3 39/37/3 36/28/3
f 34/30/3 35/38/3 36/28/3
f 37/36/3 38/39/3 33/34/3
f 32/27/3 37/36/3 36/28/3
f 34/30/3 39/37/3 29/31/3
f 28/33/3 39/37/3 33/34/3
f 33/34/3 39/37/3 37/36/3
f 39/37/3 34/30/3 36/28/3
usemtl Material.008
f 45/40/4 49/41/4 44/42/4
f 47/43/4 42/44/4 43/45/4
f 41/46/4 46/47/4 40/48/4
f 50/49/4 52/50/4 49/41/4
f 47/43/4 48/51/4 49/41/4
f 50/49/4 51/52/4 46/47/4
f 45/40/4 50/49/4 49/41/4
f 47/43/4 52/50/4 42/44/4
f 41/46/4 52/50/4 46/47/4
f 46/47/4 52/50/4 50/49/4
f 52/50/4 47/43/4 49/41/4
usemtl Material.013
f 58/53/3 62/54/3 57/55/3
f 60/56/3 55/57/3 56/58/3
f 54/59/3 59/60/3 53/61/3
f 63/62/3 65/63/3 62/54/3
f 60/56/3 61/64/3 62/54/3
f 63/62/3 64/65/3 59/60/3
f 58/53/3 63/62/3 62/54/3
f 60/56/3 65/63/3 55/57/3
f 54/59/3 65/63/3 59/60/3
f 59/60/3 65/63/3 63/62/3
f 65/63/3 60/56/3 62/54/3
usemtl Material.014
f 71/66/4 75/67/4 70/68/4
f 73/69/4 68/70/4 69/71/4
f 67/72/4 72/73/4 66/74/4
f 76/75/4 78/76/4 75/67/4
f 73/69/4 74/77/4 75/67/4
f 76/75/4 77/78/4 72/73/4
f 71/66/4 76/75/4 75/67/4
f 73/69/4 78/76/4 68/70/4
f 67/72/4 78/76/4 72/73/4
f 72/73/4 78/76/4 76/75/4
f 78/76/4 73/69/4 75/67/4
usemtl Material.031
f 84/79/1 88/80/1 83/81/1
f 86/82/1 81/83/1 82/84/1
f 80/85/1 85/86/1 79/87/1
f 86/82/1 88/80/1 89/88/1
f 86/82/1 87/89/1 88/80/1
f 89/88/1 90/90/1 85/86/1
f 84/79/1 89/88/1 88/80/1
f 86/82/1 91/91/1 81/83/1
f 80/85/1 91/91/1 85/86/1
f 85/86/1 91/91/1 89/88/1
f 91/91/1 86/82/1 89/88/1
usemtl Material.032
f 97/92/2 101/93/2 96/94/2
f 99/95/2 94/96/2 95/97/2
f 93/98/2 98/99/2 92/100/2
f 99/95/2 101/93/2 102/101/2
f 99/95/2 100/102/2 101/93/2
f 102/101/2 103/103/2 98/99/2
f 97/92/2 102/101/2 101/93/2
f 99/95/2 104/104/2 94/96/2
f 93/98/2 104/104/2 98/99/2
f 98/99/2 104/104/2 102/101/2
f 104/104/2 99/95/2 102/101/2
