# Blender v3.1.2 OBJ File: ''
# www.blender.org
mtllib Gast(L).mtl
o Cube.002_Cube.011
v 2.767752 7.822430 4.343235
v 3.610001 7.816962 4.343235
v 3.599063 8.642803 4.343235
v 2.745875 8.631866 4.343235
v 2.762582 8.013712 4.343235
v 3.607538 8.002954 4.343235
v 2.750602 8.456981 4.343235
v 3.601457 8.462065 4.343235
v 3.407722 7.818275 4.343235
v 3.391199 8.640139 4.343235
v 3.403957 8.005546 4.343235
v 3.394803 8.460830 4.343235
v 2.948060 8.634458 4.343235
v 2.959270 7.821187 4.343235
v 2.950490 8.458175 4.343235
v 2.956650 8.011241 4.343235
v 3.407722 7.818275 4.231794
v 3.610001 7.816962 4.231794
v 3.601457 8.462065 4.231794
v 3.599063 8.642803 4.231794
v 2.948060 8.634458 4.231794
v 2.745875 8.631866 4.231794
v 2.762582 8.013712 4.231794
v 2.767752 7.822430 4.231794
v 3.607538 8.002954 4.231794
v 3.403957 8.005546 4.231794
v 2.750602 8.456981 4.231794
v 3.394803 8.460830 4.231794
v 3.391199 8.640139 4.231794
v 2.956650 8.011241 4.231794
v 2.950490 8.458175 4.231794
v 2.959270 7.821187 4.231794
v 2.737358 7.791406 4.343235
v 3.640816 7.786354 4.343235
v 3.629371 8.673913 4.343235
v 2.714558 8.661959 4.343235
v 2.731652 8.044203 4.343235
v 3.638241 8.033672 4.343235
v 2.720401 8.425767 4.343235
v 3.632462 8.431649 4.343235
v 3.377220 7.787355 4.343235
v 3.359987 8.670341 4.343235
v 3.409653 8.048603 4.343235
v 3.378157 8.500945 4.343235
v 2.978360 8.665574 4.343235
v 2.990093 7.790587 4.343235
v 2.948739 8.501572 4.343235
v 2.956650 8.054673 4.343235
v 3.382848 7.793060 4.206657
v 3.635184 7.791948 4.206764
v 3.626781 8.437222 4.206736
v 3.623809 8.668203 4.206718
v 2.972799 8.659863 4.206717
v 2.720288 8.656452 4.206751
v 2.737283 8.038652 4.206809
v 2.742974 7.797138 4.206642
v 3.632577 8.028006 4.206659
v 3.403957 8.005546 4.188362
v 2.725967 8.431520 4.206670
v 3.394803 8.460830 4.188362
v 3.365705 8.664806 4.206736
v 2.956650 8.011241 4.188362
v 2.950490 8.458175 4.188362
v 2.984460 7.796180 4.206765
vt 0.569090 0.795343
vt 0.574524 0.789906
vt 0.574596 0.795492
vt 0.587353 0.795837
vt 0.592461 0.790154
vt 0.592386 0.795973
vt 0.587464 0.777296
vt 0.592701 0.771418
vt 0.592624 0.777400
vt 0.568971 0.776924
vt 0.574286 0.771174
vt 0.574360 0.777033
vt 0.587387 0.790084
vt 0.587464 0.777296
vt 0.574360 0.777033
vt 0.574286 0.771174
vt 0.568933 0.771103
vt 0.568933 0.771103
vt 0.574524 0.789906
vt 0.569055 0.789831
vt 0.569055 0.789831
vt 0.592624 0.777400
vt 0.568971 0.776924
vt 0.587353 0.795837
vt 0.592386 0.795973
vt 0.569090 0.795343
vt 0.587499 0.771349
vt 0.587387 0.790084
vt 0.592701 0.771418
vt 0.587499 0.771349
vt 0.574596 0.795492
vt 0.592461 0.790154
vt 0.569090 0.795343
vt 0.574524 0.789906
vt 0.569055 0.789831
vt 0.592386 0.795973
vt 0.587387 0.790084
vt 0.587353 0.795837
vt 0.592701 0.771418
vt 0.587464 0.777296
vt 0.592624 0.777400
vt 0.574360 0.777033
vt 0.568933 0.771103
vt 0.568971 0.776924
vt 0.574360 0.777033
vt 0.587464 0.777296
vt 0.574286 0.771174
vt 0.568933 0.771103
vt 0.569055 0.789831
vt 0.574524 0.789906
vt 0.592624 0.777400
vt 0.574286 0.771174
vt 0.568971 0.776924
vt 0.587353 0.795837
vt 0.592386 0.795973
vt 0.569090 0.795343
vt 0.587499 0.771349
vt 0.587387 0.790084
vt 0.592701 0.771418
vt 0.587499 0.771349
vt 0.574596 0.795492
vt 0.574596 0.795492
vt 0.592461 0.790154
vt 0.592461 0.790154
vn -0.0000 0.0000 1.0000
vn -0.9998 -0.0201 0.0000
vn -0.9999 -0.0132 0.0000
vn -0.9999 -0.0138 0.0000
vn 0.9998 0.0201 0.0000
vn -0.0127 -0.9999 0.0000
vn 0.9996 0.0270 0.0000
vn 0.0065 1.0000 0.0000
vn -0.0060 1.0000 0.0000
vn 0.0128 -0.9999 0.0000
vn 0.0127 0.9999 0.0000
vn 0.9999 0.0138 0.0000
vn 0.0060 -1.0000 0.0000
vn 0.0002 -0.0852 -0.9964
vn -0.0811 -0.0017 -0.9967
vn -0.0012 0.0895 -0.9960
vn 0.0000 -0.0858 -0.9963
vn 0.0000 0.0000 -1.0000
vn 0.9936 0.0692 0.0889
vn 0.9991 0.0104 -0.0408
vn 0.9915 0.1256 -0.0352
vn -0.9936 -0.1066 -0.0373
vn 0.0651 0.9969 -0.0441
vn -0.9924 0.1232 0.0022
vn -0.9989 -0.0247 -0.0409
vn -0.0032 -0.9992 -0.0408
vn -0.2567 -0.9420 0.2164
vn -0.0038 -0.9992 -0.0408
vn 0.3150 -0.9487 -0.0271
vn -0.0132 0.9991 -0.0411
vn 0.9991 0.0127 -0.0411
vn -0.0464 0.9980 -0.0425
vn -0.0129 -0.9633 0.2683
vn -0.0137 0.9991 -0.0409
vn -0.9998 -0.0177 -0.0063
vn 0.0014 0.9629 -0.2698
vn -0.9989 -0.0225 -0.0403
vn 0.9836 -0.1776 -0.0326
vn 0.0007 0.0000 -1.0000
vn -0.0839 -0.0013 -0.9965
vn -0.0014 0.0908 -0.9959
vn 0.0791 0.0009 -0.9969
vn 0.0797 0.0004 -0.9968
vn 0.9989 0.0201 -0.0423
vn 0.9991 0.0110 -0.0419
vn 0.9915 0.1251 -0.0358
vn -0.9883 -0.1346 -0.0714
vn -0.0733 0.9616 -0.2646
vn -0.9947 0.0956 -0.0370
vn -0.9988 -0.0252 -0.0418
vn -0.0039 -0.9991 -0.0421
vn -0.0983 -0.9945 -0.0365
vn -0.0044 -0.9991 -0.0419
vn 0.1351 -0.9537 0.2688
vn -0.0132 0.9991 -0.0412
vn 0.9991 0.0128 -0.0412
vn 0.0971 0.9583 -0.2688
vn -0.0123 -0.9628 0.2700
vn -0.0135 0.9991 -0.0412
vn -0.9999 -0.0138 0.0039
vn -0.0058 0.9679 -0.2513
vn -0.9988 -0.0235 -0.0421
vn 0.9926 -0.1137 0.0431
vn 0.0004 0.0000 -1.0000
usemtl Material.002
s off
f 24/1/1 30/2/1 23/3/1
f 27/4/1 21/5/1 22/6/1
f 28/7/1 20/8/1 29/9/1
f 17/10/1 25/11/1 26/12/1
f 30/2/1 28/7/1 31/13/1
f 12/14/2 26/12/2 11/15/2
f 6/16/3 18/17/3 2/18/3
f 16/19/4 32/20/4 14/21/4
f 12/14/5 29/9/5 10/22/5
f 11/15/6 25/11/6 6/16/6
f 9/23/5 26/12/5 11/15/5
f 7/24/7 22/6/7 4/25/7
f 14/21/8 24/1/8 1/26/8
f 8/27/9 28/7/9 12/14/9
f 2/18/8 17/10/8 9/23/8
f 15/28/9 27/4/9 7/24/9
f 10/22/10 20/8/10 3/29/10
f 3/29/3 19/30/3 8/27/3
f 5/31/6 30/2/6 16/19/6
f 11/15/11 30/2/11 16/19/11
f 4/25/10 21/5/10 13/32/10
f 16/19/12 31/13/12 15/28/12
f 15/28/13 28/7/13 12/14/13
f 1/26/7 23/3/7 5/31/7
f 13/32/4 31/13/4 15/28/4
f 56/33/14 62/34/14 64/35/14
f 54/36/15 63/37/15 59/38/15
f 52/39/16 60/40/16 61/41/16
f 58/42/17 50/43/17 49/44/17
f 60/40/18 62/34/18 63/37/18
f 43/45/19 60/40/19 44/46/19
f 50/43/20 38/47/20 34/48/20
f 46/49/21 62/34/21 48/50/21
f 61/41/22 44/46/22 42/51/22
f 57/52/23 43/45/23 38/47/23
f 58/42/24 41/53/24 43/45/24
f 54/36/25 39/54/25 36/55/25
f 33/56/26 64/35/26 46/49/26
f 60/40/27 40/57/27 44/46/27
f 41/53/28 50/43/28 34/48/28
f 59/38/29 47/58/29 39/54/29
f 35/59/30 61/41/30 42/51/30
f 51/60/31 35/59/31 40/57/31
f 48/50/32 55/61/32 37/62/32
f 48/50/33 58/42/33 43/45/33
f 45/63/34 54/36/34 36/55/34
f 63/37/35 48/50/35 47/58/35
f 44/46/36 63/37/36 47/58/36
f 55/61/37 33/56/37 37/62/37
f 47/58/38 53/64/38 45/63/38
f 2/18/1 41/53/1 34/48/1
f 8/27/1 35/59/1 3/29/1
f 4/25/1 45/63/1 36/55/1
f 5/31/1 33/56/1 1/26/1
f 2/18/1 38/47/1 6/16/1
f 6/16/1 43/45/1 11/15/1
f 4/25/1 39/54/1 7/24/1
f 8/27/1 44/46/1 40/57/1
f 10/22/1 35/59/1 42/51/1
f 11/15/18 48/50/18 43/45/18
f 15/28/1 44/46/1 47/58/1
f 12/14/18 43/45/18 44/46/18
f 10/22/1 44/46/1 12/14/1
f 11/15/1 41/53/1 9/23/1
f 14/21/1 33/56/1 46/49/1
f 7/24/18 47/58/18 15/28/18
f 5/31/1 48/50/1 37/62/1
f 15/28/39 48/50/39 16/19/39
f 13/32/1 47/58/1 45/63/1
f 16/19/1 46/49/1 48/50/1
f 24/1/1 32/20/1 30/2/1
f 27/4/1 31/13/1 21/5/1
f 28/7/1 19/30/1 20/8/1
f 17/10/1 18/17/1 25/11/1
f 30/2/1 26/12/1 28/7/1
f 12/14/2 28/7/2 26/12/2
f 6/16/3 25/11/3 18/17/3
f 16/19/4 30/2/4 32/20/4
f 12/14/5 28/7/5 29/9/5
f 11/15/6 26/12/6 25/11/6
f 9/23/5 17/10/5 26/12/5
f 7/24/7 27/4/7 22/6/7
f 14/21/8 32/20/8 24/1/8
f 8/27/9 19/30/9 28/7/9
f 2/18/8 18/17/8 17/10/8
f 15/28/9 31/13/9 27/4/9
f 10/22/10 29/9/10 20/8/10
f 3/29/3 20/8/3 19/30/3
f 5/31/6 23/3/6 30/2/6
f 11/15/11 26/12/11 30/2/11
f 4/25/10 22/6/10 21/5/10
f 16/19/12 30/2/12 31/13/12
f 15/28/13 31/13/13 28/7/13
f 1/26/7 24/1/7 23/3/7
f 13/32/4 21/5/4 31/13/4
f 56/33/40 55/61/40 62/34/40
f 54/36/41 53/64/41 63/37/41
f 52/39/42 51/60/42 60/40/42
f 58/42/43 57/52/43 50/43/43
f 60/40/18 58/42/18 62/34/18
f 43/45/44 58/42/44 60/40/44
f 50/43/45 57/52/45 38/47/45
f 46/49/46 64/35/46 62/34/46
f 61/41/47 60/40/47 44/46/47
f 57/52/48 58/42/48 43/45/48
f 58/42/49 49/44/49 41/53/49
f 54/36/50 59/38/50 39/54/50
f 33/56/51 56/33/51 64/35/51
f 60/40/52 51/60/52 40/57/52
f 41/53/53 49/44/53 50/43/53
f 59/38/54 63/37/54 47/58/54
f 35/59/55 52/39/55 61/41/55
f 51/60/56 52/39/56 35/59/56
f 48/50/57 62/34/57 55/61/57
f 48/50/58 62/34/58 58/42/58
f 45/63/59 53/64/59 54/36/59
f 63/37/60 62/34/60 48/50/60
f 44/46/61 60/40/61 63/37/61
f 55/61/62 56/33/62 33/56/62
f 47/58/63 63/37/63 53/64/63
f 2/18/1 9/23/1 41/53/1
f 8/27/1 40/57/1 35/59/1
f 4/25/1 13/32/1 45/63/1
f 5/31/1 37/62/1 33/56/1
f 2/18/1 34/48/1 38/47/1
f 6/16/1 38/47/1 43/45/1
f 4/25/1 36/55/1 39/54/1
f 8/27/18 12/14/18 44/46/18
f 10/22/1 3/29/1 35/59/1
f 11/15/18 16/19/18 48/50/18
f 15/28/1 12/14/1 44/46/1
f 12/14/1 11/15/1 43/45/1
f 10/22/1 42/51/1 44/46/1
f 11/15/18 43/45/18 41/53/18
f 14/21/1 1/26/1 33/56/1
f 7/24/1 39/54/1 47/58/1
f 5/31/1 16/19/1 48/50/1
f 15/28/1 47/58/1 48/50/1
f 13/32/64 15/28/64 47/58/64
f 16/19/1 14/21/1 46/49/1
