# Blender v3.1.2 OBJ File: 'UMU_SE_GMCS_Lamp.blend'
# www.blender.org
mtllib GreedModuleLamp(LG)(1).mtl
o GreenLight_Cube.101
v -5.546319 5.762359 5.546319
v -5.091202 6.151330 5.091202
v -5.546319 5.762359 -5.546319
v -5.091202 6.151330 -5.091202
v 5.546319 5.762359 5.546319
v 5.091202 6.151330 5.091202
v 5.546319 5.762359 -5.546319
v 5.091202 6.151330 -5.091202
v -7.452477 -0.242940 7.452477
v -6.840947 0.279711 6.840947
v -7.452477 -0.242940 -7.452477
v -6.840947 0.279711 -6.840947
v 7.452477 -0.242940 7.452477
v 6.840947 0.279711 6.840947
v 7.452477 -0.242940 -7.452477
v 6.840947 0.279711 -6.840947
v -6.505218 2.731928 6.505218
v -5.971417 3.188146 5.971417
v -6.505218 2.731928 -6.505218
v -5.971417 3.188146 -5.971417
v 6.505218 2.731928 6.505218
v 5.971417 3.188146 5.971417
v 6.505218 2.731928 -6.505218
v 5.971417 3.188146 -5.971417
v -5.539387 5.764338 5.539387
v -5.088506 6.142085 5.088506
v -5.539387 5.764338 -5.539387
v -5.088506 6.142085 -5.088506
v 5.539387 5.764338 5.539387
v 5.088506 6.142085 5.088506
v 5.539387 5.764338 -5.539387
v 5.088506 6.142085 -5.088506
v -7.445546 -0.240961 7.445546
v -6.838251 0.270466 6.838251
v -7.445546 -0.240961 -7.445546
v -6.838251 0.270466 -6.838251
v 7.445546 -0.240961 7.445546
v 6.838251 0.270466 6.838251
v 7.445546 -0.240961 -7.445546
v 6.838251 0.270466 -6.838251
v -6.498287 2.733907 6.498287
v -5.968721 3.178902 5.968721
v -6.498287 2.733907 -6.498287
v -5.968721 3.178902 -5.968721
v 6.498287 2.733907 6.498287
v 5.968721 3.178902 5.968721
v 6.498287 2.733907 -6.498287
v 5.968721 3.178902 -5.968721
vt 0.625000 0.000000
vt 0.375000 0.250000
vt 0.375000 0.000000
vt 0.625000 0.250000
vt 0.375000 0.500000
vt 0.625000 0.500000
vt 0.375000 0.750000
vt 0.625000 0.750000
vt 0.375000 1.000000
vt 0.125000 0.750000
vt 0.125000 0.500000
vt 0.875000 0.500000
vt 0.375000 0.250000
vt 0.625000 0.000000
vt 0.375000 0.000000
vt 0.375000 0.500000
vt 0.625000 0.250000
vt 0.375000 0.750000
vt 0.625000 0.500000
vt 0.375000 1.000000
vt 0.625000 0.750000
vt 0.125000 0.750000
vt 0.125000 0.500000
vt 0.875000 0.500000
vt 0.625000 1.000000
vt 0.875000 0.750000
vt 0.625000 1.000000
vt 0.875000 0.750000
vt 0.625000 0.000000
vt 0.375000 0.250000
vt 0.375000 0.000000
vt 0.625000 0.250000
vt 0.375000 0.500000
vt 0.625000 0.500000
vt 0.375000 0.750000
vt 0.625000 0.750000
vt 0.375000 1.000000
vt 0.125000 0.750000
vt 0.125000 0.500000
vt 0.875000 0.500000
vt 0.375000 0.250000
vt 0.625000 0.000000
vt 0.375000 0.000000
vt 0.375000 0.500000
vt 0.625000 0.250000
vt 0.375000 0.750000
vt 0.625000 0.500000
vt 0.375000 1.000000
vt 0.625000 0.750000
vt 0.125000 0.750000
vt 0.125000 0.500000
vt 0.875000 0.500000
vt 0.625000 1.000000
vt 0.875000 0.750000
vt 0.625000 1.000000
vt 0.875000 0.750000
vt 0.625000 0.000000
vt 0.375000 0.250000
vt 0.375000 0.000000
vt 0.625000 0.250000
vt 0.375000 0.500000
vt 0.625000 0.500000
vt 0.375000 0.750000
vt 0.625000 0.750000
vt 0.375000 1.000000
vt 0.125000 0.750000
vt 0.125000 0.500000
vt 0.875000 0.500000
vt 0.375000 0.250000
vt 0.625000 0.000000
vt 0.375000 0.000000
vt 0.375000 0.500000
vt 0.625000 0.250000
vt 0.375000 0.750000
vt 0.625000 0.500000
vt 0.375000 1.000000
vt 0.625000 0.750000
vt 0.125000 0.750000
vt 0.125000 0.500000
vt 0.875000 0.500000
vt 0.625000 1.000000
vt 0.875000 0.750000
vt 0.625000 1.000000
vt 0.875000 0.750000
vn -0.6497 0.7602 0.0000
vn 0.0000 0.7602 -0.6497
vn 0.6497 0.7602 0.0000
vn 0.0000 0.7602 0.6497
vn 0.0000 -1.0000 0.0000
vn 0.0000 1.0000 0.0000
vn 0.6422 -0.7665 0.0000
vn 0.0000 -0.7665 0.6422
vn -0.6422 -0.7665 0.0000
vn 0.0000 -0.7665 -0.6422
vn 0.6442 -0.7649 0.0000
vn 0.0000 -0.7649 0.6442
vn -0.6442 -0.7649 0.0000
vn 0.0000 -0.7649 -0.6442
vn 0.6433 -0.7656 0.0000
vn 0.0000 -0.7656 0.6433
vn -0.6433 -0.7656 0.0000
vn 0.0000 -0.7656 -0.6433
usemtl Material.115
s off
f 2/1/1 3/2/1 1/3/1
f 4/4/2 7/5/2 3/2/2
f 8/6/3 5/7/3 7/5/3
f 6/8/4 1/9/4 5/7/4
f 7/5/5 1/10/5 3/11/5
f 4/12/6 6/8/6 8/6/6
f 27/13/7 26/14/7 25/15/7
f 31/16/8 28/17/8 27/13/8
f 29/18/9 32/19/9 31/16/9
f 25/20/10 30/21/10 29/18/10
f 25/22/6 31/16/6 27/23/6
f 30/21/5 28/24/5 32/19/5
f 2/1/1 4/4/1 3/2/1
f 4/4/2 8/6/2 7/5/2
f 8/6/3 6/8/3 5/7/3
f 6/8/4 2/25/4 1/9/4
f 7/5/5 5/7/5 1/10/5
f 4/12/6 2/26/6 6/8/6
f 27/13/7 28/17/7 26/14/7
f 31/16/8 32/19/8 28/17/8
f 29/18/9 30/21/9 32/19/9
f 25/20/10 26/27/10 30/21/10
f 25/22/6 29/18/6 31/16/6
f 30/21/5 26/28/5 28/24/5
usemtl Material.002
f 10/29/1 11/30/1 9/31/1
f 12/32/2 15/33/2 11/30/2
f 16/34/3 13/35/3 15/33/3
f 14/36/4 9/37/4 13/35/4
f 15/33/5 9/38/5 11/39/5
f 12/40/6 14/36/6 16/34/6
f 35/41/11 34/42/11 33/43/11
f 39/44/12 36/45/12 35/41/12
f 37/46/13 40/47/13 39/44/13
f 33/48/14 38/49/14 37/46/14
f 33/50/6 39/44/6 35/51/6
f 38/49/5 36/52/5 40/47/5
f 10/29/1 12/32/1 11/30/1
f 12/32/2 16/34/2 15/33/2
f 16/34/3 14/36/3 13/35/3
f 14/36/4 10/53/4 9/37/4
f 15/33/5 13/35/5 9/38/5
f 12/40/6 10/54/6 14/36/6
f 35/41/11 36/45/11 34/42/11
f 39/44/12 40/47/12 36/45/12
f 37/46/13 38/49/13 40/47/13
f 33/48/14 34/55/14 38/49/14
f 33/50/6 37/46/6 39/44/6
f 38/49/5 34/56/5 36/52/5
usemtl Material.114
f 18/57/1 19/58/1 17/59/1
f 20/60/2 23/61/2 19/58/2
f 24/62/3 21/63/3 23/61/3
f 22/64/4 17/65/4 21/63/4
f 23/61/5 17/66/5 19/67/5
f 20/68/6 22/64/6 24/62/6
f 43/69/15 42/70/15 41/71/15
f 47/72/16 44/73/16 43/69/16
f 45/74/17 48/75/17 47/72/17
f 41/76/18 46/77/18 45/74/18
f 41/78/6 47/72/6 43/79/6
f 46/77/5 44/80/5 48/75/5
f 18/57/1 20/60/1 19/58/1
f 20/60/2 24/62/2 23/61/2
f 24/62/3 22/64/3 21/63/3
f 22/64/4 18/81/4 17/65/4
f 23/61/5 21/63/5 17/66/5
f 20/68/6 18/82/6 22/64/6
f 43/69/15 44/73/15 42/70/15
f 47/72/16 48/75/16 44/73/16
f 45/74/17 46/77/17 48/75/17
f 41/76/18 42/83/18 46/77/18
f 41/78/6 45/74/6 47/72/6
f 46/77/5 42/84/5 44/80/5
