# Blender v3.1.2 OBJ File: 'UMU_SE_GMCS_Lamp.blend'
# www.blender.org
mtllib GreedModuleLamp(B)(1).mtl
o Black_Cube.093
v -8.149353 -1.083704 1.963932
v -6.240880 1.104463 2.574779
v -8.149353 -1.083704 -1.963932
v -6.240880 1.104463 -2.574779
v 8.149353 -1.083704 1.963932
v 6.240880 1.104463 2.574779
v 8.149353 -1.083704 -1.963932
v 6.240880 1.104463 -2.574779
v -9.942905 -1.083704 0.000000
v -6.703733 1.104463 0.000000
v 10.116475 -1.083704 0.000000
v 6.790517 1.104463 0.000000
v 1.963932 -1.083704 8.149353
v 2.574779 1.104463 6.240880
v -1.963931 -1.083704 8.149353
v -2.574779 1.104463 6.240880
v 1.963931 -1.083704 -8.149353
v 2.574779 1.104463 -6.240880
v -1.963932 -1.083704 -8.149353
v -2.574779 1.104463 -6.240880
v 0.000000 -1.083704 9.942905
v 0.000000 1.104463 6.703733
v -0.000000 -1.083704 -10.116475
v -0.000000 1.104463 -6.790517
v -7.200202 2.090055 1.735193
v -5.514008 4.039773 2.274896
v -7.200202 2.090055 -1.735193
v -5.514008 4.039773 -2.274896
v 7.200202 2.090055 1.735193
v 5.514008 4.039773 2.274896
v 7.200202 2.090055 -1.735193
v 5.514008 4.039773 -2.274896
v -8.784861 2.090055 0.000000
v -5.922953 4.039773 0.000000
v 8.938214 2.090055 0.000000
v 5.999629 4.039773 0.000000
v 1.735194 2.090055 7.200202
v 2.274896 4.039773 5.514008
v -1.735193 2.090055 7.200202
v -2.274896 4.039773 5.514008
v 1.735193 2.090055 -7.200202
v 2.274896 4.039773 -5.514008
v -1.735194 2.090055 -7.200202
v -2.274896 4.039773 -5.514008
v 0.000000 2.090055 8.784861
v 0.000000 4.039773 5.922953
v -0.000000 2.090055 -8.938214
v -0.000000 4.039773 -5.999629
v -6.158800 5.116343 1.484224
v -4.716489 6.856287 1.945866
v -6.158800 5.116343 -1.484224
v -4.716489 6.856287 -1.945866
v 6.158800 5.116343 1.484224
v 4.716489 6.856287 1.945866
v 6.158800 5.116343 -1.484224
v 4.716489 6.856287 -1.945866
v -7.514261 5.116343 0.000000
v -5.066286 6.856287 0.000000
v 7.645435 5.116343 0.000000
v 5.131872 6.856287 0.000000
v 1.484224 5.116343 6.158800
v 1.945866 6.856287 4.716489
v -1.484223 5.116343 6.158800
v -1.945866 6.856287 4.716489
v 1.484223 5.116343 -6.158800
v 1.945866 6.856287 -4.716489
v -1.484224 5.116343 -6.158800
v -1.945866 6.856287 -4.716489
v 0.000000 5.116343 7.514261
v 0.000000 6.856287 5.066286
v -0.000000 5.116343 -7.645435
v -0.000000 6.856287 -5.131872
v 0.000000 6.829224 -2.566771
v 0.000000 7.096555 -2.566771
v -0.133665 6.829224 -2.834102
v -0.133665 7.096555 -2.834102
v 1.625946 6.829224 2.305083
v 1.625946 7.096555 2.305083
v 0.133665 6.829224 -2.834102
v 0.133665 7.096555 -2.834102
v 1.875911 6.829224 2.141224
v 1.875911 7.096555 2.141224
v -1.793731 6.829224 2.227209
v -1.793731 7.096555 2.227209
v -2.009646 6.829224 2.020538
v -2.009646 7.096555 2.020538
v -1.215384 7.096555 -0.034843
v -1.294821 7.096555 0.170723
v 1.197617 6.829224 0.204224
v 1.105370 6.829224 -0.059208
v -1.025623 6.829224 0.174341
v -0.946297 6.829224 -0.037668
v 1.197617 7.096555 0.204224
v 1.105370 7.096555 -0.059208
v 0.837818 6.829224 -0.056399
v 0.923570 6.829224 0.200540
v -0.946297 7.096555 -0.037669
v -1.025623 7.096555 0.174341
v 0.923570 7.096555 0.200540
v 0.837818 7.096555 -0.056399
v -1.294821 6.829224 0.170723
v -1.215384 6.829224 -0.034843
v -2.841627 7.096554 -0.067232
v -2.822549 7.096554 0.187592
v -2.822548 6.829223 0.187591
v -2.841627 6.829223 -0.067233
v 1.040073 6.829224 0.213575
v 1.051670 6.829224 -0.053849
v 1.051670 7.096555 -0.053850
v 1.040073 7.096555 0.213575
v 2.857001 6.829224 0.233635
v 2.869426 6.829224 -0.054426
v 2.857001 7.096555 0.233635
v 2.869426 7.096555 -0.054426
vt 0.625000 0.125000
vt 0.375000 0.250000
vt 0.375000 0.125000
vt 0.625000 0.250000
vt 0.375000 0.500000
vt 0.625000 0.625000
vt 0.375000 0.750000
vt 0.375000 0.625000
vt 0.625000 0.750000
vt 0.375000 1.000000
vt 0.125000 0.625000
vt 0.125000 0.750000
vt 0.875000 0.625000
vt 0.625000 0.500000
vt 0.125000 0.500000
vt 0.375000 0.000000
vt 0.625000 0.125000
vt 0.375000 0.250000
vt 0.375000 0.125000
vt 0.625000 0.250000
vt 0.375000 0.500000
vt 0.625000 0.625000
vt 0.375000 0.750000
vt 0.375000 0.625000
vt 0.625000 0.750000
vt 0.375000 1.000000
vt 0.125000 0.625000
vt 0.125000 0.750000
vt 0.875000 0.625000
vt 0.625000 0.500000
vt 0.125000 0.500000
vt 0.375000 0.000000
vt 0.625000 0.125000
vt 0.375000 0.250000
vt 0.375000 0.125000
vt 0.625000 0.250000
vt 0.375000 0.500000
vt 0.625000 0.625000
vt 0.375000 0.750000
vt 0.375000 0.625000
vt 0.625000 0.750000
vt 0.375000 1.000000
vt 0.125000 0.625000
vt 0.125000 0.750000
vt 0.875000 0.625000
vt 0.625000 0.500000
vt 0.125000 0.500000
vt 0.375000 0.000000
vt 0.625000 0.125000
vt 0.375000 0.250000
vt 0.375000 0.125000
vt 0.625000 0.250000
vt 0.375000 0.500000
vt 0.625000 0.625000
vt 0.375000 0.750000
vt 0.375000 0.625000
vt 0.625000 0.750000
vt 0.375000 1.000000
vt 0.125000 0.625000
vt 0.125000 0.750000
vt 0.875000 0.625000
vt 0.625000 0.500000
vt 0.125000 0.500000
vt 0.375000 0.000000
vt 0.625000 0.125000
vt 0.375000 0.250000
vt 0.375000 0.125000
vt 0.625000 0.250000
vt 0.375000 0.500000
vt 0.625000 0.625000
vt 0.375000 0.750000
vt 0.375000 0.625000
vt 0.625000 0.750000
vt 0.375000 1.000000
vt 0.125000 0.625000
vt 0.125000 0.750000
vt 0.875000 0.625000
vt 0.625000 0.500000
vt 0.125000 0.500000
vt 0.375000 0.000000
vt 0.625000 0.125000
vt 0.375000 0.250000
vt 0.375000 0.125000
vt 0.625000 0.250000
vt 0.375000 0.500000
vt 0.625000 0.625000
vt 0.375000 0.750000
vt 0.375000 0.625000
vt 0.625000 0.750000
vt 0.375000 1.000000
vt 0.125000 0.625000
vt 0.125000 0.750000
vt 0.875000 0.625000
vt 0.625000 0.500000
vt 0.125000 0.500000
vt 0.375000 0.000000
vt 0.375000 0.000000
vt 0.625000 0.000000
vt 0.375000 0.000000
vt 0.625000 0.250000
vt 0.375000 0.500000
vt 0.375000 0.250000
vt 0.625000 0.000000
vt 0.375000 0.000000
vt 0.625000 0.000000
vt 0.625000 0.500000
vt 0.375000 0.750000
vt 0.375000 0.500000
vt 0.125000 0.500000
vt 0.125000 0.750000
vt 0.625000 0.500000
vt 0.875000 0.500000
vt 0.625000 0.750000
vt 0.625000 0.500000
vt 0.375000 0.500000
vt 0.125000 0.750000
vt 0.625000 0.000000
vt 0.375000 0.250000
vt 0.375000 0.000000
vt 0.875000 0.500000
vt 0.625000 0.750000
vt 0.125000 0.500000
vt 0.375000 0.250000
vt 0.625000 0.250000
vt 0.625000 0.250000
vt 0.375000 0.250000
vt 0.625000 0.250000
vt 0.125000 0.750000
vt 0.375000 0.500000
vt 0.125000 0.750000
vt 0.625000 0.250000
vt 0.375000 0.250000
vt 0.625000 0.250000
vt 0.375000 0.000000
vt 0.625000 0.000000
vt 0.625000 0.000000
vt 0.625000 0.750000
vt 0.625000 0.500000
vt 0.625000 0.750000
vt 0.625000 0.750000
vt 0.875000 0.500000
vt 0.625000 0.750000
vt 0.125000 0.750000
vt 0.125000 0.750000
vt 0.125000 0.750000
vt 0.375000 0.000000
vt 0.625000 0.500000
vt 0.125000 0.500000
vt 0.125000 0.500000
vt 0.875000 0.500000
vt 0.875000 0.500000
vt 0.875000 0.500000
vt 0.375000 0.250000
vt 0.125000 0.500000
vt 0.375000 0.000000
vt 0.625000 0.000000
vt 0.375000 0.000000
vt 0.625000 0.000000
vt 0.625000 0.750000
vt 0.625000 0.750000
vt 0.375000 0.500000
vt 0.375000 0.500000
vt 0.625000 0.500000
vt 0.625000 1.000000
vt 0.875000 0.750000
vt 0.875000 0.500000
vt 0.625000 0.000000
vt 0.625000 1.000000
vt 0.875000 0.750000
vt 0.875000 0.500000
vt 0.625000 0.000000
vt 0.625000 1.000000
vt 0.875000 0.750000
vt 0.875000 0.500000
vt 0.625000 0.000000
vt 0.625000 1.000000
vt 0.875000 0.750000
vt 0.875000 0.500000
vt 0.625000 0.000000
vt 0.625000 1.000000
vt 0.875000 0.750000
vt 0.875000 0.500000
vt 0.625000 0.000000
vt 0.625000 1.000000
vt 0.875000 0.750000
vt 0.875000 0.500000
vt 0.625000 0.000000
vt 0.625000 0.750000
vt 0.375000 0.000000
vt 0.125000 0.750000
vt 0.125000 0.750000
vt 0.125000 0.500000
vt 0.625000 0.000000
vn -0.4984 0.7378 -0.4552
vn 0.0000 -0.2689 -0.9632
vn 0.4815 0.7318 0.4823
vn 0.0000 -0.2689 0.9632
vn 0.0000 -1.0000 -0.0000
vn 0.0000 1.0000 0.0000
vn 0.4815 0.7318 -0.4823
vn -0.4984 0.7378 0.4552
vn -0.4552 0.7378 0.4984
vn -0.9632 -0.2689 0.0000
vn 0.4823 0.7318 -0.4815
vn 0.9632 -0.2689 -0.0000
vn -0.4823 0.7318 -0.4815
vn 0.4552 0.7378 0.4984
vn -0.5007 0.7350 -0.4573
vn 0.0000 -0.2668 -0.9638
vn 0.4837 0.7290 0.4844
vn 0.0000 -0.2668 0.9638
vn 0.4837 0.7290 -0.4844
vn -0.5007 0.7350 0.4573
vn -0.4573 0.7350 0.5007
vn -0.9638 -0.2668 0.0000
vn 0.4844 0.7290 -0.4837
vn 0.9638 -0.2668 -0.0000
vn -0.4844 0.7290 -0.4837
vn 0.4573 0.7350 0.5007
vn -0.5121 0.7205 -0.4677
vn 0.0000 -0.2564 -0.9666
vn 0.4945 0.7143 0.4953
vn 0.0000 -0.2564 0.9666
vn 0.4945 0.7143 -0.4953
vn -0.5121 0.7205 0.4677
vn -0.4677 0.7205 0.5121
vn -0.9666 -0.2564 0.0000
vn 0.4953 0.7143 -0.4945
vn 0.9666 -0.2564 -0.0000
vn -0.4953 0.7143 -0.4945
vn 0.4677 0.7205 0.5121
vn 0.9366 -0.0000 0.3504
vn 0.0000 0.0000 -1.0000
vn -0.9486 0.0000 0.3166
vn 0.5482 0.0000 0.8363
vn 0.9438 0.0000 -0.3305
vn -0.6915 0.0000 0.7224
vn -0.9328 -0.0000 -0.3605
vn -0.9972 -0.0000 0.0747
vn 0.0110 -0.0000 0.9999
vn 0.0199 0.0000 -0.9998
vn 0.9991 0.0000 0.0433
vn -0.0081 -0.0000 -1.0000
vn -0.0190 0.0000 0.9998
vn 0.9991 0.0000 0.0431
vn 0.0027 0.0000 -1.0000
vn -0.0177 0.0000 0.9998
vn -0.7652 0.6290 -0.1375
vn 0.7656 0.6222 0.1634
vn 0.7656 0.6222 -0.1634
vn -0.7652 0.6290 0.1375
vn -0.1375 0.6290 0.7652
vn 0.1634 0.6222 -0.7656
vn -0.1634 0.6222 -0.7656
vn 0.1375 0.6290 0.7652
vn -0.7677 0.6258 -0.1380
vn 0.7681 0.6189 0.1640
vn 0.7681 0.6189 -0.1640
vn -0.7677 0.6258 0.1380
vn -0.1380 0.6258 0.7677
vn 0.1640 0.6189 -0.7681
vn -0.1640 0.6189 -0.7681
vn 0.1380 0.6258 0.7677
vn -0.7802 0.6096 -0.1403
vn 0.7804 0.6027 0.1666
vn 0.7804 0.6027 -0.1666
vn -0.7802 0.6096 0.1403
vn -0.1403 0.6096 0.7802
vn 0.1666 0.6027 -0.7804
vn -0.1666 0.6027 -0.7804
vn 0.1403 0.6096 0.7802
usemtl Material.001
s off
f 10/1/1 3/2/1 9/3/1
f 4/4/2 7/5/2 3/2/2
f 12/6/3 5/7/3 11/8/3
f 6/9/4 1/10/4 5/7/4
f 9/11/5 5/7/5 1/12/5
f 10/13/6 6/9/6 12/6/6
f 8/14/6 10/13/6 12/6/6
f 7/5/5 9/11/5 3/15/5
f 7/5/7 12/6/7 11/8/7
f 1/16/8 10/1/8 9/3/8
f 22/17/9 15/18/9 21/19/9
f 16/20/10 19/21/10 15/18/10
f 24/22/11 17/23/11 23/24/11
f 18/25/12 13/26/12 17/23/12
f 21/27/5 17/23/5 13/28/5
f 22/29/6 18/25/6 24/22/6
f 20/30/6 22/29/6 24/22/6
f 19/21/5 21/27/5 15/31/5
f 19/21/13 24/22/13 23/24/13
f 13/32/14 22/17/14 21/19/14
f 34/33/15 27/34/15 33/35/15
f 28/36/16 31/37/16 27/34/16
f 36/38/17 29/39/17 35/40/17
f 30/41/18 25/42/18 29/39/18
f 33/43/5 29/39/5 25/44/5
f 34/45/6 30/41/6 36/38/6
f 32/46/6 34/45/6 36/38/6
f 31/37/5 33/43/5 27/47/5
f 31/37/19 36/38/19 35/40/19
f 25/48/20 34/33/20 33/35/20
f 46/49/21 39/50/21 45/51/21
f 40/52/22 43/53/22 39/50/22
f 48/54/23 41/55/23 47/56/23
f 42/57/24 37/58/24 41/55/24
f 45/59/5 41/55/5 37/60/5
f 46/61/6 42/57/6 48/54/6
f 44/62/6 46/61/6 48/54/6
f 43/53/5 45/59/5 39/63/5
f 43/53/25 48/54/25 47/56/25
f 37/64/26 46/49/26 45/51/26
f 58/65/27 51/66/27 57/67/27
f 52/68/28 55/69/28 51/66/28
f 60/70/29 53/71/29 59/72/29
f 54/73/30 49/74/30 53/71/30
f 57/75/5 53/71/5 49/76/5
f 58/77/6 54/73/6 60/70/6
f 56/78/6 58/77/6 60/70/6
f 55/69/5 57/75/5 51/79/5
f 55/69/31 60/70/31 59/72/31
f 49/80/32 58/65/32 57/67/32
f 70/81/33 63/82/33 69/83/33
f 64/84/34 67/85/34 63/82/34
f 72/86/35 65/87/35 71/88/35
f 66/89/36 61/90/36 65/87/36
f 69/91/5 65/87/5 61/92/5
f 70/93/6 66/89/6 72/86/6
f 68/94/6 70/93/6 72/86/6
f 67/85/5 69/91/5 63/95/5
f 67/85/37 72/86/37 71/88/37
f 61/96/38 70/81/38 69/83/38
f 73/97/39 97/98/39 92/99/39
f 76/100/40 79/101/40 75/102/40
f 74/103/41 95/104/41 100/105/41
f 82/106/42 77/107/42 81/108/42
f 75/109/5 79/101/5 73/110/5
f 80/111/6 76/112/6 74/113/6
f 74/113/6 94/114/6 80/111/6
f 80/111/43 90/115/43 79/101/43
f 73/110/5 90/115/5 95/116/5
f 84/117/44 85/118/44 83/119/44
f 74/113/6 87/120/6 97/121/6
f 73/110/5 102/122/5 75/109/5
f 76/100/45 102/123/45 87/124/45
f 103/125/46 105/126/46 104/127/46
f 90/115/5 96/128/5 95/116/5
f 89/129/5 77/130/5 96/128/5
f 88/131/47 105/126/47 101/132/47
f 88/131/45 85/118/45 86/133/45
f 100/105/41 96/134/41 99/135/41
f 96/134/41 78/136/41 99/135/41
f 94/114/6 99/137/6 93/138/6
f 93/138/6 78/139/6 82/106/6
f 87/120/6 98/140/6 97/121/6
f 98/140/6 86/141/6 84/142/6
f 92/143/5 107/144/5 91/145/5
f 91/146/39 84/117/39 83/119/39
f 93/138/6 114/147/6 94/114/6
f 93/138/43 81/108/43 89/129/43
f 102/122/5 91/145/5 101/148/5
f 91/145/5 85/149/5 101/148/5
f 88/150/6 103/151/6 104/152/6
f 87/124/48 106/153/48 103/125/48
f 101/148/5 106/154/5 102/122/5
f 108/155/49 110/156/49 107/157/49
f 97/98/50 108/155/50 92/99/50
f 98/158/51 107/157/51 110/156/51
f 97/121/6 110/159/6 109/160/6
f 114/147/52 111/161/52 112/162/52
f 94/114/53 112/162/53 90/115/53
f 89/129/5 112/162/5 111/161/5
f 89/129/54 113/163/54 93/138/54
f 10/1/55 4/4/55 3/2/55
f 4/4/2 8/14/2 7/5/2
f 12/6/56 6/9/56 5/7/56
f 6/9/4 2/164/4 1/10/4
f 9/11/5 11/8/5 5/7/5
f 10/13/6 2/165/6 6/9/6
f 8/14/6 4/166/6 10/13/6
f 7/5/5 11/8/5 9/11/5
f 7/5/57 8/14/57 12/6/57
f 1/16/58 2/167/58 10/1/58
f 22/17/59 16/20/59 15/18/59
f 16/20/10 20/30/10 19/21/10
f 24/22/60 18/25/60 17/23/60
f 18/25/12 14/168/12 13/26/12
f 21/27/5 23/24/5 17/23/5
f 22/29/6 14/169/6 18/25/6
f 20/30/6 16/170/6 22/29/6
f 19/21/5 23/24/5 21/27/5
f 19/21/61 20/30/61 24/22/61
f 13/32/62 14/171/62 22/17/62
f 34/33/63 28/36/63 27/34/63
f 28/36/16 32/46/16 31/37/16
f 36/38/64 30/41/64 29/39/64
f 30/41/18 26/172/18 25/42/18
f 33/43/5 35/40/5 29/39/5
f 34/45/6 26/173/6 30/41/6
f 32/46/6 28/174/6 34/45/6
f 31/37/5 35/40/5 33/43/5
f 31/37/65 32/46/65 36/38/65
f 25/48/66 26/175/66 34/33/66
f 46/49/67 40/52/67 39/50/67
f 40/52/22 44/62/22 43/53/22
f 48/54/68 42/57/68 41/55/68
f 42/57/24 38/176/24 37/58/24
f 45/59/5 47/56/5 41/55/5
f 46/61/6 38/177/6 42/57/6
f 44/62/6 40/178/6 46/61/6
f 43/53/5 47/56/5 45/59/5
f 43/53/69 44/62/69 48/54/69
f 37/64/70 38/179/70 46/49/70
f 58/65/71 52/68/71 51/66/71
f 52/68/28 56/78/28 55/69/28
f 60/70/72 54/73/72 53/71/72
f 54/73/30 50/180/30 49/74/30
f 57/75/5 59/72/5 53/71/5
f 58/77/6 50/181/6 54/73/6
f 56/78/6 52/182/6 58/77/6
f 55/69/5 59/72/5 57/75/5
f 55/69/73 56/78/73 60/70/73
f 49/80/74 50/183/74 58/65/74
f 70/81/75 64/84/75 63/82/75
f 64/84/34 68/94/34 67/85/34
f 72/86/76 66/89/76 65/87/76
f 66/89/36 62/184/36 61/90/36
f 69/91/5 71/88/5 65/87/5
f 70/93/6 62/185/6 66/89/6
f 68/94/6 64/186/6 70/93/6
f 67/85/5 71/88/5 69/91/5
f 67/85/77 68/94/77 72/86/77
f 61/96/78 62/187/78 70/81/78
f 73/97/39 74/103/39 97/98/39
f 76/100/40 80/111/40 79/101/40
f 74/103/41 73/97/41 95/104/41
f 82/106/42 78/139/42 77/107/42
f 74/113/6 100/188/6 94/114/6
f 80/111/43 94/114/43 90/115/43
f 73/110/5 79/101/5 90/115/5
f 84/117/44 86/133/44 85/118/44
f 74/113/6 76/112/6 87/120/6
f 73/110/5 92/143/5 102/122/5
f 76/100/45 75/102/45 102/123/45
f 103/125/46 106/153/46 105/126/46
f 90/115/5 89/129/5 96/128/5
f 89/129/5 81/108/5 77/130/5
f 88/131/47 104/127/47 105/126/47
f 88/131/45 101/132/45 85/118/45
f 100/105/41 95/104/41 96/134/41
f 96/134/41 77/189/41 78/136/41
f 94/114/6 100/188/6 99/137/6
f 93/138/6 99/137/6 78/139/6
f 87/120/6 88/150/6 98/140/6
f 98/140/6 88/150/6 86/141/6
f 92/143/5 108/190/5 107/144/5
f 91/146/39 98/158/39 84/117/39
f 93/138/6 113/163/6 114/147/6
f 93/138/43 82/106/43 81/108/43
f 102/122/5 92/143/5 91/145/5
f 91/145/5 83/191/5 85/149/5
f 88/150/6 87/120/6 103/151/6
f 87/124/48 102/123/48 106/153/48
f 101/148/5 105/192/5 106/154/5
f 108/155/49 109/193/49 110/156/49
f 97/98/50 109/193/50 108/155/50
f 98/158/51 91/146/51 107/157/51
f 97/121/6 98/140/6 110/159/6
f 114/147/52 113/163/52 111/161/52
f 94/114/53 114/147/53 112/162/53
f 89/129/5 90/115/5 112/162/5
f 89/129/54 111/161/54 113/163/54
