# Blender v3.1.2 OBJ File: ''
# www.blender.org
mtllib HomeHash23A654.mtl
o Cylinder.001_Cylinder.009
v 0.112375 0.581575 -5.293082
v -4.998777 0.606227 -1.472120
v -3.219783 0.581571 4.202567
v 2.988754 0.581579 4.172565
v 5.077986 0.581581 -1.497955
v -0.119104 9.268044 8.527599
v -5.154568 5.946469 6.794463
v 4.867811 5.872504 6.755489
v 7.843057 9.377885 2.047777
v 7.904947 6.472258 -2.431854
v 5.142806 9.409555 -6.368858
v 0.106015 5.946474 -8.527772
v -4.973441 9.268042 -6.928145
v -8.074269 5.946467 -2.473949
v -8.143914 9.268041 2.531124
v -0.027375 14.632943 5.294204
v -5.043056 14.632942 1.610819
v -3.107746 14.632943 -4.286086
v 3.405796 14.208855 -4.024776
v 5.126024 14.210183 1.233904
v 0.111602 0.792734 -5.130847
v -4.844017 0.817116 -1.422272
v -3.123590 0.792405 4.071398
v 2.895692 0.793040 4.040154
v 4.922016 0.792473 -1.452046
v -0.118517 9.220033 8.265676
v -4.999116 5.996836 6.584208
v 4.715829 5.924264 6.543048
v 7.594758 9.329088 1.965333
v 7.654921 6.522676 -2.355362
v 4.987706 9.360445 -6.158116
v 0.105216 5.997685 -8.266456
v -4.819663 9.220115 -6.716096
v -7.825541 5.997350 -2.393607
v -7.894240 9.217435 2.453593
v -0.027911 14.423027 5.130361
v -4.887390 14.422625 1.561386
v -3.011889 14.422657 -4.153797
v 3.309966 13.998125 -3.893122
v 4.969944 14.000585 1.181732
v 8.152648 5.946481 -2.501114
v 8.083794 9.218730 2.542814
v 3.103043 14.632943 -4.289425
v 5.036674 14.632943 1.631461
v 5.050926 9.243388 -6.920471
v 7.902630 5.996727 -2.424462
v 7.835393 9.169991 2.460161
v 3.007301 14.422182 -4.157811
v 4.880721 14.423458 1.579462
v 4.895756 9.194275 -6.709711
v 4.293286 -0.407846 -5.986490
v 4.293286 7.853541 -5.986491
v 4.293286 -0.407846 -6.413748
v 4.293286 7.853541 -6.413748
v 4.720543 -0.407846 -5.986490
v 4.720543 7.853541 -5.986490
v 4.720542 -0.407846 -6.413748
v 4.720542 7.853541 -6.413748
v 6.932694 -0.407846 2.554236
v 6.932693 7.853541 2.554236
v 6.932694 -0.407846 2.126979
v 6.932694 7.853541 2.126979
v 7.359951 -0.407846 2.554236
v 7.359951 7.853541 2.554236
v 7.359951 -0.407846 2.126979
v 7.359951 7.853541 2.126979
v -0.288328 -0.407847 7.608952
v -0.288328 7.853541 7.608952
v -0.288328 -0.407847 7.181695
v -0.288328 7.853541 7.181695
v 0.138929 -0.407847 7.608952
v 0.138929 7.853541 7.608952
v 0.138929 -0.407847 7.181695
v 0.138929 7.853541 7.181695
v -7.409751 -0.407846 2.429736
v -7.409751 7.853541 2.429736
v -7.409751 -0.407846 2.002479
v -7.409751 7.853541 2.002479
v -6.982493 -0.407846 2.429736
v -6.982494 7.853541 2.429736
v -6.982493 -0.407846 2.002479
v -6.982493 7.853541 2.002479
v -4.546241 -0.407847 -5.861989
v -4.546241 7.853541 -5.861990
v -4.546241 -0.407847 -6.289248
v -4.546241 7.853541 -6.289248
v -4.118984 -0.407846 -5.861990
v -4.118984 7.853541 -5.861990
v -4.118984 -0.407846 -6.289248
v -4.118984 7.853541 -6.289248
v -0.000000 7.500132 -5.115391
v -0.000000 7.714389 -5.115391
v 4.865026 7.500131 -1.580742
v 4.865026 7.714389 -1.580742
v 3.006751 7.500131 4.138438
v 3.006751 7.714388 4.138438
v -3.006751 7.500132 4.138437
v -3.006752 7.714388 4.138437
v -4.865025 7.500132 -1.580743
v -4.865026 7.714388 -1.580743
vt 0.978254 0.324164
vt 0.608932 0.055836
vt 0.891068 0.055836
vt 0.021746 0.324164
vt 0.391068 0.055836
vt 0.108932 0.055836
vt 0.108932 0.055836
vt 0.021746 0.324164
vt 0.478254 0.324164
vt 0.108932 0.055836
vt 0.021746 0.324164
vt 0.478254 0.324164
vt 0.021746 0.324164
vt 0.391068 0.055836
vt 0.108932 0.055836
vt 0.021746 0.324164
vt 0.391068 0.055836
vt 0.108932 0.055836
vt 0.978254 0.324164
vt 0.521746 0.324164
vt 0.608932 0.055836
vt 0.108932 0.055836
vt 0.021746 0.324164
vt 0.478254 0.324164
vt 0.374994 0.077547
vt 0.452566 0.315752
vt 0.453350 0.316002
vt 0.250000 0.490000
vt 0.108932 0.055836
vt 0.021746 0.324164
vt 0.108932 0.055836
vt 0.021746 0.324164
vt 0.478254 0.324164
vt 0.108932 0.055836
vt 0.021746 0.324164
vt 0.478254 0.324164
vt 0.608932 0.055836
vt 0.978254 0.324164
vt 0.891068 0.055836
vt 0.391068 0.055836
vt 0.021746 0.324164
vt 0.108932 0.055836
vt 0.021746 0.324164
vt 0.108932 0.055836
vt 0.478254 0.324164
vt 0.021746 0.324164
vt 0.108932 0.055836
vt 0.478254 0.324164
vt 0.391068 0.055836
vt 0.021746 0.324164
vt 0.108932 0.055836
vt 0.391068 0.055836
vt 0.021746 0.324164
vt 0.108932 0.055836
vt 0.521746 0.324164
vt 0.978254 0.324164
vt 0.891068 0.055836
vt 0.021746 0.324164
vt 0.108932 0.055836
vt 0.478254 0.324164
vt 0.249392 0.462711
vt 0.249419 0.463543
vt 0.108932 0.055836
vt 0.250000 0.490000
vt 0.021746 0.324164
vt 0.021746 0.324164
vt 0.108932 0.055836
vt 0.478254 0.324164
vt 0.021746 0.324164
vt 0.108932 0.055836
vt 0.478254 0.324164
vt 0.047474 0.316449
vt 0.021746 0.324164
vt 0.124617 0.076898
vt 0.375499 0.076894
vt 0.391068 0.055836
vt 0.250000 0.490000
vt 0.478254 0.324164
vt 0.108932 0.055836
vt 0.250000 0.490000
vt 0.021746 0.324164
vt 0.125126 0.077545
vt 0.108932 0.055836
vt 0.391068 0.055836
vt 0.478254 0.324164
vt 0.048297 0.316222
vt 0.375000 0.250000
vt 0.375000 0.000000
vt 0.625000 0.000000
vt 0.625000 0.250000
vt 0.625000 0.500000
vt 0.375000 0.750000
vt 0.375000 0.500000
vt 0.375000 1.000000
vt 0.625000 0.750000
vt 0.125000 0.750000
vt 0.125000 0.500000
vt 0.875000 0.500000
vt 0.875000 0.750000
vt 0.375000 0.250000
vt 0.375000 0.000000
vt 0.625000 0.000000
vt 0.375000 0.500000
vt 0.625000 0.250000
vt 0.375000 0.750000
vt 0.625000 0.500000
vt 0.625000 0.750000
vt 0.625000 1.000000
vt 0.125000 0.500000
vt 0.875000 0.500000
vt 0.375000 0.250000
vt 0.375000 0.000000
vt 0.625000 0.000000
vt 0.375000 0.500000
vt 0.625000 0.250000
vt 0.375000 0.750000
vt 0.625000 0.500000
vt 0.375000 1.000000
vt 0.625000 0.750000
vt 0.125000 0.500000
vt 0.875000 0.500000
vt 0.375000 0.250000
vt 0.375000 0.000000
vt 0.625000 0.000000
vt 0.375000 0.500000
vt 0.625000 0.250000
vt 0.375000 0.750000
vt 0.625000 0.500000
vt 0.625000 0.750000
vt 0.625000 1.000000
vt 0.125000 0.500000
vt 0.875000 0.500000
vt 0.375000 0.250000
vt 0.375000 0.000000
vt 0.625000 0.000000
vt 0.375000 0.500000
vt 0.625000 0.250000
vt 0.375000 0.750000
vt 0.625000 0.500000
vt 0.625000 0.750000
vt 0.625000 1.000000
vt 0.125000 0.500000
vt 0.875000 0.500000
vt 1.000000 0.500000
vt 1.000000 1.000000
vt 0.800000 1.000000
vt 0.600000 0.500000
vt 0.800000 0.500000
vt 0.400000 0.500000
vt 0.600000 1.000000
vt 0.391068 0.055836
vt 0.250000 0.490000
vt 0.021746 0.324164
vt 0.200000 0.500000
vt 0.400000 1.000000
vt 0.200000 1.000000
vt 0.000000 1.000000
vt 0.521746 0.324164
vt 0.891068 0.055836
vt 0.608932 0.055836
vt 0.521746 0.324164
vt 0.750000 0.490000
vt 0.478254 0.324164
vt 0.250000 0.490000
vt 0.391068 0.055836
vt 0.250000 0.490000
vt 0.391068 0.055836
vt 0.250000 0.490000
vt 0.478254 0.324164
vt 0.250000 0.490000
vt 0.478254 0.324164
vt 0.250000 0.490000
vt 0.750000 0.490000
vt 0.891068 0.055836
vt 0.391068 0.055836
vt 0.250000 0.490000
vt 0.391068 0.055836
vt 0.478254 0.324164
vt 0.391068 0.055836
vt 0.250000 0.490000
vt 0.391068 0.055836
vt 0.250000 0.490000
vt 0.750000 0.490000
vt 0.521746 0.324164
vt 0.250000 0.490000
vt 0.478254 0.324164
vt 0.250000 0.490000
vt 0.391068 0.055836
vt 0.250000 0.490000
vt 0.391068 0.055836
vt 0.250000 0.490000
vt 0.478254 0.324164
vt 0.250000 0.490000
vt 0.478254 0.324164
vt 0.750000 0.490000
vt 0.608932 0.055836
vt 0.250000 0.490000
vt 0.391068 0.055836
vt 0.478254 0.324164
vt 0.391068 0.055836
vt 0.250000 0.490000
vt 0.391068 0.055836
vt 0.250000 0.490000
vt 0.391068 0.055836
vt 0.625000 1.000000
vt 0.375000 1.000000
vt 0.125000 0.750000
vt 0.875000 0.750000
vt 0.625000 1.000000
vt 0.125000 0.750000
vt 0.875000 0.750000
vt 0.375000 1.000000
vt 0.125000 0.750000
vt 0.875000 0.750000
vt 0.375000 1.000000
vt 0.125000 0.750000
vt 0.875000 0.750000
vt 0.478254 0.324164
vt 0.108932 0.055836
vt 0.000000 0.500000
vt 0.978254 0.324164
vt 0.750000 0.490000
vn -0.0000 -1.0000 -0.0043
vn 0.0043 -0.4399 0.8980
vn 0.8511 -0.4319 0.2986
vn 0.5400 -0.4341 -0.7210
vn -0.5378 -0.4442 -0.7166
vn -0.8581 -0.4385 0.2671
vn -0.0000 1.0000 0.0000
vn 0.0018 0.4392 -0.8984
vn 0.8052 0.0017 0.5930
vn 0.5461 0.4255 0.7216
vn -0.5389 0.4352 0.7212
vn -0.8527 0.4373 -0.2858
vn -0.0001 1.0000 0.0045
vn -0.0047 0.4397 -0.8981
vn -0.8511 0.4316 -0.2990
vn -0.5402 0.4338 0.7211
vn 0.5382 0.4441 0.7163
vn 0.8584 0.4382 -0.2668
vn 0.0001 -1.0000 0.0000
vn -0.0018 -0.4392 0.8984
vn 0.3021 0.8533 0.4249
vn -0.5468 -0.4251 -0.7213
vn 0.5392 -0.4351 -0.7211
vn 0.8528 -0.4371 0.2858
vn 0.8548 0.4407 -0.2740
vn 0.8553 0.4359 -0.2799
vn 0.8559 0.4392 -0.2731
vn 0.8575 0.4368 -0.2718
vn 0.8529 0.4433 -0.2756
vn -0.8559 -0.4390 0.2734
vn -0.8527 -0.4419 0.2785
vn -0.8565 -0.4372 0.2745
vn -0.8568 -0.4350 0.2768
vn -0.8554 -0.4413 0.2711
vn 0.8056 -0.5308 -0.2632
vn 0.3042 0.0106 -0.9526
vn 0.0160 0.8386 -0.5445
vn -1.0000 0.0000 -0.0000
vn 0.0000 -0.0000 -1.0000
vn 1.0000 -0.0000 -0.0000
vn 0.0000 0.0000 1.0000
vn -0.0000 -1.0000 0.0000
vn 0.5878 0.0000 -0.8090
vn 0.9511 0.0000 0.3090
vn -0.9511 0.0000 0.3090
vn -0.5878 -0.0000 -0.8090
vn -0.0039 -1.0000 0.0012
vn 0.0003 -0.4349 0.9005
vn 0.0000 -0.4626 0.8865
vn 0.8386 -0.4487 0.3090
vn 0.8473 -0.4402 0.2972
vn 0.5439 -0.4448 -0.7116
vn 0.5343 -0.4536 -0.7133
vn -0.5352 -0.4366 -0.7231
vn -0.5272 -0.4632 -0.7124
vn -0.8555 -0.4421 0.2695
vn -0.8623 -0.4274 0.2716
vn -0.0005 0.4419 -0.8970
vn 0.0018 0.4361 -0.8999
vn 0.8063 0.0029 0.5915
vn 0.5312 0.4226 0.7344
vn 0.5298 0.4191 0.7373
vn -0.5303 0.4443 0.7221
vn -0.5376 0.4396 0.7195
vn -0.8513 0.4441 -0.2794
vn -0.8617 0.4171 -0.2888
vn 0.0040 1.0000 -0.0012
vn 0.0001 1.0000 -0.0001
vn -0.0003 0.4629 -0.8864
vn -0.0006 0.4346 -0.9006
vn -0.8473 0.4400 -0.2975
vn -0.8386 0.4484 -0.3094
vn -0.5344 0.4535 0.7133
vn -0.5441 0.4446 0.7115
vn 0.5274 0.4633 0.7122
vn 0.5355 0.4363 0.7231
vn 0.8625 0.4271 -0.2715
vn 0.8556 0.4420 -0.2693
vn -0.0001 -1.0000 0.0002
vn -0.0018 -0.4357 0.9001
vn 0.0006 -0.4420 0.8970
vn 0.3046 0.8534 0.4230
vn -0.5300 -0.4184 -0.7376
vn -0.5314 -0.4220 -0.7346
vn 0.5380 -0.4392 -0.7195
vn 0.5303 -0.4443 -0.7220
vn 0.8620 -0.4165 0.2889
vn 0.8514 -0.4439 0.2794
vn 0.8558 0.4392 -0.2732
vn 0.8527 0.4421 -0.2785
vn 0.8563 0.4375 -0.2744
vn 0.8568 0.4351 -0.2768
vn 0.8554 0.4415 -0.2711
vn -0.8549 -0.4404 0.2741
vn -0.8554 -0.4358 0.2800
vn -0.8560 -0.4390 0.2730
vn -0.8575 -0.4367 0.2719
vn -0.8530 -0.4432 0.2757
vn 0.8040 -0.5333 -0.2629
vn 0.3122 0.0161 -0.9499
vn 0.0027 0.8390 -0.5442
usemtl None
s off
f 2/1/1 4/2/1 3/3/1
f 8/4/2 3/5/2 4/6/2
f 5/7/3 41/8/3 8/9/3
f 1/10/4 12/11/4 41/12/4
f 14/13/5 1/14/5 2/15/5
f 7/16/6 2/17/6 3/18/6
f 17/19/7 44/20/7 43/21/7
f 43/22/8 45/23/8 13/24/8
f 39/25/9 31/26/9 11/27/9
f 8/28/10 16/29/10 6/30/10
f 17/31/11 15/32/11 6/33/11
f 18/34/12 13/35/12 15/36/12
f 24/37/13 22/38/13 23/39/13
f 23/40/14 28/41/14 24/42/14
f 46/43/15 25/44/15 28/45/15
f 32/46/16 21/47/16 46/48/16
f 21/49/17 34/50/17 22/51/17
f 22/52/18 27/53/18 23/54/18
f 49/55/19 37/56/19 38/57/19
f 50/58/20 48/59/20 33/60/20
f 31/26/21 30/61/21 10/62/21
f 36/63/22 28/64/22 26/65/22
f 35/66/23 37/67/23 26/68/23
f 33/69/24 38/70/24 35/71/24
f 10/62/25 9/72/25 42/73/25
f 20/74/26 19/75/26 43/76/26
f 10/62/27 41/77/27 45/78/27
f 20/74/28 44/79/28 42/73/28
f 19/75/29 11/27/29 45/78/29
f 30/61/30 46/80/30 47/81/30
f 40/82/31 49/83/31 48/84/31
f 30/61/32 31/26/32 50/85/32
f 40/82/33 29/86/33 47/81/33
f 39/25/34 48/84/34 50/85/34
f 40/82/35 39/25/35 19/75/35
f 40/82/36 20/74/36 9/72/36
f 30/61/37 29/86/37 9/72/37
f 53/87/38 51/88/38 52/89/38
f 53/87/39 54/90/39 58/91/39
f 55/92/40 57/93/40 58/91/40
f 51/94/41 55/92/41 56/95/41
f 51/96/42 53/97/42 57/93/42
f 58/91/7 54/98/7 52/99/7
f 61/100/38 59/101/38 60/102/38
f 65/103/39 61/100/39 62/104/39
f 63/105/40 65/103/40 66/106/40
f 63/105/41 64/107/41 60/108/41
f 61/109/42 65/103/42 63/105/42
f 64/107/7 66/106/7 62/110/7
f 69/111/38 67/112/38 68/113/38
f 73/114/39 69/111/39 70/115/39
f 71/116/40 73/114/40 74/117/40
f 67/118/41 71/116/41 72/119/41
f 69/120/42 73/114/42 71/116/42
f 72/119/7 74/117/7 70/121/7
f 77/122/38 75/123/38 76/124/38
f 81/125/39 77/122/39 78/126/39
f 79/127/40 81/125/40 82/128/40
f 79/127/41 80/129/41 76/130/41
f 77/131/42 81/125/42 79/127/42
f 80/129/7 82/128/7 78/132/7
f 85/133/38 83/134/38 84/135/38
f 89/136/39 85/133/39 86/137/39
f 87/138/40 89/136/40 90/139/40
f 87/138/41 88/140/41 84/141/41
f 85/142/42 89/136/42 87/138/42
f 88/140/7 90/139/7 86/143/7
f 91/144/43 92/145/43 94/146/43
f 95/147/44 93/148/44 94/146/44
f 97/149/41 95/147/41 96/150/41
f 96/151/7 92/152/7 100/153/7
f 99/154/45 97/149/45 98/155/45
f 99/154/46 100/156/46 92/157/46
f 99/158/42 95/159/42 97/160/42
f 5/161/42 4/2/42 1/162/42
f 1/162/47 4/2/47 2/1/47
f 3/5/48 8/4/48 7/163/48
f 7/163/49 8/4/49 6/164/49
f 4/165/50 5/7/50 8/9/50
f 8/9/51 41/8/51 42/166/51
f 5/167/52 1/10/52 41/12/52
f 41/12/53 12/11/53 45/168/53
f 1/14/54 14/13/54 12/169/54
f 12/169/55 14/13/55 13/170/55
f 2/17/56 7/16/56 14/171/56
f 14/171/57 7/16/57 15/172/57
f 44/20/7 17/19/7 16/173/7
f 17/19/7 43/21/7 18/174/7
f 18/175/58 43/22/58 13/24/58
f 13/24/59 45/23/59 12/176/59
f 39/25/60 11/27/60 19/75/60
f 44/177/61 16/29/61 42/178/61
f 42/178/62 16/29/62 8/28/62
f 16/179/63 17/31/63 6/33/63
f 6/33/64 15/32/64 7/180/64
f 17/181/65 18/34/65 15/36/65
f 15/36/66 13/35/66 14/182/66
f 22/38/67 24/37/67 21/183/67
f 21/183/68 24/37/68 25/184/68
f 26/185/69 28/41/69 27/186/69
f 27/186/70 28/41/70 23/40/70
f 47/187/71 46/43/71 28/45/71
f 28/45/72 25/44/72 24/188/72
f 50/189/73 32/46/73 46/48/73
f 46/48/74 21/47/74 25/190/74
f 33/191/75 34/50/75 32/192/75
f 32/192/76 34/50/76 21/49/76
f 35/193/77 27/53/77 34/194/77
f 34/194/78 27/53/78 22/52/78
f 37/56/19 49/55/19 36/195/19
f 49/55/79 38/57/79 48/196/79
f 32/197/80 50/58/80 33/60/80
f 33/60/81 48/59/81 38/198/81
f 31/26/82 10/62/82 11/27/82
f 28/64/83 36/63/83 47/199/83
f 47/199/84 36/63/84 49/200/84
f 27/201/85 35/66/85 26/68/85
f 26/68/86 37/67/86 36/202/86
f 34/203/87 33/69/87 35/71/87
f 35/71/88 38/70/88 37/204/88
f 10/62/89 42/73/89 41/77/89
f 20/74/90 43/76/90 44/79/90
f 10/62/91 45/78/91 11/27/91
f 20/74/92 42/73/92 9/72/92
f 19/75/93 45/78/93 43/76/93
f 30/61/94 47/81/94 29/86/94
f 40/82/95 48/84/95 39/25/95
f 30/61/96 50/85/96 46/80/96
f 40/82/97 47/81/97 49/83/97
f 39/25/98 50/85/98 31/26/98
f 40/82/99 19/75/99 20/74/99
f 40/82/100 9/72/100 29/86/100
f 30/61/101 9/72/101 10/62/101
f 53/87/38 52/89/38 54/90/38
f 53/87/39 58/91/39 57/93/39
f 55/92/40 58/91/40 56/95/40
f 51/94/41 56/95/41 52/205/41
f 51/96/42 57/93/42 55/92/42
f 58/91/7 52/99/7 56/95/7
f 61/100/38 60/102/38 62/104/38
f 65/103/39 62/104/39 66/106/39
f 63/105/40 66/106/40 64/107/40
f 63/105/41 60/108/41 59/206/41
f 61/109/42 63/105/42 59/207/42
f 64/107/7 62/110/7 60/208/7
f 69/111/38 68/113/38 70/115/38
f 73/114/39 70/115/39 74/117/39
f 71/116/40 74/117/40 72/119/40
f 67/118/41 72/119/41 68/209/41
f 69/120/42 71/116/42 67/210/42
f 72/119/7 70/121/7 68/211/7
f 77/122/38 76/124/38 78/126/38
f 81/125/39 78/126/39 82/128/39
f 79/127/40 82/128/40 80/129/40
f 79/127/41 76/130/41 75/212/41
f 77/131/42 79/127/42 75/213/42
f 80/129/7 78/132/7 76/214/7
f 85/133/38 84/135/38 86/137/38
f 89/136/39 86/137/39 90/139/39
f 87/138/40 90/139/40 88/140/40
f 87/138/41 84/141/41 83/215/41
f 85/142/42 87/138/42 83/216/42
f 88/140/7 86/143/7 84/217/7
f 91/144/43 94/146/43 93/148/43
f 95/147/44 94/146/44 96/150/44
f 97/149/41 96/150/41 98/155/41
f 92/152/7 96/151/7 94/218/7
f 96/151/7 100/153/7 98/219/7
f 99/154/45 98/155/45 100/156/45
f 99/154/46 92/157/46 91/220/46
f 93/221/42 95/159/42 91/222/42
f 91/222/42 95/159/42 99/158/42
