# Blender v3.1.2 OBJ File: ''
# www.blender.org
mtllib kamunoNonPositionalVillager(r).mtl
o Plane.002_Plane.006
v 0.206941 0.900247 0.445057
v 0.126085 0.900247 0.445057
v -0.094114 0.900247 0.445057
v -0.182933 0.900247 0.445057
v -0.024622 1.402650 0.445057
v 0.022606 1.402650 0.445057
v 0.138774 1.086034 0.445057
v -0.122882 1.090820 0.445057
v -0.286221 1.215849 0.445057
v -0.083902 1.214524 0.445057
v 0.092053 1.213372 0.445057
v 0.296715 1.212032 0.445057
v 0.013711 0.986265 0.445057
v -0.206941 0.900247 0.446197
v -0.126085 0.900247 0.446197
v 0.094114 0.900247 0.446196
v 0.182933 0.900247 0.446196
v 0.024622 1.402650 0.446196
v -0.022605 1.402650 0.446196
v -0.138774 1.086034 0.446197
v 0.122882 1.090820 0.446196
v 0.286221 1.215849 0.446196
v 0.083902 1.214524 0.446196
v -0.092053 1.213372 0.446196
v -0.296715 1.212032 0.446197
v -0.013711 0.986265 0.446196
vt 0.471642 1.000000
vt 0.605254 0.625547
vt 0.530888 1.000000
vt 0.654154 0.379323
vt 0.618064 0.000000
vt 0.729487 0.000000
vt 0.341828 0.000000
vt 0.325910 0.369796
vt 0.240396 0.000000
vt 0.384521 0.623254
vt 0.859060 0.628183
vt 0.127775 0.620587
vt 0.482800 0.171212
vt 0.471642 1.000000
vt 0.605254 0.625547
vt 0.530888 1.000000
vt 0.654154 0.379323
vt 0.618064 0.000000
vt 0.729487 0.000000
vt 0.341828 0.000000
vt 0.325910 0.369796
vt 0.240396 0.000000
vt 0.384521 0.623254
vt 0.859060 0.628183
vt 0.127775 0.620587
vt 0.482800 0.171212
vn 0.0000 0.0000 -1.0000
vn 0.0000 -0.0000 1.0000
usemtl Material.013
s off
f 6/1/1 10/2/1 5/3/1
f 8/4/1 3/5/1 4/6/1
f 2/7/1 7/8/1 1/9/1
f 8/4/1 10/2/1 11/10/1
f 8/4/1 9/11/1 10/2/1
f 11/10/1 12/12/1 7/8/1
f 6/1/1 11/10/1 10/2/1
f 8/4/1 13/13/1 3/5/1
f 2/7/1 13/13/1 7/8/1
f 7/8/1 13/13/1 11/10/1
f 13/13/1 8/4/1 11/10/1
usemtl Material.014
f 19/14/2 23/15/2 18/16/2
f 21/17/2 16/18/2 17/19/2
f 15/20/2 20/21/2 14/22/2
f 21/17/2 23/15/2 24/23/2
f 21/17/2 22/24/2 23/15/2
f 24/23/2 25/25/2 20/21/2
f 19/14/2 24/23/2 23/15/2
f 21/17/2 26/26/2 16/18/2
f 15/20/2 26/26/2 20/21/2
f 20/21/2 26/26/2 24/23/2
f 26/26/2 21/17/2 24/23/2
