# Blender v3.1.2 OBJ File: ''
# www.blender.org
mtllib kamunoNonPositionalVillager(b).mtl
o Circle.001_Circle.004
v 0.005724 1.297179 0.441913
v 0.042159 1.293590 0.441913
v 0.077192 1.282963 0.441913
v 0.109480 1.265705 0.441913
v 0.137780 1.242479 0.441913
v 0.161005 1.214179 0.441913
v 0.178263 1.181892 0.441913
v 0.188891 1.146858 0.441913
v 0.192479 1.110424 0.441913
v 0.188891 1.073990 0.441913
v 0.178263 1.038956 0.441913
v 0.161005 1.006669 0.441913
v 0.137780 0.978368 0.441913
v 0.109480 0.955143 0.441913
v 0.077192 0.937885 0.441913
v 0.042158 0.927258 0.441913
v 0.005724 0.923669 0.441913
v -0.030710 0.927258 0.441913
v -0.065743 0.937885 0.441913
v -0.098031 0.955143 0.441913
v -0.126331 0.978368 0.441913
v -0.149556 1.006668 0.441913
v -0.166814 1.038956 0.441913
v -0.177442 1.073990 0.441913
v -0.181030 1.110424 0.441913
v -0.177442 1.146858 0.441913
v -0.166814 1.181892 0.441913
v -0.149556 1.214179 0.441913
v -0.126331 1.242479 0.441913
v -0.098031 1.265705 0.441913
v -0.065743 1.282963 0.441913
v -0.030710 1.293590 0.441913
v 0.118707 1.034675 0.441913
v 0.030367 0.954617 0.441913
v -0.012699 0.956273 0.441913
v -0.144656 1.163320 0.441913
v -0.143552 1.180435 0.441913
v -0.096069 1.180987 0.441913
v 0.012147 1.018663 0.441913
v 0.053556 1.050686 0.441913
v 0.065703 1.060625 0.441913
v 0.121467 1.060072 0.441913
v 0.377974 1.374024 0.444901
v 0.377208 1.327246 0.444901
v 0.363405 1.326480 0.444901
v 0.365705 1.348718 0.444901
v 0.341933 1.347568 0.444901
v 0.340783 1.359837 0.444901
v 0.362254 1.357153 0.444901
v 0.361871 1.372490 0.444901
v 0.335415 1.379008 0.444901
v 0.340016 1.390894 0.444901
v 0.376824 1.381309 0.444901
v 0.310531 1.379808 0.444901
v 0.320461 1.361754 0.444901
v 0.337332 1.325713 0.444901
v 0.323912 1.326096 0.444901
v 0.317394 1.339899 0.444901
v 0.303975 1.339899 0.444901
v 0.295923 1.324946 0.444901
v 0.281736 1.325713 0.444901
v 0.314710 1.349868 0.444901
v 0.310493 1.364822 0.444901
v 0.303975 1.351018 0.444901
v 0.272365 1.326771 0.444901
v 0.263393 1.327784 0.444901
v 0.270617 1.375174 0.444901
v 0.272151 1.362904 0.444901
v 0.260265 1.361754 0.444901
v 0.252596 1.357537 0.444901
v 0.251063 1.346801 0.444901
v 0.259881 1.342200 0.444901
v 0.269467 1.337982 0.444901
v 0.272918 1.331464 0.444901
v 0.258731 1.333765 0.444901
v 0.243394 1.340283 0.444901
v 0.239177 1.351785 0.444901
v 0.242628 1.365972 0.444901
v 0.251830 1.372490 0.444901
v 0.271384 1.318428 0.444901
v 0.258731 1.313827 0.444901
v 0.240327 1.313827 0.444901
v 0.241477 1.321879 0.444901
v 0.252596 1.321495 0.444901
v 0.227665 1.331817 0.444901
v 0.215629 1.333176 0.444901
v 0.195521 1.335446 0.444901
v 0.185427 1.336586 0.444901
v 0.226141 1.367889 0.444901
v 0.214638 1.342967 0.444901
v 0.205819 1.341816 0.444901
v 0.190099 1.345267 0.444901
v 0.202369 1.351018 0.444901
v 0.212721 1.352169 0.444901
v 0.213104 1.370573 0.444901
v 0.228441 1.313443 0.444901
v 0.217705 1.312677 0.444901
v 0.194317 1.324563 0.444901
v 0.194700 1.311526 0.444901
v 0.184731 1.310376 0.444901
v 0.183581 1.326863 0.444901
v 0.173198 1.337966 0.444901
v 0.162701 1.339152 0.444901
v 0.170928 1.365205 0.444901
v 0.162876 1.364055 0.444901
v 0.175529 1.309993 0.444901
v 0.162493 1.309609 0.444901
v 0.172078 1.370573 0.444901
v 0.161343 1.368656 0.444901
v 0.162493 1.378625 0.444901
v 0.170545 1.377858 0.444901
v 0.373757 1.304241 0.444901
v 0.375674 1.249029 0.444901
v 0.358037 1.249029 0.444901
v 0.361104 1.304241 0.444901
v 0.371456 1.308842 0.444901
v 0.362638 1.309993 0.444901
v 0.362638 1.319195 0.444901
v 0.371456 1.316894 0.444901
v 0.343223 1.252032 0.444901
v 0.330671 1.254577 0.444901
v 0.308312 1.259109 0.444901
v 0.296138 1.261577 0.444901
v 0.343467 1.245195 0.444901
v 0.330814 1.245578 0.444901
v 0.309342 1.244428 0.444901
v 0.296690 1.243661 0.444901
v 0.341933 1.288138 0.444901
v 0.330431 1.269734 0.444901
v 0.323146 1.277785 0.444901
v 0.311260 1.275102 0.444901
v 0.307809 1.266283 0.444901
v 0.295923 1.268583 0.444901
v 0.299374 1.280086 0.444901
v 0.310109 1.286604 0.444901
v 0.322379 1.288521 0.444901
v 0.328513 1.282386 0.444901
v 0.328130 1.288138 0.444901
v 0.281420 1.264561 0.444901
v 0.268797 1.267120 0.444901
v 0.254718 1.269974 0.444901
v 0.283270 1.241744 0.444901
v 0.272151 1.241361 0.444901
v 0.250296 1.241744 0.444901
v 0.234192 1.240594 0.444901
v 0.278669 1.298490 0.444901
v 0.234959 1.297723 0.444901
v 0.249529 1.299640 0.444901
v 0.266016 1.276252 0.444901
v 0.267166 1.298873 0.444901
v 0.355321 1.249580 0.444901
v 0.347089 1.251248 0.444901
v 0.350278 1.245469 0.444901
v 0.351609 1.253679 0.444901
v 0.294141 1.241697 0.444901
v 0.290147 1.247244 0.444901
v 0.286596 1.241475 0.444901
v 0.292144 1.237481 0.444901
v 0.230237 1.239922 0.444901
v 0.225356 1.243916 0.444901
v 0.221584 1.237925 0.444901
v 0.228019 1.234153 0.444901
v 0.141605 1.365068 0.444901
v 0.108021 1.367103 0.444901
v 0.111462 1.344387 0.444901
v 0.104525 1.345170 0.444901
v 0.124204 1.370749 0.444901
v 0.141074 1.370436 0.444901
v 0.142480 1.356221 0.444901
v 0.132795 1.363251 0.444901
v 0.120611 1.362938 0.444901
v 0.110614 1.356378 0.444901
v 0.109989 1.346537 0.444901
v 0.101710 1.355909 0.444901
v 0.115769 1.338101 0.444901
v 0.127328 1.335446 0.444901
v 0.137794 1.332009 0.444901
v 0.141543 1.324355 0.444901
v 0.135139 1.314514 0.444901
v 0.126235 1.311390 0.444901
v 0.115300 1.312327 0.444901
v 0.107802 1.316076 0.444901
v 0.107958 1.322480 0.444901
v 0.117956 1.319356 0.444901
v 0.130609 1.318263 0.444901
v 0.132327 1.327635 0.444901
v 0.116550 1.329978 0.444901
v 0.105928 1.339820 0.444901
v 0.082383 1.373440 0.444901
v 0.074415 1.373922 0.444901
v 0.083595 1.348083 0.444901
v 0.074246 1.349138 0.444901
v 0.082484 1.376911 0.444901
v 0.074533 1.378575 0.444901
v 0.082114 1.364152 0.444901
v 0.095242 1.361933 0.444901
v 0.096351 1.353798 0.444901
v 0.083223 1.355832 0.444901
v 0.073978 1.356201 0.444901
v 0.060850 1.357126 0.444901
v 0.061589 1.366001 0.444901
v 0.071389 1.364892 0.444901
v 0.074163 1.363967 0.444901
v 0.084517 1.328835 0.444901
v 0.081374 1.315522 0.444901
v 0.071019 1.314228 0.444901
v 0.062144 1.314968 0.444901
v 0.062144 1.322179 0.444901
v 0.068431 1.321994 0.444901
v 0.072684 1.325877 0.444901
v 0.074533 1.341594 0.444901
v -0.005724 1.297179 0.449340
v -0.042158 1.293590 0.449340
v -0.077192 1.282963 0.449340
v -0.109480 1.265705 0.449340
v -0.137780 1.242479 0.449340
v -0.161005 1.214179 0.449340
v -0.178263 1.181892 0.449340
v -0.188891 1.146858 0.449340
v -0.192479 1.110424 0.449340
v -0.188891 1.073990 0.449340
v -0.178263 1.038956 0.449340
v -0.161005 1.006669 0.449340
v -0.137780 0.978368 0.449340
v -0.109480 0.955143 0.449340
v -0.077192 0.937885 0.449340
v -0.042158 0.927258 0.449340
v -0.005724 0.923669 0.449340
v 0.030710 0.927258 0.449340
v 0.065744 0.937885 0.449340
v 0.098031 0.955143 0.449340
v 0.126331 0.978368 0.449340
v 0.149557 1.006668 0.449340
v 0.166815 1.038956 0.449340
v 0.177442 1.073990 0.449340
v 0.181030 1.110424 0.449340
v 0.177442 1.146858 0.449340
v 0.166815 1.181892 0.449340
v 0.149557 1.214179 0.449340
v 0.126331 1.242479 0.449340
v 0.098031 1.265705 0.449340
v 0.065744 1.282963 0.449340
v 0.030710 1.293590 0.449340
v -0.118706 1.034675 0.449340
v -0.030367 0.954617 0.449340
v 0.012699 0.956273 0.449340
v 0.144656 1.163320 0.449340
v 0.143552 1.180435 0.449340
v 0.096070 1.180987 0.449340
v -0.012147 1.018663 0.449340
v -0.053556 1.050686 0.449340
v -0.065703 1.060625 0.449340
v -0.121467 1.060072 0.449340
v -0.377974 1.374024 0.446352
v -0.377207 1.327246 0.446352
v -0.363404 1.326480 0.446352
v -0.365705 1.348718 0.446352
v -0.341933 1.347568 0.446352
v -0.340783 1.359837 0.446352
v -0.362254 1.357153 0.446352
v -0.361871 1.372490 0.446352
v -0.335415 1.379008 0.446352
v -0.340016 1.390894 0.446352
v -0.376824 1.381309 0.446352
v -0.310531 1.379808 0.446352
v -0.320461 1.361754 0.446352
v -0.337332 1.325713 0.446352
v -0.323912 1.326096 0.446352
v -0.317394 1.339899 0.446352
v -0.303974 1.339899 0.446352
v -0.295923 1.324946 0.446352
v -0.281736 1.325713 0.446352
v -0.314710 1.349868 0.446352
v -0.310493 1.364822 0.446352
v -0.303974 1.351018 0.446352
v -0.272365 1.326771 0.446352
v -0.263393 1.327784 0.446352
v -0.270617 1.375174 0.446352
v -0.272151 1.362904 0.446352
v -0.260265 1.361754 0.446352
v -0.252596 1.357537 0.446352
v -0.251063 1.346801 0.446352
v -0.259881 1.342200 0.446352
v -0.269467 1.337982 0.446352
v -0.272918 1.331464 0.446352
v -0.258731 1.333765 0.446352
v -0.243394 1.340283 0.446352
v -0.239177 1.351785 0.446352
v -0.242627 1.365972 0.446352
v -0.251830 1.372490 0.446352
v -0.271384 1.318428 0.446352
v -0.258731 1.313827 0.446352
v -0.240327 1.313827 0.446352
v -0.241477 1.321879 0.446352
v -0.252596 1.321495 0.446352
v -0.227665 1.331817 0.446352
v -0.215629 1.333176 0.446352
v -0.195521 1.335446 0.446352
v -0.185427 1.336586 0.446352
v -0.226140 1.367889 0.446352
v -0.214638 1.342967 0.446352
v -0.205819 1.341816 0.446352
v -0.190099 1.345267 0.446352
v -0.202368 1.351018 0.446352
v -0.212721 1.352169 0.446352
v -0.213104 1.370573 0.446352
v -0.228441 1.313443 0.446352
v -0.217705 1.312677 0.446352
v -0.194317 1.324563 0.446352
v -0.194700 1.311526 0.446352
v -0.184731 1.310376 0.446352
v -0.183580 1.326863 0.446352
v -0.173198 1.337966 0.446352
v -0.162701 1.339152 0.446352
v -0.170928 1.365205 0.446352
v -0.162876 1.364055 0.446352
v -0.175529 1.309993 0.446352
v -0.162493 1.309609 0.446352
v -0.172078 1.370573 0.446352
v -0.161343 1.368656 0.446352
v -0.162493 1.378625 0.446352
v -0.170545 1.377858 0.446352
v -0.373757 1.304241 0.446352
v -0.375674 1.249029 0.446352
v -0.358037 1.249029 0.446352
v -0.361104 1.304241 0.446352
v -0.371456 1.308842 0.446352
v -0.362638 1.309993 0.446352
v -0.362638 1.319195 0.446352
v -0.371456 1.316894 0.446352
v -0.343222 1.252032 0.446352
v -0.330671 1.254577 0.446352
v -0.308312 1.259109 0.446352
v -0.296138 1.261577 0.446352
v -0.343467 1.245195 0.446352
v -0.330814 1.245578 0.446352
v -0.309342 1.244428 0.446352
v -0.296690 1.243661 0.446352
v -0.341933 1.288138 0.446352
v -0.330430 1.269734 0.446352
v -0.323145 1.277785 0.446352
v -0.311259 1.275102 0.446352
v -0.307809 1.266283 0.446352
v -0.295923 1.268583 0.446352
v -0.299373 1.280086 0.446352
v -0.310109 1.286604 0.446352
v -0.322379 1.288521 0.446352
v -0.328513 1.282386 0.446352
v -0.328130 1.288138 0.446352
v -0.281420 1.264561 0.446352
v -0.268797 1.267120 0.446352
v -0.254718 1.269974 0.446352
v -0.283270 1.241744 0.446352
v -0.272151 1.241361 0.446352
v -0.250296 1.241744 0.446352
v -0.234192 1.240594 0.446352
v -0.278669 1.298490 0.446352
v -0.234959 1.297723 0.446352
v -0.249529 1.299640 0.446352
v -0.266016 1.276252 0.446352
v -0.267166 1.298873 0.446352
v -0.355321 1.249580 0.446352
v -0.347089 1.251248 0.446352
v -0.350278 1.245469 0.446352
v -0.351609 1.253679 0.446352
v -0.294140 1.241697 0.446352
v -0.290146 1.247244 0.446352
v -0.286596 1.241475 0.446352
v -0.292143 1.237481 0.446352
v -0.230237 1.239922 0.446352
v -0.225356 1.243916 0.446352
v -0.221584 1.237925 0.446352
v -0.228018 1.234153 0.446352
v -0.141605 1.365068 0.446352
v -0.108021 1.367103 0.446352
v -0.111462 1.344387 0.446352
v -0.104525 1.345170 0.446352
v -0.124204 1.370749 0.446352
v -0.141074 1.370436 0.446352
v -0.142480 1.356221 0.446352
v -0.132795 1.363251 0.446352
v -0.120611 1.362938 0.446352
v -0.110614 1.356378 0.446352
v -0.109989 1.346537 0.446352
v -0.101710 1.355909 0.446352
v -0.115769 1.338101 0.446352
v -0.127328 1.335446 0.446352
v -0.137794 1.332009 0.446352
v -0.141543 1.324355 0.446352
v -0.135138 1.314514 0.446352
v -0.126235 1.311390 0.446352
v -0.115300 1.312327 0.446352
v -0.107802 1.316076 0.446352
v -0.107958 1.322480 0.446352
v -0.117956 1.319356 0.446352
v -0.130608 1.318263 0.446352
v -0.132327 1.327635 0.446352
v -0.116550 1.329978 0.446352
v -0.105928 1.339820 0.446352
v -0.082383 1.373440 0.446352
v -0.074415 1.373922 0.446352
v -0.083595 1.348083 0.446352
v -0.074246 1.349138 0.446352
v -0.082483 1.376911 0.446352
v -0.074533 1.378575 0.446352
v -0.082114 1.364152 0.446352
v -0.095242 1.361933 0.446352
v -0.096351 1.353798 0.446352
v -0.083223 1.355832 0.446352
v -0.073978 1.356201 0.446352
v -0.060850 1.357126 0.446352
v -0.061589 1.366001 0.446352
v -0.071389 1.364892 0.446352
v -0.074163 1.363967 0.446352
v -0.084517 1.328835 0.446352
v -0.081374 1.315522 0.446352
v -0.071019 1.314228 0.446352
v -0.062144 1.314968 0.446352
v -0.062144 1.322179 0.446352
v -0.068431 1.321994 0.446352
v -0.072684 1.325877 0.446352
v -0.074533 1.341594 0.446352
v -0.537267 0.897100 0.241079
v -0.476745 0.944975 0.241079
v -0.450549 0.945879 0.241079
v -0.457775 0.782378 0.241079
v -0.410803 0.779668 0.241079
v -0.419836 0.760699 0.241079
v -0.517394 0.764312 0.241079
v -0.513781 0.787798 0.241079
v -0.478552 0.785992 0.241079
v -0.469518 0.923296 0.241079
v -0.535461 0.870000 0.241079
v -0.385615 0.791997 0.241079
v -0.290296 0.838653 0.241079
v -0.387317 0.759658 0.241079
v -0.309531 0.757148 0.241079
v -0.276911 0.784122 0.241079
v -0.275657 0.823015 0.241079
v -0.380416 0.890764 0.241079
v -0.303258 0.852498 0.241079
v -0.345287 0.846853 0.241079
v -0.344660 0.873827 0.241079
v -0.270638 0.881982 0.241079
v -0.273775 0.907074 0.241079
v -0.350695 0.809089 0.241079
v -0.309295 0.829353 0.241079
v -0.352188 0.780358 0.241079
v -0.320195 0.781613 0.241079
v -0.301376 0.794159 0.241079
v -0.301376 0.816115 0.241079
v -0.349678 0.828661 0.241079
v -0.237601 0.836031 0.241079
v -0.240737 0.757096 0.241079
v -0.217213 0.754482 0.241079
v -0.168597 0.818258 0.241079
v -0.169120 0.746118 0.241079
v -0.148209 0.746118 0.241079
v -0.149778 0.846487 0.241079
v -0.173824 0.846487 0.241079
v -0.215645 0.794734 0.241079
v -0.215645 0.852760 0.241079
v -0.239692 0.856941 0.241079
v -0.111752 0.819812 0.241079
v -0.076183 0.847986 0.241079
v -0.065144 0.856730 0.241079
v -0.072782 0.838707 0.241079
v -0.080240 0.826387 0.241079
v -0.096451 0.821848 0.241079
v -0.113311 0.810500 0.241079
v -0.102611 0.809203 0.241079
v -0.087697 0.807582 0.241079
v -0.077970 0.796883 0.241079
v -0.078943 0.781644 0.241079
v -0.088345 0.771593 0.241079
v -0.107150 0.766405 0.241079
v -0.117526 0.767054 0.241079
v -0.117526 0.752139 0.241079
v -0.095478 0.755706 0.241079
v -0.076025 0.765108 0.241079
v -0.062407 0.782617 0.241079
v -0.065325 0.801097 0.241079
v -0.071810 0.811797 0.241079
v -0.082185 0.816660 0.241079
v -0.069864 0.822172 0.241079
v -0.065325 0.828981 0.241079
v -0.061759 0.844543 0.241079
v -0.119471 0.858809 0.241079
v -0.097748 0.859782 0.241079
v -0.083158 0.854270 0.241079
v -0.066622 0.862052 0.241079
v -0.080564 0.867564 0.241079
v -0.100990 0.874372 0.241079
v -0.122065 0.873075 0.241079
v -0.040154 0.836257 0.241079
v -0.041969 0.756029 0.241079
v -0.027085 0.756391 0.241079
v -0.026359 0.791605 0.241079
v 0.001594 0.792331 0.241079
v 0.000142 0.756392 0.241079
v 0.015389 0.755666 0.241079
v 0.016115 0.839887 0.241079
v 0.003049 0.838800 0.241079
v 0.001957 0.805763 0.241079
v -0.024181 0.806126 0.241079
v -0.025996 0.836620 0.241079
v 0.086178 0.772728 0.241079
v 0.074199 0.761111 0.241079
v 0.052054 0.755303 0.241079
v 0.038985 0.762926 0.241079
v 0.030999 0.778899 0.241079
v 0.029547 0.805400 0.241079
v 0.041890 0.826455 0.241079
v 0.061130 0.832627 0.241079
v 0.081822 0.825003 0.241079
v 0.086904 0.805763 0.241079
v 0.086904 0.790879 0.241079
v 0.045883 0.790516 0.241079
v 0.046246 0.780351 0.241079
v 0.052417 0.770187 0.241079
v 0.067301 0.771276 0.241079
v 0.077466 0.782529 0.241079
v 0.044068 0.800681 0.241079
v 0.077103 0.801044 0.241079
v 0.074925 0.813023 0.241079
v 0.063308 0.821010 0.241079
v 0.048061 0.817380 0.241079
v 0.111320 0.835389 0.241079
v 0.171402 0.821395 0.241079
v 0.149446 0.830281 0.241079
v 0.116513 0.819826 0.241079
v 0.113376 0.787938 0.241079
v 0.124354 0.762323 0.241079
v 0.153105 0.757096 0.241079
v 0.175584 0.770688 0.241079
v 0.173493 0.750823 0.241079
v 0.145787 0.737231 0.241079
v 0.117558 0.748209 0.241079
v 0.102397 0.772781 0.241079
v 0.101353 0.808326 0.241079
v 0.149446 0.845441 0.241079
v 0.171402 0.833941 0.241079
v 0.193341 0.804198 0.241079
v 0.211201 0.837902 0.241079
v 0.194403 0.834986 0.241079
v 0.191266 0.744027 0.241079
v 0.241450 0.776961 0.241079
v 0.267065 0.833418 0.241079
v 0.285885 0.832372 0.241079
v 0.291635 0.732004 0.241079
v 0.270202 0.730958 0.241079
v 0.271770 0.794734 0.241079
v 0.252428 0.756573 0.241079
v 0.235700 0.753437 0.241079
v 0.209563 0.810417 0.241079
v 0.210085 0.731481 0.241079
v 0.191266 0.729390 0.241079
v 0.300522 0.772779 0.241079
v 0.304704 0.754482 0.241079
v 0.321432 0.735140 0.241079
v 0.354365 0.738800 0.241079
v 0.363252 0.763369 0.241079
v 0.347047 0.770165 0.241079
v 0.342865 0.753437 0.241079
v 0.322477 0.751868 0.241079
v 0.318295 0.776961 0.241079
v 0.362729 0.788461 0.241079
v 0.358024 0.805712 0.241079
v 0.348615 0.822963 0.241079
v 0.323523 0.823486 0.241079
v 0.307317 0.811462 0.241079
v 0.299476 0.791598 0.241079
v 0.374541 0.785700 0.241079
v 0.394027 0.824249 0.241079
v 0.372378 0.730319 0.241079
v 0.392718 0.732355 0.241079
v 0.390684 0.771681 0.241079
v 0.429332 0.772359 0.241079
v 0.425264 0.733711 0.241079
v 0.446283 0.733033 0.241079
v 0.444249 0.826602 0.241079
v 0.427976 0.824567 0.241079
v 0.431367 0.789988 0.241079
v 0.390684 0.785920 0.241079
v 0.375767 0.817109 0.241079
v 0.315761 0.786080 0.241079
v 0.349663 0.794555 0.241079
v 0.343071 0.808681 0.241079
v 0.330829 0.814331 0.241079
v 0.316703 0.806797 0.241079
v 0.312465 0.795026 0.241079
v -0.518812 0.700568 0.241079
v -0.522717 0.583403 0.241079
v -0.493426 0.582427 0.241079
v -0.443631 0.664442 0.241079
v -0.437773 0.575592 0.241079
v -0.410434 0.573639 0.241079
v -0.414340 0.712284 0.241079
v -0.452418 0.706426 0.241079
v -0.497331 0.622458 0.241079
v -0.494402 0.700568 0.241079
v -0.330815 0.643860 0.241079
v -0.333678 0.564421 0.241079
v -0.312208 0.565137 0.241079
v -0.312208 0.608792 0.241079
v -0.277141 0.608077 0.241079
v -0.272131 0.564421 0.241079
v -0.249230 0.564422 0.241079
v -0.262112 0.677496 0.241079
v -0.280003 0.677496 0.241079
v -0.276425 0.635272 0.241079
v -0.306483 0.631693 0.241079
v -0.312208 0.685368 0.241079
v -0.338687 0.681074 0.241079
v -0.234973 0.555476 0.241079
v -0.202712 0.630262 0.241079
v -0.214878 0.555118 0.241079
v -0.201997 0.580166 0.241079
v -0.172655 0.581597 0.241079
v -0.151185 0.546530 0.241079
v -0.129715 0.546530 0.241079
v -0.186968 0.676780 0.241079
v -0.197703 0.600204 0.241079
v -0.172655 0.598773 0.241079
v -0.184105 0.633125 0.241079
v -0.120478 0.655649 0.241079
v -0.119317 0.632424 0.241079
v -0.101318 0.617909 0.241079
v -0.076933 0.616748 0.241079
v -0.074030 0.661455 0.241079
v -0.058353 0.656810 0.241079
v -0.062418 0.555785 0.241079
v -0.081577 0.557527 0.241079
v -0.079255 0.599911 0.241079
v -0.104221 0.598750 0.241079
v -0.120478 0.606878 0.241079
v -0.134993 0.620812 0.241079
v -0.140799 0.648101 0.241079
v -0.010163 0.649262 0.241079
v -0.046741 0.553462 0.241079
v -0.022936 0.555785 0.241079
v -0.007260 0.591782 0.241079
v 0.025254 0.591782 0.241079
v 0.045575 0.549979 0.241079
v 0.064735 0.551140 0.241079
v 0.005513 0.670744 0.241079
v -0.007506 0.604688 0.241079
v 0.002761 0.644355 0.241079
v 0.021194 0.604922 0.241079
v 0.073772 0.548168 0.241079
v 0.102655 0.669970 0.241079
v 0.119005 0.668880 0.241079
v 0.160150 0.544080 0.241079
v 0.139714 0.543808 0.241079
v 0.112737 0.641358 0.241079
v 0.090394 0.549258 0.241079
v 0.178407 0.666700 0.241079
v 0.177045 0.545988 0.241079
v 0.192576 0.544080 0.241079
v 0.193666 0.607570 0.241079
v 0.228000 0.605118 0.241079
v 0.231542 0.540266 0.241079
v 0.246256 0.539721 0.241079
v 0.237537 0.666155 0.241079
v 0.225275 0.665337 0.241079
v 0.227455 0.620922 0.241079
v 0.197209 0.622012 0.241079
v 0.192576 0.669697 0.241079
v 0.254704 0.657980 0.241079
v 0.261516 0.539448 0.241079
v 0.273233 0.541356 0.241079
v 0.308656 0.646808 0.241079
v 0.311926 0.543808 0.241079
v 0.322825 0.542990 0.241079
v 0.319283 0.667245 0.241079
v 0.305386 0.666700 0.241079
v 0.271870 0.570239 0.241079
v 0.265330 0.663975 0.241079
v 0.337714 0.663254 0.241079
v 0.338106 0.544363 0.241079
v 0.353017 0.545147 0.241079
v 0.352625 0.600081 0.241079
v 0.396179 0.540831 0.241079
v 0.414621 0.541224 0.241079
v 0.355764 0.615776 0.241079
v 0.419722 0.660900 0.241079
v 0.397749 0.661685 0.241079
v 0.354587 0.629902 0.241079
v 0.353017 0.665609 0.241079
v -0.528703 0.524072 0.241079
v -0.527291 0.432254 0.241079
v -0.505276 0.434209 0.241079
v -0.510998 0.474809 0.241079
v -0.485112 0.474264 0.241079
v -0.486474 0.431211 0.241079
v -0.467945 0.430939 0.241079
v -0.468490 0.524947 0.241079
v -0.484839 0.521405 0.241079
v -0.483749 0.483529 0.241079
v -0.511271 0.485709 0.241079
v -0.514268 0.522494 0.241079
v -0.420260 0.517862 0.241079
v -0.452141 0.433391 0.241079
v -0.430614 0.434481 0.241079
v -0.419170 0.467997 0.241079
v -0.394100 0.467724 0.241079
v -0.376116 0.434208 0.241079
v -0.355680 0.433663 0.241079
v -0.410178 0.541569 0.241079
v -0.416717 0.481076 0.241079
v -0.396008 0.480804 0.241079
v -0.407998 0.507235 0.241079
v -0.313372 0.522741 0.241079
v -0.274265 0.502233 0.241079
v -0.327320 0.516483 0.241079
v -0.324573 0.428197 0.241079
v -0.289259 0.428982 0.241079
v -0.271994 0.442323 0.241079
v -0.266501 0.465081 0.241079
v -0.286120 0.478422 0.241079
v -0.271601 0.485878 0.241079
v -0.287297 0.517660 0.241079
v -0.313308 0.484278 0.241079
v -0.316033 0.508802 0.241079
v -0.301501 0.513116 0.241079
v -0.289693 0.504715 0.241079
v -0.285151 0.492680 0.241079
v -0.294916 0.484505 0.241079
v -0.310584 0.469291 0.241079
v -0.312627 0.437728 0.241079
v -0.296732 0.438409 0.241079
v -0.282881 0.444994 0.241079
v -0.280610 0.459073 0.241079
v -0.289920 0.468383 0.241079
v -0.301728 0.470200 0.241079
v -0.252009 0.490562 0.241079
v -0.240356 0.484451 0.241079
v -0.251469 0.458600 0.241079
v -0.246564 0.437345 0.241079
v -0.231522 0.432114 0.241079
v -0.212558 0.432114 0.241079
v -0.198169 0.440615 0.241079
v -0.191630 0.454675 0.241079
v -0.204706 0.455982 0.241079
v -0.217463 0.445193 0.241079
v -0.233156 0.447154 0.241079
v -0.239370 0.463177 0.241079
v -0.193591 0.491297 0.241079
v -0.200131 0.506666 0.241079
v -0.223347 0.516148 0.241079
v -0.243947 0.508628 0.241079
v -0.232175 0.498491 0.241079
v -0.213537 0.494894 0.241079
v -0.210921 0.484431 0.241079
v -0.195226 0.481488 0.241079
v -0.178722 0.452131 0.241079
v -0.165279 0.445081 0.241079
v -0.144111 0.500017 0.241079
v -0.092232 0.468351 0.241079
v -0.178550 0.433421 0.241079
v -0.164817 0.433748 0.241079
v -0.091571 0.487046 0.241079
v -0.094844 0.509937 0.241079
v -0.105305 0.518437 0.241079
v -0.126559 0.519418 0.241079
v -0.140293 0.513860 0.241079
v -0.179204 0.504377 0.241079
v -0.166125 0.465793 0.241079
v -0.142909 0.463831 0.241079
v -0.140620 0.449770 0.241079
v -0.133426 0.436691 0.241079
v -0.119693 0.433094 0.241079
v -0.106613 0.439307 0.241079
v -0.092551 0.459252 0.241079
v -0.145518 0.494890 0.241079
v -0.145524 0.478218 0.241079
v -0.169721 0.479199 0.241079
v -0.168087 0.507647 0.241079
v -0.135168 0.494558 0.241079
v -0.101222 0.473839 0.241079
v -0.134080 0.498818 0.241079
v -0.126232 0.508301 0.241079
v -0.107921 0.505031 0.241079
v -0.101709 0.490316 0.241079
v -0.135715 0.467427 0.241079
v -0.138004 0.483450 0.241079
v -0.102362 0.461215 0.241079
v -0.110210 0.446827 0.241079
v -0.124270 0.441923 0.241079
v -0.131464 0.450751 0.241079
v -0.033224 0.505335 0.241079
v -0.019986 0.496284 0.241079
v -0.038139 0.457455 0.241079
v -0.024510 0.449136 0.241079
v -0.012633 0.441887 0.241079
v -0.000277 0.434345 0.241079
v -0.033749 0.437808 0.241079
v -0.014675 0.429361 0.241079
v -0.020397 0.441077 0.241079
v -0.038655 0.490671 0.241079
v -0.039472 0.463422 0.241079
v 0.006578 0.436718 0.241079
v 0.014208 0.452795 0.241079
v 0.000583 0.453612 0.241079
v -0.007319 0.442440 0.241079
v -0.027210 0.454430 0.241079
v -0.026393 0.472686 0.241079
v 0.009030 0.499390 0.241079
v 0.000856 0.508927 0.241079
v -0.017673 0.517102 0.241079
v -0.030480 0.512742 0.241079
v -0.004866 0.497755 0.241079
v 0.005761 0.487128 0.241079
v 0.044847 0.449461 0.241079
v 0.062261 0.436884 0.241079
v 0.062438 0.424729 0.241079
v 0.044454 0.422549 0.241079
v 0.022655 0.511107 0.241079
v 0.083965 0.511379 0.241079
v 0.083147 0.498845 0.241079
v 0.061348 0.499662 0.241079
v 0.045544 0.497210 0.241079
v 0.021020 0.496393 0.241079
v 0.108871 0.510107 0.241079
v 0.136225 0.484676 0.241079
v 0.095954 0.511652 0.241079
v 0.092139 0.425274 0.241079
v 0.106036 0.425819 0.241079
v 0.106853 0.468599 0.241079
v 0.127017 0.468872 0.241079
v 0.136009 0.479227 0.241079
v 0.136827 0.499935 0.241079
v 0.127835 0.507837 0.241079
v 0.179951 0.522187 0.241079
v 0.153855 0.468285 0.241079
v 0.164793 0.458116 0.241079
v 0.137372 0.426636 0.241079
v 0.150179 0.425546 0.241079
v 0.167891 0.503750 0.241079
v 0.193777 0.457700 0.241079
v 0.215576 0.423094 0.241079
v 0.228928 0.423911 0.241079
v 0.168708 0.466964 0.241079
v 0.190234 0.467782 0.241079
v 0.179063 0.500753 0.241079
v 0.121579 0.498292 0.241079
v 0.106581 0.481679 0.241079
v 0.106853 0.499935 0.241079
v 0.125110 0.482768 0.241079
v 0.276158 0.499467 0.241079
v 0.292937 0.476878 0.241079
v 0.239634 0.456194 0.241079
v 0.255932 0.438174 0.241079
v 0.284788 0.518737 0.241079
v 0.274706 0.517374 0.241079
v 0.235195 0.512197 0.241079
v 0.252907 0.462877 0.241079
v 0.282608 0.464512 0.241079
v 0.286695 0.426091 0.241079
v 0.302772 0.426364 0.241079
v 0.277976 0.477046 0.241079
v 0.255359 0.472686 0.241079
v 0.248547 0.514105 0.241079
v 0.242280 0.422821 0.241079
v 0.257812 0.422821 0.241079
v 0.312000 0.451216 0.241079
v 0.330324 0.426548 0.241079
v 0.369558 0.463577 0.241079
v 0.308004 0.515385 0.241079
v 0.351820 0.427099 0.241079
v 0.369150 0.441487 0.241079
v 0.355089 0.479090 0.241079
v 0.327623 0.478436 0.241079
v 0.322718 0.519963 0.241079
v 0.313563 0.426118 0.241079
v 0.384487 0.438208 0.241079
v 0.392841 0.424013 0.241079
v 0.383864 0.423829 0.241079
v 0.387788 0.514404 0.241079
v 0.399886 0.424156 0.241079
v 0.400213 0.514731 0.241079
v 0.327296 0.465357 0.241079
v 0.329585 0.439525 0.241079
v 0.345934 0.442468 0.241079
v 0.354763 0.451950 0.241079
v 0.349858 0.463395 0.241079
vt 0.000000 0.000000
vt 0.000000 0.000000
vt 0.000000 0.000000
vt 0.000000 0.000000
vt 0.000000 0.000000
vt 0.000000 0.000000
vt 0.000000 0.000000
vt 0.047371 0.939967
vt 0.027229 0.943020
vt 0.046892 0.909441
vt 0.119788 0.897230
vt 0.147604 0.846861
vt 0.111588 0.954534
vt 0.119788 0.875098
vt 0.106360 0.894940
vt 0.200837 0.898756
vt 0.184052 0.910204
vt 0.185970 0.888835
vt 0.184052 0.838466
vt 0.170548 0.850983
vt 0.176379 0.823202
vt 0.233928 0.899519
vt 0.231530 0.881204
vt 0.242561 0.878914
vt 0.215237 0.859011
vt 0.227694 0.820913
vt 0.230290 0.861716
vt 0.268938 0.816334
vt 0.270377 0.849151
vt 0.256948 0.844571
vt 0.296493 0.873610
vt 0.286203 0.925467
vt 0.283364 0.871251
vt 0.296753 0.814808
vt 0.296753 0.952178
vt 0.284764 0.936152
vt 0.298192 0.932336
vt 0.048330 0.804123
vt 0.030106 0.694227
vt 0.052167 0.694227
vt 0.046412 0.815571
vt 0.035382 0.829308
vt 0.035382 0.813281
vt 0.070697 0.700204
vt 0.086217 0.687358
vt 0.086396 0.705269
vt 0.114363 0.714291
vt 0.128900 0.683542
vt 0.129590 0.719203
vt 0.110676 0.746122
vt 0.114992 0.728570
vt 0.125543 0.756044
vt 0.148000 0.725142
vt 0.159593 0.678963
vt 0.163788 0.730236
vt 0.186929 0.679726
vt 0.181399 0.735917
vt 0.167267 0.748412
vt 0.055564 0.695323
vt 0.061872 0.687141
vt 0.065860 0.698644
vt 0.060207 0.703482
vt 0.132088 0.679633
vt 0.141525 0.679191
vt 0.137084 0.690674
vt 0.212019 0.676100
vt 0.222842 0.672125
vt 0.218125 0.684049
vt 0.344098 0.947662
vt 0.318333 0.934278
vt 0.368057 0.939072
vt 0.364219 0.913803
vt 0.377402 0.912699
vt 0.355430 0.851604
vt 0.371158 0.874790
vt 0.356587 0.870742
vt 0.406922 0.942819
vt 0.396829 0.948767
vt 0.396955 0.941858
vt 0.407468 0.907546
vt 0.397292 0.923372
vt 0.395904 0.906810
vt 0.409087 0.847187
vt 0.406774 0.878471
vt 0.394286 0.853076
vt 0.000000 0.000000
vt 0.000000 0.000000
vt 0.000000 0.000000
vt 0.000000 0.000000
vt 0.000000 0.000000
vt 0.000000 0.000000
vt 0.000000 0.000000
vt 0.000000 0.000000
vt 0.000000 0.000000
vt 0.000000 0.000000
vt 0.000000 0.000000
vt 0.000000 0.000000
vt 0.000000 0.000000
vt 0.000000 0.000000
vt 0.000000 0.000000
vt 0.000000 0.000000
vt 0.000000 0.000000
vt 0.000000 0.000000
vt 0.000000 0.000000
vt 0.000000 0.000000
vt 0.000000 0.000000
vt 0.000000 0.000000
vt 0.000000 0.000000
vt 0.000000 0.000000
vt 0.000000 0.000000
vt 0.000000 0.000000
vt 0.000000 0.000000
vt 0.000000 0.000000
vt 0.000000 0.000000
vt 0.000000 0.000000
vt 0.000000 0.000000
vt 0.000000 0.000000
vt 0.000000 0.000000
vt 0.000000 0.000000
vt 0.000000 0.000000
vt 0.080462 0.952941
vt 0.074708 0.976600
vt 0.028668 0.957520
vt 0.028188 0.849913
vt 0.042576 0.892651
vt 0.045453 0.848387
vt 0.072310 0.890361
vt 0.073748 0.914783
vt 0.099166 0.918599
vt 0.111635 0.924704
vt 0.129859 0.845335
vt 0.103003 0.875098
vt 0.078065 0.846861
vt 0.094850 0.847624
vt 0.159325 0.848966
vt 0.158634 0.858308
vt 0.176379 0.862887
vt 0.162950 0.871282
vt 0.195562 0.875861
vt 0.174940 0.879677
vt 0.196521 0.926994
vt 0.185011 0.939967
vt 0.161512 0.945310
vt 0.174460 0.918599
vt 0.159593 0.920888
vt 0.160552 0.832360
vt 0.199399 0.823203
vt 0.197960 0.839229
vt 0.255442 0.866235
vt 0.268068 0.868503
vt 0.262224 0.885782
vt 0.246877 0.897230
vt 0.233449 0.936152
vt 0.217143 0.930809
vt 0.214265 0.822439
vt 0.256469 0.818623
vt 0.296274 0.923178
vt 0.280448 0.815571
vt 0.286682 0.950652
vt 0.032504 0.804123
vt 0.046412 0.833887
vt 0.070391 0.686595
vt 0.113074 0.685069
vt 0.129859 0.733148
vt 0.112115 0.769018
vt 0.096768 0.772833
vt 0.095809 0.751464
vt 0.089095 0.760623
vt 0.089575 0.772070
vt 0.072310 0.772070
vt 0.086697 0.735438
vt 0.145685 0.679726
vt 0.207072 0.677437
vt 0.206113 0.791149
vt 0.187889 0.794965
vt 0.165828 0.793439
vt 0.151440 0.792676
vt 0.134586 0.671242
vt 0.214794 0.664617
vt 0.319120 0.946926
vt 0.362963 0.885552
vt 0.373234 0.887397
vt 0.365144 0.890616
vt 0.317038 0.913435
vt 0.331377 0.929996
vt 0.349417 0.929261
vt 0.339472 0.864485
vt 0.323976 0.856388
vt 0.332071 0.846083
vt 0.318426 0.838354
vt 0.327908 0.815167
vt 0.334615 0.824001
vt 0.341091 0.807807
vt 0.357281 0.810015
vt 0.353349 0.826577
vt 0.368382 0.818848
vt 0.368151 0.833938
vt 0.406774 0.952079
vt 0.395440 0.891386
vt 0.407133 0.893487
vt 0.423889 0.909386
vt 0.410706 0.924844
vt 0.422964 0.927052
vt 0.407237 0.923004
vt 0.380871 0.918955
vt 0.379484 0.902761
vt 0.398217 0.826577
vt 0.411169 0.824001
vt 0.422270 0.825473
vt 0.414407 0.839458
vt 0.422270 0.839826
vt 0.000000 0.000000
vt 0.000000 0.000000
vt 0.000000 0.000000
vt 0.000000 0.000000
vt 0.000000 0.000000
vt 0.000000 0.000000
vt 0.000000 0.000000
vt 0.047371 0.939967
vt 0.027229 0.943020
vt 0.046892 0.909441
vt 0.119788 0.897230
vt 0.147604 0.846861
vt 0.111588 0.954534
vt 0.119788 0.875098
vt 0.106360 0.894940
vt 0.200837 0.898756
vt 0.184052 0.910204
vt 0.185970 0.888835
vt 0.184052 0.838466
vt 0.170548 0.850983
vt 0.176379 0.823202
vt 0.233928 0.899519
vt 0.231530 0.881204
vt 0.242561 0.878914
vt 0.215237 0.859011
vt 0.227694 0.820913
vt 0.230290 0.861716
vt 0.268938 0.816334
vt 0.270377 0.849151
vt 0.256948 0.844571
vt 0.296493 0.873610
vt 0.286203 0.925467
vt 0.283364 0.871251
vt 0.296753 0.814808
vt 0.296753 0.952178
vt 0.284764 0.936152
vt 0.298192 0.932336
vt 0.048330 0.804123
vt 0.030106 0.694227
vt 0.052167 0.694227
vt 0.046412 0.815571
vt 0.035382 0.829308
vt 0.035382 0.813281
vt 0.070697 0.700204
vt 0.086217 0.687358
vt 0.086396 0.705269
vt 0.114363 0.714291
vt 0.128900 0.683542
vt 0.129590 0.719203
vt 0.110676 0.746122
vt 0.114992 0.728570
vt 0.125543 0.756044
vt 0.148000 0.725142
vt 0.159593 0.678963
vt 0.163788 0.730236
vt 0.186929 0.679726
vt 0.181399 0.735917
vt 0.167267 0.748412
vt 0.055564 0.695323
vt 0.061872 0.687141
vt 0.065860 0.698644
vt 0.060207 0.703482
vt 0.132088 0.679633
vt 0.141525 0.679191
vt 0.137084 0.690674
vt 0.212019 0.676100
vt 0.222842 0.672125
vt 0.218125 0.684049
vt 0.344098 0.947662
vt 0.318333 0.934278
vt 0.368057 0.939072
vt 0.364219 0.913803
vt 0.377402 0.912699
vt 0.355430 0.851604
vt 0.371158 0.874790
vt 0.356587 0.870742
vt 0.406922 0.942819
vt 0.396829 0.948767
vt 0.396955 0.941858
vt 0.407468 0.907546
vt 0.397292 0.923372
vt 0.395904 0.906810
vt 0.409087 0.847187
vt 0.406774 0.878471
vt 0.394286 0.853076
vt 0.000000 0.000000
vt 0.000000 0.000000
vt 0.000000 0.000000
vt 0.000000 0.000000
vt 0.000000 0.000000
vt 0.000000 0.000000
vt 0.000000 0.000000
vt 0.000000 0.000000
vt 0.000000 0.000000
vt 0.000000 0.000000
vt 0.000000 0.000000
vt 0.000000 0.000000
vt 0.000000 0.000000
vt 0.000000 0.000000
vt 0.000000 0.000000
vt 0.000000 0.000000
vt 0.000000 0.000000
vt 0.000000 0.000000
vt 0.000000 0.000000
vt 0.000000 0.000000
vt 0.000000 0.000000
vt 0.000000 0.000000
vt 0.000000 0.000000
vt 0.000000 0.000000
vt 0.000000 0.000000
vt 0.000000 0.000000
vt 0.000000 0.000000
vt 0.000000 0.000000
vt 0.000000 0.000000
vt 0.000000 0.000000
vt 0.000000 0.000000
vt 0.000000 0.000000
vt 0.000000 0.000000
vt 0.000000 0.000000
vt 0.000000 0.000000
vt 0.080462 0.952941
vt 0.074708 0.976600
vt 0.028668 0.957520
vt 0.028188 0.849913
vt 0.042576 0.892651
vt 0.045453 0.848387
vt 0.072310 0.890361
vt 0.073748 0.914783
vt 0.099166 0.918599
vt 0.111635 0.924704
vt 0.129859 0.845335
vt 0.103003 0.875098
vt 0.078065 0.846861
vt 0.094850 0.847624
vt 0.159325 0.848966
vt 0.158634 0.858308
vt 0.176379 0.862887
vt 0.162950 0.871282
vt 0.195562 0.875861
vt 0.174940 0.879677
vt 0.196521 0.926994
vt 0.185011 0.939967
vt 0.161512 0.945310
vt 0.174460 0.918599
vt 0.159593 0.920888
vt 0.160552 0.832360
vt 0.199399 0.823203
vt 0.197960 0.839229
vt 0.255442 0.866235
vt 0.268068 0.868503
vt 0.262224 0.885782
vt 0.246877 0.897230
vt 0.233449 0.936152
vt 0.217143 0.930809
vt 0.214265 0.822439
vt 0.256469 0.818623
vt 0.296274 0.923178
vt 0.280448 0.815571
vt 0.286682 0.950652
vt 0.032504 0.804123
vt 0.046412 0.833887
vt 0.070391 0.686595
vt 0.113074 0.685069
vt 0.129859 0.733148
vt 0.112115 0.769018
vt 0.096768 0.772833
vt 0.095809 0.751464
vt 0.089095 0.760623
vt 0.089575 0.772070
vt 0.072310 0.772070
vt 0.086697 0.735438
vt 0.145685 0.679726
vt 0.207072 0.677437
vt 0.206113 0.791149
vt 0.187889 0.794965
vt 0.165828 0.793439
vt 0.151440 0.792676
vt 0.134586 0.671242
vt 0.214794 0.664617
vt 0.319120 0.946926
vt 0.362963 0.885552
vt 0.373234 0.887397
vt 0.365144 0.890616
vt 0.317038 0.913435
vt 0.331377 0.929996
vt 0.349417 0.929261
vt 0.339472 0.864485
vt 0.323976 0.856388
vt 0.332071 0.846083
vt 0.318426 0.838354
vt 0.327908 0.815167
vt 0.334615 0.824001
vt 0.341091 0.807807
vt 0.357281 0.810015
vt 0.353349 0.826577
vt 0.368382 0.818848
vt 0.368151 0.833938
vt 0.406774 0.952079
vt 0.395440 0.891386
vt 0.407133 0.893487
vt 0.423889 0.909386
vt 0.410706 0.924844
vt 0.422964 0.927052
vt 0.407237 0.923004
vt 0.380871 0.918955
vt 0.379484 0.902761
vt 0.398217 0.826577
vt 0.411169 0.824001
vt 0.422270 0.825473
vt 0.414407 0.839458
vt 0.422270 0.839826
vt 0.161093 0.574264
vt 0.170481 0.593979
vt 0.121663 0.596795
vt 0.264648 0.596000
vt 0.231399 0.594696
vt 0.275731 0.570574
vt 0.239222 0.691836
vt 0.312892 0.726389
vt 0.202061 0.709438
vt 0.422201 0.634084
vt 0.416768 0.663422
vt 0.373305 0.609636
vt 0.549874 0.560197
vt 0.548244 0.534662
vt 0.575952 0.536292
vt 0.541181 0.656359
vt 0.545528 0.678634
vt 0.516733 0.665595
vt 0.628683 0.589541
vt 0.630507 0.604646
vt 0.607286 0.599337
vt 0.688065 0.628573
vt 0.698272 0.620994
vt 0.705585 0.633799
vt 0.673386 0.575191
vt 0.668498 0.585370
vt 0.659853 0.565932
vt 0.741355 0.571460
vt 0.732538 0.597576
vt 0.721224 0.581348
vt 0.825999 0.652008
vt 0.810207 0.648428
vt 0.808359 0.616727
vt 0.854177 0.589857
vt 0.823944 0.623690
vt 0.934234 0.564767
vt 0.930165 0.590830
vt 0.916479 0.567308
vt 0.962034 0.587833
vt 0.966650 0.601920
vt 0.974142 0.596535
vt 0.978383 0.626883
vt 0.969226 0.623653
vt 0.976552 0.595269
vt 0.942981 0.629749
vt 0.955255 0.623948
vt 0.960828 0.638845
vt 0.106701 0.439494
vt 0.146875 0.502108
vt 0.102174 0.471393
vt 0.245198 0.505353
vt 0.266645 0.467808
vt 0.275654 0.491830
vt 0.435768 0.434376
vt 0.440472 0.451333
vt 0.408432 0.454291
vt 0.435026 0.485093
vt 0.479924 0.397932
vt 0.444712 0.525256
vt 0.526809 0.460834
vt 0.537485 0.487681
vt 0.498877 0.478629
vt 0.735717 0.430281
vt 0.693056 0.429513
vt 0.683268 0.412962
vt 0.765713 0.361235
vt 0.758244 0.515007
vt 0.747243 0.491840
vt 0.768750 0.360527
vt 0.761910 0.464579
vt 0.825256 0.436975
vt 0.833440 0.491011
vt 0.824776 0.451023
vt 0.876231 0.477754
vt 0.879483 0.494085
vt 0.848506 0.409967
vt 0.893526 0.441414
vt 0.897383 0.454638
vt 0.899304 0.466244
vt 0.113284 0.353208
vt 0.127204 0.318522
vt 0.114454 0.360566
vt 0.168832 0.347059
vt 0.189426 0.346627
vt 0.171185 0.357345
vt 0.188210 0.356944
vt 0.219941 0.319528
vt 0.178369 0.404852
vt 0.265529 0.382082
vt 0.274845 0.375431
vt 0.287224 0.373440
vt 0.279711 0.385404
vt 0.256193 0.389698
vt 0.255303 0.359366
vt 0.244879 0.315153
vt 0.257138 0.347540
vt 0.267562 0.323151
vt 0.254735 0.322647
vt 0.273359 0.315700
vt 0.319023 0.329915
vt 0.314402 0.342565
vt 0.304534 0.338982
vt 0.346552 0.365705
vt 0.365817 0.362227
vt 0.366332 0.373426
vt 0.362719 0.318964
vt 0.373704 0.328131
vt 0.363037 0.333720
vt 0.451343 0.371345
vt 0.472019 0.368044
vt 0.486867 0.377195
vt 0.414853 0.324142
vt 0.411528 0.330734
vt 0.402843 0.320802
vt 0.484904 0.320758
vt 0.484426 0.326681
vt 0.469463 0.318975
vt 0.493368 0.321014
vt 0.513429 0.316410
vt 0.520234 0.328464
vt 0.500606 0.321122
vt 0.501880 0.356300
vt 0.477538 0.337413
vt 0.502128 0.343158
vt 0.554456 0.365885
vt 0.532266 0.368052
vt 0.530632 0.359134
vt 0.553460 0.304373
vt 0.590576 0.313268
vt 0.577884 0.322979
vt 0.627307 0.355238
vt 0.650742 0.343419
vt 0.683296 0.340434
vt 0.763431 0.336671
vt 0.737818 0.321258
vt 0.765489 0.328933
vt 0.790669 0.334547
vt 0.784202 0.332727
vt 0.789526 0.324519
vt 0.711361 0.290175
vt 0.807629 0.296608
vt 0.803047 0.303673
vt 0.808139 0.356789
vt 0.805105 0.338229
vt 0.809360 0.337504
vt 0.808314 0.305280
vt 0.817712 0.301713
vt 0.772841 0.317059
vt 0.795661 0.315060
vt 0.627369 0.300877
vt 0.653392 0.297651
vt 0.719077 0.315695
vt 0.853569 0.367600
vt 0.848812 0.350619
vt 0.856105 0.333706
vt 0.849752 0.331854
vt 0.840249 0.325095
vt 0.851833 0.321829
vt 0.837339 0.279458
vt 0.840967 0.295741
vt 0.833926 0.308836
vt 0.872364 0.306671
vt 0.864390 0.314492
vt 0.872354 0.296023
vt 0.865307 0.293372
vt 0.898187 0.311292
vt 0.897505 0.299352
vt 0.901737 0.300436
vt 0.906727 0.374126
vt 0.901032 0.372994
vt 0.872548 0.338661
vt 0.872017 0.327798
vt 0.882573 0.328510
vt 0.129174 0.766718
vt 0.101948 0.765779
vt 0.109459 0.743248
vt 0.039049 0.716023
vt 0.040926 0.687859
vt 0.100071 0.600550
vt 0.063458 0.602428
vt 0.059702 0.578019
vt 0.232950 0.624555
vt 0.196659 0.606792
vt 0.194890 0.573182
vt 0.309632 0.598608
vt 0.284206 0.609039
vt 0.310936 0.639028
vt 0.295722 0.655280
vt 0.284206 0.631857
vt 0.275976 0.645615
vt 0.282250 0.669670
vt 0.238570 0.663802
vt 0.234006 0.644896
vt 0.316151 0.700311
vt 0.443389 0.559111
vt 0.441760 0.663422
vt 0.373305 0.669941
vt 0.350487 0.652556
vt 0.348313 0.674287
vt 0.421658 0.559111
vt 0.347228 0.570520
vt 0.371676 0.567803
vt 0.518906 0.602030
vt 0.493267 0.598618
vt 0.508584 0.580842
vt 0.490655 0.583015
vt 0.533575 0.578126
vt 0.546071 0.609636
vt 0.542811 0.593338
vt 0.558566 0.630281
vt 0.571062 0.613982
vt 0.571366 0.660480
vt 0.552868 0.645828
vt 0.577038 0.640060
vt 0.563456 0.602574
vt 0.571062 0.567260
vt 0.560196 0.585188
vt 0.553134 0.506955
vt 0.483593 0.485223
vt 0.520536 0.491200
vt 0.500978 0.509128
vt 0.532489 0.517821
vt 0.483593 0.510215
vt 0.568889 0.669398
vt 0.511300 0.690043
vt 0.475987 0.687870
vt 0.480333 0.663965
vt 0.646089 0.644194
vt 0.634200 0.642139
vt 0.608002 0.636987
vt 0.595375 0.634358
vt 0.636566 0.553134
vt 0.603966 0.580728
vt 0.583100 0.534225
vt 0.622184 0.551014
vt 0.596747 0.542554
vt 0.708986 0.614313
vt 0.686961 0.640555
vt 0.668774 0.633124
vt 0.673613 0.623857
vt 0.655198 0.609779
vt 0.668325 0.606020
vt 0.699411 0.608756
vt 0.707876 0.598927
vt 0.669148 0.596090
vt 0.653838 0.581716
vt 0.671612 0.559361
vt 0.693369 0.567182
vt 0.687667 0.577466
vt 0.705773 0.579983
vt 0.698288 0.589826
vt 0.768149 0.642351
vt 0.788601 0.633962
vt 0.788989 0.646849
vt 0.768620 0.657810
vt 0.732634 0.645654
vt 0.722454 0.617814
vt 0.736971 0.630268
vt 0.733985 0.556464
vt 0.760592 0.546025
vt 0.788046 0.560948
vt 0.768607 0.566945
vt 0.790819 0.581649
vt 0.804805 0.554543
vt 0.804292 0.539348
vt 0.822660 0.541980
vt 0.848162 0.565319
vt 0.864645 0.568849
vt 0.898436 0.648038
vt 0.879952 0.648837
vt 0.884165 0.608781
vt 0.881949 0.542428
vt 0.903358 0.543759
vt 0.975491 0.576955
vt 0.959083 0.583951
vt 0.954809 0.566531
vt 0.966438 0.551365
vt 0.933112 0.547355
vt 0.911538 0.605839
vt 0.912448 0.586283
vt 0.927767 0.600251
vt 0.924531 0.609522
vt 0.974997 0.603041
vt 0.970270 0.620956
vt 0.961856 0.609297
vt 0.953256 0.549058
vt 0.970955 0.585264
vt 0.950517 0.553361
vt 0.947347 0.556813
vt 0.947165 0.557335
vt 0.972317 0.631519
vt 0.974080 0.629084
vt 0.919446 0.626588
vt 0.928817 0.621805
vt 0.935667 0.639233
vt 0.079130 0.533846
vt 0.082044 0.441049
vt 0.154948 0.432423
vt 0.179175 0.430049
vt 0.099091 0.532177
vt 0.171098 0.537832
vt 0.135540 0.534329
vt 0.338083 0.419407
vt 0.339999 0.539806
vt 0.314861 0.494525
vt 0.315338 0.540690
vt 0.310364 0.465824
vt 0.310145 0.420177
vt 0.237272 0.421688
vt 0.262397 0.421995
vt 0.272362 0.549166
vt 0.236085 0.544624
vt 0.408871 0.484750
vt 0.353249 0.409797
vt 0.377306 0.408900
vt 0.398500 0.434196
vt 0.453261 0.398355
vt 0.496436 0.446812
vt 0.513794 0.430139
vt 0.535885 0.420199
vt 0.548825 0.443844
vt 0.575167 0.421862
vt 0.555149 0.367770
vt 0.583396 0.365419
vt 0.640712 0.495529
vt 0.586816 0.443175
vt 0.618353 0.500254
vt 0.606325 0.362623
vt 0.642996 0.365858
vt 0.730255 0.413687
vt 0.739229 0.359283
vt 0.715469 0.487036
vt 0.734457 0.480874
vt 0.773693 0.365500
vt 0.791510 0.369374
vt 0.799584 0.372698
vt 0.756667 0.490170
vt 0.805637 0.377323
vt 0.811973 0.377952
vt 0.806192 0.436844
vt 0.829036 0.379595
vt 0.835816 0.380758
vt 0.792229 0.489702
vt 0.801768 0.492669
vt 0.806999 0.450323
vt 0.824657 0.489906
vt 0.843701 0.484868
vt 0.842776 0.382358
vt 0.848261 0.385292
vt 0.866766 0.391166
vt 0.871976 0.391429
vt 0.851210 0.490509
vt 0.888932 0.494984
vt 0.898185 0.492750
vt 0.879634 0.393976
vt 0.886964 0.395915
vt 0.907095 0.395692
vt 0.915557 0.397276
vt 0.907058 0.495458
vt 0.933023 0.495242
vt 0.925490 0.494691
vt 0.077264 0.393598
vt 0.078514 0.320136
vt 0.091907 0.353971
vt 0.096555 0.321494
vt 0.091688 0.362681
vt 0.089198 0.392122
vt 0.127449 0.393208
vt 0.113699 0.390723
vt 0.111979 0.318921
vt 0.140587 0.320184
vt 0.158548 0.320758
vt 0.203310 0.320073
vt 0.169343 0.386312
vt 0.179126 0.377840
vt 0.244773 0.384803
vt 0.253698 0.378715
vt 0.278211 0.365931
vt 0.288966 0.360538
vt 0.277072 0.354693
vt 0.270138 0.359505
vt 0.281053 0.339417
vt 0.292571 0.344127
vt 0.273773 0.346780
vt 0.264299 0.348237
vt 0.287594 0.326188
vt 0.278884 0.328317
vt 0.314131 0.359342
vt 0.304885 0.364187
vt 0.307977 0.322207
vt 0.319978 0.318048
vt 0.335269 0.318007
vt 0.331630 0.328334
vt 0.347075 0.324681
vt 0.352692 0.335755
vt 0.342179 0.336814
vt 0.328645 0.369146
vt 0.344429 0.358135
vt 0.359450 0.355338
vt 0.320791 0.377004
vt 0.346287 0.381276
vt 0.373801 0.319192
vt 0.453953 0.345989
vt 0.460722 0.341699
vt 0.477449 0.354701
vt 0.492941 0.370733
vt 0.467367 0.357489
vt 0.460329 0.379131
vt 0.437878 0.376089
vt 0.421661 0.366450
vt 0.433362 0.365114
vt 0.428395 0.362183
vt 0.417817 0.362796
vt 0.420209 0.354333
vt 0.409915 0.350850
vt 0.385077 0.352574
vt 0.400352 0.372815
vt 0.387204 0.370893
vt 0.414997 0.342796
vt 0.405784 0.340498
vt 0.382464 0.342898
vt 0.446813 0.336996
vt 0.432012 0.321510
vt 0.456129 0.335169
vt 0.431826 0.327040
vt 0.415442 0.317654
vt 0.401500 0.330408
vt 0.474163 0.333183
vt 0.485331 0.312159
vt 0.502671 0.315120
vt 0.536933 0.327159
vt 0.485493 0.330509
vt 0.521498 0.366123
vt 0.552890 0.356257
vt 0.556943 0.349412
vt 0.573964 0.354175
vt 0.572240 0.359466
vt 0.580034 0.304844
vt 0.721385 0.334532
vt 0.741504 0.339606
vt 0.602047 0.349307
vt 0.794487 0.329068
vt 0.732844 0.286494
vt 0.815754 0.310045
vt 0.832558 0.277979
vt 0.827963 0.274749
vt 0.787221 0.312816
vt 0.755724 0.310716
vt 0.848688 0.365364
vt 0.839356 0.316394
vt 0.853985 0.289704
vt 0.860736 0.292133
vt 0.831150 0.356099
vt 0.836876 0.359428
vt 0.842770 0.282349
vt 0.882514 0.298737
vt 0.880154 0.310813
vt 0.891063 0.312420
vt 0.884570 0.319564
vt 0.904844 0.301010
vt 0.864439 0.367234
vt 0.891841 0.330694
vt 0.871391 0.372467
vt 0.885456 0.342014
vn 0.0000 -0.0000 -1.0000
vn 0.0000 0.0000 1.0000
usemtl Material.021
s off
f 41/1/1 40/2/1 38/3/1
f 34/4/1 33/5/1 14/6/1
f 34/4/1 39/7/1 40/2/1
f 50/8/1 43/9/1 49/10/1
f 64/11/1 61/12/1 54/13/1
f 59/14/1 64/11/1 62/15/1
f 77/16/1 70/17/1 71/18/1
f 84/19/1 66/20/1 81/21/1
f 94/22/1 90/23/1 91/24/1
f 85/25/1 97/26/1 86/27/1
f 100/28/1 101/29/1 98/30/1
f 103/31/1 104/32/1 102/33/1
f 102/33/1 107/34/1 103/31/1
f 110/35/1 108/36/1 109/37/1
f 115/38/1 113/39/1 114/40/1
f 117/41/1 119/42/1 116/43/1
f 120/44/1 125/45/1 121/46/1
f 122/47/1 127/48/1 123/49/1
f 131/50/1 132/51/1 134/52/1
f 139/53/1 143/54/1 140/55/1
f 144/56/1 141/57/1 140/55/1
f 139/53/1 140/55/1 149/58/1
f 151/59/1 153/60/1 152/61/1
f 152/61/1 154/62/1 151/59/1
f 155/63/1 157/64/1 156/65/1
f 159/66/1 161/67/1 160/68/1
f 167/69/1 163/70/1 164/71/1
f 172/72/1 174/73/1 164/71/1
f 187/74/1 188/75/1 175/76/1
f 190/77/1 193/78/1 189/79/1
f 199/80/1 195/81/1 198/82/1
f 210/83/1 211/84/1 204/85/1
f 1/86/1 2/87/1 38/3/1
f 2/87/1 3/88/1 41/1/1
f 38/3/1 2/87/1 41/1/1
f 3/88/1 4/89/1 41/1/1
f 4/89/1 5/90/1 41/1/1
f 5/90/1 6/91/1 41/1/1
f 6/91/1 7/92/1 41/1/1
f 7/92/1 8/93/1 42/94/1
f 8/93/1 9/95/1 42/94/1
f 9/95/1 10/96/1 42/94/1
f 10/96/1 11/97/1 42/94/1
f 31/98/1 32/99/1 38/3/1
f 32/99/1 1/86/1 38/3/1
f 29/100/1 30/101/1 38/3/1
f 30/101/1 31/98/1 38/3/1
f 27/102/1 28/103/1 37/104/1
f 28/103/1 29/100/1 38/3/1
f 37/104/1 36/105/1 27/102/1
f 40/2/1 39/7/1 38/3/1
f 38/3/1 37/104/1 28/103/1
f 7/92/1 42/94/1 41/1/1
f 26/106/1 27/102/1 36/105/1
f 26/106/1 36/105/1 25/107/1
f 36/105/1 35/108/1 22/109/1
f 24/110/1 36/105/1 23/111/1
f 24/110/1 25/107/1 36/105/1
f 22/109/1 23/111/1 36/105/1
f 20/112/1 21/113/1 35/108/1
f 21/113/1 22/109/1 35/108/1
f 18/114/1 19/115/1 35/108/1
f 19/115/1 20/112/1 35/108/1
f 16/116/1 17/117/1 34/4/1
f 17/117/1 18/114/1 35/108/1
f 34/4/1 17/117/1 35/108/1
f 14/6/1 15/118/1 34/4/1
f 15/118/1 16/116/1 34/4/1
f 12/119/1 13/120/1 33/5/1
f 13/120/1 14/6/1 33/5/1
f 42/94/1 11/97/1 33/5/1
f 11/97/1 12/119/1 33/5/1
f 42/94/1 33/5/1 41/1/1
f 33/5/1 34/4/1 40/2/1
f 41/1/1 33/5/1 40/2/1
f 34/4/1 35/108/1 39/7/1
f 35/108/1 36/105/1 39/7/1
f 36/105/1 37/104/1 38/3/1
f 36/105/1 38/3/1 39/7/1
f 51/121/1 52/122/1 50/8/1
f 52/122/1 53/123/1 50/8/1
f 53/123/1 43/9/1 50/8/1
f 43/9/1 44/124/1 46/125/1
f 44/124/1 45/126/1 46/125/1
f 46/125/1 47/127/1 49/10/1
f 47/127/1 48/128/1 49/10/1
f 43/9/1 46/125/1 49/10/1
f 54/13/1 55/129/1 63/130/1
f 55/129/1 62/15/1 63/130/1
f 63/130/1 64/11/1 54/13/1
f 60/131/1 61/12/1 59/14/1
f 61/12/1 64/11/1 59/14/1
f 62/15/1 55/129/1 58/132/1
f 55/129/1 56/133/1 58/132/1
f 56/133/1 57/134/1 58/132/1
f 58/132/1 59/14/1 62/15/1
f 65/135/1 66/20/1 74/136/1
f 66/20/1 75/137/1 73/138/1
f 75/137/1 76/139/1 71/18/1
f 76/139/1 77/16/1 71/18/1
f 75/137/1 71/18/1 72/140/1
f 77/16/1 78/141/1 70/17/1
f 78/141/1 79/142/1 70/17/1
f 79/142/1 67/143/1 69/144/1
f 67/143/1 68/145/1 69/144/1
f 66/20/1 73/138/1 74/136/1
f 72/140/1 73/138/1 75/137/1
f 79/142/1 69/144/1 70/17/1
f 66/20/1 65/135/1 80/146/1
f 80/146/1 81/21/1 66/20/1
f 81/21/1 82/147/1 84/19/1
f 82/147/1 83/148/1 84/19/1
f 87/149/1 88/150/1 92/151/1
f 92/151/1 93/152/1 91/24/1
f 93/152/1 94/22/1 91/24/1
f 94/22/1 95/153/1 89/154/1
f 89/154/1 85/25/1 90/23/1
f 85/25/1 86/27/1 90/23/1
f 87/149/1 92/151/1 91/24/1
f 94/22/1 89/154/1 90/23/1
f 85/25/1 96/155/1 97/26/1
f 88/150/1 87/149/1 101/29/1
f 87/149/1 98/30/1 101/29/1
f 98/30/1 99/156/1 100/28/1
f 103/31/1 105/157/1 104/32/1
f 102/33/1 106/158/1 107/34/1
f 110/35/1 111/159/1 108/36/1
f 115/38/1 112/160/1 113/39/1
f 117/41/1 118/161/1 119/42/1
f 120/44/1 124/162/1 125/45/1
f 122/47/1 126/163/1 127/48/1
f 122/47/1 123/49/1 132/51/1
f 123/49/1 133/164/1 132/51/1
f 133/164/1 134/52/1 132/51/1
f 134/52/1 135/165/1 131/50/1
f 135/165/1 136/166/1 130/167/1
f 136/166/1 137/168/1 130/167/1
f 137/168/1 138/169/1 128/170/1
f 128/170/1 120/44/1 129/171/1
f 120/44/1 121/46/1 129/171/1
f 137/168/1 128/170/1 129/171/1
f 137/168/1 129/171/1 130/167/1
f 130/167/1 131/50/1 135/165/1
f 139/53/1 142/172/1 143/54/1
f 144/56/1 145/173/1 141/57/1
f 140/55/1 141/57/1 149/58/1
f 141/57/1 147/174/1 148/175/1
f 149/58/1 141/57/1 148/175/1
f 149/58/1 150/176/1 146/177/1
f 146/177/1 139/53/1 149/58/1
f 155/63/1 158/178/1 157/64/1
f 159/66/1 162/179/1 161/67/1
f 167/69/1 168/180/1 163/70/1
f 165/181/1 166/182/1 173/183/1
f 166/182/1 174/73/1 173/183/1
f 163/70/1 169/184/1 170/185/1
f 163/70/1 170/185/1 164/71/1
f 170/185/1 171/186/1 164/71/1
f 172/72/1 173/183/1 174/73/1
f 171/186/1 172/72/1 164/71/1
f 166/182/1 165/181/1 188/75/1
f 165/181/1 175/76/1 188/75/1
f 175/76/1 176/187/1 187/74/1
f 176/187/1 177/188/1 186/189/1
f 177/188/1 178/190/1 186/189/1
f 178/190/1 179/191/1 185/192/1
f 186/189/1 178/190/1 185/192/1
f 179/191/1 180/193/1 185/192/1
f 180/193/1 181/194/1 184/195/1
f 185/192/1 180/193/1 184/195/1
f 181/194/1 182/196/1 184/195/1
f 182/196/1 183/197/1 184/195/1
f 186/189/1 187/74/1 176/187/1
f 190/77/1 194/198/1 193/78/1
f 191/199/1 192/200/1 198/82/1
f 192/200/1 199/80/1 198/82/1
f 199/80/1 200/201/1 202/202/1
f 200/201/1 201/203/1 202/202/1
f 202/202/1 203/204/1 199/80/1
f 203/204/1 190/77/1 195/81/1
f 190/77/1 189/79/1 195/81/1
f 195/81/1 196/205/1 198/82/1
f 196/205/1 197/206/1 198/82/1
f 199/80/1 203/204/1 195/81/1
f 192/200/1 191/199/1 211/84/1
f 191/199/1 204/85/1 211/84/1
f 204/85/1 205/207/1 210/83/1
f 205/207/1 206/208/1 210/83/1
f 206/208/1 207/209/1 209/210/1
f 207/209/1 208/211/1 209/210/1
f 206/208/1 209/210/1 210/83/1
usemtl Material.022
f 252/212/2 251/213/2 249/214/2
f 245/215/2 244/216/2 225/217/2
f 245/215/2 250/218/2 251/213/2
f 261/219/2 254/220/2 260/221/2
f 275/222/2 272/223/2 265/224/2
f 270/225/2 275/222/2 273/226/2
f 288/227/2 281/228/2 282/229/2
f 295/230/2 277/231/2 292/232/2
f 305/233/2 301/234/2 302/235/2
f 296/236/2 308/237/2 297/238/2
f 311/239/2 312/240/2 309/241/2
f 314/242/2 315/243/2 313/244/2
f 313/244/2 318/245/2 314/242/2
f 321/246/2 319/247/2 320/248/2
f 326/249/2 324/250/2 325/251/2
f 328/252/2 330/253/2 327/254/2
f 331/255/2 336/256/2 332/257/2
f 333/258/2 338/259/2 334/260/2
f 342/261/2 343/262/2 345/263/2
f 350/264/2 354/265/2 351/266/2
f 355/267/2 352/268/2 351/266/2
f 350/264/2 351/266/2 360/269/2
f 362/270/2 364/271/2 363/272/2
f 363/272/2 365/273/2 362/270/2
f 366/274/2 368/275/2 367/276/2
f 370/277/2 372/278/2 371/279/2
f 378/280/2 374/281/2 375/282/2
f 383/283/2 385/284/2 375/282/2
f 398/285/2 399/286/2 386/287/2
f 401/288/2 404/289/2 400/290/2
f 410/291/2 406/292/2 409/293/2
f 421/294/2 422/295/2 415/296/2
f 212/297/2 213/298/2 249/214/2
f 213/298/2 214/299/2 252/212/2
f 249/214/2 213/298/2 252/212/2
f 214/299/2 215/300/2 252/212/2
f 215/300/2 216/301/2 252/212/2
f 216/301/2 217/302/2 252/212/2
f 217/302/2 218/303/2 252/212/2
f 218/303/2 219/304/2 253/305/2
f 219/304/2 220/306/2 253/305/2
f 220/306/2 221/307/2 253/305/2
f 221/307/2 222/308/2 253/305/2
f 242/309/2 243/310/2 249/214/2
f 243/310/2 212/297/2 249/214/2
f 240/311/2 241/312/2 249/214/2
f 241/312/2 242/309/2 249/214/2
f 238/313/2 239/314/2 248/315/2
f 239/314/2 240/311/2 249/214/2
f 248/315/2 247/316/2 238/313/2
f 251/213/2 250/218/2 249/214/2
f 249/214/2 248/315/2 239/314/2
f 218/303/2 253/305/2 252/212/2
f 237/317/2 238/313/2 247/316/2
f 237/317/2 247/316/2 236/318/2
f 247/316/2 246/319/2 233/320/2
f 235/321/2 247/316/2 234/322/2
f 235/321/2 236/318/2 247/316/2
f 233/320/2 234/322/2 247/316/2
f 231/323/2 232/324/2 246/319/2
f 232/324/2 233/320/2 246/319/2
f 229/325/2 230/326/2 246/319/2
f 230/326/2 231/323/2 246/319/2
f 227/327/2 228/328/2 245/215/2
f 228/328/2 229/325/2 246/319/2
f 245/215/2 228/328/2 246/319/2
f 225/217/2 226/329/2 245/215/2
f 226/329/2 227/327/2 245/215/2
f 223/330/2 224/331/2 244/216/2
f 224/331/2 225/217/2 244/216/2
f 253/305/2 222/308/2 244/216/2
f 222/308/2 223/330/2 244/216/2
f 253/305/2 244/216/2 252/212/2
f 244/216/2 245/215/2 251/213/2
f 252/212/2 244/216/2 251/213/2
f 245/215/2 246/319/2 250/218/2
f 246/319/2 247/316/2 250/218/2
f 247/316/2 248/315/2 249/214/2
f 247/316/2 249/214/2 250/218/2
f 262/332/2 263/333/2 261/219/2
f 263/333/2 264/334/2 261/219/2
f 264/334/2 254/220/2 261/219/2
f 254/220/2 255/335/2 257/336/2
f 255/335/2 256/337/2 257/336/2
f 257/336/2 258/338/2 260/221/2
f 258/338/2 259/339/2 260/221/2
f 254/220/2 257/336/2 260/221/2
f 265/224/2 266/340/2 274/341/2
f 266/340/2 273/226/2 274/341/2
f 274/341/2 275/222/2 265/224/2
f 271/342/2 272/223/2 270/225/2
f 272/223/2 275/222/2 270/225/2
f 273/226/2 266/340/2 269/343/2
f 266/340/2 267/344/2 269/343/2
f 267/344/2 268/345/2 269/343/2
f 269/343/2 270/225/2 273/226/2
f 276/346/2 277/231/2 285/347/2
f 277/231/2 286/348/2 284/349/2
f 286/348/2 287/350/2 282/229/2
f 287/350/2 288/227/2 282/229/2
f 286/348/2 282/229/2 283/351/2
f 288/227/2 289/352/2 281/228/2
f 289/352/2 290/353/2 281/228/2
f 290/353/2 278/354/2 280/355/2
f 278/354/2 279/356/2 280/355/2
f 277/231/2 284/349/2 285/347/2
f 283/351/2 284/349/2 286/348/2
f 290/353/2 280/355/2 281/228/2
f 277/231/2 276/346/2 291/357/2
f 291/357/2 292/232/2 277/231/2
f 292/232/2 293/358/2 295/230/2
f 293/358/2 294/359/2 295/230/2
f 298/360/2 299/361/2 303/362/2
f 303/362/2 304/363/2 302/235/2
f 304/363/2 305/233/2 302/235/2
f 305/233/2 306/364/2 300/365/2
f 300/365/2 296/236/2 301/234/2
f 296/236/2 297/238/2 301/234/2
f 298/360/2 303/362/2 302/235/2
f 305/233/2 300/365/2 301/234/2
f 296/236/2 307/366/2 308/237/2
f 299/361/2 298/360/2 312/240/2
f 298/360/2 309/241/2 312/240/2
f 309/241/2 310/367/2 311/239/2
f 314/242/2 316/368/2 315/243/2
f 313/244/2 317/369/2 318/245/2
f 321/246/2 322/370/2 319/247/2
f 326/249/2 323/371/2 324/250/2
f 328/252/2 329/372/2 330/253/2
f 331/255/2 335/373/2 336/256/2
f 333/258/2 337/374/2 338/259/2
f 333/258/2 334/260/2 343/262/2
f 334/260/2 344/375/2 343/262/2
f 344/375/2 345/263/2 343/262/2
f 345/263/2 346/376/2 342/261/2
f 346/376/2 347/377/2 341/378/2
f 347/377/2 348/379/2 341/378/2
f 348/379/2 349/380/2 339/381/2
f 339/381/2 331/255/2 340/382/2
f 331/255/2 332/257/2 340/382/2
f 348/379/2 339/381/2 340/382/2
f 348/379/2 340/382/2 341/378/2
f 341/378/2 342/261/2 346/376/2
f 350/264/2 353/383/2 354/265/2
f 355/267/2 356/384/2 352/268/2
f 351/266/2 352/268/2 360/269/2
f 352/268/2 358/385/2 359/386/2
f 360/269/2 352/268/2 359/386/2
f 360/269/2 361/387/2 357/388/2
f 357/388/2 350/264/2 360/269/2
f 366/274/2 369/389/2 368/275/2
f 370/277/2 373/390/2 372/278/2
f 378/280/2 379/391/2 374/281/2
f 376/392/2 377/393/2 384/394/2
f 377/393/2 385/284/2 384/394/2
f 374/281/2 380/395/2 381/396/2
f 374/281/2 381/396/2 375/282/2
f 381/396/2 382/397/2 375/282/2
f 383/283/2 384/394/2 385/284/2
f 382/397/2 383/283/2 375/282/2
f 377/393/2 376/392/2 399/286/2
f 376/392/2 386/287/2 399/286/2
f 386/287/2 387/398/2 398/285/2
f 387/398/2 388/399/2 397/400/2
f 388/399/2 389/401/2 397/400/2
f 389/401/2 390/402/2 396/403/2
f 397/400/2 389/401/2 396/403/2
f 390/402/2 391/404/2 396/403/2
f 391/404/2 392/405/2 395/406/2
f 396/403/2 391/404/2 395/406/2
f 392/405/2 393/407/2 395/406/2
f 393/407/2 394/408/2 395/406/2
f 397/400/2 398/285/2 387/398/2
f 401/288/2 405/409/2 404/289/2
f 402/410/2 403/411/2 409/293/2
f 403/411/2 410/291/2 409/293/2
f 410/291/2 411/412/2 413/413/2
f 411/412/2 412/414/2 413/413/2
f 413/413/2 414/415/2 410/291/2
f 414/415/2 401/288/2 406/292/2
f 401/288/2 400/290/2 406/292/2
f 406/292/2 407/416/2 409/293/2
f 407/416/2 408/417/2 409/293/2
f 410/291/2 414/415/2 406/292/2
f 403/411/2 402/410/2 422/295/2
f 402/410/2 415/296/2 422/295/2
f 415/296/2 416/418/2 421/294/2
f 416/418/2 417/419/2 421/294/2
f 417/419/2 418/420/2 420/421/2
f 418/420/2 419/422/2 420/421/2
f 417/419/2 420/421/2 421/294/2
usemtl Material.003
f 428/423/2 427/424/2 426/425/2
f 449/426/2 448/427/2 437/428/2
f 443/429/2 445/430/2 440/431/2
f 456/432/2 460/433/2 461/434/2
f 473/435/2 474/436/2 481/437/2
f 490/438/2 492/439/2 489/440/2
f 499/441/2 504/442/2 505/443/2
f 526/444/2 525/445/2 515/446/2
f 520/447/2 519/448/2 510/449/2
f 533/450/2 532/451/2 539/452/2
f 544/453/2 545/454/2 543/455/2
f 547/456/2 544/453/2 555/457/2
f 565/458/2 566/459/2 559/460/2
f 578/461/2 583/462/2 584/463/2
f 574/464/2 585/465/2 573/466/2
f 589/467/2 588/468/2 569/469/2
f 594/470/2 595/471/2 600/472/2
f 602/473/2 605/474/2 612/475/2
f 619/476/2 624/477/2 623/478/2
f 625/479/2 621/480/2 622/481/2
f 627/482/2 626/483/2 638/484/2
f 649/485/2 647/486/2 642/487/2
f 649/485/2 645/488/2 646/489/2
f 651/490/2 650/491/2 655/492/2
f 661/493/2 664/494/2 666/495/2
f 672/496/2 676/497/2 677/498/2
f 682/499/2 685/500/2 688/501/2
f 694/502/2 696/503/2 699/504/2
f 705/505/2 706/506/2 710/507/2
f 711/508/2 708/509/2 709/510/2
f 725/511/2 726/512/2 714/513/2
f 714/513/2 722/514/2 713/515/2
f 723/516/2 716/517/2 729/518/2
f 731/519/2 730/520/2 717/521/2
f 746/522/2 747/523/2 738/524/2
f 753/525/2 748/526/2 749/527/2
f 760/528/2 757/529/2 756/530/2
f 782/531/2 783/532/2 764/533/2
f 789/534/2 790/535/2 771/536/2
f 799/537/2 794/538/2 797/539/2
f 794/538/2 799/537/2 795/540/2
f 802/541/2 804/542/2 805/543/2
f 800/544/2 801/545/2 807/546/2
f 810/547/2 811/548/2 792/549/2
f 817/550/2 815/551/2 814/552/2
f 818/553/2 822/554/2 821/555/2
f 826/556/2 847/557/2 848/558/2
f 833/559/2 824/560/2 846/561/2
f 837/562/2 836/563/2 835/564/2
f 834/565/2 839/566/2 845/567/2
f 843/568/2 836/563/2 840/569/2
f 846/561/2 849/570/2 825/571/2
f 827/572/2 828/573/2 829/574/2
f 854/575/2 850/576/2 851/577/2
f 861/578/2 862/579/2 858/580/2
f 864/581/2 853/582/2 852/583/2
f 883/584/2 866/585/2 867/586/2
f 866/585/2 875/587/2 867/586/2
f 876/588/2 878/589/2 877/590/2
f 881/591/2 879/592/2 876/588/2
f 873/593/2 882/594/2 886/595/2
f 425/596/2 424/597/2 432/598/2
f 424/597/2 423/599/2 432/598/2
f 423/599/2 433/600/2 432/598/2
f 431/601/2 430/602/2 429/603/2
f 431/601/2 429/603/2 426/425/2
f 429/603/2 428/423/2 426/425/2
f 425/596/2 432/598/2 426/425/2
f 432/598/2 431/601/2 426/425/2
f 446/604/2 434/605/2 448/427/2
f 434/605/2 436/606/2 448/427/2
f 436/606/2 437/428/2 448/427/2
f 437/428/2 438/607/2 450/608/2
f 449/426/2 437/428/2 450/608/2
f 438/607/2 439/609/2 450/608/2
f 439/609/2 435/610/2 451/611/2
f 450/608/2 439/609/2 451/611/2
f 435/610/2 447/612/2 451/611/2
f 447/612/2 435/610/2 441/613/2
f 447/612/2 441/613/2 442/614/2
f 434/605/2 446/604/2 452/615/2
f 452/615/2 447/612/2 442/614/2
f 443/429/2 444/616/2 445/430/2
f 452/615/2 442/614/2 440/431/2
f 442/614/2 443/429/2 440/431/2
f 440/431/2 434/605/2 452/615/2
f 458/617/2 459/618/2 456/432/2
f 459/618/2 460/433/2 456/432/2
f 461/434/2 462/619/2 453/620/2
f 462/619/2 463/621/2 453/620/2
f 456/432/2 457/622/2 458/617/2
f 454/623/2 455/624/2 461/434/2
f 455/624/2 456/432/2 461/434/2
f 461/434/2 453/620/2 454/623/2
f 469/625/2 464/626/2 471/627/2
f 464/626/2 470/628/2 471/627/2
f 471/627/2 472/629/2 469/625/2
f 468/630/2 469/625/2 484/631/2
f 469/625/2 472/629/2 484/631/2
f 467/632/2 468/630/2 486/633/2
f 466/634/2 465/635/2 487/636/2
f 465/635/2 467/632/2 487/636/2
f 486/633/2 487/636/2 467/632/2
f 484/631/2 485/637/2 468/630/2
f 485/637/2 486/633/2 468/630/2
f 482/638/2 483/639/2 473/435/2
f 483/639/2 484/631/2 472/629/2
f 473/435/2 483/639/2 472/629/2
f 480/640/2 481/437/2 474/436/2
f 481/437/2 482/638/2 473/435/2
f 478/641/2 479/642/2 476/643/2
f 479/642/2 480/640/2 475/644/2
f 476/643/2 477/645/2 478/641/2
f 475/644/2 476/643/2 479/642/2
f 474/436/2 475/644/2 480/640/2
f 465/635/2 466/634/2 490/438/2
f 466/634/2 491/646/2 490/438/2
f 491/646/2 492/439/2 490/438/2
f 492/439/2 493/647/2 489/440/2
f 493/647/2 494/648/2 488/649/2
f 493/647/2 488/649/2 489/440/2
f 502/650/2 503/651/2 504/442/2
f 505/443/2 506/652/2 495/653/2
f 501/654/2 502/650/2 504/442/2
f 505/443/2 495/653/2 498/655/2
f 495/653/2 496/656/2 498/655/2
f 499/441/2 500/657/2 501/654/2
f 496/656/2 497/658/2 498/655/2
f 499/441/2 501/654/2 504/442/2
f 498/655/2 499/441/2 505/443/2
f 516/659/2 515/446/2 525/445/2
f 515/446/2 514/660/2 526/444/2
f 514/660/2 513/661/2 527/662/2
f 513/661/2 512/663/2 527/662/2
f 512/663/2 523/664/2 527/662/2
f 525/445/2 524/665/2 516/659/2
f 514/660/2 527/662/2 526/444/2
f 517/666/2 516/659/2 524/665/2
f 523/664/2 512/663/2 518/667/2
f 512/663/2 511/668/2 518/667/2
f 517/666/2 524/665/2 518/667/2
f 524/665/2 523/664/2 518/667/2
f 511/668/2 510/449/2 519/448/2
f 518/667/2 511/668/2 519/448/2
f 510/449/2 509/669/2 520/447/2
f 509/669/2 508/670/2 521/671/2
f 508/670/2 507/672/2 521/671/2
f 507/672/2 522/673/2 521/671/2
f 509/669/2 521/671/2 520/447/2
f 530/674/2 529/675/2 542/676/2
f 542/676/2 541/677/2 530/674/2
f 541/677/2 528/678/2 530/674/2
f 528/678/2 540/679/2 531/680/2
f 540/679/2 539/452/2 532/451/2
f 539/452/2 538/681/2 533/450/2
f 538/681/2 537/682/2 533/450/2
f 537/682/2 536/683/2 534/684/2
f 536/683/2 535/685/2 534/684/2
f 531/680/2 530/674/2 528/678/2
f 537/682/2 534/684/2 533/450/2
f 532/451/2 531/680/2 540/679/2
f 544/453/2 543/455/2 555/457/2
f 543/455/2 546/686/2 555/457/2
f 546/686/2 557/687/2 556/688/2
f 555/457/2 554/689/2 547/456/2
f 554/689/2 553/690/2 547/456/2
f 546/686/2 556/688/2 555/457/2
f 549/691/2 548/692/2 552/693/2
f 548/692/2 547/456/2 552/693/2
f 551/694/2 550/695/2 552/693/2
f 550/695/2 549/691/2 552/693/2
f 553/690/2 552/693/2 547/456/2
f 562/696/2 563/697/2 564/698/2
f 561/699/2 562/696/2 564/698/2
f 559/460/2 560/700/2 565/458/2
f 560/700/2 561/699/2 564/698/2
f 565/458/2 560/700/2 564/698/2
f 572/701/2 558/702/2 586/703/2
f 558/702/2 559/460/2 566/459/2
f 586/703/2 558/702/2 566/459/2
f 586/703/2 591/704/2 572/701/2
f 567/705/2 568/706/2 587/707/2
f 567/705/2 587/707/2 566/459/2
f 587/707/2 586/703/2 566/459/2
f 574/464/2 573/466/2 584/463/2
f 573/466/2 575/708/2 577/709/2
f 584/463/2 573/466/2 577/709/2
f 575/708/2 576/710/2 577/709/2
f 578/461/2 579/711/2 580/712/2
f 578/461/2 580/712/2 583/462/2
f 580/712/2 581/713/2 583/462/2
f 581/713/2 582/714/2 583/462/2
f 577/709/2 578/461/2 584/463/2
f 571/715/2 572/701/2 591/704/2
f 571/715/2 591/704/2 590/716/2
f 569/469/2 570/717/2 589/467/2
f 570/717/2 571/715/2 590/716/2
f 589/467/2 570/717/2 590/716/2
f 587/707/2 568/706/2 588/468/2
f 568/706/2 569/469/2 588/468/2
f 592/718/2 593/719/2 600/472/2
f 593/719/2 594/470/2 600/472/2
f 595/471/2 596/720/2 597/721/2
f 600/472/2 601/722/2 592/718/2
f 598/723/2 599/724/2 595/471/2
f 599/724/2 600/472/2 595/471/2
f 595/471/2 597/721/2 598/723/2
f 608/725/2 609/726/2 611/727/2
f 609/726/2 610/728/2 611/727/2
f 606/729/2 607/730/2 608/725/2
f 603/731/2 604/732/2 605/474/2
f 606/729/2 608/725/2 611/727/2
f 602/473/2 603/731/2 605/474/2
f 605/474/2 606/729/2 612/475/2
f 606/729/2 611/727/2 612/475/2
f 612/475/2 613/733/2 602/473/2
f 613/733/2 614/734/2 602/473/2
f 616/735/2 615/736/2 623/478/2
f 615/736/2 617/737/2 618/738/2
f 615/736/2 618/738/2 623/478/2
f 619/476/2 620/739/2 621/480/2
f 623/478/2 618/738/2 619/476/2
f 619/476/2 621/480/2 624/477/2
f 625/479/2 624/477/2 621/480/2
f 622/481/2 616/735/2 625/479/2
f 616/735/2 623/478/2 625/479/2
f 638/484/2 637/740/2 627/482/2
f 637/740/2 636/741/2 627/482/2
f 636/741/2 635/742/2 628/743/2
f 635/742/2 634/744/2 628/743/2
f 634/744/2 633/745/2 632/746/2
f 632/746/2 631/747/2 629/748/2
f 631/747/2 630/749/2 629/748/2
f 627/482/2 636/741/2 628/743/2
f 634/744/2 632/746/2 629/748/2
f 634/744/2 629/748/2 628/743/2
f 640/750/2 641/751/2 642/487/2
f 643/752/2 644/753/2 645/488/2
f 639/754/2 640/750/2 647/486/2
f 640/750/2 642/487/2 647/486/2
f 643/752/2 645/488/2 649/485/2
f 643/752/2 649/485/2 642/487/2
f 646/489/2 639/754/2 648/755/2
f 639/754/2 647/486/2 648/755/2
f 648/755/2 649/485/2 646/489/2
f 650/491/2 656/756/2 655/492/2
f 655/492/2 654/757/2 653/758/2
f 653/758/2 652/759/2 655/492/2
f 652/759/2 651/490/2 655/492/2
f 658/760/2 659/761/2 660/762/2
f 661/493/2 662/763/2 663/764/2
f 657/765/2 658/760/2 660/762/2
f 661/493/2 663/764/2 664/494/2
f 668/766/2 657/765/2 667/767/2
f 657/765/2 660/762/2 667/767/2
f 664/494/2 665/768/2 666/495/2
f 666/495/2 667/767/2 661/493/2
f 667/767/2 660/762/2 661/493/2
f 669/769/2 670/770/2 677/498/2
f 670/770/2 671/771/2 677/498/2
f 672/496/2 673/772/2 674/773/2
f 678/774/2 669/769/2 677/498/2
f 672/496/2 674/773/2 675/775/2
f 677/498/2 671/771/2 672/496/2
f 672/496/2 675/775/2 676/497/2
f 679/776/2 680/777/2 682/499/2
f 680/777/2 681/778/2 682/499/2
f 682/499/2 683/779/2 684/780/2
f 688/501/2 689/781/2 679/776/2
f 686/782/2 687/783/2 685/500/2
f 687/783/2 688/501/2 685/500/2
f 682/499/2 684/780/2 685/500/2
f 688/501/2 679/776/2 682/499/2
f 690/784/2 691/785/2 693/786/2
f 691/785/2 692/787/2 693/786/2
f 700/788/2 701/789/2 690/784/2
f 697/790/2 698/791/2 699/504/2
f 700/788/2 690/784/2 693/786/2
f 696/503/2 697/790/2 699/504/2
f 699/504/2 700/788/2 694/502/2
f 700/788/2 693/786/2 694/502/2
f 694/502/2 695/792/2 696/503/2
f 703/793/2 704/794/2 705/505/2
f 706/506/2 707/795/2 708/509/2
f 702/796/2 703/793/2 710/507/2
f 703/793/2 705/505/2 710/507/2
f 706/506/2 708/509/2 711/508/2
f 706/506/2 711/508/2 710/507/2
f 709/510/2 702/796/2 712/797/2
f 702/796/2 710/507/2 712/797/2
f 712/797/2 711/508/2 709/510/2
f 713/515/2 715/798/2 724/799/2
f 713/515/2 724/799/2 725/511/2
f 726/512/2 727/800/2 714/513/2
f 713/515/2 725/511/2 714/513/2
f 721/801/2 714/513/2 727/800/2
f 721/801/2 727/800/2 720/802/2
f 727/800/2 728/803/2 720/802/2
f 733/804/2 719/805/2 720/802/2
f 723/516/2 724/799/2 715/798/2
f 720/802/2 728/803/2 734/806/2
f 728/803/2 723/516/2 735/807/2
f 734/806/2 733/804/2 720/802/2
f 735/807/2 734/806/2 728/803/2
f 723/516/2 715/798/2 716/517/2
f 716/517/2 730/520/2 729/518/2
f 729/518/2 735/807/2 723/516/2
f 718/808/2 719/805/2 733/804/2
f 718/808/2 733/804/2 732/809/2
f 716/517/2 717/521/2 730/520/2
f 717/521/2 718/808/2 732/809/2
f 731/519/2 717/521/2 732/809/2
f 737/810/2 736/811/2 738/524/2
f 738/524/2 739/812/2 746/522/2
f 739/812/2 740/813/2 746/522/2
f 740/813/2 741/814/2 745/815/2
f 741/814/2 742/816/2 745/815/2
f 742/816/2 743/817/2 744/818/2
f 742/816/2 744/818/2 745/815/2
f 747/523/2 737/810/2 738/524/2
f 745/815/2 746/522/2 740/813/2
f 736/811/2 737/810/2 752/819/2
f 753/525/2 754/820/2 748/526/2
f 754/820/2 755/821/2 748/526/2
f 751/822/2 736/811/2 752/819/2
f 751/822/2 752/819/2 750/823/2
f 752/819/2 753/525/2 750/823/2
f 749/527/2 750/823/2 753/525/2
f 760/528/2 761/824/2 757/529/2
f 780/825/2 759/826/2 762/827/2
f 762/827/2 763/828/2 784/829/2
f 763/828/2 764/533/2 783/532/2
f 764/533/2 765/830/2 782/531/2
f 765/830/2 766/831/2 782/531/2
f 766/831/2 758/832/2 781/833/2
f 758/832/2 779/834/2 781/833/2
f 784/829/2 780/825/2 762/827/2
f 783/532/2 784/829/2 763/828/2
f 766/831/2 781/833/2 782/531/2
f 779/834/2 758/832/2 775/835/2
f 779/834/2 775/835/2 786/836/2
f 775/835/2 776/837/2 786/836/2
f 777/838/2 778/839/2 767/840/2
f 785/841/2 786/836/2 776/837/2
f 777/838/2 767/840/2 756/530/2
f 785/841/2 776/837/2 769/842/2
f 776/837/2 777/838/2 768/843/2
f 769/842/2 776/837/2 768/843/2
f 777/838/2 756/530/2 768/843/2
f 756/530/2 757/529/2 768/843/2
f 759/826/2 780/825/2 787/844/2
f 773/845/2 774/846/2 788/847/2
f 774/846/2 759/826/2 787/844/2
f 788/847/2 774/846/2 787/844/2
f 771/536/2 772/848/2 789/534/2
f 772/848/2 773/845/2 788/847/2
f 789/534/2 772/848/2 788/847/2
f 769/842/2 770/849/2 790/535/2
f 770/849/2 771/536/2 790/535/2
f 790/535/2 785/841/2 769/842/2
f 794/538/2 793/850/2 797/539/2
f 797/539/2 798/851/2 799/537/2
f 798/851/2 796/852/2 795/540/2
f 799/537/2 798/851/2 795/540/2
f 795/540/2 796/852/2 805/543/2
f 796/852/2 802/541/2 805/543/2
f 802/541/2 803/853/2 804/542/2
f 793/850/2 794/538/2 806/854/2
f 807/546/2 792/549/2 800/544/2
f 792/549/2 791/855/2 800/544/2
f 793/850/2 806/854/2 801/545/2
f 806/854/2 807/546/2 801/545/2
f 791/855/2 792/549/2 811/548/2
f 792/549/2 812/856/2 810/547/2
f 812/856/2 813/857/2 808/858/2
f 808/858/2 809/859/2 812/856/2
f 809/859/2 810/547/2 812/856/2
f 817/550/2 816/860/2 815/551/2
f 814/552/2 815/551/2 821/555/2
f 821/555/2 820/861/2 819/862/2
f 819/862/2 818/553/2 821/555/2
f 818/553/2 823/863/2 822/554/2
f 822/554/2 814/552/2 821/555/2
f 846/561/2 824/560/2 848/558/2
f 824/560/2 826/556/2 848/558/2
f 846/561/2 825/571/2 832/864/2
f 832/864/2 833/559/2 846/561/2
f 837/562/2 838/865/2 836/563/2
f 835/564/2 836/563/2 843/568/2
f 845/567/2 844/866/2 834/565/2
f 844/866/2 842/867/2 834/565/2
f 835/564/2 843/568/2 839/566/2
f 843/568/2 845/567/2 839/566/2
f 841/868/2 842/867/2 840/569/2
f 842/867/2 844/866/2 840/569/2
f 844/866/2 843/568/2 840/569/2
f 831/869/2 825/571/2 849/570/2
f 847/557/2 826/556/2 829/574/2
f 826/556/2 827/572/2 829/574/2
f 831/869/2 849/570/2 830/870/2
f 849/570/2 847/557/2 829/574/2
f 829/574/2 830/870/2 849/570/2
f 854/575/2 855/871/2 850/576/2
f 852/583/2 853/582/2 857/872/2
f 858/580/2 859/873/2 860/874/2
f 856/875/2 852/583/2 862/579/2
f 852/583/2 857/872/2 862/579/2
f 858/580/2 860/874/2 851/577/2
f 863/876/2 856/875/2 862/579/2
f 857/872/2 858/580/2 862/579/2
f 858/580/2 851/577/2 861/578/2
f 851/577/2 850/576/2 861/578/2
f 864/581/2 865/877/2 853/582/2
f 867/586/2 870/878/2 884/879/2
f 870/878/2 871/880/2 884/879/2
f 871/880/2 885/881/2 884/879/2
f 883/584/2 882/594/2 866/585/2
f 884/879/2 883/584/2 867/586/2
f 876/588/2 877/590/2 880/882/2
f 880/882/2 881/591/2 876/588/2
f 869/883/2 866/585/2 873/593/2
f 866/585/2 882/594/2 873/593/2
f 886/595/2 885/881/2 868/884/2
f 885/881/2 871/880/2 868/884/2
f 874/885/2 869/883/2 873/593/2
f 868/884/2 872/886/2 886/595/2
f 872/886/2 873/593/2 886/595/2
l 427 434
l 696 597
l 703 696
l 597 713
l 714 736
l 737 756
l 792 814
l 868 876
