# Blender v3.1.2 OBJ File: ''
# www.blender.org
mtllib kamunoNonPositionalVillager(w).mtl
o Plane.004_Plane.008
v 0.398570 0.900247 0.445057
v -0.398570 0.900247 0.445057
v 0.398570 1.402650 0.445057
v -0.398570 1.402650 0.445057
v 0.206941 0.900247 0.445057
v 0.126085 0.900247 0.445057
v -0.094114 0.900247 0.445057
v -0.182933 0.900247 0.445057
v -0.024622 1.402650 0.445057
v 0.022606 1.402650 0.445057
v 0.138774 1.086034 0.445057
v -0.122882 1.090820 0.445057
v -0.286221 1.215849 0.445057
v -0.083902 1.214524 0.445057
v 0.092053 1.213372 0.445057
v 0.296715 1.212032 0.445057
v 0.013711 0.986265 0.445057
v 0.004693 1.264339 0.441519
v 0.034562 1.261397 0.441519
v 0.063284 1.252684 0.441519
v 0.089754 1.238536 0.441519
v 0.112955 1.219495 0.441519
v 0.131995 1.196294 0.441519
v 0.146144 1.169824 0.441519
v 0.154856 1.141103 0.441519
v 0.157798 1.111233 0.441519
v 0.154856 1.081364 0.441519
v 0.146144 1.052643 0.441519
v 0.131995 1.026173 0.441519
v 0.112955 1.002972 0.441519
v 0.089754 0.983931 0.441519
v 0.063284 0.969783 0.441519
v 0.034562 0.961070 0.441519
v 0.004693 0.958128 0.441519
v -0.025176 0.961070 0.441519
v -0.053898 0.969783 0.441519
v -0.080368 0.983931 0.441519
v -0.103569 1.002972 0.441519
v -0.122609 1.026173 0.441519
v -0.136758 1.052643 0.441519
v -0.145470 1.081364 0.441520
v -0.148412 1.111233 0.441519
v -0.145470 1.141103 0.441519
v -0.136758 1.169824 0.441519
v -0.122609 1.196294 0.441519
v -0.103569 1.219495 0.441519
v -0.080368 1.238536 0.441519
v -0.053898 1.252684 0.441519
v -0.025176 1.261397 0.441519
v 0.097318 1.049133 0.441519
v 0.024895 0.983500 0.441519
v -0.010411 0.984858 0.441519
v -0.118592 1.154598 0.441519
v -0.117687 1.168630 0.441519
v -0.078760 1.169083 0.441519
v 0.009958 1.036006 0.441519
v 0.043906 1.062259 0.441519
v 0.053864 1.070407 0.441519
v 0.099581 1.069954 0.441519
v -0.398570 0.900247 0.446197
v 0.398570 0.900247 0.446196
v -0.398570 1.402650 0.446197
v 0.398570 1.402650 0.446196
v -0.206941 0.900247 0.446197
v -0.126085 0.900247 0.446197
v 0.094114 0.900247 0.446196
v 0.182933 0.900247 0.446196
v 0.024622 1.402650 0.446196
v -0.022605 1.402650 0.446196
v -0.138774 1.086034 0.446197
v 0.122882 1.090820 0.446196
v 0.286221 1.215849 0.446196
v 0.083902 1.214524 0.446196
v -0.092053 1.213372 0.446196
v -0.296715 1.212032 0.446197
v -0.013711 0.986265 0.446196
v -0.004693 1.264339 0.449734
v -0.034562 1.261397 0.449734
v -0.063284 1.252684 0.449734
v -0.089754 1.238536 0.449734
v -0.112955 1.219495 0.449734
v -0.131995 1.196294 0.449734
v -0.146144 1.169824 0.449734
v -0.154856 1.141103 0.449734
v -0.157798 1.111233 0.449734
v -0.154856 1.081364 0.449734
v -0.146144 1.052643 0.449734
v -0.131995 1.026173 0.449734
v -0.112955 1.002972 0.449734
v -0.089754 0.983931 0.449734
v -0.063284 0.969783 0.449734
v -0.034562 0.961070 0.449734
v -0.004693 0.958128 0.449734
v 0.025176 0.961070 0.449734
v 0.053898 0.969783 0.449734
v 0.080368 0.983931 0.449734
v 0.103569 1.002972 0.449734
v 0.122609 1.026173 0.449734
v 0.136758 1.052643 0.449734
v 0.145470 1.081364 0.449734
v 0.148412 1.111233 0.449734
v 0.145470 1.141103 0.449734
v 0.136758 1.169824 0.449734
v 0.122609 1.196294 0.449734
v 0.103569 1.219495 0.449734
v 0.080368 1.238536 0.449734
v 0.053898 1.252684 0.449734
v 0.025176 1.261397 0.449734
v -0.097318 1.049133 0.449734
v -0.024895 0.983500 0.449734
v 0.010411 0.984858 0.449734
v 0.118592 1.154598 0.449734
v 0.117687 1.168630 0.449734
v 0.078760 1.169083 0.449734
v -0.009958 1.036006 0.449734
v -0.043906 1.062259 0.449734
v -0.053864 1.070407 0.449734
v -0.099581 1.069954 0.449734
v -0.171673 1.870776 0.223271
v -0.151993 1.532491 -0.162067
v -0.128755 1.865287 -0.132532
v 0.171673 1.870776 0.223271
v 0.151993 1.532491 -0.162067
v 0.128755 1.865287 -0.132532
v -0.073274 1.261236 -0.075792
v -0.073274 1.263270 0.060681
v 0.073274 1.261236 -0.075792
v 0.073274 1.263270 0.060682
v -0.067058 0.930506 -0.067058
v -0.067058 0.930506 0.067058
v 0.067058 0.930506 -0.067059
v 0.067058 0.930506 0.067058
v -0.166054 -0.110986 -0.274829
v -0.141181 -0.061563 0.141181
v 0.166054 -0.110986 -0.274829
v 0.141181 -0.061563 0.141181
v 0.134382 0.384994 0.134382
v 0.141535 0.385134 -0.180009
v -0.141535 0.385134 -0.180010
v -0.134382 0.384994 0.134382
v 0.058917 -0.060687 -0.594603
v -0.058917 -0.060687 -0.594603
v -0.047707 0.237018 -0.426367
v 0.047707 0.237018 -0.426367
v -0.128755 1.716319 0.531253
v 0.128755 1.716319 0.531253
v -0.093408 1.492533 0.384803
v -0.191417 1.516184 0.187183
v 0.093408 1.492533 0.384803
v 0.191417 1.516184 0.187183
v -0.093408 1.491788 0.485057
v -0.156020 1.540271 0.540142
v 0.093407 1.491788 0.485057
v 0.156020 1.540271 0.540142
v -0.077754 1.471774 0.415759
v 0.077754 1.471774 0.415759
v -0.077754 1.470704 0.468433
v 0.077754 1.470704 0.468433
v -0.124059 1.416291 0.426458
v 0.123518 1.416291 0.426458
v -0.124059 1.415071 0.455601
v 0.123518 1.415071 0.455601
v -0.126948 1.392913 0.429939
v 0.126197 1.392913 0.429939
v -0.126948 1.391842 0.451583
v 0.126197 1.391842 0.451583
v -0.365602 1.406677 0.430031
v -0.365602 1.405607 0.451675
v -0.365602 1.392913 0.429939
v -0.365602 1.391842 0.451583
v -0.425309 1.404823 0.432725
v -0.425309 1.404020 0.448958
v -0.425309 1.394499 0.432656
v -0.425309 1.393696 0.448889
v 0.361471 1.406677 0.430031
v 0.361471 1.405607 0.451675
v 0.361471 1.392913 0.429939
v 0.361471 1.391842 0.451583
v 0.419113 1.404823 0.432725
v 0.419113 1.404020 0.448958
v 0.419113 1.394499 0.432656
v 0.419113 1.393696 0.448889
v -0.164321 1.896739 0.005910
v -0.161861 1.727487 -0.169224
v 0.000000 1.530966 -0.211509
v -0.000000 1.892979 -0.158159
v 0.161861 1.727487 -0.169224
v 0.164321 1.896739 0.005909
v 0.000000 1.927332 0.230826
v -0.100751 1.262253 -0.007555
v 0.000000 1.260855 -0.101381
v 0.100751 1.262253 -0.007555
v 0.000000 1.263652 0.086270
v 0.112633 1.383367 -0.119874
v -0.112633 1.383367 -0.119874
v -0.092205 0.930506 0.000000
v -0.000000 0.930506 -0.092205
v 0.092205 0.930506 0.000000
v 0.000000 0.930506 0.092205
v -0.057737 1.120533 0.056163
v 0.057737 1.120533 0.056163
v 0.057737 1.120279 -0.058052
v -0.057737 1.120279 -0.058052
v -0.182004 -0.102656 -0.017516
v -0.000000 -0.185412 -0.291655
v 0.182004 -0.102657 -0.017516
v 0.000000 -0.094182 0.176264
v 0.162897 0.106126 0.162897
v 0.096640 0.678543 -0.099722
v -0.206994 0.097815 -0.229662
v -0.095671 0.676461 0.095671
v 0.095671 0.676461 0.095671
v 0.206994 0.097815 -0.229662
v -0.096640 0.678543 -0.099722
v -0.162897 0.106126 0.162897
v 0.000000 0.463738 -0.204872
v 0.000000 0.384994 0.184775
v -0.186755 0.385009 -0.005032
v 0.186755 0.385009 -0.005032
v -0.000000 -0.093242 -0.636698
v -0.057014 0.088230 -0.528624
v 0.057014 0.088230 -0.528624
v 0.000000 0.269701 -0.420549
v 0.109368 -0.102110 -0.498097
v 0.088119 0.288162 -0.329008
v -0.109368 -0.102110 -0.498097
v -0.088119 0.288162 -0.329008
v -0.000000 1.720603 0.554113
v -0.164321 1.792435 0.420434
v 0.164321 1.792435 0.420434
v -0.128683 1.497114 0.320696
v 0.000000 1.468429 0.189779
v 0.128683 1.497114 0.320696
v 0.000000 1.492672 0.366005
v -0.124714 1.500560 0.511670
v -0.000000 1.491648 0.503855
v 0.124714 1.500560 0.511670
v -0.000000 1.534461 0.588082
v 0.128435 1.492160 0.434930
v 0.220285 1.550738 0.402058
v -0.128435 1.492160 0.434930
v -0.220285 1.550738 0.402058
v -0.116980 1.385229 0.083911
v -0.215126 1.533817 -0.021788
v -0.241024 1.714410 0.203444
v 0.116980 1.385229 0.083911
v -0.162365 1.628995 0.551265
v 0.215125 1.533817 -0.021788
v 0.241024 1.714410 0.203445
v 0.162365 1.628995 0.551265
v -0.000000 1.471975 0.405883
v 0.000000 1.470503 0.478309
v 0.106912 1.471239 0.442096
v -0.106912 1.471239 0.442096
v -0.079711 1.485429 0.473073
v 0.079711 1.485429 0.473073
v 0.079711 1.486458 0.409797
v -0.079711 1.486458 0.409797
v -0.000056 1.418307 0.421589
v -0.000056 1.416781 0.460564
v 0.156400 1.420268 0.441095
v -0.157106 1.420268 0.441095
v 0.082514 1.444421 0.461770
v 0.082514 1.445508 0.421393
v -0.082569 1.445508 0.421393
v -0.082569 1.444421 0.461770
v -0.000094 1.392912 0.429939
v -0.000094 1.391842 0.451583
v 0.126197 1.389797 0.440744
v -0.126948 1.389797 0.440744
v -0.126638 1.400996 0.425387
v -0.126638 1.399497 0.456264
v 0.125910 1.399497 0.456264
v 0.125910 1.400996 0.425387
v -0.365602 1.408723 0.440870
v -0.365602 1.389796 0.440744
v -0.365602 1.399996 0.425927
v -0.365602 1.398524 0.455688
v -0.260227 1.407672 0.429701
v -0.260227 1.406585 0.452042
v -0.259727 1.392912 0.429939
v -0.259727 1.391842 0.451583
v -0.426297 1.405552 0.440849
v -0.426297 1.392967 0.440765
v -0.426297 1.399749 0.430912
v -0.426297 1.398770 0.450702
v -0.414459 1.406359 0.430493
v -0.414459 1.405335 0.451210
v -0.414459 1.392160 0.451122
v -0.414459 1.393184 0.430404
v 0.361471 1.408723 0.440870
v 0.361471 1.389796 0.440744
v 0.361471 1.398524 0.455688
v 0.361471 1.399995 0.425927
v 0.257427 1.391842 0.451583
v 0.257950 1.406585 0.452042
v 0.257427 1.392913 0.429939
v 0.257950 1.407672 0.429701
v 0.419977 1.405552 0.440849
v 0.419977 1.392967 0.440765
v 0.419977 1.398770 0.450702
v 0.419977 1.399749 0.430912
v 0.408945 1.392160 0.451122
v 0.408945 1.405335 0.451210
v 0.408945 1.406359 0.430493
v 0.408945 1.393185 0.430404
v 0.000000 1.485236 0.484937
v -0.000000 1.729160 -0.224604
v 0.232961 1.673247 0.409346
v -0.000000 1.834427 0.427924
v -0.000000 1.382271 -0.156681
v -0.000000 1.956638 0.008619
v 0.000000 1.120581 0.077578
v -0.232364 1.731191 -0.011520
v 0.232364 1.731191 -0.011520
v -0.232961 1.673247 0.409346
v 0.230527 0.101325 -0.009128
v 0.000000 1.120231 -0.079467
v 0.079388 1.120406 -0.000944
v -0.079388 1.120406 -0.000944
v 0.000000 -0.174096 -0.015642
v -0.230527 0.101325 -0.009128
v 0.000000 0.102910 0.225060
v 0.133551 0.089933 -0.414925
v -0.000000 0.684753 -0.134162
v 0.000000 0.676461 0.131548
v -0.131790 0.676464 -0.000971
v 0.131790 0.676464 -0.000971
v 0.000000 0.088364 -0.566689
v -0.000000 -0.173543 -0.533012
v 0.000000 0.361679 -0.300755
v -0.133551 0.089933 -0.414925
v -0.000000 1.614168 0.600421
v 0.155958 1.385727 -0.019974
v 0.000000 1.382256 0.118690
v -0.000000 1.492900 0.289081
v -0.000000 1.499803 0.545747
v 0.172474 1.501330 0.418644
v -0.172474 1.501330 0.418644
v -0.155958 1.385728 -0.019974
v 0.112824 1.445306 0.441586
v 0.000000 1.486652 0.397933
v -0.109603 1.485943 0.441435
v 0.109603 1.485943 0.441435
v -0.262812 1.410084 0.440897
v -0.000010 1.445760 0.413875
v -0.112907 1.445306 0.441586
v -0.000010 1.444280 0.469293
v -0.000094 1.389796 0.440744
v -0.000088 1.399859 0.456727
v 0.257355 1.398706 0.455778
v -0.000088 1.401384 0.424940
v -0.414557 1.408325 0.440868
v -0.259650 1.400182 0.425843
v -0.259650 1.398706 0.455778
v -0.259727 1.389796 0.440744
v -0.428369 1.399260 0.440807
v -0.414557 1.398555 0.455061
v -0.414557 1.390195 0.440747
v -0.414557 1.399965 0.426553
v 0.409030 1.398554 0.455061
v 0.257427 1.389796 0.440744
v 0.257355 1.400182 0.425843
v 0.260523 1.410084 0.440897
v 0.421791 1.399259 0.440807
v 0.409030 1.408324 0.440868
v 0.409030 1.399965 0.426553
v 0.409030 1.390195 0.440747
vt 0.396938 0.876491
vt 0.377507 0.836307
vt 0.395055 0.829658
vt 0.375511 0.914554
vt 0.377487 0.875215
vt 0.375000 0.912744
vt 0.375000 0.875000
vt 0.375000 0.837257
vt 0.375000 0.250000
vt 0.503596 0.375000
vt 0.409753 0.375000
vt 0.625000 0.250000
vt 0.501485 0.253056
vt 0.625000 0.500000
vt 0.501501 0.496867
vt 0.375000 0.500000
vt 0.492828 0.750000
vt 0.454859 0.765181
vt 0.360655 0.750000
vt 0.633950 0.750000
vt 0.534082 0.755468
vt 0.625000 0.750000
vt 0.560591 0.789144
vt 0.496888 0.799265
vt 0.625000 0.750000
vt 0.750923 0.746528
vt 0.875000 0.750000
vt 0.750246 0.715201
vt 0.875000 0.750000
vt 0.750000 0.750000
vt 0.375000 0.250000
vt 0.375000 0.500000
vt 0.378472 0.375000
vt 0.375000 0.500000
vt 0.375000 0.375000
vt 0.375000 0.250000
vt 0.750062 0.621222
vt 0.625633 0.620999
vt 0.875000 0.500000
vt 0.750000 0.500000
vt 0.875000 0.625000
vt 0.375000 0.875000
vt 0.375000 0.750000
vt 0.375000 0.750000
vt 0.375000 1.000000
vt 0.375000 0.875000
vt 0.375000 1.000000
vt 0.375000 0.875000
vt 0.375000 0.750000
vt 0.504443 0.022005
vt 0.379443 0.147005
vt 0.383886 0.044010
vt 0.625000 0.125000
vt 0.502283 0.136308
vt 0.379443 0.602995
vt 0.502345 0.613386
vt 0.504443 0.727995
vt 0.383886 0.705990
vt 0.492828 0.000000
vt 0.625000 0.000000
vt 0.625000 0.000000
vt 0.441461 0.000000
vt 0.533231 0.000000
vt 0.573634 0.000000
vt 0.625000 0.000000
vt 0.375000 0.500000
vt 0.375000 0.625000
vt 0.375000 0.500000
vt 0.375000 0.625000
vt 0.375000 0.750000
vt 0.375000 0.750000
vt 0.375000 0.625000
vt 0.375000 0.500000
vt 0.375000 0.250000
vt 0.375000 0.500000
vt 0.375000 0.375000
vt 0.375000 0.375000
vt 0.375000 0.250000
vt 0.375000 0.625000
vt 0.375000 0.625000
vt 0.375000 0.625000
vt 0.375000 0.500000
vt 0.375000 0.000000
vt 0.375000 0.125000
vt 0.375000 0.000000
vt 0.375000 0.125000
vt 0.375000 0.125000
vt 0.375000 0.000000
vt 0.125000 0.500000
vt 0.250000 0.628472
vt 0.125000 0.625000
vt 0.249132 0.534722
vt 0.250000 0.750000
vt 0.125000 0.750000
vt 0.375000 0.125000
vt 0.375000 0.000000
vt 0.375000 0.000000
vt 0.375000 0.250000
vt 0.375000 0.125000
vt 0.375000 0.250000
vt 0.375000 0.125000
vt 0.375000 0.000000
vt 0.375000 0.875000
vt 0.375000 0.750000
vt 0.375000 1.000000
vt 0.375000 0.875000
vt 0.375000 1.000000
vt 0.375000 0.875000
vt 0.375000 0.465278
vt 0.371528 0.496528
vt 0.340278 0.500868
vt 0.375000 0.500000
vt 0.375000 0.500000
vt 0.375000 0.375000
vt 0.375000 0.250000
vt 0.375000 0.500000
vt 0.375000 0.375000
vt 0.375000 0.875000
vt 0.375000 0.750000
vt 0.375000 1.000000
vt 0.375000 0.125000
vt 0.375000 0.000000
vt 0.375000 0.625000
vt 0.375000 0.250000
vt 0.375000 0.375000
vt 0.375000 0.250000
vt 0.375000 0.375000
vt 0.375000 0.500000
vt 0.375000 0.375000
vt 0.375000 0.250000
vt 0.125000 0.500000
vt 0.246528 0.503472
vt 0.125000 0.500000
vt 0.250000 0.500000
vt 0.375000 0.375000
vt 0.375000 0.284722
vt 0.375000 0.250000
vt 0.375000 0.253472
vt 0.375000 0.250000
vt 0.571317 0.879518
vt 0.513219 0.880683
vt 0.625000 1.000000
vt 0.573634 1.000000
vt 0.522267 1.000000
vt 0.375000 0.613493
vt 0.375000 0.601986
vt 0.375000 0.726986
vt 0.375000 0.875000
vt 0.375000 0.740383
vt 0.375000 0.730766
vt 0.375000 1.009617
vt 0.375000 0.875000
vt 0.375000 1.000000
vt 0.375000 0.975424
vt 0.375000 1.019234
vt 0.375000 0.774576
vt 0.375000 0.875000
vt 0.375000 0.818385
vt 0.375000 0.875000
vt 0.375000 0.931615
vt 0.375000 0.931615
vt 0.448804 0.878784
vt 0.448634 0.965808
vt 0.437867 0.814462
vt 0.385715 0.811164
vt 0.409523 0.787976
vt 0.367828 0.784193
vt 0.375000 0.966757
vt 0.375000 0.965808
vt 0.375000 0.940327
vt 0.375000 0.965808
vt 0.375000 1.000000
vt 0.375000 1.000000
vt 0.375000 1.000000
vt 0.375000 0.148014
vt 0.375000 0.023014
vt 0.375000 0.046028
vt 0.375000 0.136507
vt 0.375000 0.823103
vt 0.375000 0.836691
vt 0.375000 0.837257
vt 0.375000 0.836691
vt 0.375000 0.822820
vt 0.375000 0.831973
vt 0.375000 0.821184
vt 0.375000 0.831973
vt 0.375000 0.914554
vt 0.375231 0.835447
vt 0.375000 0.875000
vt 0.375000 0.875000
vt 0.375000 0.912743
vt 0.375000 0.928633
vt 0.375000 0.926897
vt 0.376364 0.821582
vt 0.375000 0.928816
vt 0.375000 0.930216
vt 0.375000 0.918028
vt 0.375000 0.930215
vt 0.375000 0.931112
vt 0.375000 0.931615
vt 0.375000 0.931615
vt 0.375000 0.931615
vt 0.375000 0.875000
vt 0.375000 0.913310
vt 0.375000 0.875000
vt 0.375000 0.918028
vt 0.375000 0.913310
vt 0.375000 0.927180
vt 0.375000 0.875000
vt 0.375000 0.875000
vt 0.375000 0.912744
vt 0.375000 0.875000
vt 0.375000 0.912744
vt 0.375000 0.875000
vt 0.375000 0.837257
vt 0.375000 0.875000
vt 0.375000 0.912744
vt 0.375000 0.875000
vt 0.375000 0.836690
vt 0.375000 0.913310
vt 0.375000 0.837257
vt 0.375000 0.819785
vt 0.375000 0.820602
vt 0.375000 0.820744
vt 0.375000 0.818385
vt 0.375000 0.818385
vt 0.375000 0.875000
vt 0.375000 0.913310
vt 0.375000 0.836691
vt 0.375000 0.931615
vt 0.375000 0.931615
vt 0.375000 0.931615
vt 0.375000 0.931615
vt 0.375000 0.931615
vt 0.375000 0.931615
vt 0.375000 0.929398
vt 0.375000 0.929256
vt 0.375000 0.931615
vt 0.375000 0.929398
vt 0.375000 0.929256
vt 0.375000 0.931615
vt 0.375000 0.931615
vt 0.375000 0.929256
vt 0.375000 0.931615
vt 0.375000 0.931615
vt 0.375000 0.931615
vt 0.375000 0.931615
vt 0.375000 0.931615
vt 0.375000 0.931615
vt 0.375000 0.931615
vt 0.375000 0.931615
vt 0.375000 0.931615
vt 0.375000 0.931615
vt 0.375000 0.931615
vt 0.375000 0.931615
vt 0.375000 0.931615
vt 0.375000 0.818385
vt 0.375000 0.818385
vt 0.375000 0.818385
vt 0.375000 0.818385
vt 0.375000 0.818385
vt 0.375000 0.818385
vt 0.375000 0.820744
vt 0.375000 0.820744
vt 0.375000 0.818385
vt 0.375000 0.818385
vt 0.375000 0.837257
vt 0.375000 0.820602
vt 0.375000 0.819785
vt 0.375000 0.818385
vt 0.375000 0.818385
vt 0.375000 0.818888
vt 0.375000 0.818385
vt 0.375000 0.818385
vt 0.375000 0.818385
vt 0.375000 0.818385
vt 0.375000 0.818385
vt 0.375000 0.818385
vt 0.375000 0.818385
vt 0.375000 0.818385
vt 0.375000 0.818385
vt 0.375000 0.818385
vt 0.375000 0.818385
vt 0.375000 0.818385
vt 0.375000 0.818385
vt 0.625000 0.375000
vt 0.875000 0.750000
vt 0.360655 0.000000
vt 0.522267 0.000000
vt 0.375000 1.000000
vt 0.625000 0.875000
vt 0.375000 0.703972
vt 0.127775 0.620587
vt 0.471642 1.000000
vt 0.000000 1.000000
vt 1.000000 0.000000
vt 1.000000 1.000000
vt 0.859060 0.628183
vt 0.618064 0.000000
vt 0.482800 0.171212
vt 0.341828 0.000000
vt 0.000000 0.000000
vt 0.240396 0.000000
vt 0.325910 0.369796
vt 0.384521 0.623254
vt 0.530888 1.000000
vt 0.605254 0.625547
vt 0.654154 0.379323
vt 0.729487 0.000000
vt 0.000000 0.000000
vt 0.000000 0.000000
vt 0.000000 0.000000
vt 0.000000 0.000000
vt 0.000000 0.000000
vt 0.000000 0.000000
vt 0.000000 0.000000
vt 0.000000 0.000000
vt 0.000000 0.000000
vt 0.000000 0.000000
vt 0.000000 0.000000
vt 0.000000 0.000000
vt 0.000000 0.000000
vt 0.000000 0.000000
vt 0.000000 0.000000
vt 0.000000 0.000000
vt 0.000000 0.000000
vt 0.000000 0.000000
vt 0.000000 0.000000
vt 0.000000 0.000000
vt 0.000000 0.000000
vt 0.000000 0.000000
vt 0.000000 0.000000
vt 0.000000 0.000000
vt 0.000000 0.000000
vt 0.000000 0.000000
vt 0.000000 0.000000
vt 0.000000 0.000000
vt 0.000000 0.000000
vt 0.000000 0.000000
vt 0.000000 0.000000
vt 0.000000 0.000000
vt 0.000000 0.000000
vt 0.000000 0.000000
vt 0.000000 0.000000
vt 0.000000 0.000000
vt 0.000000 0.000000
vt 0.000000 0.000000
vt 0.000000 0.000000
vt 0.000000 0.000000
vt 0.000000 0.000000
vt 0.000000 0.000000
vt 0.127775 0.620587
vt 0.471642 1.000000
vt 0.000000 1.000000
vt 1.000000 0.000000
vt 1.000000 1.000000
vt 0.859060 0.628183
vt 0.618064 0.000000
vt 0.482800 0.171212
vt 0.341828 0.000000
vt 0.000000 0.000000
vt 0.240396 0.000000
vt 0.325910 0.369796
vt 0.384521 0.623254
vt 0.530888 1.000000
vt 0.605254 0.625547
vt 0.654154 0.379323
vt 0.729487 0.000000
vt 0.000000 0.000000
vt 0.000000 0.000000
vt 0.000000 0.000000
vt 0.000000 0.000000
vt 0.000000 0.000000
vt 0.000000 0.000000
vt 0.000000 0.000000
vt 0.000000 0.000000
vt 0.000000 0.000000
vt 0.000000 0.000000
vt 0.000000 0.000000
vt 0.000000 0.000000
vt 0.000000 0.000000
vt 0.000000 0.000000
vt 0.000000 0.000000
vt 0.000000 0.000000
vt 0.000000 0.000000
vt 0.000000 0.000000
vt 0.000000 0.000000
vt 0.000000 0.000000
vt 0.000000 0.000000
vt 0.000000 0.000000
vt 0.000000 0.000000
vt 0.000000 0.000000
vt 0.000000 0.000000
vt 0.000000 0.000000
vt 0.000000 0.000000
vt 0.000000 0.000000
vt 0.000000 0.000000
vt 0.000000 0.000000
vt 0.000000 0.000000
vt 0.000000 0.000000
vt 0.000000 0.000000
vt 0.000000 0.000000
vt 0.000000 0.000000
vt 0.000000 0.000000
vt 0.000000 0.000000
vt 0.000000 0.000000
vt 0.000000 0.000000
vt 0.000000 0.000000
vt 0.000000 0.000000
vt 0.000000 0.000000
vn 0.0806 -0.9157 0.3937
vn -0.0500 -0.9459 0.3206
vn -0.1161 -0.4075 0.9058
vn 0.1405 -0.3145 0.9388
vn -0.3093 -0.0627 -0.9489
vn -0.3103 0.3135 -0.8975
vn 0.3103 0.3135 -0.8975
vn 0.3093 -0.0627 -0.9489
vn 0.9677 -0.2346 -0.0923
vn 0.8643 0.4856 0.1309
vn 0.7601 0.4084 0.5054
vn 0.9038 -0.1163 0.4118
vn 0.2460 0.8976 0.3658
vn -0.3020 0.8623 0.4065
vn -0.1422 0.7350 0.6630
vn 0.2237 0.7684 0.5996
vn -0.2949 -0.3314 -0.8962
vn 0.2961 -0.3304 -0.8962
vn 0.3047 -0.3948 -0.8668
vn -0.2875 -0.4058 -0.8676
vn 0.3238 0.9013 -0.2879
vn -0.2624 0.9015 -0.3441
vn -0.3417 0.9318 0.1229
vn 0.3153 0.9435 0.1020
vn 0.3287 -0.0656 0.9422
vn -0.3472 -0.0569 0.9361
vn -0.3502 0.0719 0.9339
vn 0.3469 0.0706 0.9352
vn -0.9645 -0.2486 0.0885
vn -0.9246 0.3808 -0.0075
vn -0.8644 0.3125 -0.3938
vn -0.9104 -0.0611 -0.4092
vn 0.9104 -0.0611 -0.4092
vn 0.8644 0.3125 -0.3938
vn 0.9246 0.3808 -0.0075
vn 0.9645 -0.2486 0.0885
vn -0.9069 0.3789 0.1844
vn -0.9944 -0.1040 0.0182
vn -0.9033 -0.1180 0.4125
vn -0.7632 0.3917 0.5140
vn 0.9653 0.2384 -0.1068
vn 0.9232 0.1373 0.3591
vn 0.9257 -0.2325 0.2983
vn 0.9820 -0.1806 -0.0550
vn -0.3265 -0.1534 -0.9327
vn 0.3442 -0.1446 -0.9277
vn 0.3470 0.0628 -0.9357
vn -0.3505 0.0616 -0.9346
vn 0.9182 -0.1475 -0.3676
vn 0.9201 -0.1212 0.3723
vn 0.9331 0.0647 0.3536
vn 0.9345 0.0625 -0.3504
vn -0.9291 -0.1123 0.3525
vn -0.9238 -0.1554 -0.3499
vn -0.9333 0.0612 -0.3540
vn -0.9343 0.0659 0.3504
vn -0.3654 -0.9308 0.0075
vn 0.4056 -0.9133 0.0374
vn 0.2951 -0.8821 0.3673
vn -0.3492 -0.8814 0.3181
vn -0.9281 0.1306 0.3487
vn -0.9571 0.1512 -0.2472
vn -0.9689 -0.2264 -0.0998
vn -0.9162 -0.1659 0.3648
vn 0.3481 0.1305 0.9283
vn -0.3511 0.1324 0.9269
vn -0.2845 -0.2304 0.9306
vn 0.3545 -0.1651 0.9204
vn 0.8355 0.2728 -0.4770
vn 0.9262 -0.1031 -0.3628
vn 0.8208 0.1368 -0.5546
vn 0.7535 0.3991 -0.5224
vn -0.3405 0.1601 -0.9265
vn 0.3467 0.1579 -0.9246
vn 0.3379 0.2868 -0.8964
vn -0.3221 0.2954 -0.8995
vn 0.3475 0.1435 0.9266
vn -0.3475 0.1435 0.9266
vn -0.3461 0.1685 0.9229
vn 0.3461 0.1685 0.9229
vn -0.9270 0.1434 0.3465
vn -0.9263 0.1457 -0.3474
vn -0.9280 0.1796 -0.3265
vn -0.9233 0.1685 0.3451
vn 0.9322 0.1520 -0.3286
vn 0.9267 0.1431 0.3475
vn 0.9226 0.1692 0.3466
vn 0.9463 0.2117 -0.2444
vn -0.4757 0.5182 -0.7107
vn 0.3176 0.5950 -0.7383
vn 0.4238 0.3258 -0.8451
vn -0.5204 0.3515 -0.7782
vn 0.4168 -0.8979 -0.1415
vn -0.5555 -0.8305 -0.0408
vn -0.6582 -0.5952 -0.4610
vn 0.5714 -0.6024 -0.5573
vn -0.3928 0.7000 -0.5964
vn 0.4531 0.6104 -0.6497
vn 0.4227 0.7188 -0.5519
vn -0.4240 0.7173 -0.5528
vn -0.9690 -0.0152 -0.2466
vn -0.8645 0.3532 -0.3577
vn -0.7569 0.4017 -0.5155
vn -0.9013 0.1851 -0.3917
vn 0.2955 -0.1461 0.9441
vn 0.2500 0.3067 0.9184
vn -0.2500 0.3067 0.9184
vn -0.2955 -0.1461 0.9441
vn 0.8678 -0.3333 -0.3685
vn 0.8786 -0.3470 0.3280
vn 0.8747 -0.3582 0.3265
vn 0.8440 -0.4007 -0.3566
vn 0.1768 -0.6695 0.7215
vn -0.2384 -0.6180 0.7491
vn -0.3181 -0.2500 0.9145
vn 0.2804 -0.2756 0.9195
vn -0.2417 -0.9700 -0.0250
vn -0.0270 -0.9706 0.2392
vn -0.0009 -1.0000 -0.0030
vn -0.0442 -0.9979 -0.0470
vn -0.0705 -0.9691 0.2365
vn 0.0399 -0.9808 0.1909
vn 0.1750 -0.7618 0.6237
vn -0.2377 -0.6828 0.6909
vn 0.1757 -0.9776 0.1155
vn 0.1600 -0.9799 -0.1191
vn 0.6491 -0.7152 -0.2594
vn 0.6231 -0.7163 0.3140
vn -0.1141 -0.9934 -0.0082
vn -0.2438 -0.9627 0.1172
vn -0.7342 -0.6113 0.2954
vn -0.4475 -0.8904 0.0831
vn -0.8499 -0.5243 0.0522
vn -0.8565 -0.3469 -0.3822
vn -0.8472 -0.4125 -0.3350
vn -0.8582 -0.3744 0.3512
vn 0.6694 -0.0378 -0.7419
vn 0.5488 0.1088 0.8289
vn 0.2878 0.4847 0.8260
vn 0.4698 0.5380 -0.6999
vn -0.0417 -0.9759 -0.2143
vn 0.0252 -0.9824 -0.1852
vn 0.1286 -0.4723 -0.8720
vn -0.1152 -0.3868 -0.9149
vn -0.2473 -0.9440 0.2183
vn -0.2311 -0.9445 -0.2337
vn -0.6608 -0.1539 -0.7347
vn -0.6411 -0.3069 0.7035
vn 0.1840 -0.9735 -0.1358
vn 0.3827 -0.8863 0.2608
vn 0.7239 -0.1018 0.6823
vn 0.6774 -0.3524 -0.6457
vn -0.0671 0.8809 0.4686
vn -0.0929 0.9687 -0.2302
vn -0.0130 0.9826 -0.1854
vn -0.0099 0.9534 0.3016
vn -0.0884 -0.1934 -0.9771
vn 0.1199 -0.2896 -0.9496
vn 0.0865 -0.2696 -0.9591
vn -0.0370 -0.1195 -0.9921
vn -0.6695 -0.0649 0.7399
vn -0.5490 0.1431 -0.8234
vn -0.2901 0.5277 -0.7983
vn -0.4669 0.5078 0.7240
vn 0.0887 -0.2296 0.9692
vn -0.1201 -0.3228 0.9388
vn -0.0870 -0.3013 0.9496
vn 0.0375 -0.1551 0.9872
vn -0.0000 -0.9608 -0.2771
vn 0.0000 -0.9827 0.1854
vn -0.0000 -0.9827 0.1855
vn 0.0038 0.0431 0.9991
vn -0.0360 -0.2209 0.9746
vn -0.0015 -0.5400 0.8417
vn -0.0000 -0.5217 0.8531
vn 0.0294 0.0470 0.9985
vn -0.0002 -0.5215 0.8533
vn 0.0077 0.4929 0.8701
vn -0.0037 0.0705 -0.9975
vn 0.0355 -0.1942 -0.9803
vn 0.0015 -0.5082 -0.8612
vn -0.0000 -0.4907 -0.8713
vn -0.0080 0.9608 0.2771
vn -0.0080 0.9825 -0.1862
vn -0.2281 0.9669 -0.1146
vn -0.1717 0.9460 0.2751
vn -0.0285 0.0746 -0.9968
vn 0.0002 -0.4909 -0.8712
vn -0.0076 0.5234 -0.8520
vn 0.0000 -0.5215 0.8533
vn -0.0058 0.4281 0.9037
vn -0.0015 0.4283 0.9036
vn 0.0000 -0.5234 0.8521
vn -0.9457 0.2478 0.2103
vn -0.9399 0.3105 -0.1421
vn -0.9360 -0.3071 -0.1720
vn -0.9497 -0.2515 0.1865
vn -0.0115 -0.5234 0.8520
vn -0.0108 0.4940 0.8694
vn -0.3200 0.3524 0.8794
vn -0.2421 -0.5116 0.8244
vn -0.0080 -0.9608 -0.2771
vn -0.0080 -0.9825 0.1861
vn -0.2281 -0.9669 0.1145
vn -0.1717 -0.9460 -0.2751
vn -0.0115 0.5234 -0.8520
vn -0.0108 -0.4940 -0.8694
vn -0.3200 -0.3524 -0.8794
vn -0.2421 0.5116 -0.8244
vn 0.0113 0.4929 0.8700
vn 0.0115 -0.5246 0.8513
vn 0.3503 -0.3675 0.8615
vn 0.2451 0.3418 0.9073
vn -0.0000 -0.4909 -0.8712
vn 0.0059 0.4575 -0.8892
vn 0.0015 0.4578 -0.8890
vn 0.0000 -0.4929 -0.8701
vn 0.0682 0.9133 -0.4015
vn 0.0929 0.9436 0.3177
vn 0.0130 0.9608 0.2771
vn 0.0101 0.9770 -0.2129
vn 0.9608 0.2226 -0.1651
vn 0.9499 0.2727 0.1528
vn 0.9530 -0.2755 0.1261
vn 0.9576 -0.2195 -0.1864
vn 0.0084 0.9826 -0.1854
vn 0.0081 0.9606 0.2777
vn 0.2406 0.9487 0.2049
vn 0.1863 0.9651 -0.1843
vn 0.0114 -0.4929 -0.8700
vn 0.0116 0.5246 -0.8513
vn 0.3503 0.3675 -0.8615
vn 0.2451 -0.3418 -0.9073
vn 0.0084 -0.9826 0.1854
vn 0.0081 -0.9606 -0.2778
vn 0.2406 -0.9488 -0.2049
vn 0.1863 -0.9651 0.1843
vn 0.0500 -0.9459 0.3206
vn -0.0806 -0.9157 0.3938
vn -0.1405 -0.3145 0.9388
vn 0.1161 -0.4075 0.9058
vn -0.3228 -0.0510 -0.9451
vn -0.2564 0.3633 -0.8957
vn 0.2564 0.3633 -0.8957
vn 0.3228 -0.0510 -0.9451
vn 0.9944 -0.1040 0.0182
vn 0.9069 0.3789 0.1844
vn 0.7632 0.3917 0.5140
vn 0.9033 -0.1180 0.4125
vn 0.3020 0.8623 0.4065
vn -0.2460 0.8976 0.3658
vn -0.2237 0.7684 0.5996
vn 0.1422 0.7350 0.6630
vn -0.2961 -0.3304 -0.8962
vn 0.2949 -0.3314 -0.8962
vn 0.2875 -0.4058 -0.8676
vn -0.3047 -0.3948 -0.8668
vn 0.2624 0.9015 -0.3441
vn -0.3238 0.9013 -0.2879
vn -0.3153 0.9435 0.1020
vn 0.3417 0.9318 0.1229
vn 0.3472 -0.0569 0.9361
vn -0.3287 -0.0656 0.9422
vn -0.3469 0.0706 0.9352
vn 0.3502 0.0719 0.9339
vn -0.9953 -0.0845 -0.0467
vn -0.9148 0.4035 0.0173
vn -0.8670 0.3891 -0.3112
vn -0.9119 -0.0585 -0.4063
vn 0.9119 -0.0585 -0.4063
vn 0.8670 0.3891 -0.3112
vn 0.9148 0.4035 0.0173
vn 0.9953 -0.0845 -0.0467
vn -0.8643 0.4856 0.1309
vn -0.9677 -0.2346 -0.0923
vn -0.9038 -0.1163 0.4118
vn -0.7601 0.4084 0.5054
vn 0.9571 0.1512 -0.2472
vn 0.9281 0.1306 0.3487
vn 0.9162 -0.1659 0.3648
vn 0.9689 -0.2264 -0.0998
vn -0.3442 -0.1446 -0.9277
vn 0.3265 -0.1534 -0.9327
vn 0.3505 0.0616 -0.9346
vn -0.3470 0.0628 -0.9357
vn 0.9238 -0.1554 -0.3499
vn 0.9291 -0.1123 0.3525
vn 0.9343 0.0659 0.3504
vn 0.9333 0.0612 -0.3540
vn -0.9201 -0.1212 0.3723
vn -0.9182 -0.1475 -0.3676
vn -0.9345 0.0625 -0.3504
vn -0.9331 0.0647 0.3536
vn -0.4056 -0.9133 0.0374
vn 0.3654 -0.9308 0.0075
vn 0.3492 -0.8814 0.3181
vn -0.2951 -0.8821 0.3673
vn -0.9232 0.1373 0.3591
vn -0.9653 0.2384 -0.1068
vn -0.9820 -0.1806 -0.0550
vn -0.9257 -0.2325 0.2983
vn 0.3511 0.1324 0.9269
vn -0.3481 0.1305 0.9283
vn -0.3545 -0.1651 0.9204
vn 0.2845 -0.2304 0.9306
vn 0.8645 0.3532 -0.3577
vn 0.9690 -0.0152 -0.2466
vn 0.9013 0.1851 -0.3917
vn 0.7569 0.4017 -0.5155
vn -0.3467 0.1579 -0.9246
vn 0.3405 0.1601 -0.9265
vn 0.3221 0.2954 -0.8995
vn -0.3379 0.2868 -0.8964
vn -0.9267 0.1431 0.3475
vn -0.9322 0.1520 -0.3286
vn -0.9463 0.2117 -0.2444
vn -0.9226 0.1692 0.3466
vn 0.9263 0.1457 -0.3474
vn 0.9270 0.1434 0.3465
vn 0.9233 0.1685 0.3451
vn 0.9280 0.1796 -0.3265
vn -0.3176 0.5950 -0.7383
vn 0.4757 0.5182 -0.7107
vn 0.5204 0.3515 -0.7782
vn -0.4238 0.3258 -0.8451
vn 0.5555 -0.8305 -0.0408
vn -0.4168 -0.8979 -0.1415
vn -0.5714 -0.6024 -0.5573
vn 0.6582 -0.5952 -0.4610
vn -0.4531 0.6104 -0.6497
vn 0.3928 0.7000 -0.5964
vn 0.4240 0.7173 -0.5528
vn -0.4227 0.7188 -0.5519
vn -0.9262 -0.1031 -0.3628
vn -0.8355 0.2728 -0.4770
vn -0.7535 0.3991 -0.5224
vn -0.8208 0.1368 -0.5546
vn 0.2986 -0.1397 0.9441
vn 0.1734 0.3929 0.9031
vn -0.1734 0.3929 0.9031
vn -0.2986 -0.1397 0.9441
vn 0.8565 -0.3469 -0.3822
vn 0.8499 -0.5243 0.0522
vn 0.8582 -0.3744 0.3512
vn 0.8472 -0.4125 -0.3350
vn 0.2384 -0.6180 0.7491
vn -0.1768 -0.6695 0.7215
vn -0.2804 -0.2756 0.9195
vn 0.3181 -0.2500 0.9145
vn 0.0270 -0.9706 0.2392
vn 0.2417 -0.9700 -0.0250
vn 0.0442 -0.9979 -0.0470
vn 0.0009 -1.0000 -0.0030
vn -0.0399 -0.9808 0.1909
vn 0.0705 -0.9691 0.2365
vn 0.2377 -0.6828 0.6909
vn -0.1750 -0.7618 0.6237
vn 0.2438 -0.9627 0.1172
vn 0.1141 -0.9934 -0.0082
vn 0.4475 -0.8904 0.0831
vn 0.7342 -0.6113 0.2954
vn -0.1600 -0.9799 -0.1191
vn -0.1757 -0.9776 0.1155
vn -0.6231 -0.7163 0.3140
vn -0.6491 -0.7152 -0.2594
vn -0.8786 -0.3470 0.3280
vn -0.8678 -0.3333 -0.3685
vn -0.8440 -0.4007 -0.3566
vn -0.8747 -0.3582 0.3265
vn 0.5495 0.1415 -0.8234
vn 0.6695 -0.0663 0.7399
vn 0.4690 0.5025 0.7263
vn 0.2924 0.5246 -0.7995
vn -0.0252 -0.9824 -0.1852
vn 0.0417 -0.9759 -0.2143
vn 0.1152 -0.3868 -0.9149
vn -0.1286 -0.4723 -0.8720
vn -0.3827 -0.8863 0.2608
vn -0.1840 -0.9735 -0.1358
vn -0.6774 -0.3524 -0.6457
vn -0.7239 -0.1018 0.6823
vn 0.2311 -0.9445 -0.2337
vn 0.2473 -0.9440 0.2183
vn 0.6411 -0.3069 0.7035
vn 0.6607 -0.1539 -0.7347
vn -0.0915 0.9438 0.3175
vn -0.0674 0.9138 -0.4005
vn -0.0099 0.9770 -0.2128
vn -0.0128 0.9608 0.2771
vn -0.1199 -0.2895 -0.9496
vn 0.0884 -0.1935 -0.9771
vn 0.0371 -0.1199 -0.9921
vn -0.0865 -0.2694 -0.9591
vn -0.5483 0.1104 0.8290
vn -0.6695 -0.0364 -0.7419
vn -0.4677 0.5433 -0.6972
vn -0.2854 0.4877 0.8250
vn 0.1201 -0.3228 0.9388
vn -0.0887 -0.2295 0.9693
vn -0.0374 -0.1546 0.9873
vn 0.0871 -0.3015 0.9495
vn 0.0361 -0.2211 0.9746
vn -0.0038 0.0432 0.9991
vn 0.0015 -0.5400 0.8417
vn 0.0059 0.4281 0.9037
vn 0.0015 0.4284 0.9036
vn -0.0353 -0.1941 -0.9804
vn 0.0038 0.0705 -0.9975
vn -0.0015 -0.5082 -0.8612
vn -0.0078 0.9606 0.2778
vn -0.0081 0.9826 -0.1854
vn -0.1750 0.9671 -0.1848
vn -0.2251 0.9520 0.2073
vn -0.0058 0.4576 -0.8892
vn -0.0015 0.4578 -0.8890
vn -0.0290 0.0473 0.9985
vn -0.0076 0.4929 0.8701
vn 0.0002 -0.5214 0.8533
vn -0.9360 0.3071 0.1720
vn -0.9497 0.2515 -0.1865
vn -0.9457 -0.2478 -0.2103
vn -0.9399 -0.3105 0.1421
vn -0.0112 -0.5246 0.8513
vn -0.0110 0.4929 0.8700
vn -0.2337 0.4828 0.8440
vn -0.3288 -0.3739 0.8672
vn -0.0078 -0.9606 -0.2778
vn -0.0081 -0.9826 0.1854
vn -0.1750 -0.9671 0.1848
vn -0.2251 -0.9520 -0.2073
vn -0.0112 0.5246 -0.8513
vn -0.0110 -0.4929 -0.8700
vn -0.2337 -0.4828 -0.8440
vn -0.3289 0.3739 -0.8672
vn 0.0111 0.4940 0.8694
vn 0.0118 -0.5234 0.8520
vn 0.2573 -0.5094 0.8212
vn 0.3182 0.4712 0.8226
vn 0.0288 0.0743 -0.9968
vn 0.0077 0.5234 -0.8521
vn -0.0002 -0.4909 -0.8712
vn 0.0943 0.9685 -0.2304
vn 0.0680 0.8803 0.4695
vn 0.0101 0.9534 0.3016
vn 0.0132 0.9826 -0.1854
vn 0.9530 0.2755 -0.1261
vn 0.9576 0.2195 0.1864
vn 0.9608 -0.2226 0.1651
vn 0.9499 -0.2727 -0.1527
vn 0.0082 0.9825 -0.1861
vn 0.0082 0.9608 0.2771
vn 0.1829 0.9441 0.2744
vn 0.2437 0.9633 -0.1124
vn 0.0111 -0.4940 -0.8694
vn 0.0118 0.5234 -0.8520
vn 0.2573 0.5093 -0.8212
vn 0.3182 -0.4713 -0.8226
vn 0.0082 -0.9825 0.1861
vn 0.0082 -0.9608 -0.2771
vn 0.1828 -0.9441 -0.2744
vn 0.2437 -0.9633 0.1124
vn -0.0000 -0.0000 -1.0000
vn 0.0000 0.0000 1.0000
usemtl Material.023
s off
f 236/1/1 256/2/1 153/3/1
f 236/1/2 255/4/2 307/5/2
f 307/5/3 157/6/3 252/7/3
f 307/5/4 158/8/4 256/2/4
f 120/9/5 308/10/5 185/11/5
f 121/12/6 308/10/6 184/13/6
f 308/10/7 124/14/7 187/15/7
f 308/10/8 123/16/8 185/11/8
f 249/17/9 240/18/9 150/19/9
f 249/17/10 230/20/10 309/21/10
f 309/21/11 146/22/11 250/23/11
f 240/18/12 250/23/12 154/24/12
f 122/25/13 310/26/13 230/20/13
f 119/27/14 310/26/14 189/28/14
f 310/26/15 145/29/15 228/30/15
f 310/26/16 146/22/16 230/20/16
f 185/11/17 195/31/17 120/9/17
f 185/11/18 194/32/18 311/33/18
f 311/33/19 127/34/19 191/35/19
f 311/33/20 125/36/20 195/31/20
f 124/14/21 312/37/21 188/38/21
f 121/39/22 312/37/22 186/40/22
f 183/41/23 189/28/23 312/37/23
f 188/38/24 189/28/24 122/25/24
f 193/42/25 201/43/25 128/44/25
f 193/42/26 200/45/26 313/46/26
f 313/46/27 130/47/27 199/48/27
f 313/46/28 132/49/28 201/43/28
f 245/50/29 244/51/29 148/52/29
f 245/50/30 183/53/30 314/54/30
f 314/54/31 121/12/31 184/13/31
f 244/51/32 184/13/32 120/9/32
f 187/15/33 248/55/33 123/16/33
f 124/14/34 315/56/34 187/15/34
f 188/38/35 249/57/35 315/56/35
f 248/55/36 249/57/36 150/58/36
f 245/59/37 229/60/37 119/61/37
f 245/59/38 242/62/38 316/63/38
f 242/62/39 247/64/39 316/63/39
f 316/63/40 145/65/40 229/60/40
f 138/66/41 317/67/41 213/68/41
f 219/69/42 208/70/42 317/67/42
f 317/67/43 136/71/43 206/72/43
f 213/68/44 206/72/44 135/73/44
f 191/35/45 203/74/45 125/36/45
f 191/35/46 202/75/46 318/76/46
f 202/75/47 197/77/47 318/76/47
f 203/74/48 197/77/48 129/78/48
f 192/79/49 202/75/49 127/34/49
f 128/44/50 319/80/50 192/79/50
f 201/43/51 198/81/51 319/80/51
f 202/75/52 198/81/52 131/82/52
f 126/83/53 320/84/53 200/85/53
f 190/86/54 203/74/54 320/84/54
f 203/74/55 196/87/55 320/84/55
f 200/85/56 196/87/56 130/88/56
f 133/89/57 321/90/57 204/91/57
f 135/73/58 321/90/58 205/92/58
f 321/90/59 136/71/59 207/93/59
f 321/90/60 134/94/60 204/91/60
f 218/95/61 215/96/61 140/97/61
f 139/98/62 322/99/62 218/95/62
f 210/100/63 204/101/63 322/99/63
f 322/99/64 134/102/64 215/96/64
f 217/103/65 208/70/65 137/104/65
f 217/103/66 215/105/66 323/106/66
f 323/106/67 134/107/67 207/108/67
f 323/106/68 136/71/68 208/70/68
f 213/68/69 225/109/69 138/66/69
f 135/73/70 324/110/70 213/68/70
f 224/111/71 222/112/71 324/110/71
f 324/110/72 144/113/72 225/109/72
f 129/78/73 325/114/73 214/115/73
f 131/82/74 325/114/74 197/77/74
f 209/116/75 216/117/75 325/114/75
f 214/115/76 216/117/76 139/98/76
f 132/49/77 326/118/77 212/119/77
f 130/47/78 326/118/78 199/48/78
f 211/120/79 217/103/79 326/118/79
f 212/119/80 217/103/80 137/104/80
f 130/88/81 327/121/81 211/122/81
f 129/78/82 327/121/82 196/87/82
f 214/115/83 218/95/83 327/121/83
f 327/121/84 140/97/84 211/122/84
f 131/82/85 328/123/85 209/116/85
f 132/49/86 328/123/86 198/81/86
f 328/123/87 137/104/87 219/69/87
f 209/116/88 219/69/88 138/66/88
f 143/124/89 329/125/89 221/126/89
f 144/113/90 329/125/90 223/127/90
f 329/125/91 141/128/91 220/129/91
f 329/125/92 142/130/92 221/126/92
f 205/92/93 224/111/93 135/73/93
f 205/92/94 226/131/94 330/132/94
f 330/132/95 142/133/95 220/134/95
f 330/132/96 141/128/96 224/111/96
f 139/98/97 331/135/97 227/136/97
f 138/66/98 331/135/98 216/117/98
f 225/109/99 223/127/99 331/135/99
f 227/136/100 223/127/100 143/124/100
f 133/137/101 332/138/101 226/139/101
f 210/100/102 227/136/102 332/138/102
f 332/138/103 143/124/103 221/126/103
f 226/139/104 221/126/104 142/130/104
f 154/24/105 333/140/105 238/141/105
f 146/22/106 333/140/106 250/23/106
f 333/140/107 145/142/107 247/143/107
f 333/140/108 152/144/108 238/141/108
f 123/16/109 334/145/109 194/32/109
f 248/146/110 246/147/110 334/145/110
f 246/147/111 192/79/111 334/145/111
f 334/145/112 127/34/112 194/32/112
f 232/148/113 246/149/113 150/150/113
f 232/148/114 243/151/114 335/152/114
f 335/152/115 126/153/115 193/42/115
f 335/152/116 128/44/116 246/149/116
f 232/148/117 231/154/117 148/155/117
f 232/148/118 233/156/118 336/157/118
f 336/157/119 149/158/119 234/159/119
f 336/157/120 147/160/120 231/154/120
f 151/161/121 337/162/121 235/163/121
f 153/3/122 337/162/122 236/1/122
f 237/164/123 238/141/123 337/162/123
f 235/163/124 238/141/124 152/144/124
f 239/165/125 237/164/125 153/3/125
f 149/158/126 338/166/126 239/165/126
f 233/167/127 240/18/127 338/166/127
f 338/166/128 154/24/128 237/164/128
f 147/160/129 339/168/129 231/169/129
f 241/170/130 235/171/130 339/168/130
f 339/168/131 152/172/131 242/173/131
f 231/169/132 242/173/132 148/174/132
f 244/175/133 243/176/133 148/177/133
f 120/9/134 340/178/134 244/175/134
f 340/178/135 125/36/135 190/86/135
f 243/176/136 190/86/136 126/83/136
f 253/179/137 264/180/137 156/181/137
f 253/179/138 263/182/138 341/183/138
f 341/183/139 162/184/139 261/185/139
f 341/183/140 160/186/140 264/180/140
f 234/159/141 258/187/141 147/160/141
f 234/159/142 257/188/142 342/189/142
f 257/188/143 251/190/143 342/189/143
f 258/187/144 251/190/144 155/191/144
f 151/161/145 343/192/145 255/4/145
f 241/170/146 258/187/146 343/192/146
f 343/192/147 155/191/147 254/193/147
f 255/4/148 254/193/148 157/6/148
f 239/165/149 257/188/149 149/158/149
f 153/3/150 344/194/150 239/165/150
f 256/2/151 253/179/151 344/194/151
f 344/194/152 156/181/152 257/188/152
f 262/195/153 280/196/153 161/197/153
f 262/195/154 279/198/154 345/199/154
f 345/199/155 167/200/155 275/201/155
f 345/199/156 168/202/156 280/196/156
f 155/191/157 346/203/157 265/204/157
f 156/181/158 346/203/158 251/190/158
f 264/180/159 259/205/159 346/203/159
f 265/204/160 259/205/160 159/206/160
f 254/193/161 266/207/161 157/6/161
f 254/193/162 265/204/162 347/208/162
f 347/208/163 159/206/163 262/195/163
f 347/208/164 161/197/164 266/207/164
f 158/8/165 348/209/165 263/182/165
f 157/6/166 348/209/166 252/7/166
f 266/207/167 260/210/167 348/209/167
f 263/182/168 260/210/168 162/184/168
f 163/211/169 349/212/169 270/213/169
f 267/214/169 269/215/169 349/212/169
f 269/215/170 268/216/170 349/212/170
f 349/212/171 165/217/171 270/213/171
f 162/184/172 350/218/172 273/219/172
f 161/197/173 350/218/173 260/210/173
f 272/220/174 268/216/174 350/218/174
f 273/219/175 268/216/175 166/221/175
f 273/219/176 296/222/176 162/184/176
f 166/221/175 351/223/175 273/219/175
f 295/224/177 293/225/177 351/223/177
f 296/222/178 293/225/178 176/226/178
f 159/206/179 352/227/179 271/228/179
f 160/186/180 352/227/180 259/205/180
f 274/229/181 267/214/181 352/227/181
f 271/228/182 267/214/182 163/211/182
f 275/201/183 288/230/183 168/202/183
f 275/201/184 287/231/184 353/232/184
f 353/232/185 171/233/185 283/234/185
f 353/232/186 172/235/186 288/230/186
f 271/228/187 279/198/187 159/206/187
f 163/211/182 354/236/182 271/228/182
f 281/237/188 277/238/188 354/236/188
f 279/198/189 277/238/189 167/200/189
f 165/217/190 355/239/190 282/240/190
f 272/220/191 280/196/191 355/239/191
f 280/196/192 278/241/192 355/239/192
f 282/240/193 278/241/193 170/242/193
f 270/213/169 281/237/169 163/211/169
f 270/213/171 282/240/171 356/243/171
f 356/243/171 170/242/171 276/244/171
f 356/243/169 169/245/169 281/237/169
f 172/235/194 357/246/194 286/247/194
f 171/233/195 357/246/195 283/234/195
f 357/246/196 173/248/196 284/249/196
f 357/246/197 174/250/197 286/247/197
f 278/241/198 289/251/198 170/242/198
f 278/241/199 288/230/199 358/252/199
f 358/252/200 172/235/200 286/247/200
f 358/252/201 174/250/201 289/251/201
f 276/244/202 290/253/202 169/245/202
f 276/244/203 289/251/203 359/254/203
f 359/254/204 174/250/204 284/249/204
f 359/254/205 173/248/205 290/253/205
f 277/238/206 287/231/206 167/200/206
f 277/238/207 290/253/207 360/255/207
f 360/255/208 173/248/208 285/256/208
f 360/255/209 171/233/209 287/231/209
f 293/225/210 304/257/210 176/226/210
f 293/225/211 303/258/211 361/259/211
f 361/259/212 182/260/212 301/261/212
f 304/257/213 301/261/213 180/262/213
f 269/215/171 295/224/171 166/221/171
f 269/215/169 297/263/169 362/264/169
f 297/263/169 292/265/169 362/264/169
f 295/224/170 292/265/170 178/266/170
f 164/267/214 363/268/214 297/263/214
f 274/229/215 298/269/215 363/268/215
f 298/269/216 294/270/216 363/268/216
f 297/263/217 294/270/217 177/271/217
f 261/185/218 298/269/218 160/186/218
f 261/185/219 296/222/219 364/272/219
f 364/272/220 176/226/220 291/273/220
f 364/272/221 175/274/221 298/269/221
f 179/275/222 365/276/222 302/277/222
f 180/262/223 365/276/223 299/278/223
f 365/276/224 182/260/224 300/279/224
f 365/276/225 181/280/225 302/277/225
f 291/273/226 305/281/226 175/274/226
f 291/273/227 304/257/227 366/282/227
f 366/282/228 180/262/228 299/278/228
f 366/282/229 179/275/229 305/281/229
f 294/270/230 306/283/230 177/271/230
f 294/270/231 305/281/231 367/284/231
f 367/284/232 179/275/232 302/277/232
f 306/283/233 302/277/233 181/280/233
f 292/265/234 303/258/234 178/266/234
f 292/265/235 306/283/235 368/285/235
f 368/285/236 181/280/236 300/279/236
f 368/285/237 182/260/237 303/258/237
f 236/1/238 307/5/238 256/2/238
f 236/1/239 151/161/239 255/4/239
f 307/5/240 255/4/240 157/6/240
f 307/5/241 252/7/241 158/8/241
f 120/9/242 184/13/242 308/10/242
f 121/12/243 186/286/243 308/10/243
f 308/10/244 186/286/244 124/14/244
f 308/10/245 187/15/245 123/16/245
f 249/17/246 309/21/246 240/18/246
f 249/17/247 122/25/247 230/20/247
f 309/21/248 230/20/248 146/22/248
f 240/18/249 309/21/249 250/23/249
f 122/25/250 189/28/250 310/26/250
f 119/27/251 229/287/251 310/26/251
f 310/26/252 229/287/252 145/29/252
f 310/26/253 228/30/253 146/22/253
f 185/11/254 311/33/254 195/31/254
f 185/11/255 123/16/255 194/32/255
f 311/33/256 194/32/256 127/34/256
f 311/33/257 191/35/257 125/36/257
f 124/14/258 186/40/258 312/37/258
f 121/39/259 183/41/259 312/37/259
f 183/41/260 119/27/260 189/28/260
f 188/38/261 312/37/261 189/28/261
f 193/42/262 313/46/262 201/43/262
f 193/42/263 126/153/263 200/45/263
f 313/46/264 200/45/264 130/47/264
f 313/46/265 199/48/265 132/49/265
f 245/50/266 314/54/266 244/51/266
f 245/50/267 119/61/267 183/53/267
f 314/54/268 183/53/268 121/12/268
f 244/51/269 314/54/269 184/13/269
f 187/15/270 315/56/270 248/55/270
f 124/14/271 188/38/271 315/56/271
f 188/38/272 122/25/272 249/57/272
f 248/55/273 315/56/273 249/57/273
f 245/59/274 316/63/274 229/60/274
f 245/59/275 148/288/275 242/62/275
f 242/62/276 152/289/276 247/64/276
f 316/63/277 247/64/277 145/65/277
f 138/66/278 219/69/278 317/67/278
f 219/69/279 137/104/279 208/70/279
f 317/67/280 208/70/280 136/71/280
f 213/68/281 317/67/281 206/72/281
f 191/35/282 318/76/282 203/74/282
f 191/35/283 127/34/283 202/75/283
f 202/75/284 131/82/284 197/77/284
f 203/74/285 318/76/285 197/77/285
f 192/79/286 319/80/286 202/75/286
f 128/44/287 201/43/287 319/80/287
f 201/43/288 132/49/288 198/81/288
f 202/75/289 319/80/289 198/81/289
f 126/83/290 190/86/290 320/84/290
f 190/86/291 125/36/291 203/74/291
f 203/74/292 129/78/292 196/87/292
f 200/85/293 320/84/293 196/87/293
f 133/89/294 205/92/294 321/90/294
f 135/73/295 206/72/295 321/90/295
f 321/90/296 206/72/296 136/71/296
f 321/90/297 207/93/297 134/94/297
f 218/95/298 322/99/298 215/96/298
f 139/98/299 210/100/299 322/99/299
f 210/100/300 133/137/300 204/101/300
f 322/99/301 204/101/301 134/102/301
f 217/103/302 323/106/302 208/70/302
f 217/103/303 140/290/303 215/105/303
f 323/106/304 215/105/304 134/107/304
f 323/106/305 207/108/305 136/71/305
f 213/68/306 324/110/306 225/109/306
f 135/73/307 224/111/307 324/110/307
f 224/111/308 141/128/308 222/112/308
f 324/110/309 222/112/309 144/113/309
f 129/78/310 197/77/310 325/114/310
f 131/82/311 209/116/311 325/114/311
f 209/116/312 138/66/312 216/117/312
f 214/115/313 325/114/313 216/117/313
f 132/49/77 199/48/77 326/118/77
f 130/47/78 211/120/78 326/118/78
f 211/120/79 140/290/79 217/103/79
f 212/119/80 326/118/80 217/103/80
f 130/88/314 196/87/314 327/121/314
f 129/78/315 214/115/315 327/121/315
f 214/115/316 139/98/316 218/95/316
f 327/121/317 218/95/317 140/97/317
f 131/82/318 198/81/318 328/123/318
f 132/49/319 212/119/319 328/123/319
f 328/123/320 212/119/320 137/104/320
f 209/116/321 328/123/321 219/69/321
f 143/124/322 223/127/322 329/125/322
f 144/113/323 222/112/323 329/125/323
f 329/125/324 222/112/324 141/128/324
f 329/125/325 220/129/325 142/130/325
f 205/92/326 330/132/326 224/111/326
f 205/92/327 133/89/327 226/131/327
f 330/132/328 226/131/328 142/133/328
f 330/132/329 220/134/329 141/128/329
f 139/98/330 216/117/330 331/135/330
f 138/66/331 225/109/331 331/135/331
f 225/109/332 144/113/332 223/127/332
f 227/136/333 331/135/333 223/127/333
f 133/137/334 210/100/334 332/138/334
f 210/100/335 139/98/335 227/136/335
f 332/138/336 227/136/336 143/124/336
f 226/139/337 332/138/337 221/126/337
f 154/24/338 250/23/338 333/140/338
f 146/22/339 228/291/339 333/140/339
f 333/140/340 228/291/340 145/142/340
f 333/140/341 247/143/341 152/144/341
f 123/16/342 248/146/342 334/145/342
f 248/146/343 150/292/343 246/147/343
f 246/147/344 128/44/344 192/79/344
f 334/145/345 192/79/345 127/34/345
f 232/148/346 335/152/346 246/149/346
f 232/148/347 148/155/347 243/151/347
f 335/152/348 243/151/348 126/153/348
f 335/152/349 193/42/349 128/44/349
f 232/148/350 336/157/350 231/154/350
f 232/148/351 150/150/351 233/156/351
f 336/157/352 233/156/352 149/158/352
f 336/157/353 234/159/353 147/160/353
f 151/161/354 236/1/354 337/162/354
f 153/3/355 237/164/355 337/162/355
f 237/164/356 154/24/356 238/141/356
f 235/163/357 337/162/357 238/141/357
f 239/165/358 338/166/358 237/164/358
f 149/158/359 233/167/359 338/166/359
f 233/167/360 150/19/360 240/18/360
f 338/166/361 240/18/361 154/24/361
f 147/160/362 241/170/362 339/168/362
f 241/170/363 151/161/363 235/171/363
f 339/168/364 235/171/364 152/172/364
f 231/169/365 339/168/365 242/173/365
f 244/175/366 340/178/366 243/176/366
f 120/9/367 195/31/367 340/178/367
f 340/178/368 195/31/368 125/36/368
f 243/176/369 340/178/369 190/86/369
f 253/179/370 341/183/370 264/180/370
f 253/179/371 158/8/371 263/182/371
f 341/183/372 263/182/372 162/184/372
f 341/183/373 261/185/373 160/186/373
f 234/159/374 342/189/374 258/187/374
f 234/159/375 149/158/375 257/188/375
f 257/188/376 156/181/376 251/190/376
f 258/187/377 342/189/377 251/190/377
f 151/161/378 241/170/378 343/192/378
f 241/170/379 147/160/379 258/187/379
f 343/192/380 258/187/380 155/191/380
f 255/4/381 343/192/381 254/193/381
f 239/165/382 344/194/382 257/188/382
f 153/3/383 256/2/383 344/194/383
f 256/2/384 158/8/384 253/179/384
f 344/194/385 253/179/385 156/181/385
f 262/195/386 345/199/386 280/196/386
f 262/195/387 159/206/387 279/198/387
f 345/199/388 279/198/388 167/200/388
f 345/199/389 275/201/389 168/202/389
f 155/191/390 251/190/390 346/203/390
f 156/181/391 264/180/391 346/203/391
f 264/180/392 160/186/392 259/205/392
f 265/204/393 346/203/393 259/205/393
f 254/193/394 347/208/394 266/207/394
f 254/193/395 155/191/395 265/204/395
f 347/208/396 265/204/396 159/206/396
f 347/208/397 262/195/397 161/197/397
f 158/8/398 252/7/398 348/209/398
f 157/6/399 266/207/399 348/209/399
f 266/207/400 161/197/400 260/210/400
f 263/182/401 348/209/401 260/210/401
f 163/211/169 267/214/169 349/212/169
f 267/214/169 164/267/169 269/215/169
f 269/215/171 166/221/171 268/216/171
f 349/212/170 268/216/170 165/217/170
f 162/184/402 260/210/402 350/218/402
f 161/197/403 272/220/403 350/218/403
f 272/220/175 165/217/175 268/216/175
f 273/219/404 350/218/404 268/216/404
f 273/219/405 351/223/405 296/222/405
f 166/221/190 295/224/190 351/223/190
f 295/224/193 178/266/193 293/225/193
f 296/222/406 351/223/406 293/225/406
f 159/206/407 259/205/407 352/227/407
f 160/186/408 274/229/408 352/227/408
f 274/229/182 164/267/182 267/214/182
f 271/228/409 352/227/409 267/214/409
f 275/201/410 353/232/410 288/230/410
f 275/201/411 167/200/411 287/231/411
f 353/232/412 287/231/412 171/233/412
f 353/232/413 283/234/413 172/235/413
f 271/228/414 354/236/414 279/198/414
f 163/211/214 281/237/214 354/236/214
f 281/237/217 169/245/217 277/238/217
f 279/198/415 354/236/415 277/238/415
f 165/217/175 272/220/175 355/239/175
f 272/220/416 161/197/416 280/196/416
f 280/196/417 168/202/417 278/241/417
f 282/240/418 355/239/418 278/241/418
f 270/213/169 356/243/169 281/237/169
f 270/213/170 165/217/170 282/240/170
f 356/243/170 282/240/170 170/242/170
f 356/243/169 276/244/169 169/245/169
f 172/235/419 283/234/419 357/246/419
f 171/233/420 285/256/420 357/246/420
f 357/246/421 285/256/421 173/248/421
f 357/246/422 284/249/422 174/250/422
f 278/241/423 358/252/423 289/251/423
f 278/241/424 168/202/424 288/230/424
f 358/252/425 288/230/425 172/235/425
f 358/252/426 286/247/426 174/250/426
f 276/244/427 359/254/427 290/253/427
f 276/244/428 170/242/428 289/251/428
f 359/254/429 289/251/429 174/250/429
f 359/254/430 284/249/430 173/248/430
f 277/238/431 360/255/431 287/231/431
f 277/238/432 169/245/432 290/253/432
f 360/255/433 290/253/433 173/248/433
f 360/255/434 285/256/434 171/233/434
f 293/225/435 361/259/435 304/257/435
f 293/225/436 178/266/436 303/258/436
f 361/259/437 303/258/437 182/260/437
f 304/257/438 361/259/438 301/261/438
f 269/215/170 362/264/170 295/224/170
f 269/215/169 164/267/169 297/263/169
f 297/263/169 177/271/169 292/265/169
f 295/224/171 362/264/171 292/265/171
f 164/267/182 274/229/182 363/268/182
f 274/229/439 160/186/439 298/269/439
f 298/269/440 175/274/440 294/270/440
f 297/263/441 363/268/441 294/270/441
f 261/185/442 364/272/442 298/269/442
f 261/185/443 162/184/443 296/222/443
f 364/272/444 296/222/444 176/226/444
f 364/272/445 291/273/445 175/274/445
f 179/275/446 299/278/446 365/276/446
f 180/262/447 301/261/447 365/276/447
f 365/276/448 301/261/448 182/260/448
f 365/276/449 300/279/449 181/280/449
f 291/273/450 366/282/450 305/281/450
f 291/273/451 176/226/451 304/257/451
f 366/282/452 304/257/452 180/262/452
f 366/282/453 299/278/453 179/275/453
f 294/270/454 367/284/454 306/283/454
f 294/270/455 175/274/455 305/281/455
f 367/284/456 305/281/456 179/275/456
f 306/283/457 367/284/457 302/277/457
f 292/265/458 368/285/458 303/258/458
f 292/265/459 177/271/459 306/283/459
f 368/285/460 306/283/460 181/280/460
f 368/285/461 300/279/461 182/260/461
usemtl Material.015
f 16/293/462 10/294/462 3/295/462
f 2/296/462 4/297/462 13/298/462
f 7/299/462 17/300/462 6/301/462
f 3/295/462 1/302/462 16/293/462
f 1/302/462 5/303/462 16/293/462
f 5/303/462 11/304/462 16/293/462
f 16/293/462 15/305/462 10/294/462
f 4/297/462 9/306/462 13/298/462
f 9/306/462 14/307/462 13/298/462
f 13/298/462 12/308/462 8/309/462
f 8/309/462 2/296/462 13/298/462
usemtl Material.016
f 55/310/462 54/311/462 46/312/462
f 50/313/462 59/314/462 30/315/462
f 18/316/462 19/317/462 57/318/462
f 19/317/462 20/319/462 58/320/462
f 20/319/462 21/321/462 58/320/462
f 21/321/462 22/322/462 59/314/462
f 58/320/462 21/321/462 59/314/462
f 22/322/462 23/323/462 59/314/462
f 23/323/462 24/324/462 59/314/462
f 24/324/462 25/325/462 28/326/462
f 25/325/462 26/327/462 27/328/462
f 28/326/462 25/325/462 27/328/462
f 28/326/462 59/314/462 24/324/462
f 19/317/462 58/320/462 57/318/462
f 48/329/462 49/330/462 55/310/462
f 49/330/462 18/316/462 56/331/462
f 46/312/462 47/332/462 55/310/462
f 47/332/462 48/329/462 55/310/462
f 44/333/462 45/334/462 54/311/462
f 45/334/462 46/312/462 54/311/462
f 54/311/462 53/335/462 44/333/462
f 57/318/462 56/331/462 18/316/462
f 56/331/462 55/310/462 49/330/462
f 43/336/462 44/333/462 53/335/462
f 43/336/462 53/335/462 42/337/462
f 53/335/462 52/338/462 36/339/462
f 41/340/462 53/335/462 40/341/462
f 41/340/462 42/337/462 53/335/462
f 39/342/462 40/341/462 53/335/462
f 37/343/462 38/344/462 53/335/462
f 38/344/462 39/342/462 53/335/462
f 35/345/462 36/339/462 52/338/462
f 36/339/462 37/343/462 53/335/462
f 33/346/462 34/347/462 51/348/462
f 34/347/462 35/345/462 52/338/462
f 51/348/462 34/347/462 52/338/462
f 31/349/462 32/350/462 50/313/462
f 32/350/462 33/346/462 51/348/462
f 50/313/462 32/350/462 51/348/462
f 29/351/462 30/315/462 59/314/462
f 30/315/462 31/349/462 50/313/462
f 59/314/462 28/326/462 29/351/462
usemtl Material.018
f 75/352/463 69/353/463 62/354/463
f 61/355/463 63/356/463 72/357/463
f 66/358/463 76/359/463 65/360/463
f 62/354/463 60/361/463 75/352/463
f 60/361/463 64/362/463 75/352/463
f 64/362/463 70/363/463 75/352/463
f 75/352/463 74/364/463 69/353/463
f 63/356/463 68/365/463 72/357/463
f 68/365/463 73/366/463 72/357/463
f 72/357/463 71/367/463 67/368/463
f 67/368/463 61/355/463 72/357/463
usemtl Material.019
f 114/369/463 113/370/463 105/371/463
f 109/372/463 118/373/463 89/374/463
f 77/375/463 78/376/463 116/377/463
f 78/376/463 79/378/463 117/379/463
f 79/378/463 80/380/463 117/379/463
f 80/380/463 81/381/463 118/373/463
f 117/379/463 80/380/463 118/373/463
f 81/381/463 82/382/463 118/373/463
f 82/382/463 83/383/463 118/373/463
f 83/383/463 84/384/463 86/385/463
f 84/384/463 85/386/463 86/385/463
f 86/385/463 87/387/463 83/383/463
f 87/387/463 118/373/463 83/383/463
f 78/376/463 117/379/463 116/377/463
f 107/388/463 108/389/463 114/369/463
f 108/389/463 77/375/463 115/390/463
f 105/371/463 106/391/463 114/369/463
f 106/391/463 107/388/463 114/369/463
f 103/392/463 104/393/463 113/370/463
f 104/393/463 105/371/463 113/370/463
f 113/370/463 112/394/463 103/392/463
f 116/377/463 115/390/463 77/375/463
f 115/390/463 114/369/463 108/389/463
f 102/395/463 103/392/463 112/394/463
f 102/395/463 112/394/463 101/396/463
f 112/394/463 111/397/463 95/398/463
f 100/399/463 112/394/463 99/400/463
f 100/399/463 101/396/463 112/394/463
f 98/401/463 99/400/463 112/394/463
f 96/402/463 97/403/463 112/394/463
f 97/403/463 98/401/463 112/394/463
f 94/404/463 95/398/463 111/397/463
f 95/398/463 96/402/463 112/394/463
f 92/405/463 93/406/463 110/407/463
f 93/406/463 94/404/463 111/397/463
f 110/407/463 93/406/463 111/397/463
f 90/408/463 91/409/463 109/372/463
f 91/409/463 92/405/463 110/407/463
f 109/372/463 91/409/463 110/407/463
f 88/410/463 89/374/463 118/373/463
f 89/374/463 90/408/463 109/372/463
f 118/373/463 87/387/463 88/410/463
