# Blender v3.1.2 OBJ File: ''
# www.blender.org
mtllib Lipkiy.mtl
o Cube
v 1.786794 2.760334 -3.010064
v 1.786794 -0.813254 -3.010064
v 1.786794 3.024799 0.399692
v 1.786794 1.013499 3.353537
v -1.786794 2.760334 -3.010064
v -1.786794 -0.813254 -3.010064
v -1.786794 3.024799 0.399692
v -1.786794 1.013499 3.353537
v 1.786794 2.760334 -9.915946
v 1.786794 -0.813254 -9.915946
v -1.786794 2.760334 -9.915946
v -1.786794 -0.813254 -9.915946
v 1.786794 2.760334 -17.818804
v 1.786794 -0.813254 -17.818804
v -1.786794 2.760334 -17.818804
v -1.786794 -0.813254 -17.818804
v 1.000000 3.874678 1.197182
v 1.000000 3.624866 3.181520
v -1.000000 3.874678 1.197182
v -1.000000 3.624866 3.181520
v 1.787026 4.943636 0.538517
v 1.787026 4.497216 4.084579
v -1.787026 4.943636 0.538517
v -1.787026 4.497216 4.084579
v 1.787026 9.289452 1.085619
v 1.787026 8.843032 4.631681
v -1.787026 9.289452 1.085619
v -1.787026 8.843032 4.631681
v 1.095573 1.066821 1.460473
v 1.394516 1.500808 1.460473
v 1.099761 1.063936 0.933536
v 1.398704 1.497923 0.933536
v 3.499912 -0.589356 1.488649
v 3.798855 -0.155369 1.488649
v 3.504100 -0.592241 0.961712
v 3.803043 -0.158254 0.961712
v 1.115676 1.052974 -1.068825
v 1.414618 1.486961 -1.068825
v 1.119864 1.050089 -1.595762
v 1.418806 1.484076 -1.595762
v 3.520014 -0.603204 -1.040649
v 3.818957 -0.169216 -1.040649
v 3.524202 -0.606088 -1.567586
v 3.823145 -0.172101 -1.567586
v 1.135778 1.039127 -3.598123
v 1.434721 1.473114 -3.598123
v 1.139966 1.036242 -4.125061
v 1.438909 1.470230 -4.125061
v 3.540116 -0.617050 -3.569947
v 3.839059 -0.183063 -3.569947
v 3.544304 -0.619935 -4.096885
v 3.843247 -0.185948 -4.096885
v 1.155880 1.025280 -6.127421
v 1.454823 1.459267 -6.127421
v 1.160068 1.022395 -6.654359
v 1.459011 1.456383 -6.654359
v 3.560219 -0.630898 -6.099245
v 3.859161 -0.196910 -6.099245
v 3.564406 -0.633782 -6.626183
v 3.863349 -0.199795 -6.626183
v 1.175982 1.011433 -8.656719
v 1.474925 1.445421 -8.656719
v 1.180170 1.008548 -9.183657
v 1.479113 1.442536 -9.183657
v 3.580321 -0.644744 -8.628544
v 3.879264 -0.210757 -8.628544
v 3.584509 -0.647629 -9.155481
v 3.883451 -0.213642 -9.155481
v 1.196084 0.997586 -11.186017
v 1.495027 1.431573 -11.186017
v 1.200272 0.994701 -11.712955
v 1.499215 1.428689 -11.712955
v 3.600423 -0.658591 -11.157842
v 3.899366 -0.224604 -11.157842
v 3.604611 -0.661476 -11.684779
v 3.903554 -0.227489 -11.684779
v 1.216187 0.983739 -13.715315
v 1.515129 1.417727 -13.715315
v 1.220374 0.980855 -14.242252
v 1.519317 1.414842 -14.242252
v 3.620525 -0.672438 -13.687140
v 3.919468 -0.238451 -13.687140
v 3.624713 -0.675323 -14.214077
v 3.923656 -0.241336 -14.214077
v 1.236289 0.969892 -16.244614
v 1.535232 1.403880 -16.244614
v 1.240477 0.967008 -16.771551
v 1.539420 1.400995 -16.771551
v 3.640627 -0.686285 -16.216438
v 3.939570 -0.252298 -16.216438
v 3.644815 -0.689170 -16.743376
v 3.943758 -0.255183 -16.743376
v -1.095573 1.066821 1.460473
v -1.394517 1.500808 1.460473
v -1.099761 1.063936 0.933536
v -1.398704 1.497924 0.933536
v -3.499912 -0.589357 1.488649
v -3.798855 -0.155369 1.488649
v -3.504100 -0.592242 0.961712
v -3.803043 -0.158254 0.961712
v -1.115675 1.052974 -1.068825
v -1.414619 1.486961 -1.068825
v -1.119864 1.050089 -1.595762
v -1.418806 1.484076 -1.595762
v -3.520014 -0.603204 -1.040649
v -3.818958 -0.169216 -1.040649
v -3.524203 -0.606088 -1.567586
v -3.823145 -0.172101 -1.567586
v -1.135777 1.039127 -3.598123
v -1.434721 1.473114 -3.598123
v -1.139966 1.036242 -4.125060
v -1.438908 1.470230 -4.125060
v -3.540116 -0.617050 -3.569948
v -3.839059 -0.183063 -3.569947
v -3.544304 -0.619935 -4.096885
v -3.843247 -0.185948 -4.096885
v -1.155880 1.025280 -6.127422
v -1.454823 1.459267 -6.127421
v -1.160068 1.022395 -6.654359
v -1.459011 1.456383 -6.654359
v -3.560218 -0.630897 -6.099246
v -3.859162 -0.196910 -6.099246
v -3.564407 -0.633782 -6.626184
v -3.863350 -0.199795 -6.626184
v -1.175982 1.011433 -8.656719
v -1.474925 1.445421 -8.656719
v -1.180170 1.008548 -9.183657
v -1.479113 1.442536 -9.183657
v -3.580321 -0.644744 -8.628544
v -3.879264 -0.210757 -8.628544
v -3.584509 -0.647629 -9.155481
v -3.883452 -0.213642 -9.155480
v -1.196084 0.997586 -11.186017
v -1.495027 1.431574 -11.186017
v -1.200272 0.994702 -11.712955
v -1.499215 1.428689 -11.712954
v -3.600423 -0.658591 -11.157842
v -3.899366 -0.224604 -11.157842
v -3.604611 -0.661476 -11.684779
v -3.903554 -0.227489 -11.684778
v -1.216186 0.983739 -13.715315
v -1.515130 1.417726 -13.715315
v -1.220375 0.980855 -14.242252
v -1.519317 1.414842 -14.242251
v -3.620525 -0.672438 -13.687140
v -3.919468 -0.238451 -13.687140
v -3.624713 -0.675323 -14.214077
v -3.923656 -0.241336 -14.214076
v -1.236288 0.969892 -16.244614
v -1.535232 1.403880 -16.244614
v -1.240477 0.967008 -16.771551
v -1.539419 1.400995 -16.771551
v -3.640627 -0.686285 -16.216436
v -3.939571 -0.252298 -16.216436
v -3.644816 -0.689170 -16.743374
v -3.943758 -0.255183 -16.743374
v 0.612093 4.039364 4.991705
v 0.612093 4.323655 5.274886
v 0.612093 5.225867 3.800546
v 0.612093 5.510159 4.083727
v 1.013357 4.039364 4.991705
v 1.013357 4.323655 5.274886
v 1.013357 5.225867 3.800546
v 1.013357 5.510159 4.083727
v -0.612093 4.039364 4.991705
v -0.612093 4.323655 5.274886
v -0.612093 5.225867 3.800546
v -0.612093 5.510159 4.083727
v -1.013357 4.039364 4.991705
v -1.013357 4.323655 5.274886
v -1.013357 5.225867 3.800546
v -1.013357 5.510159 4.083727
vt 0.875000 0.500000
vt 0.625000 0.750000
vt 0.625000 0.500000
vt 0.875000 0.750000
vt 0.625000 0.750000
vt 0.625000 0.000000
vt 0.375000 0.250000
vt 0.375000 0.000000
vt 0.375000 0.500000
vt 0.125000 0.750000
vt 0.125000 0.500000
vt 0.375000 0.750000
vt 0.625000 0.500000
vt 0.875000 0.500000
vt 0.875000 0.500000
vt 0.625000 0.250000
vt 0.375000 0.250000
vt 0.375000 0.500000
vt 0.625000 0.250000
vt 0.375000 0.500000
vt 0.375000 0.250000
vt 0.625000 0.500000
vt 0.625000 0.250000
vt 0.125000 0.500000
vt 0.625000 0.000000
vt 0.375000 0.000000
vt 0.625000 0.000000
vt 0.375000 0.750000
vt 0.375000 0.000000
vt 0.125000 0.750000
vt 0.375000 0.750000
vt 0.125000 0.750000
vt 0.125000 0.750000
vt 0.875000 0.750000
vt 0.625000 0.750000
vt 0.625000 0.750000
vt 0.375000 1.000000
vt 0.375000 0.750000
vt 0.875000 0.750000
vt 0.375000 0.000000
vt 0.625000 0.000000
vt 0.625000 0.000000
vt 0.375000 0.250000
vt 0.375000 0.000000
vt 0.625000 0.250000
vt 0.375000 0.500000
vt 0.625000 0.500000
vt 0.375000 0.750000
vt 0.625000 0.750000
vt 0.375000 1.000000
vt 0.125000 0.500000
vt 0.125000 0.750000
vt 0.875000 0.500000
vt 0.375000 0.000000
vt 0.625000 0.250000
vt 0.375000 0.250000
vt 0.625000 0.500000
vt 0.375000 0.500000
vt 0.375000 0.750000
vt 0.625000 0.750000
vt 0.375000 1.000000
vt 0.125000 0.750000
vt 0.125000 0.500000
vt 0.875000 0.500000
vt 0.625000 0.000000
vt 0.375000 0.250000
vt 0.375000 0.000000
vt 0.625000 0.500000
vt 0.375000 0.500000
vt 0.625000 0.750000
vt 0.375000 0.750000
vt 0.375000 1.000000
vt 0.125000 0.750000
vt 0.125000 0.500000
vt 0.875000 0.750000
vt 0.625000 0.000000
vt 0.375000 0.250000
vt 0.375000 0.000000
vt 0.625000 0.250000
vt 0.375000 0.500000
vt 0.625000 0.750000
vt 0.375000 0.750000
vt 0.375000 1.000000
vt 0.125000 0.750000
vt 0.125000 0.500000
vt 0.875000 0.500000
vt 0.625000 0.500000
vt 0.625000 0.000000
vt 0.375000 0.250000
vt 0.375000 0.000000
vt 0.625000 0.500000
vt 0.375000 0.500000
vt 0.375000 0.750000
vt 0.625000 0.750000
vt 0.375000 1.000000
vt 0.125000 0.500000
vt 0.125000 0.750000
vt 0.875000 0.500000
vt 0.375000 0.000000
vt 0.625000 0.250000
vt 0.375000 0.250000
vt 0.625000 0.500000
vt 0.375000 0.500000
vt 0.625000 0.750000
vt 0.375000 0.750000
vt 0.625000 1.000000
vt 0.375000 1.000000
vt 0.125000 0.500000
vt 0.125000 0.750000
vt 0.875000 0.750000
vt 0.625000 0.000000
vt 0.375000 0.250000
vt 0.375000 0.000000
vt 0.625000 0.250000
vt 0.375000 0.500000
vt 0.625000 0.500000
vt 0.375000 0.750000
vt 0.625000 0.750000
vt 0.375000 1.000000
vt 0.125000 0.500000
vt 0.125000 0.750000
vt 0.875000 0.500000
vt 0.625000 0.000000
vt 0.375000 0.250000
vt 0.375000 0.000000
vt 0.625000 0.500000
vt 0.375000 0.500000
vt 0.625000 0.750000
vt 0.375000 0.750000
vt 0.375000 1.000000
vt 0.125000 0.500000
vt 0.125000 0.750000
vt 0.875000 0.500000
vt 0.375000 0.000000
vt 0.625000 0.250000
vt 0.625000 0.000000
vt 0.375000 0.250000
vt 0.625000 0.500000
vt 0.375000 0.500000
vt 0.625000 0.750000
vt 0.375000 0.750000
vt 0.625000 1.000000
vt 0.125000 0.500000
vt 0.875000 0.750000
vt 0.875000 0.500000
vt 0.375000 0.000000
vt 0.625000 0.250000
vt 0.625000 0.000000
vt 0.375000 0.250000
vt 0.625000 0.500000
vt 0.375000 0.750000
vt 0.375000 0.500000
vt 0.625000 1.000000
vt 0.625000 0.750000
vt 0.125000 0.500000
vt 0.875000 0.750000
vt 0.875000 0.500000
vt 0.375000 0.250000
vt 0.625000 0.000000
vt 0.375000 0.000000
vt 0.375000 0.500000
vt 0.625000 0.250000
vt 0.375000 0.750000
vt 0.625000 0.500000
vt 0.625000 1.000000
vt 0.625000 0.750000
vt 0.125000 0.500000
vt 0.875000 0.500000
vt 0.375000 0.000000
vt 0.625000 0.250000
vt 0.625000 0.000000
vt 0.375000 0.500000
vt 0.375000 0.250000
vt 0.625000 0.750000
vt 0.625000 0.500000
vt 0.375000 0.750000
vt 0.625000 1.000000
vt 0.125000 0.500000
vt 0.875000 0.750000
vt 0.875000 0.500000
vt 0.375000 0.000000
vt 0.625000 0.250000
vt 0.625000 0.000000
vt 0.375000 0.250000
vt 0.625000 0.500000
vt 0.375000 0.750000
vt 0.375000 0.500000
vt 0.625000 1.000000
vt 0.625000 0.750000
vt 0.125000 0.500000
vt 0.875000 0.750000
vt 0.875000 0.500000
vt 0.375000 0.000000
vt 0.625000 0.250000
vt 0.625000 0.000000
vt 0.375000 0.500000
vt 0.375000 0.250000
vt 0.375000 0.750000
vt 0.625000 0.500000
vt 0.375000 1.000000
vt 0.625000 0.750000
vt 0.125000 0.500000
vt 0.875000 0.500000
vt 0.375000 0.000000
vt 0.625000 0.250000
vt 0.625000 0.000000
vt 0.375000 0.500000
vt 0.375000 0.250000
vt 0.375000 0.750000
vt 0.625000 0.500000
vt 0.625000 1.000000
vt 0.625000 0.750000
vt 0.125000 0.500000
vt 0.875000 0.750000
vt 0.875000 0.500000
vt 0.375000 0.250000
vt 0.625000 0.000000
vt 0.375000 0.000000
vt 0.625000 0.500000
vt 0.625000 0.250000
vt 0.375000 0.750000
vt 0.375000 0.500000
vt 0.625000 1.000000
vt 0.625000 0.750000
vt 0.125000 0.500000
vt 0.875000 0.750000
vt 0.875000 0.500000
vt 0.375000 0.000000
vt 0.625000 0.250000
vt 0.375000 0.250000
vt 0.375000 0.500000
vt 0.625000 0.500000
vt 0.375000 0.750000
vt 0.625000 0.750000
vt 0.375000 1.000000
vt 0.125000 0.750000
vt 0.125000 0.500000
vt 0.875000 0.500000
vt 0.375000 0.000000
vt 0.625000 0.250000
vt 0.625000 0.000000
vt 0.375000 0.500000
vt 0.375000 0.250000
vt 0.375000 0.750000
vt 0.625000 0.500000
vt 0.375000 1.000000
vt 0.625000 0.750000
vt 0.125000 0.750000
vt 0.125000 0.500000
vt 0.875000 0.500000
vt 0.125000 0.500000
vt 0.625000 1.000000
vt 0.875000 0.750000
vt 0.625000 1.000000
vt 0.875000 0.750000
vt 0.625000 0.000000
vt 0.625000 1.000000
vt 0.875000 0.750000
vt 0.625000 0.250000
vt 0.625000 1.000000
vt 0.875000 0.500000
vt 0.625000 1.000000
vt 0.875000 0.750000
vt 0.625000 0.250000
vt 0.625000 1.000000
vt 0.875000 0.750000
vt 0.625000 0.000000
vt 0.875000 0.500000
vt 0.625000 1.000000
vt 0.875000 0.750000
vt 0.625000 0.250000
vt 0.625000 1.000000
vt 0.875000 0.750000
vt 0.375000 1.000000
vt 0.125000 0.750000
vt 0.375000 1.000000
vt 0.125000 0.750000
vt 0.375000 1.000000
vt 0.125000 0.750000
vt 0.875000 0.750000
vt 0.375000 1.000000
vt 0.125000 0.750000
vt 0.375000 1.000000
vt 0.125000 0.750000
vt 0.625000 1.000000
vt 0.125000 0.750000
vt 0.875000 0.750000
vt 0.375000 1.000000
vt 0.125000 0.750000
vt 0.375000 1.000000
vt 0.125000 0.750000
vt 0.625000 0.000000
vt 0.625000 1.000000
vt 0.875000 0.750000
vt 0.625000 1.000000
vt 0.875000 0.750000
vn 0.0000 0.9970 -0.0773
vn 0.0000 0.6843 -0.7292
vn -1.0000 0.0000 0.0000
vn 0.0000 -0.9612 0.2759
vn 1.0000 -0.0000 0.0000
vn 0.0000 1.0000 0.0000
vn 0.0000 -1.0000 0.0000
vn 0.0000 0.0000 -1.0000
vn -0.7792 -0.6219 -0.0783
vn 0.9343 0.2947 0.2007
vn -0.7678 0.6357 0.0800
vn 0.0000 0.0657 0.9978
vn 0.0000 -0.1249 0.9922
vn 0.0000 -0.7192 0.6948
vn 0.7792 -0.6219 -0.0783
vn 0.0000 -0.5246 -0.8514
vn 0.0000 0.9922 0.1249
vn 0.0000 0.1249 -0.9922
vn -0.8235 0.5672 -0.0097
vn 0.0079 -0.0055 -1.0000
vn 0.8235 -0.5672 0.0097
vn -0.0079 0.0055 1.0000
vn -0.5673 -0.8235 -0.0000
vn 0.5673 0.8235 0.0000
vn 0.8235 0.5672 -0.0096
vn -0.0079 -0.0055 -1.0000
vn -0.8235 -0.5672 0.0096
vn 0.0079 0.0055 1.0000
vn 0.5673 -0.8235 0.0000
vn -0.5673 0.8235 -0.0000
vn -0.8235 -0.5672 0.0097
vn 0.8235 0.5672 -0.0097
vn -0.0080 -0.0055 -1.0000
vn 0.0000 0.7057 -0.7085
vn 0.0000 -0.7057 0.7085
vn 0.0000 -0.7085 -0.7057
vn 0.0000 0.7085 0.7057
vn 0.7678 0.6357 0.0800
vn -0.9343 0.2947 0.2007
vn 0.8235 -0.5672 0.0096
vn -0.8235 0.5672 -0.0096
usemtl Material
s off
f 5/1/1 3/2/1 1/3/1
f 7/4/2 17/5/2 3/2/2
f 7/6/3 6/7/3 8/8/3
f 2/9/4 8/10/4 6/11/4
f 2/9/5 3/2/5 4/12/5
f 2/9/5 9/13/5 1/3/5
f 9/13/6 15/14/6 11/15/6
f 5/16/3 12/17/3 6/7/3
f 6/11/7 10/18/7 2/9/7
f 1/3/6 11/15/6 5/1/6
f 15/19/8 14/20/8 16/21/8
f 10/18/5 13/22/5 9/13/5
f 11/23/3 16/21/3 12/17/3
f 12/24/7 14/20/7 10/18/7
f 19/25/9 24/26/9 23/27/9
f 3/2/10 18/28/10 4/12/10
f 7/6/11 20/29/11 19/25/11
f 4/12/12 20/30/12 8/10/12
f 22/31/13 28/32/13 24/33/13
f 18/28/14 24/33/14 20/30/14
f 17/5/15 22/31/15 18/28/15
f 19/34/16 21/35/16 17/5/16
f 25/36/17 28/37/17 26/38/17
f 21/35/5 26/38/5 22/31/5
f 23/39/18 25/36/18 21/35/18
f 23/27/3 28/40/3 27/41/3
f 30/42/19 31/43/19 29/44/19
f 32/45/20 35/46/20 31/43/20
f 36/47/21 33/48/21 35/46/21
f 34/49/22 29/50/22 33/48/22
f 31/51/23 33/48/23 29/52/23
f 32/53/24 34/49/24 36/47/24
f 37/54/19 40/55/19 39/56/19
f 39/56/20 44/57/20 43/58/20
f 44/57/21 41/59/21 43/58/21
f 42/60/22 37/61/22 41/59/22
f 43/58/23 37/62/23 39/63/23
f 40/64/24 42/60/24 44/57/24
f 46/65/19 47/66/19 45/67/19
f 47/66/20 52/68/20 51/69/20
f 51/69/21 50/70/21 49/71/21
f 50/70/22 45/72/22 49/71/22
f 51/69/23 45/73/23 47/74/23
f 52/68/24 46/75/24 50/70/24
f 54/76/19 55/77/19 53/78/19
f 56/79/20 59/80/20 55/77/20
f 59/80/21 58/81/21 57/82/21
f 58/81/22 53/83/22 57/82/22
f 59/80/23 53/84/23 55/85/23
f 56/86/24 58/81/24 60/87/24
f 62/88/19 63/89/19 61/90/19
f 63/89/20 68/91/20 67/92/20
f 68/91/21 65/93/21 67/92/21
f 66/94/22 61/95/22 65/93/22
f 63/96/23 65/93/23 61/97/23
f 64/98/24 66/94/24 68/91/24
f 69/99/19 72/100/19 71/101/19
f 71/101/20 76/102/20 75/103/20
f 75/103/21 74/104/21 73/105/21
f 73/105/22 70/106/22 69/107/22
f 71/108/23 73/105/23 69/109/23
f 76/102/24 70/110/24 74/104/24
f 78/111/19 79/112/19 77/113/19
f 80/114/20 83/115/20 79/112/20
f 84/116/21 81/117/21 83/115/21
f 82/118/22 77/119/22 81/117/22
f 79/120/23 81/117/23 77/121/23
f 80/122/24 82/118/24 84/116/24
f 86/123/19 87/124/19 85/125/19
f 87/124/20 92/126/20 91/127/20
f 91/127/21 90/128/21 89/129/21
f 90/128/22 85/130/22 89/129/22
f 87/131/23 89/129/23 85/132/23
f 88/133/24 90/128/24 92/126/24
f 93/134/25 96/135/25 94/136/25
f 95/137/26 100/138/26 96/135/26
f 99/139/27 98/140/27 100/138/27
f 97/141/28 94/142/28 98/140/28
f 95/143/29 97/141/29 99/139/29
f 100/138/30 94/144/30 96/145/30
f 101/146/25 104/147/25 102/148/25
f 103/149/26 108/150/26 104/147/26
f 105/151/31 108/150/31 107/152/31
f 105/151/28 102/153/28 106/154/28
f 103/155/29 105/151/29 107/152/29
f 108/150/30 102/156/30 104/157/30
f 111/158/32 110/159/32 109/160/32
f 115/161/26 112/162/26 111/158/26
f 113/163/31 116/164/31 115/161/31
f 113/163/28 110/165/28 114/166/28
f 111/167/29 113/163/29 115/161/29
f 114/166/30 112/168/30 116/164/30
f 117/169/25 120/170/25 118/171/25
f 123/172/26 120/170/26 119/173/26
f 123/172/31 122/174/31 124/175/31
f 121/176/28 118/177/28 122/174/28
f 119/178/29 121/176/29 123/172/29
f 124/175/30 118/179/30 120/180/30
f 125/181/25 128/182/25 126/183/25
f 127/184/26 132/185/26 128/182/26
f 129/186/31 132/185/31 131/187/31
f 129/186/28 126/188/28 130/189/28
f 127/190/29 129/186/29 131/187/29
f 132/185/30 126/191/30 128/192/30
f 133/193/25 136/194/25 134/195/25
f 139/196/33 136/194/33 135/197/33
f 137/198/27 140/199/27 139/196/27
f 133/200/28 138/201/28 137/198/28
f 135/202/29 137/198/29 139/196/29
f 138/201/30 136/203/30 140/199/30
f 141/204/25 144/205/25 142/206/25
f 147/207/26 144/205/26 143/208/26
f 145/209/31 148/210/31 147/207/31
f 145/209/28 142/211/28 146/212/28
f 143/213/29 145/209/29 147/207/29
f 148/210/30 142/214/30 144/215/30
f 151/216/32 150/217/32 149/218/32
f 151/216/26 156/219/26 152/220/26
f 153/221/31 156/219/31 155/222/31
f 153/221/28 150/223/28 154/224/28
f 151/225/29 153/221/29 155/222/29
f 156/219/30 150/226/30 152/227/30
f 157/228/3 160/229/3 159/230/3
f 160/229/34 163/231/34 159/230/34
f 164/232/5 161/233/5 163/231/5
f 162/234/35 157/235/35 161/233/35
f 163/231/36 157/236/36 159/237/36
f 160/238/37 162/234/37 164/232/37
f 165/239/5 168/240/5 166/241/5
f 171/242/34 168/240/34 167/243/34
f 169/244/3 172/245/3 171/242/3
f 165/246/35 170/247/35 169/244/35
f 165/248/36 171/242/36 167/249/36
f 170/247/37 168/250/37 172/245/37
f 5/1/1 7/4/1 3/2/1
f 7/4/2 19/34/2 17/5/2
f 7/6/3 5/16/3 6/7/3
f 2/9/4 4/12/4 8/10/4
f 2/9/5 1/3/5 3/2/5
f 2/9/5 10/18/5 9/13/5
f 9/13/6 13/22/6 15/14/6
f 5/16/3 11/23/3 12/17/3
f 6/11/7 12/24/7 10/18/7
f 1/3/6 9/13/6 11/15/6
f 15/19/8 13/22/8 14/20/8
f 10/18/5 14/20/5 13/22/5
f 11/23/3 15/19/3 16/21/3
f 12/24/7 16/251/7 14/20/7
f 19/25/9 20/29/9 24/26/9
f 3/2/38 17/5/38 18/28/38
f 7/6/39 8/8/39 20/29/39
f 4/12/12 18/28/12 20/30/12
f 22/31/13 26/38/13 28/32/13
f 18/28/14 22/31/14 24/33/14
f 17/5/15 21/35/15 22/31/15
f 19/34/16 23/39/16 21/35/16
f 25/36/17 27/252/17 28/37/17
f 21/35/5 25/36/5 26/38/5
f 23/39/18 27/253/18 25/36/18
f 23/27/3 24/26/3 28/40/3
f 30/42/19 32/45/19 31/43/19
f 32/45/20 36/47/20 35/46/20
f 36/47/21 34/49/21 33/48/21
f 34/49/22 30/254/22 29/50/22
f 31/51/23 35/46/23 33/48/23
f 32/53/24 30/255/24 34/49/24
f 37/54/19 38/256/19 40/55/19
f 39/56/20 40/55/20 44/57/20
f 44/57/21 42/60/21 41/59/21
f 42/60/22 38/257/22 37/61/22
f 43/58/23 41/59/23 37/62/23
f 40/64/24 38/258/24 42/60/24
f 46/65/19 48/259/19 47/66/19
f 47/66/20 48/259/20 52/68/20
f 51/69/40 52/68/40 50/70/40
f 50/70/22 46/260/22 45/72/22
f 51/69/23 49/71/23 45/73/23
f 52/68/24 48/261/24 46/75/24
f 54/76/19 56/79/19 55/77/19
f 56/79/20 60/87/20 59/80/20
f 59/80/21 60/87/21 58/81/21
f 58/81/22 54/262/22 53/83/22
f 59/80/23 57/82/23 53/84/23
f 56/86/24 54/263/24 58/81/24
f 62/88/19 64/264/19 63/89/19
f 63/89/20 64/264/20 68/91/20
f 68/91/21 66/94/21 65/93/21
f 66/94/22 62/265/22 61/95/22
f 63/96/23 67/92/23 65/93/23
f 64/98/24 62/266/24 66/94/24
f 69/99/41 70/267/41 72/100/41
f 71/101/20 72/100/20 76/102/20
f 75/103/40 76/102/40 74/104/40
f 73/105/22 74/104/22 70/106/22
f 71/108/23 75/103/23 73/105/23
f 76/102/24 72/268/24 70/110/24
f 78/111/19 80/114/19 79/112/19
f 80/114/20 84/116/20 83/115/20
f 84/116/21 82/118/21 81/117/21
f 82/118/22 78/269/22 77/119/22
f 79/120/23 83/115/23 81/117/23
f 80/122/24 78/270/24 82/118/24
f 86/123/19 88/271/19 87/124/19
f 87/124/20 88/271/20 92/126/20
f 91/127/21 92/126/21 90/128/21
f 90/128/22 86/272/22 85/130/22
f 87/131/23 91/127/23 89/129/23
f 88/133/24 86/273/24 90/128/24
f 93/134/32 95/137/32 96/135/32
f 95/137/26 99/139/26 100/138/26
f 99/139/31 97/141/31 98/140/31
f 97/141/28 93/274/28 94/142/28
f 95/143/29 93/275/29 97/141/29
f 100/138/30 98/140/30 94/144/30
f 101/146/32 103/149/32 104/147/32
f 103/149/26 107/152/26 108/150/26
f 105/151/27 106/154/27 108/150/27
f 105/151/28 101/276/28 102/153/28
f 103/155/29 101/277/29 105/151/29
f 108/150/30 106/154/30 102/156/30
f 111/158/25 112/162/25 110/159/25
f 115/161/26 116/164/26 112/162/26
f 113/163/31 114/166/31 116/164/31
f 113/163/28 109/278/28 110/165/28
f 111/167/29 109/279/29 113/163/29
f 114/166/30 110/280/30 112/168/30
f 117/169/32 119/173/32 120/170/32
f 123/172/26 124/175/26 120/170/26
f 123/172/31 121/176/31 122/174/31
f 121/176/28 117/281/28 118/177/28
f 119/178/29 117/282/29 121/176/29
f 124/175/30 122/174/30 118/179/30
f 125/181/32 127/184/32 128/182/32
f 127/184/26 131/187/26 132/185/26
f 129/186/27 130/189/27 132/185/27
f 129/186/28 125/283/28 126/188/28
f 127/190/29 125/284/29 129/186/29
f 132/185/30 130/189/30 126/191/30
f 133/193/32 135/197/32 136/194/32
f 139/196/26 140/199/26 136/194/26
f 137/198/31 138/201/31 140/199/31
f 133/200/28 134/285/28 138/201/28
f 135/202/29 133/286/29 137/198/29
f 138/201/30 134/287/30 136/203/30
f 141/204/32 143/208/32 144/205/32
f 147/207/26 148/210/26 144/205/26
f 145/209/27 146/212/27 148/210/27
f 145/209/28 141/288/28 142/211/28
f 143/213/29 141/289/29 145/209/29
f 148/210/30 146/212/30 142/214/30
f 151/216/25 152/220/25 150/217/25
f 151/216/26 155/222/26 156/219/26
f 153/221/27 154/224/27 156/219/27
f 153/221/28 149/290/28 150/223/28
f 151/225/29 149/291/29 153/221/29
f 156/219/30 154/224/30 150/226/30
f 157/228/3 158/292/3 160/229/3
f 160/229/34 164/232/34 163/231/34
f 164/232/5 162/234/5 161/233/5
f 162/234/35 158/293/35 157/235/35
f 163/231/36 161/233/36 157/236/36
f 160/238/37 158/294/37 162/234/37
f 165/239/5 167/243/5 168/240/5
f 171/242/34 172/245/34 168/240/34
f 169/244/3 170/247/3 172/245/3
f 165/246/35 166/295/35 170/247/35
f 165/248/36 169/244/36 171/242/36
f 170/247/37 166/296/37 168/250/37
