# Blender v3.1.2 OBJ File: ''
# www.blender.org
mtllib MagicMolot.mtl
o Cube
v 0.142586 0.132586 3.023708
v 0.132586 0.142586 3.023708
v 0.154539 0.146296 3.033708
v 0.132586 -0.142586 3.023708
v 0.142586 -0.132586 3.023708
v 0.154539 -0.146296 3.033708
v 1.000000 0.398722 4.027529
v 0.990000 0.408722 4.027529
v 0.990000 0.398722 4.037529
v 1.000000 -0.398722 4.027529
v 0.990000 -0.398722 4.037529
v 0.990000 -0.408722 4.027529
v -0.142586 0.132586 3.023708
v -0.154539 0.146296 3.033708
v -0.132586 0.142586 3.023708
v -0.132586 -0.142586 3.023708
v -0.154539 -0.146296 3.033708
v -0.142586 -0.132586 3.023708
v -1.000000 0.398722 4.027529
v -0.990000 0.398722 4.037529
v -0.990000 0.408722 4.027529
v -0.990000 -0.408722 4.027529
v -0.990000 -0.398722 4.037529
v -1.000000 -0.398722 4.027529
v 0.988048 -0.405012 3.033708
v 1.000000 -0.398722 3.043708
v 0.990000 -0.408722 3.043708
v -1.000000 -0.398722 3.043708
v -0.988048 -0.405012 3.033708
v -0.990000 -0.408722 3.043708
v 0.988048 0.405012 3.033708
v 0.990000 0.408722 3.043708
v 1.000000 0.398722 3.043708
v -1.000000 0.398722 3.043708
v -0.990000 0.408722 3.043708
v -0.988048 0.405012 3.033708
v 0.142586 0.132586 -4.991046
v 0.132586 0.132586 -5.001046
v 0.132586 0.142586 -4.991046
v 0.132586 -0.142586 -4.991046
v 0.132586 -0.132586 -5.001046
v 0.142586 -0.132586 -4.991046
v -0.142586 0.132586 -4.991046
v -0.132586 0.142586 -4.991046
v -0.132586 0.132586 -5.001046
v -0.132586 -0.142586 -4.991046
v -0.142586 -0.132586 -4.991046
v -0.132586 -0.132586 -5.001046
vt 0.373750 0.502490
vt 0.126250 0.747509
vt 0.126250 0.502490
vt 0.873750 0.502490
vt 0.626250 0.747509
vt 0.626250 0.502490
vt 0.565008 0.309992
vt 0.434992 0.440008
vt 0.434992 0.309992
vt 0.565008 0.305089
vt 0.434992 0.305089
vt 0.434992 0.305089
vt 0.621942 0.751250
vt 0.378058 0.998750
vt 0.378058 0.751250
vt 0.430089 0.309992
vt 0.430089 0.440008
vt 0.430089 0.440008
vt 0.621942 0.502490
vt 0.378058 0.747510
vt 0.378058 0.502490
vt 0.569911 0.440008
vt 0.569911 0.309992
vt 0.569911 0.309992
vt 0.621942 0.002491
vt 0.378058 0.247510
vt 0.378058 0.002491
vt 0.570679 0.445679
vt 0.375768 0.499232
vt 0.429321 0.445679
vt 0.570679 0.304321
vt 0.624232 0.499232
vt 0.429321 0.304321
vt 0.624232 0.250768
vt 0.375768 0.250768
vt 0.565008 0.444911
vt 0.434992 0.444911
vt 0.621942 0.747510
vt 0.625000 0.747509
vt 0.621942 0.750000
vt 0.378058 0.750000
vt 0.375000 0.751250
vt 0.375000 0.751250
vt 0.621942 0.000000
vt 0.625000 0.002491
vt 0.126250 0.750000
vt 0.125000 0.747509
vt 0.376135 0.500000
vt 0.375000 0.502490
vt 0.375000 0.502490
vt 0.376135 0.250000
vt 0.375000 0.247510
vt 0.626494 0.500000
vt 0.625000 0.502490
vt 0.625000 0.502490
vt 0.621942 0.247510
vt 0.625000 0.247510
vt 0.623865 0.250000
vt 0.565008 0.444911
vt 0.565008 0.440008
vt 0.569911 0.440008
vt 0.434992 0.444911
vt 0.565008 0.305089
vt 0.430089 0.309992
vt 0.125000 0.502490
vt 0.373506 0.500000
vt 0.378058 0.000000
vt 0.625000 0.998750
vt 0.625000 0.751250
vt 0.373750 0.747509
vt 0.873506 0.500000
vt 0.873750 0.747509
vt 0.621942 0.998750
vt 0.126494 0.500000
vt 0.373750 0.750000
vn 0.3790 -0.9061 -0.1879
vn -0.3416 -0.8756 0.3416
vn -0.3790 -0.9061 -0.1879
vn -0.3790 0.9061 -0.1879
vn 0.3416 0.8756 0.3416
vn 0.3790 0.9061 -0.1879
vn -0.3416 0.3416 -0.8756
vn 0.3416 -0.3416 -0.8756
vn -0.3416 -0.3416 -0.8756
vn -0.8014 0.2792 -0.5290
vn -0.8756 -0.3416 -0.3416
vn -0.8014 -0.2792 -0.5290
vn 0.3416 0.3416 0.8756
vn -0.3416 -0.3416 0.8756
vn 0.3416 -0.3416 0.8756
vn -0.2420 -0.9218 -0.3029
vn 0.3416 -0.8756 -0.3416
vn 0.2420 -0.9218 -0.3029
vn 0.8813 0.3145 -0.3527
vn 0.8756 -0.3416 0.3416
vn 0.8813 -0.3145 -0.3527
vn 0.2420 0.9218 -0.3029
vn -0.3416 0.8756 -0.3416
vn -0.2420 0.9218 -0.3029
vn -0.8756 0.3416 0.3416
vn -0.8813 -0.3145 -0.3527
vn -0.8756 -0.3416 0.3416
vn 0.1230 0.1033 -0.9870
vn 0.3221 -0.5230 -0.7891
vn 0.1230 -0.1033 -0.9870
vn -0.1230 0.1033 -0.9870
vn 0.3221 0.5230 -0.7891
vn -0.1230 -0.1033 -0.9870
vn -0.3221 0.5230 -0.7891
vn -0.3221 -0.5230 -0.7891
vn 0.8014 0.2792 -0.5290
vn 0.8014 -0.2792 -0.5290
vn 0.8756 0.3416 0.3416
vn 0.3416 -0.8756 0.3416
vn -0.3416 0.3416 0.8756
vn -0.3416 0.8756 0.3416
vn -0.8813 0.3145 -0.3527
vn 0.8756 0.3416 -0.3416
vn 0.3416 0.3416 -0.8756
vn 0.3416 0.8756 -0.3416
vn 0.8756 -0.3416 -0.3416
vn -0.8756 0.3416 -0.3416
vn -0.3416 -0.8756 -0.3416
usemtl Material
s 1
f 27/1/1 22/2/2 30/3/3
f 35/4/4 8/5/5 32/6/6
f 45/7/7 41/8/8 48/9/9
f 13/10/10 47/11/11 18/12/12
f 9/13/13 23/14/14 11/15/15
f 16/16/16 40/17/17 4/18/18
f 33/19/19 10/20/20 26/21/21
f 2/22/22 44/23/23 15/24/24
f 19/25/25 28/26/26 24/27/27
f 3/28/28 25/29/29 6/30/30
f 14/31/31 31/32/32 3/28/28
f 17/33/33 36/34/34 14/31/31
f 6/30/30 29/35/35 17/33/33
f 1/36/36 2/22/22 3/28/28
f 4/18/18 5/37/37 6/30/30
f 7/38/38 8/39/5 9/40/13
f 10/41/20 11/42/15 12/43/39
f 13/10/10 14/31/31 15/24/24
f 16/16/16 17/33/33 18/12/12
f 19/25/25 20/44/40 21/45/41
f 22/2/2 23/46/14 24/47/27
f 25/48/29 26/49/21 27/50/1
f 28/26/26 29/51/35 30/52/3
f 31/53/32 32/54/6 33/55/19
f 34/56/42 35/57/4 36/58/34
f 37/59/43 38/60/44 39/61/45
f 40/17/17 41/8/8 42/62/46
f 43/63/47 44/23/23 45/7/7
f 46/64/48 47/11/11 48/9/9
f 22/2/2 28/65/26 30/3/3
f 30/3/3 25/66/29 27/1/1
f 26/21/21 31/32/32 33/19/19
f 20/44/40 24/27/27 23/67/14
f 11/15/15 7/38/38 9/13/13
f 29/35/35 34/56/42 36/34/34
f 21/68/41 9/13/13 8/69/5
f 8/5/5 33/19/19 32/6/6
f 12/70/39 23/46/14 22/2/2
f 35/57/4 19/25/25 21/45/41
f 32/6/6 36/71/34 35/4/4
f 27/1/1 10/20/20 12/70/39
f 17/33/33 4/18/18 6/30/30
f 6/30/30 1/36/36 3/28/28
f 18/12/12 14/31/31 13/10/10
f 3/28/28 15/24/24 14/31/31
f 46/64/48 41/8/8 40/17/17
f 42/62/46 38/60/44 37/59/43
f 48/9/9 43/63/47 45/7/7
f 39/61/45 45/7/7 44/23/23
f 37/59/43 2/22/22 1/36/36
f 13/10/10 44/23/23 43/63/47
f 40/17/17 5/37/37 4/18/18
f 16/16/16 47/11/11 46/64/48
f 5/37/37 37/59/43 1/36/36
f 27/1/1 12/70/39 22/2/2
f 35/4/4 21/72/41 8/5/5
f 45/7/7 38/60/44 41/8/8
f 13/10/10 43/63/47 47/11/11
f 9/13/13 20/73/40 23/14/14
f 16/16/16 46/64/48 40/17/17
f 33/19/19 7/38/38 10/20/20
f 2/22/22 39/61/45 44/23/23
f 19/25/25 34/56/42 28/26/26
f 3/28/28 31/32/32 25/29/29
f 14/31/31 36/34/34 31/32/32
f 17/33/33 29/35/35 36/34/34
f 6/30/30 25/29/29 29/35/35
f 22/2/2 24/47/27 28/65/26
f 30/3/3 29/74/35 25/66/29
f 26/21/21 25/29/29 31/32/32
f 20/44/40 19/25/25 24/27/27
f 11/15/15 10/20/20 7/38/38
f 29/35/35 28/26/26 34/56/42
f 21/68/41 20/73/40 9/13/13
f 8/5/5 7/38/38 33/19/19
f 12/70/39 11/75/15 23/46/14
f 35/57/4 34/56/42 19/25/25
f 32/6/6 31/53/32 36/71/34
f 27/1/1 26/21/21 10/20/20
f 17/33/33 16/16/16 4/18/18
f 6/30/30 5/37/37 1/36/36
f 18/12/12 17/33/33 14/31/31
f 3/28/28 2/22/22 15/24/24
f 46/64/48 48/9/9 41/8/8
f 42/62/46 41/8/8 38/60/44
f 48/9/9 47/11/11 43/63/47
f 39/61/45 38/60/44 45/7/7
f 37/59/43 39/61/45 2/22/22
f 13/10/10 15/24/24 44/23/23
f 40/17/17 42/62/46 5/37/37
f 16/16/16 18/12/12 47/11/11
f 5/37/37 42/62/46 37/59/43
