# Blender v3.1.2 OBJ File: ''
# www.blender.org
mtllib MedKidHash0.mtl
o Cylinder.001
v 0.000000 0.067541 -0.380366
v 0.000000 0.067541 -0.374978
v 0.064235 0.020871 -0.380366
v 0.064235 0.020871 -0.374978
v 0.039699 -0.054641 -0.380366
v 0.039699 -0.054641 -0.374978
v -0.039699 -0.054641 -0.380366
v -0.039699 -0.054641 -0.374978
v -0.064235 0.020871 -0.380366
v -0.064235 0.020871 -0.374978
v -0.148360 0.290997 -0.380366
v -0.148360 0.290997 -0.374978
v -0.212595 0.244327 -0.380366
v -0.212595 0.244327 -0.374978
v 0.163824 0.293025 -0.380366
v 0.163824 0.293025 -0.374978
v 0.228059 0.246356 -0.380366
v 0.228059 0.246356 -0.374978
v 0.306809 -0.057946 -0.380366
v 0.306809 -0.057946 -0.374978
v 0.282273 -0.133458 -0.380366
v 0.282273 -0.133458 -0.374978
v 0.039699 -0.320225 -0.380366
v 0.039699 -0.320225 -0.374978
v -0.039699 -0.320225 -0.380366
v -0.039699 -0.320225 -0.374978
v -0.296687 -0.138142 -0.380366
v -0.296687 -0.138142 -0.374978
v -0.321223 -0.062629 -0.380366
v -0.321223 -0.062629 -0.374978
v 0.000000 0.067541 0.371642
v 0.000000 0.067541 0.377030
v 0.064235 0.020871 0.371642
v 0.064235 0.020871 0.377030
v 0.039699 -0.054641 0.371642
v 0.039699 -0.054641 0.377030
v -0.039699 -0.054641 0.371642
v -0.039699 -0.054641 0.377030
v -0.064235 0.020871 0.371642
v -0.064235 0.020871 0.377030
v -0.148360 0.290997 0.371642
v -0.148360 0.290997 0.377030
v -0.212595 0.244327 0.371642
v -0.212595 0.244327 0.377030
v 0.163824 0.293025 0.371642
v 0.163824 0.293025 0.377030
v 0.228059 0.246356 0.371642
v 0.228059 0.246356 0.377030
v 0.306809 -0.057946 0.371642
v 0.306809 -0.057946 0.377030
v 0.282273 -0.133458 0.371642
v 0.282273 -0.133458 0.377030
v 0.039699 -0.320225 0.371642
v 0.039699 -0.320225 0.377030
v -0.039699 -0.320225 0.371642
v -0.039699 -0.320225 0.377030
v -0.296687 -0.138142 0.371642
v -0.296687 -0.138142 0.377030
v -0.321223 -0.062629 0.371642
v -0.321223 -0.062629 0.377030
vt 1.000000 1.000000
vt 1.000000 0.500000
vt 1.000000 0.500000
vt 0.600000 0.500000
vt 0.600000 1.000000
vt 0.600000 1.000000
vt 0.108932 0.055836
vt 0.391068 0.055836
vt 0.391068 0.055836
vt 0.021746 0.324164
vt 0.021746 0.324164
vt 0.108932 0.055836
vt 1.000000 1.000000
vt 0.978254 0.324164
vt 0.608932 0.055836
vt 0.521746 0.324164
vt 0.200000 1.000000
vt 0.000000 0.500000
vt 0.200000 0.500000
vt 0.750000 0.490000
vt 0.521746 0.324164
vt 0.750000 0.490000
vt 0.250000 0.490000
vt 0.021746 0.324164
vt 0.200000 1.000000
vt 0.200000 0.500000
vt 1.000000 1.000000
vt 0.800000 0.500000
vt 0.978254 0.324164
vt 0.800000 0.500000
vt 0.800000 1.000000
vt 0.800000 1.000000
vt 0.478254 0.324164
vt 0.250000 0.490000
vt 0.800000 1.000000
vt 0.600000 0.500000
vt 0.800000 0.500000
vt 0.891068 0.055836
vt 0.891068 0.055836
vt 0.478254 0.324164
vt 0.391068 0.055836
vt 0.478254 0.324164
vt 0.600000 1.000000
vt 0.400000 0.500000
vt 0.600000 0.500000
vt 0.400000 0.500000
vt 0.400000 1.000000
vt 0.400000 1.000000
vt 0.891068 0.055836
vt 0.608932 0.055836
vt 0.400000 1.000000
vt 0.200000 0.500000
vt 0.400000 0.500000
vt 0.200000 1.000000
vt 0.521746 0.324164
vt 0.108932 0.055836
vt 1.000000 0.500000
vt 0.000000 1.000000
vt 0.250000 0.490000
vt 0.750000 0.490000
vt 0.978254 0.324164
vt 0.608932 0.055836
vt 1.000000 1.000000
vt 1.000000 0.500000
vt 1.000000 0.500000
vt 0.600000 0.500000
vt 0.600000 1.000000
vt 0.600000 1.000000
vt 0.108932 0.055836
vt 0.391068 0.055836
vt 0.391068 0.055836
vt 0.021746 0.324164
vt 0.021746 0.324164
vt 0.108932 0.055836
vt 1.000000 1.000000
vt 0.978254 0.324164
vt 0.608932 0.055836
vt 0.521746 0.324164
vt 0.200000 1.000000
vt 0.000000 0.500000
vt 0.200000 0.500000
vt 0.750000 0.490000
vt 0.521746 0.324164
vt 0.750000 0.490000
vt 0.250000 0.490000
vt 0.021746 0.324164
vt 0.200000 1.000000
vt 0.200000 0.500000
vt 1.000000 1.000000
vt 0.800000 0.500000
vt 0.978254 0.324164
vt 0.800000 0.500000
vt 0.800000 1.000000
vt 0.800000 1.000000
vt 0.478254 0.324164
vt 0.250000 0.490000
vt 0.800000 1.000000
vt 0.600000 0.500000
vt 0.800000 0.500000
vt 0.891068 0.055836
vt 0.891068 0.055836
vt 0.478254 0.324164
vt 0.391068 0.055836
vt 0.478254 0.324164
vt 0.600000 1.000000
vt 0.400000 0.500000
vt 0.600000 0.500000
vt 0.400000 0.500000
vt 0.400000 1.000000
vt 0.400000 1.000000
vt 0.891068 0.055836
vt 0.608932 0.055836
vt 0.400000 1.000000
vt 0.200000 0.500000
vt 0.400000 0.500000
vt 0.200000 1.000000
vt 0.521746 0.324164
vt 0.108932 0.055836
vt 1.000000 0.500000
vt 0.000000 1.000000
vt 0.250000 0.490000
vt 0.750000 0.490000
vt 0.978254 0.324164
vt 0.608932 0.055836
vn -0.8090 0.5878 0.0000
vn -0.3090 -0.9511 0.0000
vn -0.0000 0.0000 1.0000
vn 0.8331 0.5531 0.0000
vn 0.0000 0.0000 -1.0000
vn -0.5878 0.8090 0.0000
vn -0.8331 -0.5531 0.0000
vn 0.5878 0.8090 0.0000
vn 0.8090 -0.5878 0.0000
vn 0.9511 -0.3090 0.0000
vn 0.3090 0.9511 0.0000
vn 0.0000 -1.0000 0.0000
vn 1.0000 -0.0000 0.0000
vn -1.0000 0.0000 0.0000
vn -0.9511 -0.3090 0.0000
vn 0.3090 -0.9511 0.0000
vn -0.3090 0.9511 0.0000
usemtl Material.002
s off
f 2/1/1 15/2/1 1/3/1
f 5/4/2 22/5/2 6/6/2
f 8/7/3 24/8/3 6/9/3
f 10/10/3 8/7/3 6/9/3
f 8/7/3 30/11/3 28/12/3
f 1/3/4 12/13/4 2/1/4
f 3/14/5 7/15/5 9/16/5
f 14/17/6 11/18/6 13/19/6
f 1/20/5 13/21/5 11/22/5
f 2/23/3 14/24/3 10/10/3
f 10/25/7 13/19/7 9/26/7
f 16/27/8 17/28/8 15/2/8
f 1/20/5 17/29/5 3/14/5
f 3/30/9 18/31/9 4/32/9
f 2/23/3 18/33/3 16/34/3
f 20/35/10 21/36/10 19/37/10
f 3/14/5 21/38/5 5/39/5
f 4/40/3 22/41/3 20/42/3
f 4/32/11 19/37/11 3/30/11
f 24/43/12 25/44/12 23/45/12
f 6/6/13 23/45/13 5/4/13
f 7/46/14 26/47/14 8/48/14
f 7/15/5 23/49/5 25/50/5
f 28/51/15 29/52/15 27/53/15
f 8/48/16 27/53/16 7/46/16
f 9/26/17 30/54/17 10/25/17
f 7/15/5 29/55/5 9/16/5
f 2/1/1 16/27/1 15/2/1
f 5/4/2 21/36/2 22/5/2
f 8/7/3 26/56/3 24/8/3
f 6/9/3 4/40/3 2/23/3
f 2/23/3 10/10/3 6/9/3
f 8/7/3 10/10/3 30/11/3
f 1/3/4 11/57/4 12/13/4
f 9/16/5 1/20/5 3/14/5
f 3/14/5 5/39/5 7/15/5
f 14/17/6 12/58/6 11/18/6
f 1/20/5 9/16/5 13/21/5
f 2/23/3 12/59/3 14/24/3
f 10/25/7 14/17/7 13/19/7
f 16/27/8 18/31/8 17/28/8
f 1/20/5 15/60/5 17/29/5
f 3/30/9 17/28/9 18/31/9
f 2/23/3 4/40/3 18/33/3
f 20/35/10 22/5/10 21/36/10
f 3/14/5 19/61/5 21/38/5
f 4/40/3 6/9/3 22/41/3
f 4/32/11 20/35/11 19/37/11
f 24/43/12 26/47/12 25/44/12
f 6/6/13 24/43/13 23/45/13
f 7/46/14 25/44/14 26/47/14
f 7/15/5 5/39/5 23/49/5
f 28/51/15 30/54/15 29/52/15
f 8/48/16 28/51/16 27/53/16
f 9/26/17 29/52/17 30/54/17
f 7/15/5 27/62/5 29/55/5
usemtl Material.001
f 32/63/1 45/64/1 31/65/1
f 35/66/2 52/67/2 36/68/2
f 38/69/3 54/70/3 36/71/3
f 40/72/3 38/69/3 36/71/3
f 38/69/3 60/73/3 58/74/3
f 31/65/4 42/75/4 32/63/4
f 33/76/5 37/77/5 39/78/5
f 44/79/6 41/80/6 43/81/6
f 31/82/5 43/83/5 41/84/5
f 32/85/3 44/86/3 40/72/3
f 40/87/7 43/81/7 39/88/7
f 46/89/8 47/90/8 45/64/8
f 31/82/5 47/91/5 33/76/5
f 33/92/9 48/93/9 34/94/9
f 32/85/3 48/95/3 46/96/3
f 50/97/10 51/98/10 49/99/10
f 33/76/5 51/100/5 35/101/5
f 34/102/3 52/103/3 50/104/3
f 34/94/11 49/99/11 33/92/11
f 54/105/12 55/106/12 53/107/12
f 36/68/13 53/107/13 35/66/13
f 37/108/14 56/109/14 38/110/14
f 37/77/5 53/111/5 55/112/5
f 58/113/15 59/114/15 57/115/15
f 38/110/16 57/115/16 37/108/16
f 39/88/17 60/116/17 40/87/17
f 37/77/5 59/117/5 39/78/5
f 32/63/1 46/89/1 45/64/1
f 35/66/2 51/98/2 52/67/2
f 38/69/3 56/118/3 54/70/3
f 36/71/3 34/102/3 32/85/3
f 32/85/3 40/72/3 36/71/3
f 38/69/3 40/72/3 60/73/3
f 31/65/4 41/119/4 42/75/4
f 39/78/5 31/82/5 33/76/5
f 33/76/5 35/101/5 37/77/5
f 44/79/6 42/120/6 41/80/6
f 31/82/5 39/78/5 43/83/5
f 32/85/3 42/121/3 44/86/3
f 40/87/7 44/79/7 43/81/7
f 46/89/8 48/93/8 47/90/8
f 31/82/5 45/122/5 47/91/5
f 33/92/9 47/90/9 48/93/9
f 32/85/3 34/102/3 48/95/3
f 50/97/10 52/67/10 51/98/10
f 33/76/5 49/123/5 51/100/5
f 34/102/3 36/71/3 52/103/3
f 34/94/11 50/97/11 49/99/11
f 54/105/12 56/109/12 55/106/12
f 36/68/13 54/105/13 53/107/13
f 37/108/14 55/106/14 56/109/14
f 37/77/5 35/101/5 53/111/5
f 58/113/15 60/116/15 59/114/15
f 38/110/16 58/113/16 57/115/16
f 39/88/17 59/114/17 60/116/17
f 37/77/5 57/124/5 59/117/5
