# Blender v3.1.2 OBJ File: ''
# www.blender.org
mtllib mike(B).mtl
o Blue_Cube.006
v -0.254049 -2.958791 0.254049
v -0.254049 -2.958791 -0.254049
v 0.254049 -2.958791 0.254049
v 0.254049 -2.958791 -0.254049
v -0.364061 -3.456288 0.308041
v -0.364061 -3.456288 -0.141839
v 0.364341 -3.455381 0.308041
v 0.364341 -3.455381 -0.141839
v -0.496141 -3.915622 -0.103832
v -0.496141 -3.915622 0.303274
v 0.497195 -3.914045 -0.103497
v 0.497195 -3.914045 0.302939
v 0.470976 -3.683981 -0.119397
v 0.169647 -3.861737 -0.138626
v 0.470976 -3.683982 0.318839
v 0.169647 -3.861737 0.338068
v -0.469998 -3.688367 -0.119397
v -0.163769 -3.862545 -0.138867
v -0.163769 -3.862545 0.338308
v -0.469998 -3.688367 0.318839
v -0.448216 -4.654678 -0.050945
v -0.448216 -4.654677 0.250387
v -0.226239 -4.654677 -0.050945
v -0.226239 -4.654677 0.250387
v 0.449543 -4.652845 0.249401
v 0.449543 -4.652845 -0.049959
v 0.232454 -4.652845 0.249401
v 0.232454 -4.652845 -0.049959
v -0.460150 -4.999914 -0.070428
v -0.460150 -4.999914 0.263307
v -0.214305 -4.999914 -0.070428
v -0.214305 -4.999914 0.263307
v 0.462107 -4.998155 0.263446
v 0.462107 -4.998155 -0.070567
v 0.219890 -4.998155 0.263446
v 0.219890 -4.998155 -0.070567
v 0.441283 -5.334948 0.186601
v 0.441283 -5.334948 -0.089979
v 0.240714 -5.334948 0.186601
v 0.240714 -5.334948 -0.089979
v -0.441487 -5.334949 -0.093221
v -0.441487 -5.334949 0.189843
v -0.232968 -5.334949 -0.093221
v -0.232968 -5.334949 0.189843
v 0.417216 -6.107119 0.028108
v 0.411023 -6.069301 -0.183456
v 0.264781 -6.107118 0.028108
v 0.270974 -6.069301 -0.183456
v -0.407900 -6.068862 -0.183752
v -0.413840 -6.106680 0.028003
v -0.266555 -6.068862 -0.183752
v -0.260615 -6.106680 0.028003
v 0.423790 -6.364627 0.009711
v 0.400893 -6.348601 -0.188315
v 0.258207 -6.364627 0.009711
v 0.281104 -6.348600 -0.188315
v -0.395615 -6.348162 -0.187746
v -0.417717 -6.364188 0.008951
v -0.278840 -6.348162 -0.187746
v -0.256738 -6.364189 0.008951
v 0.289901 -6.252441 0.223339
v 0.392096 -6.252441 0.223339
v -0.387696 -6.252002 0.222199
v -0.286759 -6.252002 0.222199
v 0.281104 -6.348601 0.256919
v 0.400893 -6.348600 0.256919
v -0.395615 -6.348162 0.255779
v -0.278840 -6.348162 0.255779
v -0.349317 -2.958791 0.000000
v -0.000000 -2.958791 -0.349317
v 0.349317 -2.958791 -0.000000
v 0.000000 -2.958791 0.349317
v -0.500741 -3.452552 0.083101
v 0.000314 -3.462345 -0.226192
v 0.500811 -3.451304 0.083101
v 0.000314 -3.462345 0.392393
v 0.317404 -3.227845 0.285094
v 0.317404 -3.227845 -0.189528
v -0.317369 -3.227958 -0.189528
v -0.317369 -3.227958 0.285094
v -0.545646 -3.915054 0.099721
v -0.357493 -3.910681 -0.186259
v 0.545837 -3.913363 0.099721
v 0.360846 -3.909389 0.385252
v 0.513600 -3.743762 0.316852
v 0.399103 -3.606883 -0.122203
v -0.512683 -3.747211 -0.117452
v -0.398335 -3.609643 0.317489
v 0.513600 -3.743762 -0.117410
v 0.360846 -3.909389 -0.185810
v 0.399103 -3.606883 0.317489
v 0.002968 -3.748553 0.323525
v 0.279650 -3.717658 -0.205685
v 0.103415 -3.908140 0.099721
v 0.552254 -3.677178 0.099721
v 0.279650 -3.717657 0.405127
v -0.398335 -3.609643 -0.122203
v 0.002968 -3.748553 -0.124083
v -0.357493 -3.910681 0.385700
v -0.512683 -3.747211 0.316893
v -0.276588 -3.720040 -0.205716
v -0.096169 -3.908581 0.099721
v -0.552010 -3.682359 0.099721
v -0.276588 -3.720040 0.405157
v -0.489836 -4.654678 0.099721
v -0.337227 -4.654677 -0.107445
v -0.337227 -4.654677 0.306887
v -0.184619 -4.654677 0.099721
v -0.466225 -4.274565 -0.073872
v -0.466226 -4.274564 0.273314
v -0.207180 -4.269329 0.277126
v -0.207180 -4.269328 -0.077685
v 0.490247 -4.652845 0.099721
v 0.340999 -4.652846 0.305531
v 0.340999 -4.652845 -0.106089
v 0.191750 -4.652846 0.099721
v 0.467322 -4.273314 0.272397
v 0.467322 -4.273314 -0.072955
v 0.213573 -4.268173 -0.076779
v 0.213573 -4.268172 0.276220
v -0.506246 -4.999914 0.096439
v -0.337227 -4.999914 -0.133003
v -0.337227 -4.999914 0.325882
v -0.168209 -4.999914 0.096439
v 0.507523 -4.998155 0.096439
v 0.340999 -4.998155 0.326073
v 0.340999 -4.998155 -0.133195
v 0.174474 -4.998155 0.096439
v -0.451468 -4.880271 0.254393
v -0.222987 -4.880271 0.254393
v 0.228587 -4.878174 -0.055703
v 0.228587 -4.878174 0.254324
v -0.451468 -4.880271 -0.055771
v 0.453410 -4.878173 0.254324
v -0.222987 -4.880271 -0.055771
v 0.453410 -4.878173 -0.055703
v 0.478889 -5.334948 0.048311
v 0.340999 -5.334948 0.238460
v 0.340999 -5.334948 -0.141838
v 0.203108 -5.334948 0.048311
v 0.457341 -5.116742 -0.074932
v 0.224656 -5.116743 -0.074932
v 0.457341 -5.116742 0.245935
v 0.224656 -5.116743 0.245934
v -0.480584 -5.334949 0.048311
v -0.337227 -5.334949 -0.146296
v -0.337227 -5.334949 0.242917
v -0.193871 -5.334949 0.048311
v -0.217799 -5.117622 -0.076623
v -0.456656 -5.117622 -0.076623
v -0.456656 -5.117622 0.247625
v -0.217799 -5.117622 0.247625
v 0.438556 -6.073353 -0.091384
v 0.340999 -6.052030 0.073428
v 0.340999 -6.069302 -0.216634
v 0.243441 -6.073353 -0.091384
v -0.435644 -6.072914 -0.091431
v -0.337227 -6.068862 -0.217042
v -0.337227 -6.051590 0.073726
v -0.238811 -6.072915 -0.091431
v 0.259953 -5.702797 -0.135316
v 0.259449 -5.706182 0.089606
v 0.422548 -5.706182 0.089606
v -0.421614 -5.705799 0.091809
v -0.252841 -5.705798 0.091809
v -0.421128 -5.702414 -0.137565
v 0.422045 -5.702797 -0.135316
v -0.253327 -5.702415 -0.137565
v 0.419807 -6.361882 -0.119723
v 0.340999 -6.388667 0.011810
v 0.340999 -6.359136 -0.201098
v 0.262190 -6.361882 -0.119723
v 0.411613 -6.277554 -0.201391
v 0.270384 -6.277554 -0.201391
v 0.444619 -6.287165 0.007018
v 0.237378 -6.287165 0.007018
v -0.413876 -6.361443 -0.119748
v -0.337227 -6.358698 -0.200403
v -0.337227 -6.388229 0.011050
v -0.260579 -6.361443 -0.119748
v -0.235448 -6.286727 0.006310
v -0.267745 -6.277116 -0.200796
v -0.406710 -6.277116 -0.200796
v -0.439007 -6.286726 0.006310
v 0.340999 -6.241905 0.236450
v -0.337227 -6.241466 0.235310
v 0.340999 -6.359136 0.280834
v 0.408656 -6.300520 0.258642
v 0.273341 -6.300520 0.258642
v -0.337227 -6.358698 0.279694
v -0.270872 -6.300082 0.257502
v -0.403583 -6.300082 0.257502
v 0.404890 -6.225804 0.136239
v 0.419807 -6.361882 0.162078
v -0.413876 -6.361443 0.160986
v -0.400638 -6.225365 0.135224
v 0.262190 -6.361882 0.162078
v 0.277107 -6.225803 0.136239
v -0.273817 -6.225364 0.135224
v -0.260579 -6.361444 0.160986
v 0.436410 -3.227335 0.047783
v 0.531188 -3.597113 0.097643
v -0.436402 -3.227491 0.047783
v 0.000039 -3.228716 0.374086
v 0.000039 -3.228715 -0.278520
v -0.513339 -4.274494 0.099721
v -0.530996 -3.600739 0.097643
v 0.001235 -3.650007 0.406040
v 0.001235 -3.650007 -0.208865
v 0.186433 -4.878173 0.099311
v 0.402562 -3.757543 -0.202325
v 0.513452 -4.273229 0.099721
v 0.561289 -3.741208 0.099721
v 0.402562 -3.757543 0.401767
v -0.400081 -3.760096 -0.202407
v 0.003577 -3.779502 0.099721
v -0.561068 -3.745040 0.099721
v -0.400081 -3.760096 0.401849
v -0.339098 -4.273338 0.339365
v -0.339098 -4.273337 -0.139923
v -0.157628 -4.272372 0.099721
v -0.337227 -4.880271 0.312548
v 0.165039 -4.271254 0.099721
v 0.342826 -4.272128 -0.138665
v 0.342826 -4.272128 0.338106
v -0.337227 -5.117622 -0.137419
v 0.340999 -5.116742 -0.135095
v -0.494308 -4.880271 0.099311
v 0.340999 -4.878173 0.312454
v -0.180146 -4.880271 0.099311
v -0.337227 -4.880271 -0.113927
v 0.340999 -4.878174 -0.113832
v 0.495565 -4.878174 0.099311
v 0.340999 -5.702151 0.132921
v 0.500969 -5.116742 0.085501
v 0.181028 -5.116742 0.085501
v 0.340999 -5.116742 0.306097
v 0.229434 -5.703811 -0.023960
v -0.337227 -5.117622 0.308422
v -0.501441 -5.117622 0.085501
v -0.173013 -5.117622 0.085501
v 0.340999 -6.278593 -0.229888
v -0.237346 -6.279687 -0.118392
v -0.337227 -5.701768 0.135991
v -0.452712 -5.703427 -0.023971
v 0.340999 -5.702797 -0.176847
v -0.221742 -5.703427 -0.023971
v 0.452563 -5.703811 -0.023960
v -0.337227 -5.702415 -0.179940
v 0.340999 -6.384957 -0.120721
v 0.442573 -6.280125 -0.118374
v 0.239424 -6.280126 -0.118374
v -0.433096 -6.297613 0.148424
v -0.337227 -6.384519 -0.120733
v -0.337227 -6.278154 -0.229069
v 0.438721 -6.298052 0.149504
v -0.437109 -6.279687 -0.118392
v 0.340999 -6.300521 0.297494
v -0.337227 -6.300083 0.296354
v 0.243276 -6.298052 0.149504
v 0.340999 -6.197221 0.136603
v -0.241359 -6.297613 0.148424
v -0.337227 -6.196782 0.135638
v 0.340999 -6.384957 0.169898
v -0.337227 -6.384518 0.168806
vt 0.375000 0.625000
vt 0.375000 0.500012
vt 0.375000 0.500000
vt 0.375000 0.750000
vt 0.375000 0.625000
vt 0.375000 0.749989
vt 0.375000 0.625000
vt 0.375000 0.500092
vt 0.375000 0.625000
vt 0.375000 0.503967
vt 0.375000 0.749908
vt 0.375000 0.746034
vt 0.375000 0.625000
vt 0.375000 0.520629
vt 0.375000 0.000000
vt 0.375000 0.125001
vt 0.375000 0.000000
vt 0.375000 0.125000
vt 0.375000 0.250012
vt 0.375000 0.250092
vt 0.375000 0.125011
vt 0.375000 0.000000
vt 0.375000 0.874976
vt 0.375000 1.000000
vt 0.375000 0.875000
vt 0.375000 1.000000
vt 0.375000 0.874805
vt 0.375000 0.250000
vt 0.375000 0.375026
vt 0.375000 0.375000
vt 0.375000 0.375206
vt 0.375000 0.000000
vt 0.375000 0.121500
vt 0.375000 0.000000
vt 0.375000 0.220650
vt 0.375000 0.121331
vt 0.375000 0.222190
vt 0.375000 0.121524
vt 0.375000 0.000000
vt 0.375000 0.124567
vt 0.375000 0.000000
vt 0.375000 0.246537
vt 0.375000 0.122501
vt 0.375000 0.000000
vt 0.375000 1.000000
vt 0.375000 1.000000
vt 0.375000 0.873918
vt 0.375000 0.872527
vt 0.375000 0.942806
vt 0.375000 0.916861
vt 0.375000 0.802583
vt 0.375000 0.828192
vt 0.375000 0.729371
vt 0.375000 0.375846
vt 0.375000 0.377474
vt 0.375000 0.447417
vt 0.375000 0.421808
vt 0.375000 0.304696
vt 0.375000 0.333139
vt 0.375000 0.230012
vt 0.296808 0.750000
vt 0.296808 0.625000
vt 0.296808 0.750000
vt 0.296808 0.500000
vt 0.296808 0.625000
vt 0.296808 0.500000
vt 0.296808 0.625000
vt 0.296808 0.750000
vt 0.375000 0.477235
vt 0.375000 0.468146
vt 0.375000 0.530711
vt 0.375000 0.530083
vt 0.375000 0.625000
vt 0.375000 0.528816
vt 0.375000 0.719917
vt 0.375000 0.625000
vt 0.375000 0.721365
vt 0.375000 0.625000
vt 0.375000 0.528635
vt 0.375000 0.625000
vt 0.375000 0.719289
vt 0.375000 0.772765
vt 0.375000 0.781854
vt 0.375000 0.219896
vt 0.375000 0.274425
vt 0.375000 0.284156
vt 0.208139 0.750000
vt 0.252473 0.625000
vt 0.252474 0.750000
vt 0.208139 0.500000
vt 0.220454 0.625000
vt 0.296808 0.500000
vt 0.284493 0.625000
vt 0.296808 0.750000
vt 0.375000 0.121237
vt 0.375000 0.000000
vt 0.375000 0.969931
vt 0.375000 0.962175
vt 0.375000 1.000000
vt 0.375000 1.000000
vt 0.375000 0.916861
vt 0.375000 0.958815
vt 0.375000 1.000000
vt 0.375000 0.958430
vt 0.375000 0.916861
vt 0.375000 0.287685
vt 0.375000 0.221997
vt 0.375000 0.333139
vt 0.375000 0.333139
vt 0.375000 0.288093
vt 0.208139 0.500000
vt 0.208139 0.750000
vt 0.209371 0.625000
vt 0.208139 0.750000
vt 0.208139 0.625000
vt 0.208139 0.500000
vt 0.375000 0.916861
vt 0.375000 1.000000
vt 0.375000 0.958430
vt 0.375000 1.000000
vt 0.375000 0.958430
vt 0.375000 0.916861
vt 0.296808 0.750000
vt 0.296808 0.500000
vt 0.295576 0.625000
vt 0.375000 0.421808
vt 0.375000 0.464868
vt 0.375000 0.464483
vt 0.375000 0.421808
vt 0.375000 0.785132
vt 0.375000 0.721184
vt 0.375000 0.828193
vt 0.375000 0.828192
vt 0.375000 0.785517
vt 0.375000 0.288093
vt 0.375000 0.222190
vt 0.375000 0.222190
vt 0.375000 0.333139
vt 0.375000 0.288093
vt 0.375000 0.333139
vt 0.375000 0.288093
vt 0.375000 0.222190
vt 0.375000 0.464483
vt 0.375000 0.421808
vt 0.375000 0.421808
vt 0.375000 0.528635
vt 0.375000 0.464483
vt 0.375000 0.528635
vt 0.375000 0.464483
vt 0.375000 0.421808
vt 0.375000 0.121524
vt 0.375000 0.000000
vt 0.375000 0.222190
vt 0.375000 0.121524
vt 0.375000 0.000000
vt 0.375000 0.721365
vt 0.375000 0.828193
vt 0.375000 0.785517
vt 0.375000 0.828192
vt 0.375000 0.785517
vt 0.375000 0.721365
vt 0.208139 0.625000
vt 0.208139 0.500000
vt 0.208139 0.750000
vt 0.208139 0.625000
vt 0.208139 0.500000
vt 0.375000 0.333139
vt 0.375000 0.288093
vt 0.375000 0.333139
vt 0.375000 0.421808
vt 0.375000 0.528635
vt 0.375000 0.464483
vt 0.375000 0.528635
vt 0.375000 0.625000
vt 0.375000 0.625000
vt 0.375000 0.721365
vt 0.375000 0.785732
vt 0.375000 0.722224
vt 0.375000 0.828192
vt 0.375000 0.785517
vt 0.375000 0.828193
vt 0.375000 0.787244
vt 0.375000 0.729383
vt 0.375000 0.625000
vt 0.375000 0.721366
vt 0.375000 0.625000
vt 0.296808 0.750000
vt 0.296808 0.500000
vt 0.296808 0.625000
vt 0.296808 0.500000
vt 0.296808 0.625000
vt 0.296808 0.750000
vt 0.375000 0.785517
vt 0.375000 0.828193
vt 0.296808 0.625000
vt 0.296808 0.750000
vt 0.296808 0.500000
vt 0.296808 0.500000
vt 0.296808 0.624132
vt 0.296808 0.750000
vt 0.375000 0.958430
vt 0.375000 0.916861
vt 0.375000 1.000000
vt 0.375000 0.958430
vt 0.375000 0.916861
vt 0.375000 0.000000
vt 0.375000 0.121524
vt 0.375000 0.121524
vt 0.375000 0.000000
vt 0.208139 0.625000
vt 0.208139 0.500000
vt 0.208139 0.750000
vt 0.208139 0.750000
vt 0.208139 0.625000
vt 0.208139 0.500000
vt 0.375000 0.464483
vt 0.375000 0.421808
vt 0.375000 0.421808
vt 0.374729 0.526248
vt 0.375000 0.463887
vt 0.375000 0.500000
vt 0.375000 0.460904
vt 0.375000 0.421808
vt 0.208139 0.624132
vt 0.208139 0.500000
vt 0.208139 0.500000
vt 0.208139 0.750000
vt 0.206696 0.620660
vt 0.206407 0.711806
vt 0.195438 0.619792
vt 0.208139 0.500000
vt 0.375000 0.958430
vt 0.375000 0.916861
vt 0.375000 1.000000
vt 0.375000 1.000000
vt 0.375000 0.958430
vt 0.375000 0.916861
vt 0.375000 0.121524
vt 0.375000 0.000000
vt 0.375000 0.222190
vt 0.375000 0.122392
vt 0.375000 0.000000
vt 0.375000 0.421808
vt 0.375000 0.528635
vt 0.375000 0.464483
vt 0.375000 0.528635
vt 0.208139 0.625000
vt 0.208139 0.500000
vt 0.208139 0.750000
vt 0.375000 0.625215
vt 0.375000 0.625588
vt 0.375000 0.222190
vt 0.375000 0.333139
vt 0.375000 0.288093
vt 0.375000 0.333139
vt 0.375000 0.288093
vt 0.309840 0.708333
vt 0.335904 0.619792
vt 0.335904 0.708333
vt 0.308754 0.619792
vt 0.335904 0.500000
vt 0.363054 0.620388
vt 0.361968 0.708333
vt 0.373643 0.623261
vt 0.373371 0.710550
vt 0.298165 0.620660
vt 0.298437 0.711806
vt 0.296808 0.500000
vt 0.296808 0.500000
vt 0.375000 0.034722
vt 0.375000 0.000000
vt 0.375000 0.000000
vt 0.375000 0.003472
vt 0.375000 0.000000
vt 0.375000 0.000000
vt 0.375000 0.000000
vt 0.166570 0.500000
vt 0.125000 0.625000
vt 0.125000 0.500000
vt 0.165126 0.620660
vt 0.194283 0.708333
vt 0.164838 0.711806
vt 0.125000 0.750000
vt 0.375000 0.224507
vt 0.375000 0.333139
vt 0.375000 0.288673
vt 0.375000 0.333139
vt 0.375000 0.291570
vt 0.375000 0.250000
vt 0.373643 0.747933
vt 0.363054 0.745063
vt 0.373371 0.710550
vt 0.375000 0.760667
vt 0.375000 0.769548
vt 0.374729 0.763062
vt 0.375000 0.750000
vt 0.375000 0.125575
vt 0.375000 0.125000
vt 0.375000 0.790665
vt 0.375000 0.828192
vt 0.375000 0.791570
vt 0.375000 0.828193
vt 0.375000 0.789096
vt 0.375000 0.916861
vt 0.375000 0.958430
vt 0.375000 0.916861
vt 0.375000 1.000000
vt 0.375000 0.958430
vt 0.375000 1.000000
vt 0.375000 0.958430
vt 0.375000 0.916861
vt 0.296808 0.750000
vt 0.298165 0.745660
vt 0.296808 0.750000
vt 0.296808 0.750000
vt 0.296808 0.750000
vt 0.375000 0.790283
vt 0.375000 0.828192
vt 0.375000 0.828193
vt 0.206696 0.745660
vt 0.195438 0.744792
vt 0.208139 0.750000
vt 0.208139 0.750000
vt 0.208139 0.750000
vt 0.208139 0.750000
vt 0.375000 0.958430
vt 0.375000 0.916861
vt 0.375000 1.000000
vt 0.375000 1.000000
vt 0.335904 0.744792
vt 0.308754 0.744792
vt 0.335904 0.750000
vt 0.165126 0.745660
vt 0.125000 0.750000
vt 0.166570 0.750000
vt 0.125000 0.750000
vt 0.375000 1.000000
vt 0.252473 0.500000
vt 0.375000 1.000000
vt 0.208139 0.750000
vt 0.296808 0.500000
vt 0.375000 0.000000
vt 0.375000 0.828193
vt 0.375000 1.000000
vn 0.9278 0.1350 -0.3479
vn 0.8792 0.3438 0.3297
vn 0.8492 0.3114 0.4265
vn 0.8525 0.0672 -0.5184
vn 0.8476 0.1278 -0.5149
vn 0.8314 0.2239 0.5085
vn 0.8293 0.2314 0.5086
vn 0.7068 0.6486 -0.2823
vn -0.8645 0.2534 0.4341
vn -0.8746 0.2054 -0.4391
vn -0.8424 0.1601 -0.5145
vn -0.8318 0.2213 0.5091
vn 0.2655 0.1720 0.9486
vn -0.3498 0.0856 0.9329
vn -0.2237 0.0759 0.9717
vn 0.2665 0.1510 0.9519
vn -0.2666 -0.1649 -0.9496
vn 0.3410 -0.2385 -0.9093
vn 0.2244 -0.2127 -0.9510
vn -0.2675 -0.1443 -0.9527
vn -0.9601 -0.1018 0.2605
vn -0.9680 -0.0870 -0.2352
vn -0.9622 -0.0595 -0.2658
vn -0.9633 -0.0614 0.2614
vn -0.8318 0.2174 0.5107
vn -0.8473 0.1223 -0.5169
vn -0.8349 0.2019 -0.5120
vn -0.7070 0.6484 0.2824
vn 0.2223 0.1114 0.9686
vn -0.2225 0.1094 0.9688
vn -0.1937 0.1928 0.9619
vn 0.2490 -0.2427 0.9376
vn -0.2488 -0.2460 0.9368
vn 0.1768 0.7186 0.6725
vn -0.2261 -0.0738 -0.9713
vn 0.2265 -0.0739 -0.9712
vn 0.1953 0.1468 -0.9697
vn -0.2488 -0.2460 -0.9368
vn 0.2490 -0.2427 -0.9376
vn -0.1867 0.7101 -0.6789
vn -0.9647 0.0223 0.2623
vn -0.9647 0.0232 -0.2623
vn -0.9599 0.1019 -0.2610
vn -0.9611 0.0895 0.2614
vn -0.2481 -0.0371 -0.9680
vn 0.3659 0.2309 -0.9015
vn 0.6124 -0.1228 -0.7809
vn 0.9611 -0.1017 -0.2567
vn 0.9689 -0.0872 0.2316
vn 0.9633 -0.0589 0.2620
vn 0.9643 -0.0608 -0.2576
vn 0.8033 0.5667 -0.1831
vn 0.9282 0.1310 0.3484
vn 0.9732 -0.0873 0.2127
vn 0.9665 -0.1120 -0.2310
vn 0.3659 0.2309 0.9015
vn -0.0920 -0.3616 0.9278
vn 0.4975 -0.2277 0.8370
vn -0.3640 0.2342 -0.9015
vn 0.0925 -0.3619 -0.9276
vn -0.4914 -0.2291 -0.8403
vn 0.5676 -0.8154 0.1143
vn 0.7487 -0.5785 -0.3237
vn -0.7482 -0.5807 -0.3210
vn -0.5649 -0.8176 0.1115
vn -0.7986 0.5732 0.1837
vn -0.9269 0.1340 -0.3506
vn -0.9724 -0.0882 -0.2158
vn -0.9654 -0.1138 0.2345
vn 0.2456 -0.0344 0.9688
vn -0.3640 0.2342 0.9015
vn -0.6066 -0.1231 0.7854
vn 0.2741 -0.1716 0.9463
vn -0.5028 -0.1346 0.8538
vn -0.4591 -0.0776 0.8850
vn 0.4273 -0.0836 0.9002
vn -0.4573 -0.1118 -0.8823
vn 0.4271 -0.0932 -0.8994
vn 0.4524 -0.0735 -0.8888
vn -0.4524 -0.0750 -0.8887
vn 0.9442 -0.1452 -0.2956
vn 0.9499 -0.1605 0.2681
vn 0.9617 -0.0679 0.2657
vn 0.9607 -0.0662 -0.2695
vn 0.4536 0.0224 0.8909
vn -0.4535 0.0224 0.8910
vn -0.4514 0.0988 0.8868
vn 0.4514 0.0988 0.8868
vn -0.9454 -0.1465 0.2912
vn -0.9508 -0.1614 -0.2643
vn -0.9628 -0.0674 -0.2618
vn -0.9618 -0.0657 0.2656
vn -0.2765 -0.1737 -0.9452
vn 0.5086 -0.1358 -0.8502
vn 0.4648 -0.0777 -0.8820
vn -0.4324 -0.0838 -0.8978
vn 0.4629 -0.1132 0.8791
vn -0.4323 -0.0951 0.8967
vn -0.4581 -0.0736 0.8859
vn 0.4580 -0.0751 0.8858
vn -0.4534 0.0334 -0.8907
vn 0.4534 0.0334 -0.8907
vn 0.4534 0.0364 -0.8906
vn -0.4534 0.0364 -0.8906
vn -0.4593 0.0142 -0.8882
vn 0.4593 0.0142 -0.8882
vn 0.4592 0.0274 -0.8879
vn -0.4592 0.0274 -0.8879
vn -0.9637 0.0186 0.2662
vn -0.9637 0.0196 -0.2662
vn -0.9589 0.1020 -0.2649
vn -0.9600 0.0894 0.2652
vn 0.4592 0.0273 0.8879
vn -0.4592 0.0273 0.8879
vn -0.4570 0.1003 0.8838
vn 0.4570 0.1003 0.8838
vn 0.9637 0.0196 -0.2662
vn 0.9637 0.0186 0.2662
vn 0.9600 0.0894 0.2652
vn 0.9589 0.1020 -0.2649
vn -0.4535 0.0256 -0.8909
vn 0.4535 0.0256 -0.8909
vn 0.4492 0.1407 -0.8823
vn -0.4492 0.1407 -0.8823
vn -0.4591 0.0305 -0.8878
vn 0.4591 0.0305 -0.8878
vn 0.4547 0.1419 -0.8793
vn -0.4547 0.1419 -0.8793
vn 0.9647 0.0232 -0.2623
vn 0.9647 0.0223 0.2623
vn 0.9611 0.0895 0.2614
vn 0.9599 0.1019 -0.2610
vn 0.4449 -0.2473 0.8607
vn -0.4451 -0.2474 0.8607
vn -0.4581 -0.1490 0.8763
vn 0.4277 -0.1426 0.8926
vn 0.9645 -0.0291 -0.2623
vn 0.9621 -0.0773 0.2616
vn 0.9553 -0.1409 0.2598
vn 0.9636 -0.0528 -0.2620
vn -0.9621 -0.0773 0.2616
vn -0.9645 -0.0291 -0.2623
vn -0.9636 -0.0528 -0.2620
vn -0.9553 -0.1409 0.2598
vn 0.4543 -0.1480 0.8785
vn -0.4543 -0.1480 0.8785
vn -0.4429 -0.2655 0.8564
vn 0.4429 -0.2655 0.8564
vn -0.9611 -0.1142 0.2516
vn -0.9648 -0.0175 -0.2624
vn -0.9581 0.0158 -0.2858
vn -0.9855 -0.0384 0.1651
vn 0.4498 -0.1311 0.8835
vn -0.4497 -0.1311 0.8835
vn -0.4381 -0.2594 0.8607
vn 0.4381 -0.2594 0.8607
vn -0.9619 -0.0640 0.2657
vn -0.9638 -0.0146 -0.2662
vn -0.9628 -0.0469 -0.2660
vn -0.9548 -0.1368 0.2638
vn 0.9638 -0.0146 -0.2662
vn 0.9619 -0.0640 0.2657
vn 0.9548 -0.1368 0.2638
vn 0.9628 -0.0469 -0.2660
vn -0.4268 0.0788 -0.9009
vn 0.3728 0.0586 -0.9260
vn 0.2518 -0.3257 -0.9113
vn -0.3677 -0.2217 -0.9031
vn 0.9578 0.0180 -0.2870
vn 0.9844 -0.0159 0.1752
vn 0.9616 -0.2728 -0.0300
vn 0.9159 -0.2063 -0.3443
vn 0.4395 -0.2515 0.8623
vn -0.4391 -0.2514 0.8625
vn -0.4523 -0.1563 0.8781
vn 0.4247 -0.1503 0.8928
vn -0.9595 -0.1189 0.2553
vn -0.9637 -0.0207 -0.2662
vn -0.9578 0.0082 -0.2875
vn -0.9849 -0.0457 0.1669
vn -0.4577 0.0851 -0.8850
vn 0.4544 0.0844 -0.8868
vn 0.4261 0.0976 -0.8994
vn -0.4536 0.1026 -0.8853
vn 0.9632 -0.0210 -0.2680
vn 0.9564 -0.1242 0.2642
vn 0.9622 -0.0913 0.2566
vn 0.9634 -0.0010 -0.2679
vn 0.9642 -0.0178 -0.2644
vn 0.9581 -0.1194 0.2605
vn 0.9639 -0.0827 0.2530
vn 0.9644 0.0057 -0.2643
vn -0.4521 0.0821 -0.8882
vn 0.4493 0.0815 -0.8896
vn 0.4244 0.0912 -0.9009
vn -0.4487 0.0958 -0.8885
vn -0.2781 -0.9602 -0.0269
vn -0.2720 -0.9162 -0.2943
vn 0.2720 -0.9162 -0.2943
vn 0.2781 -0.9602 -0.0269
vn 0.9581 0.0273 -0.2853
vn 0.9846 -0.0037 0.1748
vn 0.9630 -0.2677 -0.0307
vn 0.9156 -0.2021 -0.3477
vn -0.9885 0.1513 -0.0076
vn -0.9357 0.0635 -0.3470
vn -0.9196 -0.2511 -0.3022
vn -0.9648 -0.2606 -0.0352
vn -0.9657 0.1065 0.2368
vn -0.9642 -0.2643 0.0199
vn -0.9527 -0.1670 0.2540
vn -0.8617 0.4349 0.2614
vn -0.2232 -0.9437 -0.2442
vn 0.2788 -0.9136 -0.2961
vn 0.2854 -0.9580 -0.0270
vn -0.2885 -0.9570 -0.0290
vn -0.4250 0.0714 -0.9024
vn 0.3757 0.0532 -0.9252
vn 0.2559 -0.3241 -0.9107
vn -0.3702 -0.2234 -0.9017
vn 0.9600 -0.2785 0.0301
vn 0.8984 0.4336 0.0703
vn 0.8476 0.4712 0.2441
vn 0.9460 -0.2366 0.2218
vn -0.9902 0.1393 -0.0072
vn -0.9375 0.0515 -0.3442
vn -0.9198 -0.2564 -0.2971
vn -0.9634 -0.2660 -0.0344
vn 0.3873 0.6286 0.6744
vn -0.3103 0.6857 0.6584
vn -0.3967 -0.2510 0.8830
vn 0.4949 -0.1108 0.8618
vn 0.3944 0.6250 0.6737
vn -0.3138 0.6849 0.6576
vn -0.4053 -0.2499 0.8794
vn 0.5020 -0.1139 0.8573
vn -0.9635 0.1185 0.2399
vn -0.9657 -0.2590 0.0202
vn -0.9521 -0.1630 0.2586
vn -0.8544 0.4483 0.2626
vn 0.2855 0.6291 0.7230
vn -0.6403 0.3065 0.7043
vn -0.3799 0.8443 0.3779
vn 0.2690 0.9093 0.3176
vn 0.9587 -0.2829 0.0293
vn 0.9051 0.4194 0.0698
vn 0.8545 0.4598 0.2416
vn 0.9458 -0.2423 0.2162
vn 0.2863 0.6246 0.7266
vn -0.6391 0.3017 0.7075
vn -0.3825 0.8431 0.3780
vn 0.2723 0.9079 0.3186
vn -0.2832 -0.9588 0.0247
vn 0.2793 -0.9599 0.0225
vn 0.2941 -0.9309 0.2167
vn -0.2402 -0.9536 0.1814
vn -0.2905 -0.9566 0.0246
vn 0.2866 -0.9578 0.0225
vn 0.3016 -0.9286 0.2162
vn -0.2459 -0.9523 0.1808
vn 0.8746 0.2055 -0.4391
vn 0.8644 0.2536 0.4340
vn 0.8317 0.2228 0.5086
vn 0.8786 0.1831 -0.4410
vn 0.8472 0.1250 -0.5163
vn 0.8313 0.2225 0.5093
vn 0.6998 0.6572 0.2800
vn 0.8347 0.2064 -0.5106
vn -0.8793 0.3436 0.3297
vn -0.9278 0.1349 -0.3479
vn -0.8903 0.0888 -0.4467
vn -0.8496 0.3099 0.4268
vn 0.3498 0.0857 0.9329
vn -0.2656 0.1719 0.9486
vn -0.2666 0.1502 0.9520
vn 0.2237 0.0764 0.9717
vn -0.3410 -0.2385 -0.9093
vn 0.2667 -0.1649 -0.9496
vn 0.2675 -0.1445 -0.9527
vn -0.2237 -0.2133 -0.9510
vn -0.9680 -0.0870 0.2352
vn -0.9601 -0.1018 -0.2605
vn -0.9633 -0.0614 -0.2614
vn -0.9622 -0.0595 0.2658
vn -0.8321 0.2199 0.5092
vn -0.8474 0.1233 -0.5164
vn -0.7139 0.6397 -0.2847
vn -0.8298 0.2266 0.5099
vn 0.2092 0.0719 0.9752
vn -0.2091 0.0699 0.9754
vn -0.1829 0.7169 0.6728
vn 0.1570 -0.6324 0.7586
vn -0.1521 -0.6361 0.7565
vn 0.1927 0.1964 0.9614
vn -0.2198 -0.0908 -0.9713
vn 0.2211 -0.0886 -0.9712
vn 0.1807 0.7119 -0.6786
vn -0.1485 -0.6464 -0.7484
vn 0.1536 -0.6429 -0.7504
vn -0.1959 0.1437 -0.9700
vn -0.0920 -0.3616 -0.9278
vn 0.2798 0.8202 -0.4990
vn 0.4975 -0.2277 -0.8370
vn 0.9689 -0.0872 -0.2316
vn 0.9611 -0.1017 0.2567
vn 0.9643 -0.0608 0.2576
vn 0.9633 -0.0589 -0.2620
vn 0.9282 0.1310 -0.3484
vn 0.8033 0.5667 0.1831
vn 0.9665 -0.1120 0.2310
vn 0.9732 -0.0873 -0.2127
vn 0.2798 0.8202 0.4990
vn -0.2481 -0.0371 0.9680
vn 0.6124 -0.1228 0.7809
vn -0.2799 0.8221 -0.4957
vn 0.2456 -0.0344 -0.9688
vn -0.6066 -0.1231 -0.7854
vn 0.7487 -0.5785 0.3237
vn 0.5676 -0.8154 -0.1143
vn -0.5649 -0.8176 -0.1115
vn -0.7482 -0.5807 0.3210
vn -0.9269 0.1340 0.3506
vn -0.7986 0.5732 -0.1837
vn -0.9654 -0.1138 -0.2345
vn -0.9724 -0.0882 0.2158
vn 0.0925 -0.3619 0.9276
vn -0.2799 0.8221 0.4957
vn -0.4914 -0.2291 0.8403
vn 0.4271 -0.0932 0.8994
vn -0.4573 -0.1118 0.8823
vn -0.4524 -0.0750 0.8887
vn 0.4524 -0.0735 0.8888
vn -0.5028 -0.1346 -0.8538
vn 0.2741 -0.1716 -0.9463
vn 0.4273 -0.0836 -0.9002
vn -0.4591 -0.0776 -0.8850
vn 0.9499 -0.1605 -0.2681
vn 0.9442 -0.1452 0.2956
vn 0.9607 -0.0662 0.2695
vn 0.9617 -0.0679 -0.2657
vn 0.4535 0.0224 0.8910
vn -0.4536 0.0224 0.8910
vn -0.9508 -0.1614 0.2643
vn -0.9454 -0.1465 -0.2912
vn -0.9618 -0.0657 -0.2656
vn -0.9628 -0.0674 0.2618
vn -0.4323 -0.0951 -0.8967
vn 0.4629 -0.1132 -0.8791
vn 0.4580 -0.0751 -0.8858
vn -0.4581 -0.0736 -0.8859
vn 0.5086 -0.1358 0.8502
vn -0.2765 -0.1737 0.9452
vn -0.4324 -0.0838 0.8978
vn 0.4648 -0.0777 0.8820
vn -0.4491 0.1407 -0.8823
vn 0.4451 -0.2474 0.8607
vn -0.4449 -0.2473 0.8607
vn -0.4277 -0.1426 0.8926
vn 0.4581 -0.1490 0.8763
vn -0.9581 -0.1194 0.2605
vn -0.9642 -0.0178 -0.2644
vn -0.9644 0.0057 -0.2643
vn -0.9639 -0.0827 0.2530
vn 0.4497 -0.1311 0.8835
vn -0.3728 0.0586 -0.9260
vn 0.4268 0.0788 -0.9009
vn 0.3677 -0.2217 -0.9031
vn -0.2518 -0.3257 -0.9113
vn 0.9375 0.0515 -0.3442
vn 0.9902 0.1393 -0.0072
vn 0.9634 -0.2660 -0.0344
vn 0.9198 -0.2564 -0.2971
vn 0.4391 -0.2514 0.8625
vn -0.4395 -0.2515 0.8623
vn -0.4247 -0.1503 0.8928
vn 0.4523 -0.1563 0.8781
vn -0.9564 -0.1242 0.2642
vn -0.9632 -0.0210 -0.2680
vn -0.9634 -0.0010 -0.2679
vn -0.9622 -0.0913 0.2566
vn -0.4544 0.0844 -0.8868
vn 0.4577 0.0851 -0.8850
vn 0.4536 0.1026 -0.8853
vn -0.4261 0.0976 -0.8994
vn 0.9637 -0.0207 -0.2662
vn 0.9595 -0.1189 0.2553
vn 0.9849 -0.0457 0.1669
vn 0.9578 0.0082 -0.2875
vn 0.9648 -0.0175 -0.2624
vn 0.9611 -0.1142 0.2516
vn 0.9855 -0.0384 0.1651
vn 0.9581 0.0158 -0.2858
vn -0.4493 0.0815 -0.8896
vn 0.4521 0.0821 -0.8882
vn 0.4488 0.0958 -0.8885
vn -0.4244 0.0912 -0.9009
vn -0.2812 -0.9592 -0.0290
vn -0.2181 -0.9451 -0.2432
vn 0.2181 -0.9451 -0.2431
vn 0.2812 -0.9592 -0.0290
vn 0.9357 0.0635 -0.3470
vn 0.9885 0.1513 -0.0076
vn 0.9648 -0.2606 -0.0352
vn 0.9196 -0.2511 -0.3022
vn -0.9846 -0.0037 0.1748
vn -0.9581 0.0273 -0.2853
vn -0.9156 -0.2021 -0.3477
vn -0.9630 -0.2677 -0.0307
vn -0.9051 0.4194 0.0698
vn -0.9587 -0.2829 0.0293
vn -0.9458 -0.2423 0.2161
vn -0.8545 0.4598 0.2416
vn -0.2788 -0.9136 -0.2961
vn 0.2232 -0.9437 -0.2443
vn 0.2885 -0.9570 -0.0290
vn -0.2854 -0.9580 -0.0270
vn -0.3757 0.0532 -0.9252
vn 0.4250 0.0714 -0.9024
vn 0.3702 -0.2234 -0.9017
vn -0.2559 -0.3241 -0.9107
vn 0.9657 -0.2590 0.0202
vn 0.9635 0.1185 0.2399
vn 0.8544 0.4483 0.2626
vn 0.9521 -0.1630 0.2586
vn -0.9844 -0.0159 0.1752
vn -0.9578 0.0180 -0.2870
vn -0.9159 -0.2063 -0.3443
vn -0.9616 -0.2728 -0.0300
vn 0.3103 0.6857 0.6584
vn -0.3873 0.6286 0.6744
vn -0.4949 -0.1108 0.8619
vn 0.3967 -0.2510 0.8830
vn 0.3138 0.6849 0.6576
vn -0.3944 0.6250 0.6737
vn -0.5020 -0.1139 0.8573
vn 0.4053 -0.2499 0.8794
vn -0.8984 0.4336 0.0703
vn -0.9600 -0.2785 0.0301
vn -0.9460 -0.2366 0.2218
vn -0.8476 0.4712 0.2441
vn 0.6403 0.3065 0.7043
vn -0.2855 0.6291 0.7230
vn -0.2690 0.9093 0.3176
vn 0.3799 0.8443 0.3779
vn 0.9642 -0.2643 0.0199
vn 0.9657 0.1065 0.2368
vn 0.8617 0.4349 0.2614
vn 0.9527 -0.1670 0.2540
vn 0.6391 0.3017 0.7075
vn -0.2863 0.6246 0.7266
vn -0.2723 0.9079 0.3186
vn 0.3825 0.8431 0.3780
vn -0.2793 -0.9599 0.0225
vn 0.2832 -0.9588 0.0247
vn 0.2402 -0.9536 0.1814
vn -0.2941 -0.9309 0.2167
vn -0.2867 -0.9578 0.0225
vn 0.2905 -0.9566 0.0246
vn 0.2459 -0.9523 0.1808
vn -0.3016 -0.9286 0.2162
usemtl Material.004
s off
f 71/1/1 78/2/1 4/3/1
f 3/4/2 201/5/2 71/1/2
f 77/6/3 75/7/3 201/5/3
f 78/2/4 75/7/4 8/8/4
f 8/8/5 202/9/5 86/10/5
f 7/11/6 202/9/6 75/7/6
f 91/12/7 95/13/7 202/9/7
f 86/10/8 95/13/8 13/14/8
f 1/15/9 203/16/9 80/17/9
f 69/18/10 79/19/10 203/16/10
f 203/16/11 6/20/11 73/21/11
f 80/17/12 73/21/12 5/22/12
f 3/4/13 204/23/13 77/6/13
f 1/24/14 204/23/14 72/25/14
f 204/23/15 5/26/15 76/27/15
f 204/23/16 7/11/16 77/6/16
f 2/28/17 205/29/17 79/19/17
f 4/3/18 205/29/18 70/30/18
f 205/29/19 8/8/19 74/31/19
f 205/29/20 6/20/20 79/19/20
f 10/32/21 206/33/21 110/34/21
f 9/35/22 206/33/22 81/36/22
f 206/33/23 21/37/23 105/38/23
f 206/33/24 22/39/24 110/34/24
f 5/22/25 207/40/25 88/41/25
f 6/20/26 207/40/26 73/21/26
f 97/42/27 103/43/27 207/40/27
f 88/41/28 103/43/28 20/44/28
f 76/27/29 91/12/29 7/11/29
f 88/45/30 76/27/30 5/26/30
f 20/46/31 208/47/31 88/45/31
f 92/48/32 104/49/32 19/50/32
f 96/51/33 92/48/33 16/52/33
f 15/53/34 208/47/34 96/51/34
f 74/31/35 97/42/35 6/20/35
f 86/10/36 74/31/36 8/8/36
f 13/14/37 209/54/37 86/10/37
f 98/55/38 93/56/38 14/57/38
f 101/58/39 98/55/39 18/59/39
f 17/60/40 209/54/40 101/58/40
f 27/61/41 210/62/41 132/63/41
f 28/64/42 210/62/42 116/65/42
f 131/66/43 128/67/43 210/62/43
f 132/63/44 128/67/44 35/68/44
f 14/57/45 211/69/45 90/70/45
f 89/71/46 93/56/46 13/14/46
f 11/72/47 211/69/47 89/71/47
f 11/72/48 212/73/48 118/74/48
f 12/75/49 212/73/49 83/76/49
f 212/73/50 25/77/50 113/78/50
f 212/73/51 26/79/51 118/74/51
f 13/14/52 213/80/52 89/71/52
f 15/53/53 213/80/53 95/13/53
f 85/81/54 83/76/54 213/80/54
f 89/71/55 83/76/55 11/72/55
f 96/51/56 85/81/56 15/53/56
f 16/52/57 214/82/57 96/51/57
f 12/75/58 214/82/58 84/83/58
f 101/58/59 87/84/59 17/60/59
f 18/59/60 215/85/60 101/58/60
f 9/35/61 215/85/61 82/86/61
f 19/87/62 216/88/62 92/89/62
f 18/90/63 216/88/63 102/91/63
f 216/88/64 14/92/64 94/93/64
f 216/88/65 16/94/65 92/89/65
f 20/44/66 217/95/66 100/96/66
f 17/60/67 217/95/67 103/43/67
f 87/84/68 81/36/68 217/95/68
f 100/96/69 81/36/69 10/32/69
f 19/50/70 218/97/70 99/98/70
f 100/99/71 104/49/71 20/46/71
f 10/100/72 218/97/72 100/99/72
f 99/98/73 111/101/73 19/50/73
f 10/100/74 219/102/74 99/98/74
f 110/103/75 107/104/75 219/102/75
f 219/102/76 24/105/76 111/101/76
f 9/35/77 220/106/77 109/107/77
f 82/86/78 112/108/78 220/106/78
f 220/106/79 23/109/79 106/110/79
f 109/107/80 106/110/80 21/37/80
f 102/91/81 112/111/81 18/90/81
f 102/91/82 111/112/82 221/113/82
f 221/113/83 24/114/83 108/115/83
f 221/113/84 23/116/84 112/111/84
f 107/104/85 130/117/85 24/105/85
f 107/104/86 129/118/86 222/119/86
f 222/119/87 30/120/87 123/121/87
f 222/119/88 32/122/88 130/117/88
f 94/93/89 120/123/89 16/94/89
f 94/93/90 119/124/90 223/125/90
f 223/125/91 28/64/91 116/65/91
f 223/125/92 27/61/92 120/123/92
f 90/70/93 119/126/93 14/57/93
f 11/72/94 224/127/94 90/70/94
f 118/74/95 115/128/95 224/127/95
f 224/127/96 28/129/96 119/126/96
f 12/75/97 225/130/97 117/131/97
f 84/83/98 120/132/98 225/130/98
f 225/130/99 27/133/99 114/134/99
f 117/131/100 114/134/100 25/77/100
f 122/135/101 150/136/101 29/137/101
f 122/135/102 149/138/102 226/139/102
f 226/139/103 43/140/103 146/141/103
f 226/139/104 41/142/104 150/136/104
f 127/143/105 142/144/105 36/145/105
f 127/143/106 141/146/106 227/147/106
f 227/147/107 38/148/107 139/149/107
f 227/147/108 40/150/108 142/144/108
f 22/39/109 228/151/109 129/152/109
f 21/37/110 228/151/110 105/38/110
f 133/153/111 121/154/111 228/151/111
f 129/152/112 121/154/112 30/155/112
f 114/134/113 134/156/113 25/77/113
f 114/134/114 132/157/114 229/158/114
f 229/158/115 35/159/115 126/160/115
f 229/158/116 33/161/116 134/156/116
f 23/116/117 230/162/117 135/163/117
f 24/114/118 230/162/118 108/115/118
f 130/164/119 124/165/119 230/162/119
f 135/163/120 124/165/120 31/166/120
f 106/110/121 133/153/121 21/37/121
f 106/110/122 135/167/122 231/168/122
f 231/168/123 31/169/123 122/135/123
f 231/168/124 29/137/124 133/153/124
f 115/128/125 131/170/125 28/129/125
f 115/128/126 136/171/126 232/172/126
f 232/172/127 34/173/127 127/143/127
f 232/172/128 36/145/128 131/170/128
f 26/79/129 233/174/129 136/171/129
f 25/77/130 233/174/130 113/78/130
f 134/156/131 125/175/131 233/174/131
f 136/171/132 125/175/132 34/173/132
f 37/176/133 234/177/133 163/178/133
f 39/179/134 234/177/134 138/180/134
f 162/181/135 154/182/135 234/177/135
f 163/178/136 154/182/136 45/183/136
f 34/173/137 235/184/137 141/146/137
f 125/175/138 143/185/138 235/184/138
f 235/184/139 37/176/139 137/186/139
f 141/146/140 137/186/140 38/148/140
f 128/67/141 144/187/141 35/68/141
f 36/188/142 236/189/142 128/67/142
f 142/190/143 140/191/143 236/189/143
f 236/189/144 39/192/144 144/187/144
f 33/161/145 237/193/145 143/185/145
f 35/159/146 237/193/146 126/160/146
f 144/194/147 138/180/147 237/193/147
f 143/185/148 138/180/148 37/176/148
f 39/192/149 238/195/149 162/196/149
f 40/197/150 238/195/150 140/191/150
f 238/195/151 48/198/151 156/199/151
f 162/196/152 156/199/152 47/200/152
f 32/122/153 239/201/153 152/202/153
f 30/120/154 239/201/154 123/121/154
f 151/203/155 147/204/155 239/201/155
f 152/202/156 147/204/156 44/205/156
f 121/154/157 151/206/157 30/155/157
f 29/137/158 240/207/158 121/154/158
f 150/136/159 145/208/159 240/207/159
f 240/207/160 42/209/160 151/206/160
f 31/166/161 241/210/161 149/211/161
f 124/165/162 152/212/162 241/210/162
f 241/210/163 44/213/163 148/214/163
f 149/211/164 148/214/164 43/215/164
f 155/216/165 174/217/165 48/218/165
f 155/216/166 173/219/166 242/220/166
f 242/220/167 54/221/167 171/222/167
f 242/220/168 56/223/168 174/217/168
f 160/224/169 182/225/169 51/226/169
f 52/227/170 243/228/170 160/224/170
f 181/229/171 180/230/171 243/228/171
f 243/228/172 59/231/172 182/225/172
f 44/205/173 244/232/173 165/233/173
f 42/234/174 244/232/174 147/204/174
f 164/235/175 159/236/175 244/232/175
f 165/233/176 159/236/176 52/237/176
f 42/209/177 245/238/177 164/239/177
f 41/142/178 245/238/178 145/208/178
f 245/238/179 49/240/179 157/241/179
f 164/239/180 157/241/180 50/242/180
f 139/149/181 161/243/181 40/150/181
f 139/149/182 167/244/182 246/245/182
f 246/245/183 46/246/183 155/216/183
f 246/245/184 48/218/184 161/243/184
f 43/215/185 247/247/185 168/248/185
f 44/213/186 247/247/186 148/214/186
f 165/249/187 160/224/187 247/247/187
f 247/247/188 51/226/188 168/248/188
f 38/148/189 248/250/189 167/244/189
f 37/176/190 248/250/190 137/186/190
f 163/178/191 153/251/191 248/250/191
f 248/250/192 46/246/192 167/244/192
f 146/141/193 166/252/193 41/142/193
f 146/141/194 168/253/194 249/254/194
f 249/254/195 51/255/195 158/256/195
f 249/254/196 49/240/196 166/252/196
f 55/257/197 250/258/197 170/259/197
f 172/260/198 171/261/198 250/258/198
f 171/261/199 169/262/199 250/258/199
f 250/258/200 53/263/200 170/259/200
f 153/251/201 173/219/201 46/246/201
f 45/183/202 251/264/202 153/251/202
f 175/265/203 169/262/203 251/264/203
f 251/264/204 54/221/204 173/219/204
f 47/200/205 252/266/205 176/267/205
f 156/199/206 174/268/206 252/266/206
f 252/266/207 56/269/207 172/260/207
f 176/267/208 172/260/208 55/257/208
f 184/270/209 196/271/209 50/242/209
f 58/272/210 253/273/210 184/270/210
f 253/273/211 67/274/211 192/275/211
f 253/273/212 63/276/212 196/271/212
f 178/277/213 177/278/213 57/279/213
f 178/277/214 180/230/214 254/280/214
f 254/280/215 60/281/215 179/282/215
f 254/280/216 58/283/216 177/278/216
f 158/256/217 183/284/217 49/240/217
f 158/256/218 182/285/218 255/286/218
f 255/286/219 59/287/219 178/288/219
f 255/286/220 57/289/220 183/284/220
f 53/263/221 256/290/221 194/291/221
f 175/292/222 193/293/222 256/290/222
f 256/290/223 62/294/223 188/295/223
f 256/290/224 66/296/224 194/291/224
f 50/242/225 257/297/225 184/270/225
f 157/241/226 183/284/226 257/297/226
f 257/297/227 57/289/227 177/298/227
f 184/270/228 177/298/228 58/272/228
f 62/294/229 258/299/229 188/295/229
f 61/300/230 258/299/230 185/301/230
f 258/299/231 65/302/231 187/303/231
f 258/299/232 66/296/232 188/295/232
f 64/304/233 259/305/233 191/306/233
f 63/307/234 259/305/234 186/308/234
f 259/305/235 67/309/235 190/310/235
f 259/305/236 68/311/236 191/306/236
f 176/267/237 198/312/237 47/200/237
f 55/257/238 260/313/238 176/267/238
f 260/313/239 65/314/239 189/315/239
f 260/313/240 61/316/240 198/312/240
f 45/183/241 261/317/241 193/293/241
f 47/318/242 261/317/242 154/182/242
f 198/319/243 185/301/243 261/317/243
f 193/293/244 185/301/244 62/294/244
f 60/281/245 262/320/245 200/321/245
f 181/229/246 199/322/246 262/320/246
f 262/320/247 64/323/247 191/324/247
f 262/320/248 68/325/248 200/321/248
f 52/237/249 263/326/249 199/327/249
f 50/328/250 263/326/250 159/236/250
f 196/329/251 186/308/251 263/326/251
f 199/327/252 186/308/252 64/304/252
f 55/257/253 264/330/253 197/331/253
f 53/263/254 264/330/254 170/259/254
f 194/291/255 187/332/255 264/330/255
f 197/331/256 187/332/256 65/314/256
f 58/283/257 265/333/257 195/334/257
f 60/281/258 265/333/258 179/282/258
f 200/321/259 190/335/259 265/333/259
f 195/334/260 190/335/260 67/336/260
f 71/1/261 201/5/261 78/2/261
f 3/4/262 77/6/262 201/5/262
f 77/6/263 7/11/263 75/7/263
f 78/2/264 201/5/264 75/7/264
f 8/8/265 75/7/265 202/9/265
f 7/11/266 91/12/266 202/9/266
f 91/12/267 15/53/267 95/13/267
f 86/10/268 202/9/268 95/13/268
f 1/15/269 69/18/269 203/16/269
f 69/18/270 2/28/270 79/19/270
f 203/16/271 79/19/271 6/20/271
f 80/17/272 203/16/272 73/21/272
f 3/4/273 72/25/273 204/23/273
f 1/24/274 80/337/274 204/23/274
f 204/23/275 80/337/275 5/26/275
f 204/23/276 76/27/276 7/11/276
f 2/28/277 70/30/277 205/29/277
f 4/3/278 78/2/278 205/29/278
f 205/29/279 78/2/279 8/8/279
f 205/29/280 74/31/280 6/20/280
f 10/32/281 81/36/281 206/33/281
f 9/35/282 109/107/282 206/33/282
f 206/33/283 109/107/283 21/37/283
f 206/33/284 105/38/284 22/39/284
f 5/22/285 73/21/285 207/40/285
f 6/20/286 97/42/286 207/40/286
f 97/42/287 17/60/287 103/43/287
f 88/41/288 207/40/288 103/43/288
f 76/27/289 208/47/289 91/12/289
f 88/45/290 208/47/290 76/27/290
f 20/46/291 104/49/291 208/47/291
f 92/48/292 208/47/292 104/49/292
f 96/51/293 208/47/293 92/48/293
f 15/53/294 91/12/294 208/47/294
f 74/31/295 209/54/295 97/42/295
f 86/10/296 209/54/296 74/31/296
f 13/14/297 93/56/297 209/54/297
f 98/55/298 209/54/298 93/56/298
f 101/58/299 209/54/299 98/55/299
f 17/60/300 97/42/300 209/54/300
f 27/61/41 116/65/41 210/62/41
f 28/64/42 131/66/42 210/62/42
f 131/66/43 36/188/43 128/67/43
f 132/63/44 210/62/44 128/67/44
f 14/57/301 93/56/301 211/69/301
f 89/71/302 211/69/302 93/56/302
f 11/72/303 90/70/303 211/69/303
f 11/72/304 83/76/304 212/73/304
f 12/75/305 117/131/305 212/73/305
f 212/73/306 117/131/306 25/77/306
f 212/73/307 113/78/307 26/79/307
f 13/14/308 95/13/308 213/80/308
f 15/53/309 85/81/309 213/80/309
f 85/81/310 12/75/310 83/76/310
f 89/71/311 213/80/311 83/76/311
f 96/51/312 214/82/312 85/81/312
f 16/52/313 84/83/313 214/82/313
f 12/75/314 85/81/314 214/82/314
f 101/58/315 215/85/315 87/84/315
f 18/59/316 82/86/316 215/85/316
f 9/35/317 87/84/317 215/85/317
f 19/87/318 102/91/318 216/88/318
f 18/90/319 98/338/319 216/88/319
f 216/88/320 98/338/320 14/92/320
f 216/88/321 94/93/321 16/94/321
f 20/44/322 103/43/322 217/95/322
f 17/60/323 87/84/323 217/95/323
f 87/84/324 9/35/324 81/36/324
f 100/96/325 217/95/325 81/36/325
f 19/50/326 104/49/326 218/97/326
f 100/99/327 218/97/327 104/49/327
f 10/100/328 99/98/328 218/97/328
f 99/98/329 219/102/329 111/101/329
f 10/100/330 110/103/330 219/102/330
f 110/103/331 22/339/331 107/104/331
f 219/102/332 107/104/332 24/105/332
f 9/35/333 82/86/333 220/106/333
f 82/86/334 18/59/334 112/108/334
f 220/106/335 112/108/335 23/109/335
f 109/107/336 220/106/336 106/110/336
f 102/91/337 221/113/337 112/111/337
f 102/91/338 19/87/338 111/112/338
f 221/113/339 111/112/339 24/114/339
f 221/113/340 108/115/340 23/116/340
f 107/104/341 222/119/341 130/117/341
f 107/104/342 22/339/342 129/118/342
f 222/119/87 129/118/87 30/120/87
f 222/119/88 123/121/88 32/122/88
f 94/93/343 223/125/343 120/123/343
f 94/93/344 14/92/344 119/124/344
f 223/125/345 119/124/345 28/64/345
f 223/125/346 116/65/346 27/61/346
f 90/70/347 224/127/347 119/126/347
f 11/72/348 118/74/348 224/127/348
f 118/74/349 26/79/349 115/128/349
f 224/127/350 115/128/350 28/129/350
f 12/75/351 84/83/351 225/130/351
f 84/83/352 16/52/352 120/132/352
f 225/130/353 120/132/353 27/133/353
f 117/131/354 225/130/354 114/134/354
f 122/135/101 226/139/101 150/136/101
f 122/135/102 31/169/102 149/138/102
f 226/139/103 149/138/103 43/140/103
f 226/139/104 146/141/104 41/142/104
f 127/143/105 227/147/105 142/144/105
f 127/143/106 34/173/106 141/146/106
f 227/147/107 141/146/107 38/148/107
f 227/147/108 139/149/108 40/150/108
f 22/39/109 105/38/109 228/151/109
f 21/37/110 133/153/110 228/151/110
f 133/153/111 29/137/111 121/154/111
f 129/152/112 228/151/112 121/154/112
f 114/134/113 229/158/113 134/156/113
f 114/134/114 27/133/114 132/157/114
f 229/158/115 132/157/115 35/159/115
f 229/158/116 126/160/116 33/161/116
f 23/116/117 108/115/117 230/162/117
f 24/114/118 130/164/118 230/162/118
f 130/164/119 32/340/119 124/165/119
f 135/163/120 230/162/120 124/165/120
f 106/110/121 231/168/121 133/153/121
f 106/110/122 23/109/122 135/167/122
f 231/168/123 135/167/123 31/169/123
f 231/168/355 122/135/355 29/137/355
f 115/128/125 232/172/125 131/170/125
f 115/128/126 26/79/126 136/171/126
f 232/172/127 136/171/127 34/173/127
f 232/172/128 127/143/128 36/145/128
f 26/79/129 113/78/129 233/174/129
f 25/77/130 134/156/130 233/174/130
f 134/156/131 33/161/131 125/175/131
f 136/171/132 233/174/132 125/175/132
f 37/176/356 138/180/356 234/177/356
f 39/179/357 162/181/357 234/177/357
f 162/181/358 47/318/358 154/182/358
f 163/178/359 234/177/359 154/182/359
f 34/173/137 125/175/137 235/184/137
f 125/175/138 33/161/138 143/185/138
f 235/184/139 143/185/139 37/176/139
f 141/146/140 235/184/140 137/186/140
f 128/67/141 236/189/141 144/187/141
f 36/188/142 142/190/142 236/189/142
f 142/190/143 40/197/143 140/191/143
f 236/189/144 140/191/144 39/192/144
f 33/161/145 126/160/145 237/193/145
f 35/159/146 144/194/146 237/193/146
f 144/194/147 39/179/147 138/180/147
f 143/185/148 237/193/148 138/180/148
f 39/192/360 140/191/360 238/195/360
f 40/197/361 161/341/361 238/195/361
f 238/195/362 161/341/362 48/198/362
f 162/196/363 238/195/363 156/199/363
f 32/122/364 123/121/364 239/201/364
f 30/120/154 151/203/154 239/201/154
f 151/203/155 42/234/155 147/204/155
f 152/202/156 239/201/156 147/204/156
f 121/154/157 240/207/157 151/206/157
f 29/137/158 150/136/158 240/207/158
f 150/136/159 41/142/159 145/208/159
f 240/207/160 145/208/160 42/209/160
f 31/166/161 124/165/161 241/210/161
f 124/165/162 32/340/162 152/212/162
f 241/210/163 152/212/163 44/213/163
f 149/211/164 241/210/164 148/214/164
f 155/216/365 242/220/365 174/217/365
f 155/216/366 46/246/366 173/219/366
f 242/220/367 173/219/367 54/221/367
f 242/220/368 171/222/368 56/223/368
f 160/224/369 243/228/369 182/225/369
f 52/227/370 181/229/370 243/228/370
f 181/229/371 60/281/371 180/230/371
f 243/228/372 180/230/372 59/231/372
f 44/205/373 147/204/373 244/232/373
f 42/234/374 164/235/374 244/232/374
f 164/235/375 50/328/375 159/236/375
f 165/233/376 244/232/376 159/236/376
f 42/209/377 145/208/377 245/238/377
f 41/142/378 166/252/378 245/238/378
f 245/238/379 166/252/379 49/240/379
f 164/239/380 245/238/380 157/241/380
f 139/149/381 246/245/381 161/243/381
f 139/149/382 38/148/382 167/244/382
f 246/245/383 167/244/383 46/246/383
f 246/245/384 155/216/384 48/218/384
f 43/215/385 148/214/385 247/247/385
f 44/213/386 165/249/386 247/247/386
f 165/249/387 52/227/387 160/224/387
f 247/247/388 160/224/388 51/226/388
f 38/148/389 137/186/389 248/250/389
f 37/176/390 163/178/390 248/250/390
f 163/178/391 45/183/391 153/251/391
f 248/250/392 153/251/392 46/246/392
f 146/141/393 249/254/393 166/252/393
f 146/141/394 43/140/394 168/253/394
f 249/254/395 168/253/395 51/255/395
f 249/254/396 158/256/396 49/240/396
f 55/257/397 172/260/397 250/258/397
f 172/260/398 56/269/398 171/261/398
f 171/261/399 54/221/399 169/262/399
f 250/258/400 169/262/400 53/263/400
f 153/251/401 251/264/401 173/219/401
f 45/183/402 175/265/402 251/264/402
f 175/265/403 53/263/403 169/262/403
f 251/264/404 169/262/404 54/221/404
f 47/200/405 156/199/405 252/266/405
f 156/199/406 48/198/406 174/268/406
f 252/266/407 174/268/407 56/269/407
f 176/267/408 252/266/408 172/260/408
f 184/270/409 253/273/409 196/271/409
f 58/272/410 195/342/410 253/273/410
f 253/273/411 195/342/411 67/274/411
f 253/273/412 192/275/412 63/276/412
f 178/277/413 254/280/413 177/278/413
f 178/277/414 59/231/414 180/230/414
f 254/280/415 180/230/415 60/281/415
f 254/280/416 179/282/416 58/283/416
f 158/256/417 255/286/417 183/284/417
f 158/256/418 51/255/418 182/285/418
f 255/286/419 182/285/419 59/287/419
f 255/286/420 178/288/420 57/289/420
f 53/263/421 175/292/421 256/290/421
f 175/292/422 45/183/422 193/293/422
f 256/290/423 193/293/423 62/294/423
f 256/290/424 188/295/424 66/296/424
f 50/242/425 157/241/425 257/297/425
f 157/241/426 49/240/426 183/284/426
f 257/297/427 183/284/427 57/289/427
f 184/270/428 257/297/428 177/298/428
f 62/294/429 185/301/429 258/299/429
f 61/300/430 189/343/430 258/299/430
f 258/299/431 189/343/431 65/302/431
f 258/299/432 187/303/432 66/296/432
f 64/304/433 186/308/433 259/305/433
f 63/307/434 192/344/434 259/305/434
f 259/305/435 192/344/435 67/309/435
f 259/305/436 190/310/436 68/311/436
f 176/267/437 260/313/437 198/312/437
f 55/257/438 197/331/438 260/313/438
f 260/313/439 197/331/439 65/314/439
f 260/313/440 189/315/440 61/316/440
f 45/183/441 154/182/441 261/317/441
f 47/318/442 198/319/442 261/317/442
f 198/319/443 61/300/443 185/301/443
f 193/293/444 261/317/444 185/301/444
f 60/281/445 181/229/445 262/320/445
f 181/229/446 52/227/446 199/322/446
f 262/320/447 199/322/447 64/323/447
f 262/320/448 191/324/448 68/325/448
f 52/237/449 159/236/449 263/326/449
f 50/328/450 196/329/450 263/326/450
f 196/329/451 63/307/451 186/308/451
f 199/327/452 263/326/452 186/308/452
f 55/257/453 170/259/453 264/330/453
f 53/263/454 194/291/454 264/330/454
f 194/291/455 66/296/455 187/332/455
f 197/331/456 264/330/456 187/332/456
f 58/283/457 179/282/457 265/333/457
f 60/281/458 200/321/458 265/333/458
f 200/321/459 68/325/459 190/335/459
f 195/334/460 265/333/460 190/335/460
