# Blender v3.1.2 OBJ File: ''
# www.blender.org
mtllib mike(HL).mtl
o HyperLight_Cube.001
v -0.833333 -0.833333 0.000000
v 0.833333 0.833333 0.000000
v -0.833333 0.833333 0.000000
v 0.833333 -0.833333 0.000000
v 1.000000 0.000000 0.000000
v -1.000000 0.000000 0.000000
v 0.000000 -1.000000 0.000000
v 0.000000 1.000000 0.000000
v -0.833333 0.833333 -0.071970
v 0.833333 -0.833333 -0.071970
v -0.833333 -0.833333 -0.071970
v 0.833333 0.833333 -0.071970
v 1.000000 0.000000 -0.071970
v -1.000000 0.000000 -0.071970
v 0.000000 1.000000 -0.071970
v 0.000000 -1.000000 -0.071970
v -0.833333 0.833333 0.500000
v 0.833333 -0.833333 0.500000
v -0.833333 -0.833333 0.500000
v 0.833333 0.833333 0.500000
v 1.000000 0.000000 0.500000
v -1.000000 0.000000 0.500000
v 0.000000 1.000000 0.500000
v 0.000000 -1.000000 0.500000
v -0.833333 -0.833333 0.750000
v 0.833333 0.833333 0.750000
v 1.000000 0.000000 0.750000
v 0.000000 1.000000 0.750000
v 0.000000 -1.000000 0.750000
v -0.833333 0.833333 0.750000
v 0.833333 -0.833333 0.750000
v -1.000000 0.000000 0.750000
v -0.833333 -0.833333 -0.053977
v -0.833333 -0.833333 -0.035985
v -0.833333 -0.833333 -0.017992
v 0.833333 0.833333 -0.053977
v 0.833333 0.833333 -0.035985
v 0.833333 0.833333 -0.017992
v 0.997396 -0.247396 0.000000
v 0.979167 -0.479167 0.000000
v 0.929688 -0.679688 0.000000
v -0.247396 -0.997396 0.000000
v -0.479167 -0.979167 0.000000
v -0.679688 -0.929688 0.000000
v -0.997396 -0.247396 0.000000
v -0.979167 -0.479167 0.000000
v -0.929688 -0.679688 0.000000
v 0.247396 0.997396 0.000000
v 0.479167 0.979167 0.000000
v 0.679688 0.929688 0.000000
v 0.929688 0.679688 0.000000
v 0.979167 0.479167 0.000000
v 0.997396 0.247396 0.000000
v -0.929688 0.679688 0.000000
v -0.979167 0.479167 0.000000
v -0.997396 0.247396 0.000000
v 1.000000 0.000000 -0.053977
v 1.000000 0.000000 -0.035985
v 1.000000 0.000000 -0.017992
v 0.679688 -0.929688 0.000000
v 0.479167 -0.979167 0.000000
v 0.247396 -0.997396 0.000000
v -0.679688 0.929688 0.000000
v -0.479167 0.979167 0.000000
v -0.247396 0.997396 0.000000
v 0.000000 1.000000 -0.053977
v 0.000000 1.000000 -0.035985
v 0.000000 1.000000 -0.017992
v 0.000000 -1.000000 -0.053977
v 0.000000 -1.000000 -0.035985
v 0.000000 -1.000000 -0.017992
v -0.833333 0.833333 -0.017992
v -0.833333 0.833333 -0.035985
v -0.833333 0.833333 -0.053977
v 0.833333 -0.833333 -0.017992
v 0.833333 -0.833333 -0.035985
v 0.833333 -0.833333 -0.053977
v -1.000000 0.000000 -0.017992
v -1.000000 0.000000 -0.035985
v -1.000000 0.000000 -0.053977
v -0.247396 -0.997396 -0.071970
v -0.479167 -0.979167 -0.071970
v -0.679688 -0.929688 -0.071970
v 0.247396 0.997396 -0.071970
v 0.479167 0.979167 -0.071970
v 0.679688 0.929688 -0.071970
v -0.997396 -0.247396 -0.071970
v -0.979167 -0.479167 -0.071970
v -0.929688 -0.679688 -0.071970
v 0.997396 -0.247396 -0.071970
v 0.979167 -0.479167 -0.071970
v 0.929688 -0.679688 -0.071970
v -0.679688 0.929688 -0.071970
v -0.479167 0.979167 -0.071970
v -0.247396 0.997396 -0.071970
v 0.679688 -0.929688 -0.071970
v 0.479167 -0.979167 -0.071970
v 0.247396 -0.997396 -0.071970
v 0.929688 0.679688 -0.071970
v 0.979167 0.479167 -0.071970
v 0.997396 0.247396 -0.071970
v -0.929688 0.679688 -0.071970
v -0.979167 0.479167 -0.071970
v -0.997396 0.247396 -0.071970
v -0.833333 0.833333 0.687500
v -0.833333 0.833333 0.625000
v -0.833333 0.833333 0.562500
v 0.833333 -0.833333 0.687500
v 0.833333 -0.833333 0.625000
v 0.833333 -0.833333 0.562500
v -1.000000 0.000000 0.687500
v -1.000000 0.000000 0.625000
v -1.000000 0.000000 0.562500
v -0.247396 -0.997396 0.500000
v -0.479167 -0.979167 0.500000
v -0.679688 -0.929688 0.500000
v 0.247396 0.997396 0.500000
v 0.479167 0.979167 0.500000
v 0.679688 0.929688 0.500000
v -0.997396 -0.247396 0.500000
v -0.979167 -0.479167 0.500000
v -0.929688 -0.679688 0.500000
v 0.997396 -0.247396 0.500000
v 0.979167 -0.479167 0.500000
v 0.929688 -0.679688 0.500000
v -0.679688 0.929688 0.500000
v -0.479167 0.979167 0.500000
v -0.247396 0.997396 0.500000
v 0.679688 -0.929688 0.500000
v 0.479167 -0.979167 0.500000
v 0.247396 -0.997396 0.500000
v 0.929688 0.679688 0.500000
v 0.979167 0.479167 0.500000
v 0.997396 0.247396 0.500000
v -0.929688 0.679688 0.500000
v -0.979167 0.479167 0.500000
v -0.997396 0.247396 0.500000
v -0.833333 -0.833333 0.562500
v -0.833333 -0.833333 0.625000
v -0.833333 -0.833333 0.687500
v 0.833333 0.833333 0.562500
v 0.833333 0.833333 0.625000
v 0.833333 0.833333 0.687500
v 1.000000 0.000000 0.562500
v 1.000000 0.000000 0.625000
v 1.000000 0.000000 0.687500
v 0.000000 1.000000 0.562500
v 0.000000 1.000000 0.625000
v 0.000000 1.000000 0.687500
v 0.000000 -1.000000 0.562500
v 0.000000 -1.000000 0.625000
v 0.000000 -1.000000 0.687500
v -0.929688 0.679688 0.750000
v -0.979167 0.479167 0.750000
v -0.997396 0.247396 0.750000
v -0.997396 -0.247396 0.750000
v -0.979167 -0.479167 0.750000
v -0.929688 -0.679688 0.750000
v -0.247396 -0.997396 0.750000
v -0.479167 -0.979167 0.750000
v -0.679688 -0.929688 0.750000
v 0.247396 0.997396 0.750000
v 0.479167 0.979167 0.750000
v 0.679688 0.929688 0.750000
v 0.997396 -0.247396 0.750000
v 0.979167 -0.479167 0.750000
v 0.929688 -0.679688 0.750000
v -0.679688 0.929688 0.750000
v -0.479167 0.979167 0.750000
v -0.247396 0.997396 0.750000
v 0.679688 -0.929688 0.750000
v 0.479167 -0.979167 0.750000
v 0.247396 -0.997396 0.750000
v 0.929688 0.679688 0.750000
v 0.979167 0.479167 0.750000
v 0.997396 0.247396 0.750000
v 0.997396 0.247396 -0.053977
v 0.979167 0.479167 -0.053977
v 0.929688 0.679688 -0.053977
v 0.997396 0.247396 -0.035985
v 0.979167 0.479167 -0.035985
v 0.929688 0.679688 -0.035985
v 0.997396 0.247396 -0.017992
v 0.979167 0.479167 -0.017992
v 0.929688 0.679688 -0.017992
v 0.247396 -0.997396 -0.053977
v 0.479167 -0.979167 -0.053977
v 0.679688 -0.929688 -0.053977
v 0.247396 -0.997396 -0.035985
v 0.479167 -0.979167 -0.035985
v 0.679688 -0.929688 -0.035985
v 0.247396 -0.997396 -0.017992
v 0.479167 -0.979167 -0.017992
v 0.679688 -0.929688 -0.017992
v -0.247396 0.997396 -0.053977
v -0.479167 0.979167 -0.053977
v -0.679688 0.929688 -0.053977
v -0.247396 0.997396 -0.035985
v -0.479167 0.979167 -0.035985
v -0.679688 0.929688 -0.035985
v -0.247396 0.997396 -0.017992
v -0.479167 0.979167 -0.017992
v -0.679688 0.929688 -0.017992
v 0.929688 -0.679688 -0.053977
v 0.979167 -0.479167 -0.053977
v 0.997396 -0.247396 -0.053977
v 0.929688 -0.679688 -0.035985
v 0.979167 -0.479167 -0.035985
v 0.997396 -0.247396 -0.035985
v 0.929688 -0.679688 -0.017992
v 0.979167 -0.479167 -0.017992
v 0.997396 -0.247396 -0.017992
v 0.679688 0.929688 -0.053977
v 0.479167 0.979167 -0.053977
v 0.247396 0.997396 -0.053977
v 0.679688 0.929688 -0.035985
v 0.479167 0.979167 -0.035985
v 0.247396 0.997396 -0.035985
v 0.679688 0.929688 -0.017992
v 0.479167 0.979167 -0.017992
v 0.247396 0.997396 -0.017992
v -0.679688 -0.929688 -0.053977
v -0.479167 -0.979167 -0.053977
v -0.247396 -0.997396 -0.053977
v -0.679688 -0.929688 -0.035985
v -0.479167 -0.979167 -0.035985
v -0.247396 -0.997396 -0.035985
v -0.679688 -0.929688 -0.017992
v -0.479167 -0.979167 -0.017992
v -0.247396 -0.997396 -0.017992
v -0.929688 -0.679688 -0.017992
v -0.979167 -0.479167 -0.017992
v -0.997396 -0.247396 -0.017992
v -0.929688 -0.679688 -0.035985
v -0.979167 -0.479167 -0.035985
v -0.997396 -0.247396 -0.035985
v -0.929688 -0.679688 -0.053977
v -0.979167 -0.479167 -0.053977
v -0.997396 -0.247396 -0.053977
v -0.997396 0.247396 -0.017992
v -0.979167 0.479167 -0.017992
v -0.929688 0.679688 -0.017992
v -0.997396 0.247396 -0.035985
v -0.979167 0.479167 -0.035985
v -0.929688 0.679688 -0.035985
v -0.997396 0.247396 -0.053977
v -0.979167 0.479167 -0.053977
v -0.929688 0.679688 -0.053977
v -0.929688 -0.679688 0.687500
v -0.979167 -0.479167 0.687500
v -0.997396 -0.247396 0.687500
v -0.929688 -0.679688 0.625000
v -0.979167 -0.479167 0.625000
v -0.997396 -0.247396 0.625000
v -0.929688 -0.679688 0.562500
v -0.979167 -0.479167 0.562500
v -0.997396 -0.247396 0.562500
v -0.997396 0.247396 0.687500
v -0.979167 0.479167 0.687500
v -0.929688 0.679688 0.687500
v -0.997396 0.247396 0.625000
v -0.979167 0.479167 0.625000
v -0.929688 0.679688 0.625000
v -0.997396 0.247396 0.562500
v -0.979167 0.479167 0.562500
v -0.929688 0.679688 0.562500
v -0.679688 -0.929688 0.562500
v -0.479167 -0.979167 0.562500
v -0.247396 -0.997396 0.562500
v -0.679688 -0.929688 0.625000
v -0.479167 -0.979167 0.625000
v -0.247396 -0.997396 0.625000
v -0.679688 -0.929688 0.687500
v -0.479167 -0.979167 0.687500
v -0.247396 -0.997396 0.687500
v 0.679688 0.929688 0.562500
v 0.479167 0.979167 0.562500
v 0.247396 0.997396 0.562500
v 0.679688 0.929688 0.625000
v 0.479167 0.979167 0.625000
v 0.247396 0.997396 0.625000
v 0.679688 0.929688 0.687500
v 0.479167 0.979167 0.687500
v 0.247396 0.997396 0.687500
v 0.929688 -0.679688 0.562500
v 0.979167 -0.479167 0.562500
v 0.997396 -0.247396 0.562500
v 0.929688 -0.679688 0.625000
v 0.979167 -0.479167 0.625000
v 0.997396 -0.247396 0.625000
v 0.929688 -0.679688 0.687500
v 0.979167 -0.479167 0.687500
v 0.997396 -0.247396 0.687500
v -0.247396 0.997396 0.562500
v -0.479167 0.979167 0.562500
v -0.679688 0.929688 0.562500
v -0.247396 0.997396 0.625000
v -0.479167 0.979167 0.625000
v -0.679688 0.929688 0.625000
v -0.247396 0.997396 0.687500
v -0.479167 0.979167 0.687500
v -0.679688 0.929688 0.687500
v 0.247396 -0.997396 0.562500
v 0.479167 -0.979167 0.562500
v 0.679688 -0.929688 0.562500
v 0.247396 -0.997396 0.625000
v 0.479167 -0.979167 0.625000
v 0.679688 -0.929688 0.625000
v 0.247396 -0.997396 0.687500
v 0.479167 -0.979167 0.687500
v 0.679688 -0.929688 0.687500
v 0.997396 0.247396 0.562500
v 0.979167 0.479167 0.562500
v 0.929688 0.679688 0.562500
v 0.997396 0.247396 0.625000
v 0.979167 0.479167 0.625000
v 0.929688 0.679688 0.625000
v 0.997396 0.247396 0.687500
v 0.979167 0.479167 0.687500
v 0.929688 0.679688 0.687500
v -0.284381 -1.677888 0.491480
v -0.284381 -1.678618 0.491354
v 0.278989 -1.679995 0.491116
v -0.005639 -2.096713 0.419037
v -0.284381 -1.959356 0.442795
v 0.184418 -1.818454 0.467167
v 0.087706 -1.960049 0.442676
v -0.006197 -1.541585 0.515056
v 0.278989 -1.960405 0.442614
v 0.278989 -1.955820 0.443407
v -0.097424 -1.678587 0.491359
v 0.088603 -1.679283 0.491239
v -0.096982 -1.959705 0.442735
v -0.190855 -1.818901 0.467090
vt 0.562500 0.618253
vt 0.531250 0.620502
vt 0.531250 0.618253
vt 0.593750 0.618253
vt 0.562500 0.620502
vt 0.531250 0.622751
vt 0.593750 0.620502
vt 0.562500 0.622751
vt 0.500000 0.616004
vt 0.500000 0.618253
vt 0.531250 0.616004
vt 0.562500 0.616004
vt 0.593750 0.616004
vt 0.625000 0.618253
vt 0.625000 0.620502
vt 0.593750 0.622751
vt 0.625000 0.625000
vt 0.593750 0.625000
vt 0.562500 0.625000
vt 0.531250 0.625000
vt 0.500000 0.625000
vt 0.500000 0.622751
vt 0.500000 0.620502
vt 0.312500 0.618253
vt 0.281250 0.620502
vt 0.281250 0.618253
vt 0.343750 0.618253
vt 0.312500 0.620502
vt 0.281250 0.622751
vt 0.343750 0.620502
vt 0.312500 0.622751
vt 0.250000 0.616004
vt 0.250000 0.618253
vt 0.281250 0.616004
vt 0.312500 0.616004
vt 0.343750 0.616004
vt 0.375000 0.618253
vt 0.375000 0.620502
vt 0.343750 0.622751
vt 0.375000 0.625000
vt 0.343750 0.625000
vt 0.312500 0.625000
vt 0.281250 0.625000
vt 0.250000 0.625000
vt 0.250000 0.622751
vt 0.250000 0.620502
vt 0.781250 0.618253
vt 0.812500 0.620502
vt 0.781250 0.620502
vt 0.843750 0.618253
vt 0.812500 0.618253
vt 0.781250 0.622751
vt 0.843750 0.622751
vt 0.812500 0.622751
vt 0.750000 0.616004
vt 0.750000 0.618253
vt 0.812500 0.616004
vt 0.781250 0.616004
vt 0.843750 0.616004
vt 0.875000 0.618253
vt 0.843750 0.620502
vt 0.875000 0.622751
vt 0.843750 0.625000
vt 0.812500 0.625000
vt 0.781250 0.625000
vt 0.750000 0.625000
vt 0.750000 0.622751
vt 0.750000 0.620502
vt 0.437500 0.618253
vt 0.406250 0.620502
vt 0.406250 0.618253
vt 0.468750 0.618253
vt 0.437500 0.620502
vt 0.406250 0.622751
vt 0.468750 0.622751
vt 0.437500 0.622751
vt 0.406250 0.616004
vt 0.375000 0.616004
vt 0.437500 0.616004
vt 0.468750 0.616004
vt 0.468750 0.620502
vt 0.468750 0.625000
vt 0.437500 0.625000
vt 0.406250 0.625000
vt 0.375000 0.622751
vt 0.687500 0.618253
vt 0.656250 0.620502
vt 0.656250 0.618253
vt 0.718750 0.618253
vt 0.687500 0.620502
vt 0.656250 0.622751
vt 0.718750 0.622751
vt 0.687500 0.622751
vt 0.656250 0.616004
vt 0.625000 0.616004
vt 0.687500 0.616004
vt 0.718750 0.616004
vt 0.718750 0.620502
vt 0.718750 0.625000
vt 0.687500 0.625000
vt 0.656250 0.625000
vt 0.625000 0.622751
vt 0.156250 0.618253
vt 0.187500 0.620502
vt 0.156250 0.620502
vt 0.218750 0.618253
vt 0.187500 0.618253
vt 0.156250 0.622751
vt 0.218750 0.622751
vt 0.187500 0.622751
vt 0.125000 0.616004
vt 0.125000 0.618253
vt 0.187500 0.616004
vt 0.156250 0.616004
vt 0.218750 0.616004
vt 0.218750 0.620502
vt 0.218750 0.625000
vt 0.187500 0.625000
vt 0.156250 0.625000
vt 0.125000 0.625000
vt 0.125000 0.622751
vt 0.125000 0.620502
vt 0.406250 0.127249
vt 0.437500 0.129498
vt 0.406250 0.129498
vt 0.468750 0.127249
vt 0.437500 0.127249
vt 0.406250 0.131747
vt 0.468750 0.131747
vt 0.437500 0.131747
vt 0.406250 0.125000
vt 0.375000 0.127249
vt 0.375000 0.125000
vt 0.437500 0.125000
vt 0.468750 0.125000
vt 0.500000 0.125000
vt 0.500000 0.127249
vt 0.468750 0.129498
vt 0.500000 0.131747
vt 0.468750 0.133996
vt 0.437500 0.133996
vt 0.406250 0.133996
vt 0.375000 0.133996
vt 0.375000 0.131747
vt 0.375000 0.129498
vt 0.531250 0.127249
vt 0.562500 0.129498
vt 0.531250 0.129498
vt 0.593750 0.127249
vt 0.562500 0.127249
vt 0.531250 0.131747
vt 0.593750 0.131747
vt 0.562500 0.131747
vt 0.562500 0.125000
vt 0.531250 0.125000
vt 0.593750 0.125000
vt 0.625000 0.125000
vt 0.625000 0.127249
vt 0.593750 0.129498
vt 0.625000 0.131747
vt 0.625000 0.133996
vt 0.593750 0.133996
vt 0.562500 0.133996
vt 0.531250 0.133996
vt 0.500000 0.133996
vt 0.500000 0.129498
vt 0.406250 0.039062
vt 0.437500 0.046875
vt 0.406250 0.046875
vt 0.468750 0.039062
vt 0.437500 0.039062
vt 0.406250 0.054688
vt 0.468750 0.046875
vt 0.437500 0.054688
vt 0.406250 0.031250
vt 0.375000 0.039063
vt 0.375000 0.031250
vt 0.437500 0.031250
vt 0.468750 0.031250
vt 0.500000 0.031250
vt 0.500000 0.039062
vt 0.500000 0.054688
vt 0.468750 0.054688
vt 0.468750 0.062500
vt 0.437500 0.062500
vt 0.406250 0.062500
vt 0.375000 0.062500
vt 0.375000 0.054688
vt 0.375000 0.046875
vt 0.531250 0.039062
vt 0.562500 0.046875
vt 0.531250 0.046875
vt 0.593750 0.039063
vt 0.562500 0.039063
vt 0.531250 0.054688
vt 0.593750 0.054688
vt 0.562500 0.054688
vt 0.562500 0.031250
vt 0.531250 0.031250
vt 0.593750 0.031250
vt 0.625000 0.039063
vt 0.625000 0.046875
vt 0.593750 0.046875
vt 0.625000 0.054688
vt 0.593750 0.062500
vt 0.562500 0.062500
vt 0.531250 0.062500
vt 0.500000 0.062500
vt 0.500000 0.046875
vt 0.156250 0.695313
vt 0.187500 0.703125
vt 0.156250 0.703125
vt 0.218750 0.695312
vt 0.187500 0.695312
vt 0.156250 0.710938
vt 0.218750 0.710938
vt 0.187500 0.710938
vt 0.156250 0.687500
vt 0.125000 0.695313
vt 0.125000 0.687500
vt 0.187500 0.687500
vt 0.218750 0.687500
vt 0.250000 0.687500
vt 0.250000 0.695312
vt 0.218750 0.703125
vt 0.250000 0.710938
vt 0.218750 0.718750
vt 0.187500 0.718750
vt 0.156250 0.718750
vt 0.125000 0.718750
vt 0.125000 0.710938
vt 0.125000 0.703125
vt 0.687500 0.695312
vt 0.656250 0.703125
vt 0.656250 0.695312
vt 0.718750 0.695312
vt 0.687500 0.703125
vt 0.656250 0.710938
vt 0.718750 0.710938
vt 0.687500 0.710938
vt 0.656250 0.687500
vt 0.625000 0.695312
vt 0.625000 0.687500
vt 0.687500 0.687500
vt 0.718750 0.687500
vt 0.750000 0.687500
vt 0.750000 0.695312
vt 0.718750 0.703125
vt 0.750000 0.710938
vt 0.718750 0.718750
vt 0.687500 0.718750
vt 0.656250 0.718750
vt 0.625000 0.710938
vt 0.625000 0.718750
vt 0.625000 0.703125
vt 0.437500 0.695312
vt 0.406250 0.703125
vt 0.406250 0.695312
vt 0.468750 0.695312
vt 0.437500 0.703125
vt 0.406250 0.710938
vt 0.468750 0.710938
vt 0.437500 0.710938
vt 0.406250 0.687500
vt 0.375000 0.695312
vt 0.375000 0.687500
vt 0.437500 0.687500
vt 0.468750 0.687500
vt 0.500000 0.687500
vt 0.500000 0.695312
vt 0.468750 0.703125
vt 0.500000 0.710938
vt 0.468750 0.718750
vt 0.437500 0.718750
vt 0.406250 0.718750
vt 0.375000 0.710938
vt 0.375000 0.718750
vt 0.375000 0.703125
vt 0.781250 0.695312
vt 0.812500 0.703125
vt 0.781250 0.703125
vt 0.843750 0.695312
vt 0.812500 0.695313
vt 0.781250 0.710938
vt 0.843750 0.710938
vt 0.812500 0.710938
vt 0.812500 0.687500
vt 0.781250 0.687500
vt 0.875000 0.687500
vt 0.843750 0.687500
vt 0.875000 0.695313
vt 0.843750 0.703125
vt 0.875000 0.710938
vt 0.875000 0.718750
vt 0.843750 0.718750
vt 0.812500 0.718750
vt 0.781250 0.718750
vt 0.750000 0.718750
vt 0.750000 0.703125
vt 0.312500 0.695312
vt 0.281250 0.703125
vt 0.281250 0.695312
vt 0.343750 0.695312
vt 0.312500 0.703125
vt 0.281250 0.710938
vt 0.343750 0.703125
vt 0.312500 0.710938
vt 0.281250 0.687500
vt 0.312500 0.687500
vt 0.343750 0.687500
vt 0.343750 0.710938
vt 0.343750 0.718750
vt 0.312500 0.718750
vt 0.281250 0.718750
vt 0.250000 0.718750
vt 0.250000 0.703125
vt 0.562500 0.695312
vt 0.531250 0.703125
vt 0.531250 0.695312
vt 0.593750 0.695312
vt 0.562500 0.703125
vt 0.531250 0.710938
vt 0.593750 0.703125
vt 0.562500 0.710938
vt 0.531250 0.687500
vt 0.562500 0.687500
vt 0.593750 0.687500
vt 0.593750 0.710938
vt 0.593750 0.718750
vt 0.562500 0.718750
vt 0.531250 0.718750
vt 0.500000 0.718750
vt 0.500000 0.703125
vt 0.875000 0.616004
vt 0.875000 0.620502
vt 0.875000 0.625000
vt 0.625000 0.129498
vt 0.625000 0.031250
vt 0.625000 0.062500
vt 0.875000 0.703125
vt 0.166012 0.500446
vt 0.000000 0.754465
vt 0.000000 0.753149
vt 0.832133 0.501251
vt 1.000000 0.245543
vt 1.000000 0.253803
vt 0.660466 0.246184
vt 0.662059 0.751952
vt 1.000000 0.750670
vt 0.332640 0.246803
vt 0.494776 0.000000
vt 0.493786 1.000000
vt 0.331855 0.753205
vt 0.000000 0.247431
vn 0.9969 0.0784 0.0000
vn 0.9709 0.2396 0.0000
vn 0.9999 0.0105 0.0000
vn 0.8472 0.5313 0.0000
vn 0.0784 -0.9969 0.0000
vn 0.2396 -0.9709 0.0000
vn 0.0105 -0.9999 0.0000
vn 0.5313 -0.8472 0.0000
vn -0.0784 0.9969 0.0000
vn -0.2396 0.9709 -0.0000
vn -0.0105 0.9999 0.0000
vn -0.5313 0.8472 0.0000
vn 0.9709 -0.2396 0.0000
vn 0.9969 -0.0784 0.0000
vn 0.8472 -0.5313 0.0000
vn 0.9999 -0.0105 0.0000
vn 0.2396 0.9709 0.0000
vn 0.0784 0.9969 0.0000
vn 0.5313 0.8472 0.0000
vn 0.0105 0.9999 0.0000
vn -0.2396 -0.9709 0.0000
vn -0.0784 -0.9969 0.0000
vn -0.5313 -0.8472 -0.0000
vn -0.0105 -0.9999 0.0000
vn -0.9709 -0.2396 -0.0000
vn -0.9969 -0.0784 0.0000
vn -0.8472 -0.5313 0.0000
vn -0.9999 -0.0105 -0.0000
vn -0.9969 0.0784 0.0000
vn -0.9709 0.2396 0.0000
vn -0.9999 0.0105 -0.0000
vn -0.8472 0.5313 0.0000
vn 0.0000 -0.1705 0.9854
vn 0.0000 -0.1704 0.9854
usemtl Material.002
s off
f 178/1/1 180/2/1 177/3/1
f 179/4/2 181/5/2 178/1/2
f 181/5/1 183/6/1 180/2/1
f 182/7/2 184/8/2 181/5/2
f 13/9/3 177/3/3 57/10/3
f 101/11/1 178/1/1 177/3/1
f 100/12/2 179/4/2 178/1/2
f 99/13/4 36/14/4 179/4/4
f 36/14/4 182/7/4 179/4/4
f 37/15/4 185/16/4 182/7/4
f 185/16/4 2/17/4 51/18/4
f 185/16/2 52/19/2 184/8/2
f 184/8/1 53/20/1 183/6/1
f 183/6/3 5/21/3 59/22/3
f 180/2/3 59/22/3 58/23/3
f 177/3/3 58/23/3 57/10/3
f 187/24/5 189/25/5 186/26/5
f 188/27/6 190/28/6 187/24/6
f 190/28/5 192/29/5 189/25/5
f 191/30/6 193/31/6 190/28/6
f 16/32/7 186/26/7 69/33/7
f 98/34/5 187/24/5 186/26/5
f 97/35/6 188/27/6 187/24/6
f 96/36/8 77/37/8 188/27/8
f 77/37/8 191/30/8 188/27/8
f 76/38/8 194/39/8 191/30/8
f 194/39/8 4/40/8 60/41/8
f 194/39/6 61/42/6 193/31/6
f 193/31/5 62/43/5 192/29/5
f 192/29/7 7/44/7 71/45/7
f 189/25/7 71/45/7 70/46/7
f 186/26/7 70/46/7 69/33/7
f 195/47/9 199/48/9 198/49/9
f 197/50/10 199/48/10 196/51/10
f 199/48/9 201/52/9 198/49/9
f 199/48/10 203/53/10 202/54/10
f 15/55/11 195/47/11 66/56/11
f 94/57/9 195/47/9 95/58/9
f 93/59/10 196/51/10 94/57/10
f 93/59/12 74/60/12 197/50/12
f 74/60/12 200/61/12 197/50/12
f 200/61/12 72/62/12 203/53/12
f 72/62/12 63/63/12 203/53/12
f 203/53/10 64/64/10 202/54/10
f 201/52/9 64/64/9 65/65/9
f 201/52/11 8/66/11 68/67/11
f 198/49/11 68/67/11 67/68/11
f 195/47/11 67/68/11 66/56/11
f 205/69/13 207/70/13 204/71/13
f 206/72/14 208/73/14 205/69/14
f 208/73/13 210/74/13 207/70/13
f 208/73/14 212/75/14 211/76/14
f 92/77/15 77/37/15 10/78/15
f 91/79/13 204/71/13 92/77/13
f 90/80/14 205/69/14 91/79/14
f 13/9/16 206/72/16 90/80/16
f 57/10/16 209/81/16 206/72/16
f 209/81/16 59/22/16 212/75/16
f 59/22/16 39/82/16 212/75/16
f 211/76/14 39/82/14 40/83/14
f 210/74/13 40/83/13 41/84/13
f 75/85/15 41/84/15 4/40/15
f 207/70/15 75/85/15 76/38/15
f 204/71/15 76/38/15 77/37/15
f 214/86/17 216/87/17 213/88/17
f 215/89/18 217/90/18 214/86/18
f 217/90/17 219/91/17 216/87/17
f 217/90/18 221/92/18 220/93/18
f 86/94/19 36/14/19 12/95/19
f 85/96/17 213/88/17 86/94/17
f 84/97/18 214/86/18 85/96/18
f 15/55/20 215/89/20 84/97/20
f 66/56/20 218/98/20 215/89/20
f 218/98/20 68/67/20 221/92/20
f 68/67/20 48/99/20 221/92/20
f 220/93/18 48/99/18 49/100/18
f 219/91/17 49/100/17 50/101/17
f 38/102/19 50/101/19 2/17/19
f 216/87/19 38/102/19 37/15/19
f 213/88/19 37/15/19 36/14/19
f 222/103/21 226/104/21 225/105/21
f 224/106/22 226/104/22 223/107/22
f 226/104/21 228/108/21 225/105/21
f 226/104/22 230/109/22 229/110/22
f 11/111/23 222/103/23 33/112/23
f 82/113/21 222/103/21 83/114/21
f 81/115/22 223/107/22 82/113/22
f 16/32/24 224/106/24 81/115/24
f 69/33/24 227/116/24 224/106/24
f 227/116/24 71/45/24 230/109/24
f 71/45/24 42/117/24 230/109/24
f 229/110/22 42/117/22 43/118/22
f 228/108/21 43/118/21 44/119/21
f 228/108/23 1/120/23 35/121/23
f 225/105/23 35/121/23 34/122/23
f 33/112/23 225/105/23 34/122/23
f 231/123/25 235/124/25 234/125/25
f 233/126/26 235/124/26 232/127/26
f 235/124/25 237/128/25 234/125/25
f 235/124/26 239/129/26 238/130/26
f 47/131/27 35/132/27 1/133/27
f 46/134/25 231/123/25 47/131/25
f 45/135/26 232/127/26 46/134/26
f 6/136/28 233/126/28 45/135/28
f 78/137/28 236/138/28 233/126/28
f 236/138/28 80/139/28 239/129/28
f 80/139/28 87/140/28 239/129/28
f 238/130/26 87/140/26 88/141/26
f 237/128/25 88/141/25 89/142/25
f 237/128/27 11/143/27 33/144/27
f 34/145/27 237/128/27 33/144/27
f 35/132/27 234/125/27 34/145/27
f 240/146/29 244/147/29 243/148/29
f 242/149/30 244/147/30 241/150/30
f 244/147/29 246/151/29 243/148/29
f 244/147/30 248/152/30 247/153/30
f 6/136/31 240/146/31 78/137/31
f 55/154/29 240/146/29 56/155/29
f 54/156/30 241/150/30 55/154/30
f 3/157/32 242/149/32 54/156/32
f 72/158/32 245/159/32 242/149/32
f 245/159/32 74/160/32 248/152/32
f 248/152/32 9/161/32 102/162/32
f 248/152/30 103/163/30 247/153/30
f 246/151/29 103/163/29 104/164/29
f 246/151/31 14/165/31 80/139/31
f 243/148/31 80/139/31 79/166/31
f 240/146/31 79/166/31 78/137/31
f 249/167/25 253/168/25 252/169/25
f 251/170/26 253/168/26 250/171/26
f 253/168/25 255/172/25 252/169/25
f 254/173/26 256/174/26 253/168/26
f 158/175/27 140/176/27 25/177/27
f 157/178/25 249/167/25 158/175/25
f 156/179/26 250/171/26 157/178/26
f 32/180/28 251/170/28 156/179/28
f 111/181/28 254/173/28 251/170/28
f 254/173/28 113/182/28 257/183/28
f 113/182/28 120/184/28 257/183/28
f 256/174/26 120/184/26 121/185/26
f 255/172/25 121/185/25 122/186/25
f 255/172/27 19/187/27 138/188/27
f 252/169/27 138/188/27 139/189/27
f 140/176/27 252/169/27 139/189/27
f 258/190/29 262/191/29 261/192/29
f 260/193/30 262/191/30 259/194/30
f 262/191/29 264/195/29 261/192/29
f 262/191/30 266/196/30 265/197/30
f 32/180/31 258/190/31 111/181/31
f 154/198/29 258/190/29 155/199/29
f 153/200/30 259/194/30 154/198/30
f 153/200/32 105/201/32 260/193/32
f 260/193/32 106/202/32 263/203/32
f 263/203/32 107/204/32 266/196/32
f 107/204/32 135/205/32 266/196/32
f 266/196/30 136/206/30 265/197/30
f 264/195/29 136/206/29 137/207/29
f 264/195/31 22/208/31 113/182/31
f 112/209/31 264/195/31 113/182/31
f 258/190/31 112/209/31 111/181/31
f 267/210/21 271/211/21 270/212/21
f 269/213/22 271/211/22 268/214/22
f 271/211/21 273/215/21 270/212/21
f 271/211/22 275/216/22 274/217/22
f 116/218/23 138/219/23 19/220/23
f 115/221/21 267/210/21 116/218/21
f 114/222/22 268/214/22 115/221/22
f 24/223/24 269/213/24 114/222/24
f 150/224/24 272/225/24 269/213/24
f 272/225/24 152/226/24 275/216/24
f 152/226/24 159/227/24 275/216/24
f 274/217/22 159/227/22 160/228/22
f 273/215/21 160/228/21 161/229/21
f 273/215/23 25/230/23 140/231/23
f 139/232/23 273/215/23 140/231/23
f 138/219/23 270/212/23 139/232/23
f 277/233/17 279/234/17 276/235/17
f 278/236/18 280/237/18 277/233/18
f 280/237/17 282/238/17 279/234/17
f 280/237/18 284/239/18 283/240/18
f 119/241/19 141/242/19 20/243/19
f 118/244/17 276/235/17 119/241/17
f 117/245/18 277/233/18 118/244/18
f 23/246/20 278/236/20 117/245/20
f 147/247/20 281/248/20 278/236/20
f 281/248/20 149/249/20 284/239/20
f 149/249/20 162/250/20 284/239/20
f 283/240/18 162/250/18 163/251/18
f 282/238/17 163/251/17 164/252/17
f 143/253/19 164/252/19 26/254/19
f 279/234/19 143/253/19 142/255/19
f 276/235/19 142/255/19 141/242/19
f 286/256/13 288/257/13 285/258/13
f 287/259/14 289/260/14 286/256/14
f 289/260/13 291/261/13 288/257/13
f 289/260/14 293/262/14 292/263/14
f 125/264/15 110/265/15 18/266/15
f 124/267/13 285/258/13 125/264/13
f 123/268/14 286/256/14 124/267/14
f 21/269/16 287/259/16 123/268/16
f 144/270/16 290/271/16 287/259/16
f 290/271/16 146/272/16 293/262/16
f 146/272/16 165/273/16 293/262/16
f 292/263/14 165/273/14 166/274/14
f 291/261/13 166/274/13 167/275/13
f 108/276/15 167/275/15 31/277/15
f 288/257/15 108/276/15 109/278/15
f 285/258/15 109/278/15 110/265/15
f 294/279/9 298/280/9 297/281/9
f 296/282/10 298/280/10 295/283/10
f 298/280/9 300/284/9 297/281/9
f 298/280/10 302/285/10 301/286/10
f 23/246/11 294/279/11 147/247/11
f 127/287/9 294/279/9 128/288/9
f 127/287/10 296/282/10 295/283/10
f 17/289/12 296/282/12 126/290/12
f 107/291/12 299/292/12 296/282/12
f 299/292/12 105/293/12 302/285/12
f 302/285/12 30/294/12 168/295/12
f 302/285/10 169/296/10 301/286/10
f 300/284/9 169/296/9 170/297/9
f 300/284/11 28/298/11 149/249/11
f 297/281/11 149/249/11 148/299/11
f 294/279/11 148/299/11 147/247/11
f 304/300/5 306/301/5 303/302/5
f 305/303/6 307/304/6 304/300/6
f 307/304/5 309/305/5 306/301/5
f 308/306/6 310/307/6 307/304/6
f 24/223/7 303/302/7 150/224/7
f 131/308/5 304/300/5 303/302/5
f 130/309/6 305/303/6 304/300/6
f 129/310/8 110/265/8 305/303/8
f 110/265/8 308/306/8 305/303/8
f 109/278/8 311/311/8 308/306/8
f 311/311/8 31/277/8 171/312/8
f 311/311/6 172/313/6 310/307/6
f 310/307/5 173/314/5 309/305/5
f 309/305/7 29/315/7 152/226/7
f 306/301/7 152/226/7 151/316/7
f 303/302/7 151/316/7 150/224/7
f 313/317/1 315/318/1 312/319/1
f 314/320/2 316/321/2 313/317/2
f 316/321/1 318/322/1 315/318/1
f 317/323/2 319/324/2 316/321/2
f 21/269/3 312/319/3 144/270/3
f 134/325/1 313/317/1 312/319/1
f 133/326/2 314/320/2 313/317/2
f 132/327/4 141/242/4 314/320/4
f 141/242/4 317/323/4 314/320/4
f 142/255/4 320/328/4 317/323/4
f 320/328/4 26/254/4 174/329/4
f 320/328/2 175/330/2 319/324/2
f 319/324/1 176/331/1 318/322/1
f 318/322/3 27/332/3 146/272/3
f 315/318/3 146/272/3 145/333/3
f 312/319/3 145/333/3 144/270/3
f 178/1/1 181/5/1 180/2/1
f 179/4/2 182/7/2 181/5/2
f 181/5/1 184/8/1 183/6/1
f 182/7/2 185/16/2 184/8/2
f 13/9/3 101/11/3 177/3/3
f 101/11/1 100/12/1 178/1/1
f 100/12/2 99/13/2 179/4/2
f 99/13/4 12/95/4 36/14/4
f 36/14/4 37/15/4 182/7/4
f 37/15/4 38/102/4 185/16/4
f 185/16/4 38/102/4 2/17/4
f 185/16/2 51/18/2 52/19/2
f 184/8/1 52/19/1 53/20/1
f 183/6/3 53/20/3 5/21/3
f 180/2/3 183/6/3 59/22/3
f 177/3/3 180/2/3 58/23/3
f 187/24/5 190/28/5 189/25/5
f 188/27/6 191/30/6 190/28/6
f 190/28/5 193/31/5 192/29/5
f 191/30/6 194/39/6 193/31/6
f 16/32/7 98/34/7 186/26/7
f 98/34/5 97/35/5 187/24/5
f 97/35/6 96/36/6 188/27/6
f 96/36/8 10/78/8 77/37/8
f 77/37/8 76/38/8 191/30/8
f 76/38/8 75/85/8 194/39/8
f 194/39/8 75/85/8 4/40/8
f 194/39/6 60/41/6 61/42/6
f 193/31/5 61/42/5 62/43/5
f 192/29/7 62/43/7 7/44/7
f 189/25/7 192/29/7 71/45/7
f 186/26/7 189/25/7 70/46/7
f 195/47/9 196/51/9 199/48/9
f 197/50/10 200/61/10 199/48/10
f 199/48/9 202/54/9 201/52/9
f 199/48/10 200/61/10 203/53/10
f 15/55/11 95/58/11 195/47/11
f 94/57/9 196/51/9 195/47/9
f 93/59/10 197/50/10 196/51/10
f 93/59/12 9/334/12 74/60/12
f 74/60/12 73/335/12 200/61/12
f 200/61/12 73/335/12 72/62/12
f 72/62/12 3/336/12 63/63/12
f 203/53/10 63/63/10 64/64/10
f 201/52/9 202/54/9 64/64/9
f 201/52/11 65/65/11 8/66/11
f 198/49/11 201/52/11 68/67/11
f 195/47/11 198/49/11 67/68/11
f 205/69/13 208/73/13 207/70/13
f 206/72/14 209/81/14 208/73/14
f 208/73/13 211/76/13 210/74/13
f 208/73/14 209/81/14 212/75/14
f 92/77/15 204/71/15 77/37/15
f 91/79/13 205/69/13 204/71/13
f 90/80/14 206/72/14 205/69/14
f 13/9/16 57/10/16 206/72/16
f 57/10/16 58/23/16 209/81/16
f 209/81/16 58/23/16 59/22/16
f 59/22/16 5/21/16 39/82/16
f 211/76/14 212/75/14 39/82/14
f 210/74/13 211/76/13 40/83/13
f 75/85/15 210/74/15 41/84/15
f 207/70/15 210/74/15 75/85/15
f 204/71/15 207/70/15 76/38/15
f 214/86/17 217/90/17 216/87/17
f 215/89/18 218/98/18 217/90/18
f 217/90/17 220/93/17 219/91/17
f 217/90/18 218/98/18 221/92/18
f 86/94/19 213/88/19 36/14/19
f 85/96/17 214/86/17 213/88/17
f 84/97/18 215/89/18 214/86/18
f 15/55/20 66/56/20 215/89/20
f 66/56/20 67/68/20 218/98/20
f 218/98/20 67/68/20 68/67/20
f 68/67/20 8/66/20 48/99/20
f 220/93/18 221/92/18 48/99/18
f 219/91/17 220/93/17 49/100/17
f 38/102/19 219/91/19 50/101/19
f 216/87/19 219/91/19 38/102/19
f 213/88/19 216/87/19 37/15/19
f 222/103/21 223/107/21 226/104/21
f 224/106/22 227/116/22 226/104/22
f 226/104/21 229/110/21 228/108/21
f 226/104/22 227/116/22 230/109/22
f 11/111/23 83/114/23 222/103/23
f 82/113/21 223/107/21 222/103/21
f 81/115/22 224/106/22 223/107/22
f 16/32/24 69/33/24 224/106/24
f 69/33/24 70/46/24 227/116/24
f 227/116/24 70/46/24 71/45/24
f 71/45/24 7/44/24 42/117/24
f 229/110/22 230/109/22 42/117/22
f 228/108/21 229/110/21 43/118/21
f 228/108/23 44/119/23 1/120/23
f 225/105/23 228/108/23 35/121/23
f 33/112/23 222/103/23 225/105/23
f 231/123/25 232/127/25 235/124/25
f 233/126/26 236/138/26 235/124/26
f 235/124/25 238/130/25 237/128/25
f 235/124/26 236/138/26 239/129/26
f 47/131/27 231/123/27 35/132/27
f 46/134/25 232/127/25 231/123/25
f 45/135/26 233/126/26 232/127/26
f 6/136/28 78/137/28 233/126/28
f 78/137/28 79/166/28 236/138/28
f 236/138/28 79/166/28 80/139/28
f 80/139/28 14/165/28 87/140/28
f 238/130/26 239/129/26 87/140/26
f 237/128/25 238/130/25 88/141/25
f 237/128/27 89/142/27 11/143/27
f 34/145/27 234/125/27 237/128/27
f 35/132/27 231/123/27 234/125/27
f 240/146/29 241/150/29 244/147/29
f 242/149/30 245/159/30 244/147/30
f 244/147/29 247/153/29 246/151/29
f 244/147/30 245/159/30 248/152/30
f 6/136/31 56/155/31 240/146/31
f 55/154/29 241/150/29 240/146/29
f 54/156/30 242/149/30 241/150/30
f 3/157/32 72/158/32 242/149/32
f 72/158/32 73/337/32 245/159/32
f 245/159/32 73/337/32 74/160/32
f 248/152/32 74/160/32 9/161/32
f 248/152/30 102/162/30 103/163/30
f 246/151/29 247/153/29 103/163/29
f 246/151/31 104/164/31 14/165/31
f 243/148/31 246/151/31 80/139/31
f 240/146/31 243/148/31 79/166/31
f 249/167/25 250/171/25 253/168/25
f 251/170/26 254/173/26 253/168/26
f 253/168/25 256/174/25 255/172/25
f 254/173/26 257/183/26 256/174/26
f 158/175/27 249/167/27 140/176/27
f 157/178/25 250/171/25 249/167/25
f 156/179/26 251/170/26 250/171/26
f 32/180/28 111/181/28 251/170/28
f 111/181/28 112/209/28 254/173/28
f 254/173/28 112/209/28 113/182/28
f 113/182/28 22/208/28 120/184/28
f 256/174/26 257/183/26 120/184/26
f 255/172/25 256/174/25 121/185/25
f 255/172/27 122/186/27 19/187/27
f 252/169/27 255/172/27 138/188/27
f 140/176/27 249/167/27 252/169/27
f 258/190/29 259/194/29 262/191/29
f 260/193/30 263/203/30 262/191/30
f 262/191/29 265/197/29 264/195/29
f 262/191/30 263/203/30 266/196/30
f 32/180/31 155/199/31 258/190/31
f 154/198/29 259/194/29 258/190/29
f 153/200/30 260/193/30 259/194/30
f 153/200/32 30/338/32 105/201/32
f 260/193/32 105/201/32 106/202/32
f 263/203/32 106/202/32 107/204/32
f 107/204/32 17/339/32 135/205/32
f 266/196/30 135/205/30 136/206/30
f 264/195/29 265/197/29 136/206/29
f 264/195/31 137/207/31 22/208/31
f 112/209/31 261/192/31 264/195/31
f 258/190/31 261/192/31 112/209/31
f 267/210/21 268/214/21 271/211/21
f 269/213/22 272/225/22 271/211/22
f 271/211/21 274/217/21 273/215/21
f 271/211/22 272/225/22 275/216/22
f 116/218/23 267/210/23 138/219/23
f 115/221/21 268/214/21 267/210/21
f 114/222/22 269/213/22 268/214/22
f 24/223/24 150/224/24 269/213/24
f 150/224/24 151/316/24 272/225/24
f 272/225/24 151/316/24 152/226/24
f 152/226/24 29/315/24 159/227/24
f 274/217/22 275/216/22 159/227/22
f 273/215/21 274/217/21 160/228/21
f 273/215/23 161/229/23 25/230/23
f 139/232/23 270/212/23 273/215/23
f 138/219/23 267/210/23 270/212/23
f 277/233/17 280/237/17 279/234/17
f 278/236/18 281/248/18 280/237/18
f 280/237/17 283/240/17 282/238/17
f 280/237/18 281/248/18 284/239/18
f 119/241/19 276/235/19 141/242/19
f 118/244/17 277/233/17 276/235/17
f 117/245/18 278/236/18 277/233/18
f 23/246/20 147/247/20 278/236/20
f 147/247/20 148/299/20 281/248/20
f 281/248/20 148/299/20 149/249/20
f 149/249/20 28/298/20 162/250/20
f 283/240/18 284/239/18 162/250/18
f 282/238/17 283/240/17 163/251/17
f 143/253/19 282/238/19 164/252/19
f 279/234/19 282/238/19 143/253/19
f 276/235/19 279/234/19 142/255/19
f 286/256/13 289/260/13 288/257/13
f 287/259/14 290/271/14 289/260/14
f 289/260/13 292/263/13 291/261/13
f 289/260/14 290/271/14 293/262/14
f 125/264/15 285/258/15 110/265/15
f 124/267/13 286/256/13 285/258/13
f 123/268/14 287/259/14 286/256/14
f 21/269/16 144/270/16 287/259/16
f 144/270/16 145/333/16 290/271/16
f 290/271/16 145/333/16 146/272/16
f 146/272/16 27/332/16 165/273/16
f 292/263/14 293/262/14 165/273/14
f 291/261/13 292/263/13 166/274/13
f 108/276/15 291/261/15 167/275/15
f 288/257/15 291/261/15 108/276/15
f 285/258/15 288/257/15 109/278/15
f 294/279/9 295/283/9 298/280/9
f 296/282/10 299/292/10 298/280/10
f 298/280/9 301/286/9 300/284/9
f 298/280/10 299/292/10 302/285/10
f 23/246/11 128/288/11 294/279/11
f 127/287/9 295/283/9 294/279/9
f 127/287/10 126/290/10 296/282/10
f 17/289/12 107/291/12 296/282/12
f 107/291/12 106/340/12 299/292/12
f 299/292/12 106/340/12 105/293/12
f 302/285/12 105/293/12 30/294/12
f 302/285/10 168/295/10 169/296/10
f 300/284/9 301/286/9 169/296/9
f 300/284/11 170/297/11 28/298/11
f 297/281/11 300/284/11 149/249/11
f 294/279/11 297/281/11 148/299/11
f 304/300/5 307/304/5 306/301/5
f 305/303/6 308/306/6 307/304/6
f 307/304/5 310/307/5 309/305/5
f 308/306/6 311/311/6 310/307/6
f 24/223/7 131/308/7 303/302/7
f 131/308/5 130/309/5 304/300/5
f 130/309/6 129/310/6 305/303/6
f 129/310/8 18/266/8 110/265/8
f 110/265/8 109/278/8 308/306/8
f 109/278/8 108/276/8 311/311/8
f 311/311/8 108/276/8 31/277/8
f 311/311/6 171/312/6 172/313/6
f 310/307/5 172/313/5 173/314/5
f 309/305/7 173/314/7 29/315/7
f 306/301/7 309/305/7 152/226/7
f 303/302/7 306/301/7 151/316/7
f 313/317/1 316/321/1 315/318/1
f 314/320/2 317/323/2 316/321/2
f 316/321/1 319/324/1 318/322/1
f 317/323/2 320/328/2 319/324/2
f 21/269/3 134/325/3 312/319/3
f 134/325/1 133/326/1 313/317/1
f 133/326/2 132/327/2 314/320/2
f 132/327/4 20/243/4 141/242/4
f 141/242/4 142/255/4 317/323/4
f 142/255/4 143/253/4 320/328/4
f 320/328/4 143/253/4 26/254/4
f 320/328/2 174/329/2 175/330/2
f 319/324/1 175/330/1 176/331/1
f 318/322/3 176/331/3 27/332/3
f 315/318/3 318/322/3 146/272/3
f 312/319/3 315/318/3 145/333/3
f 334/341/33 321/342/33 322/343/33
f 326/344/34 329/345/34 330/346/34
f 327/347/34 326/344/34 332/348/34
f 332/348/34 326/344/34 323/349/34
f 327/347/34 333/350/34 324/351/34
f 328/352/34 331/353/34 332/348/34
f 325/354/34 333/350/34 334/341/34
f 334/341/34 331/353/34 321/342/34
f 326/344/34 327/347/34 329/345/34
f 332/348/34 331/353/34 333/350/34
f 331/353/34 334/341/34 333/350/34
f 333/350/34 327/347/34 332/348/34
