# Blender v3.1.2 OBJ File: ''
# www.blender.org
mtllib mike(TV).mtl
o TV_Cube.008
v 0.007165 0.000000 2.932217
v -0.220691 -0.227856 0.932217
v -0.220691 0.227856 0.932217
v 0.235020 -0.227856 0.932217
v 0.235020 0.227856 0.932217
v 0.909198 0.000633 0.838689
v 0.007165 0.898232 0.838689
v 0.010330 -0.892549 0.838689
v -0.885349 0.001266 0.838689
v -0.731545 -0.745049 0.838689
v -0.741673 0.751059 0.838689
v 0.760123 -0.742517 0.838689
v 0.757591 0.745995 0.838689
v 0.008751 0.000947 1.049527
v 0.758859 0.000685 1.014388
v 0.007429 0.748527 1.014388
v 0.010067 -0.743790 1.014388
v -0.736597 0.001213 1.014388
v -0.658116 -0.670434 0.996818
v -0.666345 0.675731 0.996818
v 0.684717 -0.668377 0.996818
v 0.682659 0.671617 0.996818
v -0.700911 0.710302 0.974547
v -0.728765 0.738153 0.937438
v -0.740060 0.749445 0.890565
v -0.883025 0.001265 0.890849
v -0.866755 0.001259 0.939716
v -0.822594 0.001244 0.981993
v 0.010219 -0.829791 0.981993
v 0.010297 -0.873954 0.939716
v 0.010325 -0.890224 0.890849
v 0.758508 -0.740929 0.890565
v 0.747205 -0.729818 0.937438
v 0.719326 -0.702410 0.974547
v -0.881167 -0.220740 0.838689
v -0.863279 -0.428386 0.838689
v -0.817975 -0.607784 0.838689
v -0.594800 -0.830942 0.838689
v -0.416631 -0.874821 0.838689
v -0.210450 -0.890688 0.838689
v -0.827233 0.612851 0.838689
v -0.870242 0.432302 0.838689
v -0.884886 0.223683 0.838689
v -0.215504 0.896823 0.838689
v -0.423989 0.881260 0.838689
v -0.604107 0.837389 0.838689
v 0.232123 -0.889758 0.838689
v 0.440653 -0.873080 0.838689
v 0.621470 -0.828628 0.838689
v 0.846929 -0.605479 0.838689
v 0.891275 -0.426724 0.838689
v 0.907313 -0.220078 0.838689
v 0.906383 0.221556 0.838689
v 0.889534 0.428741 0.838689
v 0.844615 0.608212 0.838689
v 0.619106 0.832761 0.838689
v 0.438517 0.877778 0.838689
v 0.229858 0.894963 0.838689
v 0.620290 0.000733 1.034703
v 0.439587 0.000796 1.045135
v 0.230993 0.000869 1.048978
v 0.007673 0.610532 1.034703
v 0.007992 0.430521 1.045135
v 0.008359 0.222618 1.048978
v 0.009142 -0.220413 1.048978
v 0.009508 -0.427561 1.045135
v 0.009825 -0.606639 1.034703
v -0.212970 0.001026 1.048978
v -0.420300 0.001100 1.045135
v -0.599441 0.001164 1.034703
v -0.733462 -0.219479 1.014011
v -0.721008 -0.418595 1.011378
v -0.692639 -0.576040 1.004883
v -0.564179 -0.704480 1.004882
v -0.407648 -0.731760 1.011378
v -0.209670 -0.742583 1.014012
v -0.700096 0.580678 1.004883
v -0.726714 0.422278 1.011378
v -0.736549 0.222289 1.014012
v -0.213870 0.747696 1.014012
v -0.413684 0.737131 1.011378
v -0.571679 0.709896 1.004883
v 0.230715 -0.741811 1.014011
v 0.430719 -0.730334 1.011378
v 0.589384 -0.702615 1.004883
v 0.719124 -0.574183 1.004882
v 0.746695 -0.417235 1.011378
v 0.757635 -0.218930 1.014012
v 0.756863 0.220523 1.014011
v 0.745269 0.419359 1.011378
v 0.717260 0.576940 1.004883
v 0.587479 0.706167 1.004883
v 0.428963 0.734278 1.011378
v 0.228831 0.746152 1.014012
v -0.729974 -0.743451 0.890565
v -0.718971 -0.732266 0.937438
v -0.691830 -0.704680 0.974547
v 0.007169 0.895893 0.890849
v 0.007198 0.879519 0.939716
v 0.007276 0.835075 0.981993
v 0.717056 0.705762 0.974547
v 0.744757 0.733256 0.937438
v 0.755987 0.744402 0.890565
v 0.906849 0.000634 0.890849
v 0.890405 0.000639 0.939716
v 0.845773 0.000655 0.981993
v 0.618186 0.830728 0.890645
v 0.438216 0.875531 0.890778
v 0.229823 0.892637 0.890841
v 0.611747 0.816500 0.938079
v 0.436107 0.859802 0.939146
v 0.229578 0.876357 0.939645
v 0.597390 0.778498 0.976891
v 0.431599 0.817147 0.980265
v 0.229064 0.832172 0.981777
v -0.878859 -0.220702 0.890841
v -0.861052 -0.428082 0.890778
v -0.815964 -0.606865 0.890645
v -0.862700 -0.220432 0.939645
v -0.845461 -0.425954 0.939146
v -0.801889 -0.600432 0.938079
v -0.818844 -0.219850 0.981777
v -0.803178 -0.421387 0.980265
v -0.764282 -0.586073 0.976891
v -0.825187 0.611922 0.890645
v -0.867993 0.431993 0.890778
v -0.882567 0.223642 0.890841
v -0.810865 0.605417 0.938079
v -0.852249 0.429831 0.939146
v -0.866337 0.223356 0.939645
v -0.772645 0.590889 0.976891
v -0.809567 0.425181 0.980265
v -0.822291 0.222733 0.981777
v 0.232082 -0.887446 0.890841
v 0.440345 -0.870844 0.890778
v 0.620541 -0.826604 0.890645
v 0.231795 -0.871260 0.939645
v 0.438191 -0.855196 0.939146
v 0.614039 -0.812436 0.938079
v 0.231167 -0.827331 0.981777
v 0.433564 -0.812762 0.980265
v 0.599527 -0.774599 0.976891
v -0.213563 0.222846 1.048432
v -0.213887 0.430676 1.044606
v -0.213825 0.610244 1.034224
v -0.420944 0.222827 1.044606
v -0.419693 0.428967 1.040905
v -0.415870 0.604350 1.030870
v -0.599797 0.222469 1.034224
v -0.594500 0.424754 1.030870
v -0.581029 0.590379 1.021914
v -0.597258 -0.219770 1.034224
v -0.589756 -0.421191 1.030869
v -0.574667 -0.585822 1.021913
v -0.419055 -0.220271 1.044606
v -0.416092 -0.425556 1.040905
v -0.410881 -0.599907 1.030870
v -0.212304 -0.220458 1.048432
v -0.211455 -0.427473 1.044606
v -0.210391 -0.606038 1.034224
v 0.230886 -0.605409 1.034224
v 0.433307 -0.598732 1.030869
v 0.599267 -0.584247 1.021913
v 0.231232 -0.427045 1.044606
v 0.437672 -0.424741 1.040905
v 0.613496 -0.420065 1.030870
v 0.231236 -0.220292 1.048432
v 0.439555 -0.219951 1.044606
v 0.619687 -0.219320 1.034224
v 0.619043 0.221025 1.034224
v 0.612292 0.422340 1.030869
v 0.597651 0.587208 1.021913
v 0.439009 0.221804 1.044606
v 0.436629 0.427224 1.040905
v 0.431858 0.601985 1.030870
v 0.230674 0.222315 1.048432
v 0.230144 0.429760 1.044606
v 0.229347 0.608979 1.034224
v 0.844875 -0.604569 0.890645
v 0.889010 -0.426425 0.890778
v 0.904974 -0.220041 0.890841
v 0.830494 -0.598197 0.938079
v 0.873156 -0.424335 0.939146
v 0.888598 -0.219784 0.939645
v 0.792101 -0.583991 0.976891
v 0.830171 -0.419864 0.980265
v 0.844154 -0.219236 0.981777
v -0.215460 0.894492 0.890841
v -0.423677 0.879001 0.890778
v -0.603175 0.835339 0.890645
v -0.215148 0.878176 0.939645
v -0.421487 0.863195 0.939146
v -0.596648 0.820988 0.938079
v -0.214454 0.833895 0.981777
v -0.416757 0.820341 0.980265
v -0.582057 0.782680 0.976891
v -0.593903 -0.828909 0.890645
v -0.416341 -0.872580 0.890778
v -0.210419 -0.888373 0.890841
v -0.587623 -0.814680 0.938079
v -0.414312 -0.856893 0.939146
v -0.210203 -0.872169 0.939645
v -0.573647 -0.776690 0.976891
v -0.410001 -0.814359 0.980265
v -0.209766 -0.828193 0.981777
v 0.904046 0.221521 0.890841
v 0.887275 0.428444 0.890778
v 0.842569 0.607301 0.890645
v 0.887688 0.221276 0.939645
v 0.871460 0.426360 0.939146
v 0.828250 0.600919 0.938079
v 0.843292 0.220762 0.981777
v 0.828574 0.421913 0.980265
v 0.790010 0.586698 0.976891
vt 0.625000 0.000000
vt 0.625000 0.250000
vt 0.375000 0.250000
vt 0.375000 0.500000
vt 0.625000 0.500000
vt 0.375000 0.750000
vt 0.125000 0.500000
vt 0.125000 0.750000
vt 0.875000 0.500000
vt 0.625000 0.750000
vt 0.610649 0.819900
vt 0.603174 0.798306
vt 0.607507 0.794925
vt 0.609593 0.847150
vt 0.607862 0.820992
vt 0.597451 0.801082
vt 0.604028 0.847256
vt 0.602192 0.821897
vt 0.611923 0.790613
vt 0.598655 0.775744
vt 0.611804 0.762484
vt 0.612042 0.818742
vt 0.611731 0.847015
vt 0.612160 0.846871
vt 0.611987 0.875000
vt 0.609940 0.874996
vt 0.604384 0.874986
vt 0.593566 0.874967
vt 0.593269 0.847292
vt 0.591785 0.822275
vt 0.588271 0.802461
vt 0.588414 0.786069
vt 0.583952 0.790563
vt 0.593203 0.781242
vt 0.445264 0.984717
vt 0.472388 0.983781
vt 0.472229 0.985901
vt 0.423827 0.977226
vt 0.446363 0.981959
vt 0.472512 0.978257
vt 0.426601 0.971568
vt 0.447278 0.976340
vt 0.472049 0.986327
vt 0.500110 0.986273
vt 0.500000 0.986563
vt 0.444098 0.986090
vt 0.420451 0.981503
vt 0.416147 0.985854
vt 0.401428 0.972664
vt 0.406911 0.967290
vt 0.411720 0.962565
vt 0.427995 0.962476
vt 0.447676 0.966022
vt 0.472565 0.967578
vt 0.500152 0.967970
vt 0.500154 0.978720
vt 0.500144 0.984240
vt 0.555217 0.985626
vt 0.576807 0.978386
vt 0.580218 0.982781
vt 0.528078 0.986370
vt 0.554119 0.982821
vt 0.574002 0.972618
vt 0.527847 0.978688
vt 0.553196 0.977141
vt 0.584565 0.987278
vt 0.599381 0.974116
vt 0.612754 0.987516
vt 0.556377 0.987040
vt 0.528188 0.986801
vt 0.527959 0.984237
vt 0.527786 0.967964
vt 0.552785 0.966735
vt 0.572585 0.963408
vt 0.588984 0.963706
vt 0.584466 0.959189
vt 0.593842 0.968567
vt 0.388918 0.846810
vt 0.392715 0.820737
vt 0.391044 0.846896
vt 0.389939 0.819650
vt 0.397337 0.798011
vt 0.396578 0.846997
vt 0.403037 0.800814
vt 0.398356 0.821652
vt 0.388491 0.846752
vt 0.388722 0.874724
vt 0.388431 0.875000
vt 0.388551 0.818505
vt 0.393016 0.794602
vt 0.388611 0.790257
vt 0.401791 0.775381
vt 0.407230 0.780922
vt 0.412006 0.785783
vt 0.412173 0.802223
vt 0.408708 0.822056
vt 0.407274 0.847056
vt 0.407026 0.874637
vt 0.396276 0.874622
vt 0.390756 0.874642
vt 0.527856 0.902591
vt 0.553621 0.928357
vt 0.527853 0.928514
vt 0.553834 0.902632
vt 0.575544 0.927879
vt 0.553094 0.950208
vt 0.527809 0.950870
vt 0.573798 0.948524
vt 0.527827 0.874851
vt 0.500128 0.902517
vt 0.500118 0.874802
vt 0.553815 0.874897
vt 0.576316 0.874937
vt 0.593462 0.902629
vt 0.576281 0.902624
vt 0.592141 0.927606
vt 0.588737 0.947355
vt 0.500145 0.950826
vt 0.500138 0.928433
vt 0.447351 0.949615
vt 0.472466 0.928277
vt 0.472529 0.950553
vt 0.426772 0.947729
vt 0.446806 0.927907
vt 0.472443 0.902434
vt 0.425012 0.927256
vt 0.446566 0.902328
vt 0.416196 0.958160
vt 0.411940 0.946418
vt 0.408530 0.926852
vt 0.424245 0.902195
vt 0.407177 0.902104
vt 0.424170 0.874668
vt 0.446555 0.874707
vt 0.472448 0.874753
vt 0.425159 0.821732
vt 0.446619 0.846992
vt 0.424324 0.847035
vt 0.426969 0.800987
vt 0.446907 0.821187
vt 0.472464 0.846991
vt 0.447492 0.799209
vt 0.472506 0.820951
vt 0.416453 0.790306
vt 0.428227 0.786005
vt 0.447846 0.782559
vt 0.472585 0.798435
vt 0.472634 0.781191
vt 0.500092 0.798359
vt 0.500100 0.820947
vt 0.500109 0.847022
vt 0.552793 0.799359
vt 0.527725 0.821019
vt 0.527628 0.798515
vt 0.573401 0.801189
vt 0.553403 0.821317
vt 0.527789 0.847061
vt 0.575248 0.821913
vt 0.553720 0.847128
vt 0.527565 0.781288
vt 0.500086 0.781038
vt 0.552420 0.782737
vt 0.572118 0.786238
vt 0.576122 0.847227
vt 0.445486 0.763541
vt 0.424116 0.770954
vt 0.420770 0.766557
vt 0.472329 0.762620
vt 0.446571 0.766358
vt 0.426862 0.776742
vt 0.472589 0.770370
vt 0.447469 0.772075
vt 0.416503 0.762068
vt 0.388670 0.762009
vt 0.444335 0.762127
vt 0.472168 0.762187
vt 0.500055 0.762540
vt 0.472474 0.764772
vt 0.500081 0.770174
vt 0.611965 0.902982
vt 0.608293 0.928975
vt 0.609821 0.902838
vt 0.611104 0.930086
vt 0.603754 0.951609
vt 0.604243 0.902708
vt 0.597976 0.948794
vt 0.602592 0.928040
vt 0.612279 0.875000
vt 0.612398 0.903129
vt 0.612516 0.931258
vt 0.608146 0.955029
vt 0.612635 0.959387
vt 0.389712 0.929154
vt 0.397047 0.950444
vt 0.392697 0.953748
vt 0.390930 0.902242
vt 0.392499 0.928074
vt 0.402774 0.947739
vt 0.396470 0.902125
vt 0.398157 0.927194
vt 0.388254 0.957963
vt 0.388196 0.985617
vt 0.388313 0.930309
vt 0.388801 0.902425
vt 0.388372 0.902654
vt 0.554758 0.763768
vt 0.527703 0.764886
vt 0.527825 0.762737
vt 0.576226 0.771244
vt 0.553680 0.766573
vt 0.527601 0.770478
vt 0.573476 0.777004
vt 0.552787 0.772275
vt 0.527951 0.762305
vt 0.500000 0.762246
vt 0.555902 0.762365
vt 0.579578 0.766877
vt 0.583853 0.762424
vt 0.500073 0.764595
vn -0.9936 0.0000 0.1132
vn 0.0000 0.0000 -1.0000
vn 0.9936 0.0000 0.1132
vn 0.0000 -0.9936 0.1132
vn 0.0000 0.9936 0.1132
vn 0.2300 0.9231 0.3081
vn 0.0767 0.9472 0.3114
vn 0.1700 0.6719 0.7208
vn 0.0566 0.6898 0.7218
vn 0.5305 0.8467 0.0424
vn 0.2417 0.9694 0.0422
vn 0.0817 0.9957 0.0434
vn 0.0146 0.9989 0.0446
vn 0.0136 0.9485 0.3165
vn 0.0097 0.6900 0.7237
vn 0.0054 0.3509 0.9364
vn 0.0331 0.3504 0.9360
vn 0.0998 0.3472 0.9325
vn 0.2125 0.3746 0.9025
vn 0.3729 0.5904 0.7158
vn 0.5045 0.8050 0.3123
vn -0.9460 -0.0813 0.3137
vn -0.9227 -0.2323 0.3076
vn -0.6912 -0.0597 0.7202
vn -0.6767 -0.1745 0.7153
vn -0.9988 -0.0188 0.0445
vn -0.9953 -0.0857 0.0441
vn -0.9687 -0.2443 0.0428
vn -0.8455 -0.5323 0.0421
vn -0.8048 -0.5076 0.3077
vn -0.5922 -0.3758 0.7128
vn -0.3284 -0.2187 0.9189
vn -0.3493 -0.1016 0.9315
vn -0.3529 -0.0344 0.9350
vn -0.3525 -0.0069 0.9358
vn -0.6915 -0.0129 0.7223
vn -0.9486 -0.0178 0.3158
vn -0.9250 0.2203 0.3095
vn -0.9479 0.0664 0.3115
vn -0.6719 0.1627 0.7226
vn -0.6902 0.0488 0.7220
vn -0.8495 0.5259 0.0428
vn -0.9719 0.2315 0.0424
vn -0.9966 0.0700 0.0434
vn -0.9990 0.0021 0.0444
vn -0.9489 0.0020 0.3156
vn -0.6912 0.0015 0.7226
vn -0.3519 0.0014 0.9360
vn -0.3505 0.0296 0.9361
vn -0.3464 0.0965 0.9331
vn -0.3731 0.2092 0.9039
vn -0.5896 0.3682 0.7189
vn -0.8070 0.4997 0.3148
vn 0.0744 -0.9464 0.3143
vn 0.2265 -0.9237 0.3089
vn 0.0555 -0.6907 0.7210
vn 0.1701 -0.6761 0.7169
vn 0.0126 -0.9989 0.0445
vn 0.0794 -0.9959 0.0442
vn 0.2382 -0.9703 0.0431
vn 0.5271 -0.8488 0.0425
vn 0.5023 -0.8072 0.3100
vn 0.3707 -0.5919 0.7157
vn 0.2153 -0.3274 0.9200
vn 0.0991 -0.3484 0.9321
vn 0.0324 -0.3524 0.9353
vn 0.0048 -0.3525 0.9358
vn 0.0086 -0.6915 0.7223
vn 0.0119 -0.9487 0.3159
vn -0.0184 0.0181 0.9997
vn -0.0184 0.0575 0.9982
vn -0.0580 0.0181 0.9982
vn -0.0586 0.0587 0.9966
vn -0.0025 0.0025 1.0000
vn -0.0024 0.0185 0.9998
vn -0.0023 0.0579 0.9983
vn -0.0023 0.1455 0.9894
vn -0.0207 0.1455 0.9891
vn -0.0659 0.1458 0.9871
vn -0.1512 0.1367 0.9790
vn -0.1467 0.0651 0.9870
vn -0.1462 0.0202 0.9890
vn -0.1465 0.0019 0.9892
vn -0.0581 0.0022 0.9983
vn -0.0185 0.0024 0.9998
vn -0.0582 -0.0188 0.9981
vn -0.0591 -0.0596 0.9965
vn -0.0185 -0.0183 0.9997
vn -0.0186 -0.0580 0.9981
vn -0.1465 -0.0038 0.9892
vn -0.1468 -0.0223 0.9889
vn -0.1479 -0.0673 0.9867
vn -0.1528 -0.1395 0.9784
vn -0.0666 -0.1475 0.9868
vn -0.0210 -0.1467 0.9890
vn -0.0026 -0.1464 0.9892
vn -0.0024 -0.0581 0.9983
vn -0.0025 -0.0185 0.9998
vn -0.0025 -0.0025 1.0000
vn -0.0185 -0.0025 0.9998
vn -0.0581 -0.0027 0.9983
vn 0.0185 -0.0581 0.9981
vn 0.0589 -0.0590 0.9965
vn 0.0181 -0.0185 0.9997
vn 0.0575 -0.0186 0.9982
vn 0.0030 -0.1465 0.9892
vn 0.0214 -0.1466 0.9890
vn 0.0662 -0.1475 0.9869
vn 0.1375 -0.1523 0.9787
vn 0.1458 -0.0665 0.9871
vn 0.1452 -0.0210 0.9892
vn 0.1450 -0.0026 0.9894
vn 0.0576 -0.0024 0.9983
vn 0.0184 -0.0025 0.9998
vn 0.0025 -0.0025 1.0000
vn 0.0024 -0.0185 0.9998
vn 0.0025 -0.0582 0.9983
vn 0.0576 0.0186 0.9982
vn 0.0586 0.0593 0.9965
vn 0.0184 0.0182 0.9997
vn 0.0186 0.0578 0.9982
vn 0.1451 0.0030 0.9894
vn 0.1451 0.0216 0.9892
vn 0.1462 0.0667 0.9870
vn 0.1513 0.1387 0.9787
vn 0.0664 0.1470 0.9869
vn 0.0214 0.1462 0.9890
vn 0.0032 0.1458 0.9893
vn 0.0026 0.0578 0.9983
vn 0.0025 0.0184 0.9998
vn 0.0025 0.0025 1.0000
vn 0.0184 0.0024 0.9998
vn 0.0576 0.0025 0.9983
vn 0.9226 -0.2288 0.3105
vn 0.9468 -0.0733 0.3135
vn 0.6692 -0.1686 0.7237
vn 0.6874 -0.0534 0.7244
vn 0.8440 -0.5346 0.0426
vn 0.9697 -0.2406 0.0426
vn 0.9961 -0.0771 0.0438
vn 0.9990 -0.0085 0.0448
vn 0.9480 -0.0081 0.3181
vn 0.6879 -0.0058 0.7257
vn 0.3491 -0.0036 0.9371
vn 0.3482 -0.0317 0.9369
vn 0.3447 -0.0992 0.9335
vn 0.3718 -0.2132 0.9035
vn 0.5868 -0.3748 0.7177
vn 0.8020 -0.5082 0.3139
vn -0.0694 0.9460 0.3167
vn -0.2244 0.9233 0.3119
vn -0.0517 0.6880 0.7239
vn -0.1680 0.6728 0.7205
vn -0.0063 0.9990 0.0448
vn -0.0741 0.9963 0.0446
vn -0.2362 0.9707 0.0435
vn -0.5310 0.8463 0.0429
vn -0.5056 0.8040 0.3128
vn -0.3717 0.5871 0.7192
vn -0.2153 0.3237 0.9214
vn -0.0977 0.3454 0.9334
vn -0.0304 0.3499 0.9363
vn -0.0029 0.3505 0.9365
vn -0.0044 0.6892 0.7245
vn -0.0058 0.9482 0.3177
vn -0.2275 -0.9240 0.3073
vn -0.0717 -0.9479 0.3104
vn -0.1685 -0.6734 0.7198
vn -0.0532 -0.6913 0.7206
vn -0.5314 -0.8461 0.0422
vn -0.2389 -0.9701 0.0421
vn -0.0764 -0.9961 0.0433
vn -0.0084 -0.9990 0.0444
vn -0.0078 -0.9490 0.3151
vn -0.0057 -0.6918 0.7221
vn -0.0035 -0.3524 0.9359
vn -0.0317 -0.3515 0.9356
vn -0.0994 -0.3483 0.9321
vn -0.2137 -0.3760 0.9016
vn -0.3747 -0.5916 0.7139
vn -0.5057 -0.8048 0.3107
vn 0.9452 0.0767 0.3172
vn 0.9220 0.2301 0.3114
vn 0.6869 0.0561 0.7245
vn 0.6724 0.1721 0.7199
vn 0.9989 0.0127 0.0450
vn 0.9957 0.0810 0.0447
vn 0.9692 0.2423 0.0434
vn 0.8447 0.5335 0.0426
vn 0.8032 0.5082 0.3108
vn 0.5882 0.3745 0.7168
vn 0.3250 0.2173 0.9204
vn 0.3454 0.0999 0.9331
vn 0.3492 0.0326 0.9365
vn 0.3492 0.0049 0.9370
vn 0.6877 0.0087 0.7260
vn 0.9477 0.0120 0.3189
vn 0.2294 0.9226 0.3100
vn 0.0777 0.9456 0.3158
vn 0.1718 0.6742 0.7183
vn 0.0569 0.6886 0.7229
vn 0.5304 0.8467 0.0425
vn 0.2414 0.9695 0.0432
vn 0.0820 0.9956 0.0445
vn 0.0147 0.9989 0.0448
vn 0.0139 0.9481 0.3177
vn 0.0100 0.6892 0.7245
vn 0.0055 0.3505 0.9365
vn 0.0330 0.3506 0.9359
vn 0.0999 0.3470 0.9326
vn 0.2164 0.3264 0.9201
vn 0.3728 0.5903 0.7159
vn 0.5054 0.8052 0.3101
vn -0.9477 -0.0802 0.3090
vn -0.9232 -0.2331 0.3056
vn -0.6926 -0.0592 0.7188
vn -0.6746 -0.1729 0.7176
vn -0.9988 -0.0187 0.0442
vn -0.9954 -0.0855 0.0431
vn -0.9687 -0.2446 0.0418
vn -0.8455 -0.5324 0.0420
vn -0.8046 -0.5067 0.3097
vn -0.5923 -0.3760 0.7127
vn -0.3769 -0.2148 0.9010
vn -0.3497 -0.1014 0.9314
vn -0.3532 -0.0066 0.9355
vn -0.6927 -0.0125 0.7212
vn -0.9491 -0.0175 0.3144
vn -0.9247 0.2198 0.3108
vn -0.9468 0.0654 0.3152
vn -0.6749 0.1650 0.7192
vn -0.6900 0.0488 0.7221
vn -0.8495 0.5259 0.0429
vn -0.9719 0.2313 0.0433
vn -0.9966 0.0697 0.0444
vn -0.9990 0.0021 0.0445
vn -0.9488 0.0019 0.3159
vn -0.6915 0.0017 0.7223
vn -0.3525 0.0017 0.9358
vn -0.3516 0.0291 0.9357
vn -0.3470 0.0963 0.9329
vn -0.3254 0.2135 0.9212
vn -0.5898 0.3684 0.7187
vn -0.8072 0.5008 0.3124
vn 0.0756 -0.9477 0.3100
vn 0.2271 -0.9242 0.3072
vn 0.0552 -0.6917 0.7201
vn 0.1682 -0.6737 0.7196
vn 0.0125 -0.9989 0.0443
vn 0.0797 -0.9959 0.0432
vn 0.2385 -0.9702 0.0421
vn 0.5271 -0.8487 0.0424
vn 0.5013 -0.8070 0.3122
vn 0.2113 -0.3757 0.9024
vn 0.0990 -0.3485 0.9321
vn 0.0325 -0.3520 0.9354
vn 0.0048 -0.3527 0.9357
vn 0.0084 -0.6921 0.7217
vn 0.0116 -0.9491 0.3148
vn -0.0181 0.0184 0.9997
vn -0.0183 0.0577 0.9982
vn -0.0577 0.0183 0.9982
vn -0.0590 0.0583 0.9966
vn -0.0024 0.0184 0.9998
vn -0.0022 0.0577 0.9983
vn -0.0022 0.1456 0.9893
vn -0.0207 0.1454 0.9891
vn -0.0657 0.1460 0.9871
vn -0.1376 0.1503 0.9790
vn -0.1465 0.0653 0.9871
vn -0.1462 0.0017 0.9893
vn -0.0580 0.0021 0.9983
vn -0.0184 0.0023 0.9998
vn -0.0596 -0.0591 0.9965
vn -0.0183 -0.0185 0.9997
vn -0.0185 -0.0581 0.9981
vn -0.1468 -0.0036 0.9892
vn -0.1473 -0.0220 0.9889
vn -0.1480 -0.0672 0.9867
vn -0.1394 -0.1527 0.9784
vn -0.0667 -0.1475 0.9868
vn -0.0212 -0.1465 0.9890
vn -0.0025 -0.1465 0.9892
vn -0.0023 -0.0582 0.9983
vn -0.0024 -0.0186 0.9998
vn -0.0582 -0.0027 0.9983
vn 0.0185 -0.0580 0.9981
vn 0.0585 -0.0594 0.9965
vn 0.0184 -0.0182 0.9997
vn 0.0576 -0.0185 0.9982
vn 0.0030 -0.1466 0.9892
vn 0.0212 -0.1469 0.9889
vn 0.0661 -0.1475 0.9868
vn 0.1507 -0.1389 0.9788
vn 0.1459 -0.0665 0.9871
vn 0.1450 -0.0211 0.9892
vn 0.1451 -0.0025 0.9894
vn 0.0576 -0.0023 0.9983
vn 0.0184 -0.0024 0.9998
vn 0.0025 -0.0185 0.9998
vn 0.0025 -0.0581 0.9983
vn 0.0575 0.0187 0.9982
vn 0.0591 0.0588 0.9965
vn 0.0181 0.0185 0.9997
vn 0.0185 0.0579 0.9981
vn 0.1455 0.0214 0.9891
vn 0.1463 0.0666 0.9870
vn 0.1381 0.1519 0.9787
vn 0.0665 0.1469 0.9869
vn 0.0217 0.1458 0.9891
vn 0.0032 0.1457 0.9893
vn 0.0026 0.0579 0.9983
vn 0.0024 0.0185 0.9998
vn 0.0184 0.0025 0.9998
vn 0.9222 -0.2282 0.3121
vn 0.9455 -0.0721 0.3176
vn 0.6718 -0.1706 0.7208
vn 0.6866 -0.0536 0.7250
vn 0.8440 -0.5346 0.0427
vn 0.9697 -0.2403 0.0435
vn 0.9960 -0.0773 0.0447
vn 0.9990 -0.0085 0.0450
vn 0.9477 -0.0079 0.3189
vn 0.6877 -0.0059 0.7260
vn 0.3492 -0.0035 0.9370
vn 0.3489 -0.0314 0.9367
vn 0.3448 -0.0992 0.9334
vn 0.3240 -0.2173 0.9208
vn 0.8023 -0.5092 0.3116
vn -0.0706 0.9472 0.3127
vn -0.2249 0.9236 0.3104
vn -0.0515 0.6885 0.7234
vn -0.1658 0.6700 0.7236
vn -0.0063 0.9990 0.0447
vn -0.0744 0.9963 0.0436
vn -0.2364 0.9707 0.0425
vn -0.5311 0.8462 0.0428
vn -0.5045 0.8038 0.3152
vn -0.3715 0.5870 0.7194
vn -0.2111 0.3714 0.9042
vn -0.0979 0.3451 0.9335
vn -0.0308 0.3491 0.9366
vn -0.0028 0.3502 0.9367
vn -0.0044 0.6893 0.7245
vn -0.0060 0.9484 0.3171
vn -0.2269 -0.9236 0.3091
vn -0.0727 -0.9464 0.3146
vn -0.1704 -0.6759 0.7170
vn -0.0534 -0.6905 0.7213
vn -0.5314 -0.8461 0.0423
vn -0.2386 -0.9702 0.0431
vn -0.0767 -0.9961 0.0443
vn -0.0084 -0.9990 0.0445
vn -0.0080 -0.9488 0.3159
vn -0.0058 -0.6915 0.7223
vn -0.0035 -0.3525 0.9358
vn -0.0314 -0.3522 0.9354
vn -0.2179 -0.3278 0.9193
vn -0.3746 -0.5916 0.7139
vn -0.5066 -0.8051 0.3086
vn 0.9468 0.0757 0.3128
vn 0.9225 0.2308 0.3095
vn 0.6880 0.0558 0.7236
vn 0.6700 0.1703 0.7225
vn 0.9989 0.0127 0.0448
vn 0.9958 0.0807 0.0437
vn 0.9692 0.2426 0.0424
vn 0.8447 0.5335 0.0425
vn 0.8029 0.5073 0.3130
vn 0.5883 0.3746 0.7167
vn 0.3730 0.2132 0.9030
vn 0.3456 0.0999 0.9330
vn 0.3488 0.0327 0.9366
vn 0.3494 0.0048 0.9370
vn 0.6883 0.0085 0.7254
vn 0.9481 0.0118 0.3178
usemtl Material.001
s off
f 1/1/1 3/2/1 2/3/1
f 3/2/2 4/4/2 2/3/2
f 4/4/3 5/5/3 1/6/3
f 2/7/4 4/4/4 1/8/4
f 5/5/5 3/9/5 1/10/5
f 108/11/6 110/12/6 107/13/6
f 108/11/7 112/14/7 111/15/7
f 111/15/8 113/16/8 110/12/8
f 111/15/9 115/17/9 114/18/9
f 56/19/10 103/20/10 13/21/10
f 57/22/11 107/13/11 56/19/11
f 57/22/12 109/23/12 108/11/12
f 58/24/13 98/25/13 109/23/13
f 109/23/14 99/26/14 112/14/14
f 112/14/15 100/27/15 115/17/15
f 115/17/16 16/28/16 94/29/16
f 114/18/17 94/29/17 93/30/17
f 113/16/18 93/30/18 92/31/18
f 101/32/19 92/31/19 22/33/19
f 110/12/20 101/32/20 102/34/20
f 107/13/21 102/34/21 103/20/21
f 117/35/22 119/36/22 116/37/22
f 117/35/23 121/38/23 120/39/23
f 120/39/24 122/40/24 119/36/24
f 120/39/25 124/41/25 123/42/25
f 35/43/26 26/44/26 9/45/26
f 36/46/27 116/37/27 35/43/27
f 36/46/28 118/47/28 117/35/28
f 37/48/29 95/49/29 118/47/29
f 118/47/30 96/50/30 121/38/30
f 121/38/31 97/51/31 124/41/31
f 97/51/32 73/52/32 124/41/32
f 124/41/33 72/53/33 123/42/33
f 123/42/34 71/54/34 122/40/34
f 122/40/35 18/55/35 28/56/35
f 119/36/36 28/56/36 27/57/36
f 116/37/37 27/57/37 26/44/37
f 126/58/38 128/59/38 125/60/38
f 127/61/39 129/62/39 126/58/39
f 129/62/40 131/63/40 128/59/40
f 129/62/41 133/64/41 132/65/41
f 41/66/42 25/67/42 11/68/42
f 42/69/43 125/60/43 41/66/43
f 43/70/44 126/58/44 42/69/44
f 9/45/45 127/61/45 43/70/45
f 26/44/46 130/71/46 127/61/46
f 27/57/47 133/64/47 130/71/47
f 28/56/48 79/72/48 133/64/48
f 132/65/49 79/72/49 78/73/49
f 131/63/50 78/73/50 77/74/50
f 23/75/51 77/74/51 20/76/51
f 128/59/52 23/75/52 24/77/52
f 125/60/53 24/77/53 25/67/53
f 134/78/54 138/79/54 137/80/54
f 135/81/55 139/82/55 138/79/55
f 138/79/56 140/83/56 137/80/56
f 138/79/57 142/84/57 141/85/57
f 47/86/58 31/87/58 8/88/58
f 47/86/59 135/81/59 134/78/59
f 48/89/60 136/90/60 135/81/60
f 49/91/61 32/92/61 136/90/61
f 136/90/62 33/93/62 139/82/62
f 139/82/63 34/94/63 142/84/63
f 34/94/64 85/95/64 142/84/64
f 142/84/65 84/96/65 141/85/65
f 141/85/66 83/97/66 140/83/66
f 140/83/67 17/98/67 29/99/67
f 137/80/68 29/99/68 30/100/68
f 134/78/69 30/100/69 31/87/69
f 143/101/70 147/102/70 146/103/70
f 144/104/71 148/105/71 147/102/71
f 146/103/72 150/106/72 149/107/72
f 147/102/73 151/108/73 150/106/73
f 64/109/74 68/110/74 14/111/74
f 63/112/75 143/101/75 64/109/75
f 62/113/76 144/104/76 63/112/76
f 62/113/77 80/114/77 145/115/77
f 145/115/78 81/116/78 148/105/78
f 148/105/79 82/117/79 151/108/79
f 151/108/80 20/76/80 77/74/80
f 150/106/81 77/74/81 78/73/81
f 149/107/82 78/73/82 79/72/82
f 149/107/83 18/55/83 70/118/83
f 146/103/84 70/118/84 69/119/84
f 143/101/85 69/119/85 68/110/85
f 153/120/86 155/121/86 152/122/86
f 154/123/87 156/124/87 153/120/87
f 156/124/88 158/125/88 155/121/88
f 157/126/89 159/127/89 156/124/89
f 71/54/90 70/118/90 18/55/90
f 72/53/91 152/122/91 71/54/91
f 73/52/92 153/120/92 72/53/92
f 19/128/93 154/123/93 73/52/93
f 74/129/94 157/126/94 154/123/94
f 75/130/95 160/131/95 157/126/95
f 76/132/96 67/133/96 160/131/96
f 160/131/97 66/134/97 159/127/97
f 159/127/98 65/135/98 158/125/98
f 158/125/99 14/111/99 68/110/99
f 155/121/100 68/110/100 69/119/100
f 152/122/101 69/119/101 70/118/101
f 162/136/102 164/137/102 161/138/102
f 163/139/103 165/140/103 162/136/103
f 165/140/104 167/141/104 164/137/104
f 166/142/105 168/143/105 165/140/105
f 83/97/106 67/133/106 17/98/106
f 84/96/107 161/138/107 83/97/107
f 85/95/108 162/136/108 84/96/108
f 21/144/109 163/139/109 85/95/109
f 86/145/110 166/142/110 163/139/110
f 87/146/111 169/147/111 166/142/111
f 88/148/112 59/149/112 169/147/112
f 169/147/113 60/150/113 168/143/113
f 168/143/114 61/151/114 167/141/114
f 65/135/115 61/151/115 14/111/115
f 164/137/116 65/135/116 66/134/116
f 161/138/117 66/134/117 67/133/117
f 171/152/118 173/153/118 170/154/118
f 172/155/119 174/156/119 171/152/119
f 174/156/120 176/157/120 173/153/120
f 175/158/121 177/159/121 174/156/121
f 89/160/122 59/149/122 15/161/122
f 90/162/123 170/154/123 89/160/123
f 91/163/124 171/152/124 90/162/124
f 22/33/125 172/155/125 91/163/125
f 92/31/126 175/158/126 172/155/126
f 93/30/127 178/164/127 175/158/127
f 94/29/128 62/113/128 178/164/128
f 178/164/129 63/112/129 177/159/129
f 177/159/130 64/109/130 176/157/130
f 176/157/131 14/111/131 61/151/131
f 173/153/132 61/151/132 60/150/132
f 170/154/133 60/150/133 59/149/133
f 180/165/134 182/166/134 179/167/134
f 181/168/135 183/169/135 180/165/135
f 183/169/136 185/170/136 182/166/136
f 183/169/137 187/171/137 186/172/137
f 50/173/138 32/92/138 12/174/138
f 51/175/139 179/167/139 50/173/139
f 51/175/140 181/168/140 180/165/140
f 52/176/141 104/177/141 181/168/141
f 104/177/142 184/178/142 181/168/142
f 184/178/143 106/179/143 187/171/143
f 187/171/144 15/161/144 88/148/144
f 186/172/145 88/148/145 87/146/145
f 185/170/146 87/146/146 86/145/146
f 34/94/147 86/145/147 21/144/147
f 182/166/148 34/94/148 33/93/148
f 179/167/149 33/93/149 32/92/149
f 188/180/150 192/181/150 191/182/150
f 189/183/151 193/184/151 192/181/151
f 192/181/152 194/185/152 191/182/152
f 192/181/153 196/186/153 195/187/153
f 7/188/154 188/180/154 98/25/154
f 44/189/155 189/183/155 188/180/155
f 45/190/156 190/191/156 189/183/156
f 46/192/157 25/67/157 190/191/157
f 190/191/158 24/77/158 193/184/158
f 193/184/159 23/75/159 196/186/159
f 23/75/160 82/117/160 196/186/160
f 196/186/161 81/116/161 195/187/161
f 195/187/162 80/114/162 194/185/162
f 100/27/163 80/114/163 16/28/163
f 99/26/164 194/185/164 100/27/164
f 98/25/165 191/182/165 99/26/165
f 198/193/166 200/194/166 197/195/166
f 198/193/167 202/196/167 201/197/167
f 201/197/168 203/198/168 200/194/168
f 201/197/169 205/199/169 204/200/169
f 38/201/170 95/49/170 10/202/170
f 39/203/171 197/195/171 38/201/171
f 39/203/172 199/204/172 198/193/172
f 40/205/173 31/87/173 199/204/173
f 199/204/174 30/100/174 202/196/174
f 202/196/175 29/99/175 205/199/175
f 205/199/176 17/98/176 76/132/176
f 204/200/177 76/132/177 75/130/177
f 203/198/178 75/130/178 74/129/178
f 97/51/179 74/129/179 19/128/179
f 200/194/180 97/51/180 96/50/180
f 197/195/181 96/50/181 95/49/181
f 207/206/182 209/207/182 206/208/182
f 207/206/183 211/209/183 210/210/183
f 210/210/184 212/211/184 209/207/184
f 210/210/185 214/212/185 213/213/185
f 53/214/186 104/177/186 6/215/186
f 54/216/187 206/208/187 53/214/187
f 54/216/188 208/217/188 207/206/188
f 55/218/189 103/20/189 208/217/189
f 208/217/190 102/34/190 211/209/190
f 211/209/191 101/32/191 214/212/191
f 101/32/192 91/163/192 214/212/192
f 214/212/193 90/162/193 213/213/193
f 213/213/194 89/160/194 212/211/194
f 212/211/195 15/161/195 106/179/195
f 209/207/196 106/179/196 105/219/196
f 206/208/197 105/219/197 104/177/197
f 108/11/198 111/15/198 110/12/198
f 108/11/199 109/23/199 112/14/199
f 111/15/200 114/18/200 113/16/200
f 111/15/201 112/14/201 115/17/201
f 56/19/202 107/13/202 103/20/202
f 57/22/203 108/11/203 107/13/203
f 57/22/204 58/24/204 109/23/204
f 58/24/205 7/188/205 98/25/205
f 109/23/206 98/25/206 99/26/206
f 112/14/207 99/26/207 100/27/207
f 115/17/208 100/27/208 16/28/208
f 114/18/209 115/17/209 94/29/209
f 113/16/210 114/18/210 93/30/210
f 101/32/211 113/16/211 92/31/211
f 110/12/212 113/16/212 101/32/212
f 107/13/213 110/12/213 102/34/213
f 117/35/214 120/39/214 119/36/214
f 117/35/215 118/47/215 121/38/215
f 120/39/216 123/42/216 122/40/216
f 120/39/217 121/38/217 124/41/217
f 35/43/218 116/37/218 26/44/218
f 36/46/219 117/35/219 116/37/219
f 36/46/220 37/48/220 118/47/220
f 37/48/221 10/202/221 95/49/221
f 118/47/222 95/49/222 96/50/222
f 121/38/223 96/50/223 97/51/223
f 97/51/224 19/128/224 73/52/224
f 124/41/225 73/52/225 72/53/225
f 123/42/34 72/53/34 71/54/34
f 122/40/226 71/54/226 18/55/226
f 119/36/227 122/40/227 28/56/227
f 116/37/228 119/36/228 27/57/228
f 126/58/229 129/62/229 128/59/229
f 127/61/230 130/71/230 129/62/230
f 129/62/231 132/65/231 131/63/231
f 129/62/232 130/71/232 133/64/232
f 41/66/233 125/60/233 25/67/233
f 42/69/234 126/58/234 125/60/234
f 43/70/235 127/61/235 126/58/235
f 9/45/236 26/44/236 127/61/236
f 26/44/237 27/57/237 130/71/237
f 27/57/238 28/56/238 133/64/238
f 28/56/239 18/55/239 79/72/239
f 132/65/240 133/64/240 79/72/240
f 131/63/241 132/65/241 78/73/241
f 23/75/242 131/63/242 77/74/242
f 128/59/243 131/63/243 23/75/243
f 125/60/244 128/59/244 24/77/244
f 134/78/245 135/81/245 138/79/245
f 135/81/246 136/90/246 139/82/246
f 138/79/247 141/85/247 140/83/247
f 138/79/248 139/82/248 142/84/248
f 47/86/249 134/78/249 31/87/249
f 47/86/250 48/89/250 135/81/250
f 48/89/251 49/91/251 136/90/251
f 49/91/252 12/174/252 32/92/252
f 136/90/253 32/92/253 33/93/253
f 139/82/63 33/93/63 34/94/63
f 34/94/254 21/144/254 85/95/254
f 142/84/255 85/95/255 84/96/255
f 141/85/256 84/96/256 83/97/256
f 140/83/257 83/97/257 17/98/257
f 137/80/258 140/83/258 29/99/258
f 134/78/259 137/80/259 30/100/259
f 143/101/260 144/104/260 147/102/260
f 144/104/261 145/115/261 148/105/261
f 146/103/262 147/102/262 150/106/262
f 147/102/263 148/105/263 151/108/263
f 64/109/74 143/101/74 68/110/74
f 63/112/264 144/104/264 143/101/264
f 62/113/265 145/115/265 144/104/265
f 62/113/266 16/28/266 80/114/266
f 145/115/267 80/114/267 81/116/267
f 148/105/268 81/116/268 82/117/268
f 151/108/269 82/117/269 20/76/269
f 150/106/270 151/108/270 77/74/270
f 149/107/82 150/106/82 78/73/82
f 149/107/271 79/72/271 18/55/271
f 146/103/272 149/107/272 70/118/272
f 143/101/273 146/103/273 69/119/273
f 153/120/86 156/124/86 155/121/86
f 154/123/274 157/126/274 156/124/274
f 156/124/275 159/127/275 158/125/275
f 157/126/276 160/131/276 159/127/276
f 71/54/277 152/122/277 70/118/277
f 72/53/278 153/120/278 152/122/278
f 73/52/279 154/123/279 153/120/279
f 19/128/280 74/129/280 154/123/280
f 74/129/281 75/130/281 157/126/281
f 75/130/282 76/132/282 160/131/282
f 76/132/283 17/98/283 67/133/283
f 160/131/284 67/133/284 66/134/284
f 159/127/285 66/134/285 65/135/285
f 158/125/99 65/135/99 14/111/99
f 155/121/100 158/125/100 68/110/100
f 152/122/286 155/121/286 69/119/286
f 162/136/287 165/140/287 164/137/287
f 163/139/288 166/142/288 165/140/288
f 165/140/289 168/143/289 167/141/289
f 166/142/290 169/147/290 168/143/290
f 83/97/291 161/138/291 67/133/291
f 84/96/292 162/136/292 161/138/292
f 85/95/293 163/139/293 162/136/293
f 21/144/294 86/145/294 163/139/294
f 86/145/295 87/146/295 166/142/295
f 87/146/296 88/148/296 169/147/296
f 88/148/297 15/161/297 59/149/297
f 169/147/298 59/149/298 60/150/298
f 168/143/299 60/150/299 61/151/299
f 65/135/115 167/141/115 61/151/115
f 164/137/300 167/141/300 65/135/300
f 161/138/301 164/137/301 66/134/301
f 171/152/302 174/156/302 173/153/302
f 172/155/303 175/158/303 174/156/303
f 174/156/304 177/159/304 176/157/304
f 175/158/305 178/164/305 177/159/305
f 89/160/122 170/154/122 59/149/122
f 90/162/306 171/152/306 170/154/306
f 91/163/307 172/155/307 171/152/307
f 22/33/308 92/31/308 172/155/308
f 92/31/309 93/30/309 175/158/309
f 93/30/310 94/29/310 178/164/310
f 94/29/311 16/28/311 62/113/311
f 178/164/312 62/113/312 63/112/312
f 177/159/313 63/112/313 64/109/313
f 176/157/131 64/109/131 14/111/131
f 173/153/314 176/157/314 61/151/314
f 170/154/133 173/153/133 60/150/133
f 180/165/315 183/169/315 182/166/315
f 181/168/316 184/178/316 183/169/316
f 183/169/317 186/172/317 185/170/317
f 183/169/318 184/178/318 187/171/318
f 50/173/319 179/167/319 32/92/319
f 51/175/320 180/165/320 179/167/320
f 51/175/321 52/176/321 181/168/321
f 52/176/322 6/215/322 104/177/322
f 104/177/323 105/219/323 184/178/323
f 184/178/324 105/219/324 106/179/324
f 187/171/325 106/179/325 15/161/325
f 186/172/326 187/171/326 88/148/326
f 185/170/327 186/172/327 87/146/327
f 34/94/328 185/170/328 86/145/328
f 182/166/148 185/170/148 34/94/148
f 179/167/329 182/166/329 33/93/329
f 188/180/330 189/183/330 192/181/330
f 189/183/331 190/191/331 193/184/331
f 192/181/332 195/187/332 194/185/332
f 192/181/333 193/184/333 196/186/333
f 7/188/334 44/189/334 188/180/334
f 44/189/335 45/190/335 189/183/335
f 45/190/336 46/192/336 190/191/336
f 46/192/337 11/68/337 25/67/337
f 190/191/338 25/67/338 24/77/338
f 193/184/339 24/77/339 23/75/339
f 23/75/340 20/76/340 82/117/340
f 196/186/341 82/117/341 81/116/341
f 195/187/342 81/116/342 80/114/342
f 100/27/343 194/185/343 80/114/343
f 99/26/344 191/182/344 194/185/344
f 98/25/345 188/180/345 191/182/345
f 198/193/346 201/197/346 200/194/346
f 198/193/347 199/204/347 202/196/347
f 201/197/348 204/200/348 203/198/348
f 201/197/349 202/196/349 205/199/349
f 38/201/350 197/195/350 95/49/350
f 39/203/351 198/193/351 197/195/351
f 39/203/352 40/205/352 199/204/352
f 40/205/353 8/88/353 31/87/353
f 199/204/354 31/87/354 30/100/354
f 202/196/355 30/100/355 29/99/355
f 205/199/356 29/99/356 17/98/356
f 204/200/357 205/199/357 76/132/357
f 203/198/178 204/200/178 75/130/178
f 97/51/358 203/198/358 74/129/358
f 200/194/359 203/198/359 97/51/359
f 197/195/360 200/194/360 96/50/360
f 207/206/361 210/210/361 209/207/361
f 207/206/362 208/217/362 211/209/362
f 210/210/363 213/213/363 212/211/363
f 210/210/364 211/209/364 214/212/364
f 53/214/365 206/208/365 104/177/365
f 54/216/366 207/206/366 206/208/366
f 54/216/367 55/218/367 208/217/367
f 55/218/368 13/21/368 103/20/368
f 208/217/369 103/20/369 102/34/369
f 211/209/370 102/34/370 101/32/370
f 101/32/371 22/33/371 91/163/371
f 214/212/372 91/163/372 90/162/372
f 213/213/373 90/162/373 89/160/373
f 212/211/374 89/160/374 15/161/374
f 209/207/375 212/211/375 106/179/375
f 206/208/376 209/207/376 105/219/376
f 3/2/2 5/5/2 4/4/2
