# Blender v3.1.2 OBJ File: ''
# www.blender.org
mtllib MiniGun.mtl
o Cube_Cube.001
v -2.292053 -0.457211 2.838787
v -2.292053 0.457211 2.838787
v -2.292053 -0.457211 1.924365
v -2.292053 0.457211 1.924365
v -1.377631 -0.457211 2.838787
v -1.377631 0.457211 2.838787
v -1.377631 -0.457211 1.924365
v -1.377631 0.457211 1.924365
v -1.936628 0.138856 8.411167
v -1.936628 0.342429 8.411167
v -1.927340 0.148144 2.181883
v -1.927340 0.333141 2.181883
v -1.733055 0.138856 8.411167
v -1.733055 0.342429 8.411167
v -1.742344 0.148144 2.181883
v -1.742344 0.333141 2.181883
v -1.963029 0.368830 2.181883
v -1.963029 0.112456 2.181883
v -1.706655 0.112456 2.181883
v -1.706655 0.368830 2.181883
v -1.963029 0.112456 8.411167
v -1.963029 0.368830 8.411167
v -1.706655 0.368830 8.411167
v -1.706655 0.112456 8.411167
v -1.657779 -0.040000 8.411167
v -1.657779 0.163573 8.411167
v -1.648490 -0.030711 2.181883
v -1.648490 0.154285 2.181883
v -1.454206 -0.040000 8.411167
v -1.454206 0.163573 8.411167
v -1.463494 -0.030711 2.181883
v -1.463494 0.154285 2.181883
v -1.684179 0.189974 2.181883
v -1.684179 -0.066400 2.181883
v -1.427805 -0.066400 2.181883
v -1.427805 0.189974 2.181883
v -1.684179 -0.066400 8.411167
v -1.684179 0.189974 8.411167
v -1.427805 0.189974 8.411167
v -1.427805 -0.066400 8.411167
v -2.221024 -0.036157 8.411167
v -2.221024 0.167416 8.411167
v -2.211736 -0.026868 2.181883
v -2.211736 0.158128 2.181883
v -2.017451 -0.036157 8.411167
v -2.017451 0.167416 8.411167
v -2.026740 -0.026868 2.181883
v -2.026740 0.158128 2.181883
v -2.247425 0.193817 2.181883
v -2.247425 -0.062557 2.181883
v -1.991051 -0.062557 2.181883
v -1.991051 0.193817 2.181883
v -2.247425 -0.062557 8.411167
v -2.247425 0.193817 8.411167
v -1.991051 0.193817 8.411167
v -1.991051 -0.062557 8.411167
v -2.089765 -0.326022 8.411167
v -2.089765 -0.122449 8.411167
v -2.080477 -0.316733 2.181883
v -2.080477 -0.131737 2.181883
v -1.886192 -0.326022 8.411167
v -1.886192 -0.122449 8.411167
v -1.895480 -0.316733 2.181883
v -1.895480 -0.131737 2.181883
v -2.116165 -0.096048 2.181883
v -2.116165 -0.352422 2.181883
v -1.859791 -0.352422 2.181883
v -1.859791 -0.096048 2.181883
v -2.116165 -0.352422 8.411167
v -2.116165 -0.096048 8.411167
v -1.859791 -0.096048 8.411167
v -1.859791 -0.352422 8.411167
v -1.772554 -0.326022 8.411167
v -1.772554 -0.122449 8.411167
v -1.763266 -0.316733 2.181883
v -1.763266 -0.131737 2.181883
v -1.568981 -0.326022 8.411167
v -1.568981 -0.122449 8.411167
v -1.578269 -0.316733 2.181883
v -1.578269 -0.131737 2.181883
v -1.798954 -0.096048 2.181883
v -1.798954 -0.352422 2.181883
v -1.542580 -0.352422 2.181883
v -1.542580 -0.096048 2.181883
v -1.798954 -0.352422 8.411167
v -1.798954 -0.096048 8.411167
v -1.542580 -0.096048 8.411167
v -1.542580 -0.352422 8.411167
v -2.111839 -0.276997 2.210261
v -2.111839 0.276997 2.210261
v -2.111839 -0.276997 0.605873
v -2.111839 0.276997 0.605873
v -1.557845 -0.276997 2.210261
v -1.557845 0.276997 2.210261
v -1.557845 -0.276997 0.605873
v -1.557845 0.276997 0.605873
v -1.923149 -1.565133 2.803502
v -1.923149 -0.316256 2.803502
v -1.923149 -1.565133 2.626887
v -1.923149 -0.316256 2.626887
v -1.746535 -1.565133 2.803502
v -1.746535 -0.316256 2.803502
v -1.746535 -1.565133 2.626887
v -1.746535 -0.316256 2.626887
v -1.923149 -1.472157 1.944844
v -1.923149 -0.223280 1.944844
v -1.923149 -1.472157 1.768230
v -1.923149 -0.223280 1.768230
v -1.746535 -1.472157 1.944844
v -1.746535 -0.223280 1.944844
v -1.746535 -1.472157 1.768230
v -1.746535 -0.223280 1.768230
v -1.985223 -1.015708 0.362941
v -1.985223 -0.290428 0.853711
v -1.985223 -0.847155 0.113848
v -1.985223 -0.121876 0.604618
v -1.684461 -1.015708 0.362941
v -1.684461 -0.290428 0.853711
v -1.684461 -0.847155 0.113848
v -1.684461 -0.121876 0.604618
v -1.990043 -1.353641 0.936489
v -1.990043 -0.762503 0.147599
v -1.990043 -1.590144 0.750684
v -1.990043 -0.999007 -0.038206
v -1.679641 -1.353641 0.936489
v -1.679641 -0.762503 0.147599
v -1.679641 -1.590144 0.750684
v -1.679641 -0.999007 -0.038206
v -1.900521 -1.316717 0.880053
v -1.900521 -0.230068 0.873961
v -1.900521 -1.519855 0.749010
v -1.900521 -0.238367 0.722536
v -1.769163 -1.316717 0.880053
v -1.769163 -0.230068 0.873961
v -1.769163 -1.519855 0.749010
v -1.769163 -0.238367 0.722536
v -1.865598 -0.920781 2.098276
v -1.865598 -0.516490 1.937835
v -1.865598 -0.943470 2.041102
v -1.865598 -0.539179 1.880661
v -1.804086 -0.920781 2.098276
v -1.804086 -0.516490 1.937835
v -1.804086 -0.943470 2.041102
v -1.804086 -0.539179 1.880661
v -1.869367 -0.973296 2.103418
v -1.869367 -0.485082 2.110219
v -1.869367 -0.972335 2.034375
v -1.869367 -0.484120 2.041177
v -1.800317 -0.973296 2.103418
v -1.800317 -0.485082 2.110219
v -1.800317 -0.972335 2.034375
v -1.800317 -0.484120 2.041177
vt 0.625000 0.000000
vt 0.375000 0.250000
vt 0.375000 0.000000
vt 0.625000 0.250000
vt 0.375000 0.500000
vt 0.625000 0.500000
vt 0.375000 0.750000
vt 0.625000 0.750000
vt 0.375000 1.000000
vt 0.125000 0.750000
vt 0.125000 0.500000
vt 0.875000 0.500000
vt 0.625000 0.000000
vt 0.375000 0.250000
vt 0.375000 0.000000
vt 0.599256 0.775744
vt 0.376674 0.498326
vt 0.400744 0.775744
vt 0.625000 0.500000
vt 0.375000 0.750000
vt 0.375000 0.500000
vt 0.376674 0.251674
vt 0.400744 0.974256
vt 0.125000 0.750000
vt 0.125000 0.500000
vt 0.875000 0.500000
vt 0.625000 0.750000
vt 0.625000 0.250000
vt 0.623326 0.251674
vt 0.623326 0.498326
vt 0.599256 0.974256
vt 0.375000 1.000000
vt 0.625000 1.000000
vt 0.625000 0.000000
vt 0.375000 0.250000
vt 0.375000 0.000000
vt 0.599256 0.775744
vt 0.376674 0.498326
vt 0.400744 0.775744
vt 0.625000 0.500000
vt 0.375000 0.750000
vt 0.375000 0.500000
vt 0.376674 0.251674
vt 0.400744 0.974256
vt 0.125000 0.750000
vt 0.125000 0.500000
vt 0.875000 0.500000
vt 0.625000 0.750000
vt 0.625000 0.250000
vt 0.623326 0.251674
vt 0.623326 0.498326
vt 0.599256 0.974256
vt 0.375000 1.000000
vt 0.625000 1.000000
vt 0.625000 0.000000
vt 0.375000 0.250000
vt 0.375000 0.000000
vt 0.599256 0.775744
vt 0.376674 0.498326
vt 0.400744 0.775744
vt 0.625000 0.500000
vt 0.375000 0.750000
vt 0.375000 0.500000
vt 0.376674 0.251674
vt 0.400744 0.974256
vt 0.125000 0.750000
vt 0.125000 0.500000
vt 0.875000 0.500000
vt 0.625000 0.750000
vt 0.623326 0.251674
vt 0.625000 0.250000
vt 0.623326 0.498326
vt 0.599256 0.974256
vt 0.375000 1.000000
vt 0.625000 1.000000
vt 0.625000 0.000000
vt 0.375000 0.250000
vt 0.375000 0.000000
vt 0.599256 0.775744
vt 0.376674 0.498326
vt 0.400744 0.775744
vt 0.625000 0.500000
vt 0.375000 0.750000
vt 0.375000 0.500000
vt 0.376674 0.251674
vt 0.400744 0.974256
vt 0.125000 0.750000
vt 0.125000 0.500000
vt 0.875000 0.500000
vt 0.625000 0.750000
vt 0.623326 0.251674
vt 0.625000 0.250000
vt 0.623326 0.498326
vt 0.599256 0.974256
vt 0.375000 1.000000
vt 0.625000 1.000000
vt 0.625000 0.000000
vt 0.375000 0.250000
vt 0.375000 0.000000
vt 0.599256 0.775744
vt 0.376674 0.498326
vt 0.400744 0.775744
vt 0.625000 0.500000
vt 0.375000 0.750000
vt 0.375000 0.500000
vt 0.376674 0.251674
vt 0.400744 0.974256
vt 0.125000 0.750000
vt 0.125000 0.500000
vt 0.875000 0.500000
vt 0.625000 0.750000
vt 0.623326 0.251674
vt 0.625000 0.250000
vt 0.623326 0.498326
vt 0.599256 0.974256
vt 0.375000 1.000000
vt 0.625000 1.000000
vt 0.625000 0.000000
vt 0.375000 0.250000
vt 0.375000 0.000000
vt 0.625000 0.250000
vt 0.375000 0.500000
vt 0.625000 0.500000
vt 0.375000 0.750000
vt 0.625000 0.750000
vt 0.375000 1.000000
vt 0.125000 0.750000
vt 0.125000 0.500000
vt 0.875000 0.500000
vt 0.625000 0.000000
vt 0.375000 0.250000
vt 0.375000 0.000000
vt 0.625000 0.250000
vt 0.375000 0.500000
vt 0.625000 0.500000
vt 0.375000 0.750000
vt 0.625000 0.750000
vt 0.375000 1.000000
vt 0.125000 0.750000
vt 0.125000 0.500000
vt 0.875000 0.500000
vt 0.625000 0.000000
vt 0.375000 0.250000
vt 0.375000 0.000000
vt 0.625000 0.250000
vt 0.375000 0.500000
vt 0.625000 0.500000
vt 0.375000 0.750000
vt 0.625000 0.750000
vt 0.375000 1.000000
vt 0.125000 0.750000
vt 0.125000 0.500000
vt 0.875000 0.500000
vt 0.625000 0.000000
vt 0.375000 0.250000
vt 0.375000 0.000000
vt 0.625000 0.250000
vt 0.375000 0.500000
vt 0.625000 0.750000
vt 0.375000 0.750000
vt 0.375000 1.000000
vt 0.125000 0.750000
vt 0.125000 0.500000
vt 0.875000 0.500000
vt 0.625000 0.500000
vt 0.625000 0.000000
vt 0.375000 0.250000
vt 0.375000 0.000000
vt 0.625000 0.250000
vt 0.375000 0.500000
vt 0.625000 0.750000
vt 0.375000 0.750000
vt 0.375000 1.000000
vt 0.125000 0.750000
vt 0.125000 0.500000
vt 0.875000 0.500000
vt 0.625000 0.500000
vt 0.375000 0.000000
vt 0.625000 0.250000
vt 0.375000 0.250000
vt 0.375000 0.500000
vt 0.625000 0.500000
vt 0.375000 0.750000
vt 0.625000 0.750000
vt 0.375000 1.000000
vt 0.125000 0.750000
vt 0.125000 0.500000
vt 0.875000 0.500000
vt 0.625000 0.000000
vt 0.375000 0.250000
vt 0.375000 0.000000
vt 0.625000 0.250000
vt 0.375000 0.500000
vt 0.625000 0.750000
vt 0.375000 0.750000
vt 0.375000 1.000000
vt 0.125000 0.750000
vt 0.125000 0.500000
vt 0.875000 0.500000
vt 0.625000 0.500000
vt 0.625000 0.000000
vt 0.375000 0.250000
vt 0.375000 0.000000
vt 0.625000 0.250000
vt 0.375000 0.500000
vt 0.625000 0.750000
vt 0.375000 0.750000
vt 0.375000 1.000000
vt 0.125000 0.750000
vt 0.125000 0.500000
vt 0.875000 0.500000
vt 0.625000 0.500000
vt 0.625000 1.000000
vt 0.875000 0.750000
vt 0.875000 0.750000
vt 0.875000 0.750000
vt 0.875000 0.750000
vt 0.875000 0.750000
vt 0.875000 0.750000
vt 0.625000 1.000000
vt 0.875000 0.750000
vt 0.625000 1.000000
vt 0.875000 0.750000
vt 0.625000 1.000000
vt 0.875000 0.750000
vt 0.625000 1.000000
vt 0.875000 0.750000
vt 0.625000 1.000000
vt 0.875000 0.750000
vt 0.625000 0.000000
vt 0.625000 1.000000
vt 0.875000 0.750000
vt 0.625000 1.000000
vt 0.875000 0.750000
vt 0.625000 1.000000
vt 0.875000 0.750000
vn -1.0000 0.0000 0.0000
vn 0.0000 0.0000 -1.0000
vn 1.0000 0.0000 0.0000
vn 0.0000 0.0000 1.0000
vn 0.0000 -1.0000 0.0000
vn 0.0000 1.0000 0.0000
vn -1.0000 0.0000 0.0015
vn 0.0000 1.0000 0.0015
vn 0.0000 -1.0000 0.0015
vn 1.0000 0.0000 0.0015
vn -0.0001 0.0000 1.0000
vn 0.0000 0.5604 -0.8282
vn 0.0000 -0.5604 0.8282
vn 0.0000 -0.8282 -0.5604
vn 0.0000 0.8282 0.5604
vn 0.0000 -0.8003 -0.5997
vn 0.0000 0.8003 0.5997
vn 0.0000 -0.6178 0.7863
vn 0.0000 0.6178 -0.7863
vn 0.0000 -0.0207 -0.9998
vn 0.0000 0.0056 1.0000
vn 0.0000 -0.5421 0.8403
vn 0.0000 0.9985 -0.0547
vn 0.0000 -0.3689 -0.9295
vn 0.0000 0.3689 0.9295
vn 0.0000 -0.9295 0.3689
vn 0.0000 0.9295 -0.3689
vn 0.0000 0.0139 -0.9999
vn 0.0000 -0.0139 0.9999
vn 0.0000 -0.9999 -0.0139
vn 0.0000 0.9999 0.0139
vn 0.0000 -0.6178 0.7864
usemtl None
s off
f 2/1/1 3/2/1 1/3/1
f 4/4/2 7/5/2 3/2/2
f 8/6/3 5/7/3 7/5/3
f 6/8/4 1/9/4 5/7/4
f 7/5/5 1/10/5 3/11/5
f 4/12/6 6/8/6 8/6/6
f 22/13/1 18/14/1 21/15/1
f 14/16/7 15/17/7 13/18/7
f 20/19/3 24/20/3 19/21/3
f 13/18/8 11/22/8 9/23/8
f 19/21/5 21/24/5 18/25/5
f 17/26/6 23/27/6 20/19/6
f 11/22/2 17/28/2 12/29/2
f 15/17/2 18/14/2 11/22/2
f 12/29/2 20/19/2 16/30/2
f 16/30/2 19/21/2 15/17/2
f 10/31/4 21/32/4 9/23/4
f 13/18/4 23/27/4 14/16/4
f 9/23/4 24/20/4 13/18/4
f 14/16/4 22/33/4 10/31/4
f 10/31/9 16/30/9 14/16/9
f 9/23/10 12/29/10 10/31/10
f 38/34/1 34/35/1 37/36/1
f 30/37/7 31/38/7 29/39/7
f 36/40/3 40/41/3 35/42/3
f 29/39/8 27/43/8 25/44/8
f 35/42/5 37/45/5 34/46/5
f 33/47/6 39/48/6 36/40/6
f 27/43/2 33/49/2 28/50/2
f 31/38/2 34/35/2 27/43/2
f 28/50/2 36/40/2 32/51/2
f 32/51/2 35/42/2 31/38/2
f 26/52/11 37/53/11 25/44/11
f 29/39/4 39/48/4 30/37/4
f 25/44/4 40/41/4 29/39/4
f 30/37/4 38/54/4 26/52/4
f 26/52/9 32/51/9 30/37/9
f 25/44/10 28/50/10 26/52/10
f 54/55/1 50/56/1 53/57/1
f 46/58/7 47/59/7 45/60/7
f 52/61/3 56/62/3 51/63/3
f 45/60/8 43/64/8 41/65/8
f 51/63/5 53/66/5 50/67/5
f 49/68/6 55/69/6 52/61/6
f 44/70/2 50/56/2 49/71/2
f 47/59/2 50/56/2 43/64/2
f 44/70/2 52/61/2 48/72/2
f 48/72/2 51/63/2 47/59/2
f 42/73/4 53/74/4 41/65/4
f 45/60/4 55/69/4 46/58/4
f 41/65/4 56/62/4 45/60/4
f 46/58/4 54/75/4 42/73/4
f 42/73/9 48/72/9 46/58/9
f 41/65/10 44/70/10 42/73/10
f 70/76/1 66/77/1 69/78/1
f 62/79/7 63/80/7 61/81/7
f 68/82/3 72/83/3 67/84/3
f 61/81/8 59/85/8 57/86/8
f 67/84/5 69/87/5 66/88/5
f 65/89/6 71/90/6 68/82/6
f 60/91/2 66/77/2 65/92/2
f 63/80/2 66/77/2 59/85/2
f 64/93/2 65/92/2 68/82/2
f 64/93/2 67/84/2 63/80/2
f 58/94/4 69/95/4 57/86/4
f 61/81/4 71/90/4 62/79/4
f 57/86/4 72/83/4 61/81/4
f 62/79/4 70/96/4 58/94/4
f 58/94/9 64/93/9 62/79/9
f 57/86/10 60/91/10 58/94/10
f 86/97/1 82/98/1 85/99/1
f 78/100/7 79/101/7 77/102/7
f 84/103/3 88/104/3 83/105/3
f 77/102/8 75/106/8 73/107/8
f 83/105/5 85/108/5 82/109/5
f 81/110/6 87/111/6 84/103/6
f 76/112/2 82/98/2 81/113/2
f 75/106/2 83/105/2 82/98/2
f 76/112/2 84/103/2 80/114/2
f 80/114/2 83/105/2 79/101/2
f 74/115/4 85/116/4 73/107/4
f 77/102/4 87/111/4 78/100/4
f 73/107/4 88/104/4 77/102/4
f 78/100/4 86/117/4 74/115/4
f 74/115/9 80/114/9 78/100/9
f 73/107/10 76/112/10 74/115/10
f 90/118/1 91/119/1 89/120/1
f 92/121/2 95/122/2 91/119/2
f 96/123/3 93/124/3 95/122/3
f 94/125/4 89/126/4 93/124/4
f 95/122/5 89/127/5 91/128/5
f 92/129/6 94/125/6 96/123/6
f 98/130/1 99/131/1 97/132/1
f 100/133/2 103/134/2 99/131/2
f 104/135/3 101/136/3 103/134/3
f 102/137/4 97/138/4 101/136/4
f 103/134/5 97/139/5 99/140/5
f 100/141/6 102/137/6 104/135/6
f 106/142/1 107/143/1 105/144/1
f 108/145/2 111/146/2 107/143/2
f 112/147/3 109/148/3 111/146/3
f 110/149/4 105/150/4 109/148/4
f 111/146/5 105/151/5 107/152/5
f 108/153/6 110/149/6 112/147/6
f 114/154/1 115/155/1 113/156/1
f 116/157/12 119/158/12 115/155/12
f 119/158/3 118/159/3 117/160/3
f 118/159/13 113/161/13 117/160/13
f 119/158/14 113/162/14 115/163/14
f 116/164/15 118/159/15 120/165/15
f 122/166/1 123/167/1 121/168/1
f 124/169/16 127/170/16 123/167/16
f 127/170/3 126/171/3 125/172/3
f 126/171/17 121/173/17 125/172/17
f 127/170/18 121/174/18 123/175/18
f 124/176/19 126/171/19 128/177/19
f 129/178/1 132/179/1 131/180/1
f 132/179/20 135/181/20 131/180/20
f 136/182/3 133/183/3 135/181/3
f 134/184/21 129/185/21 133/183/21
f 135/181/22 129/186/22 131/187/22
f 132/188/23 134/184/23 136/182/23
f 138/189/1 139/190/1 137/191/1
f 140/192/24 143/193/24 139/190/24
f 143/193/3 142/194/3 141/195/3
f 142/194/25 137/196/25 141/195/25
f 143/193/26 137/197/26 139/198/26
f 140/199/27 142/194/27 144/200/27
f 146/201/1 147/202/1 145/203/1
f 148/204/28 151/205/28 147/202/28
f 151/205/3 150/206/3 149/207/3
f 150/206/29 145/208/29 149/207/29
f 151/205/30 145/209/30 147/210/30
f 148/211/31 150/206/31 152/212/31
f 2/1/1 4/4/1 3/2/1
f 4/4/2 8/6/2 7/5/2
f 8/6/3 6/8/3 5/7/3
f 6/8/4 2/213/4 1/9/4
f 7/5/5 5/7/5 1/10/5
f 4/12/6 2/214/6 6/8/6
f 22/13/1 17/28/1 18/14/1
f 14/16/7 16/30/7 15/17/7
f 20/19/3 23/27/3 24/20/3
f 13/18/8 15/17/8 11/22/8
f 19/21/5 24/20/5 21/24/5
f 17/26/6 22/215/6 23/27/6
f 11/22/2 18/14/2 17/28/2
f 15/17/2 19/21/2 18/14/2
f 12/29/2 17/28/2 20/19/2
f 16/30/2 20/19/2 19/21/2
f 10/31/4 22/33/4 21/32/4
f 13/18/4 24/20/4 23/27/4
f 9/23/4 21/32/4 24/20/4
f 14/16/4 23/27/4 22/33/4
f 10/31/9 12/29/9 16/30/9
f 9/23/10 11/22/10 12/29/10
f 38/34/1 33/49/1 34/35/1
f 30/37/7 32/51/7 31/38/7
f 36/40/3 39/48/3 40/41/3
f 29/39/8 31/38/8 27/43/8
f 35/42/5 40/41/5 37/45/5
f 33/47/6 38/216/6 39/48/6
f 27/43/2 34/35/2 33/49/2
f 31/38/2 35/42/2 34/35/2
f 28/50/2 33/49/2 36/40/2
f 32/51/2 36/40/2 35/42/2
f 26/52/4 38/54/4 37/53/4
f 29/39/4 40/41/4 39/48/4
f 25/44/4 37/53/4 40/41/4
f 30/37/4 39/48/4 38/54/4
f 26/52/9 28/50/9 32/51/9
f 25/44/10 27/43/10 28/50/10
f 54/55/1 49/71/1 50/56/1
f 46/58/7 48/72/7 47/59/7
f 52/61/3 55/69/3 56/62/3
f 45/60/8 47/59/8 43/64/8
f 51/63/5 56/62/5 53/66/5
f 49/68/6 54/217/6 55/69/6
f 44/70/2 43/64/2 50/56/2
f 47/59/2 51/63/2 50/56/2
f 44/70/2 49/71/2 52/61/2
f 48/72/2 52/61/2 51/63/2
f 42/73/4 54/75/4 53/74/4
f 45/60/4 56/62/4 55/69/4
f 41/65/4 53/74/4 56/62/4
f 46/58/4 55/69/4 54/75/4
f 42/73/9 44/70/9 48/72/9
f 41/65/10 43/64/10 44/70/10
f 70/76/1 65/92/1 66/77/1
f 62/79/7 64/93/7 63/80/7
f 68/82/3 71/90/3 72/83/3
f 61/81/8 63/80/8 59/85/8
f 67/84/5 72/83/5 69/87/5
f 65/89/6 70/218/6 71/90/6
f 60/91/2 59/85/2 66/77/2
f 63/80/2 67/84/2 66/77/2
f 64/93/2 60/91/2 65/92/2
f 64/93/2 68/82/2 67/84/2
f 58/94/4 70/96/4 69/95/4
f 61/81/4 72/83/4 71/90/4
f 57/86/4 69/95/4 72/83/4
f 62/79/4 71/90/4 70/96/4
f 58/94/9 60/91/9 64/93/9
f 57/86/10 59/85/10 60/91/10
f 86/97/1 81/113/1 82/98/1
f 78/100/7 80/114/7 79/101/7
f 84/103/3 87/111/3 88/104/3
f 77/102/8 79/101/8 75/106/8
f 83/105/5 88/104/5 85/108/5
f 81/110/6 86/219/6 87/111/6
f 76/112/2 75/106/2 82/98/2
f 75/106/2 79/101/2 83/105/2
f 76/112/2 81/113/2 84/103/2
f 80/114/2 84/103/2 83/105/2
f 74/115/4 86/117/4 85/116/4
f 77/102/4 88/104/4 87/111/4
f 73/107/4 85/116/4 88/104/4
f 78/100/4 87/111/4 86/117/4
f 74/115/9 76/112/9 80/114/9
f 73/107/10 75/106/10 76/112/10
f 90/118/1 92/121/1 91/119/1
f 92/121/2 96/123/2 95/122/2
f 96/123/3 94/125/3 93/124/3
f 94/125/4 90/220/4 89/126/4
f 95/122/5 93/124/5 89/127/5
f 92/129/6 90/221/6 94/125/6
f 98/130/1 100/133/1 99/131/1
f 100/133/2 104/135/2 103/134/2
f 104/135/3 102/137/3 101/136/3
f 102/137/4 98/222/4 97/138/4
f 103/134/5 101/136/5 97/139/5
f 100/141/6 98/223/6 102/137/6
f 106/142/1 108/145/1 107/143/1
f 108/145/2 112/147/2 111/146/2
f 112/147/3 110/149/3 109/148/3
f 110/149/4 106/224/4 105/150/4
f 111/146/5 109/148/5 105/151/5
f 108/153/6 106/225/6 110/149/6
f 114/154/1 116/157/1 115/155/1
f 116/157/12 120/165/12 119/158/12
f 119/158/3 120/165/3 118/159/3
f 118/159/13 114/226/13 113/161/13
f 119/158/14 117/160/14 113/162/14
f 116/164/15 114/227/15 118/159/15
f 122/166/1 124/169/1 123/167/1
f 124/169/16 128/177/16 127/170/16
f 127/170/3 128/177/3 126/171/3
f 126/171/17 122/228/17 121/173/17
f 127/170/32 125/172/32 121/174/32
f 124/176/19 122/229/19 126/171/19
f 129/178/1 130/230/1 132/179/1
f 132/179/20 136/182/20 135/181/20
f 136/182/3 134/184/3 133/183/3
f 134/184/21 130/231/21 129/185/21
f 135/181/22 133/183/22 129/186/22
f 132/188/23 130/232/23 134/184/23
f 138/189/1 140/192/1 139/190/1
f 140/192/24 144/200/24 143/193/24
f 143/193/3 144/200/3 142/194/3
f 142/194/25 138/233/25 137/196/25
f 143/193/26 141/195/26 137/197/26
f 140/199/27 138/234/27 142/194/27
f 146/201/1 148/204/1 147/202/1
f 148/204/28 152/212/28 151/205/28
f 151/205/3 152/212/3 150/206/3
f 150/206/29 146/235/29 145/208/29
f 151/205/30 149/207/30 145/209/30
f 148/211/31 146/236/31 150/206/31
