# Blender v3.1.2 OBJ File: ''
# www.blender.org
mtllib Mobile.mtl
o Cube
v 1.000000 1.992323 -1.000000
v 1.000000 -0.007677 -1.000000
v 1.000000 1.992323 1.000000
v 1.000000 -0.007677 1.000000
v -1.000000 1.992323 -1.000000
v -1.000000 -0.007677 -1.000000
v -1.000000 1.992323 1.000000
v -1.000000 -0.007677 1.000000
v 1.000000 0.992323 -1.307148
v -1.000000 0.992323 1.220516
v 1.000000 0.992323 1.220516
v -1.000000 0.992323 -1.307148
v 1.000000 -0.007677 2.606618
v -1.000000 -0.007677 2.606618
v -1.000000 0.992323 2.039576
v 1.000000 0.992323 2.039576
v 1.000000 -0.007677 -1.669424
v -1.000000 -0.007677 -1.669424
v 1.000000 0.992323 -1.992323
v -1.000000 0.992323 -1.992323
v 1.061734 0.102382 1.013530
v 1.505704 0.102383 1.013530
v 1.061734 -0.029652 1.026534
v 1.505704 -0.029652 1.026534
v 1.061734 -0.156612 1.065047
v 1.505704 -0.156612 1.065047
v 1.061734 -0.273619 1.127588
v 1.505704 -0.273619 1.127588
v 1.061734 -0.376176 1.211755
v 1.505704 -0.376176 1.211755
v 1.061734 -0.460343 1.314313
v 1.505704 -0.460343 1.314313
v 1.061734 -0.522885 1.431320
v 1.505704 -0.522885 1.431320
v 1.061734 -0.561397 1.558280
v 1.505704 -0.561397 1.558280
v 1.061734 -0.574402 1.690314
v 1.505704 -0.574402 1.690314
v 1.061734 -0.561397 1.822348
v 1.505704 -0.561397 1.822348
v 1.061734 -0.522885 1.949308
v 1.505704 -0.522885 1.949308
v 1.061734 -0.460343 2.066315
v 1.505704 -0.460343 2.066315
v 1.061734 -0.376176 2.168872
v 1.505704 -0.376176 2.168872
v 1.061734 -0.273619 2.253039
v 1.505704 -0.273619 2.253039
v 1.061734 -0.156612 2.315581
v 1.505704 -0.156612 2.315581
v 1.061734 -0.029652 2.354094
v 1.505704 -0.029652 2.354094
v 1.061734 0.102383 2.367098
v 1.505704 0.102383 2.367098
v 1.061734 0.234416 2.354094
v 1.505704 0.234416 2.354094
v 1.061734 0.361377 2.315581
v 1.505704 0.361377 2.315581
v 1.061734 0.478384 2.253039
v 1.505704 0.478384 2.253039
v 1.061734 0.580941 2.168873
v 1.505704 0.580941 2.168873
v 1.061734 0.665108 2.066315
v 1.505704 0.665108 2.066315
v 1.061734 0.727650 1.949308
v 1.505704 0.727650 1.949308
v 1.061734 0.766162 1.822348
v 1.505704 0.766162 1.822348
v 1.061734 0.779167 1.690314
v 1.505704 0.779167 1.690314
v 1.061734 0.766162 1.558280
v 1.505704 0.766162 1.558280
v 1.061734 0.727649 1.431320
v 1.505704 0.727649 1.431320
v 1.061734 0.665108 1.314313
v 1.505704 0.665108 1.314313
v 1.061734 0.580941 1.211755
v 1.505704 0.580941 1.211755
v 1.061734 0.478384 1.127588
v 1.505704 0.478384 1.127588
v 1.061734 0.361377 1.065047
v 1.505704 0.361377 1.065047
v 1.061734 0.234416 1.026534
v 1.505704 0.234416 1.026534
v -1.061734 0.102382 1.013530
v -1.505704 0.102382 1.013530
v -1.061734 -0.029652 1.026534
v -1.505704 -0.029652 1.026534
v -1.061734 -0.156612 1.065047
v -1.505704 -0.156612 1.065047
v -1.061734 -0.273619 1.127588
v -1.505705 -0.273619 1.127588
v -1.061734 -0.376176 1.211755
v -1.505705 -0.376176 1.211755
v -1.061734 -0.460343 1.314313
v -1.505705 -0.460343 1.314313
v -1.061734 -0.522885 1.431320
v -1.505705 -0.522884 1.431320
v -1.061734 -0.561397 1.558280
v -1.505705 -0.561397 1.558280
v -1.061734 -0.574402 1.690314
v -1.505705 -0.574402 1.690314
v -1.061734 -0.561397 1.822348
v -1.505705 -0.561397 1.822348
v -1.061734 -0.522885 1.949308
v -1.505705 -0.522884 1.949308
v -1.061734 -0.460343 2.066315
v -1.505705 -0.460343 2.066315
v -1.061734 -0.376176 2.168872
v -1.505705 -0.376176 2.168872
v -1.061734 -0.273619 2.253039
v -1.505705 -0.273619 2.253039
v -1.061734 -0.156612 2.315581
v -1.505704 -0.156612 2.315581
v -1.061734 -0.029652 2.354094
v -1.505704 -0.029652 2.354094
v -1.061734 0.102383 2.367098
v -1.505704 0.102383 2.367098
v -1.061734 0.234416 2.354094
v -1.505704 0.234416 2.354094
v -1.061734 0.361377 2.315581
v -1.505704 0.361377 2.315581
v -1.061734 0.478384 2.253039
v -1.505704 0.478384 2.253039
v -1.061734 0.580941 2.168873
v -1.505704 0.580941 2.168873
v -1.061734 0.665108 2.066315
v -1.505704 0.665108 2.066315
v -1.061734 0.727649 1.949308
v -1.505704 0.727650 1.949308
v -1.061734 0.766162 1.822348
v -1.505704 0.766162 1.822348
v -1.061734 0.779167 1.690314
v -1.505704 0.779167 1.690314
v -1.061734 0.766162 1.558280
v -1.505704 0.766162 1.558280
v -1.061734 0.727649 1.431320
v -1.505704 0.727649 1.431320
v -1.061734 0.665108 1.314313
v -1.505704 0.665108 1.314313
v -1.061734 0.580941 1.211755
v -1.505704 0.580941 1.211755
v -1.061734 0.478384 1.127588
v -1.505704 0.478384 1.127588
v -1.061734 0.361377 1.065047
v -1.505704 0.361377 1.065047
v -1.061734 0.234416 1.026534
v -1.505704 0.234416 1.026534
v 1.061734 0.102382 -0.346627
v 1.505704 0.102382 -0.346627
v 1.061734 -0.029652 -0.359631
v 1.505704 -0.029652 -0.359631
v 1.061734 -0.156612 -0.398144
v 1.505704 -0.156612 -0.398144
v 1.061734 -0.273619 -0.460685
v 1.505704 -0.273619 -0.460685
v 1.061734 -0.376176 -0.544852
v 1.505704 -0.376176 -0.544852
v 1.061734 -0.460343 -0.647410
v 1.505704 -0.460343 -0.647410
v 1.061734 -0.522885 -0.764417
v 1.505704 -0.522885 -0.764417
v 1.061734 -0.561397 -0.891377
v 1.505704 -0.561397 -0.891377
v 1.061734 -0.574402 -1.023411
v 1.505704 -0.574402 -1.023411
v 1.061734 -0.561397 -1.155445
v 1.505704 -0.561397 -1.155445
v 1.061734 -0.522885 -1.282405
v 1.505704 -0.522885 -1.282405
v 1.061734 -0.460343 -1.399412
v 1.505704 -0.460343 -1.399412
v 1.061734 -0.376176 -1.501970
v 1.505704 -0.376176 -1.501970
v 1.061734 -0.273619 -1.586137
v 1.505704 -0.273619 -1.586137
v 1.061734 -0.156612 -1.648678
v 1.505704 -0.156612 -1.648678
v 1.061734 -0.029652 -1.687191
v 1.505704 -0.029652 -1.687191
v 1.061734 0.102383 -1.700195
v 1.505704 0.102383 -1.700195
v 1.061734 0.234416 -1.687191
v 1.505704 0.234416 -1.687191
v 1.061734 0.361376 -1.648678
v 1.505704 0.361377 -1.648678
v 1.061734 0.478384 -1.586136
v 1.505704 0.478384 -1.586136
v 1.061734 0.580941 -1.501970
v 1.505704 0.580941 -1.501970
v 1.061734 0.665108 -1.399412
v 1.505704 0.665108 -1.399412
v 1.061734 0.727650 -1.282405
v 1.505704 0.727650 -1.282405
v 1.061734 0.766162 -1.155445
v 1.505704 0.766162 -1.155445
v 1.061734 0.779167 -1.023411
v 1.505704 0.779167 -1.023411
v 1.061734 0.766162 -0.891377
v 1.505704 0.766162 -0.891377
v 1.061734 0.727649 -0.764417
v 1.505704 0.727649 -0.764417
v 1.061734 0.665108 -0.647410
v 1.505704 0.665108 -0.647410
v 1.061734 0.580941 -0.544852
v 1.505704 0.580941 -0.544852
v 1.061734 0.478384 -0.460685
v 1.505704 0.478384 -0.460685
v 1.061734 0.361376 -0.398144
v 1.505704 0.361377 -0.398144
v 1.061734 0.234416 -0.359631
v 1.505704 0.234416 -0.359631
v -1.061734 0.102382 -0.346627
v -1.505704 0.102382 -0.346627
v -1.061734 -0.029652 -0.359631
v -1.505704 -0.029652 -0.359631
v -1.061734 -0.156612 -0.398144
v -1.505704 -0.156612 -0.398144
v -1.061734 -0.273619 -0.460685
v -1.505705 -0.273619 -0.460685
v -1.061734 -0.376176 -0.544852
v -1.505705 -0.376176 -0.544852
v -1.061734 -0.460343 -0.647410
v -1.505705 -0.460343 -0.647410
v -1.061734 -0.522885 -0.764417
v -1.505705 -0.522884 -0.764417
v -1.061734 -0.561397 -0.891377
v -1.505705 -0.561397 -0.891377
v -1.061734 -0.574402 -1.023411
v -1.505705 -0.574402 -1.023411
v -1.061734 -0.561397 -1.155445
v -1.505705 -0.561397 -1.155445
v -1.061734 -0.522885 -1.282405
v -1.505705 -0.522884 -1.282405
v -1.061734 -0.460343 -1.399412
v -1.505705 -0.460343 -1.399412
v -1.061734 -0.376176 -1.501970
v -1.505705 -0.376176 -1.501970
v -1.061734 -0.273619 -1.586137
v -1.505705 -0.273619 -1.586137
v -1.061734 -0.156612 -1.648678
v -1.505704 -0.156612 -1.648678
v -1.061734 -0.029652 -1.687191
v -1.505704 -0.029652 -1.687191
v -1.061734 0.102383 -1.700195
v -1.505704 0.102383 -1.700195
v -1.061734 0.234416 -1.687191
v -1.505704 0.234416 -1.687191
v -1.061734 0.361377 -1.648678
v -1.505704 0.361377 -1.648678
v -1.061734 0.478384 -1.586136
v -1.505704 0.478384 -1.586136
v -1.061734 0.580941 -1.501970
v -1.505704 0.580941 -1.501970
v -1.061734 0.665108 -1.399412
v -1.505704 0.665108 -1.399412
v -1.061734 0.727649 -1.282405
v -1.505704 0.727650 -1.282405
v -1.061734 0.766162 -1.155445
v -1.505704 0.766162 -1.155445
v -1.061734 0.779167 -1.023411
v -1.505704 0.779167 -1.023411
v -1.061734 0.766162 -0.891377
v -1.505704 0.766162 -0.891377
v -1.061734 0.727649 -0.764417
v -1.505704 0.727649 -0.764417
v -1.061734 0.665108 -0.647410
v -1.505704 0.665108 -0.647410
v -1.061734 0.580941 -0.544852
v -1.505704 0.580941 -0.544852
v -1.061734 0.478384 -0.460685
v -1.505704 0.478384 -0.460685
v -1.061734 0.361377 -0.398144
v -1.505704 0.361377 -0.398144
v -1.061734 0.234416 -0.359631
v -1.505704 0.234416 -0.359631
vt 0.875000 0.500000
vt 0.625000 0.750000
vt 0.625000 0.500000
vt 0.500000 1.000000
vt 0.500000 0.750000
vt 0.500000 0.000000
vt 0.625000 0.250000
vt 0.500000 0.250000
vt 0.375000 0.500000
vt 0.125000 0.750000
vt 0.125000 0.500000
vt 0.500000 0.500000
vt 0.375000 0.250000
vt 0.375000 0.250000
vt 0.375000 0.750000
vt 0.375000 0.000000
vt 0.125000 0.750000
vt 0.500000 0.750000
vt 0.375000 1.000000
vt 0.375000 0.750000
vt 0.500000 0.000000
vt 0.500000 0.250000
vt 0.375000 0.500000
vt 0.500000 0.500000
vt 1.000000 0.500000
vt 0.968750 1.000000
vt 0.968750 0.500000
vt 0.937500 1.000000
vt 0.937500 0.500000
vt 0.906250 1.000000
vt 0.906250 0.500000
vt 0.875000 1.000000
vt 0.875000 0.500000
vt 0.843750 1.000000
vt 0.843750 0.500000
vt 0.812500 0.500000
vt 0.812500 1.000000
vt 0.781250 0.500000
vt 0.781250 1.000000
vt 0.750000 0.500000
vt 0.750000 1.000000
vt 0.718750 0.500000
vt 0.718750 1.000000
vt 0.687500 0.500000
vt 0.687500 1.000000
vt 0.656250 0.500000
vt 0.656250 1.000000
vt 0.625000 0.500000
vt 0.625000 1.000000
vt 0.593750 0.500000
vt 0.593750 1.000000
vt 0.562500 0.500000
vt 0.562500 1.000000
vt 0.531250 0.500000
vt 0.531250 1.000000
vt 0.500000 0.500000
vt 0.500000 1.000000
vt 0.468750 0.500000
vt 0.468750 1.000000
vt 0.437500 0.500000
vt 0.437500 1.000000
vt 0.406250 0.500000
vt 0.406250 1.000000
vt 0.375000 0.500000
vt 0.375000 1.000000
vt 0.343750 0.500000
vt 0.343750 1.000000
vt 0.312500 0.500000
vt 0.312500 1.000000
vt 0.281250 0.500000
vt 0.281250 1.000000
vt 0.250000 0.500000
vt 0.250000 1.000000
vt 0.218750 0.500000
vt 0.218750 1.000000
vt 0.187500 0.500000
vt 0.187500 1.000000
vt 0.156250 0.500000
vt 0.125000 1.000000
vt 0.125000 0.500000
vt 0.093750 1.000000
vt 0.093750 0.500000
vt 0.062500 1.000000
vt 0.062500 0.500000
vt 0.158156 0.028269
vt 0.471731 0.158156
vt 0.341844 0.471731
vt 0.031250 1.000000
vt 0.031250 0.500000
vt 0.000000 1.000000
vt 0.000000 0.500000
vt 0.796822 0.014612
vt 0.514612 0.203178
vt 0.703178 0.485388
vt 1.000000 0.500000
vt 0.968750 1.000000
vt 1.000000 1.000000
vt 0.968750 0.500000
vt 0.937500 1.000000
vt 0.906250 0.500000
vt 0.937500 0.500000
vt 0.875000 1.000000
vt 0.906250 1.000000
vt 0.875000 0.500000
vt 0.843750 1.000000
vt 0.843750 0.500000
vt 0.812500 1.000000
vt 0.812500 0.500000
vt 0.781250 1.000000
vt 0.750000 0.500000
vt 0.781250 0.500000
vt 0.718750 0.500000
vt 0.750000 1.000000
vt 0.687500 0.500000
vt 0.718750 1.000000
vt 0.656250 0.500000
vt 0.687500 1.000000
vt 0.625000 0.500000
vt 0.656250 1.000000
vt 0.593750 0.500000
vt 0.625000 1.000000
vt 0.562500 1.000000
vt 0.593750 1.000000
vt 0.531250 0.500000
vt 0.562500 0.500000
vt 0.500000 0.500000
vt 0.531250 1.000000
vt 0.468750 0.500000
vt 0.500000 1.000000
vt 0.437500 0.500000
vt 0.468750 1.000000
vt 0.406250 1.000000
vt 0.437500 1.000000
vt 0.375000 0.500000
vt 0.406250 0.500000
vt 0.343750 0.500000
vt 0.375000 1.000000
vt 0.312500 0.500000
vt 0.343750 1.000000
vt 0.281250 0.500000
vt 0.312500 1.000000
vt 0.250000 0.500000
vt 0.281250 1.000000
vt 0.218750 0.500000
vt 0.250000 1.000000
vt 0.187500 0.500000
vt 0.218750 1.000000
vt 0.156250 1.000000
vt 0.187500 1.000000
vt 0.156250 0.500000
vt 0.125000 1.000000
vt 0.125000 0.500000
vt 0.093750 1.000000
vt 0.062500 0.500000
vt 0.093750 0.500000
vt 0.250000 0.010000
vt 0.010000 0.250000
vt 0.250000 0.490000
vt 0.031250 1.000000
vt 0.062500 1.000000
vt 0.031250 0.500000
vt 0.000000 1.000000
vt 0.514612 0.296822
vt 0.703178 0.014612
vt 0.985388 0.203178
vt 1.000000 0.500000
vt 0.968750 1.000000
vt 1.000000 1.000000
vt 0.968750 0.500000
vt 0.937500 1.000000
vt 0.937500 0.500000
vt 0.906250 1.000000
vt 0.906250 0.500000
vt 0.875000 1.000000
vt 0.843750 0.500000
vt 0.875000 0.500000
vt 0.812500 0.500000
vt 0.843750 1.000000
vt 0.781250 0.500000
vt 0.812500 1.000000
vt 0.750000 0.500000
vt 0.781250 1.000000
vt 0.718750 0.500000
vt 0.750000 1.000000
vt 0.687500 0.500000
vt 0.718750 1.000000
vt 0.656250 0.500000
vt 0.687500 1.000000
vt 0.625000 0.500000
vt 0.656250 1.000000
vt 0.593750 0.500000
vt 0.625000 1.000000
vt 0.562500 0.500000
vt 0.593750 1.000000
vt 0.531250 0.500000
vt 0.562500 1.000000
vt 0.500000 0.500000
vt 0.531250 1.000000
vt 0.468750 0.500000
vt 0.500000 1.000000
vt 0.437500 0.500000
vt 0.468750 1.000000
vt 0.406250 0.500000
vt 0.437500 1.000000
vt 0.375000 0.500000
vt 0.406250 1.000000
vt 0.343750 0.500000
vt 0.375000 1.000000
vt 0.312500 0.500000
vt 0.343750 1.000000
vt 0.281250 0.500000
vt 0.312500 1.000000
vt 0.250000 0.500000
vt 0.281250 1.000000
vt 0.218750 0.500000
vt 0.250000 1.000000
vt 0.187500 0.500000
vt 0.218750 1.000000
vt 0.156250 0.500000
vt 0.187500 1.000000
vt 0.125000 1.000000
vt 0.156250 1.000000
vt 0.125000 0.500000
vt 0.093750 1.000000
vt 0.093750 0.500000
vt 0.062500 1.000000
vt 0.250000 0.010000
vt 0.010000 0.250000
vt 0.250000 0.490000
vt 0.062500 0.500000
vt 0.031250 1.000000
vt 0.031250 0.500000
vt 0.000000 1.000000
vt 0.796822 0.485388
vt 0.514612 0.296822
vt 0.703178 0.014612
vt 1.000000 0.500000
vt 0.968750 1.000000
vt 0.968750 0.500000
vt 0.937500 1.000000
vt 0.937500 0.500000
vt 0.906250 0.500000
vt 0.875000 1.000000
vt 0.875000 0.500000
vt 0.843750 1.000000
vt 0.843750 0.500000
vt 0.812500 1.000000
vt 0.812500 0.500000
vt 0.781250 1.000000
vt 0.781250 0.500000
vt 0.750000 0.500000
vt 0.750000 1.000000
vt 0.718750 0.500000
vt 0.718750 1.000000
vt 0.687500 0.500000
vt 0.687500 1.000000
vt 0.656250 0.500000
vt 0.656250 1.000000
vt 0.625000 0.500000
vt 0.625000 1.000000
vt 0.593750 0.500000
vt 0.562500 1.000000
vt 0.562500 0.500000
vt 0.531250 0.500000
vt 0.531250 1.000000
vt 0.500000 0.500000
vt 0.500000 1.000000
vt 0.468750 0.500000
vt 0.468750 1.000000
vt 0.437500 0.500000
vt 0.406250 1.000000
vt 0.406250 0.500000
vt 0.375000 0.500000
vt 0.375000 1.000000
vt 0.343750 0.500000
vt 0.343750 1.000000
vt 0.312500 0.500000
vt 0.312500 1.000000
vt 0.281250 0.500000
vt 0.281250 1.000000
vt 0.250000 0.500000
vt 0.250000 1.000000
vt 0.218750 0.500000
vt 0.218750 1.000000
vt 0.187500 0.500000
vt 0.156250 1.000000
vt 0.156250 0.500000
vt 0.125000 1.000000
vt 0.125000 0.500000
vt 0.093750 1.000000
vt 0.093750 0.500000
vt 0.062500 0.500000
vt 0.158156 0.028269
vt 0.471731 0.158156
vt 0.341844 0.471731
vt 0.031250 1.000000
vt 0.031250 0.500000
vt 0.000000 1.000000
vt 0.000000 0.500000
vt 0.985388 0.296822
vt 0.796822 0.014612
vt 0.514612 0.203178
vt 0.875000 0.750000
vt 0.625000 1.000000
vt 0.625000 0.000000
vt 0.500000 1.000000
vt 0.375000 0.000000
vt 0.125000 0.500000
vt 1.000000 1.000000
vt 0.156250 1.000000
vt 0.296822 0.485388
vt 0.250000 0.490000
vt 0.203178 0.485388
vt 0.158156 0.471731
vt 0.116663 0.449553
vt 0.080294 0.419706
vt 0.050447 0.383337
vt 0.028269 0.341844
vt 0.014612 0.296822
vt 0.010000 0.250000
vt 0.014612 0.203178
vt 0.028269 0.158156
vt 0.050447 0.116663
vt 0.080294 0.080294
vt 0.116663 0.050447
vt 0.203178 0.014612
vt 0.250000 0.010000
vt 0.296822 0.014612
vt 0.341844 0.028269
vt 0.383337 0.050447
vt 0.419706 0.080294
vt 0.449553 0.116663
vt 0.485388 0.203178
vt 0.490000 0.250000
vt 0.485388 0.296822
vt 0.471731 0.341844
vt 0.449553 0.383337
vt 0.419706 0.419706
vt 0.383337 0.449553
vt 0.750000 0.490000
vt 0.796822 0.485388
vt 0.841844 0.471731
vt 0.883337 0.449553
vt 0.919706 0.419706
vt 0.985388 0.296822
vt 0.949553 0.383337
vt 0.971731 0.341844
vt 0.990000 0.250000
vt 0.985388 0.203178
vt 0.971731 0.158156
vt 0.949553 0.116663
vt 0.919706 0.080294
vt 0.883337 0.050447
vt 0.841844 0.028269
vt 0.750000 0.010000
vt 0.616663 0.050447
vt 0.703178 0.014612
vt 0.658156 0.028269
vt 0.580294 0.080294
vt 0.550447 0.116663
vt 0.528269 0.158156
vt 0.510000 0.250000
vt 0.514612 0.296822
vt 0.528269 0.341844
vt 0.550447 0.383337
vt 0.580294 0.419706
vt 0.616663 0.449553
vt 0.658156 0.471731
vt 0.296822 0.485388
vt 0.341844 0.471731
vt 0.383337 0.449553
vt 0.419706 0.419706
vt 0.449553 0.383337
vt 0.471731 0.341844
vt 0.485388 0.296822
vt 0.490000 0.250000
vt 0.485388 0.203178
vt 0.471731 0.158156
vt 0.449553 0.116663
vt 0.419706 0.080294
vt 0.383337 0.050447
vt 0.341844 0.028269
vt 0.296822 0.014612
vt 0.203178 0.014612
vt 0.158156 0.028269
vt 0.116663 0.050447
vt 0.080294 0.080294
vt 0.050447 0.116663
vt 0.028269 0.158156
vt 0.014612 0.203178
vt 0.014612 0.296822
vt 0.028269 0.341844
vt 0.050447 0.383337
vt 0.080294 0.419706
vt 0.116663 0.449553
vt 0.158156 0.471731
vt 0.203178 0.485388
vt 0.000000 0.500000
vt 0.796822 0.485388
vt 0.750000 0.490000
vt 0.703178 0.485388
vt 0.658156 0.471731
vt 0.616663 0.449553
vt 0.580294 0.419706
vt 0.550447 0.383337
vt 0.528269 0.341844
vt 0.510000 0.250000
vt 0.514612 0.203178
vt 0.528269 0.158156
vt 0.550447 0.116663
vt 0.580294 0.080294
vt 0.616663 0.050447
vt 0.658156 0.028269
vt 0.750000 0.010000
vt 0.883337 0.050447
vt 0.796822 0.014612
vt 0.841844 0.028269
vt 0.919706 0.080294
vt 0.949553 0.116663
vt 0.971731 0.158156
vt 0.990000 0.250000
vt 0.985388 0.296822
vt 0.971731 0.341844
vt 0.949553 0.383337
vt 0.919706 0.419706
vt 0.883337 0.449553
vt 0.841844 0.471731
vt 0.296822 0.485388
vt 0.341844 0.471731
vt 0.383337 0.449553
vt 0.419706 0.419706
vt 0.449553 0.383337
vt 0.471731 0.341844
vt 0.485388 0.296822
vt 0.490000 0.250000
vt 0.485388 0.203178
vt 0.419706 0.080294
vt 0.471731 0.158156
vt 0.449553 0.116663
vt 0.383337 0.050447
vt 0.341844 0.028269
vt 0.296822 0.014612
vt 0.203178 0.014612
vt 0.158156 0.028269
vt 0.116663 0.050447
vt 0.080294 0.080294
vt 0.050447 0.116663
vt 0.028269 0.158156
vt 0.014612 0.203178
vt 0.014612 0.296822
vt 0.028269 0.341844
vt 0.050447 0.383337
vt 0.080294 0.419706
vt 0.116663 0.449553
vt 0.158156 0.471731
vt 0.203178 0.485388
vt 0.000000 0.500000
vt 0.750000 0.490000
vt 0.616663 0.449553
vt 0.703178 0.485388
vt 0.658156 0.471731
vt 0.580294 0.419706
vt 0.550447 0.383337
vt 0.528269 0.341844
vt 0.510000 0.250000
vt 0.514612 0.203178
vt 0.528269 0.158156
vt 0.550447 0.116663
vt 0.580294 0.080294
vt 0.616663 0.050447
vt 0.658156 0.028269
vt 0.750000 0.010000
vt 0.796822 0.014612
vt 0.841844 0.028269
vt 0.883337 0.050447
vt 0.919706 0.080294
vt 0.949553 0.116663
vt 0.971731 0.158156
vt 0.985388 0.203178
vt 0.990000 0.250000
vt 0.985388 0.296822
vt 0.971731 0.341844
vt 0.949553 0.383337
vt 0.919706 0.419706
vt 0.883337 0.449553
vt 0.841844 0.471731
vt 1.000000 1.000000
vt 0.906250 1.000000
vt 0.593750 1.000000
vt 0.437500 1.000000
vt 0.187500 1.000000
vt 0.062500 1.000000
vt 0.296822 0.485388
vt 0.250000 0.490000
vt 0.203178 0.485388
vt 0.158156 0.471731
vt 0.116663 0.449553
vt 0.080294 0.419706
vt 0.050447 0.383337
vt 0.028269 0.341844
vt 0.014612 0.296822
vt 0.010000 0.250000
vt 0.014612 0.203178
vt 0.028269 0.158156
vt 0.050447 0.116663
vt 0.080294 0.080294
vt 0.116663 0.050447
vt 0.203178 0.014612
vt 0.341844 0.028269
vt 0.250000 0.010000
vt 0.296822 0.014612
vt 0.383337 0.050447
vt 0.419706 0.080294
vt 0.449553 0.116663
vt 0.485388 0.203178
vt 0.490000 0.250000
vt 0.485388 0.296822
vt 0.471731 0.341844
vt 0.449553 0.383337
vt 0.419706 0.419706
vt 0.383337 0.449553
vt 0.703178 0.485388
vt 0.750000 0.490000
vt 0.883337 0.449553
vt 0.796822 0.485388
vt 0.841844 0.471731
vt 0.919706 0.419706
vt 0.949553 0.383337
vt 0.971731 0.341844
vt 0.990000 0.250000
vt 0.985388 0.203178
vt 0.971731 0.158156
vt 0.949553 0.116663
vt 0.919706 0.080294
vt 0.883337 0.050447
vt 0.841844 0.028269
vt 0.750000 0.010000
vt 0.703178 0.014612
vt 0.658156 0.028269
vt 0.616663 0.050447
vt 0.580294 0.080294
vt 0.550447 0.116663
vt 0.528269 0.158156
vt 0.510000 0.250000
vt 0.514612 0.296822
vt 0.528269 0.341844
vt 0.550447 0.383337
vt 0.580294 0.419706
vt 0.616663 0.449553
vt 0.658156 0.471731
vn 0.0000 1.0000 0.0000
vn 0.0000 0.2153 0.9765
vn -1.0000 0.0000 0.0000
vn 0.0000 -1.0000 0.0000
vn 1.0000 0.0000 0.0000
vn 0.0000 0.2936 -0.9559
vn 0.0000 0.4933 0.8699
vn 0.0000 -0.3073 -0.9516
vn 0.0000 -0.0980 -0.9952
vn 0.0000 -0.2903 -0.9569
vn 0.0000 -0.4714 -0.8819
vn -0.0000 -0.6344 -0.7730
vn 0.0000 -0.7730 -0.6344
vn 0.0000 -0.8819 -0.4714
vn 0.0000 -0.9569 -0.2903
vn 0.0000 -0.9952 -0.0980
vn 0.0000 -0.9952 0.0980
vn 0.0000 -0.9569 0.2903
vn 0.0000 -0.8819 0.4714
vn 0.0000 -0.7730 0.6344
vn 0.0000 -0.6344 0.7730
vn -0.0000 -0.4714 0.8819
vn 0.0000 -0.2903 0.9569
vn 0.0000 -0.0980 0.9952
vn 0.0000 0.0980 0.9952
vn 0.0000 0.2903 0.9569
vn 0.0000 0.4714 0.8819
vn 0.0000 0.6344 0.7730
vn 0.0000 0.7730 0.6344
vn 0.0000 0.8819 0.4714
vn 0.0000 0.9569 0.2903
vn 0.0000 0.9952 0.0980
vn 0.0000 0.9952 -0.0980
vn 0.0000 0.9569 -0.2903
vn 0.0000 0.8819 -0.4714
vn -0.0000 0.7730 -0.6344
vn 0.0000 0.6344 -0.7730
vn -0.0000 0.4714 -0.8819
vn 0.0000 0.2903 -0.9569
vn 0.0000 0.0980 -0.9952
usemtl Material
s off
f 5/1/1 3/2/1 1/3/1
f 3/2/2 10/4/2 11/5/2
f 10/6/3 5/7/3 12/8/3
f 2/9/4 8/10/4 6/11/4
f 1/3/5 11/5/5 9/12/5
f 5/7/6 9/12/6 12/8/6
f 12/8/3 18/13/3 6/14/3
f 2/9/5 11/5/5 4/15/5
f 10/6/3 6/14/3 8/16/3
f 4/15/4 14/17/4 8/10/4
f 16/18/7 14/19/7 13/20/7
f 10/4/1 16/18/1 11/5/1
f 4/15/5 16/18/5 13/20/5
f 8/16/3 15/21/3 10/6/3
f 20/22/8 17/23/8 18/13/8
f 9/12/1 20/22/1 12/8/1
f 6/11/4 17/23/4 2/9/4
f 9/12/5 17/23/5 19/24/5
f 21/25/9 24/26/9 23/27/9
f 23/27/10 26/28/10 25/29/10
f 25/29/11 28/30/11 27/31/11
f 27/31/12 30/32/12 29/33/12
f 29/33/13 32/34/13 31/35/13
f 32/34/14 33/36/14 31/35/14
f 34/37/15 35/38/15 33/36/15
f 36/39/16 37/40/16 35/38/16
f 38/41/17 39/42/17 37/40/17
f 40/43/18 41/44/18 39/42/18
f 42/45/19 43/46/19 41/44/19
f 44/47/20 45/48/20 43/46/20
f 46/49/21 47/50/21 45/48/21
f 48/51/22 49/52/22 47/50/22
f 50/53/23 51/54/23 49/52/23
f 52/55/24 53/56/24 51/54/24
f 54/57/25 55/58/25 53/56/25
f 56/59/26 57/60/26 55/58/26
f 58/61/27 59/62/27 57/60/27
f 60/63/28 61/64/28 59/62/28
f 62/65/29 63/66/29 61/64/29
f 64/67/30 65/68/30 63/66/30
f 66/69/31 67/70/31 65/68/31
f 68/71/32 69/72/32 67/70/32
f 70/73/33 71/74/33 69/72/33
f 72/75/34 73/76/34 71/74/34
f 74/77/35 75/78/35 73/76/35
f 75/78/36 78/79/36 77/80/36
f 77/80/37 80/81/37 79/82/37
f 79/82/38 82/83/38 81/84/38
f 58/85/5 42/86/5 26/87/5
f 81/84/39 84/88/39 83/89/39
f 83/89/40 22/90/40 21/91/40
f 51/92/3 67/93/3 83/94/3
f 85/95/9 88/96/9 86/97/9
f 87/98/10 90/99/10 88/96/10
f 91/100/11 90/99/11 89/101/11
f 91/100/12 94/102/12 92/103/12
f 93/104/13 96/105/13 94/102/13
f 95/106/14 98/107/14 96/105/14
f 97/108/15 100/109/15 98/107/15
f 101/110/16 100/109/16 99/111/16
f 103/112/17 102/113/17 101/110/17
f 105/114/18 104/115/18 103/112/18
f 107/116/19 106/117/19 105/114/19
f 109/118/20 108/119/20 107/116/20
f 111/120/21 110/121/21 109/118/21
f 111/120/22 114/122/22 112/123/22
f 115/124/23 114/122/23 113/125/23
f 117/126/24 116/127/24 115/124/24
f 119/128/25 118/129/25 117/126/25
f 121/130/26 120/131/26 119/128/26
f 121/130/27 124/132/27 122/133/27
f 125/134/28 124/132/28 123/135/28
f 127/136/29 126/137/29 125/134/29
f 129/138/30 128/139/30 127/136/30
f 131/140/31 130/141/31 129/138/31
f 133/142/32 132/143/32 131/140/32
f 135/144/33 134/145/33 133/142/33
f 137/146/34 136/147/34 135/144/34
f 137/146/35 140/148/35 138/149/35
f 139/150/36 142/151/36 140/148/36
f 141/152/37 144/153/37 142/151/37
f 145/154/38 144/153/38 143/155/38
f 118/156/3 134/157/3 86/158/3
f 145/154/39 148/159/39 146/160/39
f 147/161/40 86/162/40 148/159/40
f 135/163/5 119/164/5 103/165/5
f 149/166/24 152/167/24 150/168/24
f 151/169/23 154/170/23 152/167/23
f 153/171/22 156/172/22 154/170/22
f 155/173/21 158/174/21 156/172/21
f 159/175/20 158/174/20 157/176/20
f 161/177/19 160/178/19 159/175/19
f 163/179/18 162/180/18 161/177/18
f 165/181/17 164/182/17 163/179/17
f 167/183/16 166/184/16 165/181/16
f 169/185/15 168/186/15 167/183/15
f 171/187/14 170/188/14 169/185/14
f 173/189/13 172/190/13 171/187/13
f 175/191/12 174/192/12 173/189/12
f 177/193/11 176/194/11 175/191/11
f 179/195/10 178/196/10 177/193/10
f 181/197/9 180/198/9 179/195/9
f 183/199/40 182/200/40 181/197/40
f 185/201/39 184/202/39 183/199/39
f 187/203/38 186/204/38 185/201/38
f 189/205/37 188/206/37 187/203/37
f 191/207/36 190/208/36 189/205/36
f 193/209/35 192/210/35 191/207/35
f 195/211/34 194/212/34 193/209/34
f 197/213/33 196/214/33 195/211/33
f 199/215/32 198/216/32 197/213/32
f 201/217/31 200/218/31 199/215/31
f 203/219/30 202/220/30 201/217/30
f 203/219/29 206/221/29 204/222/29
f 205/223/28 208/224/28 206/221/28
f 207/225/27 210/226/27 208/224/27
f 182/227/5 198/228/5 150/229/5
f 209/230/26 212/231/26 210/226/26
f 211/232/25 150/233/25 212/231/25
f 151/234/3 199/235/3 183/236/3
f 213/237/24 216/238/24 215/239/24
f 215/239/23 218/240/23 217/241/23
f 218/240/22 219/242/22 217/241/22
f 219/242/21 222/243/21 221/244/21
f 221/244/20 224/245/20 223/246/20
f 223/246/19 226/247/19 225/248/19
f 225/248/18 228/249/18 227/250/18
f 228/249/17 229/251/17 227/250/17
f 230/252/16 231/253/16 229/251/16
f 232/254/15 233/255/15 231/253/15
f 234/256/14 235/257/14 233/255/14
f 236/258/13 237/259/13 235/257/13
f 238/260/12 239/261/12 237/259/12
f 239/261/11 242/262/11 241/263/11
f 242/262/10 243/264/10 241/263/10
f 244/265/9 245/266/9 243/264/9
f 246/267/40 247/268/40 245/266/40
f 248/269/39 249/270/39 247/268/39
f 249/270/38 252/271/38 251/272/38
f 252/271/37 253/273/37 251/272/37
f 254/274/36 255/275/36 253/273/36
f 256/276/35 257/277/35 255/275/35
f 258/278/34 259/279/34 257/277/34
f 260/280/33 261/281/33 259/279/33
f 262/282/32 263/283/32 261/281/32
f 264/284/31 265/285/31 263/283/31
f 265/285/30 268/286/30 267/287/30
f 267/287/29 270/288/29 269/289/29
f 269/289/28 272/290/28 271/291/28
f 272/290/27 273/292/27 271/291/27
f 250/293/3 234/294/3 218/295/3
f 273/292/26 276/296/26 275/297/26
f 275/297/25 214/298/25 213/299/25
f 227/300/5 243/301/5 259/302/5
f 5/1/1 7/303/1 3/2/1
f 3/2/2 7/304/2 10/4/2
f 10/6/3 7/305/3 5/7/3
f 2/9/4 4/15/4 8/10/4
f 1/3/5 3/2/5 11/5/5
f 5/7/6 1/3/6 9/12/6
f 12/8/3 20/22/3 18/13/3
f 2/9/5 9/12/5 11/5/5
f 10/6/3 12/8/3 6/14/3
f 4/15/4 13/20/4 14/17/4
f 16/18/7 15/306/7 14/19/7
f 10/4/1 15/306/1 16/18/1
f 4/15/5 11/5/5 16/18/5
f 8/16/3 14/307/3 15/21/3
f 20/22/8 19/24/8 17/23/8
f 9/12/1 19/24/1 20/22/1
f 6/11/4 18/308/4 17/23/4
f 9/12/5 2/9/5 17/23/5
f 21/25/9 22/309/9 24/26/9
f 23/27/10 24/26/10 26/28/10
f 25/29/11 26/28/11 28/30/11
f 27/31/12 28/30/12 30/32/12
f 29/33/13 30/32/13 32/34/13
f 32/34/14 34/37/14 33/36/14
f 34/37/15 36/39/15 35/38/15
f 36/39/16 38/41/16 37/40/16
f 38/41/17 40/43/17 39/42/17
f 40/43/18 42/45/18 41/44/18
f 42/45/19 44/47/19 43/46/19
f 44/47/20 46/49/20 45/48/20
f 46/49/21 48/51/21 47/50/21
f 48/51/22 50/53/22 49/52/22
f 50/53/23 52/55/23 51/54/23
f 52/55/24 54/57/24 53/56/24
f 54/57/25 56/59/25 55/58/25
f 56/59/26 58/61/26 57/60/26
f 58/61/27 60/63/27 59/62/27
f 60/63/28 62/65/28 61/64/28
f 62/65/29 64/67/29 63/66/29
f 64/67/30 66/69/30 65/68/30
f 66/69/31 68/71/31 67/70/31
f 68/71/32 70/73/32 69/72/32
f 70/73/33 72/75/33 71/74/33
f 72/75/34 74/77/34 73/76/34
f 74/77/35 76/310/35 75/78/35
f 75/78/36 76/310/36 78/79/36
f 77/80/37 78/79/37 80/81/37
f 79/82/38 80/81/38 82/83/38
f 26/87/5 24/311/5 22/312/5
f 22/312/5 84/313/5 82/314/5
f 82/314/5 80/315/5 78/316/5
f 78/316/5 76/317/5 74/318/5
f 74/318/5 72/319/5 70/320/5
f 70/320/5 68/321/5 74/318/5
f 68/321/5 66/322/5 74/318/5
f 66/322/5 64/323/5 58/85/5
f 64/323/5 62/324/5 58/85/5
f 62/324/5 60/325/5 58/85/5
f 58/85/5 56/326/5 54/327/5
f 54/327/5 52/328/5 50/329/5
f 50/329/5 48/330/5 46/331/5
f 46/331/5 44/332/5 42/86/5
f 42/86/5 40/333/5 38/334/5
f 38/334/5 36/335/5 34/336/5
f 34/336/5 32/337/5 30/338/5
f 30/338/5 28/339/5 26/87/5
f 26/87/5 22/312/5 82/314/5
f 82/314/5 78/316/5 26/87/5
f 78/316/5 74/318/5 26/87/5
f 58/85/5 54/327/5 50/329/5
f 50/329/5 46/331/5 58/85/5
f 46/331/5 42/86/5 58/85/5
f 42/86/5 38/334/5 26/87/5
f 38/334/5 34/336/5 26/87/5
f 34/336/5 30/338/5 26/87/5
f 74/318/5 66/322/5 58/85/5
f 26/87/5 74/318/5 58/85/5
f 81/84/39 82/83/39 84/88/39
f 83/89/40 84/88/40 22/90/40
f 83/94/3 21/340/3 23/341/3
f 23/341/3 25/342/3 27/343/3
f 27/343/3 29/344/3 35/345/3
f 29/344/3 31/346/3 35/345/3
f 31/346/3 33/347/3 35/345/3
f 35/345/3 37/348/3 39/349/3
f 39/349/3 41/350/3 43/351/3
f 43/351/3 45/352/3 51/92/3
f 45/352/3 47/353/3 51/92/3
f 47/353/3 49/354/3 51/92/3
f 51/92/3 53/355/3 59/356/3
f 53/355/3 55/357/3 59/356/3
f 55/357/3 57/358/3 59/356/3
f 59/356/3 61/359/3 63/360/3
f 63/360/3 65/361/3 67/93/3
f 67/93/3 69/362/3 71/363/3
f 71/363/3 73/364/3 75/365/3
f 75/365/3 77/366/3 83/94/3
f 77/366/3 79/367/3 83/94/3
f 79/367/3 81/368/3 83/94/3
f 83/94/3 23/341/3 35/345/3
f 23/341/3 27/343/3 35/345/3
f 35/345/3 39/349/3 43/351/3
f 59/356/3 63/360/3 51/92/3
f 63/360/3 67/93/3 51/92/3
f 67/93/3 71/363/3 75/365/3
f 35/345/3 43/351/3 51/92/3
f 67/93/3 75/365/3 83/94/3
f 83/94/3 35/345/3 51/92/3
f 85/95/9 87/98/9 88/96/9
f 87/98/10 89/101/10 90/99/10
f 91/100/11 92/103/11 90/99/11
f 91/100/12 93/104/12 94/102/12
f 93/104/13 95/106/13 96/105/13
f 95/106/14 97/108/14 98/107/14
f 97/108/15 99/111/15 100/109/15
f 101/110/16 102/113/16 100/109/16
f 103/112/17 104/115/17 102/113/17
f 105/114/18 106/117/18 104/115/18
f 107/116/19 108/119/19 106/117/19
f 109/118/20 110/121/20 108/119/20
f 111/120/21 112/123/21 110/121/21
f 111/120/22 113/125/22 114/122/22
f 115/124/23 116/127/23 114/122/23
f 117/126/24 118/129/24 116/127/24
f 119/128/25 120/131/25 118/129/25
f 121/130/26 122/133/26 120/131/26
f 121/130/27 123/135/27 124/132/27
f 125/134/28 126/137/28 124/132/28
f 127/136/29 128/139/29 126/137/29
f 129/138/30 130/141/30 128/139/30
f 131/140/31 132/143/31 130/141/31
f 133/142/32 134/145/32 132/143/32
f 135/144/33 136/147/33 134/145/33
f 137/146/34 138/149/34 136/147/34
f 137/146/35 139/150/35 140/148/35
f 139/150/36 141/152/36 142/151/36
f 141/152/37 143/155/37 144/153/37
f 145/154/38 146/160/38 144/153/38
f 86/158/3 88/369/3 90/370/3
f 90/370/3 92/371/3 94/372/3
f 94/372/3 96/373/3 98/374/3
f 98/374/3 100/375/3 102/376/3
f 102/376/3 104/377/3 106/378/3
f 106/378/3 108/379/3 110/380/3
f 110/380/3 112/381/3 114/382/3
f 114/382/3 116/383/3 118/156/3
f 118/156/3 120/384/3 122/385/3
f 122/385/3 124/386/3 126/387/3
f 126/387/3 128/388/3 130/389/3
f 130/389/3 132/390/3 126/387/3
f 132/390/3 134/157/3 126/387/3
f 134/157/3 136/391/3 138/392/3
f 138/392/3 140/393/3 142/394/3
f 142/394/3 144/395/3 146/396/3
f 146/396/3 148/397/3 86/158/3
f 86/158/3 90/370/3 102/376/3
f 90/370/3 94/372/3 102/376/3
f 94/372/3 98/374/3 102/376/3
f 102/376/3 106/378/3 110/380/3
f 110/380/3 114/382/3 118/156/3
f 118/156/3 122/385/3 126/387/3
f 134/157/3 138/392/3 86/158/3
f 138/392/3 142/394/3 86/158/3
f 142/394/3 146/396/3 86/158/3
f 102/376/3 110/380/3 86/158/3
f 110/380/3 118/156/3 86/158/3
f 118/156/3 126/387/3 134/157/3
f 145/154/39 147/161/39 148/159/39
f 147/161/40 85/398/40 86/162/40
f 87/399/5 85/400/5 147/401/5
f 147/401/5 145/402/5 143/403/5
f 143/403/5 141/404/5 135/163/5
f 141/404/5 139/405/5 135/163/5
f 139/405/5 137/406/5 135/163/5
f 135/163/5 133/407/5 131/408/5
f 131/408/5 129/409/5 127/410/5
f 127/410/5 125/411/5 123/412/5
f 123/412/5 121/413/5 127/410/5
f 121/413/5 119/164/5 127/410/5
f 119/164/5 117/414/5 111/415/5
f 117/414/5 115/416/5 111/415/5
f 115/416/5 113/417/5 111/415/5
f 111/415/5 109/418/5 103/165/5
f 109/418/5 107/419/5 103/165/5
f 107/419/5 105/420/5 103/165/5
f 103/165/5 101/421/5 99/422/5
f 99/422/5 97/423/5 95/424/5
f 95/424/5 93/425/5 87/399/5
f 93/425/5 91/426/5 87/399/5
f 91/426/5 89/427/5 87/399/5
f 87/399/5 147/401/5 135/163/5
f 147/401/5 143/403/5 135/163/5
f 135/163/5 131/408/5 119/164/5
f 131/408/5 127/410/5 119/164/5
f 103/165/5 99/422/5 95/424/5
f 119/164/5 111/415/5 103/165/5
f 103/165/5 95/424/5 87/399/5
f 87/399/5 135/163/5 103/165/5
f 149/166/24 151/169/24 152/167/24
f 151/169/23 153/171/23 154/170/23
f 153/171/22 155/173/22 156/172/22
f 155/173/21 157/176/21 158/174/21
f 159/175/20 160/178/20 158/174/20
f 161/177/19 162/180/19 160/178/19
f 163/179/18 164/182/18 162/180/18
f 165/181/17 166/184/17 164/182/17
f 167/183/16 168/186/16 166/184/16
f 169/185/15 170/188/15 168/186/15
f 171/187/14 172/190/14 170/188/14
f 173/189/13 174/192/13 172/190/13
f 175/191/12 176/194/12 174/192/12
f 177/193/11 178/196/11 176/194/11
f 179/195/10 180/198/10 178/196/10
f 181/197/9 182/200/9 180/198/9
f 183/199/40 184/202/40 182/200/40
f 185/201/39 186/204/39 184/202/39
f 187/203/38 188/206/38 186/204/38
f 189/205/37 190/208/37 188/206/37
f 191/207/36 192/210/36 190/208/36
f 193/209/35 194/212/35 192/210/35
f 195/211/34 196/214/34 194/212/34
f 197/213/33 198/216/33 196/214/33
f 199/215/32 200/218/32 198/216/32
f 201/217/31 202/220/31 200/218/31
f 203/219/30 204/222/30 202/220/30
f 203/219/29 205/223/29 206/221/29
f 205/223/28 207/225/28 208/224/28
f 207/225/27 209/230/27 210/226/27
f 150/229/5 152/428/5 154/429/5
f 154/429/5 156/430/5 158/431/5
f 158/431/5 160/432/5 162/433/5
f 162/433/5 164/434/5 158/431/5
f 164/434/5 166/435/5 158/431/5
f 166/435/5 168/436/5 174/437/5
f 168/436/5 170/438/5 174/437/5
f 170/438/5 172/439/5 174/437/5
f 174/437/5 176/440/5 178/441/5
f 178/441/5 180/442/5 182/227/5
f 182/227/5 184/443/5 186/444/5
f 186/444/5 188/445/5 190/446/5
f 190/446/5 192/447/5 198/228/5
f 192/447/5 194/448/5 198/228/5
f 194/448/5 196/449/5 198/228/5
f 198/228/5 200/450/5 202/451/5
f 202/451/5 204/452/5 206/453/5
f 206/453/5 208/454/5 210/455/5
f 210/455/5 212/456/5 150/229/5
f 150/229/5 154/429/5 158/431/5
f 174/437/5 178/441/5 166/435/5
f 178/441/5 182/227/5 166/435/5
f 182/227/5 186/444/5 198/228/5
f 186/444/5 190/446/5 198/228/5
f 198/228/5 202/451/5 150/229/5
f 202/451/5 206/453/5 150/229/5
f 206/453/5 210/455/5 150/229/5
f 150/229/5 158/431/5 182/227/5
f 158/431/5 166/435/5 182/227/5
f 209/230/26 211/232/26 212/231/26
f 211/232/25 149/457/25 150/233/25
f 151/234/3 149/458/3 207/459/3
f 149/458/3 211/460/3 207/459/3
f 211/460/3 209/461/3 207/459/3
f 207/459/3 205/462/3 199/235/3
f 205/462/3 203/463/3 199/235/3
f 203/463/3 201/464/3 199/235/3
f 199/235/3 197/465/3 195/466/3
f 195/466/3 193/467/3 191/468/3
f 191/468/3 189/469/3 187/470/3
f 187/470/3 185/471/3 183/236/3
f 183/236/3 181/472/3 179/473/3
f 179/473/3 177/474/3 175/475/3
f 175/475/3 173/476/3 171/477/3
f 171/477/3 169/478/3 167/479/3
f 167/479/3 165/480/3 163/481/3
f 163/481/3 161/482/3 159/483/3
f 159/483/3 157/484/3 151/234/3
f 157/484/3 155/485/3 151/234/3
f 155/485/3 153/486/3 151/234/3
f 199/235/3 195/466/3 191/468/3
f 191/468/3 187/470/3 199/235/3
f 187/470/3 183/236/3 199/235/3
f 183/236/3 179/473/3 167/479/3
f 179/473/3 175/475/3 167/479/3
f 175/475/3 171/477/3 167/479/3
f 167/479/3 163/481/3 159/483/3
f 151/234/3 207/459/3 199/235/3
f 167/479/3 159/483/3 183/236/3
f 159/483/3 151/234/3 183/236/3
f 213/237/24 214/487/24 216/238/24
f 215/239/23 216/238/23 218/240/23
f 218/240/22 220/488/22 219/242/22
f 219/242/21 220/488/21 222/243/21
f 221/244/20 222/243/20 224/245/20
f 223/246/19 224/245/19 226/247/19
f 225/248/18 226/247/18 228/249/18
f 228/249/17 230/252/17 229/251/17
f 230/252/16 232/254/16 231/253/16
f 232/254/15 234/256/15 233/255/15
f 234/256/14 236/258/14 235/257/14
f 236/258/13 238/260/13 237/259/13
f 238/260/12 240/489/12 239/261/12
f 239/261/11 240/489/11 242/262/11
f 242/262/10 244/265/10 243/264/10
f 244/265/9 246/267/9 245/266/9
f 246/267/40 248/269/40 247/268/40
f 248/269/39 250/490/39 249/270/39
f 249/270/38 250/490/38 252/271/38
f 252/271/37 254/274/37 253/273/37
f 254/274/36 256/276/36 255/275/36
f 256/276/35 258/278/35 257/277/35
f 258/278/34 260/280/34 259/279/34
f 260/280/33 262/282/33 261/281/33
f 262/282/32 264/284/32 263/283/32
f 264/284/31 266/491/31 265/285/31
f 265/285/30 266/491/30 268/286/30
f 267/287/29 268/286/29 270/288/29
f 269/289/28 270/288/28 272/290/28
f 272/290/27 274/492/27 273/292/27
f 218/295/3 216/493/3 214/494/3
f 214/494/3 276/495/3 274/496/3
f 274/496/3 272/497/3 270/498/3
f 270/498/3 268/499/3 266/500/3
f 266/500/3 264/501/3 262/502/3
f 262/502/3 260/503/3 266/500/3
f 260/503/3 258/504/3 266/500/3
f 258/504/3 256/505/3 254/506/3
f 254/506/3 252/507/3 258/504/3
f 252/507/3 250/293/3 258/504/3
f 250/293/3 248/508/3 242/509/3
f 248/508/3 246/510/3 242/509/3
f 246/510/3 244/511/3 242/509/3
f 242/509/3 240/512/3 238/513/3
f 238/513/3 236/514/3 242/509/3
f 236/514/3 234/294/3 242/509/3
f 234/294/3 232/515/3 230/516/3
f 230/516/3 228/517/3 226/518/3
f 226/518/3 224/519/3 222/520/3
f 222/520/3 220/521/3 218/295/3
f 218/295/3 214/494/3 266/500/3
f 214/494/3 274/496/3 266/500/3
f 274/496/3 270/498/3 266/500/3
f 234/294/3 230/516/3 226/518/3
f 226/518/3 222/520/3 234/294/3
f 222/520/3 218/295/3 234/294/3
f 266/500/3 258/504/3 250/293/3
f 250/293/3 242/509/3 234/294/3
f 218/295/3 266/500/3 250/293/3
f 273/292/26 274/492/26 276/296/26
f 275/297/25 276/296/25 214/298/25
f 275/522/5 213/523/5 219/524/5
f 213/523/5 215/525/5 219/524/5
f 215/525/5 217/526/5 219/524/5
f 219/524/5 221/527/5 227/300/5
f 221/527/5 223/528/5 227/300/5
f 223/528/5 225/529/5 227/300/5
f 227/300/5 229/530/5 231/531/5
f 231/531/5 233/532/5 235/533/5
f 235/533/5 237/534/5 239/535/5
f 239/535/5 241/536/5 235/533/5
f 241/536/5 243/301/5 235/533/5
f 243/301/5 245/537/5 247/538/5
f 247/538/5 249/539/5 251/540/5
f 251/540/5 253/541/5 255/542/5
f 255/542/5 257/543/5 251/540/5
f 257/543/5 259/302/5 251/540/5
f 259/302/5 261/544/5 263/545/5
f 263/545/5 265/546/5 259/302/5
f 265/546/5 267/547/5 259/302/5
f 267/547/5 269/548/5 275/522/5
f 269/548/5 271/549/5 275/522/5
f 271/549/5 273/550/5 275/522/5
f 227/300/5 231/531/5 235/533/5
f 243/301/5 247/538/5 251/540/5
f 275/522/5 219/524/5 227/300/5
f 227/300/5 235/533/5 243/301/5
f 243/301/5 251/540/5 259/302/5
f 259/302/5 267/547/5 275/522/5
f 275/522/5 227/300/5 259/302/5
