# Blender v3.1.2 OBJ File: ''
# www.blender.org
mtllib Mudiska3.mtl
o Cube_Cube.004
v -0.102296 1.164681 0.165335
v 0.000000 1.818549 1.014017
v -0.102296 1.337932 0.056514
v 0.102296 1.164681 0.165335
v 0.102296 1.337932 0.056514
vt 0.375000 0.000000
vt 0.625000 0.250000
vt 0.375000 0.250000
vt 0.625000 0.500000
vt 0.375000 0.500000
vt 0.625000 0.750000
vt 0.375000 0.750000
vt 0.625000 1.000000
vt 0.375000 1.000000
vt 0.125000 0.750000
vt 0.125000 0.500000
vn -0.9954 0.0508 0.0809
vn 0.0000 0.8937 -0.4486
vn 0.9954 0.0508 0.0809
vn 0.0000 -0.7922 0.6103
vn 0.0000 -0.5319 -0.8468
usemtl None
s off
f 1/1/1 2/2/1 3/3/1
f 3/3/2 2/4/2 5/5/2
f 5/5/3 2/6/3 4/7/3
f 4/7/4 2/8/4 1/9/4
f 5/5/5 1/10/5 3/11/5
f 5/5/5 4/7/5 1/10/5
