# Blender v3.1.2 OBJ File: ''
# www.blender.org
mtllib museyKrisha.mtl
o Cube
v 25.000000 1.000000 -25.000000
v 25.000000 -1.000000 -25.000000
v 25.000000 1.000000 25.000000
v 25.000000 -1.000000 25.000000
v -25.000000 1.000000 -25.000000
v -25.000000 -1.000000 -25.000000
v -25.000000 1.000000 25.000000
v -25.000000 -1.000000 25.000000
v -2.509603 0.000001 12.616624
v -4.922763 0.000001 11.884599
v -7.146744 0.000001 10.695856
v -9.096079 0.000001 9.096076
v -10.695857 0.000001 7.146741
v -11.884599 0.000001 4.922760
v -12.616621 0.000001 2.509600
v -12.863794 0.000001 -0.000002
v -12.616619 0.000001 -2.509604
v -11.884595 0.000001 -4.922763
v -10.695850 0.000001 -7.146743
v -9.096072 0.000001 -9.096077
v -7.146737 0.000001 -10.695854
v -4.922757 0.000001 -11.884596
v -2.509598 0.000001 -12.616618
v 0.000003 0.000001 -12.863791
v 2.509604 0.000001 -12.616615
v 4.922762 0.000001 -11.884590
v 7.146741 0.000001 -10.695848
v 9.096075 0.000001 -9.096069
v 10.695850 0.000001 -7.146734
v 11.884591 0.000001 -4.922753
v 12.616613 0.000001 -2.509595
v 12.863787 0.000001 0.000005
v 12.616611 0.000001 2.509605
v 11.884586 0.000001 4.922762
v 10.695844 0.000001 7.146741
v 9.096066 0.000001 9.096073
v 7.146730 0.000001 10.695848
v 4.922751 0.000001 11.884588
v 2.509593 0.000001 12.616611
v -0.000007 0.000001 12.863782
v -12.765304 1.000000 -0.000002
v -12.520022 1.000000 2.490386
v -12.520021 1.000000 -2.490389
v -10.613964 1.000000 7.092022
v -10.613960 1.000000 -7.092024
v -9.026435 1.000000 9.026433
v -11.793605 1.000000 4.885069
v -11.793602 1.000000 -4.885072
v -2.490384 1.000000 -12.520020
v -4.885067 1.000000 -11.793602
v -7.092019 1.000000 -10.613962
v 2.490389 1.000000 -12.520019
v 7.092022 1.000000 -10.613957
v 4.885071 1.000000 -11.793598
v 0.000002 1.000000 -12.765301
v -9.026430 1.000000 -9.026434
v -7.092024 1.000000 10.613964
v -2.490388 1.000000 12.520024
v -4.885072 1.000000 11.793605
v 2.490380 1.000000 12.520014
v 7.092015 1.000000 10.613957
v 4.885063 1.000000 11.793596
v -0.000005 1.000000 12.765294
v 9.026431 1.000000 -9.026427
v 10.613954 1.000000 7.092021
v 10.613959 1.000000 -7.092018
v 12.765297 1.000000 0.000003
v 12.520014 1.000000 2.490389
v 12.520017 1.000000 -2.490383
v 11.793598 1.000000 -4.885065
v 11.793594 1.000000 4.885071
v 9.026424 1.000000 9.026430
v -9.026430 -1.000000 -9.026434
v -4.885067 -1.000000 -11.793602
v -7.092019 -1.000000 -10.613962
v -2.490384 -1.000000 -12.520020
v 0.000002 -1.000000 -12.765301
v 7.092022 -1.000000 -10.613957
v 4.885071 -1.000000 -11.793598
v 2.490389 -1.000000 -12.520019
v 10.613954 -1.000000 7.092021
v 10.613959 -1.000000 -7.092017
v 12.765297 -1.000000 0.000003
v 12.520014 -1.000000 2.490389
v 12.520017 -1.000000 -2.490383
v 11.793598 -1.000000 -4.885065
v 11.793594 -1.000000 4.885071
v 9.026431 -1.000000 -9.026427
v -12.765304 -1.000000 -0.000002
v -12.520021 -1.000000 -2.490389
v -12.520022 -1.000000 2.490386
v -10.613964 -1.000000 7.092022
v -10.613960 -1.000000 -7.092024
v -9.026435 -1.000000 9.026433
v -11.793605 -1.000000 4.885069
v -11.793602 -1.000000 -4.885072
v -7.092024 -1.000000 10.613964
v -2.490388 -1.000000 12.520024
v -4.885072 -1.000000 11.793605
v 4.885063 -1.000000 11.793596
v 2.490380 -1.000000 12.520014
v 9.026424 -1.000000 9.026430
v 7.092015 -1.000000 10.613957
v -0.000004 -1.000000 12.765297
vt 0.625000 0.500000
vt 0.687400 0.612548
vt 0.686174 0.625000
vt 0.875000 0.500000
vt 0.813827 0.625000
vt 0.812600 0.612548
vt 0.625000 0.750000
vt 0.375000 1.000000
vt 0.375000 0.750000
vt 0.625000 0.000000
vt 0.375000 0.250000
vt 0.375000 0.000000
vt 0.312600 0.637452
vt 0.313827 0.625000
vt 0.186173 0.625000
vt 0.187400 0.637452
vt 0.125000 0.750000
vt 0.375000 0.500000
vt 0.625000 0.250000
vt 0.750000 0.500000
vt 0.718750 0.524904
vt 0.718750 0.500000
vt 0.750000 0.475096
vt 0.687500 0.524904
vt 0.687500 0.500000
vt 0.718750 0.475096
vt 0.656250 0.524904
vt 0.656250 0.500000
vt 0.687500 0.475096
vt 0.625000 0.524904
vt 0.625000 0.500000
vt 0.625000 0.475096
vt 0.656250 0.475096
vt 0.593750 0.500000
vt 0.593750 0.524904
vt 0.593750 0.475096
vt 0.562500 0.500000
vt 0.562500 0.524904
vt 0.562500 0.475096
vt 0.531250 0.500000
vt 0.531250 0.524904
vt 0.531250 0.475096
vt 0.500000 0.475096
vt 0.500000 0.500000
vt 0.500000 0.524904
vt 0.468750 0.500000
vt 0.468750 0.524904
vt 0.437500 0.500000
vt 0.468750 0.524904
vt 0.437500 0.524904
vt 0.468750 0.475096
vt 0.406250 0.500000
vt 0.406250 0.524904
vt 0.437500 0.475096
vt 0.375000 0.500000
vt 0.375000 0.524904
vt 0.406250 0.475096
vt 0.343750 0.500000
vt 0.343750 0.524904
vt 0.343750 0.475096
vt 0.375000 0.475096
vt 0.312500 0.500000
vt 0.312500 0.524904
vt 0.312500 0.475096
vt 0.281250 0.500000
vt 0.281250 0.524904
vt 0.281250 0.475096
vt 0.250000 0.500000
vt 0.250000 0.524904
vt 0.250000 0.475096
vt 0.218750 0.500000
vt 0.218750 0.524904
vt 0.187500 0.500000
vt 0.187500 0.524904
vt 0.218750 0.475096
vt 0.156250 0.500000
vt 0.187500 0.475096
vt 0.156250 0.524904
vt 0.125000 0.500000
vt 0.125000 0.524904
vt 0.156250 0.475096
vt 0.093750 0.500000
vt 0.125000 0.475096
vt 0.093750 0.524904
vt 0.062500 0.500000
vt 0.062500 0.524904
vt 0.093750 0.475096
vt 0.031250 0.500000
vt 0.031250 0.524904
vt 0.062500 0.475096
vt 0.000000 0.524904
vt 0.000000 0.500000
vt 0.031250 0.475096
vt 1.000000 0.500000
vt 0.968750 0.524904
vt 0.968750 0.500000
vt 1.000000 0.475096
vt 0.937500 0.524904
vt 0.937500 0.500000
vt 0.968750 0.475096
vt 0.906250 0.524904
vt 0.906250 0.500000
vt 0.937500 0.475096
vt 0.875000 0.524904
vt 0.875000 0.500000
vt 0.906250 0.475096
vt 0.843750 0.500000
vt 0.843750 0.524904
vt 0.875000 0.475096
vt 0.812500 0.500000
vt 0.812500 0.524904
vt 0.843750 0.475096
vt 0.781250 0.500000
vt 0.781250 0.524904
vt 0.812500 0.475096
vt 0.781250 0.475096
vt 0.750000 0.524904
vt 0.785460 0.678070
vt 0.795132 0.670132
vt 0.875000 0.750000
vt 0.795132 0.579868
vt 0.785460 0.571930
vt 0.774425 0.566032
vt 0.774425 0.683968
vt 0.762452 0.687600
vt 0.750000 0.561173
vt 0.762452 0.562400
vt 0.750000 0.688826
vt 0.737548 0.562400
vt 0.737548 0.687600
vt 0.725575 0.683968
vt 0.725575 0.566032
vt 0.714540 0.571930
vt 0.714540 0.678070
vt 0.704868 0.670132
vt 0.704868 0.579868
vt 0.696930 0.589540
vt 0.696930 0.660460
vt 0.691032 0.649425
vt 0.691032 0.600575
vt 0.687400 0.637452
vt 0.803070 0.660460
vt 0.808968 0.649425
vt 0.803070 0.589540
vt 0.808968 0.600575
vt 0.812600 0.637452
vt 0.625000 1.000000
vt 0.214540 0.571930
vt 0.204868 0.579868
vt 0.125000 0.500000
vt 0.204868 0.670132
vt 0.214540 0.678070
vt 0.225575 0.683968
vt 0.225575 0.566032
vt 0.237548 0.562400
vt 0.250000 0.688826
vt 0.237548 0.687600
vt 0.250000 0.561173
vt 0.262452 0.687600
vt 0.262452 0.562400
vt 0.274425 0.566032
vt 0.274425 0.683968
vt 0.285460 0.678070
vt 0.285460 0.571930
vt 0.295132 0.579868
vt 0.295132 0.670132
vt 0.303070 0.660460
vt 0.303070 0.589540
vt 0.308968 0.600575
vt 0.308968 0.649425
vt 0.312600 0.612548
vt 0.196930 0.660460
vt 0.196930 0.589540
vt 0.191032 0.600575
vt 0.191032 0.649425
vt 0.187400 0.612548
vt 0.000000 0.475096
vt 1.000000 0.524904
vn 0.0000 1.0000 0.0000
vn 0.0000 0.0000 1.0000
vn -1.0000 0.0000 0.0000
vn 0.0000 -1.0000 0.0000
vn 1.0000 0.0000 0.0000
vn 0.0000 0.0000 -1.0000
vn 0.0975 0.0976 -0.9904
vn 0.0975 -0.0975 -0.9904
vn 0.2889 0.0975 -0.9524
vn 0.2889 -0.0976 -0.9524
vn 0.4691 0.0975 -0.8777
vn 0.4691 -0.0975 -0.8777
vn 0.6314 0.0975 -0.7693
vn 0.6314 -0.0976 -0.7693
vn 0.7693 0.0975 -0.6314
vn 0.7693 -0.0975 -0.6314
vn 0.8777 0.0975 -0.4691
vn 0.8777 -0.0976 -0.4691
vn 0.9524 0.0975 -0.2889
vn 0.9524 -0.0975 -0.2889
vn 0.9904 -0.0975 -0.0975
vn 0.9904 0.0975 -0.0975
vn 0.9904 0.0976 0.0975
vn 0.9904 -0.0975 0.0976
vn 0.9524 0.0975 0.2889
vn 0.9524 -0.0975 0.2889
vn 0.8777 0.0975 0.4691
vn 0.8777 -0.0975 0.4691
vn 0.7693 0.0975 0.6314
vn 0.7693 -0.0975 0.6314
vn 0.6314 0.0975 0.7693
vn 0.6314 -0.0975 0.7693
vn 0.4691 0.0975 0.8777
vn 0.4691 -0.0975 0.8777
vn 0.2889 0.0975 0.9524
vn 0.2889 -0.0975 0.9524
vn 0.0975 0.0975 0.9904
vn 0.0975 -0.0975 0.9904
vn -0.0975 0.0975 0.9904
vn -0.0976 -0.0975 0.9904
vn -0.2889 0.0975 0.9524
vn -0.2889 -0.0975 0.9524
vn -0.4691 -0.0975 0.8777
vn -0.4691 0.0975 0.8777
vn -0.6314 0.0975 0.7693
vn -0.6314 -0.0975 0.7693
vn -0.7693 -0.0975 0.6314
vn -0.7693 0.0975 0.6314
vn -0.8777 0.0975 0.4691
vn -0.8777 -0.0975 0.4691
vn -0.9524 0.0975 0.2889
vn -0.9524 -0.0976 0.2889
vn -0.9904 0.0975 0.0975
vn -0.9904 -0.0975 0.0975
vn -0.9904 0.0975 -0.0976
vn -0.9904 -0.0975 -0.0976
vn -0.9524 0.0975 -0.2889
vn -0.9524 -0.0975 -0.2889
vn -0.8777 0.0975 -0.4691
vn -0.8777 -0.0975 -0.4691
vn -0.7693 0.0975 -0.6314
vn -0.7693 -0.0975 -0.6314
vn -0.6314 0.0975 -0.7693
vn -0.6314 -0.0975 -0.7693
vn -0.4691 0.0975 -0.8777
vn -0.4691 -0.0975 -0.8777
vn -0.2889 0.0975 -0.9524
vn -0.2889 -0.0975 -0.9524
vn -0.0975 -0.0975 -0.9904
vn -0.0975 0.0975 -0.9904
vn 0.0975 0.0975 -0.9904
vn 0.0975 -0.0976 -0.9904
vn 0.2889 0.0976 -0.9524
vn 0.2889 -0.0975 -0.9524
vn 0.6314 0.0976 -0.7693
vn 0.6314 -0.0975 -0.7693
vn 0.8777 0.0976 -0.4691
vn 0.8777 -0.0975 -0.4691
vn 0.9524 0.0976 -0.2889
vn 0.9524 -0.0976 -0.2889
vn 0.9904 -0.0976 -0.0975
vn 0.9904 0.0975 0.0976
vn 0.9904 -0.0976 0.0975
vn -0.0976 0.0975 0.9904
vn -0.0975 -0.0975 0.9904
vn -0.9524 0.0976 0.2889
vn -0.9524 -0.0975 0.2889
vn -0.9904 -0.0976 0.0975
vn -0.0976 0.0975 -0.9904
usemtl Material
s off
f 1/1/1 69/2/1 67/3/1
f 5/4/1 41/5/1 43/6/1
f 3/7/2 8/8/2 4/9/2
f 7/10/3 6/11/3 8/12/3
f 4/9/4 84/13/4 83/14/4
f 89/15/4 91/16/4 8/17/4
f 1/1/5 4/9/5 2/18/5
f 5/19/6 2/18/6 6/11/6
f 40/20/7 98/21/7 9/22/7
f 9/22/8 63/23/8 40/20/8
f 9/22/9 99/24/9 10/25/9
f 10/25/10 58/26/10 9/22/10
f 10/25/11 97/27/11 11/28/11
f 11/28/12 59/29/12 10/25/12
f 11/28/13 94/30/13 12/31/13
f 11/28/14 46/32/14 57/33/14
f 13/34/15 94/30/15 92/35/15
f 12/31/16 44/36/16 46/32/16
f 14/37/17 92/35/17 95/38/17
f 13/34/18 47/39/18 44/36/18
f 15/40/19 95/38/19 91/41/19
f 14/37/20 42/42/20 47/39/20
f 15/40/21 41/43/21 42/42/21
f 16/44/22 91/41/22 89/45/22
f 17/46/23 89/45/23 90/47/23
f 17/46/24 41/43/24 16/44/24
f 18/48/25 90/49/25 96/50/25
f 18/48/26 43/51/26 17/46/26
f 19/52/27 96/50/27 93/53/27
f 19/52/28 48/54/28 18/48/28
f 20/55/29 93/53/29 73/56/29
f 20/55/30 45/57/30 19/52/30
f 21/58/31 73/56/31 75/59/31
f 20/55/32 51/60/32 56/61/32
f 22/62/33 75/59/33 74/63/33
f 21/58/34 50/64/34 51/60/34
f 23/65/35 74/63/35 76/66/35
f 22/62/36 49/67/36 50/64/36
f 24/68/37 76/66/37 77/69/37
f 23/65/38 55/70/38 49/67/38
f 25/71/39 77/69/39 80/72/39
f 25/71/40 55/70/40 24/68/40
f 26/73/41 80/72/41 79/74/41
f 26/73/42 52/75/42 25/71/42
f 27/76/43 54/77/43 26/73/43
f 27/76/44 79/74/44 78/78/44
f 28/79/45 78/78/45 88/80/45
f 28/79/46 53/81/46 27/76/46
f 29/82/47 64/83/47 28/79/47
f 29/82/48 88/80/48 82/84/48
f 30/85/49 82/84/49 86/86/49
f 30/85/50 66/87/50 29/82/50
f 31/88/51 86/86/51 85/89/51
f 31/88/52 70/90/52 30/85/52
f 31/88/53 83/91/53 32/92/53
f 32/92/54 69/93/54 31/88/54
f 32/94/55 84/95/55 33/96/55
f 33/96/56 67/97/56 32/94/56
f 33/96/57 87/98/57 34/99/57
f 34/99/58 68/100/58 33/96/58
f 34/99/59 81/101/59 35/102/59
f 35/102/60 71/103/60 34/99/60
f 35/102/61 102/104/61 36/105/61
f 36/105/62 65/106/62 35/102/62
f 37/107/63 102/104/63 103/108/63
f 37/107/64 72/109/64 36/105/64
f 38/110/65 103/108/65 100/111/65
f 38/110/66 61/112/66 37/107/66
f 39/113/67 100/111/67 101/114/67
f 39/113/68 62/115/68 38/110/68
f 40/20/69 60/116/69 39/113/69
f 39/113/70 104/117/70 40/20/70
f 57/118/1 46/119/1 7/120/1
f 5/4/1 56/121/1 51/122/1
f 5/4/1 51/122/1 50/123/1
f 59/124/1 57/118/1 7/120/1
f 58/125/1 59/124/1 7/120/1
f 1/1/1 5/4/1 55/126/1
f 5/4/1 50/123/1 49/127/1
f 5/4/1 49/127/1 55/126/1
f 58/125/1 7/120/1 63/128/1
f 7/120/1 3/7/1 63/128/1
f 1/1/1 55/126/1 52/129/1
f 60/130/1 63/128/1 3/7/1
f 62/131/1 60/130/1 3/7/1
f 1/1/1 52/129/1 54/132/1
f 1/1/1 54/132/1 53/133/1
f 61/134/1 62/131/1 3/7/1
f 72/135/1 61/134/1 3/7/1
f 1/1/1 53/133/1 64/136/1
f 1/1/1 64/136/1 66/137/1
f 65/138/1 72/135/1 3/7/1
f 71/139/1 65/138/1 3/7/1
f 1/1/1 66/137/1 70/140/1
f 1/1/1 70/140/1 69/2/1
f 71/139/1 3/7/1 68/141/1
f 3/7/1 1/1/1 67/3/1
f 68/141/1 3/7/1 67/3/1
f 7/120/1 46/119/1 44/142/1
f 7/120/1 44/142/1 47/143/1
f 45/144/1 56/121/1 5/4/1
f 48/145/1 45/144/1 5/4/1
f 5/4/1 7/120/1 41/5/1
f 7/120/1 47/143/1 42/146/1
f 7/120/1 42/146/1 41/5/1
f 43/6/1 48/145/1 5/4/1
f 3/7/2 7/147/2 8/8/2
f 7/10/3 5/19/3 6/11/3
f 75/148/4 73/149/4 6/150/4
f 8/17/4 94/151/4 97/152/4
f 8/17/4 97/152/4 99/153/4
f 74/154/4 75/148/4 6/150/4
f 76/155/4 74/154/4 6/150/4
f 4/9/4 8/17/4 104/156/4
f 8/17/4 99/153/4 98/157/4
f 8/17/4 98/157/4 104/156/4
f 76/155/4 6/150/4 77/158/4
f 6/150/4 2/18/4 77/158/4
f 4/9/4 104/156/4 101/159/4
f 80/160/4 77/158/4 2/18/4
f 79/161/4 80/160/4 2/18/4
f 4/9/4 101/159/4 100/162/4
f 4/9/4 100/162/4 103/163/4
f 78/164/4 79/161/4 2/18/4
f 88/165/4 78/164/4 2/18/4
f 4/9/4 103/163/4 102/166/4
f 4/9/4 102/166/4 81/167/4
f 82/168/4 88/165/4 2/18/4
f 86/169/4 82/168/4 2/18/4
f 4/9/4 81/167/4 87/170/4
f 4/9/4 87/170/4 84/13/4
f 86/169/4 2/18/4 85/171/4
f 2/18/4 4/9/4 83/14/4
f 85/171/4 2/18/4 83/14/4
f 92/172/4 94/151/4 8/17/4
f 6/150/4 73/149/4 93/173/4
f 6/150/4 93/173/4 96/174/4
f 95/175/4 92/172/4 8/17/4
f 91/16/4 95/175/4 8/17/4
f 8/17/4 6/150/4 89/15/4
f 6/150/4 96/174/4 90/176/4
f 6/150/4 90/176/4 89/15/4
f 1/1/5 3/7/5 4/9/5
f 5/19/6 1/1/6 2/18/6
f 40/20/71 104/117/71 98/21/71
f 9/22/72 58/26/72 63/23/72
f 9/22/73 98/21/73 99/24/73
f 10/25/74 59/29/74 58/26/74
f 10/25/11 99/24/11 97/27/11
f 11/28/12 57/33/12 59/29/12
f 11/28/75 97/27/75 94/30/75
f 11/28/76 12/31/76 46/32/76
f 13/34/15 12/31/15 94/30/15
f 12/31/16 13/34/16 44/36/16
f 14/37/77 13/34/77 92/35/77
f 13/34/78 14/37/78 47/39/78
f 15/40/79 14/37/79 95/38/79
f 14/37/80 15/40/80 42/42/80
f 15/40/81 16/44/81 41/43/81
f 16/44/22 15/40/22 91/41/22
f 17/46/82 16/44/82 89/45/82
f 17/46/83 43/51/83 41/43/83
f 18/48/25 17/46/25 90/49/25
f 18/48/26 48/54/26 43/51/26
f 19/52/27 18/48/27 96/50/27
f 19/52/28 45/57/28 48/54/28
f 20/55/29 19/52/29 93/53/29
f 20/55/30 56/61/30 45/57/30
f 21/58/31 20/55/31 73/56/31
f 20/55/32 21/58/32 51/60/32
f 22/62/33 21/58/33 75/59/33
f 21/58/34 22/62/34 50/64/34
f 23/65/35 22/62/35 74/63/35
f 22/62/36 23/65/36 49/67/36
f 24/68/37 23/65/37 76/66/37
f 23/65/38 24/68/38 55/70/38
f 25/71/84 24/68/84 77/69/84
f 25/71/85 52/75/85 55/70/85
f 26/73/41 25/71/41 80/72/41
f 26/73/42 54/77/42 52/75/42
f 27/76/43 53/81/43 54/77/43
f 27/76/44 26/73/44 79/74/44
f 28/79/45 27/76/45 78/78/45
f 28/79/46 64/83/46 53/81/46
f 29/82/47 66/87/47 64/83/47
f 29/82/48 28/79/48 88/80/48
f 30/85/49 29/82/49 82/84/49
f 30/85/50 70/90/50 66/87/50
f 31/88/86 30/85/86 86/86/86
f 31/88/87 69/93/87 70/90/87
f 31/88/53 85/89/53 83/91/53
f 32/92/88 67/177/88 69/93/88
f 32/94/55 83/178/55 84/95/55
f 33/96/56 68/100/56 67/97/56
f 33/96/57 84/95/57 87/98/57
f 34/99/58 71/103/58 68/100/58
f 34/99/59 87/98/59 81/101/59
f 35/102/60 65/106/60 71/103/60
f 35/102/61 81/101/61 102/104/61
f 36/105/62 72/109/62 65/106/62
f 37/107/63 36/105/63 102/104/63
f 37/107/64 61/112/64 72/109/64
f 38/110/65 37/107/65 103/108/65
f 38/110/66 62/115/66 61/112/66
f 39/113/67 38/110/67 100/111/67
f 39/113/68 60/116/68 62/115/68
f 40/20/69 63/23/69 60/116/69
f 39/113/89 101/114/89 104/117/89
