# Blender v3.1.2 OBJ File: ''
# www.blender.org
mtllib NravixFashist(w).mtl
v 0.119867 0.226008 0.110320
v 0.113255 0.294918 0.105984
v 0.254338 0.294524 0.038047
v 0.263124 0.222862 0.040287
v -0.318568 0.222862 0.084054
v -0.310144 0.294525 0.082148
v -0.238716 0.294525 -0.233689
v -0.245200 0.222862 -0.239741
v -0.125921 0.226008 0.154034
v -0.119010 0.294918 0.150079
v -0.253480 0.294525 0.038047
v -0.262333 0.222862 0.040287
v -0.201432 0.222862 -0.195973
v -0.194615 0.294525 -0.189587
v 0.237098 0.294525 -0.233689
v 0.243454 0.222862 -0.239741
v -0.109927 0.226008 0.110320
v -0.103315 0.294918 0.105984
v 0.199687 0.222862 -0.195973
v 0.192996 0.294525 -0.189587
v 0.133531 0.226008 0.154034
v 0.126564 0.294918 0.150079
v 0.310204 0.294524 0.082148
v 0.318568 0.222862 0.084054
v -0.130915 0.294525 -0.278103
v -0.000809 0.294525 -0.292908
v 0.129296 0.294525 -0.278103
v -0.134489 0.222862 -0.285275
v -0.000873 0.222862 -0.300452
v 0.132744 0.222862 -0.285275
v -0.250043 0.294525 -0.138014
v -0.274650 0.294525 -0.075770
v -0.273957 0.294525 -0.013527
v -0.258791 0.222862 -0.142446
v -0.284254 0.222862 -0.077843
v -0.283532 0.222862 -0.013241
v -0.162757 0.294807 0.155220
v -0.214997 0.294623 0.149858
v -0.267062 0.294537 0.127624
v -0.169329 0.225123 0.159103
v -0.221569 0.223648 0.153510
v -0.274421 0.222960 0.130681
v 0.144871 0.294807 0.098720
v 0.183386 0.294623 0.089221
v 0.222132 0.294537 0.071119
v 0.151355 0.225123 0.103064
v 0.190155 0.223648 0.093343
v 0.229825 0.222960 0.074605
v -0.335761 0.294525 0.010591
v -0.336860 0.294525 -0.075770
v -0.306744 0.294525 -0.162132
v -0.344869 0.222862 0.010694
v -0.345994 0.222862 -0.077843
v -0.315063 0.222862 -0.166381
v -0.083596 0.294820 0.115975
v -0.079244 0.294721 0.128031
v -0.090854 0.294820 0.140088
v -0.090400 0.225221 0.120228
v -0.086202 0.224435 0.132177
v -0.097890 0.225221 0.144127
v 0.105178 0.294525 -0.221598
v -0.000809 0.294525 -0.232269
v -0.106797 0.294525 -0.221598
v 0.108808 0.222862 -0.229197
v -0.000873 0.222862 -0.240272
v -0.110554 0.222862 -0.229197
v 0.100056 0.294820 0.140088
v 0.089542 0.294721 0.128031
v 0.094215 0.294820 0.115975
v 0.107131 0.225221 0.144127
v 0.096518 0.224435 0.132177
v 0.101020 0.225221 0.120228
v 0.305151 0.294525 -0.162132
v 0.335451 0.294524 -0.075770
v 0.334851 0.294525 0.010591
v 0.313345 0.222862 -0.166381
v 0.344466 0.222862 -0.077843
v 0.343860 0.222862 0.010694
v 0.273383 0.294525 -0.013527
v 0.273341 0.294525 -0.075770
v 0.248463 0.294525 -0.138014
v 0.282857 0.222862 -0.013241
v 0.282826 0.222862 -0.077843
v 0.257085 0.222862 -0.142446
v -0.219043 0.294537 0.071119
v -0.177680 0.294623 0.089221
v -0.136703 0.294807 0.098720
v -0.226752 0.222960 0.074605
v -0.184429 0.223648 0.093343
v -0.143172 0.225123 0.103064
v 0.268656 0.294537 0.127624
v 0.218512 0.294623 0.149858
v 0.168338 0.294807 0.155220
v 0.276011 0.222960 0.130681
v 0.225129 0.223648 0.153510
v 0.174973 0.225123 0.159103
vt 0.375000 0.312500
vt 0.375000 0.375000
vt 0.375000 0.312500
vt 0.374999 0.437500
vt 0.375000 0.375000
vt 0.374990 0.500000
vt 0.374990 0.437500
vt 0.375000 0.250000
vt 0.375000 0.250000
vt 0.154131 0.625000
vt 0.162382 0.591948
vt 0.162746 0.592181
vt 0.153977 0.658053
vt 0.153732 0.625000
vt 0.154374 0.657819
vt 0.161179 0.685439
vt 0.181868 0.564561
vt 0.182151 0.564987
vt 0.372004 0.948316
vt 0.366140 0.919938
vt 0.364857 0.919193
vt 0.374626 0.974811
vt 0.372450 0.948575
vt 0.375000 1.000000
vt 0.374681 0.974843
vt 0.352562 0.887081
vt 0.350777 0.886044
vt 0.316389 0.713934
vt 0.306083 0.722750
vt 0.307474 0.723582
vt 0.328288 0.702693
vt 0.316078 0.714041
vt 0.339325 0.685013
vt 0.328519 0.703180
vt 0.303481 0.735130
vt 0.305540 0.736621
vt 0.375000 0.125000
vt 0.375000 0.062500
vt 0.375000 0.062500
vt 0.375000 0.187500
vt 0.375000 0.125000
vt 0.375000 0.187500
vt 0.375000 0.000000
vt 0.375000 0.000000
vt 0.299938 0.809558
vt 0.268569 0.772226
vt 0.269104 0.773798
vt 0.328311 0.848397
vt 0.300181 0.809254
vt 0.329568 0.849072
vt 0.239181 0.745485
vt 0.238327 0.743342
vt 0.287105 0.548109
vt 0.250000 0.541897
vt 0.287260 0.547563
vt 0.212895 0.548109
vt 0.250000 0.542483
vt 0.212740 0.547563
vt 0.317849 0.564987
vt 0.318133 0.564561
vt 0.344195 0.798108
vt 0.327332 0.778973
vt 0.344985 0.800048
vt 0.327559 0.778681
vt 0.311759 0.755237
vt 0.313224 0.756286
vt 0.358849 0.808793
vt 0.360039 0.811562
vt 0.374971 0.562108
vt 0.374677 0.622333
vt 0.374768 0.562167
vt 0.374960 0.621866
vt 0.374768 0.678231
vt 0.374971 0.676889
vt 0.374919 0.726528
vt 0.374919 0.500000
vt 0.345977 0.625000
vt 0.346387 0.658053
vt 0.345992 0.657819
vt 0.337631 0.591948
vt 0.346376 0.625000
vt 0.337268 0.592181
vt 0.339683 0.685439
vt 0.173990 0.702830
vt 0.190781 0.714974
vt 0.173658 0.703296
vt 0.191209 0.715031
vt 0.212282 0.725993
vt 0.212991 0.727294
vt 0.161542 0.685013
vt 0.374749 0.762900
vt 0.373300 0.791560
vt 0.374777 0.764328
vt 0.373002 0.790401
vt 0.369092 0.808197
vt 0.368237 0.806149
vt 0.374990 0.724661
vt 0.375000 1.000000
vn -0.1122 0.1045 -0.9882
vn 0.1124 0.1039 -0.9882
vn 0.3786 0.1102 -0.9190
vn -0.3780 0.1118 -0.9190
vn 0.9214 -0.1350 0.3643
vn 0.9911 -0.1325 -0.0111
vn 0.9225 -0.1247 -0.3653
vn 0.6755 -0.1290 0.7260
vn -0.1021 0.0649 0.9927
vn -0.3915 0.0834 0.9164
vn -0.7221 0.1035 0.6840
vn 0.1165 0.0453 0.9922
vn -0.2390 -0.0826 -0.9675
vn -0.4216 -0.0926 -0.9020
vn -0.7121 -0.1103 -0.6934
vn -0.2234 -0.0826 -0.9712
vn -0.9919 0.1261 0.0126
vn -0.9364 0.1288 -0.3265
vn -0.7186 0.1240 -0.6843
vn -0.9348 0.1188 0.3347
vn 0.9344 -0.1120 -0.3382
vn 0.7199 -0.0304 0.6934
vn 0.3344 0.0209 0.9422
vn 0.4471 -0.0988 -0.8890
vn -0.0999 -0.1099 0.9889
vn 0.0996 -0.1105 0.9889
vn 0.3401 -0.1168 0.9331
vn -0.3411 -0.1150 0.9330
vn -0.7459 -0.0372 0.6650
vn -0.9273 -0.1131 -0.3568
vn -0.4619 -0.0990 -0.8814
vn -0.3518 0.0182 0.9359
vn 0.9358 0.1265 -0.3289
vn 0.9922 0.1246 0.0068
vn 0.9387 0.1185 0.3236
vn 0.7192 0.1216 -0.6840
vn -0.9914 -0.1311 0.0007
vn -0.9208 -0.1325 0.3669
vn -0.6766 -0.1263 0.7255
vn -0.9307 -0.1249 -0.3437
vn 0.4045 -0.0879 -0.9103
vn 0.2313 -0.0783 -0.9697
vn 0.2146 -0.0806 -0.9734
vn 0.6904 -0.1076 -0.7154
vn 0.4089 0.0808 0.9090
vn 0.1124 0.0615 0.9918
vn -0.1204 0.0438 0.9918
vn 0.7347 0.1036 0.6704
vn -0.1124 0.1041 -0.9882
vn 0.1123 0.1043 -0.9882
vn 0.3780 0.1112 -0.9191
vn -0.3786 0.1108 -0.9189
vn 0.9219 -0.1341 0.3634
vn 0.9911 -0.1325 -0.0110
vn 0.9221 -0.1253 -0.3661
vn 0.6767 -0.1275 0.7251
vn -0.1080 0.0610 0.9923
vn -0.3961 0.0798 0.9147
vn -0.7224 0.1031 0.6838
vn 0.1150 0.0445 0.9924
vn -0.2451 -0.0795 -0.9662
vn -0.4266 -0.0897 -0.9000
vn -0.7136 -0.1091 -0.6920
vn -0.2260 -0.0815 -0.9707
vn -0.9363 0.1281 -0.3271
vn -0.7193 0.1228 -0.6838
vn -0.9346 0.1193 0.3351
vn 0.9351 -0.1124 -0.3360
vn 0.7135 -0.0315 0.7000
vn 0.3337 0.0206 0.9425
vn 0.4494 -0.0982 -0.8879
vn -0.0996 -0.1103 0.9889
vn 0.0999 -0.1101 0.9889
vn 0.3411 -0.1156 0.9329
vn -0.3402 -0.1162 0.9332
vn -0.7530 -0.0360 0.6570
vn -0.9262 -0.1126 -0.3599
vn -0.4597 -0.0996 -0.8824
vn -0.3527 0.0184 0.9356
vn 0.9359 0.1272 -0.3284
vn 0.9922 0.1247 0.0069
vn 0.9389 0.1182 0.3234
vn 0.7185 0.1227 -0.6846
vn -0.9914 -0.1312 0.0005
vn -0.9203 -0.1335 0.3678
vn -0.6754 -0.1278 0.7263
vn -0.9310 -0.1244 -0.3432
vn 0.3994 -0.0910 -0.9122
vn 0.2254 -0.0815 -0.9709
vn 0.2121 -0.0816 -0.9738
vn 0.6886 -0.1091 -0.7169
vn 0.4040 0.0845 0.9108
vn 0.1063 0.0654 0.9922
vn -0.1219 0.0446 0.9915
vn 0.7343 0.1041 0.6708
usemtl Material
s off
f 25/1/1 29/2/1 28/3/1
f 27/4/2 29/2/2 26/5/2
f 15/6/3 30/7/3 27/4/3
f 7/8/4 28/3/4 8/9/4
f 32/10/5 34/11/5 31/12/5
f 32/10/6 36/13/6 35/14/6
f 33/15/7 12/16/7 36/13/7
f 31/12/8 13/17/8 14/18/8
f 38/19/9 40/20/9 37/21/9
f 39/22/10 41/23/10 38/19/10
f 6/24/11 42/25/11 39/22/11
f 37/21/12 9/26/12 10/27/12
f 44/28/13 46/29/13 43/30/13
f 45/31/14 47/32/14 44/28/14
f 3/33/15 48/34/15 45/31/15
f 43/30/16 1/35/16 2/36/16
f 50/37/17 52/38/17 49/39/17
f 51/40/18 53/41/18 50/37/18
f 51/40/19 8/9/19 54/42/19
f 49/39/20 5/43/20 6/44/20
f 56/45/21 58/46/21 55/47/21
f 57/48/22 59/49/22 56/45/22
f 10/27/23 60/50/23 57/48/23
f 18/51/24 58/46/24 17/52/24
f 61/53/25 65/54/25 64/55/25
f 63/56/26 65/54/26 62/57/26
f 14/18/27 66/58/27 63/56/27
f 20/59/28 64/55/28 19/60/28
f 67/61/29 71/62/29 70/63/29
f 68/64/30 72/65/30 71/62/30
f 2/36/31 72/65/31 69/66/31
f 22/67/32 70/63/32 21/68/32
f 73/69/33 77/70/33 76/71/33
f 74/72/34 78/73/34 77/70/34
f 75/74/35 24/75/35 78/73/35
f 73/69/36 16/76/36 15/6/36
f 80/77/37 82/78/37 79/79/37
f 80/77/38 84/80/38 83/81/38
f 81/82/39 19/60/39 84/80/39
f 79/79/40 4/83/40 3/33/40
f 85/84/41 89/85/41 88/86/41
f 86/87/42 90/88/42 89/85/42
f 87/89/43 17/52/43 90/88/43
f 11/90/44 88/86/44 12/16/44
f 91/91/45 95/92/45 94/93/45
f 92/94/46 96/95/46 95/92/46
f 93/96/47 21/68/47 96/95/47
f 23/97/48 94/93/48 24/75/48
f 25/1/49 26/5/49 29/2/49
f 27/4/50 30/7/50 29/2/50
f 15/6/51 16/76/51 30/7/51
f 7/8/52 25/1/52 28/3/52
f 32/10/53 35/14/53 34/11/53
f 32/10/54 33/15/54 36/13/54
f 33/15/55 11/90/55 12/16/55
f 31/12/56 34/11/56 13/17/56
f 38/19/57 41/23/57 40/20/57
f 39/22/58 42/25/58 41/23/58
f 6/24/59 5/98/59 42/25/59
f 37/21/60 40/20/60 9/26/60
f 44/28/61 47/32/61 46/29/61
f 45/31/62 48/34/62 47/32/62
f 3/33/63 4/83/63 48/34/63
f 43/30/64 46/29/64 1/35/64
f 50/37/17 53/41/17 52/38/17
f 51/40/65 54/42/65 53/41/65
f 51/40/66 7/8/66 8/9/66
f 49/39/67 52/38/67 5/43/67
f 56/45/68 59/49/68 58/46/68
f 57/48/69 60/50/69 59/49/69
f 10/27/70 9/26/70 60/50/70
f 18/51/71 55/47/71 58/46/71
f 61/53/72 62/57/72 65/54/72
f 63/56/73 66/58/73 65/54/73
f 14/18/74 13/17/74 66/58/74
f 20/59/75 61/53/75 64/55/75
f 67/61/76 68/64/76 71/62/76
f 68/64/77 69/66/77 72/65/77
f 2/36/78 1/35/78 72/65/78
f 22/67/79 67/61/79 70/63/79
f 73/69/80 74/72/80 77/70/80
f 74/72/81 75/74/81 78/73/81
f 75/74/82 23/97/82 24/75/82
f 73/69/83 76/71/83 16/76/83
f 80/77/84 83/81/84 82/78/84
f 80/77/85 81/82/85 84/80/85
f 81/82/86 20/59/86 19/60/86
f 79/79/87 82/78/87 4/83/87
f 85/84/88 86/87/88 89/85/88
f 86/87/89 87/89/89 90/88/89
f 87/89/90 18/51/90 17/52/90
f 11/90/91 85/84/91 88/86/91
f 91/91/92 92/94/92 95/92/92
f 92/94/93 93/96/93 96/95/93
f 93/96/94 22/67/94 21/68/94
f 23/97/95 91/91/95 94/93/95
