# Blender v3.1.2 OBJ File: ''
# www.blender.org
mtllib OctopusEyes.mtl
o Black_Icosphere
v 0.508298 0.040270 0.761079
v 0.514513 -0.000598 0.652902
v 0.552859 -0.020270 0.760776
v 0.495304 -0.017688 0.768699
v 0.462316 -0.017688 0.708758
v 0.520061 -0.063092 0.716026
v 0.492981 0.055497 0.701796
v 0.576493 0.028216 0.716026
v 0.570023 -0.020030 0.686776
v -0.567802 0.037696 0.716026
v -0.546005 -0.007212 0.771587
v -0.472969 -0.030624 0.688783
v -0.530065 -0.059559 0.708758
v -0.528503 0.011274 0.652191
v -0.498159 0.055497 0.737383
v -0.461911 0.015252 0.708972
v -0.578211 -0.015252 0.708972
v -0.492943 -0.030053 0.761431
vt 0.727273 0.000000
vt 0.572377 0.139429
vt 0.809435 0.168881
vt 0.681408 0.288606
vt 0.237001 0.093477
vt 0.151765 0.234117
vt 0.341334 0.274305
vt 0.523152 0.274305
vt 0.551556 0.139429
vt 0.272728 0.393651
vt 0.014940 0.289045
vt 0.089534 0.419556
vt 0.818182 0.393651
vt 0.893102 0.289045
vt 0.648662 0.412450
vt 0.455640 0.420043
vt 0.849278 0.155078
vt 1.000000 0.157461
vt 0.932126 0.039899
vt 0.909091 0.000000
vt 0.967978 0.189565
vt 0.831053 0.137153
vt 0.521965 0.093477
vt 0.499129 0.313928
vt 0.341263 0.196907
vt 0.123710 0.211412
vt 0.288262 0.309030
vt 0.249693 0.432483
vt 0.000000 0.314921
vt 0.078612 0.412450
vt 0.653853 0.251332
vt 0.840556 0.275475
vt 0.818182 0.393651
vt 0.386673 0.354820
vt 0.454546 0.472382
vt 0.568490 0.354820
vt 0.659813 0.431766
vt 0.704237 0.039899
vt 0.205268 0.040616
vn -0.4110 0.8749 -0.2563
vn -0.1832 0.6687 0.7206
vn 0.8495 0.5275 -0.0040
vn 0.5923 -0.3182 0.7403
vn -0.0947 0.0091 -0.9955
vn -0.9568 -0.2577 -0.1345
vn -0.4578 -0.2828 0.8429
vn -0.0092 -0.9991 -0.0419
vn 0.7959 -0.3549 -0.4905
vn 0.3169 0.8907 0.3261
vn -0.1143 0.2059 -0.9719
vn -0.7176 0.6964 -0.0025
vn 0.4730 -0.4590 0.7520
vn 0.9393 0.3247 -0.1108
vn 0.7181 -0.5212 -0.4611
vn -0.1911 -0.9719 -0.1374
vn -0.9398 -0.3116 -0.1400
vn -0.4149 -0.0846 0.9059
usemtl Material.001
s 1
f 7/1/1 1/2/2 8/3/3
f 1/2/2 3/4/4 8/3/3
f 7/5/1 2/6/5 5/7/6
f 1/2/2 4/8/7 3/4/4
f 1/9/2 5/7/6 4/8/7
f 2/6/5 6/10/8 5/7/6
f 9/11/9 6/12/8 2/6/5
f 3/4/4 6/13/8 9/14/9
f 4/8/7 6/15/8 3/4/4
f 5/7/6 6/16/8 4/8/7
f 8/3/3 3/4/4 9/14/9
f 8/17/3 9/14/9 2/18/5
f 7/5/1 5/7/6 1/9/2
f 7/19/1 8/17/3 2/18/5
f 15/20/10 14/21/11 10/22/12
f 15/23/10 18/24/13 16/25/14
f 14/26/11 12/27/15 13/28/16
f 17/29/17 14/26/11 13/30/16
f 11/31/18 17/32/17 13/33/16
f 12/34/15 18/24/13 13/35/16
f 18/36/13 11/31/18 13/37/16
f 16/25/14 18/24/13 12/27/15
f 18/24/13 15/23/10 11/31/18
f 11/31/18 10/22/12 17/32/17
f 17/32/17 10/22/12 14/21/11
f 14/26/11 16/25/14 12/27/15
f 15/38/10 10/22/12 11/31/18
f 15/39/10 16/25/14 14/26/11
