# Blender v3.1.2 OBJ File: ''
# www.blender.org
mtllib orem1.mtl
o Cube.006
v 0.404543 0.916023 -0.439979
v 0.977460 0.916023 0.132938
v 0.977460 0.916023 -0.439979
v 0.404543 0.343106 0.132938
v 0.977460 0.343106 0.132938
v 0.404543 0.916023 0.132938
v 0.404543 0.343106 -0.439979
v 0.977460 0.343106 -0.439979
v -0.286459 0.916023 0.320641
v 0.286459 0.916023 0.893558
v 0.286459 0.916023 0.320641
v -0.286459 0.343106 0.893558
v 0.286459 0.343106 0.893558
v -0.286459 0.916023 0.893558
v -0.286459 0.343106 0.320641
v 0.286459 0.343106 0.320641
v -0.657044 0.916023 -0.616330
v -0.084127 0.916023 -0.043412
v -0.084127 0.916023 -0.616330
v -0.657044 0.343106 -0.043412
v -0.084127 0.343106 -0.043412
v -0.657044 0.916023 -0.043412
v -0.657044 0.343106 -0.616330
v -0.084127 0.343106 -0.616330
vt 0.875000 0.500000
vt 0.625000 0.750000
vt 0.625000 0.500000
vt 0.375000 1.000000
vt 0.375000 0.750000
vt 0.625000 0.000000
vt 0.375000 0.250000
vt 0.375000 0.000000
vt 0.375000 0.500000
vt 0.125000 0.750000
vt 0.125000 0.500000
vt 0.625000 0.250000
vt 0.875000 0.500000
vt 0.625000 0.750000
vt 0.625000 0.500000
vt 0.375000 1.000000
vt 0.375000 0.750000
vt 0.625000 0.000000
vt 0.375000 0.250000
vt 0.375000 0.000000
vt 0.375000 0.500000
vt 0.125000 0.750000
vt 0.125000 0.500000
vt 0.625000 0.250000
vt 0.875000 0.500000
vt 0.625000 0.750000
vt 0.625000 0.500000
vt 0.375000 1.000000
vt 0.375000 0.750000
vt 0.625000 0.000000
vt 0.375000 0.250000
vt 0.375000 0.000000
vt 0.375000 0.500000
vt 0.125000 0.750000
vt 0.125000 0.500000
vt 0.625000 0.250000
vt 0.875000 0.750000
vt 0.625000 1.000000
vt 0.875000 0.750000
vt 0.625000 1.000000
vt 0.875000 0.750000
vt 0.625000 1.000000
vn 0.0000 1.0000 0.0000
vn 0.0000 -0.0000 1.0000
vn -1.0000 0.0000 0.0000
vn 0.0000 -1.0000 -0.0000
vn 1.0000 0.0000 0.0000
vn 0.0000 0.0000 -1.0000
usemtl Material.004
s 1
f 1/1/1 2/2/1 3/3/1
f 2/2/2 4/4/2 5/5/2
f 6/6/3 7/7/3 4/8/3
f 8/9/4 4/10/4 7/11/4
f 3/3/5 5/5/5 8/9/5
f 1/12/6 8/9/6 7/7/6
f 9/13/1 10/14/1 11/15/1
f 10/14/2 12/16/2 13/17/2
f 14/18/3 15/19/3 12/20/3
f 16/21/4 12/22/4 15/23/4
f 11/15/5 13/17/5 16/21/5
f 9/24/6 16/21/6 15/19/6
f 17/25/1 18/26/1 19/27/1
f 18/26/2 20/28/2 21/29/2
f 22/30/3 23/31/3 20/32/3
f 24/33/4 20/34/4 23/35/4
f 19/27/5 21/29/5 24/33/5
f 17/36/6 24/33/6 23/31/6
f 1/1/1 6/37/1 2/2/1
f 2/2/2 6/38/2 4/4/2
f 6/6/3 1/12/3 7/7/3
f 8/9/4 5/5/4 4/10/4
f 3/3/5 2/2/5 5/5/5
f 1/12/6 3/3/6 8/9/6
f 9/13/1 14/39/1 10/14/1
f 10/14/2 14/40/2 12/16/2
f 14/18/3 9/24/3 15/19/3
f 16/21/4 13/17/4 12/22/4
f 11/15/5 10/14/5 13/17/5
f 9/24/6 11/15/6 16/21/6
f 17/25/1 22/41/1 18/26/1
f 18/26/2 22/42/2 20/28/2
f 22/30/3 17/36/3 23/31/3
f 24/33/4 21/29/4 20/34/4
f 19/27/5 18/26/5 21/29/5
f 17/36/6 19/27/6 24/33/6
