# Blender v3.1.2 OBJ File: ''
# www.blender.org
mtllib PidKlayner(l).mtl
o Plane
v -0.300346 1.265463 0.343728
v -0.112974 1.265463 0.343728
v -0.114346 1.452835 0.343728
v -0.301032 1.451463 0.343728
v -0.113371 1.319676 0.343728
v -0.300546 1.319691 0.343728
v -0.113934 1.396553 0.343728
v -0.300827 1.395869 0.343728
v -0.241722 1.319687 0.343728
v -0.242288 1.396083 0.343728
v -0.241320 1.265463 0.343728
v -0.242701 1.451891 0.343728
v -0.167878 1.452442 0.343728
v -0.167393 1.319681 0.343728
v -0.167195 1.265463 0.343728
v -0.167673 1.396356 0.343728
v 0.158853 1.473799 0.343728
v 0.162250 1.266150 0.343728
v 0.104597 1.361551 0.343728
v 0.222649 1.362238 0.343728
v -0.289639 1.190954 0.343728
v -0.064298 1.132642 0.343728
v 0.062209 1.133630 0.343728
v 0.279643 1.213685 0.343728
v 0.182786 1.056540 0.343728
v 0.008839 0.997240 0.343728
v -0.177957 1.045668 0.343728
v -0.247792 1.180125 0.343728
v -0.233149 1.160453 0.343728
v -0.166097 1.070377 0.343728
v -0.143365 1.134619 0.343728
v -0.125586 1.134174 0.343728
v -0.151272 1.064447 0.343728
v -0.149399 1.069530 0.343728
v -0.027730 1.122758 0.343728
v -0.134470 1.062470 0.343728
v -0.020811 1.112875 0.343728
v -0.045520 1.038750 0.343728
v -0.007424 1.109171 0.343728
v 0.008519 1.104759 0.343728
v -0.004010 1.119793 0.343728
v -0.030695 1.036773 0.343728
v 0.060232 1.042703 0.343728
v 0.009827 1.017995 0.343728
v 0.008839 1.018983 0.343728
v 0.038654 1.096421 0.343728
v 0.094681 1.080919 0.343728
v 0.078349 1.044749 0.343728
v 0.020699 1.119793 0.343728
v 0.075057 1.119793 0.343728
v 0.122497 1.142525 0.343728
v 0.121964 1.073369 0.343728
v 0.167237 1.060842 0.343728
v 0.114142 1.048790 0.343728
v 0.145229 1.146479 0.343728
v 0.178832 1.088167 0.343728
v 0.236817 1.197918 0.343728
v 0.190692 1.109910 0.343728
v 0.165984 1.156362 0.343728
v 0.237144 1.185024 0.343728
v -0.300346 1.265463 0.339976
v -0.112974 1.265463 0.339976
v -0.114346 1.452835 0.339976
v -0.301032 1.451463 0.339976
v -0.113371 1.319676 0.339976
v -0.300546 1.319691 0.339976
v -0.113934 1.396553 0.339976
v -0.300827 1.395869 0.339976
v -0.241722 1.319687 0.339976
v -0.242288 1.396083 0.339976
v -0.241320 1.265463 0.339976
v -0.242701 1.451891 0.339976
v -0.167878 1.452442 0.339976
v -0.167393 1.319681 0.339976
v -0.167195 1.265463 0.339976
v -0.167673 1.396356 0.339976
v 0.158853 1.473799 0.339976
v 0.162250 1.266150 0.339976
v 0.104597 1.361551 0.339976
v 0.222649 1.362238 0.339976
v -0.289639 1.190954 0.339976
v -0.064298 1.132642 0.339976
v 0.062209 1.133630 0.339976
v 0.279643 1.213685 0.339976
v 0.182786 1.056540 0.339976
v 0.008839 0.997240 0.339976
v -0.177957 1.045668 0.339976
v -0.247792 1.180125 0.339976
v -0.233149 1.160453 0.339976
v -0.166097 1.070377 0.339976
v -0.143365 1.134619 0.339976
v -0.125586 1.134174 0.339976
v -0.151272 1.064447 0.339976
v -0.149399 1.069530 0.339976
v -0.027730 1.122758 0.339976
v -0.134470 1.062470 0.339976
v -0.020811 1.112875 0.339976
v -0.045520 1.038750 0.339976
v -0.007424 1.109171 0.339976
v 0.008519 1.104759 0.339976
v -0.004010 1.119793 0.339976
v -0.030695 1.036773 0.339976
v 0.060232 1.042703 0.339976
v 0.009677 1.021744 0.343728
v 0.008839 1.018983 0.339976
v 0.038654 1.096421 0.339976
v 0.094681 1.080919 0.339976
v 0.078349 1.044749 0.339976
v 0.020699 1.119793 0.339976
v 0.075057 1.119793 0.339976
v 0.122497 1.142525 0.339976
v 0.121964 1.073369 0.339976
v 0.167237 1.060842 0.339976
v 0.114142 1.048790 0.339976
v 0.145229 1.146479 0.339976
v 0.178832 1.088167 0.339976
v 0.236817 1.197918 0.339976
v 0.190692 1.109910 0.339976
v 0.165984 1.156362 0.339976
v 0.237144 1.185024 0.339976
vt 0.347617 0.751098
vt 0.276278 0.750573
vt 0.276551 0.675832
vt 0.348167 0.676094
vt 0.348917 0.573645
vt 0.276925 0.573650
vt 0.277189 0.501398
vt 0.349446 0.501398
vt 0.178407 0.501398
vt 0.177871 0.573658
vt 0.099480 0.573665
vt 0.099747 0.501398
vt 0.177117 0.675468
vt 0.176566 0.749840
vt 0.098832 0.749268
vt 0.099105 0.675183
vt 0.711694 0.779035
vt 0.639391 0.629449
vt 0.716222 0.502313
vt 0.796711 0.630364
vt 0.114015 0.402103
vt 0.262847 0.208490
vt 0.320799 0.230881
vt 0.472266 0.298053
vt 0.490106 0.293116
vt 0.494657 0.307272
vt 0.511352 0.287238
vt 0.551511 0.276125
vt 0.527584 0.307272
vt 0.600024 0.307272
vt 0.663245 0.337566
vt 0.626175 0.255466
vt 0.662535 0.245405
vt 0.693538 0.342834
vt 0.738320 0.265125
vt 0.754125 0.294101
vt 0.721197 0.356005
vt 0.815593 0.411384
vt 0.582902 0.325712
vt 0.414314 0.324395
vt 0.332639 0.326436
vt 0.463046 0.311224
vt 0.300905 0.240290
vt 0.298409 0.233515
vt 0.308946 0.327029
vt 0.278652 0.241417
vt 0.189296 0.361457
vt 0.169781 0.387673
vt 0.743588 0.222978
vt 0.722867 0.228712
vt 0.652111 0.212650
vt 0.459095 0.196636
vt 0.439338 0.199270
vt 0.580268 0.204539
vt 0.511779 0.172928
vt 0.511779 0.143952
vt 0.604411 0.207265
vt 0.816028 0.394201
vt 0.872664 0.432397
vt 0.347617 0.751098
vt 0.348167 0.676094
vt 0.276551 0.675832
vt 0.276278 0.750573
vt 0.348917 0.573645
vt 0.349446 0.501398
vt 0.277189 0.501398
vt 0.276925 0.573650
vt 0.178407 0.501398
vt 0.099747 0.501398
vt 0.099480 0.573665
vt 0.177871 0.573658
vt 0.177117 0.675468
vt 0.099105 0.675183
vt 0.098832 0.749268
vt 0.176566 0.749840
vt 0.711694 0.779035
vt 0.796711 0.630364
vt 0.716222 0.502313
vt 0.639391 0.629449
vt 0.114015 0.402103
vt 0.169781 0.387673
vt 0.189296 0.361457
vt 0.278652 0.241417
vt 0.308946 0.327029
vt 0.298409 0.233515
vt 0.300905 0.240290
vt 0.463046 0.311224
vt 0.332639 0.326436
vt 0.414314 0.324395
vt 0.582902 0.325712
vt 0.815593 0.411384
vt 0.721197 0.356005
vt 0.754125 0.294101
vt 0.738320 0.265125
vt 0.693538 0.342834
vt 0.662535 0.245405
vt 0.626175 0.255466
vt 0.663245 0.337566
vt 0.600024 0.307272
vt 0.527584 0.307272
vt 0.551511 0.276125
vt 0.511352 0.287238
vt 0.494657 0.307272
vt 0.490106 0.293116
vt 0.472266 0.298053
vt 0.320799 0.230881
vt 0.262847 0.208490
vt 0.743588 0.222978
vt 0.652111 0.212650
vt 0.722867 0.228712
vt 0.439338 0.199270
vt 0.459095 0.196636
vt 0.580268 0.204539
vt 0.604411 0.207265
vt 0.511779 0.143952
vt 0.511779 0.172928
vt 0.872664 0.432397
vt 0.816028 0.394201
vn -0.0000 0.0000 1.0000
vn 0.0000 0.0000 -1.0000
vn 0.0000 -1.0000 0.0000
vn 1.0000 0.0073 0.0000
vn -0.0074 1.0000 0.0000
vn -1.0000 -0.0037 0.0000
vn 0.0001 1.0000 0.0000
vn 0.0037 -1.0000 0.0000
vn -0.0037 1.0000 0.0000
vn 1.0000 0.0074 0.0000
vn -1.0000 -0.0074 0.0000
vn -0.0001 -1.0000 0.0000
vn 1.0000 0.0037 0.0000
vn -0.8559 -0.5172 0.0000
vn -0.9003 0.4352 0.0000
vn 0.8681 0.4964 0.0000
vn 0.8466 -0.5322 0.0000
vn 0.2505 0.9681 0.0000
vn -0.0078 1.0000 0.0000
vn -0.3455 0.9384 0.0000
vn 0.8513 -0.5247 0.0000
vn 0.3227 -0.9465 0.0000
vn -0.2510 -0.9680 0.0000
vn -0.7928 -0.6094 0.0000
vn 0.8022 0.5971 0.0000
vn -0.9427 0.3336 0.0000
vn -0.2765 -0.9610 0.0000
vn 0.9384 -0.3457 0.0000
vn -0.1159 -0.9933 0.0000
vn -0.4008 0.9162 0.0000
vn 0.4054 -0.9141 0.0000
vn -0.9487 0.3162 0.0000
vn 0.2577 0.9662 0.0000
vn 0.9520 -0.3060 0.0000
vn -0.7682 -0.6402 0.0000
vn 0.4104 0.9119 0.0000
vn -0.4191 0.9080 0.0000
vn 0.7930 0.6092 0.0000
vn 0.4321 -0.9018 0.0000
vn -0.9114 0.4115 0.0000
vn 0.9529 -0.3032 0.0000
vn -0.8664 -0.4993 0.0000
vn -0.9205 0.3906 0.0000
vn -0.2214 0.9752 0.0000
vn 0.8829 0.4696 0.0000
vn 0.3736 -0.9276 0.0000
vn -0.8505 0.5260 0.0000
usemtl None
s off
f 3/1/1 13/2/1 16/3/1 7/4/1
f 5/5/1 14/6/1 15/7/1 2/8/1
f 11/9/1 9/10/1 6/11/1 1/12/1
f 10/13/1 12/14/1 4/15/1 8/16/1
f 14/6/1 16/3/1 10/13/1 9/10/1
f 17/17/1 19/18/1 18/19/1 20/20/1
f 21/21/1 27/22/1 36/23/1 37/24/1 39/25/1 41/26/1 40/27/1 46/28/1 49/29/1 50/30/1 51/31/1 47/32/1 52/33/1 55/34/1 56/35/1 58/36/1 59/37/1 57/38/1 23/39/1 22/40/1 32/41/1 35/42/1 34/43/1 33/44/1 31/45/1 30/46/1 29/47/1 28/48/1
f 28/48/1 29/47/1 22/40/1
f 29/47/1 31/45/1 32/41/1 22/40/1
f 31/45/1 33/44/1 34/43/1 32/41/1
f 25/49/1 53/50/1 54/51/1
f 27/22/1 42/52/1 39/25/1 37/24/1 38/53/1 36/23/1
f 43/54/1 45/55/1 42/52/1 27/22/1 26/56/1 25/49/1 54/51/1 48/57/1
f 46/28/1 40/27/1 43/54/1 48/57/1
f 52/33/1 47/32/1 48/57/1 54/51/1
f 57/38/1 59/37/1 60/58/1 58/36/1 56/35/1 53/50/1 25/49/1 24/59/1
f 63/60/2 67/61/2 76/62/2 73/63/2
f 65/64/2 62/65/2 75/66/2 74/67/2
f 71/68/2 61/69/2 66/70/2 69/71/2
f 70/72/2 68/73/2 64/74/2 72/75/2
f 74/67/2 69/71/2 70/72/2 76/62/2
f 77/76/2 80/77/2 78/78/2 79/79/2
f 81/80/2 88/81/2 89/82/2 90/83/2 91/84/2 93/85/2 94/86/2 95/87/2 92/88/2 82/89/2 83/90/2 117/91/2 119/92/2 118/93/2 116/94/2 115/95/2 112/96/2 107/97/2 111/98/2 110/99/2 109/100/2 106/101/2 100/102/2 101/103/2 99/104/2 97/105/2 96/106/2 87/107/2
f 88/81/2 82/89/2 89/82/2
f 89/82/2 82/89/2 92/88/2 91/84/2
f 91/84/2 92/88/2 94/86/2 93/85/2
f 85/108/2 114/109/2 113/110/2
f 87/107/2 96/106/2 98/111/2 97/105/2 99/104/2 102/112/2
f 103/113/2 108/114/2 114/109/2 85/108/2 86/115/2 87/107/2 102/112/2 105/116/2
f 106/101/2 108/114/2 103/113/2 100/102/2
f 112/96/2 114/109/2 108/114/2 107/97/2
f 117/91/2 84/117/2 85/108/2 113/110/2 116/94/2 118/93/2 120/118/2 119/92/2
f 2/8/3 15/7/3 75/66/3 62/65/3
f 3/1/4 7/4/4 67/61/4 63/60/4
f 4/15/5 12/14/5 72/75/5 64/74/5
f 1/12/6 6/11/6 66/70/6 61/69/6
f 5/5/4 2/8/4 62/65/4 65/64/4
f 14/6/7 5/5/7 65/64/7 74/67/7
f 8/16/6 4/15/6 64/74/6 68/73/6
f 10/13/8 8/16/8 68/73/8 70/72/8
f 6/11/7 9/10/7 69/71/7 66/70/7
f 10/13/9 16/3/9 76/62/9 70/72/9
f 11/9/3 1/12/3 61/69/3 71/68/3
f 9/10/10 11/9/10 71/68/10 69/71/10
f 9/10/11 10/13/11 70/72/11 69/71/11
f 12/14/10 10/13/10 70/72/10 72/75/10
f 13/2/5 3/1/5 63/60/5 73/63/5
f 14/6/12 9/10/12 69/71/12 74/67/12
f 7/4/8 16/3/8 76/62/8 67/61/8
f 15/7/6 14/6/6 74/67/6 75/66/6
f 16/3/13 14/6/13 74/67/13 76/62/13
f 16/3/6 13/2/6 73/63/6 76/62/6
f 18/19/14 19/18/14 79/79/14 78/78/14
f 19/18/15 17/17/15 77/76/15 79/79/15
f 17/17/16 20/20/16 80/77/16 77/76/16
f 20/20/17 18/19/17 78/78/17 80/77/17
f 28/48/18 22/40/18 82/89/18 88/81/18
f 22/40/19 23/39/19 83/90/19 82/89/19
f 57/38/20 24/59/20 84/117/20 117/91/20
f 24/59/21 25/49/21 85/108/21 84/117/21
f 25/49/22 26/56/22 86/115/22 85/108/22
f 26/56/23 27/22/23 87/107/23 86/115/23
f 27/22/24 21/21/24 81/80/24 87/107/24
f 21/21/18 28/48/18 88/81/18 81/80/18
f 29/47/25 30/46/25 90/83/25 89/82/25
f 30/46/26 31/45/26 91/84/26 90/83/26
f 31/45/27 29/47/27 89/82/27 91/84/27
f 32/41/28 34/43/28 94/86/28 92/88/28
f 35/42/29 32/41/29 92/88/29 95/87/29
f 34/43/30 35/42/30 95/87/30 94/86/30
f 37/24/31 36/23/31 96/106/31 97/105/31
f 38/53/32 37/24/32 97/105/32 98/111/32
f 36/23/33 38/53/33 98/111/33 96/106/33
f 41/26/34 39/25/34 99/104/34 101/103/34
f 40/27/35 41/26/35 101/103/35 100/102/35
f 39/25/34 42/52/34 102/112/34 99/104/34
f 43/54/35 40/27/35 100/102/35 103/113/35
f 42/52/36 45/55/36 105/116/36 102/112/36
f 45/55/37 43/54/37 103/113/37 105/116/37
f 49/29/38 46/28/38 106/101/38 109/100/38
f 50/30/3 49/29/3 109/100/3 110/99/3
f 51/31/39 50/30/39 110/99/39 111/98/39
f 47/32/40 51/31/40 111/98/40 107/97/40
f 46/28/38 48/57/38 108/114/38 106/101/38
f 48/57/40 47/32/40 107/97/40 108/114/40
f 55/34/41 52/33/41 112/96/41 115/95/41
f 56/35/42 55/34/42 115/95/42 116/94/42
f 53/50/43 56/35/43 116/94/43 113/110/43
f 52/33/41 54/51/41 114/109/41 112/96/41
f 54/51/44 53/50/44 113/110/44 114/109/44
f 23/39/20 57/38/20 117/91/20 83/90/20
f 59/37/45 58/36/45 118/93/45 119/92/45
f 60/58/46 59/37/46 119/92/46 120/118/46
f 58/36/47 60/58/47 120/118/47 118/93/47
