# Blender v3.1.2 OBJ File: ''
# www.blender.org
mtllib pompomporn(lw).mtl
o Plane
v -0.201044 1.114166 0.217533
v -0.128758 1.073063 0.217533
v -0.002613 1.040463 0.217533
v 0.106524 1.069283 0.217533
v 0.186369 1.121726 0.217533
v 0.149045 0.997943 0.217533
v -0.004975 0.936996 0.217533
v -0.141987 0.992273 0.217533
v -0.181201 1.089126 0.217533
v -0.139625 1.005974 0.217533
v -0.126868 1.060779 0.217533
v -0.120727 1.053692 0.217533
v -0.131121 0.997943 0.217533
v -0.057890 0.965343 0.217533
v -0.047166 0.959598 0.217533
v -0.113167 1.051330 0.217533
v -0.028598 1.039046 0.217533
v -0.024346 1.031959 0.217533
v -0.039937 0.963453 0.217533
v -0.005448 0.943610 0.217533
v 0.039908 0.962036 0.217533
v -0.003346 1.033203 0.217533
v 0.060711 1.018381 0.217533
v 0.073452 1.053220 0.217533
v -0.015369 1.030069 0.217533
v 0.043215 0.970540 0.217533
v 0.066832 1.016965 0.217533
v 0.133230 1.001602 0.217533
v 0.079594 1.052275 0.217533
v 0.141958 1.004557 0.217533
v 0.051247 0.973847 0.217533
v 0.088098 1.054165 0.217533
v 0.107941 1.056999 0.217533
v 0.147155 1.087236 0.217533
v 0.146210 1.013061 0.217533
v 0.146380 1.026348 0.217533
v 0.153090 1.092456 0.217533
v 0.153297 1.037629 0.217533
v 0.175157 1.107579 0.217533
v 0.021561 1.146469 0.234158
v 0.020899 1.167050 0.234158
v 0.014800 1.156237 0.234158
v 0.003988 1.156515 0.234158
v 0.005096 1.137385 0.234158
v 0.022382 1.169120 0.234158
v 0.027864 1.136843 0.234158
v 0.042247 1.138217 0.234158
v 0.123478 1.127405 0.234158
v 0.145103 1.183407 0.234158
v 0.083001 1.183130 0.234158
v 0.071080 1.144593 0.234158
v 0.095477 1.163723 0.234158
v 0.079674 1.137662 0.234158
v 0.059158 1.141821 0.234158
v 0.069416 1.185902 0.234158
v 0.104071 1.195051 0.234158
v 0.158687 1.189506 0.234158
v 0.140112 1.121028 0.234158
v 0.057772 1.121860 0.234158
v -0.029249 1.146469 0.234158
v -0.028587 1.167050 0.234158
v -0.022488 1.156237 0.234158
v -0.011675 1.156515 0.234158
v -0.012784 1.137385 0.234158
v -0.030070 1.169119 0.234158
v -0.035552 1.136843 0.234158
v -0.049934 1.138217 0.234158
v -0.131166 1.127405 0.234158
v -0.152790 1.183407 0.234158
v -0.090689 1.183130 0.234158
v -0.078767 1.144593 0.234158
v -0.103164 1.163723 0.234158
v -0.087362 1.137662 0.234158
v -0.066846 1.141821 0.234158
v -0.077104 1.185902 0.234158
v -0.111759 1.195051 0.234158
v -0.166375 1.189506 0.234158
v -0.147800 1.121028 0.234158
v -0.065460 1.121860 0.234158
vt 0.442420 0.259190
vt 0.502863 0.262487
vt 0.213835 0.309743
vt 0.209439 0.338316
vt 0.374284 0.087751
vt 0.203944 0.163580
vt 0.178668 0.150392
vt 0.452311 0.242706
vt 0.601770 0.080059
vt 0.473191 0.238310
vt 0.245705 0.287763
vt 0.399230 0.074387
vt 0.496269 0.037199
vt 0.497368 0.021813
vt 0.839148 0.178966
vt 0.855632 0.163580
vt 0.849038 0.198747
vt 0.865523 0.255893
vt 0.851236 0.371285
vt 0.849432 0.229653
vt 0.680410 0.623989
vt 0.594691 0.401997
vt 0.660629 0.376721
vt 0.680410 0.623989
vt 0.734260 0.648166
vt 0.660629 0.376721
vt 0.087453 0.375681
vt 0.041297 0.433926
vt 0.184163 0.182263
vt 0.228121 0.293258
vt 0.679797 0.292159
vt 0.713865 0.294357
vt 0.756725 0.329524
vt 0.760022 0.300951
vt 0.865040 0.383426
vt 0.942451 0.451510
vt 0.501158 0.245599
vt 0.628146 0.107533
vt 0.818844 0.172092
vt 0.664397 0.207829
vt 0.650161 0.211123
vt 0.416045 0.083355
vt 0.609463 0.099840
vt 0.916370 0.418604
vt 0.694084 0.289961
vt 0.190698 0.477567
vt 0.215681 0.439411
vt 0.272693 0.444857
vt 0.334235 0.380018
vt 0.734260 0.648166
vt 0.517763 0.670146
vt 0.380392 0.633880
vt 0.434241 0.622890
vt 0.421054 0.442659
vt 0.483695 0.545962
vt 0.386986 0.470133
vt 0.339730 0.459144
vt 0.121035 0.517389
vt 0.125431 0.441560
vt 0.163895 0.516290
vt 0.193952 0.567354
vt 0.188072 0.559150
vt 0.334235 0.380018
vt 0.215681 0.439411
vt 0.272693 0.444857
vt 0.190698 0.477567
vt 0.125431 0.441560
vt 0.163895 0.516290
vt 0.121035 0.517389
vt 0.188072 0.559150
vt 0.193952 0.567354
vt 0.380392 0.633880
vt 0.517763 0.670146
vt 0.434241 0.622890
vt 0.386986 0.470133
vt 0.483695 0.545962
vt 0.421054 0.442659
vt 0.339730 0.459144
vt 0.594691 0.401997
vn 0.0000 0.0000 1.0000
usemtl Material.002
s off
f 17/1/1 3/2/1 11/3/1
f 11/3/1 3/2/1 2/4/1
f 14/5/1 13/6/1 8/7/1
f 18/8/1 21/9/1 25/10/1
f 16/11/1 14/5/1 15/12/1
f 20/13/1 7/14/1 21/9/1
f 30/15/1 6/16/1 35/17/1
f 38/18/1 34/19/1 36/20/1
f 49/21/1 48/22/1 58/23/1
f 69/24/1 77/25/1 78/26/1
f 9/27/1 1/28/1 8/7/1
f 8/7/1 13/6/1 10/29/1
f 13/6/1 12/30/1 10/29/1
f 12/30/1 16/11/1 11/3/1
f 16/11/1 17/1/1 11/3/1
f 24/31/1 32/32/1 4/33/1
f 32/32/1 33/34/1 4/33/1
f 33/34/1 34/19/1 4/33/1
f 34/19/1 37/35/1 4/33/1
f 37/35/1 5/36/1 4/33/1
f 24/31/1 4/33/1 3/2/1
f 10/29/1 9/27/1 8/7/1
f 22/37/1 24/31/1 3/2/1
f 17/1/1 22/37/1 3/2/1
f 11/3/1 10/29/1 12/30/1
f 1/28/1 9/27/1 2/4/1
f 9/27/1 11/3/1 2/4/1
f 8/7/1 7/14/1 15/12/1
f 15/12/1 14/5/1 8/7/1
f 21/9/1 6/16/1 31/38/1
f 6/16/1 28/39/1 31/38/1
f 31/38/1 27/40/1 23/41/1
f 15/12/1 19/42/1 18/8/1
f 31/38/1 23/41/1 26/43/1
f 25/10/1 22/37/1 17/1/1
f 21/9/1 31/38/1 26/43/1
f 26/43/1 25/10/1 21/9/1
f 25/10/1 17/1/1 18/8/1
f 17/1/1 15/12/1 18/8/1
f 16/11/1 12/30/1 14/5/1
f 20/13/1 19/42/1 15/12/1
f 7/14/1 6/16/1 21/9/1
f 20/13/1 15/12/1 7/14/1
f 5/36/1 37/35/1 39/44/1
f 38/18/1 36/20/1 35/17/1
f 5/36/1 39/44/1 38/18/1
f 30/15/1 28/39/1 6/16/1
f 23/41/1 27/40/1 24/31/1
f 27/40/1 29/45/1 24/31/1
f 5/36/1 38/18/1 6/16/1
f 38/18/1 35/17/1 6/16/1
f 32/32/1 24/31/1 29/45/1
f 35/17/1 32/32/1 30/15/1
f 32/32/1 29/45/1 30/15/1
f 38/18/1 37/35/1 34/19/1
f 40/46/1 46/47/1 47/48/1
f 46/47/1 59/49/1 47/48/1
f 57/50/1 56/51/1 49/21/1
f 56/51/1 55/52/1 50/53/1
f 53/54/1 52/55/1 51/56/1
f 54/57/1 53/54/1 51/56/1
f 43/58/1 44/59/1 42/60/1
f 44/59/1 40/46/1 42/60/1
f 45/61/1 41/62/1 40/46/1
f 41/62/1 42/60/1 40/46/1
f 55/52/1 54/57/1 51/56/1
f 55/52/1 51/56/1 50/53/1
f 47/48/1 45/61/1 40/46/1
f 56/51/1 50/53/1 49/21/1
f 47/48/1 59/49/1 48/22/1
f 59/49/1 58/23/1 48/22/1
f 57/50/1 49/21/1 58/23/1
f 79/63/1 66/64/1 67/65/1
f 66/64/1 60/66/1 67/65/1
f 60/66/1 64/67/1 62/68/1
f 64/67/1 63/69/1 62/68/1
f 62/68/1 61/70/1 60/66/1
f 61/70/1 65/71/1 60/66/1
f 75/72/1 76/73/1 70/74/1
f 76/73/1 77/25/1 69/24/1
f 70/74/1 76/73/1 69/24/1
f 71/75/1 72/76/1 73/77/1
f 71/75/1 73/77/1 74/78/1
f 67/65/1 60/66/1 65/71/1
f 71/75/1 74/78/1 75/72/1
f 70/74/1 71/75/1 75/72/1
f 78/26/1 79/63/1 68/79/1
f 79/63/1 67/65/1 68/79/1
f 78/26/1 68/79/1 69/24/1
