# Blender v3.1.2 OBJ File: ''
# www.blender.org
mtllib pompomporn(p).mtl
o Plane.001_Plane.003
v -0.098475 1.107034 0.233476
v -0.098050 1.092020 0.233476
v -0.110089 1.074032 0.233476
v -0.103715 1.070350 0.233476
v -0.089551 1.089187 0.233476
v -0.092242 1.107600 0.233476
v -0.082140 1.086852 0.233476
v -0.073225 1.084043 0.233476
v -0.084311 1.106750 0.233476
v -0.077512 1.107884 0.233476
v -0.094084 1.069641 0.233476
v -0.083744 1.065676 0.233476
v -0.066845 1.082032 0.233476
v -0.057510 1.079090 0.233476
v -0.071138 1.106326 0.233476
v -0.063207 1.105901 0.233476
v -0.075388 1.065676 0.233476
v -0.066040 1.062701 0.233476
v -0.151054 1.107034 0.233476
v -0.150629 1.092020 0.233476
v -0.162668 1.074032 0.233476
v -0.156294 1.070350 0.233476
v -0.142131 1.089187 0.233476
v -0.144822 1.107600 0.233476
v -0.134719 1.086852 0.233476
v -0.125804 1.084043 0.233476
v -0.136890 1.106750 0.233476
v -0.130091 1.107884 0.233476
v -0.146663 1.069641 0.233476
v -0.136323 1.065676 0.233476
v -0.119424 1.082032 0.233476
v -0.110089 1.079090 0.233476
v -0.123718 1.106326 0.233476
v -0.115786 1.105901 0.233476
v -0.127967 1.065676 0.233476
v -0.118619 1.062701 0.233476
v -0.203633 1.107034 0.233476
v -0.203208 1.092020 0.233476
v -0.215247 1.074032 0.233476
v -0.208874 1.070350 0.233476
v -0.194710 1.089187 0.233476
v -0.197401 1.107600 0.233476
v -0.187299 1.086852 0.233476
v -0.178384 1.084043 0.233476
v -0.189469 1.106750 0.233476
v -0.182671 1.107884 0.233476
v -0.199242 1.069641 0.233476
v -0.188903 1.065676 0.233476
v -0.172003 1.082032 0.233476
v -0.162668 1.079090 0.233476
v -0.176297 1.106326 0.233476
v -0.168365 1.105901 0.233476
v -0.180546 1.065676 0.233476
v -0.171198 1.062701 0.233476
v 0.092260 1.107034 0.233476
v 0.091835 1.092020 0.233476
v 0.103874 1.074032 0.233476
v 0.097501 1.070350 0.233476
v 0.083337 1.089187 0.233476
v 0.086028 1.107600 0.233476
v 0.075926 1.086852 0.233476
v 0.067011 1.084043 0.233476
v 0.078096 1.106750 0.233476
v 0.071298 1.107884 0.233476
v 0.087869 1.069641 0.233476
v 0.077530 1.065676 0.233476
v 0.060630 1.082032 0.233476
v 0.051295 1.079090 0.233476
v 0.064924 1.106326 0.233476
v 0.056992 1.105901 0.233476
v 0.069173 1.065676 0.233476
v 0.059825 1.062701 0.233476
v 0.144839 1.107034 0.233476
v 0.144415 1.092020 0.233476
v 0.156454 1.074032 0.233476
v 0.150080 1.070350 0.233476
v 0.135916 1.089187 0.233476
v 0.138607 1.107600 0.233476
v 0.128505 1.086852 0.233476
v 0.119590 1.084043 0.233476
v 0.130676 1.106750 0.233476
v 0.123877 1.107884 0.233476
v 0.140449 1.069641 0.233476
v 0.130109 1.065676 0.233476
v 0.113210 1.082032 0.233476
v 0.103874 1.079090 0.233476
v 0.117503 1.106326 0.233476
v 0.109572 1.105901 0.233476
v 0.121753 1.065676 0.233476
v 0.112404 1.062701 0.233476
v 0.197419 1.107034 0.233476
v 0.196994 1.092020 0.233476
v 0.209033 1.074032 0.233476
v 0.202659 1.070350 0.233476
v 0.188496 1.089187 0.233476
v 0.191187 1.107600 0.233476
v 0.181084 1.086852 0.233476
v 0.172169 1.084043 0.233476
v 0.183255 1.106750 0.233476
v 0.176456 1.107884 0.233476
v 0.193028 1.069641 0.233476
v 0.182688 1.065676 0.233476
v 0.165789 1.082032 0.233476
v 0.156454 1.079090 0.233476
v 0.170083 1.106326 0.233476
v 0.162151 1.105901 0.233476
v 0.174332 1.065676 0.233476
v 0.164984 1.062701 0.233476
vt 0.271579 0.308409
vt 0.243596 0.305866
vt 0.245504 0.238452
vt 0.337721 0.309681
vt 0.316940 0.215246
vt 0.356971 0.202632
vt 0.309738 0.120160
vt 0.401955 0.300778
vt 0.385620 0.193604
vt 0.427536 0.180395
vt 0.389235 0.106805
vt 0.271579 0.308409
vt 0.243596 0.305866
vt 0.245504 0.238452
vt 0.337721 0.309681
vt 0.316940 0.215246
vt 0.356971 0.202632
vt 0.309738 0.120160
vt 0.401955 0.300778
vt 0.385620 0.193604
vt 0.427536 0.180395
vt 0.389235 0.106805
vt 0.271579 0.308409
vt 0.243596 0.305866
vt 0.245504 0.238452
vt 0.337721 0.309681
vt 0.316940 0.215246
vt 0.356971 0.202632
vt 0.309738 0.120160
vt 0.401955 0.300778
vt 0.385620 0.193604
vt 0.427536 0.180395
vt 0.389235 0.106805
vt 0.283663 0.225732
vt 0.220065 0.141147
vt 0.245504 0.238452
vt 0.316940 0.215246
vt 0.337721 0.309681
vt 0.356971 0.202632
vt 0.309738 0.120160
vt 0.263312 0.137968
vt 0.385620 0.193604
vt 0.401955 0.300778
vt 0.427536 0.180395
vt 0.389235 0.106805
vt 0.347261 0.120160
vt 0.283663 0.225732
vt 0.220065 0.141147
vt 0.245504 0.238452
vt 0.316940 0.215246
vt 0.337721 0.309681
vt 0.356971 0.202632
vt 0.309738 0.120160
vt 0.263312 0.137968
vt 0.385620 0.193604
vt 0.401955 0.300778
vt 0.427536 0.180395
vt 0.389235 0.106805
vt 0.347261 0.120160
vt 0.283663 0.225732
vt 0.220065 0.141147
vt 0.245504 0.238452
vt 0.316940 0.215246
vt 0.337721 0.309681
vt 0.356971 0.202632
vt 0.309738 0.120160
vt 0.263312 0.137968
vt 0.385620 0.193604
vt 0.401955 0.300778
vt 0.427536 0.180395
vt 0.389235 0.106805
vt 0.347261 0.120160
vt 0.191446 0.157683
vt 0.220065 0.141147
vt 0.283663 0.225732
vt 0.307194 0.304594
vt 0.263312 0.137968
vt 0.366340 0.302686
vt 0.347261 0.120160
vt 0.191446 0.157683
vt 0.220065 0.141147
vt 0.283663 0.225732
vt 0.307194 0.304594
vt 0.263312 0.137968
vt 0.366340 0.302686
vt 0.347261 0.120160
vt 0.191446 0.157683
vt 0.220065 0.141147
vt 0.283663 0.225732
vt 0.307194 0.304594
vt 0.263312 0.137968
vt 0.366340 0.302686
vt 0.347261 0.120160
vt 0.191446 0.157683
vt 0.243596 0.305866
vt 0.271579 0.308409
vt 0.307194 0.304594
vt 0.366340 0.302686
vt 0.191446 0.157683
vt 0.243596 0.305866
vt 0.271579 0.308409
vt 0.307194 0.304594
vt 0.366340 0.302686
vt 0.191446 0.157683
vt 0.243596 0.305866
vt 0.271579 0.308409
vt 0.307194 0.304594
vt 0.366340 0.302686
vn 0.0000 0.0000 1.0000
usemtl Material.007
s off
f 6/1/1 1/2/1 2/3/1
f 10/4/1 7/5/1 8/6/1
f 7/5/1 12/7/1 8/6/1
f 16/8/1 13/9/1 14/10/1
f 13/9/1 18/11/1 14/10/1
f 24/12/1 19/13/1 20/14/1
f 28/15/1 25/16/1 26/17/1
f 25/16/1 30/18/1 26/17/1
f 34/19/1 31/20/1 32/21/1
f 31/20/1 36/22/1 32/21/1
f 42/23/1 37/24/1 38/25/1
f 46/26/1 43/27/1 44/28/1
f 43/27/1 48/29/1 44/28/1
f 52/30/1 49/31/1 50/32/1
f 49/31/1 54/33/1 50/32/1
f 59/34/1 58/35/1 56/36/1
f 61/37/1 64/38/1 62/39/1
f 61/37/1 66/40/1 65/41/1
f 67/42/1 70/43/1 68/44/1
f 67/42/1 72/45/1 71/46/1
f 77/47/1 76/48/1 74/49/1
f 79/50/1 82/51/1 80/52/1
f 79/50/1 84/53/1 83/54/1
f 85/55/1 88/56/1 86/57/1
f 85/55/1 90/58/1 89/59/1
f 95/60/1 94/61/1 92/62/1
f 97/63/1 100/64/1 98/65/1
f 97/63/1 102/66/1 101/67/1
f 103/68/1 106/69/1 104/70/1
f 103/68/1 108/71/1 107/72/1
f 2/3/1 3/73/1 4/74/1
f 4/74/1 5/75/1 2/3/1
f 5/75/1 6/1/1 2/3/1
f 10/4/1 9/76/1 7/5/1
f 7/5/1 11/77/1 12/7/1
f 16/8/1 15/78/1 13/9/1
f 13/9/1 17/79/1 18/11/1
f 20/14/1 21/80/1 22/81/1
f 22/81/1 23/82/1 20/14/1
f 23/82/1 24/12/1 20/14/1
f 28/15/1 27/83/1 25/16/1
f 25/16/1 29/84/1 30/18/1
f 34/19/1 33/85/1 31/20/1
f 31/20/1 35/86/1 36/22/1
f 38/25/1 39/87/1 40/88/1
f 40/88/1 41/89/1 38/25/1
f 41/89/1 42/23/1 38/25/1
f 46/26/1 45/90/1 43/27/1
f 43/27/1 47/91/1 48/29/1
f 52/30/1 51/92/1 49/31/1
f 49/31/1 53/93/1 54/33/1
f 58/35/1 57/94/1 56/36/1
f 56/36/1 55/95/1 60/96/1
f 60/96/1 59/34/1 56/36/1
f 61/37/1 63/97/1 64/38/1
f 61/37/1 62/39/1 66/40/1
f 67/42/1 69/98/1 70/43/1
f 67/42/1 68/44/1 72/45/1
f 76/48/1 75/99/1 74/49/1
f 74/49/1 73/100/1 78/101/1
f 78/101/1 77/47/1 74/49/1
f 79/50/1 81/102/1 82/51/1
f 79/50/1 80/52/1 84/53/1
f 85/55/1 87/103/1 88/56/1
f 85/55/1 86/57/1 90/58/1
f 94/61/1 93/104/1 92/62/1
f 92/62/1 91/105/1 96/106/1
f 96/106/1 95/60/1 92/62/1
f 97/63/1 99/107/1 100/64/1
f 97/63/1 98/65/1 102/66/1
f 103/68/1 105/108/1 106/69/1
f 103/68/1 104/70/1 108/71/1
