# Blender v3.1.2 OBJ File: ''
# www.blender.org
mtllib redFontanBlack4.mtl
o Plane
v -1.815653 -0.998837 -6.639071
v -16.720510 -0.998837 -16.312416
v -11.883835 -0.998837 -32.500469
v -20.570107 -0.998837 -16.608541
v -5.073011 -0.998837 -3.973965
v -20.570107 -0.998837 3.330397
v -26.788694 -0.998837 -4.368795
v -34.586601 -0.998837 4.416182
v -26.887392 -0.998837 -0.716614
v -21.853306 -0.998837 5.008427
v -33.994354 -0.998837 22.973221
v -19.681736 -0.998837 6.883872
v -3.789810 -0.998837 0.270458
v -4.382051 -0.998837 11.819255
v -18.102421 -0.998837 27.513767
v 0.454619 -0.998837 31.363367
v -13.660566 -0.998837 26.921522
v -1.124700 -0.998837 12.905038
v -0.433752 -0.998837 -0.124370
v 1.046863 -0.998837 12.016675
v 9.437013 -0.998837 20.406818
v 4.501628 -0.998837 29.191797
v 11.115042 -0.998837 22.380970
v 18.419407 -0.998837 27.118940
v 13.089196 -0.998837 20.406818
v 20.590977 -0.998837 12.510210
v 10.917630 -0.998837 18.037840
v 3.415848 -0.998837 10.338640
v 2.527478 -0.998837 0.270461
v 14.865934 -0.998837 8.265780
v 28.092754 -0.998837 1.849786
v 26.908264 -0.998837 -17.793034
v 25.723770 -0.998837 0.270458
v 14.471103 -0.998837 5.995503
v 3.810678 -0.998837 -1.901103
v 12.990493 -0.998837 -14.338267
v 23.650909 -0.998837 -13.449895
v 13.878860 -0.998837 -16.115005
v 11.312461 -0.998837 -30.427610
v -7.639407 -0.998837 -25.590937
v 8.844767 -0.998837 -26.972847
v 11.213751 -0.998837 -16.805960
v 2.823598 -0.998837 -6.244242
v 1.342990 -0.998837 -14.733098
v 5.686124 -0.998837 -24.011618
v -0.631164 -0.998837 -17.003372
v -9.021312 -0.998837 -22.629707
v -1.716949 -0.998837 -14.831806
v -1.815653 1.011970 -6.639071
v -16.720510 1.011970 -16.312416
v -11.883835 1.011970 -32.500469
v -20.570107 1.011970 -16.608541
v -5.073011 1.011970 -3.973965
v -20.570107 1.011970 3.330397
v -26.788694 1.011970 -4.368795
v -34.586601 1.011970 4.416182
v -26.887392 1.011970 -0.716614
v -21.853306 1.011970 5.008427
v -33.994354 1.011970 22.973221
v -19.681736 1.011970 6.883872
v -3.789810 1.011970 0.270458
v -4.382051 1.011970 11.819255
v -18.102421 1.011970 27.513767
v 0.454619 1.011970 31.363367
v -13.660566 1.011970 26.921522
v -1.124700 1.011970 12.905038
v -0.433752 1.011970 -0.124370
v 1.046863 1.011970 12.016675
v 9.437013 1.011970 20.406818
v 4.501628 1.011970 29.191797
v 11.115042 1.011970 22.380970
v 18.419407 1.011970 27.118940
v 13.089196 1.011970 20.406818
v 20.590977 1.011970 12.510210
v 10.917630 1.011970 18.037840
v 3.415848 1.011970 10.338640
v 2.527478 1.011970 0.270461
v 14.865934 1.011970 8.265780
v 28.092754 1.011970 1.849786
v 26.908264 1.011970 -17.793034
v 25.723770 1.011970 0.270458
v 14.471103 1.011970 5.995503
v 3.810678 1.011970 -1.901103
v 12.990493 1.011970 -14.338267
v 23.650909 1.011970 -13.449895
v 13.878860 1.011970 -16.115005
v 11.312461 1.011970 -30.427610
v -7.639407 1.011970 -25.590937
v 8.844767 1.011970 -26.972847
v 11.213751 1.011970 -16.805960
v 2.823598 1.011970 -6.244242
v 1.342990 1.011970 -14.733098
v 5.686124 1.011970 -24.011618
v -0.631164 1.011970 -17.003372
v -9.021312 1.011970 -22.629707
v -1.716949 1.011970 -14.831806
vt 0.302144 0.600292
vt 0.296686 0.631676
vt 0.467251 0.521150
vt 0.379922 0.144542
vt 0.347174 0.285088
vt 0.310331 0.294639
vt 0.310331 0.294639
vt 0.175244 0.331481
vt 0.175244 0.331481
vt 0.321248 0.799513
vt 0.247563 0.892300
vt 0.247563 0.892300
vt 0.774269 0.612573
vt 0.972125 0.834990
vt 0.972125 0.834990
vt 0.345809 0.096784
vt 0.217544 0.690351
vt 0.321248 0.799513
vt 0.554581 0.521150
vt 0.774269 0.612573
vt 0.607797 0.163645
vt 0.345809 0.096784
vt 0.351267 0.766764
vt 0.217544 0.690351
vt 0.562768 0.680799
vt 0.554581 0.521150
vt 0.379922 0.144542
vt 0.607797 0.163645
vt 0.454971 0.660331
vt 0.351267 0.766764
vt 0.752437 0.897758
vt 0.562768 0.680799
vt 0.347174 0.285088
vt 0.733333 0.291910
vt 0.527290 0.425634
vt 0.527290 0.425634
vt 0.454971 0.660331
vt 0.495906 0.950975
vt 0.752437 0.897758
vt 0.463158 0.431092
vt 0.666472 0.068129
vt 0.733333 0.291910
vt 0.467251 0.521150
vt 0.691033 0.889571
vt 0.495906 0.950975
vt 0.483626 0.313743
vt 0.463158 0.431092
vt 0.786550 0.287817
vt 0.666472 0.068129
vt 0.113840 0.542983
vt 0.296686 0.631676
vt 0.517739 0.695809
vt 0.691033 0.889571
vt 0.423587 0.185478
vt 0.483626 0.313743
vt 0.572320 0.462476
vt 0.786550 0.287817
vt 0.130214 0.271443
vt 0.113840 0.542983
vt 0.508187 0.515692
vt 0.517739 0.695809
vt 0.510916 0.282359
vt 0.423587 0.185478
vt 0.786550 0.563450
vt 0.572320 0.462476
vt 0.146589 0.521150
vt 0.130214 0.271443
vt 0.487719 0.683528
vt 0.508187 0.515692
vt 0.626901 0.204581
vt 0.510916 0.282359
vt 0.872515 0.457018
vt 0.786550 0.563450
vt 0.146589 0.521150
vt 0.371735 0.799513
vt 0.487719 0.683528
vt 0.525926 0.312378
vt 0.626901 0.204581
vt 0.980312 0.578460
vt 0.872515 0.457018
vt 0.449513 0.491131
vt 0.302144 0.600292
vt 0.439961 0.920955
vt 0.371735 0.799513
vt 0.525926 0.312378
vt 0.873879 0.507505
vt 0.980312 0.578460
vt 0.322612 0.319201
vt 0.449513 0.491131
vt 0.348538 0.826803
vt 0.439961 0.920955
vt 0.804289 0.586647
vt 0.873879 0.507505
vt 0.322612 0.319201
vt 0.348538 0.826803
vt 0.804289 0.586647
vn 0.0000 -1.0000 0.0000
vn 0.0000 1.0000 0.0000
vn 0.2631 0.0000 -0.9648
vn 0.7831 0.0000 -0.6219
vn 0.7472 0.0000 0.6646
vn 0.9843 0.0000 -0.1765
vn 0.7250 0.0000 0.6887
vn 0.3842 0.0000 0.9232
vn -0.2473 0.0000 -0.9689
vn -0.4961 0.0000 -0.8682
vn -0.9987 0.0000 -0.0512
vn 0.0835 0.0000 0.9965
vn 0.7162 0.0000 -0.6979
vn -0.7529 0.0000 -0.6582
vn -0.9739 0.0000 0.2269
vn 0.5444 0.0000 -0.8388
vn 0.9961 0.0000 -0.0879
vn -0.2031 0.0000 0.9792
vn -0.7830 0.0000 -0.6220
vn 0.9581 0.0000 0.2863
vn -0.5438 0.0000 0.8392
vn 0.3002 0.0000 -0.9539
vn 0.9851 0.0000 -0.1718
vn -0.8775 0.0000 -0.4796
vn 0.4364 0.0000 0.8997
vn 0.7454 0.0000 0.6666
vn 0.9057 0.0000 0.4239
vn -0.6319 0.0000 0.7751
vn 0.9982 0.0000 -0.0602
vn 0.9986 0.0000 0.0530
vn -0.7428 0.0000 -0.6695
vn -0.4264 0.0000 -0.9046
vn -0.9979 0.0000 -0.0654
vn -0.9926 0.0000 0.1211
vn 0.5570 0.0000 -0.8305
vn 0.7779 0.0000 -0.6283
vn -0.4535 0.0000 -0.8913
vn -0.7071 0.0000 0.7071
vn -0.7298 0.0000 0.6836
vn -0.7479 0.0000 -0.6638
vn 0.5952 0.0000 -0.8036
vn -0.8718 0.0000 -0.4898
vn -0.9999 0.0000 -0.0120
vn 0.5547 0.0000 0.8321
vn 0.8046 0.0000 0.5939
vn 0.7174 0.0000 0.6966
vn -0.7510 0.0000 0.6603
vn -0.0830 0.0000 0.9965
vn -0.5442 0.0000 0.8390
vn -0.8285 0.0000 -0.5599
usemtl None
s off
f 34/1/1 30/2/1 29/3/1
f 89/4/2 90/5/2 86/6/2
f 38/7/3 85/8/3 37/9/3
f 25/10/4 72/11/4 24/12/4
f 12/13/5 59/14/5 11/15/5
f 39/16/6 86/6/6 38/7/6
f 26/17/7 73/18/7 25/10/7
f 13/19/8 60/20/8 12/13/8
f 40/21/9 87/22/9 39/16/9
f 27/23/10 74/24/10 26/17/10
f 14/25/11 61/26/11 13/19/11
f 41/27/12 88/28/12 40/21/12
f 28/29/13 75/30/13 27/23/13
f 15/31/14 62/32/14 14/25/14
f 42/33/15 89/4/15 41/27/15
f 2/34/16 49/35/16 1/36/16
f 29/3/17 76/37/17 28/29/17
f 16/38/18 63/39/18 15/31/18
f 43/40/19 90/5/19 42/33/19
f 3/41/20 50/42/20 2/34/20
f 30/2/21 77/43/21 29/3/21
f 17/44/22 64/45/22 16/38/22
f 44/46/23 91/47/23 43/40/23
f 4/48/24 51/49/24 3/41/24
f 31/50/25 78/51/25 30/2/25
f 18/52/26 65/53/26 17/44/26
f 45/54/27 92/55/27 44/46/27
f 5/56/28 52/57/28 4/48/28
f 32/58/29 79/59/29 31/50/29
f 19/60/30 66/61/30 18/52/30
f 46/62/31 93/63/31 45/54/31
f 6/64/32 53/65/32 5/56/32
f 33/66/33 80/67/33 32/58/33
f 20/68/34 67/69/34 19/60/34
f 47/70/35 94/71/35 46/62/35
f 7/72/36 54/73/36 6/64/36
f 34/1/37 81/74/37 33/66/37
f 21/75/38 68/76/38 20/68/38
f 48/77/39 95/78/39 47/70/39
f 8/79/40 55/80/40 7/72/40
f 35/81/41 82/82/41 34/1/41
f 22/83/42 69/84/42 21/75/42
f 1/36/43 96/85/43 48/77/43
f 9/86/44 56/87/44 8/79/44
f 36/88/45 83/89/45 35/81/45
f 23/90/46 70/91/46 22/83/46
f 10/92/47 57/93/47 9/86/47
f 37/9/48 84/94/48 36/88/48
f 24/12/49 71/95/49 23/90/49
f 11/15/50 58/96/50 10/92/50
f 9/86/1 8/79/1 7/72/1
f 9/86/1 7/72/1 6/64/1
f 12/13/1 11/15/1 10/92/1
f 10/92/1 9/86/1 6/64/1
f 10/92/1 6/64/1 12/13/1
f 6/64/1 5/56/1 13/19/1
f 13/19/1 12/13/1 6/64/1
f 4/48/1 3/41/1 2/34/1
f 4/48/1 2/34/1 5/56/1
f 2/34/1 1/36/1 5/56/1
f 48/77/1 47/70/1 46/62/1
f 13/19/1 5/56/1 19/60/1
f 5/56/1 1/36/1 19/60/1
f 1/36/1 48/77/1 44/46/1
f 48/77/1 46/62/1 44/46/1
f 46/62/1 45/54/1 44/46/1
f 44/46/1 43/40/1 1/36/1
f 14/25/1 13/19/1 19/60/1
f 17/44/1 16/38/1 15/31/1
f 23/90/1 22/83/1 21/75/1
f 25/10/1 24/12/1 23/90/1
f 27/23/1 26/17/1 25/10/1
f 28/29/1 27/23/1 20/68/1
f 27/23/1 25/10/1 21/75/1
f 20/68/1 27/23/1 21/75/1
f 25/10/1 23/90/1 21/75/1
f 18/52/1 17/44/1 14/25/1
f 17/44/1 15/31/1 14/25/1
f 19/60/1 18/52/1 14/25/1
f 41/27/1 40/21/1 39/16/1
f 38/7/1 37/9/1 36/88/1
f 41/27/1 39/16/1 38/7/1
f 42/33/1 41/27/1 38/7/1
f 38/7/1 36/88/1 42/33/1
f 36/88/1 35/81/1 43/40/1
f 42/33/1 36/88/1 43/40/1
f 1/36/1 43/40/1 19/60/1
f 43/40/1 35/81/1 19/60/1
f 28/29/1 20/68/1 19/60/1
f 29/3/1 28/29/1 19/60/1
f 33/66/1 32/58/1 31/50/1
f 29/3/1 19/60/1 35/81/1
f 34/1/1 33/66/1 30/2/1
f 33/66/1 31/50/1 30/2/1
f 29/3/1 35/81/1 34/1/1
f 58/96/2 59/14/2 60/20/2
f 58/96/2 60/20/2 54/73/2
f 60/20/2 61/26/2 54/73/2
f 55/80/2 56/87/2 57/93/2
f 63/39/2 64/45/2 65/53/2
f 69/84/2 70/91/2 71/95/2
f 71/95/2 72/11/2 73/18/2
f 73/18/2 74/24/2 75/30/2
f 73/18/2 75/30/2 69/84/2
f 75/30/2 76/37/2 68/76/2
f 69/84/2 71/95/2 73/18/2
f 63/39/2 65/53/2 62/32/2
f 65/53/2 66/61/2 62/32/2
f 62/32/2 66/61/2 67/69/2
f 61/26/2 62/32/2 67/69/2
f 68/76/2 69/84/2 75/30/2
f 67/69/2 68/76/2 76/37/2
f 67/69/2 76/37/2 77/43/2
f 79/59/2 80/67/2 81/74/2
f 79/59/2 81/74/2 78/51/2
f 81/74/2 82/82/2 78/51/2
f 55/80/2 57/93/2 54/73/2
f 57/93/2 58/96/2 54/73/2
f 53/65/2 54/73/2 61/26/2
f 53/65/2 61/26/2 67/69/2
f 50/42/2 51/49/2 52/57/2
f 49/35/2 50/42/2 53/65/2
f 50/42/2 52/57/2 53/65/2
f 53/65/2 67/69/2 49/35/2
f 67/69/2 77/43/2 83/89/2
f 49/35/2 67/69/2 91/47/2
f 94/71/2 95/78/2 96/85/2
f 91/47/2 67/69/2 83/89/2
f 94/71/2 96/85/2 92/55/2
f 96/85/2 49/35/2 92/55/2
f 92/55/2 93/63/2 94/71/2
f 91/47/2 92/55/2 49/35/2
f 78/51/2 82/82/2 77/43/2
f 82/82/2 83/89/2 77/43/2
f 90/5/2 91/47/2 84/94/2
f 84/94/2 85/8/2 86/6/2
f 91/47/2 83/89/2 84/94/2
f 84/94/2 86/6/2 90/5/2
f 87/22/2 88/28/2 89/4/2
f 87/22/2 89/4/2 86/6/2
f 38/7/3 86/6/3 85/8/3
f 25/10/4 73/18/4 72/11/4
f 12/13/5 60/20/5 59/14/5
f 39/16/6 87/22/6 86/6/6
f 26/17/7 74/24/7 73/18/7
f 13/19/8 61/26/8 60/20/8
f 40/21/9 88/28/9 87/22/9
f 27/23/10 75/30/10 74/24/10
f 14/25/11 62/32/11 61/26/11
f 41/27/12 89/4/12 88/28/12
f 28/29/13 76/37/13 75/30/13
f 15/31/14 63/39/14 62/32/14
f 42/33/15 90/5/15 89/4/15
f 2/34/16 50/42/16 49/35/16
f 29/3/17 77/43/17 76/37/17
f 16/38/18 64/45/18 63/39/18
f 43/40/19 91/47/19 90/5/19
f 3/41/20 51/49/20 50/42/20
f 30/2/21 78/51/21 77/43/21
f 17/44/22 65/53/22 64/45/22
f 44/46/23 92/55/23 91/47/23
f 4/48/24 52/57/24 51/49/24
f 31/50/25 79/59/25 78/51/25
f 18/52/26 66/61/26 65/53/26
f 45/54/27 93/63/27 92/55/27
f 5/56/28 53/65/28 52/57/28
f 32/58/29 80/67/29 79/59/29
f 19/60/30 67/69/30 66/61/30
f 46/62/31 94/71/31 93/63/31
f 6/64/32 54/73/32 53/65/32
f 33/66/33 81/74/33 80/67/33
f 20/68/34 68/76/34 67/69/34
f 47/70/35 95/78/35 94/71/35
f 7/72/36 55/80/36 54/73/36
f 34/1/37 82/82/37 81/74/37
f 21/75/38 69/84/38 68/76/38
f 48/77/39 96/85/39 95/78/39
f 8/79/40 56/87/40 55/80/40
f 35/81/41 83/89/41 82/82/41
f 22/83/42 70/91/42 69/84/42
f 1/36/43 49/35/43 96/85/43
f 9/86/44 57/93/44 56/87/44
f 36/88/45 84/94/45 83/89/45
f 23/90/46 71/95/46 70/91/46
f 10/92/47 58/96/47 57/93/47
f 37/9/48 85/8/48 84/94/48
f 24/12/49 72/11/49 71/95/49
f 11/15/50 59/14/50 58/96/50
