# Blender v3.1.2 OBJ File: ''
# www.blender.org
mtllib RUN(Brown)(or you be blocked).mtl
o Brown_Plane.001
v -0.181013 1.396054 0.005027
v -0.303019 1.267193 0.005027
v -0.467521 1.427583 0.005027
v -0.382528 1.652404 0.005027
v -0.006914 1.936171 0.005027
v 0.482481 1.885449 0.005027
v 0.046549 1.851178 0.005027
v -0.297535 1.513947 0.005027
v -0.181995 1.803901 0.005027
v -0.210596 1.887505 0.005027
v -0.028985 2.007921 0.005027
v 0.211847 2.001999 0.005027
v 0.024314 1.976337 0.005027
v -0.167167 1.875661 0.005027
v -0.181013 1.396054 -0.136934
v -0.303019 1.267193 -0.136934
v -0.467521 1.427583 -0.136934
v -0.382528 1.652404 -0.136934
v -0.006914 1.936171 -0.136934
v 0.482481 1.885449 -0.136934
v 0.046549 1.851178 -0.136934
v -0.297535 1.513947 -0.136934
v -0.181995 1.803901 -0.136934
v -0.210596 1.887505 -0.136934
v -0.028985 2.007921 -0.136934
v 0.211847 2.001999 -0.136934
v 0.024314 1.976337 -0.136934
v -0.167167 1.875661 -0.136934
v -0.115219 1.854349 0.005027
v -0.027841 1.778269 0.005027
v -0.115219 1.854349 -0.136934
v -0.027841 1.778269 -0.136934
v 0.112210 1.856340 -0.136934
v 0.031568 1.932182 -0.136934
v 0.112210 1.856340 0.005027
v 0.031568 1.932182 0.005027
v 0.160814 1.735583 0.005027
v 0.160814 1.735583 -0.136934
v 0.086424 1.662675 0.005027
v 0.086424 1.662675 -0.136934
v 0.196065 1.768511 -0.136934
v 0.196065 1.768511 0.005027
vt 0.302869 0.772477
vt 0.112169 0.628408
vt 0.192994 0.496741
vt 0.316970 0.840718
vt 0.499061 0.936457
vt 0.448376 0.966492
vt 0.192994 0.496741
vt 0.303803 0.384628
vt 0.187780 0.262087
vt 0.275671 0.851981
vt 0.448376 0.966492
vt 0.316970 0.840718
vt 0.187780 0.262087
vt 0.303803 0.384628
vt 0.031344 0.414612
vt 0.031344 0.414612
vt 0.366370 0.820450
vt 0.302869 0.772477
vt 0.505959 0.894467
vt 0.469365 0.898260
vt 0.469365 0.898260
vt 0.582648 0.822344
vt 0.934762 0.850026
vt 0.934762 0.850026
vt 0.582648 0.822344
vt 0.520206 0.817435
vt 0.520206 0.817435
vt 0.275671 0.851981
vt 0.112169 0.628408
vt 0.677399 0.960861
vt 0.677399 0.960861
vt 0.499061 0.936457
vt 0.449464 0.748102
vt 0.520206 0.817435
vt 0.505959 0.894467
vt 0.449464 0.748102
vt 0.449464 0.748102
vt 0.520206 0.817435
vt 0.366370 0.820450
vt 0.582648 0.822344
vt 0.582648 0.822344
vt 0.449464 0.748102
vn -0.0000 -0.0000 1.0000
vn 0.0000 0.0000 -1.0000
vn 0.7262 -0.6875 0.0000
vn -0.6981 -0.7160 0.0000
vn -0.9354 0.3536 0.0000
vn -0.6028 0.7979 0.0000
vn 0.1031 0.9947 0.0000
vn 0.0784 -0.9969 0.0000
vn 0.7112 0.7030 0.0000
vn -0.8072 0.5903 0.0000
vn -0.5526 0.8334 0.0000
vn 0.0246 0.9997 0.0000
vn 0.1356 -0.9908 0.0000
vn 0.4654 -0.8851 0.0000
vn 0.9793 -0.2024 0.0000
vn 0.7000 -0.7142 0.0000
vn 0.7233 0.6906 0.0000
vn 0.6826 -0.7308 0.0000
vn -0.7112 -0.7030 0.0000
usemtl Material
s off
f 9/1/1 4/2/1 8/3/1
f 14/4/1 13/5/1 11/6/1
f 22/7/2 15/8/2 16/9/2
f 24/10/2 25/11/2 28/12/2
f 2/13/3 15/8/3 1/14/3
f 2/13/4 17/15/4 16/9/4
f 4/2/5 17/15/5 3/16/5
f 29/17/6 23/18/6 9/1/6
f 36/19/7 19/20/7 5/21/7
f 35/22/8 20/23/8 6/24/8
f 33/25/2 38/26/2 21/27/2
f 1/14/9 22/7/9 8/3/9
f 10/28/10 18/29/10 4/2/10
f 11/6/11 24/10/11 10/28/11
f 12/30/12 25/11/12 11/6/12
f 13/5/13 26/31/13 12/30/13
f 14/4/14 27/32/14 13/5/14
f 14/4/15 23/18/15 28/12/15
f 39/33/16 38/26/16 37/34/16
f 34/35/2 33/25/2 21/27/2
f 30/36/16 22/7/16 32/37/16
f 7/38/1 36/19/1 5/21/1
f 31/39/6 5/21/6 19/20/6
f 33/25/2 34/35/2 20/23/2
f 35/22/17 41/40/17 33/25/17
f 36/19/1 35/22/1 6/24/1
f 36/19/7 20/23/7 34/35/7
f 42/41/18 38/26/18 41/40/18
f 32/37/19 39/33/19 30/36/19
f 35/22/1 37/34/1 42/41/1
f 21/27/2 40/42/2 32/37/2
f 7/38/1 39/33/1 37/34/1
f 4/2/1 3/16/1 8/3/1
f 3/16/1 2/13/1 8/3/1
f 2/13/1 1/14/1 8/3/1
f 8/3/1 30/36/1 9/1/1
f 30/36/1 29/17/1 9/1/1
f 10/28/1 4/2/1 9/1/1
f 10/28/1 9/1/1 14/4/1
f 13/5/1 12/30/1 11/6/1
f 10/28/1 14/4/1 11/6/1
f 16/9/2 17/15/2 22/7/2
f 17/15/2 18/29/2 22/7/2
f 18/29/2 23/18/2 22/7/2
f 23/18/2 31/39/2 32/37/2
f 22/7/2 23/18/2 32/37/2
f 23/18/2 18/29/2 24/10/2
f 25/11/2 26/31/2 27/32/2
f 28/12/2 23/18/2 24/10/2
f 25/11/2 27/32/2 28/12/2
f 2/13/3 16/9/3 15/8/3
f 2/13/4 3/16/4 17/15/4
f 4/2/5 18/29/5 17/15/5
f 29/17/6 31/39/6 23/18/6
f 36/19/7 34/35/7 19/20/7
f 35/22/8 33/25/8 20/23/8
f 33/25/2 41/40/2 38/26/2
f 1/14/9 15/8/9 22/7/9
f 10/28/10 24/10/10 18/29/10
f 11/6/11 25/11/11 24/10/11
f 12/30/12 26/31/12 25/11/12
f 13/5/13 27/32/13 26/31/13
f 14/4/14 28/12/14 27/32/14
f 14/4/15 9/1/15 23/18/15
f 39/33/16 40/42/16 38/26/16
f 21/27/2 32/37/2 31/39/2
f 31/39/2 19/20/2 21/27/2
f 19/20/2 34/35/2 21/27/2
f 30/36/16 8/3/16 22/7/16
f 5/21/1 29/17/1 7/38/1
f 29/17/1 30/36/1 7/38/1
f 7/38/1 35/22/1 36/19/1
f 31/39/6 29/17/6 5/21/6
f 35/22/17 42/41/17 41/40/17
f 36/19/7 6/24/7 20/23/7
f 42/41/18 37/34/18 38/26/18
f 32/37/19 40/42/19 39/33/19
f 35/22/1 7/38/1 37/34/1
f 21/27/2 38/26/2 40/42/2
f 7/38/1 30/36/1 39/33/1
