# Blender v3.1.2 OBJ File: ''
# www.blender.org
mtllib SlaveGaster(G).mtl
o Gray_Cube.009
v -0.112317 1.113284 0.237652
v -0.112317 1.219042 0.237652
v -0.112317 1.113284 0.013018
v -0.112317 1.219042 0.013018
v 0.112317 1.113284 0.237652
v 0.112317 1.219042 0.237652
v 0.112317 1.113284 0.013018
v 0.112317 1.219041 0.013018
v -0.134650 1.092841 -0.009315
v -0.134650 1.092841 0.259985
v -0.134650 1.239023 0.259985
v -0.134650 1.239023 -0.009315
v 0.134650 1.092841 -0.009315
v 0.134650 1.239023 -0.009315
v 0.134650 1.092841 0.259985
v 0.134650 1.239023 0.259985
v -0.140234 1.199206 0.265569
v -0.140234 1.199206 -0.014899
v 0.140234 1.199206 -0.014899
v 0.140234 1.199206 0.265569
v -0.140234 1.130813 -0.014899
v 0.140234 1.130813 -0.014899
v 0.140234 1.130813 0.265569
v -0.140234 1.130813 0.265569
v -0.185144 1.092841 0.125335
v -0.139536 1.224359 0.264871
v -0.185144 1.239023 0.125335
v -0.139536 1.106583 -0.014201
v 0.000000 1.092841 -0.059809
v 0.000000 1.239023 -0.059809
v 0.139536 1.106583 -0.014201
v 0.185144 1.092841 0.125335
v 0.185144 1.239023 0.125335
v 0.139536 1.106583 0.264871
v -0.000000 1.092841 0.310479
v 0.000000 1.239023 0.310479
v -0.154436 1.113283 0.125335
v -0.154436 1.219042 0.125335
v 0.000000 1.113283 -0.029101
v -0.000000 1.219042 -0.029101
v 0.154436 1.113283 0.125335
v 0.154436 1.219042 0.125335
v -0.000000 1.113283 0.279771
v -0.000000 1.219042 0.279771
v -0.123484 1.090898 0.001851
v -0.123484 1.090898 0.248819
v -0.123484 1.241369 0.248819
v -0.123484 1.241369 0.001851
v 0.123484 1.090899 0.001851
v 0.123484 1.241369 0.001851
v 0.123484 1.090899 0.248819
v 0.123484 1.241369 0.248819
v -0.108130 1.166163 0.233465
v 0.108130 1.166163 0.233465
v 0.108130 1.166163 0.017205
v -0.108130 1.166163 0.017205
v -0.140234 1.164836 0.265569
v -0.139536 1.224359 -0.014201
v 0.139536 1.224359 -0.014201
v 0.139536 1.224359 0.264871
v -0.000000 1.199206 0.318156
v 0.192821 1.199206 0.125335
v 0.000000 1.199206 -0.067486
v -0.192821 1.199206 0.125335
v -0.140234 1.164836 -0.014899
v 0.140234 1.164836 -0.014899
v 0.140234 1.164836 0.265569
v -0.139536 1.106583 0.264871
v -0.192821 1.130813 0.125335
v 0.000000 1.130813 -0.067486
v 0.192821 1.130813 0.125335
v -0.000000 1.130813 0.318156
v -0.191862 1.224359 0.125335
v 0.000000 1.224359 -0.066527
v 0.191862 1.224359 0.125335
v -0.000000 1.224359 0.317197
v 0.148678 1.166163 0.125335
v 0.000000 1.166163 0.274013
v -0.169790 1.090899 0.125335
v -0.169790 1.241369 0.125335
v -0.000000 1.090899 -0.044455
v -0.000000 1.241369 -0.044455
v 0.169790 1.090899 0.125335
v 0.169790 1.241369 0.125335
v 0.000000 1.090899 0.295125
v -0.000000 1.241369 0.295125
v -0.000000 1.166163 -0.023343
v -0.148678 1.166163 0.125335
v -0.000000 1.164836 0.318156
v 0.192821 1.164836 0.125335
v -0.000000 1.164836 -0.067486
v -0.192821 1.164836 0.125335
v -0.191862 1.106583 0.125335
v 0.000000 1.106583 -0.066527
v 0.191862 1.106583 0.125335
v -0.000000 1.106583 0.317197
v -0.037834 1.124364 -0.042426
v -0.037834 1.200031 -0.042426
v -0.037834 1.124364 -0.522721
v -0.037834 1.200031 -0.522721
v 0.037834 1.124364 -0.042426
v 0.037834 1.200031 -0.042426
v 0.037834 1.124364 -0.522721
v 0.037834 1.200031 -0.522721
v -0.096085 1.061554 -0.433528
v -0.096085 1.253725 -0.433528
v -0.096085 1.061554 -0.523576
v -0.096085 1.253725 -0.523576
v 0.096085 1.061554 -0.433528
v 0.096085 1.253725 -0.433528
v 0.096085 1.061554 -0.523576
v 0.096085 1.253725 -0.523576
vt 0.613487 0.000000
vt 0.574082 0.125000
vt 0.601974 0.000000
vt 0.625000 0.000000
vt 0.610317 0.125000
vt 0.625000 0.250000
vt 0.609683 0.250000
vt 0.571546 0.250000
vt 0.571546 0.375000
vt 0.609683 0.375000
vt 0.625000 0.500000
vt 0.609707 0.500000
vt 0.571546 0.500000
vt 0.571546 0.625000
vt 0.609778 0.625000
vt 0.625000 0.750000
vt 0.609707 0.750000
vt 0.571546 0.750000
vt 0.574082 0.875000
vt 0.610317 0.875000
vt 0.625000 1.000000
vt 0.613487 1.000000
vt 0.601974 1.000000
vt 0.654861 0.625000
vt 0.500000 0.693712
vt 0.654861 0.720139
vt 0.500000 0.556288
vt 0.500000 0.625000
vt 0.345139 0.625000
vt 0.345139 0.720139
vt 0.750000 0.720139
vt 0.500000 0.720139
vt 0.845139 0.720139
vt 0.500000 0.717496
vt 0.250000 0.720139
vt 0.154861 0.720139
vt 0.154861 0.529861
vt 0.155218 0.625000
vt 0.172798 0.545505
vt 0.248114 0.625000
vt 0.172798 0.704495
vt 0.125000 0.625000
vt 0.125000 0.500000
vt 0.844782 0.625000
vt 0.827202 0.704495
vt 0.845139 0.529861
vt 0.751886 0.625000
vt 0.827202 0.545505
vt 0.875000 0.625000
vt 0.875000 0.750000
vt 0.345139 0.529861
vt 0.250000 0.521045
vt 0.329465 0.545505
vt 0.250000 0.529861
vt 0.250000 0.500000
vt 0.375000 0.500000
vt 0.750000 0.521045
vt 0.654861 0.529861
vt 0.750000 0.529861
vt 0.670529 0.545505
vt 0.750000 0.500000
vt 0.875000 0.500000
vt 0.353837 0.625000
vt 0.329465 0.704495
vt 0.372294 0.625000
vt 0.375000 0.750000
vt 0.646140 0.625000
vt 0.670529 0.704495
vt 0.627478 0.625000
vt 0.250000 0.728955
vt 0.250000 0.750000
vt 0.125000 0.750000
vt 0.750000 0.728955
vt 0.750000 0.750000
vt 0.500000 0.529861
vt 0.500000 0.532504
vt 0.500000 0.625000
vt 0.499212 0.750000
vt 0.424525 0.875000
vt 0.427083 0.750000
vt 0.499206 0.875000
vt 0.499178 1.000000
vt 0.396382 1.000000
vt 0.499212 0.500000
vt 0.427083 0.625000
vt 0.427083 0.500000
vt 0.499212 0.625000
vt 0.499212 0.250000
vt 0.427083 0.375000
vt 0.427083 0.250000
vt 0.499212 0.375000
vt 0.499178 0.000000
vt 0.424525 0.125000
vt 0.396382 0.000000
vt 0.499206 0.125000
vt 0.375000 0.000000
vt 0.388889 0.125000
vt 0.375000 0.125000
vt 0.385691 0.000000
vt 0.389529 0.250000
vt 0.375000 0.250000
vt 0.389529 0.375000
vt 0.375000 0.375000
vt 0.389499 0.500000
vt 0.389411 0.625000
vt 0.389499 0.750000
vt 0.388889 0.875000
vt 0.375000 0.875000
vt 0.385691 1.000000
vt 0.375000 1.000000
vt 0.625000 0.125000
vt 0.625000 0.375000
vt 0.625000 0.875000
vt 0.625000 0.000000
vt 0.375000 0.250000
vt 0.375000 0.000000
vt 0.625000 0.250000
vt 0.375000 0.500000
vt 0.625000 0.500000
vt 0.375000 0.750000
vt 0.625000 0.750000
vt 0.375000 1.000000
vt 0.125000 0.750000
vt 0.125000 0.500000
vt 0.875000 0.500000
vt 0.625000 0.000000
vt 0.375000 0.250000
vt 0.375000 0.000000
vt 0.625000 0.250000
vt 0.375000 0.500000
vt 0.625000 0.500000
vt 0.375000 0.750000
vt 0.625000 0.750000
vt 0.375000 1.000000
vt 0.125000 0.750000
vt 0.125000 0.500000
vt 0.875000 0.500000
vt 0.625000 1.000000
vt 0.875000 0.750000
vt 0.625000 1.000000
vt 0.875000 0.750000
vn -0.9357 0.0357 0.3509
vn -0.8605 0.3942 0.3227
vn -0.8605 0.3942 -0.3227
vn -0.9357 0.0357 -0.3509
vn -0.3509 0.0357 -0.9357
vn -0.3227 0.3942 -0.8605
vn 0.3227 0.3942 -0.8605
vn 0.3509 0.0357 -0.9357
vn 0.9357 0.0357 -0.3509
vn 0.8605 0.3942 -0.3227
vn 0.8605 0.3942 0.3227
vn 0.9357 0.0357 0.3509
vn 0.3509 0.0357 0.9357
vn 0.3227 0.3942 0.8605
vn -0.3227 0.3942 0.8605
vn -0.3509 0.0357 0.9357
vn -0.9315 0.1014 -0.3493
vn -0.9315 0.1014 0.3493
vn -0.9315 -0.1014 0.3493
vn -0.9315 -0.1014 -0.3493
vn 0.3493 0.1014 -0.9315
vn -0.3493 0.1014 -0.9315
vn -0.3493 -0.1014 -0.9315
vn 0.3493 -0.1014 -0.9315
vn 0.7878 -0.5404 0.2954
vn 0.7878 -0.5404 -0.2954
vn -0.1253 -0.9910 0.0470
vn -0.1254 -0.9910 -0.0470
vn 0.7872 0.5414 -0.2952
vn 0.7872 0.5414 0.2952
vn -0.1508 0.9869 -0.0565
vn -0.1508 0.9869 0.0566
vn -0.2954 -0.5404 0.7878
vn 0.2954 -0.5404 0.7878
vn -0.0470 -0.9910 -0.1253
vn 0.0470 -0.9910 -0.1254
vn 0.2952 0.5414 0.7872
vn -0.2952 0.5414 0.7872
vn 0.0565 0.9869 -0.1508
vn -0.0565 0.9869 -0.1508
vn -0.7878 -0.5404 -0.2954
vn -0.7878 -0.5404 0.2954
vn 0.1253 -0.9910 -0.0470
vn 0.1254 -0.9910 0.0470
vn -0.7872 0.5414 0.2952
vn -0.7872 0.5414 -0.2952
vn 0.1508 0.9869 0.0565
vn 0.1508 0.9869 -0.0566
vn 0.2954 -0.5404 -0.7878
vn -0.2954 -0.5404 -0.7878
vn 0.0470 -0.9910 0.1253
vn -0.0470 -0.9910 0.1254
vn -0.2952 0.5414 -0.7872
vn 0.2952 0.5414 -0.7872
vn -0.0565 0.9869 0.1508
vn 0.0565 0.9869 0.1508
vn -0.3493 0.1014 0.9315
vn 0.3493 0.1014 0.9315
vn 0.3493 -0.1014 0.9315
vn -0.3493 -0.1014 0.9315
vn 0.9315 0.1014 0.3493
vn 0.9315 0.1014 -0.3493
vn 0.9315 -0.1014 -0.3493
vn 0.9315 -0.1014 0.3493
vn 0.3511 0.0000 0.9363
vn -0.3511 -0.0000 0.9363
vn 0.9363 0.0000 -0.3511
vn 0.9363 -0.0000 0.3511
vn -0.3511 -0.0000 -0.9363
vn 0.3511 0.0000 -0.9363
vn -0.9363 0.0000 0.3511
vn -0.9363 -0.0000 -0.3511
vn -0.8514 -0.4162 0.3193
vn -0.9357 -0.0371 0.3509
vn -0.9357 -0.0371 -0.3509
vn -0.8514 -0.4162 -0.3193
vn -0.3193 -0.4162 -0.8514
vn -0.3509 -0.0371 -0.9357
vn 0.3509 -0.0371 -0.9357
vn 0.3193 -0.4162 -0.8514
vn 0.8514 -0.4162 -0.3193
vn 0.9357 -0.0371 -0.3509
vn 0.9357 -0.0371 0.3509
vn 0.8514 -0.4162 0.3193
vn 0.3193 -0.4162 0.8514
vn 0.3509 -0.0371 0.9357
vn -0.3509 -0.0371 0.9357
vn -0.3193 -0.4162 0.8514
vn -0.1254 -0.9910 0.0470
vn -0.1253 -0.9910 -0.0470
vn -0.1508 0.9869 -0.0566
vn -0.1508 0.9869 0.0565
vn -0.0470 -0.9910 -0.1254
vn -0.2952 0.5414 0.7873
vn 0.1254 -0.9910 -0.0470
vn 0.1253 -0.9910 0.0470
vn 0.1508 0.9869 0.0566
vn 0.1508 0.9869 -0.0565
vn 0.0470 -0.9910 0.1254
vn -1.0000 0.0000 0.0000
vn 0.0000 0.0000 -1.0000
vn 1.0000 0.0000 0.0000
vn 0.0000 0.0000 1.0000
vn 0.0000 -1.0000 0.0000
vn 0.0000 1.0000 0.0000
usemtl Material.003
s off
f 26/1/1 64/2/1 17/3/1
f 11/4/2 73/5/2 26/1/2
f 73/5/3 12/6/3 58/7/3
f 64/2/4 58/7/4 18/8/4
f 58/7/5 63/9/5 18/8/5
f 12/6/6 74/10/6 58/7/6
f 74/10/7 14/11/7 59/12/7
f 63/9/8 59/12/8 19/13/8
f 59/12/9 62/14/9 19/13/9
f 14/11/10 75/15/10 59/12/10
f 75/15/11 16/16/11 60/17/11
f 62/14/12 60/17/12 20/18/12
f 60/17/13 61/19/13 20/18/13
f 16/16/14 76/20/14 60/17/14
f 76/20/15 11/21/15 26/22/15
f 61/19/16 26/22/16 17/23/16
f 42/24/17 54/25/17 6/26/17
f 42/24/18 55/27/18 77/28/18
f 55/27/19 41/29/19 77/28/19
f 54/25/20 41/29/20 5/30/20
f 44/31/21 53/32/21 2/33/21
f 44/31/22 54/25/22 78/34/22
f 54/25/23 43/35/23 78/34/23
f 53/32/24 43/35/24 1/36/24
f 3/37/25 79/38/25 45/39/25
f 1/36/26 79/38/26 37/40/26
f 46/41/27 25/42/27 79/38/27
f 45/39/28 25/42/28 9/43/28
f 2/33/29 80/44/29 47/45/29
f 4/46/30 80/44/30 38/47/30
f 48/48/31 27/49/31 80/44/31
f 47/45/32 27/49/32 11/50/32
f 7/51/33 81/52/33 49/53/33
f 3/37/34 81/52/34 39/54/34
f 45/39/35 29/55/35 81/52/35
f 49/53/36 29/55/36 13/56/36
f 4/46/37 82/57/37 48/48/37
f 8/58/38 82/57/38 40/59/38
f 50/60/39 30/61/39 82/57/39
f 48/48/40 30/61/40 12/62/40
f 5/30/41 83/63/41 51/64/41
f 7/51/42 83/63/42 41/29/42
f 49/53/43 32/65/43 83/63/43
f 51/64/44 32/65/44 15/66/44
f 8/58/45 84/67/45 50/60/45
f 6/26/46 84/67/46 42/24/46
f 52/68/47 33/69/47 84/67/47
f 50/60/48 33/69/48 14/11/48
f 1/36/49 85/70/49 46/41/49
f 5/30/50 85/70/50 43/35/50
f 51/64/51 35/71/51 85/70/51
f 46/41/52 35/71/52 10/72/52
f 6/26/53 86/73/53 52/68/53
f 2/33/54 86/73/54 44/31/54
f 47/45/55 36/74/55 86/73/55
f 52/68/56 36/74/56 16/16/56
f 40/59/57 55/27/57 8/58/57
f 40/59/58 56/75/58 87/76/58
f 56/75/59 39/54/59 87/76/59
f 55/27/60 39/54/60 7/51/60
f 38/47/61 56/75/61 4/46/61
f 38/47/62 53/32/62 88/77/62
f 53/32/63 37/40/63 88/77/63
f 56/75/64 37/40/64 3/37/64
f 67/78/65 72/79/65 23/80/65
f 20/18/65 89/81/65 67/78/65
f 89/81/66 17/23/66 57/82/66
f 72/79/66 57/82/66 24/83/66
f 66/84/67 71/85/67 22/86/67
f 19/13/67 90/87/67 66/84/67
f 90/87/68 20/18/68 67/78/68
f 71/85/68 67/78/68 23/80/68
f 65/88/69 70/89/69 21/90/69
f 18/8/69 91/91/69 65/88/69
f 91/91/70 19/13/70 66/84/70
f 70/89/70 66/84/70 22/86/70
f 57/92/71 69/93/71 24/94/71
f 57/92/71 64/2/71 92/95/71
f 92/95/72 18/8/72 65/88/72
f 69/93/72 65/88/72 21/90/72
f 10/96/73 93/97/73 25/98/73
f 68/99/74 69/93/74 93/97/74
f 69/93/75 28/100/75 93/97/75
f 93/97/76 9/101/76 25/98/76
f 9/101/77 94/102/77 29/103/77
f 28/100/78 70/89/78 94/102/78
f 70/89/79 31/104/79 94/102/79
f 94/102/80 13/56/80 29/103/80
f 13/56/81 95/105/81 32/65/81
f 31/104/82 71/85/82 95/105/82
f 71/85/83 34/106/83 95/105/83
f 95/105/84 15/66/84 32/65/84
f 15/66/85 96/107/85 35/108/85
f 34/106/86 72/79/86 96/107/86
f 72/79/87 68/109/87 96/107/87
f 96/107/88 10/110/88 35/108/88
f 26/1/1 73/5/1 64/2/1
f 11/4/2 27/111/2 73/5/2
f 73/5/3 27/111/3 12/6/3
f 64/2/4 73/5/4 58/7/4
f 58/7/5 74/10/5 63/9/5
f 12/6/6 30/112/6 74/10/6
f 74/10/7 30/112/7 14/11/7
f 63/9/8 74/10/8 59/12/8
f 59/12/9 75/15/9 62/14/9
f 14/11/10 33/69/10 75/15/10
f 75/15/11 33/69/11 16/16/11
f 62/14/12 75/15/12 60/17/12
f 60/17/13 76/20/13 61/19/13
f 16/16/14 36/113/14 76/20/14
f 76/20/15 36/113/15 11/21/15
f 61/19/16 76/20/16 26/22/16
f 42/24/17 77/28/17 54/25/17
f 42/24/18 8/58/18 55/27/18
f 55/27/19 7/51/19 41/29/19
f 54/25/20 77/28/20 41/29/20
f 44/31/21 78/34/21 53/32/21
f 44/31/22 6/26/22 54/25/22
f 54/25/23 5/30/23 43/35/23
f 53/32/24 78/34/24 43/35/24
f 3/37/25 37/40/25 79/38/25
f 1/36/26 46/41/26 79/38/26
f 46/41/89 10/72/89 25/42/89
f 45/39/90 79/38/90 25/42/90
f 2/33/29 38/47/29 80/44/29
f 4/46/30 48/48/30 80/44/30
f 48/48/91 12/62/91 27/49/91
f 47/45/92 80/44/92 27/49/92
f 7/51/33 39/54/33 81/52/33
f 3/37/34 45/39/34 81/52/34
f 45/39/93 9/43/93 29/55/93
f 49/53/36 81/52/36 29/55/36
f 4/46/37 40/59/37 82/57/37
f 8/58/94 50/60/94 82/57/94
f 50/60/39 14/11/39 30/61/39
f 48/48/40 82/57/40 30/61/40
f 5/30/41 41/29/41 83/63/41
f 7/51/42 49/53/42 83/63/42
f 49/53/95 13/56/95 32/65/95
f 51/64/96 83/63/96 32/65/96
f 8/58/45 42/24/45 84/67/45
f 6/26/46 52/68/46 84/67/46
f 52/68/97 16/16/97 33/69/97
f 50/60/98 84/67/98 33/69/98
f 1/36/49 43/35/49 85/70/49
f 5/30/50 51/64/50 85/70/50
f 51/64/99 15/66/99 35/71/99
f 46/41/52 85/70/52 35/71/52
f 6/26/53 44/31/53 86/73/53
f 2/33/54 47/45/54 86/73/54
f 47/45/55 11/50/55 36/74/55
f 52/68/56 86/73/56 36/74/56
f 40/59/57 87/76/57 55/27/57
f 40/59/58 4/46/58 56/75/58
f 56/75/59 3/37/59 39/54/59
f 55/27/60 87/76/60 39/54/60
f 38/47/61 88/77/61 56/75/61
f 38/47/62 2/33/62 53/32/62
f 53/32/63 1/36/63 37/40/63
f 56/75/64 88/77/64 37/40/64
f 67/78/65 89/81/65 72/79/65
f 20/18/65 61/19/65 89/81/65
f 89/81/66 61/19/66 17/23/66
f 72/79/66 89/81/66 57/82/66
f 66/84/67 90/87/67 71/85/67
f 19/13/67 62/14/67 90/87/67
f 90/87/68 62/14/68 20/18/68
f 71/85/68 90/87/68 67/78/68
f 65/88/69 91/91/69 70/89/69
f 18/8/69 63/9/69 91/91/69
f 91/91/70 63/9/70 19/13/70
f 70/89/70 91/91/70 66/84/70
f 57/92/71 92/95/71 69/93/71
f 57/92/71 17/3/71 64/2/71
f 92/95/72 64/2/72 18/8/72
f 69/93/72 92/95/72 65/88/72
f 10/96/73 68/99/73 93/97/73
f 68/99/74 24/94/74 69/93/74
f 69/93/75 21/90/75 28/100/75
f 93/97/76 28/100/76 9/101/76
f 9/101/77 28/100/77 94/102/77
f 28/100/78 21/90/78 70/89/78
f 70/89/79 22/86/79 31/104/79
f 94/102/80 31/104/80 13/56/80
f 13/56/81 31/104/81 95/105/81
f 31/104/82 22/86/82 71/85/82
f 71/85/83 23/80/83 34/106/83
f 95/105/84 34/106/84 15/66/84
f 15/66/85 34/106/85 96/107/85
f 34/106/86 23/80/86 72/79/86
f 72/79/87 24/83/87 68/109/87
f 96/107/88 68/109/88 10/110/88
f 98/114/100 99/115/100 97/116/100
f 100/117/101 103/118/101 99/115/101
f 104/119/102 101/120/102 103/118/102
f 102/121/103 97/122/103 101/120/103
f 103/118/104 97/123/104 99/124/104
f 100/125/105 102/121/105 104/119/105
f 106/126/100 107/127/100 105/128/100
f 108/129/101 111/130/101 107/127/101
f 112/131/102 109/132/102 111/130/102
f 110/133/103 105/134/103 109/132/103
f 111/130/104 105/135/104 107/136/104
f 108/137/105 110/133/105 112/131/105
f 98/114/100 100/117/100 99/115/100
f 100/117/101 104/119/101 103/118/101
f 104/119/102 102/121/102 101/120/102
f 102/121/103 98/138/103 97/122/103
f 103/118/104 101/120/104 97/123/104
f 100/125/105 98/139/105 102/121/105
f 106/126/100 108/129/100 107/127/100
f 108/129/101 112/131/101 111/130/101
f 112/131/102 110/133/102 109/132/102
f 110/133/103 106/140/103 105/134/103
f 111/130/104 109/132/104 105/135/104
f 108/137/105 106/141/105 110/133/105
