# Blender v3.1.2 OBJ File: ''
# www.blender.org
mtllib tactir.mtl
o Cone
v 0.000000 2.023368 -0.011112
v 0.000000 2.046751 -0.011112
v 0.000000 1.380867 -0.947564
v 0.000000 1.399718 -0.982802
v 0.189567 1.399718 -0.964131
v 0.182693 1.380867 -0.929570
v 0.371850 1.399718 -0.908837
v 0.358365 1.380867 -0.876281
v 0.539842 1.399718 -0.819043
v 0.520265 1.380867 -0.789743
v 0.687089 1.399718 -0.698201
v 0.662171 1.380867 -0.673284
v 0.807931 1.399718 -0.550954
v 0.778631 1.380867 -0.531377
v 0.897725 1.399718 -0.382962
v 0.865169 1.380867 -0.369477
v 0.953019 1.399718 -0.200679
v 0.918458 1.380867 -0.193805
v 0.971690 1.399718 -0.011112
v 0.936452 1.380867 -0.011112
v 0.953019 1.399718 0.178455
v 0.918458 1.380867 0.171581
v 0.897725 1.399718 0.360738
v 0.865169 1.380867 0.347253
v 0.807931 1.399718 0.528730
v 0.778631 1.380867 0.509153
v 0.687089 1.399718 0.675977
v 0.662171 1.380867 0.651059
v 0.539842 1.399718 0.796819
v 0.520265 1.380867 0.767519
v 0.371850 1.399718 0.886612
v 0.358365 1.380867 0.854057
v 0.189567 1.399718 0.941907
v 0.182693 1.380867 0.907346
v -0.000000 1.399718 0.960578
v -0.000000 1.380867 0.925340
v -0.189567 1.399718 0.941907
v -0.182693 1.380867 0.907346
v -0.371850 1.399718 0.886612
v -0.358365 1.380867 0.854057
v -0.539842 1.399718 0.796819
v -0.520265 1.380867 0.767519
v -0.687089 1.399718 0.675977
v -0.662171 1.380867 0.651059
v -0.807931 1.399718 0.528730
v -0.778631 1.380867 0.509153
v -0.897725 1.399718 0.360738
v -0.865169 1.380867 0.347253
v -0.953019 1.399718 0.178455
v -0.918458 1.380867 0.171581
v -0.971690 1.399718 -0.011112
v -0.936452 1.380867 -0.011112
v -0.953019 1.399718 -0.200679
v -0.918458 1.380867 -0.193805
v -0.897724 1.399718 -0.382962
v -0.865169 1.380867 -0.369477
v -0.807931 1.399718 -0.550954
v -0.778631 1.380867 -0.531377
v -0.687089 1.399718 -0.698201
v -0.662172 1.380867 -0.673284
v -0.539842 1.399718 -0.819043
v -0.520265 1.380867 -0.789743
v -0.371850 1.399718 -0.908837
v -0.358365 1.380867 -0.876281
v -0.189567 1.399718 -0.964131
v -0.182693 1.380867 -0.929570
vt 0.250000 0.483206
vt 0.250000 0.250000
vt 0.295496 0.478725
vt 0.204504 0.478725
vt 0.339244 0.465454
vt 0.750000 0.250000
vt 0.836008 0.457640
vt 0.874864 0.436872
vt 0.379562 0.443903
vt 0.908921 0.408921
vt 0.414901 0.414901
vt 0.936872 0.374864
vt 0.443903 0.379562
vt 0.957640 0.336007
vt 0.465454 0.339244
vt 0.970430 0.293846
vt 0.478725 0.295496
vt 0.974748 0.250000
vt 0.483206 0.250000
vt 0.970430 0.206154
vt 0.478725 0.204504
vt 0.957640 0.163992
vt 0.465454 0.160756
vt 0.936872 0.125136
vt 0.443903 0.120438
vt 0.908921 0.091079
vt 0.414901 0.085099
vt 0.874864 0.063128
vt 0.379562 0.056097
vt 0.836007 0.042360
vt 0.339244 0.034546
vt 0.793846 0.029570
vt 0.295496 0.021275
vt 0.750000 0.025252
vt 0.250000 0.016794
vt 0.706154 0.029570
vt 0.204504 0.021275
vt 0.663993 0.042360
vt 0.160756 0.034546
vt 0.625136 0.063129
vt 0.120438 0.056097
vt 0.591079 0.091079
vt 0.085099 0.085099
vt 0.563129 0.125136
vt 0.056097 0.120438
vt 0.542360 0.163992
vt 0.034546 0.160756
vt 0.529570 0.206154
vt 0.021275 0.204504
vt 0.525252 0.250000
vt 0.016794 0.250000
vt 0.529570 0.293846
vt 0.021275 0.295496
vt 0.542360 0.336008
vt 0.034546 0.339244
vt 0.563128 0.374864
vt 0.056097 0.379562
vt 0.591079 0.408921
vt 0.085099 0.414901
vt 0.625136 0.436872
vt 0.120438 0.443903
vt 0.663992 0.457640
vt 0.160756 0.465454
vt 0.706154 0.470430
vt 0.750000 0.474748
vt 0.793846 0.470430
vt 0.796159 0.485454
vt 0.750663 0.489935
vt 0.797459 0.485195
vt 0.842431 0.471417
vt 0.919191 0.420128
vt 0.883852 0.449130
vt 0.949130 0.383852
vt 0.920128 0.419191
vt 0.971417 0.342431
vt 0.949867 0.382750
vt 0.985195 0.297459
vt 0.971924 0.341207
vt 0.989935 0.250663
vt 0.985454 0.296159
vt 0.985454 0.203841
vt 0.989935 0.249337
vt 0.985195 0.202541
vt 0.971417 0.157569
vt 0.949130 0.116148
vt 0.883852 0.050870
vt 0.919191 0.079872
vt 0.842431 0.028583
vt 0.882749 0.050133
vt 0.797459 0.014805
vt 0.841207 0.028076
vt 0.796159 0.014546
vt 0.749337 0.010065
vt 0.658793 0.028076
vt 0.702541 0.014805
vt 0.617250 0.050133
vt 0.657569 0.028583
vt 0.580809 0.079872
vt 0.616148 0.050870
vt 0.579872 0.080809
vt 0.550133 0.117250
vt 0.514805 0.202541
vt 0.528076 0.158793
vt 0.514546 0.203841
vt 0.514546 0.296159
vt 0.510065 0.250663
vt 0.514805 0.297459
vt 0.528583 0.342431
vt 0.550870 0.383852
vt 0.616148 0.449130
vt 0.580809 0.420128
vt 0.657569 0.471417
vt 0.617250 0.449867
vt 0.702541 0.485195
vt 0.658793 0.471924
vt 0.703841 0.485454
vt 0.841207 0.471924
vt 0.882749 0.449867
vt 0.971924 0.158793
vt 0.949867 0.117250
vt 0.920128 0.080809
vt 0.750663 0.010065
vt 0.703841 0.014546
vt 0.550870 0.116148
vt 0.528583 0.157569
vt 0.510065 0.249337
vt 0.528076 0.341207
vt 0.550133 0.382749
vt 0.579872 0.419191
vt 0.749337 0.489935
vn 0.0545 0.8311 -0.5534
vn -0.0545 0.8311 -0.5534
vn 0.1614 0.8311 -0.5322
vn -0.2676 -0.8233 0.5006
vn 0.2621 0.8311 -0.4904
vn -0.3601 -0.8233 0.4388
vn 0.3528 0.8311 -0.4299
vn -0.4388 -0.8233 0.3601
vn 0.4299 0.8311 -0.3528
vn -0.5006 -0.8233 0.2676
vn 0.4904 0.8311 -0.2621
vn -0.5432 -0.8233 0.1648
vn 0.5322 0.8311 -0.1614
vn -0.5649 -0.8233 0.0556
vn 0.5534 0.8311 -0.0545
vn -0.5649 -0.8233 -0.0556
vn 0.5534 0.8311 0.0545
vn -0.5432 -0.8233 -0.1648
vn 0.5322 0.8311 0.1614
vn -0.5006 -0.8233 -0.2676
vn 0.4904 0.8311 0.2621
vn -0.4388 -0.8233 -0.3601
vn 0.4299 0.8311 0.3528
vn -0.3601 -0.8233 -0.4388
vn 0.3528 0.8311 0.4299
vn -0.2676 -0.8233 -0.5006
vn 0.2621 0.8311 0.4904
vn -0.1648 -0.8233 -0.5432
vn 0.1614 0.8311 0.5322
vn -0.0556 -0.8233 -0.5649
vn 0.0545 0.8311 0.5534
vn 0.0556 -0.8233 -0.5649
vn -0.0545 0.8311 0.5534
vn 0.1648 -0.8233 -0.5432
vn -0.1614 0.8311 0.5322
vn 0.2676 -0.8233 -0.5006
vn -0.2621 0.8311 0.4904
vn 0.3601 -0.8233 -0.4388
vn -0.3528 0.8311 0.4299
vn 0.4388 -0.8233 -0.3601
vn -0.4299 0.8311 0.3528
vn 0.5006 -0.8233 -0.2676
vn -0.4904 0.8311 0.2621
vn 0.5432 -0.8233 -0.1648
vn -0.5322 0.8311 0.1614
vn 0.5649 -0.8233 -0.0556
vn -0.5534 0.8311 0.0545
vn 0.5649 -0.8233 0.0556
vn -0.5534 0.8311 -0.0545
vn 0.5432 -0.8233 0.1648
vn -0.5322 0.8311 -0.1614
vn 0.5006 -0.8233 0.2676
vn -0.4904 0.8311 -0.2621
vn 0.4388 -0.8233 0.3601
vn -0.4299 0.8311 -0.3528
vn 0.3601 -0.8233 0.4388
vn -0.3528 0.8311 -0.4299
vn 0.2676 -0.8233 0.5006
vn -0.2621 0.8311 -0.4904
vn 0.1648 -0.8233 0.5432
vn -0.1614 0.8311 -0.5322
vn -0.0556 -0.8233 0.5649
vn -0.1648 -0.8233 0.5432
vn 0.0464 -0.8808 -0.4712
vn 0.1374 -0.8808 -0.4531
vn 0.2232 -0.8808 -0.4176
vn 0.3004 -0.8808 -0.3660
vn 0.3660 -0.8808 -0.3004
vn 0.4176 -0.8808 -0.2232
vn 0.4531 -0.8808 -0.1374
vn 0.4712 -0.8808 -0.0464
vn 0.4712 -0.8808 0.0464
vn 0.4531 -0.8808 0.1374
vn 0.4176 -0.8808 0.2232
vn 0.3660 -0.8808 0.3004
vn 0.3004 -0.8808 0.3660
vn 0.2232 -0.8808 0.4176
vn 0.1374 -0.8808 0.4531
vn 0.0464 -0.8808 0.4712
vn -0.0464 -0.8808 0.4712
vn -0.1374 -0.8808 0.4531
vn -0.2232 -0.8808 0.4176
vn -0.3004 -0.8808 0.3660
vn -0.3660 -0.8808 0.3004
vn -0.4176 -0.8808 0.2232
vn -0.4531 -0.8808 0.1374
vn -0.4712 -0.8808 0.0464
vn -0.4712 -0.8808 -0.0464
vn -0.4531 -0.8808 -0.1374
vn -0.4176 -0.8808 -0.2232
vn -0.3660 -0.8808 -0.3004
vn -0.3004 -0.8808 -0.3660
vn -0.2232 -0.8808 -0.4176
vn -0.1374 -0.8808 -0.4531
vn -0.0464 -0.8808 -0.4712
vn 0.0556 -0.8233 0.5649
usemtl Material.004
s off
f 4/1/1 2/2/1 5/3/1
f 65/4/2 2/2/2 4/1/2
f 5/3/3 2/2/3 7/5/3
f 1/6/4 8/7/4 10/8/4
f 7/5/5 2/2/5 9/9/5
f 1/6/6 10/8/6 12/10/6
f 9/9/7 2/2/7 11/11/7
f 1/6/8 12/10/8 14/12/8
f 11/11/9 2/2/9 13/13/9
f 1/6/10 14/12/10 16/14/10
f 13/13/11 2/2/11 15/15/11
f 1/6/12 16/14/12 18/16/12
f 15/15/13 2/2/13 17/17/13
f 1/6/14 18/16/14 20/18/14
f 17/17/15 2/2/15 19/19/15
f 1/6/16 20/18/16 22/20/16
f 19/19/17 2/2/17 21/21/17
f 1/6/18 22/20/18 24/22/18
f 21/21/19 2/2/19 23/23/19
f 1/6/20 24/22/20 26/24/20
f 23/23/21 2/2/21 25/25/21
f 1/6/22 26/24/22 28/26/22
f 25/25/23 2/2/23 27/27/23
f 1/6/24 28/26/24 30/28/24
f 27/27/25 2/2/25 29/29/25
f 1/6/26 30/28/26 32/30/26
f 29/29/27 2/2/27 31/31/27
f 1/6/28 32/30/28 34/32/28
f 31/31/29 2/2/29 33/33/29
f 1/6/30 34/32/30 36/34/30
f 33/33/31 2/2/31 35/35/31
f 1/6/32 36/34/32 38/36/32
f 35/35/33 2/2/33 37/37/33
f 1/6/34 38/36/34 40/38/34
f 37/37/35 2/2/35 39/39/35
f 1/6/36 40/38/36 42/40/36
f 39/39/37 2/2/37 41/41/37
f 1/6/38 42/40/38 44/42/38
f 41/41/39 2/2/39 43/43/39
f 1/6/40 44/42/40 46/44/40
f 43/43/41 2/2/41 45/45/41
f 1/6/42 46/44/42 48/46/42
f 45/45/43 2/2/43 47/47/43
f 1/6/44 48/46/44 50/48/44
f 47/47/45 2/2/45 49/49/45
f 1/6/46 50/48/46 52/50/46
f 49/49/47 2/2/47 51/51/47
f 1/6/48 52/50/48 54/52/48
f 51/51/49 2/2/49 53/53/49
f 1/6/50 54/52/50 56/54/50
f 53/53/51 2/2/51 55/55/51
f 1/6/52 56/54/52 58/56/52
f 55/55/53 2/2/53 57/57/53
f 1/6/54 58/56/54 60/58/54
f 57/57/55 2/2/55 59/59/55
f 1/6/56 60/58/56 62/60/56
f 59/59/57 2/2/57 61/61/57
f 1/6/58 62/60/58 64/62/58
f 61/61/59 2/2/59 63/63/59
f 1/6/60 64/62/60 66/64/60
f 63/63/61 2/2/61 65/4/61
f 1/6/62 3/65/62 6/66/62
f 1/6/63 6/66/63 8/7/63
f 5/67/64 3/65/64 4/68/64
f 5/69/65 8/7/65 6/66/65
f 7/70/66 10/8/66 8/7/66
f 11/71/67 10/8/67 9/72/67
f 13/73/68 12/10/68 11/74/68
f 15/75/69 14/12/69 13/76/69
f 17/77/70 16/14/70 15/78/70
f 19/79/71 18/16/71 17/80/71
f 21/81/72 20/18/72 19/82/72
f 21/83/73 24/22/73 22/20/73
f 23/84/74 26/24/74 24/22/74
f 25/85/75 28/26/75 26/24/75
f 29/86/76 28/26/76 27/87/76
f 31/88/77 30/28/77 29/89/77
f 33/90/78 32/30/78 31/91/78
f 33/92/79 36/34/79 34/32/79
f 35/93/80 38/36/80 36/34/80
f 39/94/81 38/36/81 37/95/81
f 41/96/82 40/38/82 39/97/82
f 43/98/83 42/40/83 41/99/83
f 43/100/84 46/44/84 44/42/84
f 45/101/85 48/46/85 46/44/85
f 49/102/86 48/46/86 47/103/86
f 49/104/87 52/50/87 50/48/87
f 53/105/88 52/50/88 51/106/88
f 53/107/89 56/54/89 54/52/89
f 55/108/90 58/56/90 56/54/90
f 57/109/91 60/58/91 58/56/91
f 61/110/92 60/58/92 59/111/92
f 63/112/93 62/60/93 61/113/93
f 65/114/94 64/62/94 63/115/94
f 65/116/95 3/65/95 66/64/95
f 1/6/96 66/64/96 3/65/96
f 5/67/64 6/66/64 3/65/64
f 5/69/65 7/117/65 8/7/65
f 7/70/66 9/118/66 10/8/66
f 11/71/67 12/10/67 10/8/67
f 13/73/68 14/12/68 12/10/68
f 15/75/69 16/14/69 14/12/69
f 17/77/70 18/16/70 16/14/70
f 19/79/71 20/18/71 18/16/71
f 21/81/72 22/20/72 20/18/72
f 21/83/73 23/119/73 24/22/73
f 23/84/74 25/120/74 26/24/74
f 25/85/75 27/121/75 28/26/75
f 29/86/76 30/28/76 28/26/76
f 31/88/77 32/30/77 30/28/77
f 33/90/78 34/32/78 32/30/78
f 33/92/79 35/122/79 36/34/79
f 35/93/80 37/123/80 38/36/80
f 39/94/81 40/38/81 38/36/81
f 41/96/82 42/40/82 40/38/82
f 43/98/83 44/42/83 42/40/83
f 43/100/84 45/124/84 46/44/84
f 45/101/85 47/125/85 48/46/85
f 49/102/86 50/48/86 48/46/86
f 49/104/87 51/126/87 52/50/87
f 53/105/88 54/52/88 52/50/88
f 53/107/89 55/127/89 56/54/89
f 55/108/90 57/128/90 58/56/90
f 57/109/91 59/129/91 60/58/91
f 61/110/92 62/60/92 60/58/92
f 63/112/93 64/62/93 62/60/93
f 65/114/94 66/64/94 64/62/94
f 65/116/95 4/130/95 3/65/95
