# Blender v3.1.2 OBJ File: ''
# www.blender.org
mtllib Trasher(l).mtl
o Cube.003_Cube.008
v -0.119952 0.440873 0.119952
v -0.103975 0.689861 0.103975
v -0.119952 0.440873 -0.119952
v -0.103975 0.689861 -0.103975
v 0.119952 0.440873 0.119952
v 0.103975 0.689861 0.103975
v 0.119952 0.440873 -0.119952
v 0.103975 0.689861 -0.103975
v -0.045227 0.341175 -0.045227
v -0.045227 0.341175 0.045227
v 0.045227 0.341175 -0.045227
v 0.045227 0.341175 0.045227
v -0.026546 0.281020 -0.026546
v -0.026546 0.281020 0.026546
v 0.026546 0.281020 -0.026546
v 0.026546 0.281020 0.026546
v -0.045619 0.124861 -0.045619
v -0.045619 0.124861 0.045619
v 0.045619 0.124861 -0.045619
v 0.045619 0.124861 0.045619
v -0.121914 0.026425 -0.121914
v -0.121914 0.026425 0.121914
v 0.121914 0.026425 -0.121914
v 0.121914 0.026425 0.121914
v -0.105741 -0.016260 -0.105741
v -0.105741 -0.016260 0.105741
v 0.105741 -0.016260 -0.105741
v 0.105741 -0.016260 0.105741
v -0.164934 0.440873 -0.000000
v -0.130361 0.580596 0.130361
v -0.126760 0.712646 0.000000
v -0.130361 0.580596 -0.130361
v 0.000000 0.440873 -0.164934
v -0.000000 0.712646 -0.126760
v 0.130361 0.580596 -0.130361
v 0.164934 0.440873 0.000000
v 0.126760 0.712646 -0.000000
v 0.130361 0.580596 0.130361
v -0.000000 0.440873 0.164934
v 0.000000 0.712646 0.126760
v -0.062187 0.341175 0.000000
v 0.000000 0.341175 -0.062187
v 0.062187 0.341175 0.000000
v -0.000000 0.341175 0.062187
v 0.082590 0.366853 0.082590
v 0.082590 0.366853 -0.082590
v -0.082590 0.366853 0.082590
v -0.082590 0.366853 -0.082590
v -0.036500 0.281020 0.000000
v -0.000000 0.281020 -0.036500
v 0.036500 0.281020 -0.000000
v 0.000000 0.281020 0.036500
v 0.028881 0.321579 0.028881
v 0.028881 0.321579 -0.028881
v -0.028881 0.321579 -0.028881
v -0.028881 0.321579 0.028881
v -0.062727 0.124861 0.000000
v 0.000000 0.124861 -0.062727
v 0.062727 0.124861 0.000000
v -0.000000 0.124861 0.062727
v -0.028930 0.206358 0.028930
v 0.028930 0.206358 0.028930
v 0.028930 0.206358 -0.028930
v -0.028930 0.206358 -0.028930
v -0.167632 0.026425 0.000000
v 0.000000 0.026425 -0.167632
v 0.167632 0.026425 0.000000
v -0.000000 0.026425 0.167632
v 0.083767 0.065845 -0.083767
v -0.083767 0.065845 -0.083767
v 0.083767 0.065845 0.083767
v -0.083767 0.065845 0.083767
v -0.128912 -0.018957 0.000000
v -0.000000 -0.018957 -0.128912
v 0.128912 -0.018957 -0.000000
v 0.000000 -0.018957 0.128912
v 0.132566 -0.001677 0.132566
v 0.132566 -0.001677 -0.132566
v -0.132566 -0.001677 -0.132566
v -0.132566 -0.001677 0.132566
v -0.179387 0.582842 -0.000000
v 0.000000 0.582842 -0.179387
v 0.179387 0.582842 0.000000
v -0.000000 0.582842 0.179387
v 0.113561 0.366853 -0.000000
v -0.000000 0.760462 -0.000000
v 0.039711 0.321579 -0.000000
v -0.000000 0.366853 0.113561
v -0.000000 0.366853 -0.113561
v -0.113561 0.366853 -0.000000
v -0.000000 0.206358 0.039779
v -0.039711 0.321579 0.000000
v -0.000000 0.321579 0.039711
v -0.000000 0.321579 -0.039711
v 0.000000 0.065845 -0.115179
v -0.000000 0.206358 -0.039779
v 0.039779 0.206358 -0.000000
v -0.039779 0.206358 0.000000
v 0.182421 -0.001943 -0.000000
v 0.115179 0.065845 0.000000
v -0.115179 0.065845 0.000000
v -0.000000 0.065845 0.115179
v 0.000000 -0.024615 -0.000000
v -0.182421 -0.001943 0.000000
v -0.000000 -0.001943 0.182421
v -0.000000 -0.001943 -0.182421
vt 0.500000 0.000000
vt 0.413194 0.125000
vt 0.375000 0.000000
vt 0.625000 0.000000
vt 0.504340 0.125000
vt 0.625000 0.250000
vt 0.505208 0.250000
vt 0.416667 0.250000
vt 0.416667 0.375000
vt 0.505208 0.375000
vt 0.625000 0.500000
vt 0.505208 0.500000
vt 0.416667 0.500000
vt 0.416667 0.625000
vt 0.505208 0.625000
vt 0.625000 0.750000
vt 0.505208 0.750000
vt 0.416667 0.750000
vt 0.413194 0.875000
vt 0.504340 0.875000
vt 0.625000 1.000000
vt 0.500000 1.000000
vt 0.375000 1.000000
vt 0.380208 0.500000
vt 0.380208 0.750000
vt 0.380208 0.625000
vt 0.375000 0.750000
vt 0.375000 0.625000
vt 0.375000 0.500000
vt 0.750000 0.625000
vt 0.625000 0.625000
vt 0.875000 0.500000
vt 0.750000 0.500000
vt 0.875000 0.750000
vt 0.750000 0.750000
vt 0.375000 0.500000
vt 0.375000 0.750000
vt 0.375000 0.625000
vt 0.375000 0.750000
vt 0.375000 0.625000
vt 0.375000 0.500000
vt 0.375000 1.000000
vt 0.379340 0.875000
vt 0.375000 1.000000
vt 0.375000 0.875000
vt 0.380208 0.250000
vt 0.380208 0.375000
vt 0.375000 0.375000
vt 0.375000 0.250000
vt 0.375000 0.000000
vt 0.379340 0.125000
vt 0.375000 0.125000
vt 0.375000 0.000000
vt 0.375000 0.875000
vt 0.375000 0.750000
vt 0.375000 1.000000
vt 0.375000 0.875000
vt 0.375000 1.000000
vt 0.375000 0.875000
vt 0.375000 0.750000
vt 0.375000 0.000000
vt 0.375000 0.250000
vt 0.375000 0.125000
vt 0.375000 0.250000
vt 0.375000 0.125000
vt 0.375000 0.000000
vt 0.375000 1.000000
vt 0.375000 0.875000
vt 0.375000 0.375000
vt 0.375000 0.375000
vt 0.375000 0.250000
vt 0.375000 0.375000
vt 0.375000 0.250000
vt 0.375000 0.500000
vt 0.375000 0.375000
vt 0.375000 0.500000
vt 0.375000 0.375000
vt 0.375000 0.250000
vt 0.375000 0.375000
vt 0.375000 0.250000
vt 0.375000 0.500000
vt 0.375000 0.625000
vt 0.375000 0.625000
vt 0.375000 0.125000
vt 0.375000 0.000000
vt 0.375000 0.125000
vt 0.375000 0.000000
vt 0.375000 0.500000
vt 0.371528 0.625000
vt 0.374132 0.500000
vt 0.375000 0.750000
vt 0.375000 0.625000
vt 0.375000 0.750000
vt 0.340278 0.625000
vt 0.375000 0.500000
vt 0.375000 0.625000
vt 0.375000 0.750000
vt 0.375000 0.125000
vt 0.375000 0.000000
vt 0.375000 0.125000
vt 0.375000 0.000000
vt 0.375000 0.875000
vt 0.375000 1.000000
vt 0.375000 1.000000
vt 0.375000 0.875000
vt 0.125000 0.500000
vt 0.246528 0.625000
vt 0.125000 0.625000
vt 0.250000 0.500000
vt 0.250000 0.750000
vt 0.125000 0.750000
vt 0.375000 0.125000
vt 0.375000 0.000000
vt 0.375000 0.250000
vt 0.375000 0.125000
vt 0.375000 0.000000
vt 0.375000 0.875000
vt 0.374132 0.750000
vt 0.375000 1.000000
vt 0.375000 1.000000
vt 0.375000 0.875000
vt 0.375000 0.375000
vt 0.375000 0.250000
vt 0.375000 0.375000
vt 0.625000 0.125000
vt 0.625000 0.375000
vt 0.625000 0.875000
vt 0.875000 0.625000
vt 0.375000 1.000000
vn -0.9321 -0.0955 0.3495
vn -0.8919 0.2976 0.3405
vn -0.8919 0.2976 -0.3405
vn -0.9321 -0.0955 -0.3495
vn -0.3495 -0.0955 -0.9321
vn -0.3405 0.2976 -0.8919
vn 0.3405 0.2976 -0.8919
vn 0.3495 -0.0955 -0.9321
vn 0.9321 -0.0955 -0.3495
vn 0.8919 0.2976 -0.3405
vn 0.8919 0.2976 0.3405
vn 0.9321 -0.0955 0.3495
vn 0.3495 -0.0955 0.9321
vn 0.3405 0.2976 0.8919
vn -0.3405 0.2976 0.8919
vn -0.3495 -0.0955 0.9321
vn 0.7851 -0.5449 -0.2944
vn 0.7851 -0.5449 0.2944
vn 0.4409 -0.8822 0.1654
vn 0.4409 -0.8822 -0.1654
vn 0.3397 0.9004 -0.2717
vn -0.2717 0.9004 -0.3397
vn -0.2717 0.9004 0.3397
vn 0.3397 0.9004 0.2717
vn 0.6381 -0.7319 -0.2393
vn 0.6381 -0.7319 0.2393
vn 0.9338 -0.0739 0.3502
vn 0.9338 -0.0739 -0.3502
vn 0.2944 -0.5449 0.7851
vn -0.2944 -0.5449 0.7851
vn -0.1654 -0.8822 0.4409
vn 0.1654 -0.8822 0.4409
vn -0.2944 -0.5449 -0.7851
vn 0.2944 -0.5449 -0.7851
vn 0.1654 -0.8822 -0.4409
vn -0.1654 -0.8822 -0.4409
vn -0.7851 -0.5449 0.2944
vn -0.7851 -0.5449 -0.2944
vn -0.4409 -0.8822 -0.1654
vn -0.4409 -0.8822 0.1654
vn 0.3508 0.0411 0.9355
vn -0.3508 0.0411 0.9355
vn -0.3395 0.2549 0.9054
vn 0.3395 0.2549 0.9054
vn -0.6381 -0.7319 0.2393
vn -0.6381 -0.7319 -0.2393
vn -0.9338 -0.0739 -0.3502
vn -0.9338 -0.0739 0.3502
vn 0.2393 -0.7319 0.6381
vn -0.2393 -0.7319 0.6381
vn -0.3502 -0.0739 0.9338
vn 0.3502 -0.0739 0.9338
vn -0.2393 -0.7319 -0.6381
vn 0.2393 -0.7319 -0.6381
vn 0.3502 -0.0739 -0.9338
vn -0.3502 -0.0739 -0.9338
vn -0.2699 0.6397 -0.7197
vn 0.2699 0.6397 -0.7197
vn 0.2198 0.7799 -0.5861
vn -0.2198 0.7799 -0.5861
vn -0.3508 0.0411 -0.9355
vn 0.3508 0.0411 -0.9355
vn 0.3395 0.2549 -0.9054
vn -0.3395 0.2549 -0.9054
vn 0.9355 0.0411 -0.3508
vn 0.9355 0.0411 0.3508
vn 0.9054 0.2549 0.3395
vn 0.9054 0.2549 -0.3395
vn -0.9355 0.0411 0.3508
vn -0.9355 0.0411 -0.3508
vn -0.9054 0.2549 -0.3395
vn -0.9054 0.2549 0.3395
vn 0.8415 0.4386 -0.3156
vn 0.8414 0.4387 0.3155
vn 0.3018 -0.9491 0.0903
vn 0.3627 -0.9216 -0.1383
vn 0.7197 0.6397 -0.2699
vn 0.7197 0.6397 0.2699
vn 0.5861 0.7799 0.2198
vn 0.5861 0.7799 -0.2198
vn -0.7197 0.6397 0.2699
vn -0.7197 0.6397 -0.2699
vn -0.5861 0.7799 -0.2198
vn -0.5861 0.7799 0.2198
vn 0.2699 0.6397 0.7197
vn -0.2699 0.6397 0.7197
vn -0.2198 0.7799 0.5861
vn 0.2198 0.7799 0.5861
vn -0.0438 -0.9984 -0.0351
vn 0.0351 -0.9984 -0.0438
vn 0.0351 -0.9984 0.0438
vn -0.0438 -0.9984 0.0351
vn -0.8415 0.4386 0.3156
vn -0.8414 0.4387 -0.3155
vn -0.3018 -0.9491 -0.0903
vn -0.3627 -0.9216 0.1383
vn 0.3156 0.4386 0.8415
vn -0.3155 0.4387 0.8414
vn -0.0903 -0.9491 0.3018
vn 0.1383 -0.9216 0.3627
vn -0.3156 0.4386 -0.8415
vn 0.3155 0.4387 -0.8414
vn 0.0903 -0.9491 -0.3018
vn -0.1383 -0.9216 -0.3627
vn -0.9323 -0.0949 0.3490
vn -0.8911 0.3613 0.2745
vn -0.8911 0.3613 -0.2745
vn -0.9323 -0.0949 -0.3490
vn -0.3490 -0.0949 -0.9323
vn -0.2745 0.3613 -0.8911
vn 0.2745 0.3613 -0.8911
vn 0.3490 -0.0949 -0.9323
vn 0.9323 -0.0949 -0.3490
vn 0.8911 0.3613 -0.2745
vn 0.8911 0.3613 0.2745
vn 0.9323 -0.0949 0.3490
vn 0.3490 -0.0949 0.9323
vn 0.2745 0.3613 0.8911
vn -0.2745 0.3613 0.8911
vn -0.3490 -0.0949 0.9323
vn 0.2717 0.9004 -0.3397
vn -0.3397 0.9004 -0.2717
vn -0.3397 0.9004 0.2717
vn 0.2717 0.9004 0.3397
vn 0.8414 0.4387 -0.3155
vn 0.8415 0.4386 0.3156
vn 0.3627 -0.9216 0.1383
vn 0.3018 -0.9491 -0.0903
vn -0.0351 -0.9984 -0.0438
vn 0.0438 -0.9984 -0.0351
vn 0.0438 -0.9984 0.0351
vn -0.0351 -0.9984 0.0438
vn -0.8414 0.4387 0.3155
vn -0.8415 0.4386 -0.3156
vn -0.3627 -0.9216 -0.1383
vn -0.3018 -0.9491 0.0903
vn 0.3155 0.4387 0.8414
vn -0.3156 0.4386 0.8415
vn -0.1383 -0.9216 0.3627
vn 0.0903 -0.9491 0.3018
vn -0.3155 0.4387 -0.8414
vn 0.3156 0.4386 -0.8415
vn 0.1383 -0.9216 -0.3627
vn -0.0903 -0.9491 -0.3018
usemtl None
s off
f 30/1/1 29/2/1 1/3/1
f 2/4/2 81/5/2 30/1/2
f 81/5/3 4/6/3 32/7/3
f 29/2/4 32/7/4 3/8/4
f 32/7/5 33/9/5 3/8/5
f 4/6/6 82/10/6 32/7/6
f 82/10/7 8/11/7 35/12/7
f 33/9/8 35/12/8 7/13/8
f 35/12/9 36/14/9 7/13/9
f 8/11/10 83/15/10 35/12/10
f 83/15/11 6/16/11 38/17/11
f 36/14/12 38/17/12 5/18/12
f 38/17/13 39/19/13 5/18/13
f 6/16/14 84/20/14 38/17/14
f 84/20/15 2/21/15 30/22/15
f 39/19/16 30/22/16 1/23/16
f 36/14/17 46/24/17 7/13/17
f 36/14/18 45/25/18 85/26/18
f 85/26/19 12/27/19 43/28/19
f 85/26/20 11/29/20 46/24/20
f 8/11/21 86/30/21 37/31/21
f 4/32/22 86/30/22 34/33/22
f 86/30/23 2/34/23 40/35/23
f 86/30/24 6/16/24 37/31/24
f 43/28/25 54/36/25 11/29/25
f 43/28/26 53/37/26 87/38/26
f 87/38/27 16/39/27 51/40/27
f 87/38/28 15/41/28 54/36/28
f 39/19/29 45/25/29 5/18/29
f 39/19/30 47/42/30 88/43/30
f 88/43/31 10/44/31 44/45/31
f 88/43/32 12/27/32 45/25/32
f 33/9/33 48/46/33 3/8/33
f 33/9/34 46/24/34 89/47/34
f 89/47/35 11/29/35 42/48/35
f 89/47/36 9/49/36 48/46/36
f 29/2/37 47/50/37 1/3/37
f 29/2/38 48/46/38 90/51/38
f 90/51/39 9/49/39 41/52/39
f 90/51/40 10/53/40 47/50/40
f 16/39/41 91/54/41 62/55/41
f 14/56/42 91/54/42 52/57/42
f 61/58/43 60/59/43 91/54/43
f 62/55/44 60/59/44 20/60/44
f 41/52/45 56/61/45 10/53/45
f 41/52/46 55/62/46 92/63/46
f 92/63/47 13/64/47 49/65/47
f 92/63/48 14/66/48 56/61/48
f 44/45/49 53/37/49 12/27/49
f 44/45/50 56/67/50 93/68/50
f 93/68/51 14/56/51 52/57/51
f 93/68/52 16/39/52 53/37/52
f 42/48/53 55/62/53 9/49/53
f 42/48/54 54/36/54 94/69/54
f 94/69/55 15/41/55 50/70/55
f 94/69/56 13/64/56 55/62/56
f 17/71/57 95/72/57 70/73/57
f 19/74/58 95/72/58 58/75/58
f 69/76/59 66/77/59 95/72/59
f 70/73/60 66/77/60 21/78/60
f 13/64/61 96/79/61 64/80/61
f 15/41/62 96/79/62 50/70/62
f 63/81/63 58/75/63 96/79/63
f 64/80/64 58/75/64 17/71/64
f 15/41/65 97/82/65 63/81/65
f 16/39/66 97/82/66 51/40/66
f 62/55/67 59/83/67 97/82/67
f 63/81/68 59/83/68 19/74/68
f 14/66/69 98/84/69 61/85/69
f 13/64/70 98/84/70 49/65/70
f 64/80/71 57/86/71 98/84/71
f 61/85/72 57/86/72 18/87/72
f 23/88/73 99/89/73 78/90/73
f 24/91/74 99/89/74 67/92/74
f 99/89/75 28/93/75 75/94/75
f 99/89/76 27/95/76 78/90/76
f 19/74/77 100/96/77 69/76/77
f 20/60/78 100/96/78 59/83/78
f 71/97/79 67/92/79 100/96/79
f 69/76/80 67/92/80 23/88/80
f 18/87/81 101/98/81 72/99/81
f 17/71/82 101/98/82 57/86/82
f 70/73/83 65/100/83 101/98/83
f 72/99/84 65/100/84 22/101/84
f 20/60/85 102/102/85 71/97/85
f 18/103/86 102/102/86 60/59/86
f 72/104/87 68/105/87 102/102/87
f 71/97/88 68/105/88 24/91/88
f 25/106/89 103/107/89 73/108/89
f 27/95/90 103/107/90 74/109/90
f 103/107/91 28/93/91 76/110/91
f 103/107/92 26/111/92 73/108/92
f 22/101/93 104/112/93 80/113/93
f 21/78/94 104/112/94 65/100/94
f 104/112/95 25/114/95 73/115/95
f 104/112/96 26/116/96 80/113/96
f 24/91/97 105/117/97 77/118/97
f 22/119/98 105/117/98 68/105/98
f 105/117/99 26/120/99 76/121/99
f 105/117/100 28/93/100 77/118/100
f 21/78/101 106/122/101 79/123/101
f 23/88/102 106/122/102 66/77/102
f 106/122/103 27/95/103 74/124/103
f 106/122/104 25/114/104 79/123/104
f 30/1/105 81/5/105 29/2/105
f 2/4/106 31/125/106 81/5/106
f 81/5/107 31/125/107 4/6/107
f 29/2/108 81/5/108 32/7/108
f 32/7/109 82/10/109 33/9/109
f 4/6/110 34/126/110 82/10/110
f 82/10/111 34/126/111 8/11/111
f 33/9/112 82/10/112 35/12/112
f 35/12/113 83/15/113 36/14/113
f 8/11/114 37/31/114 83/15/114
f 83/15/115 37/31/115 6/16/115
f 36/14/116 83/15/116 38/17/116
f 38/17/117 84/20/117 39/19/117
f 6/16/118 40/127/118 84/20/118
f 84/20/119 40/127/119 2/21/119
f 39/19/120 84/20/120 30/22/120
f 36/14/17 85/26/17 46/24/17
f 36/14/18 5/18/18 45/25/18
f 85/26/19 45/25/19 12/27/19
f 85/26/20 43/28/20 11/29/20
f 8/11/121 34/33/121 86/30/121
f 4/32/122 31/128/122 86/30/122
f 86/30/123 31/128/123 2/34/123
f 86/30/124 40/35/124 6/16/124
f 43/28/25 87/38/25 54/36/25
f 43/28/26 12/27/26 53/37/26
f 87/38/27 53/37/27 16/39/27
f 87/38/28 51/40/28 15/41/28
f 39/19/29 88/43/29 45/25/29
f 39/19/30 1/23/30 47/42/30
f 88/43/31 47/42/31 10/44/31
f 88/43/32 44/45/32 12/27/32
f 33/9/33 89/47/33 48/46/33
f 33/9/34 7/13/34 46/24/34
f 89/47/35 46/24/35 11/29/35
f 89/47/36 42/48/36 9/49/36
f 29/2/37 90/51/37 47/50/37
f 29/2/38 3/8/38 48/46/38
f 90/51/39 48/46/39 9/49/39
f 90/51/40 41/52/40 10/53/40
f 16/39/41 52/57/41 91/54/41
f 14/56/42 61/58/42 91/54/42
f 61/58/43 18/103/43 60/59/43
f 62/55/44 91/54/44 60/59/44
f 41/52/45 92/63/45 56/61/45
f 41/52/46 9/49/46 55/62/46
f 92/63/47 55/62/47 13/64/47
f 92/63/48 49/65/48 14/66/48
f 44/45/49 93/68/49 53/37/49
f 44/45/50 10/44/50 56/67/50
f 93/68/51 56/67/51 14/56/51
f 93/68/52 52/57/52 16/39/52
f 42/48/53 94/69/53 55/62/53
f 42/48/54 11/29/54 54/36/54
f 94/69/55 54/36/55 15/41/55
f 94/69/56 50/70/56 13/64/56
f 17/71/57 58/75/57 95/72/57
f 19/74/58 69/76/58 95/72/58
f 69/76/59 23/88/59 66/77/59
f 70/73/60 95/72/60 66/77/60
f 13/64/61 50/70/61 96/79/61
f 15/41/62 63/81/62 96/79/62
f 63/81/63 19/74/63 58/75/63
f 64/80/64 96/79/64 58/75/64
f 15/41/65 51/40/65 97/82/65
f 16/39/66 62/55/66 97/82/66
f 62/55/67 20/60/67 59/83/67
f 63/81/68 97/82/68 59/83/68
f 14/66/69 49/65/69 98/84/69
f 13/64/70 64/80/70 98/84/70
f 64/80/71 17/71/71 57/86/71
f 61/85/72 98/84/72 57/86/72
f 23/88/125 67/92/125 99/89/125
f 24/91/126 77/118/126 99/89/126
f 99/89/127 77/118/127 28/93/127
f 99/89/128 75/94/128 27/95/128
f 19/74/77 59/83/77 100/96/77
f 20/60/78 71/97/78 100/96/78
f 71/97/79 24/91/79 67/92/79
f 69/76/80 100/96/80 67/92/80
f 18/87/81 57/86/81 101/98/81
f 17/71/82 70/73/82 101/98/82
f 70/73/83 21/78/83 65/100/83
f 72/99/84 101/98/84 65/100/84
f 20/60/85 60/59/85 102/102/85
f 18/103/86 72/104/86 102/102/86
f 72/104/87 22/119/87 68/105/87
f 71/97/88 102/102/88 68/105/88
f 25/106/129 74/109/129 103/107/129
f 27/95/130 75/94/130 103/107/130
f 103/107/131 75/94/131 28/93/131
f 103/107/132 76/110/132 26/111/132
f 22/101/133 65/100/133 104/112/133
f 21/78/134 79/123/134 104/112/134
f 104/112/135 79/123/135 25/114/135
f 104/112/136 73/115/136 26/116/136
f 24/91/137 68/105/137 105/117/137
f 22/119/138 80/129/138 105/117/138
f 105/117/139 80/129/139 26/120/139
f 105/117/140 76/121/140 28/93/140
f 21/78/141 66/77/141 106/122/141
f 23/88/142 78/90/142 106/122/142
f 106/122/143 78/90/143 27/95/143
f 106/122/144 74/124/144 25/114/144
