# Blender v3.1.2 OBJ File: ''
# www.blender.org
mtllib votvkel(g).mtl
o Plane_Plane.001
v 0.341903 1.650370 -0.092239
v 0.269148 1.456204 -0.071317
v 0.118533 1.344527 -0.059283
v -0.000173 1.326760 -0.057369
v -0.117602 1.340720 -0.058873
v -0.266941 1.458742 -0.071590
v -0.351184 1.650370 -0.092239
v -0.270770 1.883876 -0.117400
v -0.150788 1.960020 -0.125604
v 0.003656 1.998091 -0.129707
v 0.159378 1.957481 -0.125331
v 0.278083 1.876262 -0.116579
v -0.198175 1.945619 -0.124053
v -0.281495 1.895386 -0.118640
v -0.322269 1.789631 -0.107244
v -0.370135 1.965889 -0.126237
v 0.386297 1.967651 -0.126427
v 0.176769 1.957076 -0.125287
v 0.284908 1.886573 -0.117691
v 0.326569 1.757905 -0.103826
v 0.258707 1.590742 -0.085814
v -0.003665 1.551965 -0.081635
v -0.271355 1.609249 -0.087808
v -0.223490 1.477937 -0.073658
v -0.004551 1.367775 -0.061788
v 0.235660 1.474411 -0.073279
v -0.133848 1.579823 -0.084637
v -0.219668 1.598188 -0.086616
v 0.126199 1.425819 -0.068043
v 0.207599 1.583188 -0.085000
v -0.145679 1.438785 -0.069440
v 0.191936 1.455001 -0.071187
v 0.252074 1.557260 -0.082206
v 0.207128 1.461745 -0.071914
v 0.179624 1.449535 -0.070598
v 0.191357 1.551788 -0.081616
v 0.113955 1.437711 -0.069324
v 0.193794 1.581148 -0.084780
v -0.003771 1.530055 -0.079274
v 0.111830 1.419440 -0.067355
v -0.021501 1.395573 -0.064784
v -0.016251 1.554658 -0.081926
v -0.136074 1.553285 -0.081777
v -0.025384 1.378258 -0.062918
v -0.151106 1.583516 -0.085035
v -0.157225 1.463661 -0.072120
v -0.220489 1.572348 -0.083832
v -0.160464 1.446224 -0.070241
v -0.231387 1.499600 -0.075993
v -0.228125 1.599998 -0.086811
v -0.297949 1.622948 -0.089284
v 0.275449 1.602741 -0.087107
v -0.234028 1.469736 -0.072775
v -0.005339 1.351643 -0.060050
v 0.249055 1.467092 -0.072490
v 0.000865 1.569321 -0.083506
v -0.109353 1.993562 0.157458
v 0.155426 1.993562 0.157458
v -0.031986 1.753744 0.139036
v 0.035736 1.753744 0.139036
v -0.000117 1.626777 0.129283
v -0.085530 1.919715 0.151786
v 0.116292 1.915150 0.151435
v -0.081151 1.906141 0.150743
v 0.110696 1.903938 0.150574
v 0.155426 1.993561 -0.091374
v -0.109353 1.993561 -0.091374
v -0.085530 1.919715 -0.085702
v 0.116292 1.915150 -0.085351
v 0.341903 1.650784 -0.088398
v 0.269148 1.456618 -0.067476
v 0.118533 1.344941 -0.055443
v -0.000173 1.327174 -0.053528
v -0.117602 1.341134 -0.055032
v -0.266941 1.459156 -0.067749
v -0.351184 1.650784 -0.088398
v -0.270770 1.884290 -0.113559
v -0.150788 1.960433 -0.121764
v 0.003656 1.998505 -0.125866
v 0.159378 1.957895 -0.121490
v 0.278083 1.876676 -0.112739
v -0.198175 1.946033 -0.120212
v -0.281495 1.895800 -0.114799
v -0.322269 1.790045 -0.103404
v -0.370135 1.966303 -0.122396
v 0.386297 1.968065 -0.122586
v 0.176769 1.957490 -0.121447
v 0.284908 1.886987 -0.113850
v 0.326569 1.758318 -0.099985
v 0.258707 1.591155 -0.081973
v -0.003665 1.552379 -0.077795
v -0.271355 1.609663 -0.083967
v -0.223490 1.478350 -0.069818
v -0.004551 1.368189 -0.057948
v 0.235660 1.474825 -0.069438
v -0.133848 1.580237 -0.080796
v -0.219668 1.598602 -0.082775
v 0.126199 1.426232 -0.064202
v 0.207599 1.583602 -0.081159
v -0.145679 1.439199 -0.065599
v 0.191936 1.455415 -0.067347
v 0.252074 1.557674 -0.078365
v 0.207128 1.462159 -0.068073
v 0.179624 1.449949 -0.066758
v 0.191357 1.552202 -0.077776
v 0.113955 1.438125 -0.065483
v 0.193794 1.581562 -0.080939
v -0.003771 1.530468 -0.075434
v 0.111830 1.419854 -0.063515
v -0.021501 1.395987 -0.060943
v -0.016251 1.555072 -0.078085
v -0.136074 1.553698 -0.077937
v -0.025384 1.378671 -0.059077
v -0.151106 1.583930 -0.081194
v -0.157225 1.464075 -0.068279
v -0.220489 1.572762 -0.079991
v -0.160464 1.446638 -0.066401
v -0.231387 1.500014 -0.072152
v -0.228125 1.600412 -0.082970
v -0.297949 1.623362 -0.085443
v 0.275449 1.603155 -0.083266
v -0.234028 1.470150 -0.068934
v -0.005339 1.352057 -0.056209
v 0.249055 1.467506 -0.068649
v 0.000865 1.569735 -0.079665
v -0.109353 1.993857 0.153607
v 0.155426 1.993857 0.153607
v -0.031986 1.754040 0.135185
v 0.035736 1.754040 0.135185
v -0.000117 1.627073 0.125432
v -0.085530 1.920011 0.147934
v 0.116292 1.915446 0.147583
v -0.081151 1.906437 0.146891
v 0.110696 1.904234 0.146722
v 0.155426 1.993857 -0.087523
v -0.109353 1.993857 -0.087523
v -0.085530 1.920011 -0.081850
v 0.116292 1.915446 -0.081499
vt 0.506911 0.109985
vt 0.177639 0.260281
vt 0.346578 0.100722
vt 0.864351 0.817847
vt 0.979080 0.909631
vt 0.756505 0.883243
vt 0.000000 0.911925
vt 0.131232 0.806374
vt 0.271201 0.898158
vt 0.165146 0.421252
vt 0.251569 0.244540
vt 0.231297 0.411418
vt 0.789272 0.274399
vt 0.785388 0.397307
vt 0.707694 0.233114
vt 0.673245 0.407038
vt 0.521034 0.374277
vt 0.527830 0.167175
vt 0.231906 0.253320
vt 0.173731 0.377664
vt 0.194975 0.269809
vt 0.252319 0.370541
vt 0.267506 0.237425
vt 0.336656 0.206550
vt 0.249165 0.408762
vt 0.352503 0.222032
vt 0.504744 0.370771
vt 0.504880 0.342247
vt 0.355254 0.198246
vt 0.505891 0.130987
vt 0.676126 0.372489
vt 0.532856 0.144633
vt 0.688557 0.223430
vt 0.695583 0.411846
vt 0.703503 0.255814
vt 0.784325 0.430946
vt 0.795272 0.433302
vt 0.799493 0.302601
vt 0.851226 0.445345
vt 0.495267 0.951553
vt 0.293711 0.898685
vt 0.498880 0.393366
vt 0.232342 0.687716
vt 0.233164 0.687716
vt 0.272876 0.687716
vt 0.242401 0.687716
vt 0.249969 0.687716
vt 0.258490 0.687716
vt 0.273949 0.687716
vt 0.227866 0.687716
vt 0.273949 0.562284
vt 0.227866 0.562284
vt 0.281459 0.562284
vt 0.506911 0.109985
vt 0.802912 0.263722
vt 0.652217 0.095765
vt 0.864351 0.817847
vt 0.979080 0.909631
vt 0.917126 0.680172
vt 0.000000 0.911925
vt 0.131232 0.806374
vt 0.077309 0.638870
vt 0.165146 0.421252
vt 0.231297 0.411418
vt 0.251569 0.244540
vt 0.789272 0.274399
vt 0.707694 0.233114
vt 0.785388 0.397307
vt 0.673245 0.407038
vt 0.527830 0.167175
vt 0.521034 0.374277
vt 0.231906 0.253320
vt 0.194975 0.269809
vt 0.173731 0.377664
vt 0.252319 0.370541
vt 0.336656 0.206550
vt 0.267506 0.237425
vt 0.249165 0.408762
vt 0.504744 0.370771
vt 0.352503 0.222032
vt 0.504880 0.342247
vt 0.505891 0.130987
vt 0.355254 0.198246
vt 0.676126 0.372489
vt 0.688557 0.223430
vt 0.532856 0.144633
vt 0.695583 0.411846
vt 0.784325 0.430946
vt 0.703503 0.255814
vt 0.795272 0.433302
vt 0.851226 0.445345
vt 0.799493 0.302601
vt 0.885648 0.463179
vt 0.498880 0.393366
vt 0.850469 0.802864
vt 0.232342 0.687716
vt 0.273949 0.687716
vt 0.272876 0.687716
vt 0.242401 0.687716
vt 0.258490 0.687716
vt 0.249969 0.687716
vt 0.227866 0.687716
vt 0.273949 0.562284
vt 0.227866 0.562284
vt 0.232342 0.562284
vt 0.057461 0.498878
vt 0.151631 0.246106
vt 0.151631 0.246106
vt 0.346578 0.100722
vt 0.500224 0.077592
vt 0.500224 0.077592
vt 0.652217 0.095765
vt 0.845512 0.249411
vt 0.845512 0.249411
vt 0.954551 0.498878
vt 0.954551 0.498878
vt 0.850469 0.802864
vt 0.695171 0.901990
vt 0.695171 0.901990
vt 0.495267 0.951553
vt 0.293711 0.898685
vt 0.140066 0.792951
vt 0.140066 0.792951
vt 0.057461 0.498878
vt 0.917126 0.680172
vt 0.756505 0.883243
vt 0.271201 0.898158
vt 0.077309 0.638870
vt 0.885648 0.463179
vt 0.802912 0.263722
vt 0.177639 0.260281
vt 0.143475 0.436873
vt 0.143475 0.436873
vt 0.281459 0.687716
vt 0.233164 0.687716
vt 0.281459 0.687716
vt 0.281459 0.562284
vt 0.232342 0.562284
vn -0.0000 -0.1071 -0.9942
vn -0.0000 -0.0766 0.9971
vn 0.0000 -0.0766 -0.9971
vn 0.0000 0.1071 0.9942
vn -0.0000 0.0766 -0.9971
vn 0.0000 0.0766 0.9971
vn 0.9371 -0.3471 0.0374
vn 0.5978 -0.7970 0.0859
vn 0.1489 -0.9832 0.1060
vn -0.1187 -0.9872 0.1064
vn -0.6222 -0.7783 0.0839
vn -0.9163 -0.3982 0.0429
vn -0.9461 0.3221 -0.0347
vn -0.5380 0.8381 -0.0903
vn -0.2406 0.9650 -0.1039
vn 0.2537 0.9617 -0.1037
vn 0.5669 0.8190 -0.0882
vn 0.9627 0.2689 -0.0290
vn 0.5185 -0.8502 0.0916
vn 0.9337 -0.3559 0.0384
vn -0.9654 -0.2592 0.0279
vn 0.1177 0.9873 -0.1064
vn -0.5484 -0.8314 0.0896
vn -0.9519 -0.3047 0.0328
vn 0.9622 -0.2708 0.0292
vn -0.0507 0.9930 -0.1070
vn -0.1470 0.9834 -0.1060
vn 0.2104 0.9720 -0.1048
vn 0.4077 -0.9079 0.0978
vn 0.2104 0.9720 -0.1047
vn -0.8893 0.4547 -0.0490
vn -0.6988 -0.7112 0.0766
vn -1.0000 0.0048 -0.0005
vn -0.8551 -0.5154 0.0555
vn -0.9965 0.0826 -0.0089
vn -0.9080 -0.4166 0.0449
vn -0.9995 0.0314 -0.0034
vn -0.9927 0.1199 -0.0129
vn 0.8983 -0.4368 0.0471
vn 0.9811 -0.1921 0.0207
vn -0.9058 0.4213 -0.0454
vn 0.9936 -0.1127 0.0121
vn 0.8750 -0.4814 0.0519
vn 0.6934 0.7164 -0.0772
vn 0.9995 -0.0326 0.0035
vn -0.4515 -0.8871 0.0956
vn 0.8466 0.5292 -0.0571
vn 0.9987 -0.0504 0.0054
vn 0.9039 0.4253 -0.0458
vn -0.9402 -0.3388 0.0365
vn 0.9995 -0.0321 0.0035
vn 0.9237 0.3809 -0.0411
vn 0.4609 0.8823 -0.0951
vn -0.4152 0.9045 -0.0974
vn -0.9818 0.1888 -0.0203
vn 0.1215 -0.9869 0.1063
vn -0.1776 -0.9784 0.1054
vn 0.0000 0.9971 0.0767
vn 0.8953 -0.4442 -0.0341
vn -0.9520 -0.3053 -0.0234
vn 0.9626 -0.2702 -0.0208
vn -0.9701 -0.2421 -0.0186
vn -0.9520 -0.3053 -0.0235
vn 0.0000 0.9971 -0.0767
vn -0.9520 -0.3053 0.0235
vn 0.8953 -0.4442 0.0342
vn -0.0227 -0.9968 0.0767
vn -0.1187 -0.9872 0.1063
vn -0.5380 0.8381 -0.0902
vn -0.2406 0.9650 -0.1040
vn 0.2537 0.9617 -0.1036
vn 0.5669 0.8190 -0.0883
vn 0.9337 -0.3559 0.0383
vn -0.9519 -0.3047 0.0329
vn 0.9622 -0.2709 0.0292
vn -0.1470 0.9834 -0.1059
vn -0.6988 -0.7112 0.0767
vn -0.8551 -0.5154 0.0556
vn 0.4077 -0.9079 0.0979
vn 0.8466 0.5292 -0.0570
vn -0.4515 -0.8871 0.0955
vn 0.9237 0.3809 -0.0410
vn -0.4152 0.9045 -0.0975
vn 0.0000 0.9971 0.0766
vn 0.9626 -0.2702 -0.0207
vn 0.0000 0.9971 -0.0766
vn 0.8953 -0.4442 0.0341
vn -0.0227 -0.9968 0.0765
usemtl Material.003
s off
f 54/1/1 55/2/1 3/3/1
f 14/4/1 16/5/1 13/6/1
f 17/7/1 19/8/1 18/9/1
f 21/10/1 32/11/1 30/12/1
f 24/13/1 47/14/1 48/15/1
f 27/16/1 42/17/1 41/18/1
f 34/19/1 33/20/1 26/21/1
f 36/22/1 35/23/1 29/24/1
f 38/25/1 37/26/1 22/27/1
f 39/28/1 40/29/1 25/30/1
f 43/31/1 44/32/1 31/33/1
f 45/34/1 46/35/1 28/36/1
f 50/37/1 49/38/1 23/39/1
f 10/40/1 11/41/1 56/42/1
f 62/43/2 64/44/2 65/45/2
f 59/46/2 61/47/2 60/48/2
f 63/49/2 57/50/2 62/43/2
f 69/51/3 67/52/3 66/53/3
f 123/54/4 122/55/4 74/56/4
f 83/57/4 85/58/4 84/59/4
f 86/60/4 88/61/4 89/62/4
f 90/63/4 99/64/4 101/65/4
f 93/66/4 117/67/4 116/68/4
f 96/69/4 110/70/4 111/71/4
f 103/72/4 95/73/4 102/74/4
f 105/75/4 98/76/4 104/77/4
f 107/78/4 91/79/4 106/80/4
f 108/81/4 94/82/4 109/83/4
f 112/84/4 100/85/4 113/86/4
f 114/87/4 97/88/4 115/89/4
f 119/90/4 92/91/4 118/92/4
f 120/93/4 125/94/4 77/95/4
f 131/96/5 132/97/5 134/98/5
f 128/99/5 129/100/5 130/101/5
f 126/102/5 132/97/5 131/96/5
f 138/103/6 136/104/6 137/105/6
f 1/106/7 71/107/7 2/108/7
f 2/108/8 72/109/8 3/3/8
f 3/3/9 73/110/9 4/111/9
f 4/111/10 74/56/10 5/112/10
f 5/112/11 75/113/11 6/114/11
f 6/114/12 76/115/12 7/116/12
f 7/116/13 77/95/13 8/117/13
f 8/117/14 78/118/14 9/119/14
f 9/119/15 79/120/15 10/40/15
f 10/40/16 80/121/16 11/41/16
f 11/41/17 81/122/17 12/123/17
f 12/123/18 70/124/18 1/106/18
f 13/6/19 83/57/19 14/4/19
f 14/4/20 84/59/20 15/125/20
f 15/125/21 85/58/21 16/5/21
f 16/5/22 82/126/22 13/6/22
f 19/8/23 87/127/23 18/9/23
f 20/128/24 88/61/24 19/8/24
f 17/7/25 89/62/25 20/128/25
f 18/9/26 86/60/26 17/7/26
f 22/27/27 107/78/27 38/25/27
f 23/39/28 119/90/28 50/37/28
f 26/21/29 103/72/29 34/19/29
f 27/16/30 111/71/30 42/17/30
f 28/36/30 114/87/30 45/34/30
f 30/12/27 90/63/27 21/10/27
f 29/24/31 105/75/31 36/22/31
f 37/26/32 91/79/32 22/27/32
f 25/30/33 108/81/33 39/28/33
f 41/18/34 96/69/34 27/16/34
f 31/33/35 112/84/35 43/31/35
f 46/35/36 97/88/36 28/36/36
f 24/13/37 116/68/37 47/14/37
f 32/11/38 99/64/38 30/12/38
f 21/10/39 101/65/39 32/11/39
f 33/20/40 95/73/40 26/21/40
f 34/19/41 102/74/41 33/20/41
f 35/23/29 98/76/29 29/24/29
f 36/22/42 104/77/42 35/23/42
f 38/25/43 106/80/43 37/26/43
f 40/29/29 94/82/29 25/30/29
f 39/28/44 109/83/44 40/29/44
f 42/17/45 110/70/45 41/18/45
f 44/32/46 100/85/46 31/33/46
f 43/31/47 113/86/47 44/32/47
f 45/34/48 115/89/48 46/35/48
f 48/15/46 93/66/46 24/13/46
f 47/14/49 117/67/49 48/15/49
f 49/38/50 92/91/50 23/39/50
f 50/37/51 118/92/51 49/38/51
f 51/129/52 122/55/52 53/130/52
f 53/130/53 123/54/53 54/1/53
f 54/1/54 124/131/54 55/2/54
f 55/2/55 121/132/55 52/133/55
f 52/133/56 125/94/56 56/42/56
f 56/42/57 120/93/57 51/129/57
f 58/134/58 126/102/58 57/50/58
f 65/45/59 129/100/59 134/98/59
f 57/50/60 131/96/60 62/43/60
f 60/48/61 130/101/61 129/100/61
f 59/46/62 130/101/62 61/47/62
f 62/43/63 133/135/63 64/44/63
f 58/134/59 132/97/59 127/136/59
f 64/44/60 128/99/60 59/46/60
f 63/49/59 134/98/59 132/97/59
f 66/53/64 136/104/64 135/137/64
f 67/52/65 137/105/65 136/104/65
f 66/53/66 138/103/66 69/51/66
f 69/51/67 137/105/67 68/138/67
f 52/133/1 1/106/1 2/108/1
f 2/108/1 3/3/1 55/2/1
f 3/3/1 4/111/1 54/1/1
f 4/111/1 5/112/1 54/1/1
f 5/112/1 6/114/1 53/130/1
f 54/1/1 5/112/1 53/130/1
f 6/114/1 7/116/1 51/129/1
f 6/114/1 51/129/1 53/130/1
f 55/2/1 52/133/1 2/108/1
f 14/4/1 15/125/1 16/5/1
f 17/7/1 20/128/1 19/8/1
f 1/106/1 52/133/1 12/123/1
f 52/133/1 56/42/1 12/123/1
f 12/123/1 56/42/1 11/41/1
f 56/42/1 51/129/1 8/117/1
f 51/129/1 7/116/1 8/117/1
f 56/42/1 8/117/1 9/119/1
f 9/119/1 10/40/1 56/42/1
f 59/46/2 60/48/2 64/44/2
f 60/48/2 65/45/2 64/44/2
f 65/45/2 63/49/2 62/43/2
f 63/49/2 58/134/2 57/50/2
f 69/51/3 68/138/3 67/52/3
f 71/107/4 70/124/4 121/132/4
f 71/107/4 121/132/4 124/131/4
f 73/110/4 72/109/4 123/54/4
f 72/109/4 71/107/4 124/131/4
f 75/113/4 74/56/4 122/55/4
f 74/56/4 73/110/4 123/54/4
f 120/93/4 76/115/4 75/113/4
f 122/55/4 120/93/4 75/113/4
f 72/109/4 124/131/4 123/54/4
f 83/57/4 82/126/4 85/58/4
f 86/60/4 87/127/4 88/61/4
f 125/94/4 121/132/4 81/122/4
f 121/132/4 70/124/4 81/122/4
f 125/94/4 81/122/4 80/121/4
f 80/121/4 79/120/4 125/94/4
f 79/120/4 78/118/4 125/94/4
f 78/118/4 77/95/4 125/94/4
f 77/95/4 76/115/4 120/93/4
f 134/98/5 129/100/5 133/135/5
f 129/100/5 128/99/5 133/135/5
f 133/135/5 131/96/5 134/98/5
f 126/102/5 127/136/5 132/97/5
f 138/103/6 135/137/6 136/104/6
f 1/106/7 70/124/7 71/107/7
f 2/108/8 71/107/8 72/109/8
f 3/3/9 72/109/9 73/110/9
f 4/111/68 73/110/68 74/56/68
f 5/112/11 74/56/11 75/113/11
f 6/114/12 75/113/12 76/115/12
f 7/116/13 76/115/13 77/95/13
f 8/117/69 77/95/69 78/118/69
f 9/119/70 78/118/70 79/120/70
f 10/40/71 79/120/71 80/121/71
f 11/41/72 80/121/72 81/122/72
f 12/123/18 81/122/18 70/124/18
f 13/6/19 82/126/19 83/57/19
f 14/4/73 83/57/73 84/59/73
f 15/125/21 84/59/21 85/58/21
f 16/5/22 85/58/22 82/126/22
f 19/8/23 88/61/23 87/127/23
f 20/128/74 89/62/74 88/61/74
f 17/7/75 86/60/75 89/62/75
f 18/9/26 87/127/26 86/60/26
f 22/27/76 91/79/76 107/78/76
f 23/39/30 92/91/30 119/90/30
f 26/21/29 95/73/29 103/72/29
f 27/16/30 96/69/30 111/71/30
f 28/36/28 97/88/28 114/87/28
f 30/12/76 99/64/76 90/63/76
f 29/24/31 98/76/31 105/75/31
f 37/26/77 106/80/77 91/79/77
f 25/30/33 94/82/33 108/81/33
f 41/18/78 110/70/78 96/69/78
f 31/33/35 100/85/35 112/84/35
f 46/35/36 115/89/36 97/88/36
f 24/13/37 93/66/37 116/68/37
f 32/11/38 101/65/38 99/64/38
f 21/10/39 90/63/39 101/65/39
f 33/20/40 102/74/40 95/73/40
f 34/19/41 103/72/41 102/74/41
f 35/23/29 104/77/29 98/76/29
f 36/22/42 105/75/42 104/77/42
f 38/25/43 107/78/43 106/80/43
f 40/29/79 109/83/79 94/82/79
f 39/28/44 108/81/44 109/83/44
f 42/17/45 111/71/45 110/70/45
f 44/32/46 113/86/46 100/85/46
f 43/31/80 112/84/80 113/86/80
f 45/34/48 114/87/48 115/89/48
f 48/15/81 117/67/81 93/66/81
f 47/14/49 116/68/49 117/67/49
f 49/38/50 118/92/50 92/91/50
f 50/37/51 119/90/51 118/92/51
f 51/129/82 120/93/82 122/55/82
f 53/130/53 122/55/53 123/54/53
f 54/1/83 123/54/83 124/131/83
f 55/2/55 124/131/55 121/132/55
f 52/133/56 121/132/56 125/94/56
f 56/42/57 125/94/57 120/93/57
f 58/134/84 127/136/84 126/102/84
f 65/45/59 60/48/59 129/100/59
f 57/50/63 126/102/63 131/96/63
f 60/48/85 61/47/85 130/101/85
f 59/46/62 128/99/62 130/101/62
f 62/43/63 131/96/63 133/135/63
f 58/134/59 63/49/59 132/97/59
f 64/44/63 133/135/63 128/99/63
f 63/49/59 65/45/59 134/98/59
f 66/53/86 67/52/86 136/104/86
f 67/52/65 68/138/65 137/105/65
f 66/53/87 135/137/87 138/103/87
f 69/51/88 138/103/88 137/105/88
