# Blender v3.1.2 OBJ File: ''
# www.blender.org
mtllib votvkel(l).mtl
o Plane.001_Plane.002
v -0.124595 2.156661 0.141531
v -0.099115 2.157457 0.141531
v -0.095532 2.135561 0.141531
v -0.074034 2.105304 0.141531
v -0.049351 2.106498 0.141531
v -0.013830 2.134665 0.141531
v -0.012923 2.154615 0.141531
v -0.014880 2.192956 0.141531
v -0.023871 2.198065 0.141531
v -0.037407 2.207222 0.141531
v -0.006354 2.207222 0.141531
v -0.005956 2.126802 0.141531
v 0.000016 2.126802 0.141531
v -0.001576 2.207620 0.141531
v 0.023903 2.207222 0.141531
v 0.007273 2.192319 0.141531
v 0.006189 2.154764 0.141531
v 0.007098 2.133394 0.141531
v 0.037439 2.108489 0.141531
v 0.061326 2.107692 0.141531
v 0.086407 2.130783 0.141531
v 0.094768 2.157059 0.141531
v 0.117062 2.158253 0.141531
v 0.100342 2.151087 0.141531
v 0.095564 2.122821 0.141531
v 0.064909 2.098536 0.141531
v 0.052647 2.078304 0.141531
v 0.012358 2.118441 0.141531
v 0.000016 2.120302 0.141531
v -0.016705 2.121626 0.141531
v -0.056638 2.080513 0.141531
v -0.074034 2.098536 0.141531
v -0.101504 2.131978 0.141531
v -0.104291 2.149096 0.141531
vt 0.368612 0.375296
vt 0.397294 0.313152
vt 0.396338 0.506279
vt 0.173573 0.386769
vt 0.112384 0.384857
vt 0.161144 0.366692
vt 0.167836 0.325581
vt 0.182177 0.334185
vt 0.233806 0.245270
vt 0.233806 0.261523
vt 0.567476 0.245270
vt 0.641094 0.303591
vt 0.558871 0.267260
vt 0.652567 0.371472
vt 0.619104 0.322712
vt 0.692722 0.388682
vt 0.639182 0.385813
vt 0.497683 0.235709
vt 0.501507 0.269172
vt 0.441274 0.293074
vt 0.458483 0.316976
vt 0.411636 0.254831
vt 0.411636 0.313152
vt 0.436494 0.420232
vt 0.447967 0.485245
vt 0.407811 0.507235
vt 0.469000 0.506279
vt 0.307423 0.246226
vt 0.293082 0.264392
vt 0.357139 0.314108
vt 0.371480 0.300723
vt 0.321765 0.506279
vt 0.354271 0.484289
vt 0.361920 0.420232
vn 0.0000 0.0000 1.0000
usemtl Material.004
s off
f 7/1/1 12/2/1 11/3/1
f 2/4/1 1/5/1 34/6/1
f 34/6/1 33/7/1 3/8/1
f 33/7/1 32/9/1 4/10/1
f 3/8/1 33/7/1 4/10/1
f 26/11/1 25/12/1 20/13/1
f 25/12/1 24/14/1 21/15/1
f 24/14/1 23/16/1 22/17/1
f 24/14/1 22/17/1 21/15/1
f 25/12/1 21/15/1 20/13/1
f 3/8/1 2/4/1 34/6/1
f 27/18/1 26/11/1 19/19/1
f 26/11/1 20/13/1 19/19/1
f 28/20/1 27/18/1 19/19/1
f 28/20/1 19/19/1 18/21/1
f 29/22/1 28/20/1 13/23/1
f 28/20/1 18/21/1 13/23/1
f 18/21/1 17/24/1 13/23/1
f 17/24/1 16/25/1 14/26/1
f 13/23/1 17/24/1 14/26/1
f 16/25/1 15/27/1 14/26/1
f 32/9/1 31/28/1 5/29/1
f 4/10/1 32/9/1 5/29/1
f 6/30/1 5/29/1 30/31/1
f 5/29/1 31/28/1 30/31/1
f 6/30/1 30/31/1 12/2/1
f 30/31/1 29/22/1 12/2/1
f 29/22/1 13/23/1 12/2/1
f 10/32/1 9/33/1 11/3/1
f 9/33/1 8/34/1 11/3/1
f 7/1/1 6/30/1 12/2/1
f 8/34/1 7/1/1 11/3/1
