# Blender v3.1.2 OBJ File: ''
# www.blender.org
mtllib WaterGenGen.mtl
o Cube
v 0.166629 0.898425 -0.364712
v 0.166629 -0.509521 -0.465277
v 0.166629 0.903955 -0.213962
v 0.166629 -0.509521 -0.132020
v -0.166629 0.898425 -0.364712
v -0.166629 -0.509521 -0.465277
v -0.166629 0.903955 -0.213962
v -0.166629 -0.509521 -0.132020
v 0.166629 1.204433 -0.379388
v 0.166629 1.209964 -0.228638
v -0.166629 1.204433 -0.379388
v -0.166629 1.209964 -0.228638
v 0.099977 -0.509521 -0.465277
v 0.033326 -0.509521 -0.465277
v -0.033326 -0.509521 -0.465277
v -0.099977 -0.509521 -0.465277
v 0.099977 0.903955 -0.213962
v 0.033326 0.903955 -0.213962
v -0.033326 0.903955 -0.213962
v -0.099977 0.903955 -0.213962
v -0.099977 -0.509521 -0.132020
v -0.033326 -0.509521 -0.132020
v 0.033326 -0.509521 -0.132020
v 0.099977 -0.509521 -0.132020
v -0.099977 0.898425 -0.364712
v -0.033326 0.898425 -0.364712
v 0.033326 0.898425 -0.364712
v 0.099977 0.898425 -0.364712
v 0.099977 1.209964 -0.228638
v 0.033326 1.209964 -0.228638
v -0.033326 1.209964 -0.228638
v -0.099977 1.209964 -0.228638
v -0.099977 1.204433 -0.379388
v -0.033326 1.204433 -0.379388
v 0.033326 1.204433 -0.379388
v 0.099977 1.204433 -0.379388
v 0.198634 1.436116 -0.092095
v 0.198634 1.285267 -0.091207
v 0.131983 1.285267 -0.091207
v 0.131983 1.436116 -0.092095
v 0.198634 1.437263 0.102732
v 0.198634 1.286414 0.103620
v 0.131983 1.286414 0.103620
v 0.131983 1.437263 0.102732
v 0.099977 1.286539 -0.091168
v 0.033326 1.286539 -0.091168
v 0.033326 1.437388 -0.092056
v 0.099977 1.437388 -0.092056
v 0.099977 1.287670 0.100990
v 0.033326 1.287670 0.100990
v 0.033326 1.438519 0.100102
v 0.099977 1.438519 0.100102
v 0.001320 1.286523 -0.093837
v -0.065331 1.286523 -0.093837
v -0.065331 1.437372 -0.094725
v 0.001320 1.437372 -0.094725
v 0.001320 1.287670 0.100990
v -0.065331 1.287670 0.100990
v -0.065331 1.438519 0.100102
v 0.001320 1.438519 0.100102
v -0.086668 1.286523 -0.093837
v -0.153319 1.286523 -0.093837
v -0.153319 1.437372 -0.094725
v -0.086668 1.437372 -0.094725
v -0.086668 1.287701 0.106328
v -0.153319 1.287701 0.106328
v -0.153319 1.438550 0.105440
v -0.086668 1.438550 0.105440
v -0.275980 1.442257 -0.145274
v -0.275980 1.291408 -0.144386
v -0.209329 1.291408 -0.144386
v -0.209329 1.442257 -0.145274
v -0.275980 1.443137 0.004183
v -0.275980 1.292288 0.005070
v -0.209329 1.292288 0.005070
v -0.209329 1.443137 0.004183
v -0.035244 -0.408161 -0.371938
v -0.077761 0.472168 -0.925386
v -0.035244 -0.448086 -0.430028
v -0.077761 0.384078 -1.053556
v 0.035244 -0.408161 -0.371938
v 0.077761 0.472168 -0.925386
v 0.035244 -0.448086 -0.430028
v 0.077761 0.384078 -1.053556
v -0.035244 0.448086 -0.960426
v -0.035244 0.408161 -1.018517
v 0.035244 0.408161 -1.018517
v 0.035244 0.448086 -0.960426
v -0.077761 0.591092 -1.007121
v -0.077761 0.503002 -1.135291
v 0.077761 0.503002 -1.135291
v 0.077761 0.591092 -1.007121
vt 0.625000 0.250000
vt 0.625000 0.000000
vt 0.625000 0.250000
vt 0.625000 0.950000
vt 0.375000 1.000000
vt 0.375000 0.950000
vt 0.375000 0.000000
vt 0.375000 0.250000
vt 0.375000 0.500000
vt 0.325000 0.750000
vt 0.325000 0.500000
vt 0.625000 0.500000
vt 0.375000 0.750000
vt 0.625000 0.450000
vt 0.375000 0.450000
vt 0.625000 0.250000
vt 0.625000 0.750000
vt 0.625000 0.750000
vt 0.625000 0.300000
vt 0.625000 0.300000
vt 0.625000 0.800000
vt 0.625000 0.800000
vt 0.625000 1.000000
vt 0.625000 1.000000
vt 0.625000 0.900000
vt 0.625000 0.950000
vt 0.625000 0.850000
vt 0.625000 0.900000
vt 0.625000 0.850000
vt 0.625000 0.500000
vt 0.625000 0.400000
vt 0.625000 0.450000
vt 0.625000 0.350000
vt 0.625000 0.400000
vt 0.625000 0.350000
vt 0.625000 0.800000
vt 0.625000 0.450000
vt 0.625000 0.850000
vt 0.625000 0.900000
vt 0.775000 0.750000
vt 0.775000 0.500000
vt 0.775000 0.750000
vt 0.375000 0.300000
vt 0.375000 0.350000
vt 0.375000 0.400000
vt 0.175000 0.500000
vt 0.125000 0.750000
vt 0.125000 0.500000
vt 0.225000 0.500000
vt 0.175000 0.750000
vt 0.275000 0.500000
vt 0.225000 0.750000
vt 0.275000 0.750000
vt 0.375000 0.800000
vt 0.375000 0.850000
vt 0.375000 0.900000
vt 0.675000 0.500000
vt 0.675000 0.750000
vt 0.675000 0.500000
vt 0.675000 0.750000
vt 0.675000 0.500000
vt 0.625000 0.450000
vt 0.625000 0.500000
vt 0.625000 0.750000
vt 0.625000 0.750000
vt 0.625000 0.500000
vt 0.625000 0.800000
vt 0.725000 0.750000
vt 0.725000 0.500000
vt 0.725000 0.500000
vt 0.675000 0.500000
vt 0.675000 0.750000
vt 0.625000 0.850000
vt 0.725000 0.750000
vt 0.725000 0.500000
vt 0.675000 0.750000
vt 0.675000 0.500000
vt 0.625000 0.400000
vt 0.625000 0.450000
vt 0.625000 0.800000
vt 0.625000 0.850000
vt 0.725000 0.500000
vt 0.725000 0.750000
vt 0.725000 0.750000
vt 0.775000 0.500000
vt 0.775000 0.500000
vt 0.625000 0.400000
vt 0.775000 0.500000
vt 0.725000 0.500000
vt 0.625000 0.900000
vt 0.775000 0.750000
vt 0.625000 0.350000
vt 0.625000 0.400000
vt 0.775000 0.750000
vt 0.625000 0.350000
vt 0.625000 0.900000
vt 0.625000 0.950000
vt 0.825000 0.750000
vt 0.825000 0.500000
vt 0.825000 0.500000
vt 0.825000 0.500000
vt 0.775000 0.500000
vt 0.625000 0.950000
vt 0.825000 0.750000
vt 0.625000 0.300000
vt 0.625000 0.350000
vt 0.825000 0.750000
vt 0.825000 0.500000
vt 0.825000 0.750000
vt 0.625000 0.950000
vt 0.625000 1.000000
vt 0.825000 0.500000
vt 0.625000 0.300000
vt 0.875000 0.500000
vt 0.625000 0.000000
vt 0.625000 0.250000
vt 0.625000 0.300000
vt 0.625000 1.000000
vt 0.625000 0.000000
vt 0.375000 0.250000
vt 0.375000 0.000000
vt 0.625000 0.250000
vt 0.375000 0.500000
vt 0.625000 0.500000
vt 0.375000 0.750000
vt 0.625000 0.750000
vt 0.375000 1.000000
vt 0.125000 0.750000
vt 0.125000 0.500000
vt 0.675440 0.699560
vt 0.824560 0.699560
vt 0.824560 0.699560
vt 0.824560 0.550440
vt 0.875000 0.750000
vt 0.675440 0.550440
vt 0.875000 0.500000
vt 0.824560 0.550440
vt 0.675440 0.699560
vt 0.675440 0.550440
vt 0.625000 0.000000
vt 0.675000 0.750000
vt 0.625000 0.450000
vt 0.725000 0.750000
vt 0.625000 0.400000
vt 0.625000 0.800000
vt 0.775000 0.750000
vt 0.625000 0.850000
vt 0.625000 0.350000
vt 0.825000 0.750000
vt 0.625000 0.900000
vt 0.625000 0.300000
vt 0.875000 0.750000
vt 0.625000 0.000000
vt 0.625000 0.950000
vt 0.625000 1.000000
vn -1.0000 0.0000 0.0000
vn 0.0000 0.0579 0.9983
vn 0.0000 -1.0000 0.0000
vn 1.0000 0.0000 0.0000
vn 0.0000 0.0712 -0.9975
vn -0.9025 -0.4305 0.0158
vn 0.0000 -0.0479 -0.9989
vn 0.0000 0.0479 0.9989
vn 0.0000 -0.8770 0.4805
vn 0.0000 0.7768 -0.6298
vn 0.0000 -0.8695 0.4939
vn 0.9303 0.0022 0.3669
vn -0.9897 0.1432 -0.0053
vn 0.0000 0.7784 -0.6277
vn 0.9741 -0.0013 -0.2261
vn 0.0000 0.0059 1.0000
vn 0.0000 1.0000 -0.0059
vn 0.0000 -1.0000 0.0059
vn 0.0000 -0.8736 0.4866
vn -0.9898 -0.1424 0.0052
vn 0.0000 0.7739 -0.6333
vn 0.9731 0.0014 0.2303
vn -0.9724 -0.2331 0.0086
vn 0.0000 -0.7190 0.6950
vn 0.6125 0.0047 0.7905
vn 0.0000 0.7015 -0.7126
vn 0.0000 -0.5664 -0.8241
vn 0.0000 0.5664 0.8241
vn 0.0000 -0.8241 0.5664
vn 0.0000 0.8241 -0.5664
vn -0.6125 -0.0047 -0.7905
vn 0.0000 -0.8695 0.4938
vn 0.9724 0.2331 -0.0086
vn -0.9741 0.0013 0.2261
vn 0.9897 -0.1432 0.0053
vn -0.9731 -0.0014 -0.2303
vn 0.9898 0.1424 -0.0052
vn -0.9303 -0.0022 -0.3669
vn 0.9025 0.4305 -0.0158
usemtl Material
s off
f 5/1/1 12/2/1 11/3/1
f 20/4/2 8/5/2 21/6/2
f 8/7/1 5/1/1 6/8/1
f 2/9/3 24/10/3 13/11/3
f 1/12/4 4/13/4 2/9/4
f 28/14/5 2/9/5 13/15/5
f 12/2/6 69/16/6 11/3/6
f 1/12/4 10/17/4 3/18/4
f 5/1/7 33/19/7 25/20/7
f 3/18/8 29/21/8 17/22/8
f 20/4/8 12/23/8 7/24/8
f 19/25/8 32/26/8 20/4/8
f 18/27/8 31/28/8 19/25/8
f 17/22/8 30/29/8 18/27/8
f 28/14/7 9/30/7 1/12/7
f 27/31/7 36/32/7 28/14/7
f 26/33/7 35/34/7 27/31/7
f 25/20/7 34/35/7 26/33/7
f 10/17/9 39/36/9 29/21/9
f 35/34/10 48/37/10 36/32/10
f 31/28/11 53/38/11 54/39/11
f 31/40/12 64/41/12 61/42/12
f 5/1/5 16/43/5 6/8/5
f 25/20/5 15/44/5 16/43/5
f 26/33/5 14/45/5 15/44/5
f 27/31/5 13/15/5 14/45/5
f 16/46/3 8/47/3 6/48/3
f 15/49/3 21/50/3 16/46/3
f 14/51/3 22/52/3 15/49/3
f 13/11/3 23/53/3 14/51/3
f 3/18/2 24/54/2 4/13/2
f 17/22/2 23/55/2 24/54/2
f 18/27/2 22/56/2 23/55/2
f 19/25/2 21/6/2 22/56/2
f 40/57/1 43/58/1 44/59/1
f 29/60/13 40/57/13 36/61/13
f 9/30/14 40/62/14 37/63/14
f 10/17/15 37/63/15 38/64/15
f 44/59/16 42/65/16 41/66/16
f 40/62/17 41/66/17 37/63/17
f 38/64/18 43/67/18 39/36/18
f 37/63/4 42/65/4 38/64/4
f 46/68/1 51/69/1 47/70/1
f 29/60/4 48/71/4 45/72/4
f 29/21/19 46/73/19 30/29/19
f 30/74/1 47/70/1 35/75/1
f 51/69/16 49/76/16 52/77/16
f 47/78/17 52/79/17 48/37/17
f 45/72/4 52/77/4 49/76/4
f 45/80/18 50/81/18 46/73/18
f 56/82/4 57/83/4 53/84/4
f 31/40/20 55/85/20 34/86/20
f 34/35/21 56/87/21 35/34/21
f 30/74/22 56/82/22 53/84/22
f 59/88/16 57/83/16 60/89/16
f 53/38/18 58/90/18 54/39/18
f 55/85/1 58/91/1 59/88/1
f 55/92/17 60/93/17 56/87/17
f 64/41/4 65/94/4 61/42/4
f 33/19/21 64/95/21 34/35/21
f 32/26/11 61/96/11 62/97/11
f 32/98/23 63/99/23 33/100/23
f 67/101/16 65/94/16 68/102/16
f 61/96/18 66/103/18 62/97/18
f 62/104/1 67/101/1 63/99/1
f 63/105/17 68/106/17 64/95/17
f 71/107/4 76/108/4 75/109/4
f 12/23/24 71/110/24 70/111/24
f 32/98/25 72/112/25 71/107/25
f 11/3/26 72/113/26 33/19/26
f 73/114/16 75/109/16 76/108/16
f 70/115/1 73/116/1 69/16/1
f 69/16/17 76/117/17 72/113/17
f 71/110/18 74/118/18 70/111/18
f 85/119/1 79/120/1 77/121/1
f 86/122/27 83/123/27 79/120/27
f 87/124/4 81/125/4 83/123/4
f 88/126/28 77/127/28 81/125/28
f 83/123/29 77/128/29 79/129/29
f 82/130/28 89/131/28 78/132/28
f 80/133/29 85/134/29 78/132/29
f 84/135/29 86/136/29 80/133/29
f 84/135/29 88/126/29 87/124/29
f 78/132/29 88/126/29 82/130/29
f 90/137/30 92/138/30 91/139/30
f 80/133/27 91/139/27 84/135/27
f 84/135/4 92/138/4 82/130/4
f 78/132/1 90/137/1 80/133/1
f 5/1/1 7/140/1 12/2/1
f 20/4/2 7/24/2 8/5/2
f 8/7/1 7/140/1 5/1/1
f 2/9/3 4/13/3 24/10/3
f 1/12/4 3/18/4 4/13/4
f 28/14/5 1/12/5 2/9/5
f 12/2/31 70/115/31 69/16/31
f 1/12/4 9/30/4 10/17/4
f 5/1/7 11/3/7 33/19/7
f 3/18/8 10/17/8 29/21/8
f 20/4/8 32/26/8 12/23/8
f 19/25/8 31/28/8 32/26/8
f 18/27/8 30/29/8 31/28/8
f 17/22/8 29/21/8 30/29/8
f 28/14/7 36/32/7 9/30/7
f 27/31/7 35/34/7 36/32/7
f 26/33/7 34/35/7 35/34/7
f 25/20/7 33/19/7 34/35/7
f 10/17/9 38/64/9 39/36/9
f 35/34/10 47/78/10 48/37/10
f 31/28/32 30/29/32 53/38/32
f 31/40/33 34/86/33 64/41/33
f 5/1/5 25/20/5 16/43/5
f 25/20/5 26/33/5 15/44/5
f 26/33/5 27/31/5 14/45/5
f 27/31/5 28/14/5 13/15/5
f 16/46/3 21/50/3 8/47/3
f 15/49/3 22/52/3 21/50/3
f 14/51/3 23/53/3 22/52/3
f 13/11/3 24/10/3 23/53/3
f 3/18/2 17/22/2 24/54/2
f 17/22/2 18/27/2 23/55/2
f 18/27/2 19/25/2 22/56/2
f 19/25/2 20/4/2 21/6/2
f 40/57/1 39/141/1 43/58/1
f 29/60/34 39/141/34 40/57/34
f 9/30/14 36/32/14 40/62/14
f 10/17/35 9/30/35 37/63/35
f 44/59/16 43/58/16 42/65/16
f 40/62/17 44/142/17 41/66/17
f 38/64/18 42/65/18 43/67/18
f 37/63/4 41/66/4 42/65/4
f 46/68/1 50/143/1 51/69/1
f 29/60/4 36/61/4 48/71/4
f 29/21/19 45/80/19 46/73/19
f 30/74/1 46/68/1 47/70/1
f 51/69/16 50/143/16 49/76/16
f 47/78/17 51/144/17 52/79/17
f 45/72/4 48/71/4 52/77/4
f 45/80/18 49/145/18 50/81/18
f 56/82/4 60/89/4 57/83/4
f 31/40/36 54/146/36 55/85/36
f 34/35/21 55/92/21 56/87/21
f 30/74/37 35/75/37 56/82/37
f 59/88/16 58/91/16 57/83/16
f 53/38/18 57/147/18 58/90/18
f 55/85/1 54/146/1 58/91/1
f 55/92/17 59/148/17 60/93/17
f 64/41/4 68/102/4 65/94/4
f 33/19/21 63/105/21 64/95/21
f 32/26/32 31/28/32 61/96/32
f 32/98/38 62/104/38 63/99/38
f 67/101/16 66/149/16 65/94/16
f 61/96/18 65/150/18 66/103/18
f 62/104/1 66/149/1 67/101/1
f 63/105/17 67/151/17 68/106/17
f 71/107/4 72/112/4 76/108/4
f 12/23/24 32/26/24 71/110/24
f 32/98/39 33/100/39 72/112/39
f 11/3/26 69/16/26 72/113/26
f 73/114/16 74/152/16 75/109/16
f 70/115/1 74/153/1 73/116/1
f 69/16/17 73/116/17 76/117/17
f 71/110/18 75/154/18 74/118/18
f 85/119/1 86/122/1 79/120/1
f 86/122/27 87/124/27 83/123/27
f 87/124/4 88/126/4 81/125/4
f 88/126/28 85/155/28 77/127/28
f 83/123/29 81/125/29 77/128/29
f 82/130/28 92/138/28 89/131/28
f 80/133/29 86/136/29 85/134/29
f 84/135/29 87/124/29 86/136/29
f 84/135/29 82/130/29 88/126/29
f 78/132/29 85/134/29 88/126/29
f 90/137/30 89/131/30 92/138/30
f 80/133/27 90/137/27 91/139/27
f 84/135/4 91/139/4 92/138/4
f 78/132/1 89/131/1 90/137/1
