# Blender v3.1.2 OBJ File: ''
# www.blender.org
mtllib Деньги.mtl
o Cube
v 0.347774 0.015738 -0.610075
v 0.347774 -0.015738 -0.610075
v 0.347774 0.015738 0.610075
v 0.347774 -0.015738 0.610075
v -0.347774 0.015738 -0.610075
v -0.347774 -0.015738 -0.610075
v -0.347774 0.015738 0.610075
v -0.347774 -0.015738 0.610075
v 0.369936 0.050538 -0.596896
v 0.369936 0.019063 -0.596896
v 0.325143 0.050538 0.622431
v 0.325143 0.019063 0.622431
v -0.325143 0.050538 -0.622431
v -0.325143 0.019063 -0.622431
v -0.369936 0.050538 0.596896
v -0.369936 0.019063 0.596896
v 0.402124 0.083507 -0.575703
v 0.402124 0.052032 -0.575703
v 0.290508 0.083507 0.639330
v 0.290508 0.052032 0.639330
v -0.290508 0.083507 -0.639330
v -0.290508 0.052032 -0.639330
v -0.402124 0.083507 0.575703
v -0.402124 0.052032 0.575703
v 0.431758 0.120139 -0.553826
v 0.431758 0.088664 -0.553826
v 0.256585 0.120139 0.653683
v 0.256585 0.088664 0.653683
v -0.256585 0.120139 -0.653683
v -0.256585 0.088664 -0.653683
v -0.431758 0.120139 0.553826
v -0.431758 0.088664 0.553826
v 0.464048 0.156771 -0.527065
v 0.464048 0.125296 -0.527065
v 0.217107 0.156771 0.667834
v 0.217107 0.125296 0.667834
v -0.217107 0.156771 -0.667834
v -0.217107 0.125296 -0.667834
v -0.464048 0.156771 0.527065
v -0.464048 0.125296 0.527065
v 0.424301 0.215486 -0.134992
v 0.424301 -0.035989 -0.134992
v 0.361337 0.215486 0.260173
v 0.361337 -0.035989 0.260173
v -0.361337 0.215486 -0.260173
v -0.361337 -0.035989 -0.260173
v -0.424301 0.215486 0.134992
v -0.424301 -0.035989 0.134992
v 0.497056 0.191572 -0.496058
v 0.497056 0.160097 -0.496058
v 0.173609 0.191572 0.680440
v 0.173609 0.160097 0.680440
v -0.173609 0.191572 -0.680440
v -0.173609 0.160097 -0.680440
v -0.497056 0.191572 0.496058
v -0.497056 0.160097 0.496058
vt 0.875000 0.500000
vt 0.625000 0.750000
vt 0.625000 0.500000
vt 0.375000 1.000000
vt 0.375000 0.750000
vt 0.625000 0.000000
vt 0.375000 0.250000
vt 0.375000 0.000000
vt 0.375000 0.500000
vt 0.125000 0.750000
vt 0.125000 0.500000
vt 0.625000 0.250000
vt 0.875000 0.750000
vt 0.625000 1.000000
vt 0.875000 0.500000
vt 0.625000 0.750000
vt 0.625000 0.500000
vt 0.375000 1.000000
vt 0.375000 0.750000
vt 0.625000 0.000000
vt 0.375000 0.250000
vt 0.375000 0.000000
vt 0.125000 0.500000
vt 0.125000 0.750000
vt 0.375000 0.500000
vt 0.625000 0.250000
vt 0.875000 0.750000
vt 0.625000 1.000000
vt 0.875000 0.500000
vt 0.625000 0.750000
vt 0.625000 0.500000
vt 0.375000 1.000000
vt 0.375000 0.750000
vt 0.625000 0.000000
vt 0.375000 0.250000
vt 0.375000 0.000000
vt 0.125000 0.500000
vt 0.125000 0.750000
vt 0.375000 0.500000
vt 0.625000 0.250000
vt 0.875000 0.750000
vt 0.625000 1.000000
vt 0.875000 0.500000
vt 0.625000 0.750000
vt 0.625000 0.500000
vt 0.375000 1.000000
vt 0.375000 0.750000
vt 0.625000 0.000000
vt 0.375000 0.250000
vt 0.375000 0.000000
vt 0.125000 0.500000
vt 0.125000 0.750000
vt 0.375000 0.500000
vt 0.625000 0.250000
vt 0.875000 0.750000
vt 0.625000 1.000000
vt 0.875000 0.500000
vt 0.625000 0.750000
vt 0.625000 0.500000
vt 0.375000 1.000000
vt 0.375000 0.750000
vt 0.625000 0.000000
vt 0.375000 0.250000
vt 0.375000 0.000000
vt 0.125000 0.500000
vt 0.125000 0.750000
vt 0.375000 0.500000
vt 0.625000 0.250000
vt 0.875000 0.750000
vt 0.625000 1.000000
vt 0.875000 0.500000
vt 0.625000 0.750000
vt 0.625000 0.500000
vt 0.375000 1.000000
vt 0.375000 0.750000
vt 0.625000 0.000000
vt 0.375000 0.250000
vt 0.375000 0.000000
vt 0.125000 0.500000
vt 0.125000 0.750000
vt 0.375000 0.500000
vt 0.625000 0.250000
vt 0.875000 0.750000
vt 0.625000 1.000000
vt 0.875000 0.500000
vt 0.625000 0.750000
vt 0.625000 0.500000
vt 0.375000 1.000000
vt 0.375000 0.750000
vt 0.625000 0.000000
vt 0.375000 0.250000
vt 0.375000 0.000000
vt 0.125000 0.500000
vt 0.125000 0.750000
vt 0.375000 0.500000
vt 0.625000 0.250000
vt 0.875000 0.750000
vt 0.625000 1.000000
vn 0.0000 1.0000 0.0000
vn 0.0000 0.0000 1.0000
vn -1.0000 0.0000 0.0000
vn 0.0000 -1.0000 0.0000
vn 1.0000 0.0000 0.0000
vn 0.0000 0.0000 -1.0000
vn -0.0367 0.0000 0.9993
vn -0.9993 0.0000 -0.0367
vn 0.9993 0.0000 0.0367
vn 0.0367 0.0000 -0.9993
vn -0.0915 0.0000 0.9958
vn -0.9958 0.0000 -0.0915
vn 0.9958 0.0000 0.0915
vn 0.0915 0.0000 -0.9958
vn -0.1436 0.0000 0.9896
vn -0.9896 0.0000 -0.1436
vn 0.9896 0.0000 0.1436
vn 0.1436 0.0000 -0.9896
vn -0.2024 0.0000 0.9793
vn -0.9793 0.0000 -0.2024
vn 0.9793 0.0000 0.2024
vn 0.2024 0.0000 -0.9793
vn -0.1574 0.0000 0.9875
vn -0.9875 0.0000 -0.1574
vn 0.9875 0.0000 0.1574
vn 0.1574 0.0000 -0.9875
vn -0.2651 0.0000 0.9642
vn -0.9642 0.0000 -0.2651
vn 0.9642 0.0000 0.2651
vn 0.2651 0.0000 -0.9642
usemtl Material
s off
f 5/1/1 3/2/1 1/3/1
f 3/2/2 8/4/2 4/5/2
f 7/6/3 6/7/3 8/8/3
f 2/9/4 8/10/4 6/11/4
f 1/3/5 4/5/5 2/9/5
f 5/12/6 2/9/6 6/7/6
f 5/1/1 7/13/1 3/2/1
f 3/2/2 7/14/2 8/4/2
f 7/6/3 5/12/3 6/7/3
f 2/9/4 4/5/4 8/10/4
f 1/3/5 3/2/5 4/5/5
f 5/12/6 1/3/6 2/9/6
usemtl Material.001
f 13/15/1 11/16/1 9/17/1
f 11/16/7 16/18/7 12/19/7
f 15/20/8 14/21/8 16/22/8
f 14/23/4 12/19/4 16/24/4
f 9/17/9 12/19/9 10/25/9
f 13/26/10 10/25/10 14/21/10
f 13/15/1 15/27/1 11/16/1
f 11/16/7 15/28/7 16/18/7
f 15/20/8 13/26/8 14/21/8
f 14/23/4 10/25/4 12/19/4
f 9/17/9 11/16/9 12/19/9
f 13/26/10 9/17/10 10/25/10
usemtl Material.002
f 21/29/1 19/30/1 17/31/1
f 19/30/11 24/32/11 20/33/11
f 23/34/12 22/35/12 24/36/12
f 22/37/4 20/33/4 24/38/4
f 17/31/13 20/33/13 18/39/13
f 21/40/14 18/39/14 22/35/14
f 21/29/1 23/41/1 19/30/1
f 19/30/11 23/42/11 24/32/11
f 23/34/12 21/40/12 22/35/12
f 22/37/4 18/39/4 20/33/4
f 17/31/13 19/30/13 20/33/13
f 21/40/14 17/31/14 18/39/14
usemtl Material.003
f 29/43/1 27/44/1 25/45/1
f 27/44/15 32/46/15 28/47/15
f 31/48/16 30/49/16 32/50/16
f 30/51/4 28/47/4 32/52/4
f 25/45/17 28/47/17 26/53/17
f 29/54/18 26/53/18 30/49/18
f 29/43/1 31/55/1 27/44/1
f 27/44/15 31/56/15 32/46/15
f 31/48/16 29/54/16 30/49/16
f 30/51/4 26/53/4 28/47/4
f 25/45/17 27/44/17 28/47/17
f 29/54/18 25/45/18 26/53/18
usemtl Material.004
f 37/57/1 35/58/1 33/59/1
f 35/58/19 40/60/19 36/61/19
f 39/62/20 38/63/20 40/64/20
f 38/65/4 36/61/4 40/66/4
f 33/59/21 36/61/21 34/67/21
f 37/68/22 34/67/22 38/63/22
f 37/57/1 39/69/1 35/58/1
f 35/58/19 39/70/19 40/60/19
f 39/62/20 37/68/20 38/63/20
f 38/65/4 34/67/4 36/61/4
f 33/59/21 35/58/21 36/61/21
f 37/68/22 33/59/22 34/67/22
usemtl Material.005
f 45/71/1 43/72/1 41/73/1
f 43/72/23 48/74/23 44/75/23
f 47/76/24 46/77/24 48/78/24
f 46/79/4 44/75/4 48/80/4
f 41/73/25 44/75/25 42/81/25
f 45/82/26 42/81/26 46/77/26
f 45/71/1 47/83/1 43/72/1
f 43/72/23 47/84/23 48/74/23
f 47/76/24 45/82/24 46/77/24
f 46/79/4 42/81/4 44/75/4
f 41/73/25 43/72/25 44/75/25
f 45/82/26 41/73/26 42/81/26
usemtl Material.006
f 53/85/1 51/86/1 49/87/1
f 51/86/27 56/88/27 52/89/27
f 55/90/28 54/91/28 56/92/28
f 54/93/4 52/89/4 56/94/4
f 49/87/29 52/89/29 50/95/29
f 53/96/30 50/95/30 54/91/30
f 53/85/1 55/97/1 51/86/1
f 51/86/27 55/98/27 56/88/27
f 55/90/28 53/96/28 54/91/28
f 54/93/4 50/95/4 52/89/4
f 49/87/29 51/86/29 52/89/29
f 53/96/30 49/87/30 50/95/30
