# Blender v3.1.2 OBJ File: ''
# www.blender.org
mtllib Исусшитель(B1)(Head).mtl
o Cube.009_Cube.031
v -0.616697 -0.613261 -0.211140
v -0.616697 0.591191 -0.211140
v 0.587755 -0.613261 -0.211140
v 0.587755 0.591191 -0.211140
v -0.616697 -0.613261 0.993312
v -0.616697 0.591191 0.993312
v 0.587755 -0.613261 0.993312
v 0.587755 0.591191 0.993312
v -0.405411 -0.331911 0.993312
v 0.301194 -0.341332 0.993312
v 0.499044 -0.096376 0.993312
v 0.219542 -0.162326 0.993312
v -0.267231 -0.187449 0.993312
v -0.496485 -0.058690 0.993312
v -0.399131 0.205109 0.993312
v -0.392849 0.104614 0.993312
v 0.407970 0.211390 0.993312
v 0.404830 0.110895 0.993312
v 0.364067 0.209926 0.993312
v -0.291046 0.205109 0.993312
v 0.189048 -0.089140 0.993312
v 0.312383 0.095314 0.993312
v -0.339484 0.100464 0.993312
v -0.208659 -0.086706 0.993312
v -0.402271 -0.035180 0.993312
v 0.295611 -0.083159 0.993312
v 0.443911 -0.046084 0.993312
v -0.131842 -0.107149 0.993312
v 0.433007 0.324665 0.993312
v 0.302154 0.462061 0.993312
v 0.014277 0.422805 0.993312
v -0.271418 0.477327 0.993312
v -0.199449 0.372645 0.993312
v -0.413175 0.363921 0.993312
vt 0.625000 0.000000
vt 0.375000 0.250000
vt 0.375000 0.000000
vt 0.625000 0.500000
vt 0.375000 0.500000
vt 0.433398 0.706145
vt 0.490109 0.725048
vt 0.375000 0.750000
vt 0.625000 0.750000
vt 0.375000 1.000000
vt 0.125000 0.500000
vt 0.125000 0.750000
vt 0.875000 0.500000
vt 0.601366 0.678333
vt 0.524005 0.703538
vt 0.544864 0.704841
vt 0.482286 0.518413
vt 0.480050 0.649362
vt 0.463383 0.677464
vt 0.468598 0.576428
vt 0.625000 0.250000
vt 0.431442 0.559480
vt 0.625000 1.000000
vt 0.875000 0.750000
vt 0.577827 0.707756
vt 0.544864 0.682407
vt 0.579638 0.663395
vt 0.569679 0.532120
vt 0.545864 0.546430
vt 0.546167 0.537317
vt 0.590049 0.619033
vt 0.598197 0.559280
vt 0.494988 0.705493
vt 0.484293 0.665306
vt 0.523143 0.692461
vt 0.525308 0.537969
vt 0.522074 0.557157
vt 0.492725 0.529857
vt 0.485030 0.560638
vt 0.483788 0.582757
vn 0.0000 -0.0000 -1.0000
vn 1.0000 0.0000 0.0000
vn 0.0000 0.0000 1.0000
vn -1.0000 0.0000 0.0000
vn 0.0000 -1.0000 0.0000
vn 0.0000 1.0000 0.0000
usemtl Material.008
s off
f 2/1/1 3/2/1 1/3/1
f 3/2/2 8/4/2 7/5/2
f 9/6/3 14/7/3 5/8/3
f 6/9/4 1/10/4 5/8/4
f 3/11/5 5/8/5 1/12/5
f 4/13/6 6/9/6 8/4/6
f 6/9/3 32/14/3 8/4/3
f 16/15/3 15/16/3 14/7/3
f 11/17/3 7/5/3 8/4/3
f 28/18/3 13/19/3 12/20/3
f 2/1/1 4/21/1 3/2/1
f 3/2/2 4/21/2 8/4/2
f 5/8/3 7/5/3 10/22/3
f 5/8/3 10/22/3 9/6/3
f 14/7/3 6/9/3 5/8/3
f 6/9/4 2/23/4 1/10/4
f 3/11/5 7/5/5 5/8/5
f 4/13/6 2/24/6 6/9/6
f 6/9/3 15/16/3 34/25/3
f 15/16/3 20/26/3 34/25/3
f 34/25/3 33/27/3 32/14/3
f 29/28/3 19/29/3 17/30/3
f 32/14/3 31/31/3 30/32/3
f 29/28/3 17/30/3 8/4/3
f 30/32/3 29/28/3 8/4/3
f 6/9/3 34/25/3 32/14/3
f 32/14/3 30/32/3 8/4/3
f 14/7/3 13/19/3 25/33/3
f 13/19/3 24/34/3 25/33/3
f 25/33/3 23/35/3 16/15/3
f 15/16/3 6/9/3 14/7/3
f 25/33/3 16/15/3 14/7/3
f 8/4/3 17/30/3 11/17/3
f 17/30/3 18/36/3 11/17/3
f 18/36/3 22/37/3 27/38/3
f 26/39/3 21/40/3 12/20/3
f 18/36/3 27/38/3 11/17/3
f 27/38/3 26/39/3 11/17/3
f 26/39/3 12/20/3 11/17/3
f 11/17/3 10/22/3 7/5/3
f 12/20/3 21/40/3 28/18/3
f 28/18/3 24/34/3 13/19/3
