# Blender v3.1.2 OBJ File: ''
# www.blender.org
mtllib Исусшитель(B)(Head).mtl
o Cube.002_Cube.033
v -0.110207 0.205109 0.993312
v -0.110207 0.082631 0.993312
v 0.125328 0.063788 0.993312
v 0.125328 0.201969 0.993312
v 0.364067 0.209926 0.993312
v -0.291046 0.205109 0.993312
v 0.189048 -0.089140 0.993312
v 0.312383 0.095314 0.993312
v -0.339484 0.100464 0.993312
v -0.208659 -0.086706 0.993312
v -0.402271 -0.035180 0.993312
v 0.295611 -0.083159 0.993312
v 0.443911 -0.046084 0.993312
v -0.131842 -0.107149 0.993312
v 0.433007 0.324665 0.993312
v 0.302154 0.462061 0.993312
v 0.014277 0.422805 0.993312
v -0.271418 0.477327 0.993312
v -0.199449 0.372645 0.993312
v -0.413175 0.363921 0.993312
vt 0.523143 0.692461
vt 0.484293 0.665306
vt 0.519442 0.644871
vt 0.485030 0.560638
vt 0.492725 0.529857
vt 0.522074 0.557157
vt 0.480050 0.649362
vt 0.515531 0.595983
vt 0.494988 0.705493
vt 0.483788 0.582757
vt 0.544212 0.595983
vt 0.545864 0.546430
vt 0.598197 0.559280
vt 0.569679 0.532120
vt 0.590049 0.619033
vt 0.601366 0.678333
vt 0.579638 0.663395
vt 0.577827 0.707756
vt 0.544864 0.682407
vt 0.544864 0.644871
vn 0.0000 0.0000 1.0000
usemtl Material.009
s off
f 9/1/1 10/2/1 2/3/1
f 12/4/1 13/5/1 8/6/1
f 2/3/1 14/7/1 3/8/1
f 9/1/1 11/9/1 10/2/1
f 3/8/1 7/10/1 8/6/1
f 7/10/1 12/4/1 8/6/1
f 4/11/1 5/12/1 16/13/1
f 5/12/1 15/14/1 16/13/1
f 16/13/1 17/15/1 4/11/1
f 17/15/1 18/16/1 19/17/1
f 19/17/1 20/18/1 6/19/1
f 19/17/1 6/19/1 1/20/1
f 17/15/1 19/17/1 1/20/1
f 4/11/1 17/15/1 1/20/1
f 14/7/1 7/10/1 3/8/1
f 3/8/1 4/11/1 2/3/1
f 4/11/1 1/20/1 2/3/1
f 2/3/1 10/2/1 14/7/1
