# Blender v3.1.2 OBJ File: ''
# www.blender.org
mtllib Исусшитель(B).mtl
o Cube.002_Cube.033
v -1.044773 1.320061 0.839260
v -1.014713 1.409151 0.839260
v -1.181107 1.314680 0.839260
v -1.168545 1.396332 0.839260
v -1.369536 1.295837 0.839260
v -1.372676 1.390051 0.839260
v -0.110207 2.002443 0.993312
v -0.110207 1.879964 0.993313
v 0.125328 1.861122 0.993312
v 0.125328 1.999302 0.993313
v 1.022394 1.383958 0.839260
v 1.217688 1.453122 0.839260
v 1.209837 1.371993 0.839260
v 1.364243 1.442654 0.839260
v 1.364243 1.351057 0.839260
v -1.413161 1.238189 0.839260
v -1.070504 1.243802 0.839260
v -1.542872 1.312544 0.839260
v -0.914917 1.704918 0.839260
v -1.539738 1.403973 0.839260
v -1.004368 1.321656 0.839260
v -1.542872 1.230018 0.839260
v -0.916959 1.240923 0.839260
v -0.871161 1.714174 0.839260
v -1.265900 1.247466 0.839260
v -1.211378 1.642205 0.839260
v -1.060897 1.770877 0.839260
v -1.512340 1.757792 0.839260
v -1.359678 1.642205 0.839260
v -1.647554 1.609492 0.839260
v -1.446913 1.517895 0.839260
v 0.364067 2.007260 0.993312
v -0.291046 2.002443 0.993312
v 0.189048 1.708194 0.993312
v 0.312383 1.892648 0.993312
v -0.339484 1.897797 0.993312
v -0.208659 1.710628 0.993312
v -0.402271 1.762154 0.993312
v 0.295611 1.714174 0.993312
v 0.443911 1.751249 0.993312
v -0.131842 1.690184 0.993312
v 0.433007 2.121999 0.993312
v 0.302154 2.259394 0.993312
v 0.014277 2.220139 0.993313
v -0.271418 2.274661 0.993312
v -0.199449 2.169979 0.993313
v -0.413175 2.161255 0.993312
v 0.973324 1.528580 0.839260
v 0.962910 1.559274 0.839260
v 1.583218 1.352897 0.839260
v 1.713608 1.700250 0.839260
v 0.998588 1.385477 0.839260
v 1.037950 1.458624 0.839260
v 1.435927 1.255478 0.839260
v 1.582127 1.446255 0.839260
v 1.061541 1.268580 0.839260
v 1.007204 1.274501 0.839260
v 0.918151 1.543476 0.839260
v 0.974491 1.685234 0.839260
v 1.554242 1.605268 0.839260
v 1.661468 1.545294 0.839260
v 1.532433 1.474415 0.839260
v 1.290718 1.243605 0.839260
v 1.099891 1.494407 0.839260
v 1.103526 1.608903 0.839260
v 1.579685 1.267231 0.839260
vt 0.458679 0.694336
vt 0.437941 0.658158
vt 0.454020 0.645991
vt 0.439506 0.562588
vt 0.461221 0.544142
vt 0.460776 0.555412
vt 0.485624 0.547027
vt 0.570698 0.506989
vt 0.568116 0.519193
vt 0.480297 0.646867
vt 0.440528 0.617086
vt 0.459275 0.593436
vt 0.523143 0.692461
vt 0.484293 0.665306
vt 0.519442 0.644871
vt 0.485030 0.560638
vt 0.492725 0.529857
vt 0.522074 0.557157
vt 0.480050 0.649362
vt 0.515531 0.595983
vt 0.527495 0.716917
vt 0.523089 0.729400
vt 0.518934 0.714012
vt 0.448069 0.704562
vt 0.478597 0.700326
vt 0.479021 0.706966
vt 0.509403 0.678711
vt 0.497888 0.645857
vt 0.541337 0.677697
vt 0.442763 0.584987
vt 0.469934 0.543907
vt 0.469421 0.604981
vt 0.435662 0.694336
vt 0.438703 0.519763
vt 0.550625 0.601879
vt 0.586513 0.559909
vt 0.550625 0.643242
vt 0.582863 0.685820
vt 0.541501 0.723533
vt 0.515954 0.667572
vt 0.482049 0.589933
vt 0.484180 0.693462
vt 0.494988 0.705493
vt 0.483788 0.582757
vt 0.544212 0.595983
vt 0.545864 0.546430
vt 0.598197 0.559280
vt 0.569679 0.532120
vt 0.590049 0.619033
vt 0.601366 0.678333
vt 0.579638 0.663395
vt 0.577827 0.707756
vt 0.544864 0.682407
vt 0.544864 0.644871
vt 0.446417 0.689407
vt 0.540323 0.551988
vt 0.566814 0.507540
vt 0.562626 0.713687
vt 0.503827 0.558071
vt 0.523596 0.522082
vt 0.494968 0.604981
vt 0.495973 0.544211
vt 0.439451 0.625488
vt 0.475260 0.648046
vt 0.499422 0.695987
vt 0.446041 0.544892
vn 0.0000 0.0000 1.0000
usemtl Material.009
s off
f 18/1/1 16/2/1 5/3/1
f 17/4/1 21/5/1 1/6/1
f 2/7/1 24/8/1 19/9/1
f 6/10/1 25/11/1 3/12/1
f 36/13/1 37/14/1 8/15/1
f 39/16/1 40/17/1 35/18/1
f 8/15/1 41/19/1 9/20/1
f 49/21/1 58/22/1 48/23/1
f 57/24/1 11/25/1 52/26/1
f 64/27/1 12/28/1 65/29/1
f 54/30/1 50/31/1 15/32/1
f 18/1/1 22/33/1 16/2/1
f 17/4/1 23/34/1 21/5/1
f 2/7/1 19/9/1 26/35/1
f 26/35/1 27/36/1 29/37/1
f 27/36/1 28/38/1 29/37/1
f 29/37/1 30/39/1 31/40/1
f 4/41/1 2/7/1 26/35/1
f 17/4/1 1/6/1 3/12/1
f 3/12/1 4/41/1 6/10/1
f 4/41/1 26/35/1 6/10/1
f 26/35/1 29/37/1 6/10/1
f 29/37/1 31/40/1 6/10/1
f 31/40/1 20/42/1 6/10/1
f 5/3/1 16/2/1 25/11/1
f 6/10/1 5/3/1 25/11/1
f 25/11/1 17/4/1 3/12/1
f 36/13/1 38/43/1 37/14/1
f 9/20/1 34/44/1 35/18/1
f 34/44/1 39/16/1 35/18/1
f 10/45/1 32/46/1 43/47/1
f 32/46/1 42/48/1 43/47/1
f 43/47/1 44/49/1 10/45/1
f 44/49/1 45/50/1 46/51/1
f 46/51/1 47/52/1 33/53/1
f 46/51/1 33/53/1 7/54/1
f 44/49/1 46/51/1 7/54/1
f 10/45/1 44/49/1 7/54/1
f 41/19/1 34/44/1 9/20/1
f 9/20/1 10/45/1 8/15/1
f 10/45/1 7/54/1 8/15/1
f 8/15/1 37/14/1 41/19/1
f 57/24/1 56/55/1 11/25/1
f 60/56/1 51/57/1 59/58/1
f 65/29/1 49/21/1 48/23/1
f 60/56/1 59/58/1 65/29/1
f 62/59/1 61/60/1 60/56/1
f 14/61/1 55/62/1 62/59/1
f 63/63/1 54/30/1 15/32/1
f 14/61/1 62/59/1 60/56/1
f 63/63/1 15/32/1 13/64/1
f 15/32/1 14/61/1 13/64/1
f 11/25/1 56/55/1 13/64/1
f 56/55/1 63/63/1 13/64/1
f 14/61/1 60/56/1 65/29/1
f 64/27/1 53/65/1 12/28/1
f 12/28/1 13/64/1 14/61/1
f 14/61/1 65/29/1 12/28/1
f 65/29/1 48/23/1 64/27/1
f 54/30/1 66/66/1 50/31/1
