# Blender v3.1.2 OBJ File: ''
# www.blender.org
mtllib нютя(cg).mtl
o Plane_Plane.001
v 0.189043 1.461075 0.306089
v 0.018906 1.463296 0.276089
v 0.102444 1.610743 0.290819
v 0.127991 1.566590 0.295324
v 0.157422 1.515725 0.300514
v 0.047978 1.514609 0.281215
v 0.077129 1.566061 0.286356
v 0.124836 1.461913 0.294768
v 0.079117 1.462510 0.286706
v 0.102007 1.424214 0.290742
v 0.017594 1.565443 0.275858
v 0.188606 1.567220 0.306012
v 0.119795 1.467886 0.293879
v 0.148143 1.515434 0.298877
v 0.124098 1.557841 0.294638
v 0.081576 1.559383 0.287140
v 0.057277 1.513892 0.282855
v 0.084360 1.470713 0.287631
v 0.114304 1.456688 0.292911
v 0.090223 1.456331 0.288665
v 0.101824 1.435271 0.290710
v 0.069658 1.467397 0.285038
v 0.047863 1.503093 0.281195
v 0.030286 1.469896 0.278096
v 0.047687 1.525939 0.281164
v 0.067373 1.559672 0.284635
v 0.030110 1.559850 0.278065
v 0.087195 1.571334 0.288130
v 0.101774 1.596932 0.290701
v 0.118479 1.573801 0.293647
v 0.140044 1.560231 0.297449
v 0.157052 1.530006 0.300448
v 0.175580 1.559922 0.303715
v 0.159179 1.501632 0.300823
v 0.136703 1.466473 0.296860
v 0.178617 1.465856 0.304251
v 0.185506 1.461075 0.326147
v 0.015369 1.463296 0.296148
v 0.098907 1.610743 0.310878
v 0.124455 1.566590 0.315382
v 0.153886 1.515725 0.320572
v 0.044441 1.514609 0.301274
v 0.073592 1.566061 0.306414
v 0.121299 1.461913 0.314826
v 0.075580 1.462510 0.306764
v 0.098470 1.424214 0.310801
v 0.014057 1.565443 0.295916
v 0.185069 1.567220 0.326070
v 0.116258 1.467886 0.313937
v 0.144606 1.515434 0.318936
v 0.120561 1.557841 0.314696
v 0.078039 1.559383 0.307198
v 0.053740 1.513892 0.302914
v 0.080823 1.470713 0.307689
v 0.110767 1.456688 0.312969
v 0.086687 1.456331 0.308723
v 0.098287 1.435271 0.310768
v 0.066122 1.467397 0.305097
v 0.044326 1.503093 0.301254
v 0.026749 1.469896 0.298154
v 0.044150 1.525939 0.301223
v 0.063837 1.559672 0.304694
v 0.026574 1.559850 0.298123
v 0.083658 1.571334 0.308189
v 0.098237 1.596932 0.310759
v 0.114942 1.573801 0.313705
v 0.136507 1.560231 0.317508
v 0.153516 1.530006 0.320507
v 0.172043 1.559922 0.323774
v 0.155642 1.501632 0.320882
v 0.133166 1.466473 0.316918
v 0.175080 1.465856 0.324309
vt 0.627241 0.409623
vt 0.542036 0.396932
vt 0.647098 0.398282
vt 0.471057 0.406170
vt 0.462260 0.395906
vt 0.441554 0.403741
vt 0.350224 0.394466
vt 0.502502 0.627922
vt 0.545505 0.574874
vt 0.501333 0.651655
vt 0.522656 0.386314
vt 0.502414 0.350123
vt 0.562527 0.563894
vt 0.596371 0.486457
vt 0.373717 0.564325
vt 0.350988 0.576864
vt 0.405400 0.488376
vt 0.537746 0.563397
vt 0.456754 0.575782
vt 0.480638 0.386927
vt 0.596571 0.466670
vt 0.627548 0.564201
vt 0.649388 0.573811
vt 0.527941 0.583934
vt 0.542036 0.396932
vt 0.627241 0.409623
vt 0.647098 0.398282
vt 0.532888 0.411028
vt 0.580144 0.485225
vt 0.350224 0.394466
vt 0.441554 0.403741
vt 0.462260 0.395906
vt 0.502502 0.627922
vt 0.473353 0.588174
vt 0.501333 0.651655
vt 0.502414 0.350123
vt 0.502096 0.331123
vt 0.596371 0.486457
vt 0.596878 0.505928
vt 0.649388 0.573811
vt 0.405400 0.488376
vt 0.373717 0.564325
vt 0.406046 0.512917
vt 0.537746 0.563397
vt 0.463548 0.560747
vt 0.456754 0.575782
vt 0.522656 0.386314
vt 0.480638 0.386927
vt 0.596571 0.466670
vt 0.558540 0.405329
vt 0.545505 0.574874
vt 0.627548 0.564201
vt 0.562527 0.563894
vt 0.527941 0.583934
vt 0.350988 0.576864
vt 0.402336 0.464158
vt 0.502096 0.331123
vt 0.421592 0.487875
vt 0.421592 0.487875
vt 0.463548 0.560747
vt 0.580144 0.485225
vt 0.532888 0.411028
vt 0.471057 0.406170
vt 0.558540 0.405329
vt 0.596878 0.505928
vt 0.473353 0.588174
vt 0.435724 0.564855
vt 0.406046 0.512917
vt 0.435724 0.564855
vt 0.402336 0.464158
vt 0.368417 0.402681
vt 0.368417 0.402681
vn 0.1736 -0.0000 -0.9848
vn 0.1737 0.0000 -0.9848
vn -0.1736 -0.0000 0.9848
vn -0.1737 0.0000 0.9848
vn -0.0127 -0.9999 -0.0022
vn -0.8536 0.4987 -0.1505
vn 0.8491 0.5066 0.1497
vn 0.8389 -0.5238 0.1479
vn -0.8419 -0.5188 -0.1484
vn -0.0101 0.9999 -0.0018
vn -0.8424 0.5179 -0.1485
vn -0.8535 -0.4990 -0.1505
vn -0.0351 -0.9994 -0.0062
vn 0.8657 -0.4768 0.1526
vn 0.8306 0.5372 0.1465
vn 0.0771 0.9969 0.0136
vn 0.0144 -0.9999 0.0025
vn 0.8595 0.4882 0.1516
vn -0.8476 0.5092 -0.1495
vn -0.8370 -0.5269 -0.1476
vn 0.8674 -0.4735 0.1530
vn 0.0614 0.9981 0.0108
vn -0.8472 0.5098 -0.1494
vn -0.0046 -1.0000 -0.0008
vn 0.8715 0.4657 0.1537
vn 0.8525 -0.5006 0.1503
vn -0.7942 -0.5914 -0.1400
vn -0.0763 0.9970 -0.0134
vn 0.8551 0.4961 0.1508
vn -0.8337 0.5324 -0.1470
vn -0.0084 -1.0000 -0.0015
vn 0.8260 -0.5445 0.1457
vn 0.0143 0.9999 0.0025
vn -0.8623 -0.4831 -0.1520
vn -0.8419 -0.5188 -0.1485
vn 0.8595 0.4881 0.1516
vn -0.8476 0.5092 -0.1494
vn 0.8674 -0.4735 0.1529
vn 0.8260 -0.5445 0.1456
usemtl Material.008
s off
f 24/1/1 9/2/1 2/3/1
f 9/2/1 13/4/1 8/5/1
f 35/6/2 1/7/2 8/5/2
f 29/8/1 7/9/1 3/10/1
f 9/2/2 20/11/2 21/12/2
f 26/13/2 7/9/2 6/14/2
f 33/15/1 12/16/1 5/17/1
f 16/18/1 7/9/1 4/19/1
f 20/11/2 8/5/2 19/20/2
f 23/21/1 2/3/1 6/14/1
f 7/9/2 27/22/2 11/23/2
f 28/24/2 4/19/2 7/9/2
f 33/15/1 4/19/1 12/16/1
f 35/6/2 8/5/2 5/17/2
f 45/25/3 60/26/3 38/27/3
f 54/28/4 53/29/4 45/25/4
f 37/30/3 71/31/3 44/32/3
f 65/33/4 66/34/4 39/35/4
f 57/36/4 45/25/4 46/37/4
f 42/38/4 61/39/4 47/40/4
f 41/41/3 69/42/3 68/43/3
f 52/44/4 51/45/4 40/46/4
f 44/32/4 56/47/4 55/48/4
f 59/49/4 58/50/4 42/38/4
f 43/51/3 63/52/3 62/53/3
f 40/46/3 64/54/3 43/51/3
f 40/46/4 69/42/4 48/55/4
f 41/41/4 71/31/4 70/56/4
f 9/2/5 38/27/5 2/3/5
f 7/9/6 39/35/6 3/10/6
f 5/17/7 37/30/7 1/7/7
f 3/10/7 40/46/7 4/19/7
f 2/3/6 42/38/6 6/14/6
f 1/7/5 44/32/5 8/5/5
f 8/5/8 46/37/8 10/57/8
f 10/57/9 45/25/9 9/2/9
f 11/23/10 43/51/10 7/9/10
f 4/19/10 48/55/10 12/16/10
f 12/16/8 41/41/8 5/17/8
f 6/14/9 47/40/9 11/23/9
f 13/4/11 50/58/11 14/59/11
f 14/59/12 51/45/12 15/60/12
f 15/60/13 52/44/13 16/18/13
f 16/18/14 53/29/14 17/61/14
f 17/61/15 54/28/15 18/62/15
f 18/62/16 49/63/16 13/4/16
f 19/20/17 56/47/17 20/11/17
f 20/11/18 57/36/18 21/12/18
f 21/12/19 55/48/19 19/20/19
f 22/64/20 59/49/20 23/21/20
f 23/21/21 60/26/21 24/1/21
f 24/1/22 58/50/22 22/64/22
f 25/65/23 62/53/23 26/13/23
f 26/13/24 63/52/24 27/22/24
f 27/22/25 61/39/25 25/65/25
f 29/8/26 64/54/26 28/24/26
f 30/66/27 65/33/27 29/8/27
f 28/24/28 66/34/28 30/66/28
f 31/67/29 68/43/29 32/68/29
f 32/68/30 69/42/30 33/15/30
f 33/15/31 67/69/31 31/67/31
f 34/70/32 71/31/32 35/6/32
f 35/6/33 72/71/33 36/72/33
f 36/72/34 70/56/34 34/70/34
f 24/1/2 22/64/2 9/2/2
f 9/2/1 6/14/1 17/61/1
f 9/2/1 17/61/1 18/62/1
f 14/59/1 5/17/1 8/5/1
f 9/2/2 18/62/2 13/4/2
f 13/4/2 14/59/2 8/5/2
f 35/6/1 36/72/1 1/7/1
f 3/10/2 4/19/2 30/66/2
f 29/8/2 28/24/2 7/9/2
f 3/10/1 30/66/1 29/8/1
f 19/20/2 8/5/2 21/12/2
f 8/5/1 10/57/1 21/12/1
f 10/57/2 9/2/2 21/12/2
f 6/14/1 11/23/1 25/65/1
f 11/23/2 27/22/2 25/65/2
f 25/65/2 26/13/2 6/14/2
f 5/17/2 4/19/2 32/68/2
f 4/19/1 31/67/1 32/68/1
f 32/68/1 33/15/1 5/17/1
f 4/19/1 5/17/1 15/60/1
f 5/17/2 14/59/2 15/60/2
f 17/61/1 6/14/1 16/18/1
f 6/14/1 7/9/1 16/18/1
f 4/19/1 15/60/1 16/18/1
f 20/11/1 9/2/1 8/5/1
f 6/14/1 9/2/1 22/64/1
f 23/21/2 24/1/2 2/3/2
f 6/14/2 22/64/2 23/21/2
f 7/9/2 26/13/2 27/22/2
f 28/24/1 30/66/1 4/19/1
f 33/15/1 31/67/1 4/19/1
f 5/17/1 1/7/1 34/70/1
f 1/7/1 36/72/1 34/70/1
f 34/70/1 35/6/1 5/17/1
f 45/25/4 58/50/4 60/26/4
f 44/32/3 41/41/3 50/58/3
f 44/32/4 50/58/4 49/63/4
f 53/29/4 42/38/4 45/25/4
f 44/32/3 49/63/3 45/25/3
f 49/63/4 54/28/4 45/25/4
f 37/30/3 72/71/3 71/31/3
f 66/34/3 40/46/3 39/35/3
f 39/35/3 43/51/3 65/33/3
f 43/51/4 64/54/4 65/33/4
f 46/37/3 44/32/3 57/36/3
f 44/32/4 55/48/4 57/36/4
f 57/36/4 56/47/4 45/25/4
f 42/38/4 43/51/4 62/53/4
f 61/39/3 63/52/3 47/40/3
f 42/38/3 62/53/3 61/39/3
f 67/69/3 40/46/3 68/43/3
f 40/46/4 41/41/4 68/43/4
f 41/41/3 48/55/3 69/42/3
f 50/58/3 41/41/3 51/45/3
f 41/41/3 40/46/3 51/45/3
f 43/51/3 42/38/3 52/44/3
f 42/38/3 53/29/3 52/44/3
f 43/51/3 52/44/3 40/46/3
f 44/32/3 45/25/3 56/47/3
f 58/50/3 45/25/3 42/38/3
f 42/38/3 38/27/3 59/49/3
f 38/27/4 60/26/4 59/49/4
f 43/51/3 47/40/3 63/52/3
f 40/46/3 66/34/3 64/54/3
f 40/46/4 67/69/4 69/42/4
f 72/71/4 37/30/4 70/56/4
f 37/30/3 41/41/3 70/56/3
f 41/41/3 44/32/3 71/31/3
f 9/2/5 45/25/5 38/27/5
f 7/9/6 43/51/6 39/35/6
f 5/17/7 41/41/7 37/30/7
f 3/10/7 39/35/7 40/46/7
f 2/3/6 38/27/6 42/38/6
f 1/7/5 37/30/5 44/32/5
f 8/5/8 44/32/8 46/37/8
f 10/57/35 46/37/35 45/25/35
f 11/23/10 47/40/10 43/51/10
f 4/19/10 40/46/10 48/55/10
f 12/16/8 48/55/8 41/41/8
f 6/14/35 42/38/35 47/40/35
f 13/4/11 49/63/11 50/58/11
f 14/59/12 50/58/12 51/45/12
f 15/60/13 51/45/13 52/44/13
f 16/18/14 52/44/14 53/29/14
f 17/61/15 53/29/15 54/28/15
f 18/62/16 54/28/16 49/63/16
f 19/20/17 55/48/17 56/47/17
f 20/11/36 56/47/36 57/36/36
f 21/12/37 57/36/37 55/48/37
f 22/64/20 58/50/20 59/49/20
f 23/21/38 59/49/38 60/26/38
f 24/1/22 60/26/22 58/50/22
f 25/65/23 61/39/23 62/53/23
f 26/13/24 62/53/24 63/52/24
f 27/22/25 63/52/25 61/39/25
f 29/8/26 65/33/26 64/54/26
f 30/66/27 66/34/27 65/33/27
f 28/24/28 64/54/28 66/34/28
f 31/67/29 67/69/29 68/43/29
f 32/68/30 68/43/30 69/42/30
f 33/15/31 69/42/31 67/69/31
f 34/70/39 70/56/39 71/31/39
f 35/6/33 71/31/33 72/71/33
f 36/72/34 72/71/34 70/56/34
