# Blender v3.1.2 OBJ File: ''
# www.blender.org
mtllib Пихо-Копьё(b).mtl
o Cube
v 0.377882 0.377882 -0.377882
v 0.377882 -0.377882 -0.377882
v -0.377882 0.377882 -0.377882
v -0.377882 -0.377882 -0.377882
v 0.377882 0.377882 -3.000449
v 0.377882 -0.377882 -3.000449
v -0.377882 0.377882 -3.000449
v -0.377882 -0.377882 -3.000449
v 0.377882 0.377882 -3.118582
v 0.377882 -0.377882 -3.118582
v -0.377882 0.377882 -3.118582
v -0.377882 -0.377882 -3.118582
v 0.377882 0.377882 -3.961269
v 0.377882 -0.377882 -3.961269
v -0.377882 0.377882 -3.961269
v -0.377882 -0.377882 -3.961269
v 0.377882 0.377882 -4.095154
v 0.377882 -0.377882 -4.095154
v -0.377882 0.377882 -4.095154
v -0.377882 -0.377882 -4.095154
v -0.556086 0.556086 -3.961269
v 0.556086 -0.556086 -3.961269
v 0.556086 0.556086 -3.961269
v -0.556086 -0.556086 -3.961269
v 0.556086 0.556086 -4.095154
v 0.556086 -0.556086 -4.095154
v -0.556086 0.556086 -4.095154
v -0.556086 -0.556086 -4.095154
v 0.667463 0.667463 -3.000449
v 0.667463 -0.667463 -3.000449
v -0.667463 0.667463 -3.000449
v -0.667463 -0.667463 -3.000449
v 0.667463 0.667463 -3.118582
v 0.667463 -0.667463 -3.118582
v -0.667463 0.667463 -3.118582
v -0.667463 -0.667463 -3.118582
v -0.377882 0.377882 -1.689165
v -0.377882 -0.377882 -1.689165
v 0.377882 -0.377882 -1.689165
v 0.377882 0.377882 -1.689165
v -0.377882 -0.377882 -1.554877
v 0.377882 -0.377882 -1.554877
v -0.377882 0.377882 -1.554877
v 0.377882 0.377882 -1.554877
v -0.756565 0.756565 -1.689165
v -0.756565 -0.756565 -1.689165
v 0.756565 -0.756565 -1.689165
v 0.756565 0.756565 -1.689165
v -0.756565 -0.756565 -1.554877
v 0.756565 -0.756565 -1.554877
v -0.756565 0.756565 -1.554877
v 0.756565 0.756565 -1.554877
v -0.377882 -0.377882 -0.966380
v 0.377882 -0.377882 -0.966380
v -0.377882 0.377882 -0.966380
v 0.377882 0.377882 -0.966380
v -0.377882 -0.377882 -0.849790
v 0.377882 -0.377882 -0.849790
v -0.377882 0.377882 -0.849790
v 0.377882 0.377882 -0.849790
v -0.377882 -0.377882 -0.734557
v 0.377882 -0.377882 -0.734557
v -0.377882 0.377882 -0.734557
v 0.377882 0.377882 -0.734557
v -0.377882 -0.377882 -0.623096
v 0.377882 -0.377882 -0.623096
v -0.377882 0.377882 -0.623096
v 0.377882 0.377882 -0.623096
v -0.377882 -0.377882 -0.500489
v 0.377882 -0.377882 -0.500489
v -0.377882 0.377882 -0.500489
v 0.377882 0.377882 -0.500489
v -0.509369 -0.509369 -0.966380
v 0.509369 -0.509369 -0.966380
v -0.509369 0.509369 -0.966380
v 0.509369 0.509369 -0.966380
v -0.509369 -0.509369 -0.849790
v 0.509369 -0.509369 -0.849790
v -0.509369 0.509369 -0.849790
v 0.509369 0.509369 -0.849790
v -0.532573 -0.532573 -0.734557
v 0.532573 -0.532573 -0.734557
v -0.532573 0.532573 -0.734557
v 0.532573 0.532573 -0.734557
v -0.532573 -0.532573 -0.623096
v 0.532573 -0.532573 -0.623096
v -0.532573 0.532573 -0.623096
v 0.532573 0.532573 -0.623096
v 0.563511 0.563511 -0.377882
v 0.563511 -0.563511 -0.377882
v -0.563511 0.563511 -0.377882
v -0.563511 -0.563511 -0.377882
v -0.563511 -0.563511 -0.500489
v 0.563511 -0.563511 -0.500489
v -0.563511 0.563511 -0.500489
v 0.563511 0.563511 -0.500489
v -0.274605 0.403667 -2.084521
v -0.102395 0.403667 -2.085452
v -0.038165 0.403667 -2.121756
v -0.036304 0.403667 -2.221359
v -0.067022 0.403667 -2.292104
v -0.174072 0.403667 -2.221359
v -0.276467 0.403667 -2.258593
v -0.274605 0.403667 -2.469899
v 0.002793 0.403667 -2.655141
v 0.276467 0.403667 -2.465245
v 0.272743 0.403667 -2.256731
v 0.168486 0.403667 -2.221359
v 0.068884 0.403667 -2.290242
v 0.035373 0.403667 -2.219497
v 0.031649 0.403667 -2.118032
v 0.106119 0.403667 -2.086383
v 0.276467 0.403667 -2.088245
v 0.275536 0.403667 -2.049149
v -0.273674 0.403667 -2.047287
v -0.274605 0.400224 -2.084521
v -0.102395 0.400224 -2.085452
v -0.038165 0.400224 -2.121756
v -0.036304 0.400224 -2.221359
v -0.067022 0.400224 -2.292104
v -0.174072 0.400224 -2.221359
v -0.276467 0.400224 -2.258593
v -0.274605 0.400224 -2.469899
v 0.002793 0.400224 -2.655141
v 0.276467 0.400224 -2.465245
v 0.272743 0.400224 -2.256731
v 0.168486 0.400224 -2.221359
v 0.068884 0.400224 -2.290242
v 0.035373 0.400224 -2.219497
v 0.031649 0.400224 -2.118032
v 0.106119 0.400224 -2.086383
v 0.276467 0.400224 -2.088245
v 0.275536 0.400224 -2.049149
v -0.273674 0.400224 -2.047287
v -0.274605 -0.390212 -2.084521
v -0.102395 -0.390212 -2.085452
v -0.038165 -0.390212 -2.121756
v -0.036304 -0.390212 -2.221359
v -0.067022 -0.390212 -2.292104
v -0.174072 -0.390212 -2.221359
v -0.276467 -0.390212 -2.258593
v -0.274605 -0.390212 -2.469899
v 0.002793 -0.390212 -2.655141
v 0.276467 -0.390212 -2.465245
v 0.272743 -0.390212 -2.256731
v 0.168486 -0.390212 -2.221359
v 0.068884 -0.390212 -2.290242
v 0.035373 -0.390212 -2.219497
v 0.031649 -0.390212 -2.118032
v 0.106119 -0.390212 -2.086383
v 0.276467 -0.390212 -2.088245
v 0.275536 -0.390212 -2.049149
v -0.273674 -0.390212 -2.047287
v -0.274605 -0.393654 -2.084521
v -0.102395 -0.393654 -2.085452
v -0.038165 -0.393654 -2.121756
v -0.036304 -0.393654 -2.221359
v -0.067022 -0.393654 -2.292104
v -0.174072 -0.393654 -2.221359
v -0.276467 -0.393654 -2.258593
v -0.274605 -0.393654 -2.469899
v 0.002793 -0.393654 -2.655141
v 0.276467 -0.393654 -2.465245
v 0.272743 -0.393654 -2.256731
v 0.168486 -0.393654 -2.221359
v 0.068884 -0.393654 -2.290242
v 0.035373 -0.393654 -2.219497
v 0.031649 -0.393654 -2.118032
v 0.106119 -0.393654 -2.086383
v 0.276467 -0.393654 -2.088245
v 0.275536 -0.393654 -2.049149
v -0.273674 -0.393654 -2.047287
v -0.396939 0.281333 -2.084521
v -0.396939 0.109123 -2.085452
v -0.396939 0.044893 -2.121756
v -0.396939 0.043032 -2.221359
v -0.396939 0.073750 -2.292104
v -0.396939 0.180799 -2.221359
v -0.396939 0.283195 -2.258593
v -0.396939 0.281333 -2.469899
v -0.396939 0.003935 -2.655141
v -0.396939 -0.269739 -2.465245
v -0.396939 -0.266015 -2.256731
v -0.396939 -0.161759 -2.221359
v -0.396939 -0.062156 -2.290242
v -0.396939 -0.028645 -2.219497
v -0.396939 -0.024922 -2.118032
v -0.396939 -0.099391 -2.086383
v -0.396939 -0.269739 -2.088245
v -0.396939 -0.268808 -2.049149
v -0.396939 0.280402 -2.047287
v -0.400382 0.281333 -2.084521
v -0.400382 0.109123 -2.085452
v -0.400382 0.044893 -2.121756
v -0.400382 0.043032 -2.221359
v -0.400382 0.073750 -2.292104
v -0.400382 0.180799 -2.221359
v -0.400382 0.283195 -2.258593
v -0.400382 0.281333 -2.469899
v -0.400382 0.003935 -2.655141
v -0.400382 -0.269739 -2.465245
v -0.400382 -0.266015 -2.256731
v -0.400382 -0.161759 -2.221359
v -0.400382 -0.062156 -2.290242
v -0.400382 -0.028645 -2.219497
v -0.400382 -0.024922 -2.118032
v -0.400382 -0.099391 -2.086383
v -0.400382 -0.269739 -2.088245
v -0.400382 -0.268808 -2.049149
v -0.400382 0.280402 -2.047287
v 0.396939 0.281333 -2.084521
v 0.396939 0.109123 -2.085452
v 0.396939 0.044893 -2.121756
v 0.396939 0.043031 -2.221359
v 0.396939 0.073750 -2.292104
v 0.396939 0.180799 -2.221359
v 0.396939 0.283194 -2.258593
v 0.396939 0.281333 -2.469899
v 0.396939 0.003935 -2.655141
v 0.396939 -0.269739 -2.465245
v 0.396939 -0.266015 -2.256731
v 0.396939 -0.161759 -2.221359
v 0.396939 -0.062156 -2.290242
v 0.396939 -0.028645 -2.219497
v 0.396939 -0.024922 -2.118032
v 0.396939 -0.099391 -2.086383
v 0.396939 -0.269739 -2.088245
v 0.396939 -0.268808 -2.049149
v 0.396939 0.280402 -2.047287
v 0.393497 0.281333 -2.084521
v 0.393497 0.109123 -2.085452
v 0.393497 0.044893 -2.121756
v 0.393497 0.043031 -2.221359
v 0.393497 0.073750 -2.292104
v 0.393497 0.180799 -2.221359
v 0.393497 0.283194 -2.258593
v 0.393497 0.281333 -2.469899
v 0.393497 0.003935 -2.655141
v 0.393497 -0.269739 -2.465245
v 0.393497 -0.266015 -2.256731
v 0.393497 -0.161759 -2.221359
v 0.393497 -0.062156 -2.290242
v 0.393497 -0.028645 -2.219497
v 0.393497 -0.024922 -2.118032
v 0.393497 -0.099391 -2.086383
v 0.393497 -0.269739 -2.088245
v 0.393497 -0.268808 -2.049149
v 0.393497 0.280402 -2.047287
v 0.396939 0.281333 -3.270334
v 0.396939 0.109123 -3.271265
v 0.396939 0.044893 -3.307569
v 0.396939 0.043031 -3.407171
v 0.396939 0.073750 -3.477917
v 0.396939 0.180799 -3.407171
v 0.396939 0.283194 -3.444406
v 0.396939 0.281333 -3.655712
v 0.396939 0.003935 -3.840954
v 0.396939 -0.269739 -3.651058
v 0.396939 -0.266015 -3.442544
v 0.396939 -0.161759 -3.407171
v 0.396939 -0.062156 -3.476055
v 0.396939 -0.028645 -3.405310
v 0.396939 -0.024922 -3.303845
v 0.396939 -0.099391 -3.272196
v 0.396939 -0.269739 -3.274058
v 0.396939 -0.268808 -3.234962
v 0.396939 0.280402 -3.233100
v 0.393497 0.281333 -3.270334
v 0.393497 0.109123 -3.271265
v 0.393497 0.044893 -3.307569
v 0.393497 0.043031 -3.407171
v 0.393497 0.073750 -3.477917
v 0.393497 0.180799 -3.407171
v 0.393497 0.283194 -3.444406
v 0.393497 0.281333 -3.655712
v 0.393497 0.003935 -3.840954
v 0.393497 -0.269739 -3.651058
v 0.393497 -0.266015 -3.442544
v 0.393497 -0.161759 -3.407171
v 0.393497 -0.062156 -3.476055
v 0.393497 -0.028645 -3.405310
v 0.393497 -0.024922 -3.303845
v 0.393497 -0.099391 -3.272196
v 0.393497 -0.269739 -3.274058
v 0.393497 -0.268808 -3.234962
v 0.393497 0.280402 -3.233100
v -0.396939 0.281333 -3.270334
v -0.396939 0.109123 -3.271265
v -0.396939 0.044893 -3.307569
v -0.396939 0.043032 -3.407171
v -0.396939 0.073750 -3.477917
v -0.396939 0.180799 -3.407171
v -0.396939 0.283195 -3.444406
v -0.396939 0.281333 -3.655712
v -0.396939 0.003935 -3.840954
v -0.396939 -0.269739 -3.651058
v -0.396939 -0.266015 -3.442544
v -0.396939 -0.161759 -3.407171
v -0.396939 -0.062156 -3.476055
v -0.396939 -0.028645 -3.405310
v -0.396939 -0.024922 -3.303845
v -0.396939 -0.099391 -3.272196
v -0.396939 -0.269739 -3.274058
v -0.396939 -0.268808 -3.234962
v -0.396939 0.280402 -3.233100
v -0.400382 0.281333 -3.270334
v -0.400382 0.109123 -3.271265
v -0.400382 0.044893 -3.307569
v -0.400382 0.043032 -3.407171
v -0.400382 0.073750 -3.477917
v -0.400382 0.180799 -3.407171
v -0.400382 0.283195 -3.444406
v -0.400382 0.281333 -3.655712
v -0.400382 0.003935 -3.840954
v -0.400382 -0.269739 -3.651058
v -0.400382 -0.266015 -3.442544
v -0.400382 -0.161759 -3.407171
v -0.400382 -0.062156 -3.476055
v -0.400382 -0.028645 -3.405310
v -0.400382 -0.024922 -3.303845
v -0.400382 -0.099391 -3.272196
v -0.400382 -0.269739 -3.274058
v -0.400382 -0.268808 -3.234962
v -0.400382 0.280402 -3.233100
v -0.274605 -0.390212 -3.270334
v -0.102395 -0.390212 -3.271265
v -0.038165 -0.390212 -3.307569
v -0.036304 -0.390212 -3.407171
v -0.067022 -0.390212 -3.477917
v -0.174072 -0.390212 -3.407171
v -0.276467 -0.390212 -3.444406
v -0.274605 -0.390212 -3.655712
v 0.002793 -0.390212 -3.840954
v 0.276467 -0.390212 -3.651058
v 0.272743 -0.390212 -3.442544
v 0.168486 -0.390212 -3.407171
v 0.068884 -0.390212 -3.476055
v 0.035373 -0.390212 -3.405310
v 0.031649 -0.390212 -3.303845
v 0.106119 -0.390212 -3.272196
v 0.276467 -0.390212 -3.274058
v 0.275536 -0.390212 -3.234962
v -0.273674 -0.390212 -3.233100
v -0.274605 -0.393654 -3.270334
v -0.102395 -0.393654 -3.271265
v -0.038165 -0.393654 -3.307569
v -0.036304 -0.393654 -3.407171
v -0.067022 -0.393654 -3.477917
v -0.174072 -0.393654 -3.407171
v -0.276467 -0.393654 -3.444406
v -0.274605 -0.393654 -3.655712
v 0.002793 -0.393654 -3.840954
v 0.276467 -0.393654 -3.651058
v 0.272743 -0.393654 -3.442544
v 0.168486 -0.393654 -3.407171
v 0.068884 -0.393654 -3.476055
v 0.035373 -0.393654 -3.405310
v 0.031649 -0.393654 -3.303845
v 0.106119 -0.393654 -3.272196
v 0.276467 -0.393654 -3.274058
v 0.275536 -0.393654 -3.234962
v -0.273674 -0.393654 -3.233100
v -0.274605 0.403667 -3.270334
v -0.102395 0.403667 -3.271265
v -0.038165 0.403667 -3.307569
v -0.036304 0.403667 -3.407171
v -0.067022 0.403667 -3.477917
v -0.174072 0.403667 -3.407171
v -0.276467 0.403667 -3.444406
v -0.274605 0.403667 -3.655712
v 0.002793 0.403667 -3.840954
v 0.276467 0.403667 -3.651058
v 0.272743 0.403667 -3.442544
v 0.168486 0.403667 -3.407171
v 0.068884 0.403667 -3.476055
v 0.035373 0.403667 -3.405310
v 0.031649 0.403667 -3.303845
v 0.106119 0.403667 -3.272196
v 0.276467 0.403667 -3.274058
v 0.275536 0.403667 -3.234962
v -0.273674 0.403667 -3.233100
v -0.274605 0.400224 -3.270334
v -0.102395 0.400224 -3.271265
v -0.038165 0.400224 -3.307569
v -0.036304 0.400224 -3.407171
v -0.067022 0.400224 -3.477917
v -0.174072 0.400224 -3.407171
v -0.276467 0.400224 -3.444406
v -0.274605 0.400224 -3.655712
v 0.002793 0.400224 -3.840954
v 0.276467 0.400224 -3.651058
v 0.272743 0.400224 -3.442544
v 0.168486 0.400224 -3.407171
v 0.068884 0.400224 -3.476055
v 0.035373 0.400224 -3.405310
v 0.031649 0.400224 -3.303845
v 0.106119 0.400224 -3.272196
v 0.276467 0.400224 -3.274058
v 0.275536 0.400224 -3.234962
v -0.273674 0.400224 -3.233100
vt 0.625000 0.500000
vt 0.375000 0.500000
vt 0.375000 0.500000
vt 0.125000 0.500000
vt 0.375000 0.500000
vt 0.375000 0.500000
vt 0.875000 0.500000
vt 0.625000 0.500000
vt 0.625000 0.250000
vt 0.375000 0.250000
vt 0.375000 0.250000
vt 0.625000 0.250000
vt 0.375000 0.250000
vt 0.375000 0.250000
vt 0.375000 0.500000
vt 0.125000 0.500000
vt 0.125000 0.500000
vt 0.375000 0.250000
vt 0.625000 0.250000
vt 0.625000 0.250000
vt 0.375000 0.500000
vt 0.625000 0.500000
vt 0.625000 0.500000
vt 0.625000 0.250000
vt 0.375000 0.250000
vt 0.375000 0.500000
vt 0.625000 0.500000
vt 0.125000 0.500000
vt 0.375000 0.500000
vt 0.875000 0.500000
vt 0.875000 0.500000
vt 0.875000 0.500000
vt 0.625000 0.500000
vt 0.125000 0.500000
vt 0.875000 0.500000
vt 0.625000 0.250000
vt 0.375000 0.250000
vt 0.125000 0.500000
vt 0.625000 0.500000
vt 0.875000 0.500000
vt 0.875000 0.500000
vt 0.625000 0.500000
vt 0.875000 0.500000
vt 0.375000 0.250000
vt 0.625000 0.250000
vt 0.625000 0.250000
vt 0.125000 0.500000
vt 0.125000 0.500000
vt 0.625000 0.250000
vt 0.375000 0.250000
vt 0.375000 0.250000
vt 0.625000 0.500000
vt 0.875000 0.500000
vt 0.875000 0.500000
vt 0.875000 0.500000
vt 0.625000 0.500000
vt 0.625000 0.500000
vt 0.375000 0.250000
vt 0.625000 0.250000
vt 0.625000 0.250000
vt 0.375000 0.500000
vt 0.625000 0.500000
vt 0.875000 0.500000
vt 0.125000 0.500000
vt 0.375000 0.500000
vt 0.625000 0.250000
vt 0.375000 0.250000
vt 0.375000 0.500000
vt 0.125000 0.500000
vt 0.125000 0.500000
vt 0.375000 0.500000
vt 0.125000 0.500000
vt 0.125000 0.500000
vt 0.375000 0.500000
vt 0.375000 0.500000
vt 0.625000 0.500000
vt 0.375000 0.500000
vt 0.375000 0.500000
vt 0.625000 0.500000
vt 0.625000 0.500000
vt 0.125000 0.500000
vt 0.125000 0.500000
vt 0.375000 0.500000
vt 0.625000 0.500000
vt 0.625000 0.500000
vt 0.375000 0.500000
vt 0.125000 0.500000
vt 0.125000 0.500000
vt 0.625000 0.250000
vt 0.375000 0.250000
vt 0.375000 0.250000
vt 0.875000 0.500000
vt 0.875000 0.500000
vt 0.125000 0.500000
vt 0.375000 0.500000
vt 0.375000 0.500000
vt 0.875000 0.500000
vt 0.625000 0.500000
vt 0.625000 0.500000
vt 0.625000 0.250000
vt 0.375000 0.250000
vt 0.375000 0.250000
vt 0.375000 0.250000
vt 0.625000 0.250000
vt 0.625000 0.250000
vt 0.625000 0.500000
vt 0.875000 0.500000
vt 0.875000 0.500000
vt 0.125000 0.500000
vt 0.625000 0.250000
vt 0.375000 0.250000
vt 0.375000 0.250000
vt 0.375000 0.250000
vt 0.625000 0.250000
vt 0.625000 0.250000
vt 0.875000 0.500000
vt 0.875000 0.500000
vt 0.625000 0.250000
vt 0.375000 0.250000
vt 0.375000 0.500000
vt 0.625000 0.500000
vt 0.875000 0.500000
vt 0.125000 0.500000
vt 0.375000 0.500000
vt 0.625000 0.250000
vt 0.375000 0.250000
vt 0.625000 0.500000
vt 0.125000 0.500000
vt 0.375000 0.250000
vt 0.625000 0.250000
vt 0.625000 0.250000
vt 0.875000 0.500000
vt 0.625000 0.500000
vt 0.875000 0.500000
vt 0.875000 0.500000
vt 0.125000 0.500000
vt 0.375000 0.500000
vt 0.625000 0.250000
vt 0.375000 0.250000
vt 0.625000 0.500000
vt 0.875000 0.500000
vt 0.375000 0.500000
vt 0.125000 0.500000
vt 0.125000 0.500000
vt 0.351294 0.099170
vt 0.900155 0.046447
vt 0.654114 0.100521
vt 0.654114 0.100521
vt 0.900155 0.046447
vt 0.351294 0.099170
vt 0.101197 0.097818
vt 0.101197 0.097818
vt 0.444573 0.151893
vt 0.447277 0.296543
vt 0.444573 0.151893
vt 0.402665 0.399285
vt 0.447277 0.296543
vt 0.247200 0.296543
vt 0.402665 0.399285
vt 0.098494 0.350618
vt 0.247200 0.296543
vt 0.101197 0.657493
vt 0.098494 0.350618
vt 0.504056 0.926516
vt 0.101197 0.657493
vt 0.901506 0.650734
vt 0.504056 0.926516
vt 0.896099 0.347914
vt 0.901506 0.650734
vt 0.744689 0.296543
vt 0.896099 0.347914
vt 0.600039 0.396582
vt 0.744689 0.296543
vt 0.551371 0.293839
vt 0.600039 0.396582
vt 0.545964 0.146485
vt 0.551371 0.293839
vt 0.545964 0.146485
vt 0.901506 0.103225
vt 0.901506 0.103225
vt 0.102549 0.043743
vt 0.102549 0.043743
vt 0.351294 0.099170
vt 0.900155 0.046447
vt 0.654114 0.100521
vt 0.654114 0.100521
vt 0.900155 0.046447
vt 0.351294 0.099170
vt 0.101197 0.097818
vt 0.101197 0.097818
vt 0.444573 0.151893
vt 0.447277 0.296543
vt 0.444573 0.151893
vt 0.402665 0.399285
vt 0.447277 0.296543
vt 0.247200 0.296543
vt 0.402665 0.399285
vt 0.098494 0.350618
vt 0.247200 0.296543
vt 0.101197 0.657493
vt 0.098494 0.350618
vt 0.504056 0.926516
vt 0.101197 0.657493
vt 0.901506 0.650734
vt 0.504056 0.926516
vt 0.896099 0.347914
vt 0.901506 0.650734
vt 0.744689 0.296543
vt 0.896099 0.347914
vt 0.600039 0.396582
vt 0.744689 0.296543
vt 0.551371 0.293839
vt 0.600039 0.396582
vt 0.545964 0.146485
vt 0.551371 0.293839
vt 0.545964 0.146485
vt 0.901506 0.103225
vt 0.901506 0.103225
vt 0.102549 0.043743
vt 0.102549 0.043743
vt 0.351294 0.099170
vt 0.900155 0.046447
vt 0.654114 0.100521
vt 0.654114 0.100521
vt 0.900155 0.046447
vt 0.351294 0.099170
vt 0.101197 0.097818
vt 0.101197 0.097818
vt 0.444573 0.151893
vt 0.447277 0.296543
vt 0.444573 0.151893
vt 0.402665 0.399285
vt 0.447277 0.296543
vt 0.247200 0.296543
vt 0.402665 0.399285
vt 0.098494 0.350618
vt 0.247200 0.296543
vt 0.101197 0.657493
vt 0.098494 0.350618
vt 0.504056 0.926516
vt 0.101197 0.657493
vt 0.901506 0.650734
vt 0.504056 0.926516
vt 0.896099 0.347914
vt 0.901506 0.650734
vt 0.744689 0.296543
vt 0.896099 0.347914
vt 0.600039 0.396582
vt 0.744689 0.296543
vt 0.551371 0.293839
vt 0.600039 0.396582
vt 0.545964 0.146485
vt 0.551371 0.293839
vt 0.545964 0.146485
vt 0.901506 0.103225
vt 0.901506 0.103225
vt 0.102549 0.043743
vt 0.102549 0.043743
vt 0.351294 0.099170
vt 0.900155 0.046447
vt 0.654114 0.100521
vt 0.654114 0.100521
vt 0.900155 0.046447
vt 0.351294 0.099170
vt 0.101197 0.097818
vt 0.101197 0.097818
vt 0.444573 0.151893
vt 0.447277 0.296543
vt 0.444573 0.151893
vt 0.402665 0.399285
vt 0.447277 0.296543
vt 0.247200 0.296543
vt 0.402665 0.399285
vt 0.098494 0.350618
vt 0.247200 0.296543
vt 0.101197 0.657493
vt 0.098494 0.350618
vt 0.504056 0.926516
vt 0.101197 0.657493
vt 0.901506 0.650734
vt 0.504056 0.926516
vt 0.896099 0.347914
vt 0.901506 0.650734
vt 0.744689 0.296543
vt 0.896099 0.347914
vt 0.600039 0.396582
vt 0.744689 0.296543
vt 0.551371 0.293839
vt 0.600039 0.396582
vt 0.545964 0.146485
vt 0.551371 0.293839
vt 0.545964 0.146485
vt 0.901506 0.103225
vt 0.901506 0.103225
vt 0.102549 0.043743
vt 0.102549 0.043743
vt 0.351294 0.099170
vt 0.900155 0.046447
vt 0.654114 0.100521
vt 0.654114 0.100521
vt 0.900155 0.046447
vt 0.351294 0.099170
vt 0.101197 0.097818
vt 0.101197 0.097818
vt 0.444573 0.151893
vt 0.447277 0.296543
vt 0.444573 0.151893
vt 0.402665 0.399285
vt 0.447277 0.296543
vt 0.247200 0.296543
vt 0.402665 0.399285
vt 0.098494 0.350618
vt 0.247200 0.296543
vt 0.101197 0.657493
vt 0.098494 0.350618
vt 0.504056 0.926516
vt 0.101197 0.657493
vt 0.901506 0.650734
vt 0.504056 0.926516
vt 0.896099 0.347914
vt 0.901506 0.650734
vt 0.744689 0.296543
vt 0.896099 0.347914
vt 0.600039 0.396582
vt 0.744689 0.296543
vt 0.551371 0.293839
vt 0.600039 0.396582
vt 0.545964 0.146485
vt 0.551371 0.293839
vt 0.545964 0.146485
vt 0.901506 0.103225
vt 0.901506 0.103225
vt 0.102549 0.043743
vt 0.102549 0.043743
vt 0.351294 0.099170
vt 0.900155 0.046447
vt 0.654114 0.100521
vt 0.654114 0.100521
vt 0.900155 0.046447
vt 0.351294 0.099170
vt 0.101197 0.097818
vt 0.101197 0.097818
vt 0.444573 0.151893
vt 0.447277 0.296543
vt 0.444573 0.151893
vt 0.402665 0.399285
vt 0.447277 0.296543
vt 0.247200 0.296543
vt 0.402665 0.399285
vt 0.098494 0.350618
vt 0.247200 0.296543
vt 0.101197 0.657493
vt 0.098494 0.350618
vt 0.504056 0.926516
vt 0.101197 0.657493
vt 0.901506 0.650734
vt 0.504056 0.926516
vt 0.896099 0.347914
vt 0.901506 0.650734
vt 0.744689 0.296543
vt 0.896099 0.347914
vt 0.600039 0.396582
vt 0.744689 0.296543
vt 0.551371 0.293839
vt 0.600039 0.396582
vt 0.545964 0.146485
vt 0.551371 0.293839
vt 0.545964 0.146485
vt 0.901506 0.103225
vt 0.901506 0.103225
vt 0.102549 0.043743
vt 0.102549 0.043743
vt 0.351294 0.099170
vt 0.900155 0.046447
vt 0.654114 0.100521
vt 0.654114 0.100521
vt 0.900155 0.046447
vt 0.351294 0.099170
vt 0.101197 0.097818
vt 0.101197 0.097818
vt 0.444573 0.151893
vt 0.447277 0.296543
vt 0.444573 0.151893
vt 0.402665 0.399285
vt 0.447277 0.296543
vt 0.247200 0.296543
vt 0.402665 0.399285
vt 0.098494 0.350618
vt 0.247200 0.296543
vt 0.101197 0.657493
vt 0.098494 0.350618
vt 0.504056 0.926516
vt 0.101197 0.657493
vt 0.901506 0.650734
vt 0.504056 0.926516
vt 0.896099 0.347914
vt 0.901506 0.650734
vt 0.744689 0.296543
vt 0.896099 0.347914
vt 0.600039 0.396582
vt 0.744689 0.296543
vt 0.551371 0.293839
vt 0.600039 0.396582
vt 0.545964 0.146485
vt 0.551371 0.293839
vt 0.545964 0.146485
vt 0.901506 0.103225
vt 0.901506 0.103225
vt 0.102549 0.043743
vt 0.102549 0.043743
vt 0.351294 0.099170
vt 0.900155 0.046447
vt 0.654114 0.100521
vt 0.654114 0.100521
vt 0.900155 0.046447
vt 0.351294 0.099170
vt 0.101197 0.097818
vt 0.101197 0.097818
vt 0.444573 0.151893
vt 0.447277 0.296543
vt 0.444573 0.151893
vt 0.402665 0.399285
vt 0.447277 0.296543
vt 0.247200 0.296543
vt 0.402665 0.399285
vt 0.098494 0.350618
vt 0.247200 0.296543
vt 0.101197 0.657493
vt 0.098494 0.350618
vt 0.504056 0.926516
vt 0.101197 0.657493
vt 0.901506 0.650734
vt 0.504056 0.926516
vt 0.896099 0.347914
vt 0.901506 0.650734
vt 0.744689 0.296543
vt 0.896099 0.347914
vt 0.600039 0.396582
vt 0.744689 0.296543
vt 0.551371 0.293839
vt 0.600039 0.396582
vt 0.545964 0.146485
vt 0.551371 0.293839
vt 0.545964 0.146485
vt 0.901506 0.103225
vt 0.901506 0.103225
vt 0.102549 0.043743
vt 0.102549 0.043743
vn 0.0000 0.0000 -1.0000
vn 0.0000 0.0000 1.0000
vn -1.0000 0.0000 0.0000
vn 1.0000 0.0000 0.0000
vn 0.0000 -1.0000 0.0000
vn 0.0000 1.0000 0.0000
vn -0.0054 0.0000 -1.0000
vn -0.4921 0.0000 -0.8706
vn -0.9998 0.0000 -0.0187
vn -0.9173 0.0000 0.3983
vn 0.5514 0.0000 0.8343
vn -0.3418 0.0000 0.9398
vn -1.0000 0.0000 -0.0088
vn -0.5553 0.0000 -0.8316
vn 0.5701 0.0000 -0.8216
vn 0.9998 0.0000 0.0179
vn 0.3213 0.0000 0.9470
vn -0.5688 0.0000 0.8225
vn 0.9037 0.0000 0.4281
vn 0.9993 0.0000 0.0367
vn 0.3912 0.0000 -0.9203
vn -0.0109 0.0000 -0.9999
vn 0.9997 0.0000 0.0238
vn 0.0034 0.0000 1.0000
vn -0.9997 0.0000 0.0250
vn -0.4920 0.0000 -0.8706
vn 0.5513 0.0000 0.8343
vn -0.3417 0.0000 0.9398
vn 0.3911 0.0000 -0.9203
vn 0.0000 0.0054 -1.0000
vn 0.0000 0.4921 -0.8706
vn 0.0000 0.9998 -0.0187
vn 0.0000 0.9173 0.3983
vn 0.0000 -0.5513 0.8343
vn 0.0000 0.3417 0.9398
vn 0.0000 1.0000 -0.0088
vn 0.0000 0.5553 -0.8316
vn 0.0000 -0.5701 -0.8216
vn 0.0000 -0.9998 0.0179
vn 0.0000 -0.3213 0.9470
vn 0.0000 0.5688 0.8225
vn 0.0000 -0.9037 0.4281
vn 0.0000 -0.9993 0.0367
vn 0.0000 -0.3911 -0.9203
vn 0.0000 0.0109 -0.9999
vn 0.0000 -0.9997 0.0238
vn 0.0000 -0.0034 1.0000
vn 0.0000 0.9997 0.0250
usemtl Material.001
s off
f 9/1/1 34/2/1 10/3/1
f 8/4/2 30/5/2 6/6/2
f 11/7/1 33/8/1 9/1/1
f 7/9/2 32/10/2 8/11/2
f 15/12/2 24/13/2 16/14/2
f 18/15/1 28/16/1 20/17/1
f 20/18/1 27/19/1 19/20/1
f 14/21/2 23/22/2 13/23/2
f 21/24/3 28/25/3 24/13/3
f 22/26/4 25/27/4 23/22/4
f 24/28/5 26/29/5 22/26/5
f 23/22/6 27/30/6 21/31/6
f 19/32/1 25/27/1 17/33/1
f 16/34/2 22/26/2 14/21/2
f 17/33/1 26/29/1 18/15/1
f 13/23/2 21/31/2 15/35/2
f 31/36/3 36/37/3 32/10/3
f 32/38/5 34/2/5 30/5/5
f 29/39/6 35/40/6 31/41/6
f 30/5/4 33/8/4 29/39/4
f 5/42/2 31/41/2 7/43/2
f 6/6/2 29/39/2 5/42/2
f 12/44/1 35/45/1 11/46/1
f 10/3/1 36/47/1 12/48/1
f 43/49/2 49/50/2 41/51/2
f 44/52/2 51/53/2 43/54/2
f 37/55/1 48/56/1 40/57/1
f 38/58/1 45/59/1 37/60/1
f 50/61/4 48/56/4 52/62/4
f 52/62/6 45/63/6 51/53/6
f 49/64/5 47/65/5 50/61/5
f 51/66/3 46/67/3 49/50/3
f 39/68/1 46/69/1 38/70/1
f 42/71/2 52/62/2 44/52/2
f 40/57/1 47/65/1 39/68/1
f 41/72/2 50/61/2 42/71/2
f 57/73/2 78/74/2 58/75/2
f 56/76/1 74/77/1 54/78/1
f 58/75/2 80/79/2 60/80/2
f 54/78/1 73/81/1 53/82/1
f 66/83/2 88/84/2 68/85/2
f 62/86/1 81/87/1 61/88/1
f 67/89/2 85/90/2 65/91/2
f 68/85/2 87/92/2 67/93/2
f 4/94/2 90/95/2 2/96/2
f 71/97/1 96/98/1 72/99/1
f 3/100/2 92/101/2 4/102/2
f 69/103/1 95/104/1 71/105/1
f 78/74/4 76/106/4 80/79/4
f 80/79/6 75/107/6 79/108/6
f 77/109/5 74/77/5 78/74/5
f 79/110/3 73/111/3 77/112/3
f 53/113/1 75/114/1 55/115/1
f 55/116/1 76/106/1 56/76/1
f 60/80/2 79/108/2 59/117/2
f 59/118/2 77/112/2 57/119/2
f 86/120/4 84/121/4 88/84/4
f 88/84/6 83/122/6 87/92/6
f 85/123/5 82/124/5 86/120/5
f 87/125/3 81/126/3 85/90/3
f 64/127/1 82/124/1 62/86/1
f 65/128/2 86/120/2 66/83/2
f 61/129/1 83/130/1 63/131/1
f 63/132/1 84/121/1 64/127/1
f 90/95/4 96/98/4 89/133/4
f 89/133/6 95/134/6 91/135/6
f 92/136/5 94/137/5 90/95/5
f 91/138/3 93/139/3 92/101/3
f 1/140/2 91/135/2 3/141/2
f 70/142/1 93/143/1 69/144/1
f 72/99/1 94/137/1 70/142/1
f 2/96/2 89/133/2 1/140/2
f 98/145/6 114/146/6 112/147/6
f 131/148/5 133/149/5 117/150/5
f 98/145/7 116/151/7 97/152/7
f 99/153/8 117/150/8 98/145/8
f 100/154/9 118/155/9 99/153/9
f 101/156/10 119/157/10 100/154/10
f 102/158/11 120/159/11 101/156/11
f 103/160/12 121/161/12 102/158/12
f 104/162/13 122/163/13 103/160/13
f 105/164/14 123/165/14 104/162/14
f 106/166/15 124/167/15 105/164/15
f 107/168/16 125/169/16 106/166/16
f 108/170/17 126/171/17 107/168/17
f 109/172/18 127/173/18 108/170/18
f 110/174/19 128/175/19 109/172/19
f 111/176/20 129/177/20 110/174/20
f 112/147/21 130/178/21 111/176/21
f 113/179/22 131/148/22 112/147/22
f 114/146/23 132/180/23 113/179/23
f 115/181/24 133/149/24 114/146/24
f 97/152/25 134/182/25 115/181/25
f 9/1/1 33/8/1 34/2/1
f 8/4/2 32/38/2 30/5/2
f 11/7/1 35/40/1 33/8/1
f 7/9/2 31/36/2 32/10/2
f 15/12/2 21/24/2 24/13/2
f 18/15/1 26/29/1 28/16/1
f 20/18/1 28/25/1 27/19/1
f 14/21/2 22/26/2 23/22/2
f 21/24/3 27/19/3 28/25/3
f 22/26/4 26/29/4 25/27/4
f 24/28/5 28/16/5 26/29/5
f 23/22/6 25/27/6 27/30/6
f 19/32/1 27/30/1 25/27/1
f 16/34/2 24/28/2 22/26/2
f 17/33/1 25/27/1 26/29/1
f 13/23/2 23/22/2 21/31/2
f 31/36/3 35/45/3 36/37/3
f 32/38/5 36/47/5 34/2/5
f 29/39/6 33/8/6 35/40/6
f 30/5/4 34/2/4 33/8/4
f 5/42/2 29/39/2 31/41/2
f 6/6/2 30/5/2 29/39/2
f 12/44/1 36/37/1 35/45/1
f 10/3/1 34/2/1 36/47/1
f 43/49/2 51/66/2 49/50/2
f 44/52/2 52/62/2 51/53/2
f 37/55/1 45/63/1 48/56/1
f 38/58/1 46/67/1 45/59/1
f 50/61/4 47/65/4 48/56/4
f 52/62/6 48/56/6 45/63/6
f 49/64/5 46/69/5 47/65/5
f 51/66/3 45/59/3 46/67/3
f 39/68/1 47/65/1 46/69/1
f 42/71/2 50/61/2 52/62/2
f 40/57/1 48/56/1 47/65/1
f 41/72/2 49/64/2 50/61/2
f 57/73/2 77/109/2 78/74/2
f 56/76/1 76/106/1 74/77/1
f 58/75/2 78/74/2 80/79/2
f 54/78/1 74/77/1 73/81/1
f 66/83/2 86/120/2 88/84/2
f 62/86/1 82/124/1 81/87/1
f 67/89/2 87/125/2 85/90/2
f 68/85/2 88/84/2 87/92/2
f 4/94/2 92/136/2 90/95/2
f 71/97/1 95/134/1 96/98/1
f 3/100/2 91/138/2 92/101/2
f 69/103/1 93/139/1 95/104/1
f 78/74/4 74/77/4 76/106/4
f 80/79/6 76/106/6 75/107/6
f 77/109/5 73/81/5 74/77/5
f 79/110/3 75/114/3 73/111/3
f 53/113/1 73/111/1 75/114/1
f 55/116/1 75/107/1 76/106/1
f 60/80/2 80/79/2 79/108/2
f 59/118/2 79/110/2 77/112/2
f 86/120/4 82/124/4 84/121/4
f 88/84/6 84/121/6 83/122/6
f 85/123/5 81/87/5 82/124/5
f 87/125/3 83/130/3 81/126/3
f 64/127/1 84/121/1 82/124/1
f 65/128/2 85/123/2 86/120/2
f 61/129/1 81/126/1 83/130/1
f 63/132/1 83/122/1 84/121/1
f 90/95/4 94/137/4 96/98/4
f 89/133/6 96/98/6 95/134/6
f 92/136/5 93/143/5 94/137/5
f 91/138/3 95/104/3 93/139/3
f 1/140/2 89/133/2 91/135/2
f 70/142/1 94/137/1 93/143/1
f 72/99/1 96/98/1 94/137/1
f 2/96/2 90/95/2 89/133/2
f 104/162/6 103/160/6 101/156/6
f 103/160/6 102/158/6 101/156/6
f 106/166/6 105/164/6 109/172/6
f 105/164/6 104/162/6 101/156/6
f 108/170/6 107/168/6 109/172/6
f 107/168/6 106/166/6 109/172/6
f 105/164/6 101/156/6 109/172/6
f 101/156/6 100/154/6 109/172/6
f 109/172/6 100/154/6 110/174/6
f 100/154/6 99/153/6 110/174/6
f 98/145/6 97/152/6 115/181/6
f 111/176/6 110/174/6 99/153/6
f 98/145/6 115/181/6 114/146/6
f 111/176/6 99/153/6 98/145/6
f 114/146/6 113/179/6 112/147/6
f 112/147/6 111/176/6 98/145/6
f 121/161/5 122/163/5 120/159/5
f 122/163/5 123/165/5 120/159/5
f 123/165/5 124/167/5 120/159/5
f 124/167/5 125/169/5 128/175/5
f 120/159/5 124/167/5 128/175/5
f 125/169/5 126/171/5 128/175/5
f 126/171/5 127/173/5 128/175/5
f 119/157/5 120/159/5 128/175/5
f 119/157/5 128/175/5 129/177/5
f 118/155/5 119/157/5 129/177/5
f 118/155/5 129/177/5 130/178/5
f 134/182/5 116/151/5 117/150/5
f 117/150/5 118/155/5 130/178/5
f 131/148/5 132/180/5 133/149/5
f 117/150/5 130/178/5 131/148/5
f 133/149/5 134/182/5 117/150/5
f 98/145/7 117/150/7 116/151/7
f 99/153/26 118/155/26 117/150/26
f 100/154/9 119/157/9 118/155/9
f 101/156/10 120/159/10 119/157/10
f 102/158/27 121/161/27 120/159/27
f 103/160/28 122/163/28 121/161/28
f 104/162/13 123/165/13 122/163/13
f 105/164/14 124/167/14 123/165/14
f 106/166/15 125/169/15 124/167/15
f 107/168/16 126/171/16 125/169/16
f 108/170/17 127/173/17 126/171/17
f 109/172/18 128/175/18 127/173/18
f 110/174/19 129/177/19 128/175/19
f 111/176/20 130/178/20 129/177/20
f 112/147/29 131/148/29 130/178/29
f 113/179/22 132/180/22 131/148/22
f 114/146/23 133/149/23 132/180/23
f 115/181/24 134/182/24 133/149/24
f 97/152/25 116/151/25 134/182/25
usemtl Material.002
f 136/183/6 152/184/6 150/185/6
f 169/186/5 171/187/5 155/188/5
f 136/183/7 154/189/7 135/190/7
f 137/191/8 155/188/8 136/183/8
f 138/192/9 156/193/9 137/191/9
f 139/194/10 157/195/10 138/192/10
f 140/196/11 158/197/11 139/194/11
f 141/198/28 159/199/28 140/196/28
f 142/200/13 160/201/13 141/198/13
f 143/202/14 161/203/14 142/200/14
f 144/204/15 162/205/15 143/202/15
f 145/206/16 163/207/16 144/204/16
f 146/208/17 164/209/17 145/206/17
f 147/210/18 165/211/18 146/208/18
f 148/212/19 166/213/19 147/210/19
f 149/214/20 167/215/20 148/212/20
f 150/185/29 168/216/29 149/214/29
f 151/217/22 169/186/22 150/185/22
f 152/184/23 170/218/23 151/217/23
f 153/219/24 171/187/24 152/184/24
f 135/190/25 172/220/25 153/219/25
f 142/200/6 141/198/6 139/194/6
f 141/198/6 140/196/6 139/194/6
f 144/204/6 143/202/6 147/210/6
f 143/202/6 142/200/6 139/194/6
f 146/208/6 145/206/6 147/210/6
f 145/206/6 144/204/6 147/210/6
f 143/202/6 139/194/6 147/210/6
f 139/194/6 138/192/6 147/210/6
f 147/210/6 138/192/6 148/212/6
f 138/192/6 137/191/6 148/212/6
f 136/183/6 135/190/6 153/219/6
f 149/214/6 148/212/6 137/191/6
f 136/183/6 153/219/6 152/184/6
f 149/214/6 137/191/6 136/183/6
f 152/184/6 151/217/6 150/185/6
f 150/185/6 149/214/6 136/183/6
f 159/199/5 160/201/5 158/197/5
f 160/201/5 161/203/5 158/197/5
f 161/203/5 162/205/5 158/197/5
f 162/205/5 163/207/5 166/213/5
f 158/197/5 162/205/5 166/213/5
f 163/207/5 164/209/5 166/213/5
f 164/209/5 165/211/5 166/213/5
f 157/195/5 158/197/5 166/213/5
f 157/195/5 166/213/5 167/215/5
f 156/193/5 157/195/5 167/215/5
f 156/193/5 167/215/5 168/216/5
f 172/220/5 154/189/5 155/188/5
f 155/188/5 156/193/5 168/216/5
f 169/186/5 170/218/5 171/187/5
f 155/188/5 168/216/5 169/186/5
f 171/187/5 172/220/5 155/188/5
f 136/183/7 155/188/7 154/189/7
f 137/191/26 156/193/26 155/188/26
f 138/192/9 157/195/9 156/193/9
f 139/194/10 158/197/10 157/195/10
f 140/196/27 159/199/27 158/197/27
f 141/198/28 160/201/28 159/199/28
f 142/200/13 161/203/13 160/201/13
f 143/202/14 162/205/14 161/203/14
f 144/204/15 163/207/15 162/205/15
f 145/206/16 164/209/16 163/207/16
f 146/208/17 165/211/17 164/209/17
f 147/210/18 166/213/18 165/211/18
f 148/212/19 167/215/19 166/213/19
f 149/214/20 168/216/20 167/215/20
f 150/185/29 169/186/29 168/216/29
f 151/217/22 170/218/22 169/186/22
f 152/184/23 171/187/23 170/218/23
f 153/219/24 172/220/24 171/187/24
f 135/190/25 154/189/25 172/220/25
usemtl Material.003
f 174/221/4 190/222/4 188/223/4
f 207/224/3 209/225/3 193/226/3
f 174/221/30 192/227/30 173/228/30
f 175/229/31 193/226/31 174/221/31
f 176/230/32 194/231/32 175/229/32
f 177/232/33 195/233/33 176/230/33
f 178/234/34 196/235/34 177/232/34
f 179/236/35 197/237/35 178/234/35
f 180/238/36 198/239/36 179/236/36
f 181/240/37 199/241/37 180/238/37
f 182/242/38 200/243/38 181/240/38
f 183/244/39 201/245/39 182/242/39
f 184/246/40 202/247/40 183/244/40
f 185/248/41 203/249/41 184/246/41
f 186/250/42 204/251/42 185/248/42
f 187/252/43 205/253/43 186/250/43
f 188/223/44 206/254/44 187/252/44
f 189/255/45 207/224/45 188/223/45
f 190/222/46 208/256/46 189/255/46
f 191/257/47 209/225/47 190/222/47
f 173/228/48 210/258/48 191/257/48
f 180/238/4 179/236/4 177/232/4
f 179/236/4 178/234/4 177/232/4
f 182/242/4 181/240/4 185/248/4
f 181/240/4 180/238/4 177/232/4
f 184/246/4 183/244/4 185/248/4
f 183/244/4 182/242/4 185/248/4
f 181/240/4 177/232/4 185/248/4
f 177/232/4 176/230/4 185/248/4
f 185/248/4 176/230/4 186/250/4
f 176/230/4 175/229/4 186/250/4
f 174/221/4 173/228/4 191/257/4
f 187/252/4 186/250/4 175/229/4
f 174/221/4 191/257/4 190/222/4
f 187/252/4 175/229/4 174/221/4
f 190/222/4 189/255/4 188/223/4
f 188/223/4 187/252/4 174/221/4
f 197/237/3 198/239/3 196/235/3
f 198/239/3 199/241/3 196/235/3
f 199/241/3 200/243/3 196/235/3
f 200/243/3 201/245/3 204/251/3
f 196/235/3 200/243/3 204/251/3
f 201/245/3 202/247/3 204/251/3
f 202/247/3 203/249/3 204/251/3
f 195/233/3 196/235/3 204/251/3
f 195/233/3 204/251/3 205/253/3
f 194/231/3 195/233/3 205/253/3
f 194/231/3 205/253/3 206/254/3
f 210/258/3 192/227/3 193/226/3
f 193/226/3 194/231/3 206/254/3
f 207/224/3 208/256/3 209/225/3
f 193/226/3 206/254/3 207/224/3
f 209/225/3 210/258/3 193/226/3
f 174/221/30 193/226/30 192/227/30
f 175/229/31 194/231/31 193/226/31
f 176/230/32 195/233/32 194/231/32
f 177/232/33 196/235/33 195/233/33
f 178/234/34 197/237/34 196/235/34
f 179/236/35 198/239/35 197/237/35
f 180/238/36 199/241/36 198/239/36
f 181/240/37 200/243/37 199/241/37
f 182/242/38 201/245/38 200/243/38
f 183/244/39 202/247/39 201/245/39
f 184/246/40 203/249/40 202/247/40
f 185/248/41 204/251/41 203/249/41
f 186/250/42 205/253/42 204/251/42
f 187/252/43 206/254/43 205/253/43
f 188/223/44 207/224/44 206/254/44
f 189/255/45 208/256/45 207/224/45
f 190/222/46 209/225/46 208/256/46
f 191/257/47 210/258/47 209/225/47
f 173/228/48 192/227/48 210/258/48
usemtl Material.004
f 212/259/4 228/260/4 226/261/4
f 245/262/3 247/263/3 231/264/3
f 212/259/30 230/265/30 211/266/30
f 213/267/31 231/264/31 212/259/31
f 214/268/32 232/269/32 213/267/32
f 215/270/33 233/271/33 214/268/33
f 216/272/34 234/273/34 215/270/34
f 217/274/35 235/275/35 216/272/35
f 218/276/36 236/277/36 217/274/36
f 219/278/37 237/279/37 218/276/37
f 220/280/38 238/281/38 219/278/38
f 221/282/39 239/283/39 220/280/39
f 222/284/40 240/285/40 221/282/40
f 223/286/41 241/287/41 222/284/41
f 224/288/42 242/289/42 223/286/42
f 225/290/43 243/291/43 224/288/43
f 226/261/44 244/292/44 225/290/44
f 227/293/45 245/262/45 226/261/45
f 228/260/46 246/294/46 227/293/46
f 229/295/47 247/263/47 228/260/47
f 211/266/48 248/296/48 229/295/48
f 218/276/4 217/274/4 215/270/4
f 217/274/4 216/272/4 215/270/4
f 220/280/4 219/278/4 223/286/4
f 219/278/4 218/276/4 215/270/4
f 222/284/4 221/282/4 223/286/4
f 221/282/4 220/280/4 223/286/4
f 219/278/4 215/270/4 223/286/4
f 215/270/4 214/268/4 223/286/4
f 223/286/4 214/268/4 224/288/4
f 214/268/4 213/267/4 224/288/4
f 212/259/4 211/266/4 229/295/4
f 225/290/4 224/288/4 213/267/4
f 212/259/4 229/295/4 228/260/4
f 225/290/4 213/267/4 212/259/4
f 228/260/4 227/293/4 226/261/4
f 226/261/4 225/290/4 212/259/4
f 235/275/3 236/277/3 234/273/3
f 236/277/3 237/279/3 234/273/3
f 237/279/3 238/281/3 234/273/3
f 238/281/3 239/283/3 242/289/3
f 234/273/3 238/281/3 242/289/3
f 239/283/3 240/285/3 242/289/3
f 240/285/3 241/287/3 242/289/3
f 233/271/3 234/273/3 242/289/3
f 233/271/3 242/289/3 243/291/3
f 232/269/3 233/271/3 243/291/3
f 232/269/3 243/291/3 244/292/3
f 248/296/3 230/265/3 231/264/3
f 231/264/3 232/269/3 244/292/3
f 245/262/3 246/294/3 247/263/3
f 231/264/3 244/292/3 245/262/3
f 247/263/3 248/296/3 231/264/3
f 212/259/30 231/264/30 230/265/30
f 213/267/31 232/269/31 231/264/31
f 214/268/32 233/271/32 232/269/32
f 215/270/33 234/273/33 233/271/33
f 216/272/34 235/275/34 234/273/34
f 217/274/35 236/277/35 235/275/35
f 218/276/36 237/279/36 236/277/36
f 219/278/37 238/281/37 237/279/37
f 220/280/38 239/283/38 238/281/38
f 221/282/39 240/285/39 239/283/39
f 222/284/40 241/287/40 240/285/40
f 223/286/41 242/289/41 241/287/41
f 224/288/42 243/291/42 242/289/42
f 225/290/43 244/292/43 243/291/43
f 226/261/44 245/262/44 244/292/44
f 227/293/45 246/294/45 245/262/45
f 228/260/46 247/263/46 246/294/46
f 229/295/47 248/296/47 247/263/47
f 211/266/48 230/265/48 248/296/48
usemtl Material.005
f 250/297/4 266/298/4 264/299/4
f 283/300/3 285/301/3 269/302/3
f 250/297/30 268/303/30 249/304/30
f 251/305/31 269/302/31 250/297/31
f 252/306/32 270/307/32 251/305/32
f 253/308/33 271/309/33 252/306/33
f 254/310/34 272/311/34 253/308/34
f 255/312/35 273/313/35 254/310/35
f 256/314/36 274/315/36 255/312/36
f 257/316/37 275/317/37 256/314/37
f 258/318/38 276/319/38 257/316/38
f 259/320/39 277/321/39 258/318/39
f 260/322/40 278/323/40 259/320/40
f 261/324/41 279/325/41 260/322/41
f 262/326/42 280/327/42 261/324/42
f 263/328/43 281/329/43 262/326/43
f 264/299/44 282/330/44 263/328/44
f 265/331/45 283/300/45 264/299/45
f 266/298/46 284/332/46 265/331/46
f 267/333/47 285/301/47 266/298/47
f 249/304/48 286/334/48 267/333/48
f 256/314/4 255/312/4 253/308/4
f 255/312/4 254/310/4 253/308/4
f 258/318/4 257/316/4 261/324/4
f 257/316/4 256/314/4 253/308/4
f 260/322/4 259/320/4 261/324/4
f 259/320/4 258/318/4 261/324/4
f 257/316/4 253/308/4 261/324/4
f 253/308/4 252/306/4 261/324/4
f 261/324/4 252/306/4 262/326/4
f 252/306/4 251/305/4 262/326/4
f 250/297/4 249/304/4 267/333/4
f 263/328/4 262/326/4 251/305/4
f 250/297/4 267/333/4 266/298/4
f 263/328/4 251/305/4 250/297/4
f 266/298/4 265/331/4 264/299/4
f 264/299/4 263/328/4 250/297/4
f 273/313/3 274/315/3 272/311/3
f 274/315/3 275/317/3 272/311/3
f 275/317/3 276/319/3 272/311/3
f 276/319/3 277/321/3 280/327/3
f 272/311/3 276/319/3 280/327/3
f 277/321/3 278/323/3 280/327/3
f 278/323/3 279/325/3 280/327/3
f 271/309/3 272/311/3 280/327/3
f 271/309/3 280/327/3 281/329/3
f 270/307/3 271/309/3 281/329/3
f 270/307/3 281/329/3 282/330/3
f 286/334/3 268/303/3 269/302/3
f 269/302/3 270/307/3 282/330/3
f 283/300/3 284/332/3 285/301/3
f 269/302/3 282/330/3 283/300/3
f 285/301/3 286/334/3 269/302/3
f 250/297/30 269/302/30 268/303/30
f 251/305/31 270/307/31 269/302/31
f 252/306/32 271/309/32 270/307/32
f 253/308/33 272/311/33 271/309/33
f 254/310/34 273/313/34 272/311/34
f 255/312/35 274/315/35 273/313/35
f 256/314/36 275/317/36 274/315/36
f 257/316/37 276/319/37 275/317/37
f 258/318/38 277/321/38 276/319/38
f 259/320/39 278/323/39 277/321/39
f 260/322/40 279/325/40 278/323/40
f 261/324/41 280/327/41 279/325/41
f 262/326/42 281/329/42 280/327/42
f 263/328/43 282/330/43 281/329/43
f 264/299/44 283/300/44 282/330/44
f 265/331/45 284/332/45 283/300/45
f 266/298/46 285/301/46 284/332/46
f 267/333/47 286/334/47 285/301/47
f 249/304/48 268/303/48 286/334/48
usemtl Material.006
f 288/335/4 304/336/4 302/337/4
f 321/338/3 323/339/3 307/340/3
f 288/335/30 306/341/30 287/342/30
f 289/343/31 307/340/31 288/335/31
f 290/344/32 308/345/32 289/343/32
f 291/346/33 309/347/33 290/344/33
f 292/348/34 310/349/34 291/346/34
f 293/350/35 311/351/35 292/348/35
f 294/352/36 312/353/36 293/350/36
f 295/354/37 313/355/37 294/352/37
f 296/356/38 314/357/38 295/354/38
f 297/358/39 315/359/39 296/356/39
f 298/360/40 316/361/40 297/358/40
f 299/362/41 317/363/41 298/360/41
f 300/364/42 318/365/42 299/362/42
f 301/366/43 319/367/43 300/364/43
f 302/337/44 320/368/44 301/366/44
f 303/369/45 321/338/45 302/337/45
f 304/336/46 322/370/46 303/369/46
f 305/371/47 323/339/47 304/336/47
f 287/342/48 324/372/48 305/371/48
f 294/352/4 293/350/4 291/346/4
f 293/350/4 292/348/4 291/346/4
f 296/356/4 295/354/4 299/362/4
f 295/354/4 294/352/4 291/346/4
f 298/360/4 297/358/4 299/362/4
f 297/358/4 296/356/4 299/362/4
f 295/354/4 291/346/4 299/362/4
f 291/346/4 290/344/4 299/362/4
f 299/362/4 290/344/4 300/364/4
f 290/344/4 289/343/4 300/364/4
f 288/335/4 287/342/4 305/371/4
f 301/366/4 300/364/4 289/343/4
f 288/335/4 305/371/4 304/336/4
f 301/366/4 289/343/4 288/335/4
f 304/336/4 303/369/4 302/337/4
f 302/337/4 301/366/4 288/335/4
f 311/351/3 312/353/3 310/349/3
f 312/353/3 313/355/3 310/349/3
f 313/355/3 314/357/3 310/349/3
f 314/357/3 315/359/3 318/365/3
f 310/349/3 314/357/3 318/365/3
f 315/359/3 316/361/3 318/365/3
f 316/361/3 317/363/3 318/365/3
f 309/347/3 310/349/3 318/365/3
f 309/347/3 318/365/3 319/367/3
f 308/345/3 309/347/3 319/367/3
f 308/345/3 319/367/3 320/368/3
f 324/372/3 306/341/3 307/340/3
f 307/340/3 308/345/3 320/368/3
f 321/338/3 322/370/3 323/339/3
f 307/340/3 320/368/3 321/338/3
f 323/339/3 324/372/3 307/340/3
f 288/335/30 307/340/30 306/341/30
f 289/343/31 308/345/31 307/340/31
f 290/344/32 309/347/32 308/345/32
f 291/346/33 310/349/33 309/347/33
f 292/348/34 311/351/34 310/349/34
f 293/350/35 312/353/35 311/351/35
f 294/352/36 313/355/36 312/353/36
f 295/354/37 314/357/37 313/355/37
f 296/356/38 315/359/38 314/357/38
f 297/358/39 316/361/39 315/359/39
f 298/360/40 317/363/40 316/361/40
f 299/362/41 318/365/41 317/363/41
f 300/364/42 319/367/42 318/365/42
f 301/366/43 320/368/43 319/367/43
f 302/337/44 321/338/44 320/368/44
f 303/369/45 322/370/45 321/338/45
f 304/336/46 323/339/46 322/370/46
f 305/371/47 324/372/47 323/339/47
f 287/342/48 306/341/48 324/372/48
usemtl Material.007
f 326/373/6 342/374/6 340/375/6
f 359/376/5 361/377/5 345/378/5
f 326/373/7 344/379/7 325/380/7
f 327/381/8 345/378/8 326/373/8
f 328/382/9 346/383/9 327/381/9
f 329/384/10 347/385/10 328/382/10
f 330/386/11 348/387/11 329/384/11
f 331/388/28 349/389/28 330/386/28
f 332/390/13 350/391/13 331/388/13
f 333/392/14 351/393/14 332/390/14
f 334/394/15 352/395/15 333/392/15
f 335/396/16 353/397/16 334/394/16
f 336/398/17 354/399/17 335/396/17
f 337/400/18 355/401/18 336/398/18
f 338/402/19 356/403/19 337/400/19
f 339/404/20 357/405/20 338/402/20
f 340/375/29 358/406/29 339/404/29
f 341/407/22 359/376/22 340/375/22
f 342/374/23 360/408/23 341/407/23
f 343/409/24 361/377/24 342/374/24
f 325/380/25 362/410/25 343/409/25
f 332/390/6 331/388/6 329/384/6
f 331/388/6 330/386/6 329/384/6
f 334/394/6 333/392/6 337/400/6
f 333/392/6 332/390/6 329/384/6
f 336/398/6 335/396/6 337/400/6
f 335/396/6 334/394/6 337/400/6
f 333/392/6 329/384/6 337/400/6
f 329/384/6 328/382/6 337/400/6
f 337/400/6 328/382/6 338/402/6
f 328/382/6 327/381/6 338/402/6
f 326/373/6 325/380/6 343/409/6
f 339/404/6 338/402/6 327/381/6
f 326/373/6 343/409/6 342/374/6
f 339/404/6 327/381/6 326/373/6
f 342/374/6 341/407/6 340/375/6
f 340/375/6 339/404/6 326/373/6
f 349/389/5 350/391/5 348/387/5
f 350/391/5 351/393/5 348/387/5
f 351/393/5 352/395/5 348/387/5
f 352/395/5 353/397/5 356/403/5
f 348/387/5 352/395/5 356/403/5
f 353/397/5 354/399/5 356/403/5
f 354/399/5 355/401/5 356/403/5
f 347/385/5 348/387/5 356/403/5
f 347/385/5 356/403/5 357/405/5
f 346/383/5 347/385/5 357/405/5
f 346/383/5 357/405/5 358/406/5
f 362/410/5 344/379/5 345/378/5
f 345/378/5 346/383/5 358/406/5
f 359/376/5 360/408/5 361/377/5
f 345/378/5 358/406/5 359/376/5
f 361/377/5 362/410/5 345/378/5
f 326/373/7 345/378/7 344/379/7
f 327/381/26 346/383/26 345/378/26
f 328/382/9 347/385/9 346/383/9
f 329/384/10 348/387/10 347/385/10
f 330/386/27 349/389/27 348/387/27
f 331/388/28 350/391/28 349/389/28
f 332/390/13 351/393/13 350/391/13
f 333/392/14 352/395/14 351/393/14
f 334/394/15 353/397/15 352/395/15
f 335/396/16 354/399/16 353/397/16
f 336/398/17 355/401/17 354/399/17
f 337/400/18 356/403/18 355/401/18
f 338/402/19 357/405/19 356/403/19
f 339/404/20 358/406/20 357/405/20
f 340/375/29 359/376/29 358/406/29
f 341/407/22 360/408/22 359/376/22
f 342/374/23 361/377/23 360/408/23
f 343/409/24 362/410/24 361/377/24
f 325/380/25 344/379/25 362/410/25
usemtl Material.008
f 364/411/6 380/412/6 378/413/6
f 397/414/5 399/415/5 383/416/5
f 364/411/7 382/417/7 363/418/7
f 365/419/8 383/416/8 364/411/8
f 366/420/9 384/421/9 365/419/9
f 367/422/10 385/423/10 366/420/10
f 368/424/11 386/425/11 367/422/11
f 369/426/12 387/427/12 368/424/12
f 370/428/13 388/429/13 369/426/13
f 371/430/14 389/431/14 370/428/14
f 372/432/15 390/433/15 371/430/15
f 373/434/16 391/435/16 372/432/16
f 374/436/17 392/437/17 373/434/17
f 375/438/18 393/439/18 374/436/18
f 376/440/19 394/441/19 375/438/19
f 377/442/20 395/443/20 376/440/20
f 378/413/29 396/444/29 377/442/29
f 379/445/22 397/414/22 378/413/22
f 380/412/23 398/446/23 379/445/23
f 381/447/24 399/415/24 380/412/24
f 363/418/25 400/448/25 381/447/25
f 370/428/6 369/426/6 367/422/6
f 369/426/6 368/424/6 367/422/6
f 372/432/6 371/430/6 375/438/6
f 371/430/6 370/428/6 367/422/6
f 374/436/6 373/434/6 375/438/6
f 373/434/6 372/432/6 375/438/6
f 371/430/6 367/422/6 375/438/6
f 367/422/6 366/420/6 375/438/6
f 375/438/6 366/420/6 376/440/6
f 366/420/6 365/419/6 376/440/6
f 364/411/6 363/418/6 381/447/6
f 377/442/6 376/440/6 365/419/6
f 364/411/6 381/447/6 380/412/6
f 377/442/6 365/419/6 364/411/6
f 380/412/6 379/445/6 378/413/6
f 378/413/6 377/442/6 364/411/6
f 387/427/5 388/429/5 386/425/5
f 388/429/5 389/431/5 386/425/5
f 389/431/5 390/433/5 386/425/5
f 390/433/5 391/435/5 394/441/5
f 386/425/5 390/433/5 394/441/5
f 391/435/5 392/437/5 394/441/5
f 392/437/5 393/439/5 394/441/5
f 385/423/5 386/425/5 394/441/5
f 385/423/5 394/441/5 395/443/5
f 384/421/5 385/423/5 395/443/5
f 384/421/5 395/443/5 396/444/5
f 400/448/5 382/417/5 383/416/5
f 383/416/5 384/421/5 396/444/5
f 397/414/5 398/446/5 399/415/5
f 383/416/5 396/444/5 397/414/5
f 399/415/5 400/448/5 383/416/5
f 364/411/7 383/416/7 382/417/7
f 365/419/26 384/421/26 383/416/26
f 366/420/9 385/423/9 384/421/9
f 367/422/10 386/425/10 385/423/10
f 368/424/27 387/427/27 386/425/27
f 369/426/28 388/429/28 387/427/28
f 370/428/13 389/431/13 388/429/13
f 371/430/14 390/433/14 389/431/14
f 372/432/15 391/435/15 390/433/15
f 373/434/16 392/437/16 391/435/16
f 374/436/17 393/439/17 392/437/17
f 375/438/18 394/441/18 393/439/18
f 376/440/19 395/443/19 394/441/19
f 377/442/20 396/444/20 395/443/20
f 378/413/29 397/414/29 396/444/29
f 379/445/22 398/446/22 397/414/22
f 380/412/23 399/415/23 398/446/23
f 381/447/24 400/448/24 399/415/24
f 363/418/25 382/417/25 400/448/25
