# Blender v3.1.2 OBJ File: ''
# www.blender.org
mtllib Пихо-Мики(a).mtl
o Icosphere.001
v 0.566981 0.672050 -0.160084
v 0.132761 1.128616 0.437576
v -0.135609 1.128616 -0.388365
v 0.566980 1.128619 -0.898831
v 1.269570 1.128616 -0.388366
v 1.001201 1.128616 0.437576
v -0.135608 1.867374 0.068198
v 0.132760 1.867374 -0.757743
v 1.001201 1.867374 -0.757744
v 1.269570 1.867374 0.068197
v 0.566981 1.867370 0.578663
v 0.566981 2.323940 -0.160084
v 0.154012 0.795401 -0.294263
v 0.311755 0.795401 0.191209
v -0.101218 1.063765 0.057032
v 0.566981 1.063766 0.542504
v 0.822207 0.795401 0.191209
v 0.566980 0.795404 -0.594308
v 0.154011 1.063766 -0.728490
v 0.979949 0.795401 -0.294263
v 0.979950 1.063766 -0.728491
v 1.235180 1.063765 0.057031
v 0.311754 1.497995 0.625437
v 0.822209 1.497995 0.625437
v -0.258964 1.497995 -0.160084
v -0.101222 1.497995 0.325395
v 0.311753 1.497995 -0.945605
v -0.101223 1.497995 -0.645562
v 1.235184 1.497995 -0.645563
v 0.822208 1.497995 -0.945605
v 1.235184 1.497995 0.325394
v 1.392926 1.497995 -0.160084
v 0.154011 1.932224 0.408323
v -0.101218 1.932225 -0.377199
v 0.566980 1.932224 -0.862672
v 1.235180 1.932225 -0.377199
v 0.979951 1.932224 0.408322
v 0.154012 2.200588 -0.025904
v 0.566981 2.200586 0.274140
v 0.311754 2.200588 -0.511377
v 0.822207 2.200588 -0.511377
v 0.979949 2.200588 -0.025905
v -0.423676 0.745240 -0.660084
v 0.576325 0.745240 -0.660084
v -0.423675 0.745240 0.339917
v 0.576325 0.745240 0.339916
v -0.590342 -0.004760 -0.826750
v 0.742991 -0.004760 -0.826751
v -0.590342 -0.004760 0.506583
v 0.742992 -0.004760 0.506583
v -0.586774 0.241285 -0.823182
v -0.561793 0.463604 -0.798201
v -0.500177 0.639610 -0.736585
v -0.220326 0.781706 -0.733016
v 0.076324 0.800024 -0.769652
v 0.372974 0.781706 -0.733017
v 0.739423 0.241285 0.503014
v 0.714442 0.463604 0.478033
v 0.652827 0.639610 0.416417
v 0.372975 0.781706 0.412849
v 0.076325 0.800024 0.449484
v -0.220325 0.781706 0.412849
v -0.496608 0.781706 -0.456733
v -0.533243 0.800024 -0.160083
v -0.496608 0.781706 0.136567
v 0.649258 0.781706 0.136566
v 0.685893 0.800024 -0.160084
v 0.649258 0.781706 -0.456734
v 0.652826 0.639610 -0.736585
v 0.714442 0.463604 -0.798201
v 0.739423 0.241285 -0.823182
v -0.500176 0.639610 0.416418
v -0.561792 0.463604 0.478034
v -0.586773 0.241285 0.503015
v 0.930491 -0.004760 -0.524668
v 0.992992 -0.004760 -0.160084
v 0.930492 -0.004760 0.204499
v -0.777842 -0.004760 0.204500
v -0.840342 -0.004760 -0.160083
v -0.777842 -0.004760 -0.524667
v 0.440909 -0.004760 0.694083
v 0.076325 -0.004760 0.756583
v -0.288258 -0.004760 0.694083
v 0.440908 -0.004760 -1.014251
v 0.076324 -0.004760 -1.076751
v -0.288259 -0.004760 -1.014250
v -0.286293 0.241623 0.689562
v 0.076325 0.241961 0.751760
v 0.438943 0.241623 0.689562
v -0.272537 0.466305 0.657914
v 0.076325 0.469005 0.718003
v 0.425187 0.466305 0.657914
v -0.241797 0.649702 0.573427
v 0.076325 0.658531 0.626568
v 0.394447 0.649702 0.573427
v -0.239832 0.859735 0.156074
v 0.076325 0.886154 0.173057
v 0.392482 0.859735 0.156073
v -0.256816 0.886154 -0.160084
v 0.076325 0.914993 -0.160084
v 0.409465 0.886154 -0.160084
v -0.239833 0.859735 -0.476241
v 0.076325 0.886154 -0.493224
v 0.392482 0.859735 -0.476241
v -0.773321 0.241623 -0.522702
v -0.835520 0.241961 -0.160083
v -0.773321 0.241623 0.202535
v -0.741673 0.466305 -0.508945
v -0.801762 0.469005 -0.160083
v -0.741673 0.466305 0.188779
v -0.657187 0.649702 -0.478206
v -0.710327 0.658531 -0.160083
v -0.657186 0.649702 0.158039
v 0.925971 0.241623 0.202534
v 0.988169 0.241961 -0.160084
v 0.925970 0.241623 -0.522702
v 0.894323 0.466305 0.188778
v 0.954411 0.469005 -0.160084
v 0.894322 0.466305 -0.508946
v 0.809836 0.649702 0.158038
v 0.862976 0.658531 -0.160084
v 0.809836 0.649702 -0.478206
v -0.241798 0.649702 -0.893595
v 0.076324 0.658531 -0.946735
v 0.394447 0.649702 -0.893595
v -0.272538 0.466305 -0.978081
v 0.076324 0.469005 -1.038170
v 0.425186 0.466305 -0.978082
v -0.286294 0.241623 -1.009729
v 0.076324 0.241961 -1.071928
v 0.438943 0.241623 -1.009730
v -0.419507 0.737163 -0.655915
v 0.572156 0.737163 -0.655915
v -0.419506 0.737163 0.335747
v 0.572156 0.737163 0.335747
v -0.583273 -0.004965 -0.819681
v 0.735922 -0.004965 -0.819681
v -0.583272 -0.004965 0.499514
v 0.735922 -0.004965 0.499513
v -0.579730 0.240405 -0.816138
v -0.555040 0.460639 -0.791448
v -0.494384 0.633877 -0.730792
v -0.218270 0.773080 -0.728395
v 0.076324 0.791236 -0.764880
v 0.370919 0.773080 -0.728395
v 0.732380 0.240406 0.495970
v 0.707689 0.460639 0.471280
v 0.647033 0.633877 0.410624
v 0.370919 0.773080 0.408227
v 0.076325 0.791236 0.444712
v -0.218269 0.773080 0.408227
v -0.491986 0.773080 -0.454678
v -0.528471 0.791236 -0.160083
v -0.491986 0.773080 0.134511
v 0.644636 0.773080 0.134510
v 0.681121 0.791236 -0.160084
v 0.644636 0.773080 -0.454678
v 0.647033 0.633877 -0.730792
v 0.707689 0.460639 -0.791448
v 0.732379 0.240406 -0.816138
v -0.494383 0.633877 0.410625
v -0.555039 0.460639 0.471281
v -0.579729 0.240405 0.495971
v 0.921144 -0.004960 -0.521119
v 0.982994 -0.004956 -0.160084
v 0.921145 -0.004960 0.200951
v -0.768495 -0.004960 0.200952
v -0.830344 -0.004956 -0.160083
v -0.768495 -0.004960 -0.521119
v 0.437361 -0.004960 0.684736
v 0.076325 -0.004956 0.746585
v -0.284710 -0.004960 0.684736
v 0.437360 -0.004960 -1.004903
v 0.076324 -0.004956 -1.066752
v -0.284711 -0.004960 -1.004903
v -0.282751 0.240767 0.680250
v 0.076325 0.241126 0.741795
v 0.435402 0.240767 0.680249
v -0.269126 0.463363 0.648986
v 0.076325 0.466092 0.708437
v 0.421777 0.463363 0.648985
v -0.238946 0.643683 0.565968
v 0.076325 0.652384 0.618680
v 0.391596 0.643683 0.565968
v -0.237915 0.850110 0.154156
v 0.076325 0.876347 0.171103
v 0.390564 0.850110 0.154156
v -0.254862 0.876347 -0.160084
v 0.076325 0.904993 -0.160084
v 0.407511 0.876347 -0.160084
v -0.237915 0.850110 -0.474323
v 0.076325 0.876347 -0.491270
v 0.390564 0.850110 -0.474323
v -0.764008 0.240767 -0.519160
v -0.825554 0.241126 -0.160083
v -0.764008 0.240767 0.198993
v -0.732745 0.463363 -0.505535
v -0.792196 0.466092 -0.160083
v -0.732745 0.463363 0.185368
v -0.649727 0.643683 -0.475355
v -0.702438 0.652384 -0.160083
v -0.649727 0.643683 0.155188
v 0.916658 0.240767 0.198992
v 0.978204 0.241127 -0.160084
v 0.916658 0.240767 -0.519161
v 0.885394 0.463363 0.185367
v 0.944845 0.466092 -0.160084
v 0.885394 0.463363 -0.505536
v 0.802377 0.643683 0.155187
v 0.855088 0.652384 -0.160084
v 0.802376 0.643683 -0.475355
v -0.238947 0.643683 -0.886135
v 0.076324 0.652384 -0.938847
v 0.391596 0.643683 -0.886136
v -0.269127 0.463363 -0.969153
v 0.076324 0.466092 -1.028604
v 0.421776 0.463363 -0.969153
v -0.282752 0.240767 -1.000417
v 0.076324 0.241126 -1.061963
v 0.435401 0.240767 -1.000417
v -0.881363 0.552945 -0.160083
v -1.164507 0.850661 0.229637
v -1.339505 0.850661 -0.308940
v -0.881363 0.850663 -0.641803
v -0.423221 0.850661 -0.308940
v -0.598218 0.850661 0.229637
v -1.339505 1.332388 -0.011226
v -1.164508 1.332387 -0.549803
v -0.598218 1.332387 -0.549803
v -0.423221 1.332388 -0.011227
v -0.881363 1.332385 0.321636
v -0.881363 1.630104 -0.160083
v -1.150650 0.633379 -0.247578
v -1.047790 0.633380 0.068987
v -1.317080 0.808373 -0.018507
v -0.881363 0.808374 0.298058
v -0.714936 0.633380 0.068987
v -0.881363 0.633381 -0.443230
v -1.150651 0.808374 -0.530728
v -0.612076 0.633379 -0.247579
v -0.612075 0.808374 -0.530728
v -0.445646 0.808373 -0.018508
v -1.047790 1.091524 0.352137
v -0.714935 1.091524 0.352137
v -1.419942 1.091524 -0.160083
v -1.317082 1.091524 0.156486
v -1.047791 1.091524 -0.672303
v -1.317083 1.091524 -0.476652
v -0.445643 1.091524 -0.476653
v -0.714935 1.091524 -0.672303
v -0.445643 1.091524 0.156486
v -0.342783 1.091524 -0.160084
v -1.150651 1.374675 0.210561
v -1.317080 1.374676 -0.301659
v -0.881363 1.374675 -0.618225
v -0.445646 1.374676 -0.301659
v -0.612074 1.374675 0.210561
v -1.150650 1.549669 -0.072588
v -0.881363 1.549668 0.123064
v -1.047790 1.549669 -0.389153
v -0.714936 1.549669 -0.389153
v -0.612076 1.549669 -0.072588
vt 0.181819 0.000000
vt 0.227273 0.078731
vt 0.136365 0.078731
vt 0.272728 0.157461
vt 0.318182 0.078731
vt 0.363637 0.157461
vt 0.909091 0.000000
vt 0.954545 0.078731
vt 0.863636 0.078731
vt 0.727273 0.000000
vt 0.772727 0.078731
vt 0.681818 0.078731
vt 0.545455 0.000000
vt 0.590909 0.078731
vt 0.500000 0.078731
vt 0.318182 0.236191
vt 0.090910 0.157461
vt 0.181819 0.157461
vt 0.136365 0.236191
vt 0.818182 0.157461
vt 0.909091 0.157461
vt 0.863636 0.236191
vt 0.636364 0.157461
vt 0.727273 0.157461
vt 0.681818 0.236191
vt 0.454546 0.157461
vt 0.545455 0.157461
vt 0.500000 0.236191
vt 0.227273 0.236191
vt 0.045455 0.236191
vt 0.772727 0.236191
vt 0.590909 0.236191
vt 0.409092 0.236191
vt 0.181819 0.314921
vt 0.272728 0.314921
vt 0.227273 0.393651
vt 0.000000 0.314921
vt 0.090910 0.314921
vt 0.045455 0.393651
vt 0.727273 0.314921
vt 0.818182 0.314921
vt 0.772727 0.393651
vt 0.545455 0.314921
vt 0.636364 0.314921
vt 0.590909 0.393651
vt 0.363637 0.314921
vt 0.454546 0.314921
vt 0.409092 0.393651
vt 0.500000 0.393651
vt 0.454546 0.472382
vt 0.681818 0.393651
vt 0.636364 0.472382
vt 0.863636 0.393651
vt 0.818182 0.472382
vt 0.909091 0.314921
vt 0.136365 0.393651
vt 0.090910 0.472382
vt 0.318182 0.393651
vt 0.272728 0.472382
vt 0.954545 0.236191
vt 1.000000 0.157461
vt 0.409092 0.078731
vt 0.363637 0.000000
vt 0.500000 0.656467
vt 0.437500 0.688748
vt 0.437500 0.656406
vt 0.562500 0.688748
vt 0.500000 0.689236
vt 0.437500 0.723382
vt 0.562500 0.723382
vt 0.500000 0.725043
vt 0.437500 0.625000
vt 0.375000 0.656304
vt 0.375000 0.625000
vt 0.500000 0.625000
vt 0.562500 0.656406
vt 0.562500 0.625000
vt 0.625000 0.656304
vt 0.625000 0.687934
vt 0.625000 0.720052
vt 0.625000 0.750000
vt 0.562500 0.764350
vt 0.500000 0.767361
vt 0.437500 0.764350
vt 0.375000 0.750000
vt 0.375000 0.720052
vt 0.375000 0.687934
vt 0.437500 0.817017
vt 0.500000 0.876736
vt 0.437500 0.876194
vt 0.562500 0.817017
vt 0.500000 0.818793
vt 0.437500 0.937649
vt 0.562500 0.937649
vt 0.500000 0.937717
vt 0.375000 0.812500
vt 0.625000 0.812500
vt 0.562500 0.876194
vt 0.625000 0.937500
vt 0.625000 1.000000
vt 0.562500 1.000000
vt 0.500000 1.000000
vt 0.437500 1.000000
vt 0.375000 1.000000
vt 0.375000 0.937500
vt 0.375000 0.875000
vt 0.250000 0.656250
vt 0.187500 0.687500
vt 0.187500 0.656250
vt 0.312500 0.687554
vt 0.250000 0.687500
vt 0.187500 0.718750
vt 0.312500 0.718865
vt 0.250000 0.718750
vt 0.187500 0.625000
vt 0.125000 0.656250
vt 0.125000 0.625000
vt 0.250000 0.625000
vt 0.312500 0.656257
vt 0.312500 0.625000
vt 0.312500 0.750000
vt 0.250000 0.750000
vt 0.187500 0.750000
vt 0.125000 0.750000
vt 0.125000 0.718750
vt 0.125000 0.687500
vt 0.750000 0.656250
vt 0.687500 0.687554
vt 0.687500 0.656257
vt 0.812500 0.687500
vt 0.750000 0.687500
vt 0.687500 0.718865
vt 0.812500 0.718750
vt 0.750000 0.718750
vt 0.687500 0.625000
vt 0.625000 0.625000
vt 0.750000 0.625000
vt 0.812500 0.656250
vt 0.812500 0.625000
vt 0.875000 0.656250
vt 0.875000 0.687500
vt 0.875000 0.718750
vt 0.875000 0.750000
vt 0.812500 0.750000
vt 0.750000 0.750000
vt 0.687500 0.750000
vt 0.437500 0.031250
vt 0.500000 0.062500
vt 0.437500 0.062500
vt 0.562500 0.031250
vt 0.500000 0.031250
vt 0.500000 0.093750
vt 0.437500 0.093750
vt 0.562500 0.062500
vt 0.375000 0.000000
vt 0.375000 0.031250
vt 0.500000 0.000000
vt 0.437500 0.000000
vt 0.625000 0.000000
vt 0.562500 0.000000
vt 0.625000 0.031250
vt 0.625000 0.062500
vt 0.562500 0.093750
vt 0.625000 0.093750
vt 0.562500 0.125000
vt 0.500000 0.125000
vt 0.437500 0.125000
vt 0.375000 0.093750
vt 0.375000 0.125000
vt 0.375000 0.062500
vt 0.625000 0.875000
vt 0.875000 0.625000
vt 0.625000 0.125000
vt 0.500000 0.656467
vt 0.437500 0.656406
vt 0.437500 0.688748
vt 0.500000 0.689236
vt 0.562500 0.688748
vt 0.437500 0.723382
vt 0.500000 0.725043
vt 0.562500 0.723382
vt 0.437500 0.625000
vt 0.375000 0.625000
vt 0.375000 0.656304
vt 0.500000 0.625000
vt 0.562500 0.656406
vt 0.562500 0.625000
vt 0.625000 0.656304
vt 0.625000 0.687934
vt 0.625000 0.720052
vt 0.562500 0.764350
vt 0.625000 0.750000
vt 0.500000 0.767361
vt 0.437500 0.764350
vt 0.375000 0.720052
vt 0.375000 0.750000
vt 0.375000 0.687934
vt 0.437500 0.817017
vt 0.437500 0.876194
vt 0.500000 0.876736
vt 0.562500 0.817017
vt 0.500000 0.818793
vt 0.437500 0.937649
vt 0.500000 0.937717
vt 0.562500 0.937649
vt 0.375000 0.812500
vt 0.625000 0.812500
vt 0.562500 0.876194
vt 0.625000 0.937500
vt 0.562500 1.000000
vt 0.625000 1.000000
vt 0.500000 1.000000
vt 0.437500 1.000000
vt 0.375000 0.937500
vt 0.375000 1.000000
vt 0.375000 0.875000
vt 0.250000 0.656250
vt 0.187500 0.656250
vt 0.187500 0.687500
vt 0.250000 0.687500
vt 0.312500 0.687554
vt 0.187500 0.718750
vt 0.250000 0.718750
vt 0.312500 0.718865
vt 0.187500 0.625000
vt 0.125000 0.625000
vt 0.125000 0.656250
vt 0.250000 0.625000
vt 0.312500 0.656257
vt 0.312500 0.625000
vt 0.312500 0.750000
vt 0.250000 0.750000
vt 0.187500 0.750000
vt 0.125000 0.718750
vt 0.125000 0.750000
vt 0.125000 0.687500
vt 0.750000 0.656250
vt 0.687500 0.656257
vt 0.687500 0.687554
vt 0.750000 0.687500
vt 0.812500 0.687500
vt 0.687500 0.718865
vt 0.750000 0.718750
vt 0.812500 0.718750
vt 0.687500 0.625000
vt 0.625000 0.625000
vt 0.750000 0.625000
vt 0.812500 0.656250
vt 0.812500 0.625000
vt 0.875000 0.656250
vt 0.875000 0.687500
vt 0.875000 0.718750
vt 0.812500 0.750000
vt 0.875000 0.750000
vt 0.750000 0.750000
vt 0.687500 0.750000
vt 0.437500 0.031250
vt 0.437500 0.062500
vt 0.500000 0.062500
vt 0.562500 0.031250
vt 0.500000 0.031250
vt 0.437500 0.093750
vt 0.500000 0.093750
vt 0.562500 0.062500
vt 0.375000 0.000000
vt 0.375000 0.031250
vt 0.500000 0.000000
vt 0.437500 0.000000
vt 0.625000 0.000000
vt 0.562500 0.000000
vt 0.625000 0.031250
vt 0.625000 0.062500
vt 0.562500 0.093750
vt 0.625000 0.093750
vt 0.562500 0.125000
vt 0.500000 0.125000
vt 0.437500 0.125000
vt 0.375000 0.093750
vt 0.375000 0.125000
vt 0.375000 0.062500
vt 0.625000 0.875000
vt 0.875000 0.625000
vt 0.625000 0.125000
vt 0.181819 0.000000
vt 0.227273 0.078731
vt 0.136365 0.078731
vt 0.272728 0.157461
vt 0.318182 0.078731
vt 0.363637 0.157461
vt 0.909091 0.000000
vt 0.954545 0.078731
vt 0.863636 0.078731
vt 0.727273 0.000000
vt 0.772727 0.078731
vt 0.681818 0.078731
vt 0.545455 0.000000
vt 0.590909 0.078731
vt 0.500000 0.078731
vt 0.318182 0.236191
vt 0.090910 0.157461
vt 0.181819 0.157461
vt 0.136365 0.236191
vt 0.818182 0.157461
vt 0.909091 0.157461
vt 0.863636 0.236191
vt 0.636364 0.157461
vt 0.727273 0.157461
vt 0.681818 0.236191
vt 0.454546 0.157461
vt 0.545455 0.157461
vt 0.500000 0.236191
vt 0.227273 0.236191
vt 0.045455 0.236191
vt 0.772727 0.236191
vt 0.590909 0.236191
vt 0.409092 0.236191
vt 0.181819 0.314921
vt 0.272728 0.314921
vt 0.227273 0.393651
vt 0.000000 0.314921
vt 0.090910 0.314921
vt 0.045455 0.393651
vt 0.727273 0.314921
vt 0.818182 0.314921
vt 0.772727 0.393651
vt 0.545455 0.314921
vt 0.636364 0.314921
vt 0.590909 0.393651
vt 0.363637 0.314921
vt 0.454546 0.314921
vt 0.409092 0.393651
vt 0.500000 0.393651
vt 0.454546 0.472382
vt 0.681818 0.393651
vt 0.636364 0.472382
vt 0.863636 0.393651
vt 0.818182 0.472382
vt 0.909091 0.314921
vt 0.136365 0.393651
vt 0.090910 0.472382
vt 0.318182 0.393651
vt 0.272728 0.472382
vt 0.954545 0.236191
vt 1.000000 0.157461
vt 0.409092 0.078731
vt 0.363637 0.000000
vn -0.3151 -0.9435 0.1024
vn -0.2680 -0.6617 0.7002
vn -0.1947 -0.9435 -0.2680
vn 0.1947 -0.9435 -0.2680
vn 0.3151 -0.9435 0.1024
vn -0.2680 -0.3304 0.9050
vn -0.9435 -0.3304 0.0247
vn -0.3151 -0.3304 -0.8897
vn 0.7488 -0.3304 -0.5746
vn 0.7779 -0.3304 0.5346
vn -0.5831 -0.1256 0.8026
vn -0.9435 -0.1256 -0.3066
vn -0.0000 -0.1256 -0.9921
vn 0.9435 -0.1256 -0.3066
vn 0.5831 -0.1256 0.8026
vn -0.6284 0.6617 0.4089
vn -0.5831 0.6617 -0.4713
vn 0.2680 0.6617 -0.7002
vn 0.7488 0.6617 0.0385
vn 0.1947 0.6617 0.7240
vn 0.1947 0.9435 0.2680
vn 0.3568 0.7947 0.4911
vn 0.6284 0.6617 0.4089
vn 0.3151 0.9435 -0.1024
vn 0.5773 0.7947 -0.1876
vn 0.5831 0.6617 -0.4713
vn -0.0000 0.9435 -0.3313
vn -0.0000 0.7947 -0.6071
vn -0.2680 0.6617 -0.7002
vn -0.3151 0.9435 -0.1024
vn -0.5773 0.7947 -0.1876
vn -0.7488 0.6617 0.0385
vn -0.1947 0.9435 0.2680
vn -0.3568 0.7947 0.4911
vn -0.1947 0.6617 0.7240
vn 0.3151 0.3304 0.8897
vn 0.5773 0.1876 0.7947
vn 0.7488 0.3304 0.5746
vn 0.9435 0.3304 -0.0247
vn 0.9342 0.1876 -0.3035
vn 0.7779 0.3304 -0.5346
vn 0.2680 0.3304 -0.9050
vn -0.0000 0.1876 -0.9822
vn -0.2680 0.3304 -0.9050
vn -0.7779 0.3304 -0.5346
vn -0.9342 0.1876 -0.3035
vn -0.9435 0.3304 -0.0247
vn -0.7488 0.3304 0.5746
vn -0.5773 0.1876 0.7947
vn -0.3151 0.3304 0.8897
vn 0.9435 0.1256 0.3066
vn 0.9342 -0.1876 0.3035
vn 0.9435 -0.3304 0.0247
vn 0.5831 0.1256 -0.8026
vn 0.5773 -0.1876 -0.7947
vn 0.3151 -0.3304 -0.8897
vn -0.5831 0.1256 -0.8026
vn -0.5773 -0.1876 -0.7947
vn -0.7488 -0.3304 -0.5746
vn -0.9435 0.1256 0.3066
vn -0.9342 -0.1876 0.3035
vn -0.7779 -0.3304 0.5346
vn 0.0000 0.1256 0.9921
vn 0.0000 -0.1876 0.9822
vn 0.2680 -0.3304 0.9050
vn 0.5831 -0.6617 0.4713
vn 0.5773 -0.7947 0.1876
vn 0.7488 -0.6617 -0.0385
vn 0.6284 -0.6617 -0.4089
vn 0.3568 -0.7947 -0.4911
vn 0.1947 -0.6617 -0.7240
vn -0.1947 -0.6617 -0.7240
vn -0.3568 -0.7947 -0.4911
vn -0.6284 -0.6617 -0.4089
vn 0.2680 -0.6617 0.7002
vn 0.0000 -0.7947 0.6071
vn 0.0000 -0.9435 0.3313
vn -0.7488 -0.6617 -0.0385
vn -0.5773 -0.7947 0.1876
vn -0.5831 -0.6617 0.4713
vn -0.1673 0.1476 0.9748
vn 0.1690 0.1449 0.9749
vn -0.1561 0.4348 0.8869
vn 0.1604 0.4289 0.8890
vn -0.5273 0.0200 0.8495
vn -0.1689 0.0194 0.9854
vn 0.1690 0.0193 0.9854
vn 0.5274 0.0198 0.8494
vn 0.5231 0.1502 0.8389
vn 0.4806 0.4321 0.7631
vn 0.3387 0.7485 0.5701
vn 0.1250 0.7751 0.6193
vn -0.1244 0.7746 0.6201
vn -0.3867 0.7080 0.5909
vn -0.4785 0.4346 0.7630
vn -0.5214 0.1529 0.8395
vn -0.0859 0.9924 0.0875
vn 0.0875 0.9924 0.0859
vn -0.0859 0.9924 -0.0875
vn 0.0875 0.9924 -0.0859
vn -0.2987 0.9150 0.2712
vn -0.0953 0.9504 0.2960
vn 0.0953 0.9504 0.2961
vn 0.2712 0.9150 0.2987
vn 0.2960 0.9504 0.0953
vn 0.2960 0.9504 -0.0953
vn 0.2712 0.9150 -0.2987
vn 0.0953 0.9504 -0.2961
vn -0.0953 0.9504 -0.2960
vn -0.2987 0.9150 -0.2712
vn -0.2961 0.9504 -0.0953
vn -0.2961 0.9504 0.0953
vn -0.9748 0.1476 -0.1673
vn -0.9749 0.1450 0.1690
vn -0.8869 0.4347 -0.1561
vn -0.8890 0.4289 0.1604
vn -0.8495 0.0200 -0.5273
vn -0.9854 0.0194 -0.1689
vn -0.9854 0.0193 0.1690
vn -0.8494 0.0198 0.5274
vn -0.8389 0.1502 0.5231
vn -0.7631 0.4321 0.4806
vn -0.5701 0.7485 0.3387
vn -0.6193 0.7751 0.1250
vn -0.6201 0.7746 -0.1244
vn -0.5909 0.7080 -0.3867
vn -0.7630 0.4346 -0.4785
vn -0.8395 0.1529 -0.5214
vn 0.9748 0.1476 0.1673
vn 0.9749 0.1449 -0.1690
vn 0.8869 0.4348 0.1561
vn 0.8890 0.4289 -0.1604
vn 0.8495 0.0200 0.5273
vn 0.9854 0.0194 0.1689
vn 0.9854 0.0193 -0.1690
vn 0.8494 0.0198 -0.5274
vn 0.8389 0.1502 -0.5231
vn 0.7631 0.4321 -0.4806
vn 0.5701 0.7485 -0.3387
vn 0.6193 0.7751 -0.1250
vn 0.6201 0.7746 0.1244
vn 0.5909 0.7080 0.3867
vn 0.7630 0.4346 0.4785
vn 0.8395 0.1529 0.5214
vn -0.1561 0.4348 -0.8869
vn 0.1604 0.4289 -0.8890
vn -0.1673 0.1476 -0.9748
vn 0.1690 0.1450 -0.9749
vn -0.3867 0.7080 -0.5909
vn -0.1244 0.7746 -0.6201
vn 0.1250 0.7751 -0.6193
vn 0.3387 0.7485 -0.5701
vn 0.4806 0.4321 -0.7631
vn 0.5231 0.1502 -0.8389
vn 0.5274 0.0198 -0.8494
vn 0.1690 0.0193 -0.9854
vn -0.1689 0.0194 -0.9854
vn -0.5273 0.0200 -0.8495
vn -0.5214 0.1529 -0.8395
vn -0.4785 0.4346 -0.7630
vn -0.1690 0.1449 0.9749
vn 0.1673 0.1476 0.9748
vn -0.1604 0.4289 0.8890
vn 0.1561 0.4348 0.8869
vn -0.5274 0.0198 0.8494
vn -0.1690 0.0193 0.9854
vn 0.1689 0.0194 0.9854
vn 0.5273 0.0200 0.8495
vn 0.5214 0.1529 0.8395
vn 0.4785 0.4346 0.7630
vn 0.3867 0.7080 0.5909
vn 0.1244 0.7746 0.6201
vn -0.1250 0.7751 0.6193
vn -0.3387 0.7485 0.5701
vn -0.4806 0.4321 0.7631
vn -0.5231 0.1502 0.8389
vn -0.0875 0.9924 0.0859
vn 0.0859 0.9924 0.0875
vn -0.0875 0.9924 -0.0859
vn 0.0859 0.9924 -0.0875
vn -0.2712 0.9150 0.2987
vn -0.0953 0.9504 0.2961
vn 0.0953 0.9504 0.2960
vn 0.2987 0.9150 0.2712
vn 0.2961 0.9504 0.0953
vn 0.2961 0.9504 -0.0953
vn 0.2987 0.9150 -0.2712
vn 0.0953 0.9504 -0.2960
vn -0.0953 0.9504 -0.2961
vn -0.2712 0.9150 -0.2987
vn -0.2960 0.9504 -0.0953
vn -0.2960 0.9504 0.0953
vn -0.9749 0.1450 -0.1690
vn -0.9748 0.1476 0.1673
vn -0.8890 0.4289 -0.1604
vn -0.8869 0.4348 0.1561
vn -0.8494 0.0198 -0.5274
vn -0.9854 0.0193 -0.1690
vn -0.9854 0.0194 0.1689
vn -0.8495 0.0200 0.5273
vn -0.8395 0.1529 0.5214
vn -0.7630 0.4346 0.4785
vn -0.5909 0.7080 0.3867
vn -0.6201 0.7746 0.1244
vn -0.6193 0.7751 -0.1250
vn -0.5701 0.7485 -0.3387
vn -0.7631 0.4321 -0.4806
vn -0.8389 0.1502 -0.5231
vn 0.9749 0.1449 0.1690
vn 0.9748 0.1476 -0.1673
vn 0.8890 0.4289 0.1604
vn 0.8869 0.4347 -0.1561
vn 0.8494 0.0198 0.5274
vn 0.9854 0.0193 0.1690
vn 0.9854 0.0194 -0.1689
vn 0.8495 0.0200 -0.5273
vn 0.8395 0.1529 -0.5214
vn 0.7630 0.4346 -0.4785
vn 0.5909 0.7080 -0.3867
vn 0.6201 0.7746 -0.1244
vn 0.6193 0.7751 0.1250
vn 0.5701 0.7485 0.3387
vn 0.7631 0.4321 0.4806
vn 0.8389 0.1502 0.5231
vn -0.1604 0.4289 -0.8890
vn 0.1561 0.4348 -0.8869
vn -0.1690 0.1450 -0.9749
vn 0.1673 0.1476 -0.9748
vn -0.3387 0.7485 -0.5701
vn -0.1250 0.7751 -0.6193
vn 0.1244 0.7746 -0.6201
vn 0.3867 0.7080 -0.5909
vn 0.4785 0.4346 -0.7630
vn 0.5214 0.1529 -0.8395
vn 0.5273 0.0200 -0.8495
vn 0.1689 0.0194 -0.9854
vn -0.1690 0.0193 -0.9854
vn -0.5274 0.0198 -0.8494
vn -0.5231 0.1502 -0.8389
vn -0.4806 0.4321 -0.7631
vn 0.1672 -0.1472 -0.9749
vn -0.1689 -0.1446 -0.9750
vn 0.1561 -0.4345 -0.8870
vn -0.1605 -0.4284 -0.8892
vn 0.5271 -0.0199 -0.8496
vn 0.1688 -0.0193 -0.9855
vn -0.1689 -0.0192 -0.9854
vn -0.5272 -0.0197 -0.8495
vn -0.5230 -0.1499 -0.8391
vn -0.4807 -0.4318 -0.7632
vn -0.3388 -0.7487 -0.5698
vn -0.1249 -0.7755 -0.6189
vn 0.1245 -0.7751 -0.6195
vn 0.3864 -0.7084 -0.5907
vn 0.4784 -0.4347 -0.7630
vn 0.5212 -0.1526 -0.8397
vn 0.0858 -0.9925 -0.0875
vn -0.0875 -0.9925 -0.0858
vn 0.0858 -0.9925 0.0875
vn -0.0875 -0.9925 0.0858
vn 0.2984 -0.9152 -0.2708
vn 0.0953 -0.9506 -0.2956
vn -0.0952 -0.9505 -0.2957
vn -0.2708 -0.9152 -0.2984
vn -0.2956 -0.9506 -0.0953
vn -0.2956 -0.9506 0.0953
vn -0.2708 -0.9152 0.2984
vn -0.0952 -0.9505 0.2957
vn 0.0953 -0.9506 0.2956
vn 0.2984 -0.9152 0.2708
vn 0.2957 -0.9505 0.0952
vn 0.2957 -0.9505 -0.0952
vn 0.9749 -0.1472 0.1672
vn 0.9750 -0.1446 -0.1689
vn 0.8870 -0.4345 0.1561
vn 0.8892 -0.4284 -0.1605
vn 0.8496 -0.0199 0.5271
vn 0.9855 -0.0193 0.1688
vn 0.9854 -0.0192 -0.1689
vn 0.8495 -0.0197 -0.5272
vn 0.8391 -0.1499 -0.5230
vn 0.7632 -0.4318 -0.4807
vn 0.5698 -0.7487 -0.3388
vn 0.6189 -0.7755 -0.1249
vn 0.6195 -0.7751 0.1245
vn 0.5907 -0.7084 0.3864
vn 0.7630 -0.4347 0.4784
vn 0.8397 -0.1526 0.5212
vn -0.9749 -0.1472 -0.1672
vn -0.9750 -0.1446 0.1689
vn -0.8870 -0.4345 -0.1561
vn -0.8892 -0.4284 0.1605
vn -0.8496 -0.0199 -0.5271
vn -0.9855 -0.0193 -0.1688
vn -0.9854 -0.0192 0.1689
vn -0.8495 -0.0197 0.5272
vn -0.8391 -0.1499 0.5230
vn -0.7632 -0.4318 0.4807
vn -0.5698 -0.7487 0.3388
vn -0.6189 -0.7755 0.1249
vn -0.6195 -0.7751 -0.1245
vn -0.5907 -0.7084 -0.3864
vn -0.7630 -0.4347 -0.4784
vn -0.8397 -0.1526 -0.5212
vn 0.1561 -0.4345 0.8870
vn -0.1605 -0.4284 0.8892
vn 0.1672 -0.1472 0.9749
vn -0.1689 -0.1446 0.9750
vn 0.3864 -0.7084 0.5907
vn 0.1245 -0.7751 0.6195
vn -0.1249 -0.7755 0.6189
vn -0.3388 -0.7487 0.5698
vn -0.4807 -0.4318 0.7632
vn -0.5230 -0.1499 0.8391
vn -0.5272 -0.0197 0.8495
vn -0.1689 -0.0192 0.9854
vn 0.1688 -0.0193 0.9855
vn 0.5271 -0.0199 0.8496
vn 0.5212 -0.1526 0.8397
vn 0.4784 -0.4347 0.7630
vn 0.1689 -0.1446 -0.9750
vn -0.1672 -0.1472 -0.9749
vn 0.1605 -0.4284 -0.8892
vn -0.1561 -0.4345 -0.8870
vn 0.5272 -0.0197 -0.8495
vn 0.1689 -0.0192 -0.9854
vn -0.1688 -0.0193 -0.9855
vn -0.5271 -0.0199 -0.8496
vn -0.5212 -0.1526 -0.8397
vn -0.4784 -0.4347 -0.7630
vn -0.3864 -0.7084 -0.5907
vn -0.1245 -0.7751 -0.6195
vn 0.1249 -0.7755 -0.6189
vn 0.3388 -0.7487 -0.5698
vn 0.4807 -0.4318 -0.7632
vn 0.5230 -0.1499 -0.8391
vn 0.0875 -0.9925 -0.0858
vn -0.0858 -0.9925 -0.0875
vn 0.0875 -0.9925 0.0858
vn -0.0858 -0.9925 0.0875
vn 0.2708 -0.9152 -0.2984
vn 0.0952 -0.9505 -0.2957
vn -0.0953 -0.9506 -0.2956
vn -0.2984 -0.9152 -0.2708
vn -0.2957 -0.9505 -0.0952
vn -0.2957 -0.9505 0.0952
vn -0.2984 -0.9152 0.2708
vn -0.0953 -0.9506 0.2956
vn 0.0952 -0.9505 0.2957
vn 0.2708 -0.9152 0.2984
vn 0.2956 -0.9506 0.0953
vn 0.2956 -0.9506 -0.0953
vn 0.9750 -0.1446 0.1689
vn 0.9749 -0.1472 -0.1672
vn 0.8892 -0.4284 0.1605
vn 0.8870 -0.4345 -0.1561
vn 0.8495 -0.0197 0.5272
vn 0.9854 -0.0192 0.1689
vn 0.9855 -0.0193 -0.1688
vn 0.8496 -0.0199 -0.5271
vn 0.8397 -0.1526 -0.5212
vn 0.7630 -0.4347 -0.4784
vn 0.5907 -0.7084 -0.3864
vn 0.6195 -0.7751 -0.1245
vn 0.6189 -0.7755 0.1249
vn 0.5698 -0.7487 0.3388
vn 0.7632 -0.4318 0.4807
vn 0.8391 -0.1499 0.5229
vn -0.9750 -0.1446 -0.1689
vn -0.9749 -0.1472 0.1672
vn -0.8892 -0.4284 -0.1605
vn -0.8870 -0.4345 0.1561
vn -0.8495 -0.0197 -0.5272
vn -0.9854 -0.0192 -0.1689
vn -0.9855 -0.0193 0.1688
vn -0.8496 -0.0199 0.5271
vn -0.8397 -0.1526 0.5212
vn -0.7630 -0.4347 0.4784
vn -0.5907 -0.7084 0.3864
vn -0.6195 -0.7751 0.1245
vn -0.6189 -0.7755 -0.1249
vn -0.5698 -0.7487 -0.3388
vn -0.7632 -0.4318 -0.4807
vn -0.8391 -0.1499 -0.5230
vn 0.1605 -0.4284 0.8892
vn -0.1561 -0.4345 0.8870
vn 0.1689 -0.1446 0.9750
vn -0.1672 -0.1472 0.9749
vn 0.3388 -0.7487 0.5698
vn 0.1249 -0.7755 0.6189
vn -0.1245 -0.7751 0.6195
vn -0.3864 -0.7084 0.5907
vn -0.4784 -0.4347 0.7630
vn -0.5212 -0.1526 0.8397
vn -0.5271 -0.0199 0.8496
vn -0.1688 -0.0193 0.9855
vn 0.1689 -0.0192 0.9854
vn 0.5272 -0.0197 0.8495
vn 0.5230 -0.1499 0.8391
vn 0.4807 -0.4318 0.7632
vn 0.0179 -0.9998 -0.0111
vn 0.0201 -0.9998 -0.0034
vn 0.0196 -0.9998 0.0033
vn 0.0173 -0.9998 0.0107
vn -0.0179 -0.9998 0.0111
vn -0.0201 -0.9998 0.0034
vn -0.0196 -0.9998 -0.0033
vn -0.0173 -0.9998 -0.0107
vn 0.0111 -0.9998 0.0179
vn 0.0034 -0.9998 0.0201
vn -0.0033 -0.9998 0.0196
vn -0.0107 -0.9998 0.0173
vn 0.0107 -0.9998 -0.0173
vn 0.0033 -0.9998 -0.0196
vn -0.0034 -0.9998 -0.0201
vn -0.0111 -0.9998 -0.0179
vn 0.0173 -0.9998 -0.0107
vn 0.0196 -0.9998 -0.0033
vn 0.0201 -0.9998 0.0034
vn 0.0179 -0.9998 0.0111
vn -0.0173 -0.9998 0.0107
vn -0.0196 -0.9998 0.0033
vn -0.0201 -0.9998 -0.0034
vn -0.0179 -0.9998 -0.0111
vn 0.0107 -0.9998 0.0173
vn 0.0033 -0.9998 0.0196
vn -0.0034 -0.9998 0.0201
vn -0.0111 -0.9998 0.0179
vn 0.0111 -0.9998 -0.0179
vn 0.0034 -0.9998 -0.0201
vn -0.0033 -0.9998 -0.0196
vn -0.0107 -0.9998 -0.0173
usemtl Material
s off
f 1/1/1 14/2/1 13/3/1
f 2/4/2 14/5/2 16/6/2
f 1/7/3 13/8/3 18/9/3
f 1/10/4 18/11/4 20/12/4
f 1/13/5 20/14/5 17/15/5
f 2/4/6 16/6/6 23/16/6
f 3/17/7 15/18/7 25/19/7
f 4/20/8 19/21/8 27/22/8
f 5/23/9 21/24/9 29/25/9
f 6/26/10 22/27/10 31/28/10
f 2/4/11 23/16/11 26/29/11
f 3/17/12 25/19/12 28/30/12
f 4/20/13 27/22/13 30/31/13
f 5/23/14 29/25/14 32/32/14
f 6/26/15 31/28/15 24/33/15
f 7/34/16 33/35/16 38/36/16
f 8/37/17 34/38/17 40/39/17
f 9/40/18 35/41/18 41/42/18
f 10/43/19 36/44/19 42/45/19
f 11/46/20 37/47/20 39/48/20
f 39/48/21 42/49/21 12/50/21
f 39/48/22 37/47/22 42/49/22
f 37/47/23 10/43/23 42/49/23
f 42/45/24 41/51/24 12/52/24
f 42/45/25 36/44/25 41/51/25
f 36/44/26 9/40/26 41/51/26
f 41/42/27 40/53/27 12/54/27
f 41/42/28 35/41/28 40/53/28
f 35/41/29 8/55/29 40/53/29
f 40/39/30 38/56/30 12/57/30
f 40/39/31 34/38/31 38/56/31
f 34/38/32 7/34/32 38/56/32
f 38/36/33 39/58/33 12/59/33
f 38/36/34 33/35/34 39/58/34
f 33/35/35 11/46/35 39/58/35
f 24/33/36 37/47/36 11/46/36
f 24/33/37 31/28/37 37/47/37
f 31/28/38 10/43/38 37/47/38
f 32/32/39 36/44/39 10/43/39
f 32/32/40 29/25/40 36/44/40
f 29/25/41 9/40/41 36/44/41
f 30/31/42 35/41/42 9/40/42
f 30/31/43 27/22/43 35/41/43
f 27/22/44 8/55/44 35/41/44
f 28/30/45 34/38/45 8/37/45
f 28/30/46 25/19/46 34/38/46
f 25/19/47 7/34/47 34/38/47
f 26/29/48 33/35/48 7/34/48
f 26/29/49 23/16/49 33/35/49
f 23/16/50 11/46/50 33/35/50
f 31/28/51 32/32/51 10/43/51
f 31/28/52 22/27/52 32/32/52
f 22/27/53 5/23/53 32/32/53
f 29/25/54 30/31/54 9/40/54
f 29/25/55 21/24/55 30/31/55
f 21/24/56 4/20/56 30/31/56
f 27/22/57 28/60/57 8/55/57
f 27/22/58 19/21/58 28/60/58
f 19/21/59 3/61/59 28/60/59
f 25/19/60 26/29/60 7/34/60
f 25/19/61 15/18/61 26/29/61
f 15/18/62 2/4/62 26/29/62
f 23/16/63 24/33/63 11/46/63
f 23/16/64 16/6/64 24/33/64
f 16/6/65 6/26/65 24/33/65
f 17/15/66 22/27/66 6/26/66
f 17/15/67 20/14/67 22/27/67
f 20/14/68 5/23/68 22/27/68
f 20/12/69 21/24/69 5/23/69
f 20/12/70 18/11/70 21/24/70
f 18/11/71 4/20/71 21/24/71
f 18/9/72 19/21/72 4/20/72
f 18/9/73 13/8/73 19/21/73
f 13/8/74 3/61/74 19/21/74
f 16/6/75 17/62/75 6/26/75
f 16/6/76 14/5/76 17/62/76
f 14/5/77 1/63/77 17/62/77
f 13/3/78 15/18/78 3/17/78
f 13/3/79 14/2/79 15/18/79
f 14/2/80 2/4/80 15/18/80
f 88/64/81 90/65/81 87/66/81
f 88/64/82 92/67/82 91/68/82
f 91/68/83 93/69/83 90/65/83
f 91/68/84 95/70/84 94/71/84
f 83/72/85 74/73/85 49/74/85
f 82/75/86 87/66/86 83/72/86
f 82/75/87 89/76/87 88/64/87
f 81/77/88 57/78/88 89/76/88
f 89/76/89 58/79/89 92/67/89
f 92/67/90 59/80/90 95/70/90
f 95/70/91 46/81/91 60/82/91
f 95/70/92 61/83/92 94/71/92
f 93/69/93 61/83/93 62/84/93
f 93/69/94 45/85/94 72/86/94
f 90/65/95 72/86/95 73/87/95
f 87/66/96 73/87/96 74/73/96
f 96/88/97 100/89/97 99/90/97
f 98/91/98 100/89/98 97/92/98
f 100/89/99 102/93/99 99/90/99
f 100/89/100 104/94/100 103/95/100
f 45/85/101 96/88/101 65/96/101
f 62/84/102 97/92/102 96/88/102
f 60/82/103 97/92/103 61/83/103
f 46/81/104 98/91/104 60/82/104
f 66/97/105 101/98/105 98/91/105
f 101/98/106 68/99/106 104/94/106
f 104/94/107 44/100/107 56/101/107
f 103/95/108 56/101/108 55/102/108
f 103/95/109 54/103/109 102/93/109
f 102/93/110 43/104/110 63/105/110
f 99/90/111 63/105/111 64/106/111
f 65/96/112 99/90/112 64/106/112
f 106/107/113 108/108/113 105/109/113
f 106/107/114 110/110/114 109/111/114
f 109/111/115 111/112/115 108/108/115
f 109/111/116 113/113/116 112/114/116
f 80/115/117 51/116/117 47/117/117
f 79/118/118 105/109/118 80/115/118
f 79/118/119 107/119/119 106/107/119
f 78/120/120 74/73/120 107/119/120
f 107/119/121 73/87/121 110/110/121
f 110/110/122 72/86/122 113/113/122
f 113/113/123 45/85/123 65/121/123
f 113/113/124 64/122/124 112/114/124
f 111/112/125 64/122/125 63/123/125
f 111/112/126 43/124/126 53/125/126
f 108/108/127 53/125/127 52/126/127
f 105/109/128 52/126/128 51/116/128
f 115/127/129 117/128/129 114/129/129
f 115/127/130 119/130/130 118/131/130
f 118/131/131 120/132/131 117/128/131
f 118/131/132 122/133/132 121/134/132
f 77/135/133 57/78/133 50/136/133
f 76/137/134 114/129/134 77/135/134
f 76/137/135 116/138/135 115/127/135
f 75/139/136 71/140/136 116/138/136
f 116/138/137 70/141/137 119/130/137
f 119/130/138 69/142/138 122/133/138
f 122/133/139 44/143/139 68/144/139
f 122/133/140 67/145/140 121/134/140
f 120/132/141 67/145/141 66/146/141
f 120/132/142 46/81/142 59/80/142
f 117/128/143 59/80/143 58/79/143
f 114/129/144 58/79/144 57/78/144
f 123/147/145 127/148/145 126/149/145
f 125/150/146 127/148/146 124/151/146
f 126/149/147 130/152/147 129/153/147
f 128/154/148 130/152/148 127/148/148
f 43/155/149 123/147/149 53/156/149
f 55/157/150 123/147/150 54/158/150
f 55/157/151 125/150/151 124/151/151
f 44/159/152 125/150/152 56/160/152
f 69/161/153 128/154/153 125/150/153
f 70/162/154 131/163/154 128/154/154
f 71/164/155 84/165/155 131/163/155
f 131/163/156 85/166/156 130/152/156
f 129/153/157 85/166/157 86/167/157
f 51/168/158 86/167/158 47/169/158
f 52/170/159 129/153/159 51/168/159
f 53/156/160 126/149/160 52/170/160
f 88/64/161 91/68/161 90/65/161
f 88/64/162 89/76/162 92/67/162
f 91/68/163 94/71/163 93/69/163
f 91/68/164 92/67/164 95/70/164
f 83/72/165 87/66/165 74/73/165
f 82/75/166 88/64/166 87/66/166
f 82/75/167 81/77/167 89/76/167
f 81/77/168 50/136/168 57/78/168
f 89/76/169 57/78/169 58/79/169
f 92/67/170 58/79/170 59/80/170
f 95/70/171 59/80/171 46/81/171
f 95/70/172 60/82/172 61/83/172
f 93/69/173 94/71/173 61/83/173
f 93/69/174 62/84/174 45/85/174
f 90/65/175 93/69/175 72/86/175
f 87/66/176 90/65/176 73/87/176
f 96/88/177 97/92/177 100/89/177
f 98/91/178 101/98/178 100/89/178
f 100/89/179 103/95/179 102/93/179
f 100/89/180 101/98/180 104/94/180
f 45/85/181 62/84/181 96/88/181
f 62/84/182 61/83/182 97/92/182
f 60/82/183 98/91/183 97/92/183
f 46/81/184 66/97/184 98/91/184
f 66/97/185 67/171/185 101/98/185
f 101/98/186 67/171/186 68/99/186
f 104/94/187 68/99/187 44/100/187
f 103/95/188 104/94/188 56/101/188
f 103/95/189 55/102/189 54/103/189
f 102/93/190 54/103/190 43/104/190
f 99/90/191 102/93/191 63/105/191
f 65/96/192 96/88/192 99/90/192
f 106/107/193 109/111/193 108/108/193
f 106/107/194 107/119/194 110/110/194
f 109/111/195 112/114/195 111/112/195
f 109/111/196 110/110/196 113/113/196
f 80/115/197 105/109/197 51/116/197
f 79/118/198 106/107/198 105/109/198
f 79/118/199 78/120/199 107/119/199
f 78/120/200 49/74/200 74/73/200
f 107/119/201 74/73/201 73/87/201
f 110/110/202 73/87/202 72/86/202
f 113/113/203 72/86/203 45/85/203
f 113/113/204 65/121/204 64/122/204
f 111/112/205 112/114/205 64/122/205
f 111/112/206 63/123/206 43/124/206
f 108/108/207 111/112/207 53/125/207
f 105/109/208 108/108/208 52/126/208
f 115/127/209 118/131/209 117/128/209
f 115/127/210 116/138/210 119/130/210
f 118/131/211 121/134/211 120/132/211
f 118/131/212 119/130/212 122/133/212
f 77/135/213 114/129/213 57/78/213
f 76/137/214 115/127/214 114/129/214
f 76/137/215 75/139/215 116/138/215
f 75/139/216 48/172/216 71/140/216
f 116/138/217 71/140/217 70/141/217
f 119/130/218 70/141/218 69/142/218
f 122/133/219 69/142/219 44/143/219
f 122/133/220 68/144/220 67/145/220
f 120/132/221 121/134/221 67/145/221
f 120/132/222 66/146/222 46/81/222
f 117/128/223 120/132/223 59/80/223
f 114/129/224 117/128/224 58/79/224
f 123/147/225 124/151/225 127/148/225
f 125/150/226 128/154/226 127/148/226
f 126/149/227 127/148/227 130/152/227
f 128/154/228 131/163/228 130/152/228
f 43/155/229 54/158/229 123/147/229
f 55/157/230 124/151/230 123/147/230
f 55/157/231 56/160/231 125/150/231
f 44/159/232 69/161/232 125/150/232
f 69/161/233 70/162/233 128/154/233
f 70/162/234 71/164/234 131/163/234
f 71/164/235 48/173/235 84/165/235
f 131/163/236 84/165/236 85/166/236
f 129/153/237 130/152/237 85/166/237
f 51/168/238 129/153/238 86/167/238
f 52/170/239 126/149/239 129/153/239
f 53/156/240 123/147/240 126/149/240
f 177/174/241 176/175/241 179/176/241
f 177/174/242 180/177/242 181/178/242
f 180/177/243 179/176/243 182/179/243
f 180/177/244 183/180/244 184/181/244
f 172/182/245 138/183/245 163/184/245
f 171/185/246 172/182/246 176/175/246
f 171/185/247 177/174/247 178/186/247
f 170/187/248 178/186/248 146/188/248
f 178/186/249 181/178/249 147/189/249
f 181/178/250 184/181/250 148/190/250
f 184/181/251 149/191/251 135/192/251
f 184/181/252 183/180/252 150/193/252
f 182/179/253 151/194/253 150/193/253
f 182/179/254 161/195/254 134/196/254
f 179/176/255 162/197/255 161/195/255
f 176/175/256 163/184/256 162/197/256
f 185/198/257 188/199/257 189/200/257
f 187/201/258 186/202/258 189/200/258
f 189/200/259 188/199/259 191/203/259
f 189/200/260 192/204/260 193/205/260
f 134/196/261 154/206/261 185/198/261
f 151/194/262 185/198/262 186/202/262
f 149/191/263 150/193/263 186/202/263
f 135/192/264 149/191/264 187/201/264
f 155/207/265 187/201/265 190/208/265
f 190/208/266 193/205/266 157/209/266
f 193/205/267 145/210/267 133/211/267
f 192/204/268 144/212/268 145/210/268
f 192/204/269 191/203/269 143/213/269
f 191/203/270 152/214/270 132/215/270
f 188/199/271 153/216/271 152/214/271
f 154/206/272 153/216/272 188/199/272
f 195/217/273 194/218/273 197/219/273
f 195/217/274 198/220/274 199/221/274
f 198/220/275 197/219/275 200/222/275
f 198/220/276 201/223/276 202/224/276
f 169/225/277 136/226/277 140/227/277
f 168/228/278 169/225/278 194/218/278
f 168/228/279 195/217/279 196/229/279
f 167/230/280 196/229/280 163/184/280
f 196/229/281 199/221/281 162/197/281
f 199/221/282 202/224/282 161/195/282
f 202/224/283 154/231/283 134/196/283
f 202/224/284 201/223/284 153/232/284
f 200/222/285 152/233/285 153/232/285
f 200/222/286 142/234/286 132/235/286
f 197/219/287 141/236/287 142/234/287
f 194/218/288 140/227/288 141/236/288
f 204/237/289 203/238/289 206/239/289
f 204/237/290 207/240/290 208/241/290
f 207/240/291 206/239/291 209/242/291
f 207/240/292 210/243/292 211/244/292
f 166/245/293 139/246/293 146/188/293
f 165/247/294 166/245/294 203/238/294
f 165/247/295 204/237/295 205/248/295
f 164/249/296 205/248/296 160/250/296
f 205/248/297 208/241/297 159/251/297
f 208/241/298 211/244/298 158/252/298
f 211/244/299 157/253/299 133/254/299
f 211/244/300 210/243/300 156/255/300
f 209/242/301 155/256/301 156/255/301
f 209/242/302 148/190/302 135/192/302
f 206/239/303 147/189/303 148/190/303
f 203/238/304 146/188/304 147/189/304
f 212/257/305 215/258/305 216/259/305
f 214/260/306 213/261/306 216/259/306
f 215/258/307 218/262/307 219/263/307
f 217/264/308 216/259/308 219/263/308
f 132/265/309 142/266/309 212/257/309
f 144/267/310 143/268/310 212/257/310
f 144/267/311 213/261/311 214/260/311
f 133/269/312 145/270/312 214/260/312
f 158/271/313 214/260/313 217/264/313
f 159/272/314 217/264/314 220/273/314
f 160/274/315 220/273/315 173/275/315
f 220/273/316 219/263/316 174/276/316
f 218/262/317 175/277/317 174/276/317
f 140/278/318 136/279/318 175/277/318
f 141/280/319 140/278/319 218/262/319
f 142/266/320 141/280/320 215/258/320
f 177/174/321 179/176/321 180/177/321
f 177/174/322 181/178/322 178/186/322
f 180/177/323 182/179/323 183/180/323
f 180/177/324 184/181/324 181/178/324
f 172/182/325 163/184/325 176/175/325
f 171/185/326 176/175/326 177/174/326
f 171/185/327 178/186/327 170/187/327
f 170/187/328 146/188/328 139/246/328
f 178/186/329 147/189/329 146/188/329
f 181/178/330 148/190/330 147/189/330
f 184/181/331 135/192/331 148/190/331
f 184/181/332 150/193/332 149/191/332
f 182/179/333 150/193/333 183/180/333
f 182/179/334 134/196/334 151/194/334
f 179/176/335 161/195/335 182/179/335
f 176/175/336 162/197/336 179/176/336
f 185/198/337 189/200/337 186/202/337
f 187/201/338 189/200/338 190/208/338
f 189/200/339 191/203/339 192/204/339
f 189/200/340 193/205/340 190/208/340
f 134/196/341 185/198/341 151/194/341
f 151/194/342 186/202/342 150/193/342
f 149/191/343 186/202/343 187/201/343
f 135/192/344 187/201/344 155/207/344
f 155/207/345 190/208/345 156/281/345
f 190/208/346 157/209/346 156/281/346
f 193/205/347 133/211/347 157/209/347
f 192/204/348 145/210/348 193/205/348
f 192/204/349 143/213/349 144/212/349
f 191/203/350 132/215/350 143/213/350
f 188/199/351 152/214/351 191/203/351
f 154/206/352 188/199/352 185/198/352
f 195/217/353 197/219/353 198/220/353
f 195/217/354 199/221/354 196/229/354
f 198/220/355 200/222/355 201/223/355
f 198/220/356 202/224/356 199/221/356
f 169/225/357 140/227/357 194/218/357
f 168/228/358 194/218/358 195/217/358
f 168/228/359 196/229/359 167/230/359
f 167/230/360 163/184/360 138/183/360
f 196/229/361 162/197/361 163/184/361
f 199/221/362 161/195/362 162/197/362
f 202/224/363 134/196/363 161/195/363
f 202/224/364 153/232/364 154/231/364
f 200/222/365 153/232/365 201/223/365
f 200/222/366 132/235/366 152/233/366
f 197/219/367 142/234/367 200/222/367
f 194/218/368 141/236/368 197/219/368
f 204/237/369 206/239/369 207/240/369
f 204/237/370 208/241/370 205/248/370
f 207/240/371 209/242/371 210/243/371
f 207/240/372 211/244/372 208/241/372
f 166/245/373 146/188/373 203/238/373
f 165/247/374 203/238/374 204/237/374
f 165/247/375 205/248/375 164/249/375
f 164/249/376 160/250/376 137/282/376
f 205/248/377 159/251/377 160/250/377
f 208/241/378 158/252/378 159/251/378
f 211/244/379 133/254/379 158/252/379
f 211/244/380 156/255/380 157/253/380
f 209/242/381 156/255/381 210/243/381
f 209/242/382 135/192/382 155/256/382
f 206/239/383 148/190/383 209/242/383
f 203/238/384 147/189/384 206/239/384
f 212/257/385 216/259/385 213/261/385
f 214/260/386 216/259/386 217/264/386
f 215/258/387 219/263/387 216/259/387
f 217/264/388 219/263/388 220/273/388
f 132/265/389 212/257/389 143/268/389
f 144/267/390 212/257/390 213/261/390
f 144/267/391 214/260/391 145/270/391
f 133/269/392 214/260/392 158/271/392
f 158/271/393 217/264/393 159/272/393
f 159/272/394 220/273/394 160/274/394
f 160/274/395 173/275/395 137/283/395
f 220/273/396 174/276/396 173/275/396
f 218/262/397 174/276/397 219/263/397
f 140/278/398 175/277/398 218/262/398
f 141/280/399 218/262/399 215/258/399
f 142/266/400 215/258/400 212/257/400
f 75/139/401 137/282/401 48/172/401
f 76/137/402 164/249/402 75/139/402
f 76/137/403 166/245/403 165/247/403
f 77/135/404 139/246/404 166/245/404
f 78/120/405 138/183/405 49/74/405
f 79/118/406 167/230/406 78/120/406
f 79/118/407 169/225/407 168/228/407
f 80/115/408 136/226/408 169/225/408
f 81/77/409 139/246/409 50/136/409
f 82/75/410 170/187/410 81/77/410
f 82/75/411 172/182/411 171/185/411
f 83/72/412 138/183/412 172/182/412
f 84/165/413 137/283/413 173/275/413
f 85/166/414 173/275/414 174/276/414
f 85/166/415 175/277/415 86/167/415
f 86/167/416 136/279/416 47/169/416
f 221/284/1 234/285/1 233/286/1
f 222/287/2 234/288/2 236/289/2
f 221/290/3 233/291/3 238/292/3
f 221/293/4 238/294/4 240/295/4
f 221/296/5 240/297/5 237/298/5
f 222/287/6 236/289/6 243/299/6
f 223/300/7 235/301/7 245/302/7
f 224/303/8 239/304/8 247/305/8
f 225/306/9 241/307/9 249/308/9
f 226/309/10 242/310/10 251/311/10
f 222/287/11 243/299/11 246/312/11
f 223/300/12 245/302/12 248/313/12
f 224/303/13 247/305/13 250/314/13
f 225/306/14 249/308/14 252/315/14
f 226/309/15 251/311/15 244/316/15
f 227/317/16 253/318/16 258/319/16
f 228/320/17 254/321/17 260/322/17
f 229/323/18 255/324/18 261/325/18
f 230/326/19 256/327/19 262/328/19
f 231/329/20 257/330/20 259/331/20
f 259/331/21 262/332/21 232/333/21
f 259/331/22 257/330/22 262/332/22
f 257/330/23 230/326/23 262/332/23
f 262/328/24 261/334/24 232/335/24
f 262/328/25 256/327/25 261/334/25
f 256/327/26 229/323/26 261/334/26
f 261/325/27 260/336/27 232/337/27
f 261/325/28 255/324/28 260/336/28
f 255/324/29 228/338/29 260/336/29
f 260/322/30 258/339/30 232/340/30
f 260/322/31 254/321/31 258/339/31
f 254/321/32 227/317/32 258/339/32
f 258/319/33 259/341/33 232/342/33
f 258/319/34 253/318/34 259/341/34
f 253/318/35 231/329/35 259/341/35
f 244/316/36 257/330/36 231/329/36
f 244/316/37 251/311/37 257/330/37
f 251/311/38 230/326/38 257/330/38
f 252/315/39 256/327/39 230/326/39
f 252/315/40 249/308/40 256/327/40
f 249/308/41 229/323/41 256/327/41
f 250/314/42 255/324/42 229/323/42
f 250/314/43 247/305/43 255/324/43
f 247/305/44 228/338/44 255/324/44
f 248/313/45 254/321/45 228/320/45
f 248/313/46 245/302/46 254/321/46
f 245/302/47 227/317/47 254/321/47
f 246/312/48 253/318/48 227/317/48
f 246/312/49 243/299/49 253/318/49
f 243/299/50 231/329/50 253/318/50
f 251/311/51 252/315/51 230/326/51
f 251/311/52 242/310/52 252/315/52
f 242/310/53 225/306/53 252/315/53
f 249/308/54 250/314/54 229/323/54
f 249/308/55 241/307/55 250/314/55
f 241/307/56 224/303/56 250/314/56
f 247/305/57 248/343/57 228/338/57
f 247/305/58 239/304/58 248/343/58
f 239/304/59 223/344/59 248/343/59
f 245/302/60 246/312/60 227/317/60
f 245/302/61 235/301/61 246/312/61
f 235/301/62 222/287/62 246/312/62
f 243/299/63 244/316/63 231/329/63
f 243/299/64 236/289/64 244/316/64
f 236/289/65 226/309/65 244/316/65
f 237/298/66 242/310/66 226/309/66
f 237/298/67 240/297/67 242/310/67
f 240/297/68 225/306/68 242/310/68
f 240/295/69 241/307/69 225/306/69
f 240/295/70 238/294/70 241/307/70
f 238/294/71 224/303/71 241/307/71
f 238/292/72 239/304/72 224/303/72
f 238/292/73 233/291/73 239/304/73
f 233/291/74 223/344/74 239/304/74
f 236/289/75 237/345/75 226/309/75
f 236/289/76 234/288/76 237/345/76
f 234/288/77 221/346/77 237/345/77
f 233/286/78 235/301/78 223/300/78
f 233/286/79 234/285/79 235/301/79
f 234/285/80 222/287/80 235/301/80
f 75/139/417 164/249/417 137/282/417
f 76/137/418 165/247/418 164/249/418
f 76/137/419 77/135/419 166/245/419
f 77/135/420 50/136/420 139/246/420
f 78/120/421 167/230/421 138/183/421
f 79/118/422 168/228/422 167/230/422
f 79/118/423 80/115/423 169/225/423
f 80/115/424 47/117/424 136/226/424
f 81/77/425 170/187/425 139/246/425
f 82/75/426 171/185/426 170/187/426
f 82/75/427 83/72/427 172/182/427
f 83/72/428 49/74/428 138/183/428
f 84/165/429 48/173/429 137/283/429
f 85/166/430 84/165/430 173/275/430
f 85/166/431 174/276/431 175/277/431
f 86/167/432 175/277/432 136/279/432
