# Blender v3.1.2 OBJ File: ''
# www.blender.org
mtllib Пихо-Копьё(a).mtl
o Cube.001
v 0.377882 0.377882 -0.377882
v 0.377882 -0.377882 -0.377882
v 0.377882 0.377882 0.377882
v 0.377882 -0.377882 0.377882
v -0.377882 0.377882 -0.377882
v -0.377882 -0.377882 -0.377882
v -0.377882 0.377882 0.377882
v -0.377882 -0.377882 0.377882
v 0.377882 0.377882 -3.000449
v 0.377882 -0.377882 -3.000449
v -0.377882 0.377882 -3.000449
v -0.377882 -0.377882 -3.000449
v 0.377882 0.377882 -3.118582
v 0.377882 -0.377882 -3.118582
v -0.377882 0.377882 -3.118582
v -0.377882 -0.377882 -3.118582
v 0.377882 0.377882 -3.961269
v 0.377882 -0.377882 -3.961269
v -0.377882 0.377882 -3.961269
v -0.377882 -0.377882 -3.961269
v 0.377882 0.377882 -4.095154
v 0.377882 -0.377882 -4.095154
v -0.377882 0.377882 -4.095154
v -0.377882 -0.377882 -4.095154
v 0.377882 0.377882 -4.874836
v 0.377882 -0.377882 -4.874836
v -0.377882 0.377882 -4.874836
v -0.377882 -0.377882 -4.874836
v 0.000000 0.000000 -5.252864
v -0.377882 0.377882 -1.689165
v -0.377882 -0.377882 -1.689165
v 0.377882 -0.377882 -1.689165
v 0.377882 0.377882 -1.689165
v -0.377882 -0.377882 -1.554877
v 0.377882 -0.377882 -1.554877
v -0.377882 0.377882 -1.554877
v 0.377882 0.377882 -1.554877
v -0.377882 -0.377882 -0.966380
v 0.377882 -0.377882 -0.966380
v -0.377882 0.377882 -0.966380
v 0.377882 0.377882 -0.966380
v -0.377882 -0.377882 -0.849790
v 0.377882 -0.377882 -0.849790
v -0.377882 0.377882 -0.849790
v 0.377882 0.377882 -0.849790
v -0.377882 -0.377882 -0.734557
v 0.377882 -0.377882 -0.734557
v -0.377882 0.377882 -0.734557
v 0.377882 0.377882 -0.734557
v -0.377882 -0.377882 -0.623096
v 0.377882 -0.377882 -0.623096
v -0.377882 0.377882 -0.623096
v 0.377882 0.377882 -0.623096
v -0.377882 -0.377882 -0.500489
v 0.377882 -0.377882 -0.500489
v -0.377882 0.377882 -0.500489
v 0.377882 0.377882 -0.500489
vt 0.875000 0.500000
vt 0.625000 0.750000
vt 0.625000 0.500000
vt 0.375000 1.000000
vt 0.375000 0.750000
vt 0.625000 0.000000
vt 0.375000 0.250000
vt 0.375000 0.000000
vt 0.375000 0.500000
vt 0.125000 0.750000
vt 0.125000 0.500000
vt 0.625000 0.250000
vt 0.375000 0.250000
vt 0.375000 0.250000
vt 0.125000 0.500000
vt 0.375000 0.500000
vt 0.375000 0.500000
vt 0.625000 0.500000
vt 0.875000 0.500000
vt 0.875000 0.500000
vt 0.625000 0.500000
vt 0.625000 0.500000
vt 0.875000 0.500000
vt 0.875000 0.500000
vt 0.375000 0.500000
vt 0.625000 0.500000
vt 0.625000 0.250000
vt 0.375000 0.250000
vt 0.375000 0.250000
vt 0.125000 0.500000
vt 0.375000 0.500000
vt 0.625000 0.250000
vt 0.375000 0.250000
vt 0.375000 0.250000
vt 0.875000 0.500000
vt 0.625000 0.500000
vt 0.875000 0.500000
vt 0.125000 0.500000
vt 0.375000 0.500000
vt 0.375000 0.500000
vt 0.625000 0.500000
vt 0.875000 0.500000
vt 0.625000 0.500000
vt 0.625000 0.250000
vt 0.375000 0.250000
vt 0.125000 0.500000
vt 0.375000 0.500000
vt 0.625000 0.250000
vt 0.375000 0.250000
vt 0.375000 0.250000
vt 0.125000 0.500000
vt 0.375000 0.500000
vt 0.375000 0.500000
vt 0.625000 0.500000
vt 0.875000 0.500000
vt 0.875000 0.500000
vt 0.625000 0.500000
vt 0.625000 0.250000
vt 0.375000 0.250000
vt 0.375000 0.250000
vt 0.125000 0.500000
vt 0.375000 0.500000
vt 0.375000 0.500000
vt 0.625000 0.500000
vt 0.875000 0.500000
vt 0.875000 0.500000
vt 0.625000 0.500000
vt 0.625000 0.250000
vt 0.375000 0.250000
vt 0.375000 0.250000
vt 0.125000 0.500000
vt 0.375000 0.500000
vt 0.375000 0.500000
vt 0.625000 0.500000
vt 0.875000 0.500000
vt 0.875000 0.500000
vt 0.625000 0.500000
vt 0.875000 0.750000
vt 0.625000 1.000000
vt 0.625000 0.250000
vt 0.625000 0.250000
vt 0.125000 0.500000
vt 0.625000 0.250000
vt 0.125000 0.500000
vt 0.625000 0.250000
vt 0.125000 0.500000
vt 0.625000 0.250000
vt 0.125000 0.500000
vt 0.625000 0.250000
vt 0.125000 0.500000
vn 0.0000 1.0000 0.0000
vn 0.0000 0.0000 1.0000
vn -1.0000 0.0000 0.0000
vn 0.0000 -1.0000 0.0000
vn 1.0000 0.0000 0.0000
vn 0.0000 0.7072 -0.7070
vn 0.7072 0.0000 -0.7070
vn -0.7072 0.0000 -0.7070
vn 0.0000 -0.7072 -0.7070
usemtl Material
s off
f 5/1/1 3/2/1 1/3/1
f 3/2/2 8/4/2 4/5/2
f 7/6/3 6/7/3 8/8/3
f 2/9/4 8/10/4 6/11/4
f 1/3/5 4/5/5 2/9/5
f 30/12/3 12/13/3 31/14/3
f 31/15/4 10/16/4 32/17/4
f 33/18/1 11/19/1 30/20/1
f 32/17/5 9/21/5 33/18/5
f 13/22/1 19/23/1 15/24/1
f 14/25/5 17/26/5 13/22/5
f 15/27/3 20/28/3 16/29/3
f 16/30/4 18/31/4 14/25/4
f 23/32/3 28/33/3 24/34/3
f 27/35/6 25/36/6 29/37/6
f 24/38/4 26/39/4 22/40/4
f 21/41/1 27/35/1 23/42/1
f 22/40/5 25/36/5 21/41/5
f 25/36/7 26/39/7 29/43/7
f 28/33/8 27/44/8 29/45/8
f 26/39/9 28/46/9 29/47/9
f 40/48/3 34/49/3 38/50/3
f 38/51/4 35/52/4 39/53/4
f 41/54/1 36/55/1 40/56/1
f 39/53/5 37/57/5 41/54/5
f 48/58/3 42/59/3 46/60/3
f 46/61/4 43/62/4 47/63/4
f 49/64/1 44/65/1 48/66/1
f 47/63/5 45/67/5 49/64/5
f 56/68/3 50/69/3 54/70/3
f 54/71/4 51/72/4 55/73/4
f 57/74/1 52/75/1 56/76/1
f 55/73/5 53/77/5 57/74/5
f 5/1/1 7/78/1 3/2/1
f 3/2/2 7/79/2 8/4/2
f 7/6/3 5/80/3 6/7/3
f 2/9/4 4/5/4 8/10/4
f 1/3/5 3/2/5 4/5/5
f 30/12/3 11/81/3 12/13/3
f 31/15/4 12/82/4 10/16/4
f 33/18/1 9/21/1 11/19/1
f 32/17/5 10/16/5 9/21/5
f 13/22/1 17/26/1 19/23/1
f 14/25/5 18/31/5 17/26/5
f 15/27/3 19/83/3 20/28/3
f 16/30/4 20/84/4 18/31/4
f 23/32/3 27/44/3 28/33/3
f 24/38/4 28/46/4 26/39/4
f 21/41/1 25/36/1 27/35/1
f 22/40/5 26/39/5 25/36/5
f 40/48/3 36/85/3 34/49/3
f 38/51/4 34/86/4 35/52/4
f 41/54/1 37/57/1 36/55/1
f 39/53/5 35/52/5 37/57/5
f 48/58/3 44/87/3 42/59/3
f 46/61/4 42/88/4 43/62/4
f 49/64/1 45/67/1 44/65/1
f 47/63/5 43/62/5 45/67/5
f 56/68/3 52/89/3 50/69/3
f 54/71/4 50/90/4 51/72/4
f 57/74/1 53/77/1 52/75/1
f 55/73/5 51/72/5 53/77/5
