# Blender v3.1.2 OBJ File: ''
# www.blender.org
mtllib Пихо-Мики(b).mtl
o Cube.001_Cube.003
v -0.569565 -0.786531 -0.904548
v -0.413911 0.692185 -0.578722
v 0.675669 -0.786531 -0.904549
v 0.520015 0.692185 -0.578723
v -0.413910 -0.708704 0.355204
v -0.413910 0.692185 0.355204
v 0.520016 -0.708704 0.355203
v 0.520016 0.692185 0.355203
v -0.656732 -0.008259 -0.944067
v 0.762836 -0.008259 -0.944067
v 0.675670 -0.008259 0.510857
v -0.569564 -0.008259 0.510858
v 0.520015 -0.708704 -1.811458
v -0.413911 -0.708704 -1.811457
v 0.520015 -0.241741 -1.811458
v -0.413911 -0.241741 -1.811457
v 0.393546 -0.874086 -0.904549
v 0.053052 -0.903271 -0.904548
v -0.287442 -0.874086 -0.904548
v -0.598456 0.231055 -0.807251
v -0.552241 0.432401 -0.729674
v -0.486525 0.593941 -0.652914
v -0.223997 0.726242 -0.646836
v 0.053052 0.743349 -0.681051
v 0.330101 0.726242 -0.646837
v 0.901650 -0.248834 -0.919158
v 0.924976 -0.459008 -0.908783
v 0.852759 -0.643442 -0.905078
v 0.591462 -0.744427 0.160108
v 0.649007 -0.773199 -0.153209
v 0.672337 -0.784864 -0.526567
v 0.588129 0.726242 -0.388809
v 0.622344 0.743349 -0.111760
v 0.588129 0.726242 0.165289
v 0.672337 -0.238047 0.507524
v 0.649007 -0.445677 0.484194
v 0.591462 -0.610053 0.426650
v -0.223996 -0.742760 0.423317
v 0.053053 -0.759868 0.457532
v 0.330102 -0.742760 0.423317
v 0.330102 0.726242 0.423317
v 0.053053 0.743349 0.457532
v -0.223996 0.726242 0.423317
v -0.566232 -0.238047 0.507525
v -0.542902 -0.445677 0.484195
v -0.485357 -0.610053 0.426650
v -0.566232 -0.784864 -0.526567
v -0.542902 -0.773199 -0.153208
v -0.485357 -0.744427 0.160109
v -0.482024 0.726242 0.165290
v -0.516239 0.743349 -0.111759
v -0.482025 0.726242 -0.388808
v -0.746655 -0.643442 -0.905077
v -0.818872 -0.459008 -0.908782
v -0.795546 -0.248834 -0.919157
v 0.592629 0.593941 -0.652915
v 0.658346 0.432401 -0.729674
v 0.704560 0.231055 -0.807252
v 0.591462 0.593535 0.426650
v 0.649007 0.429158 0.484194
v 0.672337 0.221529 0.507524
v -0.485357 0.593535 0.426650
v -0.542902 0.429158 0.484195
v -0.566232 0.221529 0.507525
v -0.746654 -0.008259 0.225990
v -0.818871 -0.008259 -0.133720
v -0.795546 -0.008259 -0.528055
v 0.393547 -0.008259 0.685969
v 0.053053 -0.008259 0.744339
v -0.287441 -0.008259 0.685969
v 0.901650 -0.008259 -0.528056
v 0.924976 -0.008259 -0.133720
v 0.852759 -0.008259 0.225989
v -0.318093 0.089025 -1.114255
v 0.053052 0.114967 -1.159469
v 0.424197 0.089025 -1.114255
v 0.330101 -0.742760 -1.848691
v 0.053052 -0.759868 -1.867393
v -0.223998 -0.742760 -1.848691
v 0.588128 -0.336698 -1.848691
v 0.622343 -0.475222 -1.867394
v 0.588128 -0.613747 -1.848691
v -0.482025 -0.613747 -1.848691
v -0.516240 -0.475222 -1.867393
v -0.482025 -0.336698 -1.848691
v -0.223998 -0.207684 -1.848691
v 0.053052 -0.190576 -1.867394
v 0.330101 -0.207684 -1.848691
v 0.672336 -0.784864 -1.237363
v 0.649006 -0.773199 -1.506257
v 0.591461 -0.744427 -1.701402
v 0.592629 -0.203991 -1.702742
v 0.658345 -0.161031 -1.516977
v 0.704560 -0.109236 -1.270840
v -0.598456 -0.109236 -1.270840
v -0.552242 -0.161031 -1.516976
v -0.486525 -0.203991 -1.702741
v -0.485358 -0.744427 -1.701401
v -0.542903 -0.773199 -1.506257
v -0.566233 -0.784864 -1.237363
v -0.305308 0.255539 -0.987632
v -0.279180 0.441004 -0.899712
v -0.244853 0.604125 -0.799805
v 0.053052 0.268370 -1.042853
v 0.053052 0.447174 -0.955216
v 0.053052 0.612827 -0.849357
v 0.411412 0.255539 -0.987632
v 0.385284 0.441004 -0.899713
v 0.350957 0.604125 -0.799805
v 0.868822 0.222706 -0.493355
v 0.823714 0.432086 -0.451250
v 0.738936 0.603010 -0.410572
v 0.912171 0.222160 -0.125439
v 0.875455 0.434203 -0.116364
v 0.788018 0.611205 -0.112336
v 0.847499 0.221844 0.225189
v 0.817294 0.431681 0.213476
v 0.738134 0.602960 0.185271
v 0.391711 0.221844 0.681746
v 0.378864 0.431681 0.652189
v 0.350155 0.602960 0.573285
v 0.053053 0.222160 0.739835
v 0.053053 0.434203 0.708308
v 0.053053 0.611205 0.622914
v -0.285606 0.221844 0.681746
v -0.272758 0.431681 0.652190
v -0.244050 0.602960 0.573285
v -0.741394 0.221844 0.225189
v -0.711189 0.431681 0.213476
v -0.632029 0.602960 0.185271
v -0.806066 0.222160 -0.125438
v -0.769350 0.434203 -0.116363
v -0.681913 0.611205 -0.112335
v -0.762717 0.222706 -0.493355
v -0.717610 0.432086 -0.451249
v -0.632832 0.603010 -0.410572
v 0.391711 -0.871975 -0.525936
v 0.378864 -0.857197 -0.148164
v 0.350155 -0.817745 0.178957
v 0.053052 -0.901020 -0.525306
v 0.053052 -0.885256 -0.143120
v 0.053053 -0.842559 0.195449
v -0.285606 -0.871975 -0.525936
v -0.272759 -0.857197 -0.148164
v -0.244050 -0.817744 0.178957
v 0.348320 0.799115 0.183507
v 0.364181 0.823789 -0.111760
v 0.348320 0.799115 -0.407027
v 0.053053 0.823789 0.199369
v 0.053052 0.850722 -0.111760
v 0.053052 0.823789 -0.422888
v -0.242215 0.799115 0.183508
v -0.258076 0.823789 -0.111760
v -0.242215 0.799115 -0.407027
v -0.636172 -0.620435 0.180855
v -0.715062 -0.448514 0.210630
v -0.743702 -0.238402 0.223836
v -0.715062 -0.635380 -0.147666
v -0.800337 -0.453243 -0.139134
v -0.824532 -0.238993 -0.136261
v -0.743702 -0.642130 -0.526237
v -0.824532 -0.455855 -0.527718
v -0.830197 -0.240130 -0.532494
v 0.350155 -0.619478 0.573285
v 0.378864 -0.448199 0.652189
v 0.391711 -0.238363 0.681746
v 0.053053 -0.627724 0.622914
v 0.053053 -0.450721 0.708308
v 0.053053 -0.238678 0.739835
v -0.244050 -0.619478 0.573285
v -0.272758 -0.448199 0.652190
v -0.285606 -0.238363 0.681746
v 0.849807 -0.642131 -0.526238
v 0.930636 -0.455855 -0.527719
v 0.936301 -0.240130 -0.532495
v 0.821167 -0.635380 -0.147666
v 0.906442 -0.453243 -0.139134
v 0.930637 -0.238993 -0.136262
v 0.742278 -0.620435 0.180854
v 0.821167 -0.448514 0.210629
v 0.849807 -0.238402 0.223836
v 0.868821 -0.275137 -1.248743
v 0.912170 -0.465494 -1.241096
v 0.847498 -0.643335 -1.238089
v 0.823714 -0.302588 -1.512869
v 0.875454 -0.471979 -1.512831
v 0.817293 -0.637722 -1.509147
v 0.738936 -0.325455 -1.712187
v 0.788018 -0.474817 -1.720853
v 0.738133 -0.623723 -1.711722
v -0.242216 -0.622856 -1.928360
v -0.258077 -0.475222 -1.955335
v -0.242216 -0.327588 -1.928360
v 0.053052 -0.630786 -1.955335
v 0.053051 -0.475222 -1.984780
v 0.053052 -0.319658 -1.955335
v 0.348319 -0.622856 -1.928360
v 0.364180 -0.475222 -1.955335
v 0.348319 -0.327588 -1.928360
v -0.741395 -0.643335 -1.238088
v -0.806066 -0.465494 -1.241095
v -0.762718 -0.275137 -1.248742
v -0.711189 -0.637722 -1.509146
v -0.769351 -0.471979 -1.512830
v -0.717610 -0.302588 -1.512868
v -0.632030 -0.623723 -1.711721
v -0.681914 -0.474817 -1.720852
v -0.632832 -0.325455 -1.712186
v -0.305308 -0.012752 -1.314790
v 0.053052 0.017053 -1.336559
v 0.411412 -0.012752 -1.314790
v -0.279180 -0.074196 -1.530836
v 0.053052 -0.045731 -1.539831
v 0.385284 -0.074196 -1.530836
v -0.244854 -0.130318 -1.714432
v 0.053052 -0.105453 -1.724227
v 0.350957 -0.130318 -1.714432
v 0.391710 -0.871975 -1.237708
v 0.053052 -0.901020 -1.238052
v -0.285607 -0.871975 -1.237707
v 0.378863 -0.857197 -1.509015
v 0.053052 -0.885256 -1.511772
v -0.272759 -0.857197 -1.509014
v 0.350154 -0.817744 -1.711705
v 0.053052 -0.842559 -1.720720
v -0.244051 -0.817745 -1.711705
v -0.564853 -0.777711 -0.904541
v -0.409806 0.684030 -0.574644
v 0.670957 -0.777711 -0.904542
v 0.515910 0.684030 -0.574645
v -0.409785 -0.700603 0.351038
v -0.409774 0.684075 0.351067
v 0.515890 -0.700603 0.351037
v 0.515879 0.684075 0.351067
v -0.649284 -0.013656 -0.940142
v 0.755388 -0.013656 -0.940142
v 0.668603 -0.008266 0.503782
v -0.562497 -0.008266 0.503783
v 0.516583 -0.701772 -1.805119
v -0.410480 -0.701772 -1.805118
v 0.516597 -0.248593 -1.805026
v -0.410494 -0.248593 -1.805026
v 0.391623 -0.864273 -0.904544
v 0.053052 -0.893272 -0.904544
v -0.285519 -0.864273 -0.904544
v -0.591388 0.227004 -0.801452
v -0.545693 0.427947 -0.723568
v -0.480952 0.587658 -0.647485
v -0.221857 0.717607 -0.642270
v 0.053052 0.734526 -0.676345
v 0.327961 0.717607 -0.642270
v 0.892158 -0.251640 -0.917733
v 0.915079 -0.457632 -0.908392
v 0.844699 -0.637523 -0.905014
v 0.586889 -0.735877 0.157662
v 0.644313 -0.764438 -0.154304
v 0.667623 -0.776051 -0.526885
v 0.583518 0.717629 -0.386673
v 0.617578 0.734558 -0.111764
v 0.583497 0.717646 0.163135
v 0.665304 -0.237184 0.500469
v 0.642268 -0.442724 0.477422
v 0.585745 -0.604206 0.420894
v -0.221842 -0.734174 0.418667
v 0.053053 -0.751088 0.452745
v 0.327947 -0.734174 0.418667
v 0.327948 0.717646 0.418684
v 0.053053 0.734562 0.452759
v -0.221843 0.717646 0.418684
v -0.559198 -0.237184 0.500469
v -0.536162 -0.442724 0.477423
v -0.479639 -0.604206 0.420895
v -0.561518 -0.776051 -0.526885
v -0.538208 -0.764438 -0.154303
v -0.480783 -0.735877 0.157663
v -0.477392 0.717646 0.163135
v -0.511473 0.734558 -0.111764
v -0.477414 0.717629 -0.386673
v -0.738595 -0.637523 -0.905013
v -0.808975 -0.457632 -0.908391
v -0.786054 -0.251640 -0.917732
v 0.587056 0.587658 -0.647486
v 0.651797 0.427947 -0.723569
v 0.697492 0.227004 -0.801453
v 0.585726 0.587687 0.420914
v 0.642251 0.426203 0.477440
v 0.665293 0.220655 0.500481
v -0.479621 0.587687 0.420915
v -0.536146 0.426203 0.477440
v -0.559188 0.220655 0.500481
v -0.737361 -0.008365 0.222297
v -0.808914 -0.008847 -0.134435
v -0.785938 -0.010399 -0.526295
v 0.389998 -0.008259 0.676620
v 0.053053 -0.008259 0.734339
v -0.283892 -0.008259 0.676620
v 0.892042 -0.010399 -0.526296
v 0.915019 -0.008847 -0.134435
v 0.843466 -0.008365 0.222296
v -0.315078 0.081557 -1.108326
v 0.053052 0.107296 -1.153054
v 0.421181 0.081557 -1.108327
v 0.328370 -0.735512 -1.842022
v 0.053052 -0.752509 -1.860622
v -0.222267 -0.735512 -1.842022
v 0.583532 -0.340813 -1.840821
v 0.617175 -0.475210 -1.858833
v 0.583511 -0.609594 -1.840853
v -0.477408 -0.609594 -1.840853
v -0.511072 -0.475210 -1.858832
v -0.477429 -0.340813 -1.840820
v -0.222267 -0.214854 -1.841939
v 0.053052 -0.197858 -1.860540
v 0.328370 -0.214854 -1.841939
v 0.667609 -0.776063 -1.236928
v 0.644319 -0.764528 -1.504575
v 0.587111 -0.736331 -1.697460
v 0.588299 -0.211827 -1.698286
v 0.653461 -0.169223 -1.513970
v 0.698905 -0.116973 -1.267983
v -0.592802 -0.116973 -1.267982
v -0.547358 -0.169223 -1.513970
v -0.482196 -0.211827 -1.698286
v -0.481008 -0.736331 -1.697460
v -0.538215 -0.764528 -1.504574
v -0.561505 -0.776063 -1.236927
v -0.301984 0.250427 -0.979706
v -0.275963 0.436148 -0.891584
v -0.242098 0.597587 -0.792758
v 0.053052 0.263057 -1.034381
v 0.053052 0.442261 -0.946506
v 0.053052 0.606140 -0.841921
v 0.408088 0.250427 -0.979706
v 0.382067 0.436148 -0.891584
v 0.348202 0.597587 -0.792758
v 0.859472 0.220350 -0.490703
v 0.814922 0.428389 -0.448244
v 0.731594 0.596786 -0.407860
v 0.902257 0.220897 -0.125806
v 0.865966 0.431052 -0.116522
v 0.780187 0.604987 -0.112382
v 0.838218 0.220927 0.221580
v 0.808384 0.428714 0.210039
v 0.730679 0.596942 0.182404
v 0.388168 0.220991 0.672434
v 0.375452 0.428743 0.643260
v 0.347295 0.596950 0.565822
v 0.053053 0.221323 0.729870
v 0.053053 0.431278 0.698745
v 0.053053 0.605048 0.615035
v -0.282063 0.220991 0.672434
v -0.269346 0.428743 0.643261
v -0.241190 0.596950 0.565822
v -0.732113 0.220927 0.221581
v -0.702278 0.428714 0.210040
v -0.624574 0.596942 0.182405
v -0.796153 0.220897 -0.125805
v -0.759861 0.431052 -0.116521
v -0.674082 0.604987 -0.112381
v -0.753368 0.220350 -0.490702
v -0.708818 0.428389 -0.448243
v -0.625489 0.596787 -0.407860
v 0.389780 -0.862166 -0.526193
v 0.376919 -0.847429 -0.149059
v 0.348238 -0.808167 0.176811
v 0.053052 -0.891022 -0.525544
v 0.053052 -0.875292 -0.143962
v 0.053053 -0.832796 0.193285
v -0.283676 -0.862167 -0.526193
v -0.270814 -0.847429 -0.149058
v -0.242133 -0.808167 0.176812
v 0.346402 0.789490 0.181590
v 0.362223 0.813982 -0.111760
v 0.346402 0.789490 -0.405109
v 0.053053 0.813982 0.197411
v 0.053052 0.840722 -0.111760
v 0.053052 0.813982 -0.420930
v -0.240297 0.789490 0.181590
v -0.256118 0.813982 -0.111760
v -0.240297 0.789490 -0.405109
v -0.628828 -0.614448 0.177658
v -0.706242 -0.445636 0.206897
v -0.734477 -0.237663 0.220048
v -0.707262 -0.629273 -0.149032
v -0.790791 -0.450621 -0.140546
v -0.814600 -0.238727 -0.137393
v -0.735739 -0.636092 -0.526590
v -0.814754 -0.453764 -0.527850
v -0.820266 -0.241130 -0.531873
v 0.347295 -0.613468 0.565822
v 0.375452 -0.445261 0.643260
v 0.388168 -0.237509 0.672434
v 0.053053 -0.621566 0.615035
v 0.053053 -0.447796 0.698745
v 0.053053 -0.237842 0.729870
v -0.241190 -0.613468 0.565822
v -0.269346 -0.445261 0.643261
v -0.282063 -0.237509 0.672434
v 0.841844 -0.636092 -0.526591
v 0.920858 -0.453764 -0.527851
v 0.926371 -0.241130 -0.531874
v 0.813367 -0.629273 -0.149032
v 0.896896 -0.450621 -0.140546
v 0.920704 -0.238727 -0.137393
v 0.734933 -0.614448 0.177657
v 0.812348 -0.445636 0.206896
v 0.840582 -0.237663 0.220047
v 0.859972 -0.279443 -1.246971
v 0.902243 -0.464765 -1.240131
v 0.839373 -0.637538 -1.237486
v 0.815559 -0.307590 -1.509956
v 0.865819 -0.471662 -1.510173
v 0.809312 -0.632110 -1.506955
v 0.731961 -0.330266 -1.706877
v 0.779808 -0.474716 -1.715143
v 0.731120 -0.618679 -1.706683
v -0.240264 -0.619082 -1.919307
v -0.255929 -0.475222 -1.945569
v -0.240264 -0.331362 -1.919307
v 0.053052 -0.626965 -1.946094
v 0.053052 -0.475222 -1.974780
v 0.053052 -0.323479 -1.946094
v 0.346367 -0.619082 -1.919308
v 0.362032 -0.475222 -1.945569
v 0.346367 -0.331362 -1.919308
v -0.733269 -0.637538 -1.237486
v -0.796140 -0.464765 -1.240130
v -0.753868 -0.279443 -1.246970
v -0.703208 -0.632110 -1.506954
v -0.759716 -0.471662 -1.510172
v -0.709455 -0.307589 -1.509956
v -0.625017 -0.618679 -1.706683
v -0.673705 -0.474716 -1.715143
v -0.625858 -0.330266 -1.706876
v -0.302972 -0.021800 -1.311230
v 0.053052 0.007804 -1.332755
v 0.409075 -0.021800 -1.311230
v -0.277150 -0.083519 -1.527841
v 0.053052 -0.055275 -1.536844
v 0.383253 -0.083519 -1.527842
v -0.243024 -0.139259 -1.710343
v 0.053052 -0.114568 -1.720114
v 0.349127 -0.139259 -1.710343
v 0.389778 -0.862170 -1.237359
v 0.053052 -0.891025 -1.237729
v -0.283674 -0.862170 -1.237359
v 0.376925 -0.847484 -1.507637
v 0.053052 -0.875341 -1.510472
v -0.270821 -0.847484 -1.507637
v 0.348333 -0.808550 -1.708221
v 0.053052 -0.833192 -1.717218
v -0.242230 -0.808550 -1.708221
vt 0.563694 0.062500
vt 0.537489 0.124892
vt 0.535760 0.062486
vt 0.593899 0.062500
vt 0.564236 0.125000
vt 0.563748 0.187500
vt 0.535767 0.187269
vt 0.593906 0.187500
vt 0.531250 0.000000
vt 0.514269 0.062391
vt 0.500000 0.000000
vt 0.593750 0.000000
vt 0.562500 0.000000
vt 0.625000 0.000000
vt 0.625000 0.125000
vt 0.593967 0.125000
vt 0.625000 0.250000
vt 0.593804 0.250000
vt 0.562934 0.250000
vt 0.532525 0.250000
vt 0.513075 0.184950
vt 0.500000 0.250000
vt 0.516927 0.124132
vt 0.562554 0.312500
vt 0.531250 0.375109
vt 0.531365 0.312731
vt 0.593757 0.312500
vt 0.562500 0.375000
vt 0.531257 0.437514
vt 0.593865 0.437500
vt 0.562554 0.437500
vt 0.500000 0.315050
vt 0.625000 0.375000
vt 0.593750 0.375000
vt 0.625000 0.500000
vt 0.595052 0.500000
vt 0.562934 0.500000
vt 0.531304 0.500000
vt 0.500000 0.500000
vt 0.500000 0.437609
vt 0.500000 0.375868
vt 0.563748 0.562500
vt 0.531467 0.625000
vt 0.531406 0.562500
vt 0.598382 0.562500
vt 0.564236 0.625000
vt 0.563748 0.687500
vt 0.531406 0.687500
vt 0.598382 0.687500
vt 0.500000 0.562500
vt 0.642361 0.625000
vt 0.600043 0.625000
vt 0.625000 0.750000
vt 0.595052 0.750000
vt 0.562934 0.750000
vt 0.531304 0.750000
vt 0.500000 0.687500
vt 0.500000 0.750000
vt 0.500000 0.625000
vt 0.531257 0.812487
vt 0.562500 0.875000
vt 0.531250 0.874892
vt 0.593865 0.812500
vt 0.562554 0.812500
vt 0.562500 0.937500
vt 0.531250 0.937270
vt 0.593750 0.937500
vt 0.500000 0.812392
vt 0.625000 0.875000
vt 0.593750 0.875000
vt 0.625000 1.000000
vt 0.593750 1.000000
vt 0.562500 1.000000
vt 0.531250 1.000000
vt 0.500000 0.934896
vt 0.500000 1.000000
vt 0.500000 0.874132
vt 0.251194 0.562500
vt 0.199870 0.625000
vt 0.196384 0.562500
vt 0.308282 0.562500
vt 0.251736 0.625000
vt 0.251194 0.687500
vt 0.196384 0.687500
vt 0.308282 0.687500
vt 0.187500 0.500000
vt 0.153646 0.562500
vt 0.125000 0.500000
vt 0.250000 0.500000
vt 0.312500 0.500000
vt 0.375000 0.500000
vt 0.360650 0.562500
vt 0.306641 0.625000
vt 0.360650 0.687500
vt 0.375000 0.750000
vt 0.312500 0.750000
vt 0.250000 0.750000
vt 0.187500 0.750000
vt 0.153646 0.687500
vt 0.125000 0.750000
vt 0.159722 0.625000
vt 0.692017 0.562500
vt 0.751736 0.625000
vt 0.693793 0.625000
vt 0.812649 0.562500
vt 0.751194 0.562500
vt 0.692017 0.687500
vt 0.812649 0.687500
vt 0.751194 0.687500
vt 0.639350 0.562500
vt 0.687500 0.500000
vt 0.812500 0.500000
vt 0.750000 0.500000
vt 0.875000 0.500000
vt 0.875000 0.562500
vt 0.812717 0.625000
vt 0.875000 0.687500
vt 0.875000 0.750000
vt 0.812500 0.750000
vt 0.750000 0.750000
vt 0.687500 0.750000
vt 0.639350 0.687500
vt 0.406135 0.812202
vt 0.437500 0.871528
vt 0.406250 0.872613
vt 0.437446 0.812066
vt 0.468750 0.872504
vt 0.437500 0.924913
vt 0.406250 0.928467
vt 0.375000 0.812500
vt 0.404948 0.750000
vt 0.437066 0.750000
vt 0.468743 0.812188
vt 0.468696 0.750000
vt 0.468750 0.928236
vt 0.468750 0.971300
vt 0.437500 0.965278
vt 0.406250 0.971354
vt 0.375000 1.000000
vt 0.375000 0.937500
vt 0.375000 0.875000
vt 0.401618 0.562500
vt 0.435764 0.625000
vt 0.399957 0.625000
vt 0.436252 0.562500
vt 0.468533 0.625000
vt 0.401618 0.687500
vt 0.436252 0.687500
vt 0.404948 0.500000
vt 0.437066 0.500000
vt 0.468594 0.562500
vt 0.468696 0.500000
vt 0.468594 0.687500
vt 0.357639 0.625000
vt 0.437446 0.324978
vt 0.406250 0.377387
vt 0.406243 0.321520
vt 0.468750 0.377496
vt 0.437500 0.378472
vt 0.406135 0.437798
vt 0.437446 0.437934
vt 0.375000 0.250000
vt 0.375000 0.312500
vt 0.406196 0.278537
vt 0.437066 0.283854
vt 0.468635 0.321533
vt 0.467475 0.276150
vt 0.468743 0.437812
vt 0.375000 0.437500
vt 0.375000 0.375000
vt 0.436156 0.259464
vt 0.460238 0.232976
vt 0.463949 0.249133
vt 0.406082 0.258399
vt 0.434992 0.244985
vt 0.433980 0.230915
vt 0.457099 0.218193
vt 0.405937 0.249373
vt 0.486485 0.222970
vt 0.375000 0.250000
vt 0.375000 0.250000
vt 0.405810 0.240399
vt 0.375000 0.250000
vt 0.405756 0.220474
vt 0.433546 0.208237
vt 0.455546 0.197497
vt 0.473803 0.197605
vt 0.468750 0.187500
vt 0.479553 0.209105
vt 0.406089 0.062177
vt 0.434992 0.119985
vt 0.405937 0.122420
vt 0.463949 0.061620
vt 0.436210 0.061873
vt 0.405810 0.177899
vt 0.457092 0.164184
vt 0.433980 0.170368
vt 0.375000 0.000000
vt 0.375000 0.062500
vt 0.406250 0.000000
vt 0.468750 0.000000
vt 0.437500 0.000000
vt 0.500000 0.000000
vt 0.485237 0.061511
vt 0.460184 0.117959
vt 0.473748 0.161093
vt 0.375000 0.250000
vt 0.375000 0.187500
vt 0.375000 0.125000
vt 0.406250 0.990967
vt 0.437500 0.996528
vt 0.406250 0.997613
vt 0.437500 0.987413
vt 0.468750 0.997613
vt 0.437500 0.999566
vt 0.406250 0.999702
vt 0.375000 1.000000
vt 0.468750 0.990967
vt 0.500000 1.000000
vt 0.500000 1.000000
vt 0.468750 0.999702
vt 0.500000 1.000000
vt 0.468750 1.000000
vt 0.437500 1.000000
vt 0.406250 1.000000
vt 0.375000 1.000000
vt 0.375000 1.000000
vt 0.375000 1.000000
vt 0.504732 0.122311
vt 0.499687 0.061873
vt 0.504199 0.062164
vt 0.491488 0.170476
vt 0.497492 0.119985
vt 0.495199 0.061620
vt 0.484096 0.164197
vt 0.490457 0.117959
vt 0.500000 0.000000
vt 0.499567 0.177899
vt 0.479118 0.117091
vt 0.500000 0.000000
vt 0.500000 0.000000
vt 0.137587 0.625000
vt 0.127387 0.562500
vt 0.134033 0.562500
vt 0.127387 0.687500
vt 0.128472 0.625000
vt 0.125298 0.562500
vt 0.125298 0.687500
vt 0.125434 0.625000
vt 0.125000 0.500000
vt 0.134033 0.687500
vt 0.125000 0.750000
vt 0.125000 0.750000
vt 0.125000 0.750000
vt 0.125000 0.750000
vt 0.125000 0.687500
vt 0.125000 0.625000
vt 0.125000 0.562500
vt 0.125000 0.500000
vt 0.125000 0.500000
vt 0.125000 0.500000
vt 0.537489 0.124892
vt 0.563694 0.062500
vt 0.535760 0.062486
vt 0.564236 0.125000
vt 0.593899 0.062500
vt 0.563748 0.187500
vt 0.593906 0.187500
vt 0.593967 0.125000
vt 0.514269 0.062391
vt 0.531250 0.000000
vt 0.500000 0.000000
vt 0.562500 0.000000
vt 0.593750 0.000000
vt 0.625000 0.000000
vt 0.625000 0.125000
vt 0.625000 0.062500
vt 0.625000 0.250000
vt 0.625000 0.187500
vt 0.593804 0.250000
vt 0.532525 0.250000
vt 0.535767 0.187269
vt 0.513075 0.184950
vt 0.516927 0.124132
vt 0.531250 0.375109
vt 0.562554 0.312500
vt 0.531365 0.312731
vt 0.562500 0.375000
vt 0.593757 0.312500
vt 0.531257 0.437514
vt 0.593865 0.437500
vt 0.593750 0.375000
vt 0.500000 0.315050
vt 0.500000 0.250000
vt 0.562934 0.250000
vt 0.625000 0.375000
vt 0.625000 0.312500
vt 0.625000 0.500000
vt 0.625000 0.437500
vt 0.562554 0.437500
vt 0.595052 0.500000
vt 0.562934 0.500000
vt 0.500000 0.500000
vt 0.500000 0.437609
vt 0.500000 0.375868
vt 0.531467 0.625000
vt 0.563748 0.562500
vt 0.531406 0.562500
vt 0.564236 0.625000
vt 0.598382 0.562500
vt 0.563748 0.687500
vt 0.598382 0.687500
vt 0.600043 0.625000
vt 0.500000 0.562500
vt 0.531304 0.500000
vt 0.642361 0.625000
vt 0.639350 0.562500
vt 0.625000 0.750000
vt 0.639350 0.687500
vt 0.595052 0.750000
vt 0.531406 0.687500
vt 0.562934 0.750000
vt 0.500000 0.687500
vt 0.531304 0.750000
vt 0.500000 0.625000
vt 0.531257 0.812487
vt 0.562500 0.875000
vt 0.562554 0.812500
vt 0.593865 0.812500
vt 0.531250 0.874892
vt 0.562500 0.937500
vt 0.593750 0.937500
vt 0.593750 0.875000
vt 0.500000 0.750000
vt 0.625000 0.875000
vt 0.625000 0.812500
vt 0.625000 1.000000
vt 0.625000 0.937500
vt 0.593750 1.000000
vt 0.531250 0.937270
vt 0.562500 1.000000
vt 0.500000 0.934896
vt 0.531250 1.000000
vt 0.500000 0.874132
vt 0.500000 0.812392
vt 0.199870 0.625000
vt 0.251194 0.562500
vt 0.196384 0.562500
vt 0.251736 0.625000
vt 0.308282 0.562500
vt 0.251194 0.687500
vt 0.308282 0.687500
vt 0.306641 0.625000
vt 0.153646 0.562500
vt 0.187500 0.500000
vt 0.125000 0.500000
vt 0.250000 0.500000
vt 0.312500 0.500000
vt 0.375000 0.500000
vt 0.360650 0.562500
vt 0.360650 0.687500
vt 0.357639 0.625000
vt 0.375000 0.750000
vt 0.312500 0.750000
vt 0.196384 0.687500
vt 0.250000 0.750000
vt 0.153646 0.687500
vt 0.187500 0.750000
vt 0.159722 0.625000
vt 0.692017 0.562500
vt 0.751736 0.625000
vt 0.751194 0.562500
vt 0.812649 0.562500
vt 0.692017 0.687500
vt 0.693793 0.625000
vt 0.812649 0.687500
vt 0.812717 0.625000
vt 0.687500 0.500000
vt 0.750000 0.500000
vt 0.812500 0.500000
vt 0.875000 0.500000
vt 0.875000 0.562500
vt 0.875000 0.687500
vt 0.875000 0.625000
vt 0.875000 0.750000
vt 0.751194 0.687500
vt 0.812500 0.750000
vt 0.687500 0.750000
vt 0.406135 0.812202
vt 0.437500 0.871528
vt 0.437446 0.812066
vt 0.468750 0.872504
vt 0.468743 0.812188
vt 0.406250 0.872613
vt 0.437500 0.924913
vt 0.468750 0.928236
vt 0.404948 0.750000
vt 0.437066 0.750000
vt 0.468696 0.750000
vt 0.468750 0.971300
vt 0.437500 0.965278
vt 0.406250 0.971354
vt 0.406250 0.928467
vt 0.375000 1.000000
vt 0.375000 0.937500
vt 0.375000 0.875000
vt 0.375000 0.812500
vt 0.401618 0.562500
vt 0.435764 0.625000
vt 0.436252 0.562500
vt 0.468533 0.625000
vt 0.468594 0.562500
vt 0.401618 0.687500
vt 0.399957 0.625000
vt 0.436252 0.687500
vt 0.404948 0.500000
vt 0.437066 0.500000
vt 0.468696 0.500000
vt 0.468594 0.687500
vt 0.406250 0.377387
vt 0.437446 0.324978
vt 0.406243 0.321520
vt 0.437500 0.378472
vt 0.468635 0.321533
vt 0.406135 0.437798
vt 0.437446 0.437934
vt 0.468750 0.377496
vt 0.375000 0.250000
vt 0.406196 0.278537
vt 0.437066 0.283854
vt 0.467475 0.276150
vt 0.468743 0.437812
vt 0.375000 0.437500
vt 0.375000 0.375000
vt 0.375000 0.312500
vt 0.460238 0.232976
vt 0.436156 0.259464
vt 0.463949 0.249133
vt 0.434992 0.244985
vt 0.406082 0.258399
vt 0.433980 0.230915
vt 0.405937 0.249373
vt 0.375000 0.250000
vt 0.405810 0.240399
vt 0.375000 0.250000
vt 0.405756 0.220474
vt 0.375000 0.250000
vt 0.433546 0.208237
vt 0.457099 0.218193
vt 0.473803 0.197605
vt 0.455546 0.197497
vt 0.479553 0.209105
vt 0.486485 0.222970
vt 0.406089 0.062177
vt 0.434992 0.119985
vt 0.436210 0.061873
vt 0.463949 0.061620
vt 0.405810 0.177899
vt 0.405937 0.122420
vt 0.457092 0.164184
vt 0.460184 0.117959
vt 0.375000 0.000000
vt 0.406250 0.000000
vt 0.437500 0.000000
vt 0.468750 0.000000
vt 0.500000 0.000000
vt 0.485237 0.061511
vt 0.473748 0.161093
vt 0.479118 0.117091
vt 0.468750 0.187500
vt 0.433980 0.170368
vt 0.375000 0.250000
vt 0.375000 0.187500
vt 0.375000 0.125000
vt 0.375000 0.062500
vt 0.406250 0.990967
vt 0.437500 0.996528
vt 0.437500 0.987413
vt 0.468750 0.997613
vt 0.468750 0.990967
vt 0.406250 0.997613
vt 0.437500 0.999566
vt 0.500000 1.000000
vt 0.500000 1.000000
vt 0.468750 0.999702
vt 0.500000 1.000000
vt 0.468750 1.000000
vt 0.500000 1.000000
vt 0.437500 1.000000
vt 0.406250 0.999702
vt 0.375000 1.000000
vt 0.406250 1.000000
vt 0.375000 1.000000
vt 0.375000 1.000000
vt 0.499687 0.061873
vt 0.504732 0.122311
vt 0.504199 0.062164
vt 0.491488 0.170476
vt 0.499567 0.177899
vt 0.495199 0.061620
vt 0.497492 0.119985
vt 0.484096 0.164197
vt 0.500000 0.000000
vt 0.490457 0.117959
vt 0.500000 0.000000
vt 0.500000 0.000000
vt 0.127387 0.562500
vt 0.137587 0.625000
vt 0.134033 0.562500
vt 0.127387 0.687500
vt 0.134033 0.687500
vt 0.125298 0.562500
vt 0.128472 0.625000
vt 0.125298 0.687500
vt 0.125000 0.500000
vt 0.125000 0.750000
vt 0.125000 0.750000
vt 0.125000 0.750000
vt 0.125000 0.750000
vt 0.125000 0.750000
vt 0.125434 0.625000
vt 0.125000 0.687500
vt 0.125000 0.562500
vt 0.125000 0.500000
vt 0.125000 0.500000
vt 0.125000 0.500000
vt 0.625000 0.062500
vt 0.625000 0.187500
vt 0.625000 0.312500
vt 0.625000 0.437500
vt 0.625000 0.812500
vt 0.625000 0.937500
vt 0.875000 0.625000
vt 0.500000 1.000000
vt 0.750000 0.750000
vt 0.500000 1.000000
vt 0.375000 1.000000
vt 0.125000 0.625000
vn -0.1521 0.4408 -0.8846
vn -0.1485 0.5390 -0.8291
vn 0.1521 0.4408 -0.8846
vn 0.1485 0.5390 -0.8291
vn -0.4982 0.5186 -0.6949
vn -0.4994 0.4276 -0.7535
vn -0.4612 0.5269 -0.7139
vn -0.3824 0.7200 -0.5792
vn -0.1241 0.7841 -0.6081
vn 0.1241 0.7841 -0.6081
vn 0.3824 0.7200 -0.5792
vn 0.4612 0.5269 -0.7139
vn 0.4994 0.4276 -0.7535
vn 0.4982 0.5186 -0.6949
vn 0.1380 0.5994 -0.7885
vn -0.1380 0.5994 -0.7885
vn 0.9663 0.2310 -0.1135
vn 0.8738 0.4662 -0.1380
vn 0.9707 0.1604 0.1792
vn 0.8858 0.4357 0.1595
vn 0.8771 0.3809 -0.2927
vn 0.8321 0.3551 -0.4260
vn 0.7400 0.5096 -0.4389
vn 0.5838 0.7179 -0.3793
vn 0.6185 0.7760 -0.1231
vn 0.6189 0.7754 0.1252
vn 0.5909 0.7080 0.3867
vn 0.7631 0.4346 0.4784
vn 0.8397 0.1529 0.5211
vn 0.8491 0.0212 0.5278
vn 0.9793 0.0474 0.1966
vn 0.9871 0.1491 -0.0584
vn 0.1673 0.1476 0.9748
vn 0.1561 0.4347 0.8869
vn -0.1673 0.1476 0.9748
vn -0.1561 0.4348 0.8869
vn 0.5273 0.0200 0.8495
vn 0.5214 0.1529 0.8395
vn 0.4785 0.4346 0.7630
vn 0.3867 0.7080 0.5909
vn 0.1250 0.7751 0.6193
vn -0.1250 0.7751 0.6193
vn -0.3867 0.7080 0.5909
vn -0.4785 0.4346 0.7630
vn -0.5214 0.1529 0.8395
vn -0.5273 0.0200 0.8495
vn -0.1689 0.0194 0.9854
vn 0.1689 0.0194 0.9854
vn -0.9707 0.1604 0.1792
vn -0.8858 0.4357 0.1595
vn -0.9663 0.2310 -0.1135
vn -0.8738 0.4662 -0.1380
vn -0.8491 0.0212 0.5278
vn -0.8397 0.1529 0.5211
vn -0.7631 0.4346 0.4784
vn -0.5909 0.7080 0.3867
vn -0.6189 0.7754 0.1252
vn -0.6186 0.7760 -0.1231
vn -0.5838 0.7179 -0.3793
vn -0.7400 0.5096 -0.4389
vn -0.8321 0.3551 -0.4260
vn -0.8771 0.3809 -0.2927
vn -0.9871 0.1491 -0.0584
vn -0.9793 0.0474 0.1966
vn 0.0855 -0.9955 0.0418
vn 0.0871 -0.9881 0.1268
vn -0.0855 -0.9955 0.0418
vn -0.0871 -0.9881 0.1268
vn 0.2964 -0.9550 0.0068
vn 0.2962 -0.9539 0.0483
vn 0.2963 -0.9446 0.1412
vn 0.2991 -0.9132 0.2767
vn 0.0959 -0.9494 0.2992
vn -0.0959 -0.9494 0.2992
vn -0.2991 -0.9132 0.2767
vn -0.2963 -0.9446 0.1412
vn -0.2962 -0.9539 0.0483
vn -0.2964 -0.9550 0.0068
vn -0.0854 -0.9963 0.0060
vn 0.0854 -0.9963 0.0060
vn 0.0875 0.9924 0.0859
vn 0.0859 0.9924 -0.0875
vn -0.0875 0.9924 0.0859
vn -0.0859 0.9924 -0.0875
vn 0.2712 0.9150 0.2987
vn 0.2960 0.9504 0.0953
vn 0.2961 0.9504 -0.0953
vn 0.2987 0.9150 -0.2712
vn 0.0953 0.9504 -0.2960
vn -0.0953 0.9504 -0.2960
vn -0.2987 0.9150 -0.2712
vn -0.2961 0.9504 -0.0953
vn -0.2960 0.9504 0.0953
vn -0.2712 0.9150 0.2987
vn -0.0953 0.9504 0.2961
vn 0.0953 0.9504 0.2961
vn -0.8772 -0.4215 0.2298
vn -0.9651 -0.1122 0.2368
vn -0.9149 -0.3964 0.0763
vn -0.9916 -0.1128 0.0625
vn -0.5674 -0.7478 0.3447
vn -0.7601 -0.4327 0.4847
vn -0.8364 -0.1472 0.5279
vn -0.8477 -0.0158 0.5303
vn -0.9755 0.0215 0.2189
vn -0.9890 0.1475 0.0137
vn -0.9846 0.1489 -0.0916
vn -0.9995 -0.0266 -0.0146
vn -0.9173 -0.3980 0.0085
vn -0.6267 -0.7792 0.0090
vn -0.6225 -0.7801 0.0633
vn -0.6093 -0.7716 0.1828
vn 0.1604 -0.4289 0.8890
vn 0.1690 -0.1450 0.9749
vn -0.1604 -0.4289 0.8890
vn -0.1690 -0.1450 0.9749
vn 0.3387 -0.7485 0.5701
vn 0.4806 -0.4321 0.7631
vn 0.5231 -0.1502 0.8389
vn 0.5274 -0.0198 0.8494
vn 0.1690 -0.0193 0.9854
vn -0.1690 -0.0193 0.9854
vn -0.5274 -0.0198 0.8494
vn -0.5231 -0.1502 0.8389
vn -0.4806 -0.4321 0.7631
vn -0.3387 -0.7485 0.5701
vn -0.1244 -0.7746 0.6201
vn 0.1244 -0.7746 0.6201
vn 0.9149 -0.3964 0.0763
vn 0.9916 -0.1128 0.0625
vn 0.8772 -0.4215 0.2298
vn 0.9651 -0.1122 0.2368
vn 0.6267 -0.7792 0.0090
vn 0.9173 -0.3980 0.0085
vn 0.9995 -0.0266 -0.0146
vn 0.9846 0.1489 -0.0916
vn 0.9890 0.1475 0.0137
vn 0.9755 0.0215 0.2189
vn 0.8477 -0.0158 0.5303
vn 0.8364 -0.1472 0.5279
vn 0.7601 -0.4327 0.4847
vn 0.5674 -0.7478 0.3447
vn 0.6093 -0.7716 0.1828
vn 0.6225 -0.7801 0.0633
vn 0.9596 0.2111 -0.1858
vn 0.9326 -0.3411 -0.1179
vn 0.8627 0.3068 -0.4021
vn 0.8763 -0.3156 -0.3640
vn 0.6937 0.6439 -0.3227
vn 0.9697 0.2162 -0.1138
vn 0.9306 -0.3650 -0.0287
vn 0.6284 -0.7778 -0.0102
vn 0.6259 -0.7751 -0.0858
vn 0.5980 -0.7489 -0.2854
vn 0.4907 -0.6462 -0.5845
vn 0.6403 -0.2589 -0.7232
vn 0.6382 0.2557 -0.7262
vn 0.5414 0.6137 -0.5747
vn 0.5784 0.7257 -0.3725
vn 0.6298 0.7278 -0.2714
vn -0.0943 -0.1851 -0.9782
vn -0.0925 0.1886 -0.9777
vn 0.0943 -0.1851 -0.9782
vn 0.0925 0.1886 -0.9777
vn -0.2550 -0.5617 -0.7871
vn -0.3156 -0.2033 -0.9269
vn -0.3157 0.2031 -0.9269
vn -0.2869 0.5210 -0.8039
vn -0.0903 0.5606 -0.8231
vn 0.0903 0.5606 -0.8231
vn 0.2869 0.5210 -0.8039
vn 0.3157 0.2031 -0.9269
vn 0.3156 -0.2033 -0.9269
vn 0.2550 -0.5617 -0.7871
vn 0.0902 -0.5607 -0.8231
vn -0.0902 -0.5607 -0.8231
vn -0.9370 -0.3313 -0.1113
vn -0.9476 0.2894 -0.1349
vn -0.8761 -0.3158 -0.3642
vn -0.8862 0.2706 -0.3762
vn -0.6284 -0.7778 -0.0102
vn -0.9396 -0.3419 -0.0150
vn -0.9933 0.1082 -0.0404
vn -0.8649 0.4861 -0.1249
vn -0.7101 0.6775 -0.1917
vn -0.6157 0.7093 -0.3433
vn -0.4906 0.6371 -0.5945
vn -0.6407 0.2526 -0.7250
vn -0.6424 -0.2562 -0.7222
vn -0.5537 -0.6166 -0.5596
vn -0.5967 -0.7496 -0.2865
vn -0.6237 -0.7767 -0.0878
vn -0.0966 0.9542 -0.2831
vn 0.0895 0.9516 -0.2939
vn -0.0895 0.9477 -0.3064
vn 0.0892 0.9476 -0.3069
vn -0.4119 0.8473 -0.3353
vn -0.1172 0.8826 -0.4554
vn 0.1016 0.8706 -0.4814
vn 0.3395 0.8298 -0.4428
vn 0.3032 0.9063 -0.2944
vn 0.2899 0.8988 -0.3289
vn 0.2479 0.8222 -0.5123
vn 0.0872 0.8563 -0.5091
vn -0.0882 0.8571 -0.5076
vn -0.2775 0.8349 -0.4753
vn -0.3021 0.8997 -0.3149
vn -0.3365 0.9068 -0.2540
vn 0.0854 -0.9946 -0.0582
vn -0.0861 -0.9946 -0.0573
vn 0.0857 -0.9756 -0.2020
vn -0.0876 -0.9760 -0.1994
vn 0.2964 -0.9550 -0.0078
vn 0.0854 -0.9963 -0.0068
vn -0.0855 -0.9963 -0.0067
vn -0.2965 -0.9550 -0.0077
vn -0.2969 -0.9526 -0.0659
vn -0.2921 -0.9302 -0.2224
vn -0.2463 -0.8345 -0.4929
vn -0.0866 -0.8678 -0.4893
vn 0.0873 -0.8684 -0.4881
vn 0.2767 -0.8467 -0.4544
vn 0.2915 -0.9302 -0.2231
vn 0.2959 -0.9529 -0.0670
vn 0.1519 -0.4410 0.8846
vn 0.1484 -0.5388 0.8293
vn -0.1561 -0.4349 0.8869
vn -0.1541 -0.5315 0.8329
vn 0.4976 -0.5199 0.6944
vn 0.4913 -0.4096 0.7687
vn 0.4608 -0.5270 0.7141
vn 0.3822 -0.7200 0.5792
vn 0.1237 -0.7838 0.6085
vn -0.1240 -0.7842 0.6080
vn -0.3365 -0.7578 0.5591
vn -0.4560 -0.5323 0.7133
vn -0.4989 -0.4276 0.7538
vn -0.4674 -0.5583 0.6855
vn -0.1377 -0.6003 0.7879
vn 0.1420 -0.6067 0.7821
vn -0.9665 -0.2302 0.1137
vn -0.8741 -0.4657 0.1382
vn -0.9708 -0.1597 -0.1790
vn -0.8867 -0.4335 -0.1607
vn -0.8775 -0.3798 0.2927
vn -0.8323 -0.3545 0.4262
vn -0.7401 -0.5093 0.4393
vn -0.5838 -0.7178 0.3795
vn -0.6166 -0.7774 0.1243
vn -0.6186 -0.7757 -0.1251
vn -0.5697 -0.7488 -0.3387
vn -0.7634 -0.4316 -0.4807
vn -0.8392 -0.1495 -0.5228
vn -0.8493 -0.0211 -0.5276
vn -0.9794 -0.0470 -0.1964
vn -0.9872 -0.1484 0.0585
vn -0.1672 -0.1471 -0.9749
vn -0.1561 -0.4345 -0.8870
vn 0.1689 -0.1445 -0.9750
vn 0.1605 -0.4284 -0.8892
vn -0.5271 -0.0199 -0.8496
vn -0.5212 -0.1526 -0.8397
vn -0.4784 -0.4346 -0.7631
vn -0.3866 -0.7082 -0.5908
vn -0.1245 -0.7751 -0.6194
vn 0.1249 -0.7755 -0.6189
vn 0.3387 -0.7488 -0.5697
vn 0.4806 -0.4318 -0.7632
vn 0.5229 -0.1498 -0.8391
vn 0.5272 -0.0197 -0.8495
vn 0.1689 -0.0192 -0.9854
vn -0.1688 -0.0193 -0.9855
vn 0.9736 -0.1494 -0.1727
vn 0.8860 -0.4354 -0.1593
vn 0.9730 -0.1747 0.1511
vn 0.8842 -0.4398 0.1576
vn 0.8497 -0.0199 -0.5269
vn 0.8399 -0.1525 -0.5209
vn 0.7632 -0.4345 -0.4782
vn 0.5908 -0.7082 -0.3865
vn 0.6194 -0.7751 -0.1245
vn 0.6181 -0.7763 0.1232
vn 0.5656 -0.7523 0.3379
vn 0.7432 -0.4796 0.4665
vn 0.8265 -0.2770 0.4901
vn 0.8719 -0.1925 0.4503
vn 0.9914 -0.0594 0.1163
vn 0.9832 -0.0231 -0.1812
vn -0.0854 0.9955 -0.0418
vn -0.0870 0.9881 -0.1267
vn 0.0863 0.9954 -0.0410
vn 0.0894 0.9882 -0.1245
vn -0.2960 0.9552 -0.0068
vn -0.2958 0.9540 -0.0482
vn -0.2960 0.9447 -0.1410
vn -0.2989 0.9134 -0.2763
vn -0.0959 0.9496 -0.2986
vn 0.0955 0.9495 -0.2990
vn 0.2720 0.9136 -0.3023
vn 0.2973 0.9445 -0.1400
vn 0.2969 0.9537 -0.0474
vn 0.2961 0.9551 -0.0068
vn 0.0854 0.9963 -0.0059
vn -0.0853 0.9963 -0.0060
vn -0.0858 -0.9925 -0.0875
vn -0.0858 -0.9925 0.0875
vn 0.0875 -0.9925 -0.0858
vn 0.0875 -0.9925 0.0858
vn -0.2984 -0.9152 -0.2709
vn -0.2957 -0.9505 -0.0951
vn -0.2957 -0.9505 0.0952
vn -0.2984 -0.9152 0.2709
vn -0.0953 -0.9506 0.2955
vn 0.0952 -0.9505 0.2957
vn 0.2709 -0.9152 0.2985
vn 0.2955 -0.9506 0.0953
vn 0.2955 -0.9506 -0.0953
vn 0.2709 -0.9152 -0.2984
vn 0.0951 -0.9505 -0.2956
vn -0.0953 -0.9506 -0.2955
vn 0.8721 0.4378 -0.2185
vn 0.9654 0.1448 -0.2168
vn 0.9032 0.4251 -0.0593
vn 0.9936 0.1119 -0.0150
vn 0.5877 0.7087 -0.3903
vn 0.7602 0.4350 -0.4826
vn 0.8379 0.1527 -0.5240
vn 0.8493 0.0199 -0.5276
vn 0.9804 0.0143 -0.1967
vn 0.9980 -0.0254 0.0586
vn 0.9847 -0.1487 0.0914
vn 0.9995 0.0262 0.0149
vn 0.9175 0.3976 -0.0084
vn 0.6262 0.7796 -0.0090
vn 0.6220 0.7804 -0.0632
vn 0.6086 0.7721 -0.1827
vn -0.1561 0.4345 -0.8870
vn -0.1672 0.1471 -0.9749
vn 0.1605 0.4284 -0.8892
vn 0.1689 0.1445 -0.9750
vn -0.3866 0.7082 -0.5907
vn -0.4784 0.4346 -0.7631
vn -0.5212 0.1526 -0.8397
vn -0.5271 0.0199 -0.8496
vn -0.1688 0.0193 -0.9855
vn 0.1689 0.0192 -0.9854
vn 0.5272 0.0197 -0.8495
vn 0.5230 0.1498 -0.8391
vn 0.4806 0.4318 -0.7632
vn 0.3387 0.7488 -0.5697
vn 0.1249 0.7755 -0.6189
vn -0.1245 0.7751 -0.6194
vn -0.9151 0.3960 -0.0762
vn -0.9978 0.0247 -0.0619
vn -0.8774 0.4211 -0.2298
vn -0.9652 0.1120 -0.2365
vn -0.6279 0.7782 -0.0077
vn -0.9311 0.3645 0.0104
vn -0.9902 -0.1061 0.0907
vn -0.8431 -0.4580 0.2820
vn -0.9891 -0.1468 -0.0133
vn -0.9756 -0.0213 -0.2186
vn -0.8479 0.0159 -0.5300
vn -0.8367 0.1470 -0.5276
vn -0.7603 0.4326 -0.4845
vn -0.5671 0.7481 -0.3447
vn -0.6106 0.7708 -0.1816
vn -0.6250 0.7782 -0.0612
vn -0.9596 -0.2121 0.1848
vn -0.9327 0.3412 0.1171
vn -0.8859 -0.2719 0.3758
vn -0.8765 0.3160 0.3631
vn -0.8652 -0.4854 0.1256
vn -0.9888 -0.1052 0.1056
vn -0.9307 0.3647 0.0282
vn -0.6279 0.7782 0.0100
vn -0.6253 0.7757 0.0854
vn -0.5976 0.7497 0.2844
vn -0.4909 0.6466 0.5839
vn -0.6400 0.2589 0.7235
vn -0.6400 -0.2535 0.7253
vn -0.4904 -0.6379 0.5937
vn -0.6148 -0.7103 0.3428
vn -0.7092 -0.6782 0.1924
vn 0.0924 0.1885 0.9777
vn 0.0924 -0.1885 0.9777
vn -0.0943 0.1849 0.9782
vn -0.0943 -0.1849 0.9782
vn 0.2869 0.5202 0.8044
vn 0.3152 0.2030 0.9271
vn 0.3151 -0.2031 0.9271
vn 0.2869 -0.5204 0.8043
vn 0.0902 -0.5606 0.8232
vn -0.0902 -0.5606 0.8232
vn -0.2550 -0.5619 0.7869
vn -0.3149 -0.2035 0.9270
vn -0.3148 0.2035 0.9271
vn -0.2550 0.5618 0.7870
vn -0.0902 0.5605 0.8232
vn 0.0902 0.5604 0.8233
vn 0.9327 0.3412 0.1171
vn 0.9596 -0.2121 0.1848
vn 0.8765 0.3160 0.3631
vn 0.8859 -0.2719 0.3758
vn 0.6279 0.7782 0.0100
vn 0.9307 0.3647 0.0282
vn 0.9888 -0.1052 0.1056
vn 0.8652 -0.4854 0.1256
vn 0.7092 -0.6782 0.1924
vn 0.6148 -0.7103 0.3428
vn 0.4904 -0.6379 0.5937
vn 0.6401 -0.2535 0.7253
vn 0.6400 0.2589 0.7235
vn 0.4909 0.6466 0.5839
vn 0.5976 0.7497 0.2844
vn 0.6253 0.7757 0.0854
vn 0.0965 -0.9541 0.2834
vn -0.0965 -0.9541 0.2834
vn 0.0894 -0.9478 0.3062
vn -0.0894 -0.9478 0.3062
vn 0.4112 -0.8467 0.3377
vn 0.1171 -0.8821 0.4563
vn -0.1171 -0.8821 0.4563
vn -0.4112 -0.8467 0.3377
vn -0.3358 -0.9069 0.2547
vn -0.3016 -0.9000 0.3147
vn -0.2774 -0.8356 0.4742
vn -0.0882 -0.8577 0.5066
vn 0.0882 -0.8577 0.5066
vn 0.2774 -0.8356 0.4742
vn 0.3016 -0.9000 0.3147
vn 0.3358 -0.9069 0.2547
vn -0.0853 0.9947 0.0581
vn 0.0853 0.9947 0.0581
vn -0.0857 0.9757 0.2016
vn 0.0857 0.9757 0.2016
vn -0.2960 0.9552 0.0077
vn -0.0853 0.9963 0.0068
vn 0.0853 0.9963 0.0068
vn 0.2960 0.9552 0.0077
vn 0.2955 0.9530 0.0668
vn 0.2912 0.9305 0.2224
vn 0.2767 0.8473 0.4533
vn 0.0874 0.8688 0.4873
vn -0.0874 0.8688 0.4873
vn -0.2767 0.8473 0.4533
vn -0.2912 0.9305 0.2224
vn -0.2955 0.9530 0.0668
vn -0.1562 0.4347 -0.8869
vn -0.1540 0.5321 -0.8326
vn 0.1562 0.4347 -0.8869
vn 0.1540 0.5321 -0.8326
vn -0.4684 0.5573 -0.6856
vn -0.4916 0.4090 -0.7688
vn -0.4559 0.5327 -0.7131
vn -0.3364 0.7578 -0.5591
vn -0.1236 0.7837 -0.6088
vn 0.1236 0.7837 -0.6088
vn 0.3364 0.7578 -0.5591
vn 0.4559 0.5327 -0.7131
vn 0.4916 0.4090 -0.7688
vn 0.4684 0.5573 -0.6856
vn 0.1423 0.6060 -0.7826
vn -0.1423 0.6060 -0.7826
vn 0.9729 0.1749 -0.1514
vn 0.8839 0.4402 -0.1576
vn 0.9735 0.1498 0.1728
vn 0.8864 0.4342 0.1606
vn 0.8717 0.1917 -0.4510
vn 0.8264 0.2767 -0.4905
vn 0.7431 0.4796 -0.4666
vn 0.5658 0.7521 -0.3378
vn 0.6171 0.7771 -0.1242
vn 0.6201 0.7746 0.1244
vn 0.5701 0.7485 0.3387
vn 0.7632 0.4319 0.4806
vn 0.8391 0.1500 0.5230
vn 0.8496 0.0200 0.5271
vn 0.9831 0.0231 0.1814
vn 0.9914 0.0593 -0.1167
vn 0.1690 0.1449 0.9749
vn 0.1604 0.4289 0.8890
vn -0.1690 0.1449 0.9749
vn -0.1604 0.4289 0.8890
vn 0.5274 0.0198 0.8494
vn 0.5231 0.1502 0.8389
vn 0.4806 0.4321 0.7631
vn 0.3387 0.7485 0.5701
vn 0.1244 0.7746 0.6201
vn -0.1244 0.7746 0.6201
vn -0.3387 0.7485 0.5701
vn -0.4806 0.4321 0.7631
vn -0.5231 0.1502 0.8389
vn -0.5274 0.0198 0.8494
vn -0.1690 0.0193 0.9854
vn 0.1690 0.0193 0.9854
vn -0.9735 0.1498 0.1728
vn -0.8864 0.4342 0.1606
vn -0.9729 0.1749 -0.1514
vn -0.8839 0.4402 -0.1576
vn -0.8496 0.0200 0.5271
vn -0.8390 0.1500 0.5230
vn -0.7632 0.4319 0.4806
vn -0.5701 0.7485 0.3387
vn -0.6201 0.7746 0.1244
vn -0.6171 0.7771 -0.1242
vn -0.5658 0.7521 -0.3378
vn -0.7431 0.4796 -0.4666
vn -0.8264 0.2767 -0.4905
vn -0.8717 0.1917 -0.4510
vn -0.9914 0.0593 -0.1167
vn -0.9831 0.0231 0.1814
vn 0.0864 -0.9954 0.0411
vn 0.0895 -0.9882 0.1246
vn -0.0864 -0.9954 0.0411
vn -0.0895 -0.9882 0.1246
vn 0.2965 -0.9550 0.0068
vn 0.2974 -0.9536 0.0474
vn 0.2978 -0.9443 0.1400
vn 0.2723 -0.9134 0.3026
vn 0.0956 -0.9493 0.2995
vn -0.0956 -0.9493 0.2995
vn -0.2723 -0.9134 0.3026
vn -0.2978 -0.9443 0.1400
vn -0.2974 -0.9536 0.0474
vn -0.2965 -0.9550 0.0068
vn -0.0855 -0.9963 0.0059
vn 0.0855 -0.9963 0.0059
vn 0.0859 0.9924 0.0875
vn 0.0875 0.9924 -0.0859
vn -0.0859 0.9924 0.0875
vn -0.0875 0.9924 -0.0859
vn 0.2987 0.9150 0.2712
vn 0.2961 0.9504 0.0953
vn 0.2960 0.9504 -0.0953
vn 0.2712 0.9150 -0.2987
vn 0.0953 0.9504 -0.2961
vn -0.0953 0.9504 -0.2961
vn -0.2712 0.9150 -0.2987
vn -0.2960 0.9504 -0.0953
vn -0.2961 0.9504 0.0953
vn -0.2987 0.9150 0.2712
vn -0.0953 0.9504 0.2960
vn 0.0953 0.9504 0.2960
vn -0.8720 -0.4380 0.2185
vn -0.9653 -0.1452 0.2169
vn -0.9030 -0.4255 0.0591
vn -0.9996 -0.0259 0.0144
vn -0.5877 -0.7085 0.3906
vn -0.7600 -0.4351 0.4828
vn -0.8377 -0.1530 0.5242
vn -0.8491 -0.0200 0.5278
vn -0.9803 -0.0144 0.1968
vn -0.9979 0.0251 -0.0590
vn -0.8435 0.4575 -0.2814
vn -0.9902 0.1054 -0.0911
vn -0.9310 -0.3648 -0.0108
vn -0.6285 -0.7778 0.0076
vn -0.6255 -0.7778 0.0612
vn -0.6110 -0.7705 0.1818
vn 0.1561 -0.4347 0.8869
vn 0.1673 -0.1476 0.9748
vn -0.1561 -0.4348 0.8869
vn -0.1673 -0.1476 0.9748
vn 0.3867 -0.7080 0.5909
vn 0.4785 -0.4346 0.7630
vn 0.5214 -0.1529 0.8395
vn 0.5273 -0.0200 0.8495
vn 0.1689 -0.0194 0.9854
vn -0.1689 -0.0194 0.9854
vn -0.5273 -0.0200 0.8495
vn -0.5214 -0.1529 0.8395
vn -0.4785 -0.4346 0.7630
vn -0.3867 -0.7080 0.5909
vn -0.1250 -0.7751 0.6193
vn 0.1250 -0.7751 0.6193
vn 0.9030 -0.4255 0.0591
vn 0.9996 -0.0259 0.0144
vn 0.8720 -0.4380 0.2185
vn 0.9653 -0.1452 0.2169
vn 0.6285 -0.7778 0.0076
vn 0.9310 -0.3648 -0.0108
vn 0.9902 0.1054 -0.0911
vn 0.8435 0.4575 -0.2814
vn 0.9979 0.0251 -0.0590
vn 0.9803 -0.0144 0.1968
vn 0.8491 -0.0200 0.5278
vn 0.8377 -0.1530 0.5242
vn 0.7600 -0.4351 0.4828
vn 0.5877 -0.7085 0.3906
vn 0.6110 -0.7705 0.1818
vn 0.6255 -0.7778 0.0612
vn 0.9476 0.2894 -0.1349
vn 0.9370 -0.3313 -0.1113
vn 0.8862 0.2706 -0.3762
vn 0.8761 -0.3158 -0.3642
vn 0.8649 0.4861 -0.1249
vn 0.9933 0.1082 -0.0404
vn 0.9396 -0.3419 -0.0150
vn 0.6237 -0.7767 -0.0878
vn 0.5967 -0.7496 -0.2865
vn 0.5537 -0.6166 -0.5596
vn 0.6424 -0.2562 -0.7222
vn 0.6407 0.2526 -0.7251
vn 0.4906 0.6371 -0.5945
vn 0.6157 0.7093 -0.3433
vn 0.7101 0.6775 -0.1917
vn -0.0925 -0.1886 -0.9777
vn -0.0943 0.1851 -0.9782
vn 0.0925 -0.1886 -0.9777
vn 0.0943 0.1851 -0.9782
vn -0.2869 -0.5210 -0.8039
vn -0.3157 -0.2031 -0.9269
vn -0.3156 0.2033 -0.9269
vn -0.2550 0.5617 -0.7871
vn -0.0902 0.5607 -0.8231
vn 0.0902 0.5607 -0.8231
vn 0.2550 0.5617 -0.7871
vn 0.3156 0.2033 -0.9269
vn 0.3157 -0.2031 -0.9269
vn 0.2869 -0.5210 -0.8039
vn 0.0903 -0.5606 -0.8231
vn -0.0903 -0.5606 -0.8231
vn -0.9326 -0.3411 -0.1179
vn -0.9596 0.2111 -0.1858
vn -0.8763 -0.3156 -0.3640
vn -0.8627 0.3068 -0.4021
vn -0.9306 -0.3650 -0.0287
vn -0.9697 0.2162 -0.1138
vn -0.6937 0.6439 -0.3227
vn -0.6298 0.7278 -0.2714
vn -0.5784 0.7257 -0.3725
vn -0.5414 0.6137 -0.5747
vn -0.6382 0.2557 -0.7262
vn -0.6403 -0.2589 -0.7232
vn -0.4907 -0.6462 -0.5845
vn -0.5980 -0.7489 -0.2854
vn -0.6259 -0.7751 -0.0858
vn -0.0895 0.9516 -0.2939
vn 0.0966 0.9542 -0.2831
vn -0.0892 0.9476 -0.3069
vn 0.0895 0.9477 -0.3064
vn -0.3395 0.8298 -0.4428
vn -0.1016 0.8706 -0.4814
vn 0.1172 0.8826 -0.4554
vn 0.4119 0.8473 -0.3353
vn 0.3365 0.9068 -0.2540
vn 0.3021 0.8997 -0.3149
vn 0.2775 0.8349 -0.4753
vn 0.0882 0.8571 -0.5076
vn -0.0872 0.8563 -0.5091
vn -0.2479 0.8222 -0.5123
vn -0.2899 0.8988 -0.3289
vn -0.3032 0.9063 -0.2944
vn 0.0861 -0.9946 -0.0573
vn -0.0854 -0.9946 -0.0582
vn 0.0876 -0.9760 -0.1994
vn -0.0857 -0.9756 -0.2020
vn 0.2965 -0.9550 -0.0077
vn 0.0855 -0.9963 -0.0067
vn -0.0854 -0.9963 -0.0068
vn -0.2964 -0.9550 -0.0078
vn -0.2959 -0.9529 -0.0670
vn -0.2915 -0.9302 -0.2231
vn -0.2767 -0.8467 -0.4544
vn -0.0873 -0.8684 -0.4881
vn 0.0866 -0.8678 -0.4893
vn 0.2463 -0.8345 -0.4929
vn 0.2921 -0.9302 -0.2224
vn 0.2969 -0.9526 -0.0659
vn 0.1561 -0.4349 0.8869
vn 0.1541 -0.5315 0.8329
vn -0.1519 -0.4410 0.8846
vn -0.1484 -0.5388 0.8293
vn 0.4674 -0.5583 0.6854
vn 0.4989 -0.4276 0.7538
vn 0.4560 -0.5323 0.7133
vn 0.3365 -0.7577 0.5591
vn 0.1240 -0.7842 0.6080
vn -0.1237 -0.7838 0.6085
vn -0.3822 -0.7200 0.5792
vn -0.4608 -0.5270 0.7141
vn -0.4913 -0.4096 0.7687
vn -0.4976 -0.5199 0.6944
vn -0.1420 -0.6067 0.7821
vn 0.1377 -0.6003 0.7879
vn -0.9730 -0.1747 0.1511
vn -0.8842 -0.4398 0.1576
vn -0.9736 -0.1494 -0.1727
vn -0.8860 -0.4354 -0.1593
vn -0.8719 -0.1925 0.4503
vn -0.8265 -0.2770 0.4901
vn -0.7432 -0.4796 0.4665
vn -0.5656 -0.7523 0.3379
vn -0.6181 -0.7763 0.1232
vn -0.6194 -0.7751 -0.1245
vn -0.5908 -0.7082 -0.3865
vn -0.7632 -0.4345 -0.4782
vn -0.8399 -0.1525 -0.5209
vn -0.8497 -0.0199 -0.5269
vn -0.9832 -0.0231 -0.1812
vn -0.9914 -0.0594 0.1163
vn -0.1689 -0.1445 -0.9750
vn -0.1605 -0.4284 -0.8892
vn 0.1672 -0.1471 -0.9749
vn 0.1561 -0.4345 -0.8870
vn -0.5272 -0.0197 -0.8495
vn -0.5229 -0.1498 -0.8391
vn -0.4806 -0.4318 -0.7632
vn -0.3387 -0.7488 -0.5697
vn -0.1249 -0.7755 -0.6189
vn 0.1245 -0.7751 -0.6194
vn 0.3866 -0.7082 -0.5908
vn 0.4784 -0.4346 -0.7631
vn 0.5212 -0.1526 -0.8397
vn 0.5271 -0.0199 -0.8496
vn 0.1688 -0.0193 -0.9855
vn -0.1689 -0.0192 -0.9854
vn 0.9708 -0.1597 -0.1790
vn 0.8867 -0.4335 -0.1607
vn 0.9665 -0.2302 0.1137
vn 0.8741 -0.4657 0.1382
vn 0.8493 -0.0211 -0.5276
vn 0.8392 -0.1495 -0.5228
vn 0.7634 -0.4316 -0.4807
vn 0.5697 -0.7488 -0.3387
vn 0.6186 -0.7757 -0.1251
vn 0.6166 -0.7774 0.1243
vn 0.5838 -0.7178 0.3795
vn 0.7401 -0.5093 0.4393
vn 0.8323 -0.3545 0.4262
vn 0.8775 -0.3798 0.2927
vn 0.9872 -0.1484 0.0585
vn 0.9794 -0.0470 -0.1964
vn -0.0863 0.9954 -0.0410
vn -0.0894 0.9882 -0.1245
vn 0.0854 0.9955 -0.0418
vn 0.0870 0.9881 -0.1267
vn -0.2961 0.9551 -0.0068
vn -0.2969 0.9537 -0.0474
vn -0.2973 0.9445 -0.1400
vn -0.2720 0.9136 -0.3023
vn -0.0955 0.9495 -0.2990
vn 0.0959 0.9496 -0.2986
vn 0.2989 0.9134 -0.2763
vn 0.2960 0.9447 -0.1410
vn 0.2958 0.9540 -0.0482
vn 0.2960 0.9552 -0.0068
vn 0.0853 0.9963 -0.0060
vn -0.0854 0.9963 -0.0059
vn -0.0875 -0.9925 -0.0858
vn -0.0875 -0.9925 0.0858
vn 0.0858 -0.9925 -0.0875
vn 0.0858 -0.9925 0.0875
vn -0.2709 -0.9152 -0.2984
vn -0.2955 -0.9506 -0.0953
vn -0.2955 -0.9506 0.0953
vn -0.2709 -0.9152 0.2985
vn -0.0952 -0.9505 0.2957
vn 0.0953 -0.9506 0.2955
vn 0.2984 -0.9152 0.2709
vn 0.2957 -0.9505 0.0952
vn 0.2957 -0.9505 -0.0951
vn 0.2984 -0.9152 -0.2709
vn 0.0953 -0.9506 -0.2955
vn -0.0951 -0.9505 -0.2956
vn 0.8774 0.4211 -0.2298
vn 0.9652 0.1120 -0.2365
vn 0.9151 0.3960 -0.0762
vn 0.9978 0.0247 -0.0619
vn 0.5671 0.7481 -0.3447
vn 0.7603 0.4326 -0.4846
vn 0.8367 0.1470 -0.5276
vn 0.8479 0.0159 -0.5300
vn 0.9756 -0.0213 -0.2186
vn 0.9891 -0.1468 -0.0133
vn 0.8431 -0.4580 0.2820
vn 0.9902 -0.1061 0.0907
vn 0.9311 0.3645 0.0104
vn 0.6279 0.7782 -0.0077
vn 0.6250 0.7782 -0.0612
vn 0.6106 0.7708 -0.1816
vn -0.1605 0.4284 -0.8892
vn -0.1689 0.1445 -0.9750
vn 0.1561 0.4345 -0.8870
vn 0.1672 0.1471 -0.9749
vn -0.3387 0.7488 -0.5697
vn -0.4806 0.4318 -0.7632
vn -0.5230 0.1498 -0.8391
vn -0.5272 0.0197 -0.8495
vn -0.1689 0.0192 -0.9854
vn 0.1688 0.0193 -0.9855
vn 0.5271 0.0199 -0.8496
vn 0.5212 0.1526 -0.8397
vn 0.4784 0.4346 -0.7631
vn 0.3866 0.7082 -0.5907
vn 0.1245 0.7751 -0.6194
vn -0.1249 0.7755 -0.6189
vn -0.9032 0.4251 -0.0593
vn -0.9936 0.1119 -0.0150
vn -0.8721 0.4378 -0.2185
vn -0.9654 0.1448 -0.2168
vn -0.6262 0.7796 -0.0090
vn -0.9175 0.3976 -0.0084
vn -0.9995 0.0262 0.0149
vn -0.9847 -0.1487 0.0914
vn -0.9980 -0.0254 0.0586
vn -0.9804 0.0143 -0.1967
vn -0.8493 0.0199 -0.5276
vn -0.8379 0.1527 -0.5240
vn -0.7602 0.4350 -0.4826
vn -0.5877 0.7087 -0.3903
vn -0.6086 0.7721 -0.1827
vn -0.6220 0.7804 -0.0632
vn -0.9473 -0.2904 0.1352
vn -0.9367 0.3321 0.1112
vn -0.8623 -0.3086 0.4016
vn -0.8756 0.3175 0.3641
vn -0.6927 -0.6450 0.3226
vn -0.9744 -0.2207 0.0424
vn -0.9395 0.3421 0.0150
vn -0.6277 0.7784 0.0102
vn -0.6227 0.7775 0.0877
vn -0.5951 0.7509 0.2863
vn -0.5520 0.6179 0.5600
vn -0.6412 0.2574 0.7229
vn -0.6373 -0.2569 0.7265
vn -0.5400 -0.6150 0.5746
vn -0.5771 -0.7270 0.3721
vn -0.6288 -0.7288 0.2710
vn 0.0943 0.1849 0.9782
vn 0.0943 -0.1849 0.9782
vn -0.0924 0.1885 0.9777
vn -0.0924 -0.1885 0.9777
vn 0.2550 0.5618 0.7870
vn 0.3148 0.2035 0.9271
vn 0.3149 -0.2035 0.9270
vn 0.2550 -0.5619 0.7869
vn -0.2869 -0.5204 0.8043
vn -0.3151 -0.2031 0.9271
vn -0.3152 0.2030 0.9271
vn -0.2869 0.5202 0.8044
vn -0.0902 0.5604 0.8233
vn 0.0902 0.5605 0.8232
vn 0.9367 0.3321 0.1112
vn 0.9473 -0.2904 0.1352
vn 0.8756 0.3175 0.3641
vn 0.8623 -0.3086 0.4016
vn 0.6277 0.7784 0.0102
vn 0.9395 0.3421 0.0150
vn 0.9744 -0.2207 0.0424
vn 0.6927 -0.6450 0.3226
vn 0.6288 -0.7288 0.2710
vn 0.5771 -0.7270 0.3721
vn 0.5400 -0.6150 0.5746
vn 0.6373 -0.2569 0.7265
vn 0.6412 0.2574 0.7229
vn 0.5520 0.6179 0.5600
vn 0.5951 0.7509 0.2863
vn 0.6227 0.7775 0.0877
vn 0.0894 -0.9516 0.2941
vn -0.0894 -0.9516 0.2941
vn 0.0891 -0.9477 0.3066
vn -0.0891 -0.9477 0.3066
vn 0.3387 -0.8301 0.4430
vn 0.1015 -0.8703 0.4819
vn -0.1015 -0.8703 0.4819
vn -0.3387 -0.8301 0.4430
vn -0.3026 -0.9065 0.2944
vn -0.2893 -0.8990 0.3287
vn -0.2478 -0.8227 0.5117
vn -0.0872 -0.8568 0.5082
vn 0.0872 -0.8568 0.5082
vn 0.2478 -0.8227 0.5117
vn 0.2893 -0.8990 0.3287
vn 0.3026 -0.9065 0.2944
vn -0.0861 0.9946 0.0572
vn 0.0861 0.9946 0.0572
vn -0.0875 0.9761 0.1990
vn 0.0875 0.9761 0.1990
vn -0.2960 0.9551 0.0077
vn -0.0854 0.9963 0.0067
vn 0.0854 0.9963 0.0067
vn 0.2960 0.9551 0.0077
vn 0.2964 0.9528 0.0659
vn 0.2914 0.9304 0.2221
vn 0.2462 0.8348 0.4924
vn 0.0866 0.8683 0.4885
vn -0.0866 0.8683 0.4885
vn -0.2462 0.8348 0.4924
vn -0.2914 0.9304 0.2221
vn -0.2964 0.9528 0.0659
usemtl Material.001
s off
f 102/1/1 104/2/1 101/3/1
f 103/4/2 105/5/2 102/1/2
f 104/2/3 108/6/3 107/7/3
f 105/5/4 109/8/4 108/6/4
f 20/9/5 74/10/5 9/11/5
f 20/9/6 102/1/6 101/3/6
f 22/12/7 102/1/7 21/13/7
f 2/14/8 103/4/8 22/12/8
f 103/4/9 24/15/9 106/16/9
f 24/15/10 109/8/10 106/16/10
f 109/8/11 4/17/11 56/18/11
f 108/6/12 56/18/12 57/19/12
f 108/6/13 58/20/13 107/7/13
f 76/21/14 58/20/14 10/22/14
f 104/2/15 76/21/15 75/23/15
f 74/10/16 104/2/16 75/23/16
f 111/24/17 113/25/17 110/26/17
f 112/27/18 114/28/18 111/24/18
f 114/28/19 116/29/19 113/25/19
f 114/28/20 118/30/20 117/31/20
f 58/20/21 71/32/21 10/22/21
f 57/19/22 110/26/22 58/20/22
f 56/18/23 111/24/23 57/19/23
f 4/17/24 112/27/24 56/18/24
f 112/27/25 33/33/25 115/34/25
f 33/33/26 118/30/26 115/34/26
f 118/30/27 8/35/27 59/36/27
f 117/31/28 59/36/28 60/37/28
f 116/29/29 60/37/29 61/38/29
f 116/29/30 11/39/30 73/40/30
f 113/25/31 73/40/31 72/41/31
f 110/26/32 72/41/32 71/32/32
f 120/42/33 122/43/33 119/44/33
f 121/45/34 123/46/34 120/42/34
f 122/43/35 126/47/35 125/48/35
f 123/46/36 127/49/36 126/47/36
f 61/38/37 68/50/37 11/39/37
f 60/37/38 119/44/38 61/38/38
f 59/36/39 120/42/39 60/37/39
f 8/35/40 121/45/40 59/36/40
f 121/45/41 42/51/41 124/52/41
f 42/51/42 127/49/42 124/52/42
f 127/49/43 6/53/43 62/54/43
f 126/47/44 62/54/44 63/55/44
f 125/48/45 63/55/45 64/56/45
f 70/57/46 64/56/46 12/58/46
f 69/59/47 125/48/47 70/57/47
f 119/44/48 69/59/48 68/50/48
f 128/60/49 132/61/49 131/62/49
f 130/63/50 132/61/50 129/64/50
f 131/62/51 135/65/51 134/66/51
f 132/61/52 136/67/52 135/65/52
f 12/58/53 128/60/53 65/68/53
f 63/55/54 128/60/54 64/56/54
f 62/54/55 129/64/55 63/55/55
f 6/53/56 130/63/56 62/54/56
f 130/63/57 51/69/57 133/70/57
f 51/69/58 136/67/58 133/70/58
f 136/67/59 2/71/59 22/72/59
f 135/65/60 22/72/60 21/73/60
f 134/66/61 21/73/61 20/74/61
f 67/75/62 20/74/62 9/76/62
f 66/77/63 134/66/63 67/75/63
f 65/68/64 131/62/64 66/77/64
f 138/78/65 140/79/65 137/80/65
f 139/81/66 141/82/66 138/78/66
f 140/79/67 144/83/67 143/84/67
f 141/82/68 145/85/68 144/83/68
f 31/86/69 17/87/69 3/88/69
f 30/89/70 137/80/70 31/86/70
f 29/90/71 138/78/71 30/89/71
f 7/91/72 139/81/72 29/90/72
f 40/92/73 142/93/73 139/81/73
f 142/93/74 38/94/74 145/85/74
f 145/85/75 5/95/75 49/96/75
f 144/83/76 49/96/76 48/97/76
f 143/84/77 48/97/77 47/98/77
f 19/99/78 47/98/78 1/100/78
f 18/101/79 143/84/79 19/99/79
f 137/80/80 18/101/80 17/87/80
f 146/102/81 150/103/81 149/104/81
f 148/105/82 150/103/82 147/106/82
f 150/103/83 152/107/83 149/104/83
f 150/103/84 154/108/84 153/109/84
f 8/35/85 146/102/85 41/110/85
f 34/111/86 147/106/86 146/102/86
f 32/112/87 147/106/87 33/113/87
f 4/114/88 148/105/88 32/112/88
f 25/115/89 151/116/89 148/105/89
f 151/116/90 23/117/90 154/108/90
f 154/108/91 2/118/91 52/119/91
f 153/109/92 52/119/92 51/120/92
f 153/109/93 50/121/93 152/107/93
f 152/107/94 6/53/94 43/122/94
f 149/104/95 43/122/95 42/51/95
f 41/110/96 149/104/96 42/51/96
f 155/123/97 159/124/97 158/125/97
f 156/126/98 160/127/98 159/124/98
f 158/125/99 162/128/99 161/129/99
f 160/127/100 162/128/100 159/124/100
f 5/95/101 155/123/101 49/130/101
f 46/131/102 156/126/102 155/123/102
f 45/132/103 157/133/103 156/126/103
f 44/134/104 65/68/104 157/133/104
f 157/133/105 66/77/105 160/127/105
f 160/127/106 67/75/106 163/135/106
f 67/75/107 55/136/107 163/135/107
f 163/135/108 54/137/108 162/128/108
f 162/128/109 53/138/109 161/129/109
f 161/129/110 1/139/110 47/140/110
f 158/125/111 47/140/111 48/141/111
f 155/123/112 48/141/112 49/130/112
f 164/142/113 168/143/113 167/144/113
f 165/145/114 169/146/114 168/143/114
f 168/143/115 170/147/115 167/144/115
f 169/146/116 171/148/116 168/143/116
f 7/91/117 164/142/117 40/92/117
f 37/149/118 165/145/118 164/142/118
f 36/150/119 166/151/119 165/145/119
f 35/152/120 68/50/120 166/151/120
f 166/151/121 69/59/121 169/146/121
f 69/59/122 172/153/122 169/146/122
f 70/57/123 44/134/123 172/153/123
f 172/153/124 45/132/124 171/148/124
f 171/148/125 46/131/125 170/147/125
f 170/147/126 5/95/126 38/94/126
f 39/154/127 170/147/127 38/94/127
f 164/142/128 39/154/128 40/92/128
f 174/155/129 176/156/129 173/157/129
f 174/155/130 178/158/130 177/159/130
f 177/159/131 179/160/131 176/156/131
f 178/158/132 180/161/132 177/159/132
f 3/162/133 173/157/133 31/163/133
f 28/164/134 174/155/134 173/157/134
f 27/165/135 175/166/135 174/155/135
f 26/167/136 71/32/136 175/166/136
f 71/32/137 178/158/137 175/166/137
f 72/41/138 181/168/138 178/158/138
f 73/40/139 35/152/139 181/168/139
f 181/168/140 36/150/140 180/161/140
f 180/161/141 37/149/141 179/160/141
f 179/160/142 7/91/142 29/169/142
f 30/170/143 179/160/143 29/169/143
f 31/163/144 176/156/144 30/170/144
f 183/171/145 185/172/145 182/173/145
f 184/174/146 186/175/146 183/171/146
f 185/172/147 189/176/147 188/177/147
f 187/178/148 189/176/148 186/175/148
f 10/22/149 182/173/149 94/179/149
f 26/167/150 183/171/150 182/173/150
f 28/164/151 183/171/151 27/165/151
f 3/162/152 184/174/152 28/164/152
f 89/180/153 187/178/153 184/174/153
f 90/181/154 190/182/154 187/178/154
f 91/183/155 82/184/155 190/182/155
f 190/182/156 81/185/156 189/176/156
f 188/177/157 81/185/157 80/186/157
f 92/187/158 80/186/158 15/188/158
f 93/189/159 188/177/159 92/187/159
f 94/179/160 185/172/160 93/189/160
f 191/190/161 195/191/161 194/192/161
f 193/193/162 195/191/162 192/194/162
f 195/191/163 197/195/163 194/192/163
f 195/191/164 199/196/164 198/197/164
f 14/198/165 191/190/165 79/199/165
f 83/200/166 192/194/166 191/190/166
f 85/201/167 192/194/167 84/202/167
f 16/203/168 193/193/168 85/201/168
f 86/204/169 196/205/169 193/193/169
f 196/205/170 88/206/170 199/196/170
f 199/196/171 15/188/171 80/186/171
f 198/197/172 80/186/172 81/185/172
f 198/197/173 82/184/173 197/195/173
f 197/195/174 13/207/174 77/208/174
f 194/192/175 77/208/175 78/209/175
f 79/199/176 194/192/176 78/209/176
f 200/210/177 204/211/177 203/212/177
f 201/213/178 205/214/178 204/211/178
f 203/212/179 207/215/179 206/216/179
f 205/214/180 207/215/180 204/211/180
f 1/139/181 200/210/181 100/217/181
f 53/138/182 201/213/182 200/210/182
f 55/136/183 201/213/183 54/137/183
f 9/76/184 202/218/184 55/136/184
f 95/219/185 205/214/185 202/218/185
f 96/220/186 208/221/186 205/214/186
f 97/222/187 85/223/187 208/221/187
f 208/221/188 84/224/188 207/215/188
f 206/216/189 84/224/189 83/225/189
f 98/226/190 83/225/190 14/227/190
f 99/228/191 206/216/191 98/226/191
f 100/217/192 203/212/192 99/228/192
f 210/229/193 212/230/193 209/231/193
f 210/229/194 214/232/194 213/233/194
f 213/233/195 215/234/195 212/230/195
f 213/233/196 217/235/196 216/236/196
f 74/10/197 95/237/197 9/11/197
f 75/23/198 209/231/198 74/10/198
f 75/23/199 211/238/199 210/229/199
f 76/21/200 94/179/200 211/238/200
f 211/238/201 93/189/201 214/232/201
f 214/232/202 92/187/202 217/235/202
f 217/235/203 15/188/203 88/206/203
f 216/236/204 88/206/204 87/239/204
f 216/236/205 86/204/205 215/234/205
f 215/234/206 16/203/206 97/240/206
f 212/230/207 97/240/207 96/241/207
f 209/231/208 96/241/208 95/237/208
f 219/242/209 221/243/209 218/244/209
f 219/242/210 223/245/210 222/246/210
f 222/246/211 224/247/211 221/243/211
f 222/246/212 226/248/212 225/249/212
f 17/87/213 89/250/213 3/88/213
f 18/101/214 218/244/214 17/87/214
f 18/101/215 220/251/215 219/242/215
f 19/99/216 100/252/216 220/251/216
f 220/251/217 99/253/217 223/245/217
f 223/245/218 98/254/218 226/248/218
f 226/248/219 14/255/219 79/256/219
f 225/249/220 79/256/220 78/257/220
f 225/249/221 77/258/221 224/247/221
f 224/247/222 13/259/222 91/260/222
f 221/243/223 91/260/223 90/261/223
f 218/244/224 90/261/224 89/250/224
f 330/262/225 328/263/225 327/264/225
f 331/265/226 329/266/226 328/263/226
f 330/262/227 334/267/227 331/265/227
f 331/265/228 335/268/228 332/269/228
f 300/270/229 246/271/229 235/272/229
f 246/271/230 328/263/230 247/273/230
f 328/263/231 248/274/231 247/273/231
f 329/266/232 228/275/232 248/274/232
f 329/266/233 250/276/233 249/277/233
f 335/268/234 250/276/234 332/269/234
f 335/268/235 230/278/235 251/279/235
f 334/267/236 282/280/236 335/268/236
f 284/281/237 334/267/237 333/282/237
f 302/283/238 284/281/238 333/282/238
f 302/283/239 330/262/239 301/284/239
f 300/270/240 330/262/240 327/264/240
f 339/285/241 337/286/241 336/287/241
f 340/288/242 338/289/242 337/286/242
f 342/290/243 340/288/243 339/285/243
f 340/288/244 344/291/244 341/292/244
f 297/293/245 284/281/245 236/294/245
f 336/287/246 283/295/246 284/281/246
f 337/286/247 282/280/247 283/295/247
f 338/289/248 230/278/248 282/280/248
f 338/289/249 259/296/249 258/297/249
f 344/291/250 259/296/250 341/292/250
f 344/291/251 234/298/251 260/299/251
f 343/300/252 285/301/252 344/291/252
f 342/290/253 286/302/253 343/300/253
f 237/303/254 342/290/254 299/304/254
f 299/304/255 339/285/255 298/305/255
f 298/305/256 336/287/256 297/293/256
f 348/306/257 346/307/257 345/308/257
f 349/309/258 347/310/258 346/307/258
f 348/306/259 352/311/259 349/309/259
f 349/309/260 353/312/260 350/313/260
f 294/314/261 287/315/261 237/303/261
f 345/308/262 286/302/262 287/315/262
f 346/307/263 285/301/263 286/302/263
f 347/310/264 234/298/264 285/301/264
f 347/310/265 268/316/265 267/317/265
f 353/312/266 268/316/266 350/313/266
f 353/312/267 232/318/267 269/319/267
f 352/311/268 288/320/268 353/312/268
f 351/321/269 289/322/269 352/311/269
f 296/323/270 290/324/270 351/321/270
f 295/325/271 351/321/271 348/306/271
f 295/325/272 345/308/272 294/314/272
f 354/326/273 358/327/273 355/328/273
f 358/327/274 356/329/274 355/328/274
f 357/330/275 361/331/275 358/327/275
f 358/327/276 362/332/276 359/333/276
f 238/334/277 354/326/277 290/324/277
f 354/326/278 289/322/278 290/324/278
f 355/328/279 288/320/279 289/322/279
f 356/329/280 232/318/280 288/320/280
f 356/329/281 277/335/281 276/336/281
f 362/332/282 277/335/282 359/333/282
f 362/332/283 228/337/283 278/338/283
f 361/331/284 248/339/284 362/332/284
f 360/340/285 247/341/285 361/331/285
f 293/342/286 246/343/286 360/340/286
f 292/344/287 360/340/287 357/330/287
f 291/345/288 357/330/288 354/326/288
f 366/346/289 364/347/289 363/348/289
f 367/349/290 365/350/290 364/347/290
f 366/346/291 370/351/291 367/349/291
f 367/349/292 371/352/292 368/353/292
f 243/354/293 257/355/293 229/356/293
f 363/348/294 256/357/294 257/355/294
f 364/347/295 255/358/295 256/357/295
f 365/350/296 233/359/296 255/358/296
f 368/353/297 266/360/297 365/350/297
f 368/353/298 264/361/298 265/362/298
f 371/352/299 231/363/299 264/361/299
f 370/351/300 275/364/300 371/352/300
f 369/365/301 274/366/301 370/351/301
f 245/367/302 273/368/302 369/365/302
f 244/369/303 369/365/303 366/346/303
f 244/369/304 363/348/304 243/354/304
f 372/370/305 376/371/305 373/372/305
f 376/371/306 374/373/306 373/372/306
f 378/374/307 376/371/307 375/375/307
f 376/371/308 380/376/308 377/377/308
f 234/298/309 372/370/309 260/378/309
f 260/378/310 373/372/310 259/379/310
f 373/372/311 258/380/311 259/379/311
f 374/373/312 230/381/312 258/380/312
f 377/377/313 251/382/313 374/373/313
f 377/377/314 249/383/314 250/384/314
f 380/376/315 228/385/315 249/383/315
f 379/386/316 278/387/316 380/376/316
f 276/388/317 379/386/317 378/374/317
f 232/318/318 378/374/318 269/319/318
f 269/319/319 375/375/319 268/316/319
f 267/317/320 375/375/320 372/370/320
f 381/389/321 385/390/321 382/391/321
f 382/391/322 386/392/322 383/393/322
f 384/394/323 388/395/323 385/390/323
f 385/390/324 389/396/324 386/392/324
f 231/363/325 381/389/325 272/397/325
f 272/397/326 382/391/326 271/398/326
f 271/398/327 383/393/327 270/399/327
f 270/399/328 291/345/328 238/334/328
f 383/393/329 292/344/329 291/345/329
f 386/392/330 293/342/330 292/344/330
f 281/400/331 293/342/331 389/396/331
f 280/401/332 389/396/332 388/395/332
f 279/402/333 388/395/333 387/403/333
f 227/404/334 387/403/334 273/405/334
f 273/405/335 384/394/335 274/406/335
f 274/406/336 381/389/336 275/407/336
f 390/408/337 394/409/337 391/410/337
f 391/410/338 395/411/338 392/412/338
f 396/413/339 394/409/339 393/414/339
f 397/415/340 395/411/340 394/409/340
f 233/359/341 390/408/341 263/416/341
f 263/416/342 391/410/342 262/417/342
f 262/417/343 392/412/343 261/418/343
f 261/418/344 294/314/344 237/303/344
f 392/412/345 295/325/345 294/314/345
f 398/419/346 295/325/346 395/411/346
f 270/399/347 296/323/347 398/419/347
f 271/398/348 398/419/348 397/415/348
f 272/397/349 397/415/349 396/413/349
f 231/363/350 396/413/350 264/361/350
f 265/362/351 396/413/351 393/414/351
f 265/362/352 390/408/352 266/360/352
f 402/420/353 400/421/353 399/422/353
f 403/423/354 401/424/354 400/421/354
f 405/425/355 403/423/355 402/420/355
f 406/426/356 404/427/356 403/423/356
f 229/428/357 399/422/357 254/429/357
f 254/429/358 400/421/358 253/430/358
f 253/430/359 401/424/359 252/431/359
f 252/431/360 297/293/360 236/294/360
f 404/427/361 297/293/361 401/424/361
f 407/432/362 298/305/362 404/427/362
f 261/418/363 299/304/363 407/432/363
f 262/417/364 407/432/364 406/426/364
f 263/416/365 406/426/365 405/425/365
f 233/359/366 405/425/366 255/433/366
f 256/434/367 405/425/367 402/420/367
f 257/435/368 402/420/368 399/422/368
f 411/436/369 409/437/369 408/438/369
f 412/439/370 410/440/370 409/437/370
f 411/436/371 415/441/371 412/439/371
f 415/441/372 413/442/372 412/439/372
f 236/294/373 408/438/373 252/431/373
f 408/438/374 253/430/374 252/431/374
f 409/437/375 254/429/375 253/430/375
f 410/440/376 229/428/376 254/429/376
f 413/442/377 315/443/377 410/440/377
f 416/444/378 316/445/378 413/442/378
f 308/446/379 317/447/379 416/444/379
f 307/448/380 416/444/380 415/441/380
f 414/449/381 307/448/381 415/441/381
f 318/450/382 306/451/382 414/449/382
f 319/452/383 414/449/383 411/436/383
f 320/453/384 411/436/384 408/438/384
f 417/454/385 421/455/385 418/456/385
f 421/455/386 419/457/386 418/456/386
f 423/458/387 421/455/387 420/459/387
f 421/455/388 425/460/388 422/461/388
f 240/462/389 417/454/389 309/463/389
f 309/463/390 418/456/390 310/464/390
f 418/456/391 311/465/391 310/464/391
f 419/457/392 242/466/392 311/465/392
f 422/461/393 312/467/393 419/457/393
f 422/461/394 314/468/394 313/469/394
f 425/460/395 241/470/395 314/468/395
f 424/471/396 306/451/396 425/460/396
f 308/446/397 424/471/397 423/458/397
f 239/472/398 423/458/398 303/473/398
f 303/473/399 420/459/399 304/474/399
f 305/475/400 420/459/400 417/454/400
f 426/476/401 430/477/401 427/478/401
f 427/478/402 431/479/402 428/480/402
f 429/481/403 433/482/403 430/477/403
f 433/482/404 431/479/404 430/477/404
f 227/404/405 426/476/405 279/402/405
f 279/402/406 427/478/406 280/401/406
f 280/401/407 428/480/407 281/400/407
f 428/480/408 235/483/408 281/400/408
f 431/479/409 321/484/409 428/480/409
f 434/485/410 322/486/410 431/479/410
f 311/487/411 323/488/411 434/485/411
f 310/489/412 434/485/412 433/482/412
f 432/490/413 310/489/413 433/482/413
f 324/491/414 309/492/414 432/490/414
f 325/493/415 432/490/415 429/481/415
f 326/494/416 429/481/416 426/476/416
f 438/495/417 436/496/417 435/497/417
f 436/496/418 440/498/418 437/499/418
f 441/500/419 439/501/419 438/495/419
f 439/501/420 443/502/420 440/498/420
f 321/503/421 300/270/421 235/272/421
f 435/497/422 301/284/422 300/270/422
f 301/284/423 437/499/423 302/283/423
f 302/283/424 320/453/424 236/294/424
f 437/499/425 319/452/425 320/453/425
f 440/498/426 318/450/426 319/452/426
f 443/502/427 241/470/427 318/450/427
f 442/504/428 314/468/428 443/502/428
f 312/467/429 442/504/429 441/500/429
f 242/466/430 441/500/430 323/505/430
f 323/505/431 438/495/431 322/506/431
f 322/506/432 435/497/432 321/503/432
f 447/507/433 445/508/433 444/509/433
f 445/508/434 449/510/434 446/511/434
f 450/512/435 448/513/435 447/507/435
f 448/513/436 452/514/436 449/510/436
f 315/515/437 243/354/437 229/356/437
f 444/509/438 244/369/438 243/354/438
f 244/369/439 446/511/439 245/367/439
f 245/367/440 326/516/440 227/517/440
f 446/511/441 325/518/441 326/516/441
f 449/510/442 324/519/442 325/518/442
f 452/514/443 240/520/443 324/519/443
f 451/521/444 305/522/444 452/514/444
f 303/523/445 451/521/445 450/512/445
f 239/524/446 450/512/446 317/525/446
f 317/525/447 447/507/447 316/526/447
f 316/526/448 444/509/448 315/515/448
f 102/1/449 105/5/449 104/2/449
f 103/4/450 106/16/450 105/5/450
f 104/2/451 105/5/451 108/6/451
f 105/5/452 106/16/452 109/8/452
f 20/9/453 101/3/453 74/10/453
f 20/9/454 21/13/454 102/1/454
f 22/12/455 103/4/455 102/1/455
f 2/14/456 23/527/456 103/4/456
f 103/4/457 23/527/457 24/15/457
f 24/15/458 25/528/458 109/8/458
f 109/8/459 25/528/459 4/17/459
f 108/6/460 109/8/460 56/18/460
f 108/6/461 57/19/461 58/20/461
f 76/21/462 107/7/462 58/20/462
f 104/2/463 107/7/463 76/21/463
f 74/10/464 101/3/464 104/2/464
f 111/24/465 114/28/465 113/25/465
f 112/27/466 115/34/466 114/28/466
f 114/28/467 117/31/467 116/29/467
f 114/28/468 115/34/468 118/30/468
f 58/20/469 110/26/469 71/32/469
f 57/19/470 111/24/470 110/26/470
f 56/18/471 112/27/471 111/24/471
f 4/17/472 32/529/472 112/27/472
f 112/27/473 32/529/473 33/33/473
f 33/33/474 34/530/474 118/30/474
f 118/30/475 34/530/475 8/35/475
f 117/31/476 118/30/476 59/36/476
f 116/29/477 117/31/477 60/37/477
f 116/29/478 61/38/478 11/39/478
f 113/25/479 116/29/479 73/40/479
f 110/26/480 113/25/480 72/41/480
f 120/42/481 123/46/481 122/43/481
f 121/45/482 124/52/482 123/46/482
f 122/43/483 123/46/483 126/47/483
f 123/46/484 124/52/484 127/49/484
f 61/38/485 119/44/485 68/50/485
f 60/37/486 120/42/486 119/44/486
f 59/36/487 121/45/487 120/42/487
f 8/35/488 41/110/488 121/45/488
f 121/45/489 41/110/489 42/51/489
f 42/51/490 43/122/490 127/49/490
f 127/49/491 43/122/491 6/53/491
f 126/47/492 127/49/492 62/54/492
f 125/48/493 126/47/493 63/55/493
f 70/57/494 125/48/494 64/56/494
f 69/59/495 122/43/495 125/48/495
f 119/44/496 122/43/496 69/59/496
f 128/60/497 129/64/497 132/61/497
f 130/63/498 133/70/498 132/61/498
f 131/62/499 132/61/499 135/65/499
f 132/61/500 133/70/500 136/67/500
f 12/58/501 64/56/501 128/60/501
f 63/55/502 129/64/502 128/60/502
f 62/54/503 130/63/503 129/64/503
f 6/53/504 50/531/504 130/63/504
f 130/63/505 50/531/505 51/69/505
f 51/69/506 52/532/506 136/67/506
f 136/67/507 52/532/507 2/71/507
f 135/65/508 136/67/508 22/72/508
f 134/66/509 135/65/509 21/73/509
f 67/75/510 134/66/510 20/74/510
f 66/77/511 131/62/511 134/66/511
f 65/68/512 128/60/512 131/62/512
f 138/78/513 141/82/513 140/79/513
f 139/81/514 142/93/514 141/82/514
f 140/79/515 141/82/515 144/83/515
f 141/82/516 142/93/516 145/85/516
f 31/86/517 137/80/517 17/87/517
f 30/89/518 138/78/518 137/80/518
f 29/90/519 139/81/519 138/78/519
f 7/91/520 40/92/520 139/81/520
f 40/92/521 39/154/521 142/93/521
f 142/93/522 39/154/522 38/94/522
f 145/85/523 38/94/523 5/95/523
f 144/83/524 145/85/524 49/96/524
f 143/84/525 144/83/525 48/97/525
f 19/99/526 143/84/526 47/98/526
f 18/101/527 140/79/527 143/84/527
f 137/80/528 140/79/528 18/101/528
f 146/102/529 147/106/529 150/103/529
f 148/105/530 151/116/530 150/103/530
f 150/103/531 153/109/531 152/107/531
f 150/103/532 151/116/532 154/108/532
f 8/35/533 34/111/533 146/102/533
f 34/111/534 33/113/534 147/106/534
f 32/112/535 148/105/535 147/106/535
f 4/114/536 25/115/536 148/105/536
f 25/115/537 24/533/537 151/116/537
f 151/116/538 24/533/538 23/117/538
f 154/108/539 23/117/539 2/118/539
f 153/109/540 154/108/540 52/119/540
f 153/109/541 51/120/541 50/121/541
f 152/107/542 50/121/542 6/53/542
f 149/104/543 152/107/543 43/122/543
f 41/110/544 146/102/544 149/104/544
f 155/123/545 156/126/545 159/124/545
f 156/126/546 157/133/546 160/127/546
f 158/125/547 159/124/547 162/128/547
f 160/127/548 163/135/548 162/128/548
f 5/95/549 46/131/549 155/123/549
f 46/131/550 45/132/550 156/126/550
f 45/132/551 44/134/551 157/133/551
f 44/134/552 12/58/552 65/68/552
f 157/133/553 65/68/553 66/77/553
f 160/127/554 66/77/554 67/75/554
f 67/75/555 9/76/555 55/136/555
f 163/135/556 55/136/556 54/137/556
f 162/128/557 54/137/557 53/138/557
f 161/129/558 53/138/558 1/139/558
f 158/125/559 161/129/559 47/140/559
f 155/123/560 158/125/560 48/141/560
f 164/142/561 165/145/561 168/143/561
f 165/145/562 166/151/562 169/146/562
f 168/143/563 171/148/563 170/147/563
f 169/146/564 172/153/564 171/148/564
f 7/91/565 37/149/565 164/142/565
f 37/149/566 36/150/566 165/145/566
f 36/150/567 35/152/567 166/151/567
f 35/152/568 11/39/568 68/50/568
f 166/151/569 68/50/569 69/59/569
f 69/59/570 70/57/570 172/153/570
f 70/57/571 12/58/571 44/134/571
f 172/153/572 44/134/572 45/132/572
f 171/148/573 45/132/573 46/131/573
f 170/147/574 46/131/574 5/95/574
f 39/154/575 167/144/575 170/147/575
f 164/142/576 167/144/576 39/154/576
f 174/155/577 177/159/577 176/156/577
f 174/155/578 175/166/578 178/158/578
f 177/159/579 180/161/579 179/160/579
f 178/158/580 181/168/580 180/161/580
f 3/162/581 28/164/581 173/157/581
f 28/164/582 27/165/582 174/155/582
f 27/165/583 26/167/583 175/166/583
f 26/167/584 10/22/584 71/32/584
f 71/32/585 72/41/585 178/158/585
f 72/41/586 73/40/586 181/168/586
f 73/40/587 11/39/587 35/152/587
f 181/168/588 35/152/588 36/150/588
f 180/161/589 36/150/589 37/149/589
f 179/160/590 37/149/590 7/91/590
f 30/170/591 176/156/591 179/160/591
f 31/163/592 173/157/592 176/156/592
f 183/171/593 186/175/593 185/172/593
f 184/174/594 187/178/594 186/175/594
f 185/172/595 186/175/595 189/176/595
f 187/178/596 190/182/596 189/176/596
f 10/22/597 26/167/597 182/173/597
f 26/167/598 27/165/598 183/171/598
f 28/164/599 184/174/599 183/171/599
f 3/162/152 89/180/152 184/174/152
f 89/180/600 90/181/600 187/178/600
f 90/181/601 91/183/601 190/182/601
f 91/183/602 13/207/602 82/184/602
f 190/182/603 82/184/603 81/185/603
f 188/177/604 189/176/604 81/185/604
f 92/187/605 188/177/605 80/186/605
f 93/189/606 185/172/606 188/177/606
f 94/179/607 182/173/607 185/172/607
f 191/190/608 192/194/608 195/191/608
f 193/193/609 196/205/609 195/191/609
f 195/191/610 198/197/610 197/195/610
f 195/191/611 196/205/611 199/196/611
f 14/198/612 83/200/612 191/190/612
f 83/200/613 84/202/613 192/194/613
f 85/201/614 193/193/614 192/194/614
f 16/203/615 86/204/615 193/193/615
f 86/204/616 87/239/616 196/205/616
f 196/205/617 87/239/617 88/206/617
f 199/196/618 88/206/618 15/188/618
f 198/197/619 199/196/619 80/186/619
f 198/197/620 81/185/620 82/184/620
f 197/195/621 82/184/621 13/207/621
f 194/192/622 197/195/622 77/208/622
f 79/199/623 191/190/623 194/192/623
f 200/210/624 201/213/624 204/211/624
f 201/213/625 202/218/625 205/214/625
f 203/212/626 204/211/626 207/215/626
f 205/214/627 208/221/627 207/215/627
f 1/139/181 53/138/181 200/210/181
f 53/138/628 54/137/628 201/213/628
f 55/136/629 202/218/629 201/213/629
f 9/76/630 95/219/630 202/218/630
f 95/219/631 96/220/631 205/214/631
f 96/220/632 97/222/632 208/221/632
f 97/222/633 16/534/633 85/223/633
f 208/221/634 85/223/634 84/224/634
f 206/216/635 207/215/635 84/224/635
f 98/226/636 206/216/636 83/225/636
f 99/228/637 203/212/637 206/216/637
f 100/217/638 200/210/638 203/212/638
f 210/229/639 213/233/639 212/230/639
f 210/229/640 211/238/640 214/232/640
f 213/233/641 216/236/641 215/234/641
f 213/233/642 214/232/642 217/235/642
f 74/10/643 209/231/643 95/237/643
f 75/23/644 210/229/644 209/231/644
f 75/23/645 76/21/645 211/238/645
f 76/21/646 10/22/646 94/179/646
f 211/238/647 94/179/647 93/189/647
f 214/232/648 93/189/648 92/187/648
f 217/235/649 92/187/649 15/188/649
f 216/236/650 217/235/650 88/206/650
f 216/236/651 87/239/651 86/204/651
f 215/234/652 86/204/652 16/203/652
f 212/230/653 215/234/653 97/240/653
f 209/231/654 212/230/654 96/241/654
f 219/242/655 222/246/655 221/243/655
f 219/242/656 220/251/656 223/245/656
f 222/246/657 225/249/657 224/247/657
f 222/246/658 223/245/658 226/248/658
f 17/87/659 218/244/659 89/250/659
f 18/101/660 219/242/660 218/244/660
f 18/101/661 19/99/661 220/251/661
f 19/99/662 1/100/662 100/252/662
f 220/251/663 100/252/663 99/253/663
f 223/245/664 99/253/664 98/254/664
f 226/248/665 98/254/665 14/255/665
f 225/249/666 226/248/666 79/256/666
f 225/249/667 78/257/667 77/258/667
f 224/247/668 77/258/668 13/259/668
f 221/243/669 224/247/669 91/260/669
f 218/244/670 221/243/670 90/261/670
f 330/262/671 331/265/671 328/263/671
f 331/265/672 332/269/672 329/266/672
f 330/262/673 333/282/673 334/267/673
f 331/265/674 334/267/674 335/268/674
f 300/270/675 327/264/675 246/271/675
f 246/271/676 327/264/676 328/263/676
f 328/263/677 329/266/677 248/274/677
f 329/266/678 249/277/678 228/275/678
f 329/266/679 332/269/679 250/276/679
f 335/268/680 251/279/680 250/276/680
f 335/268/681 282/280/681 230/278/681
f 334/267/682 283/295/682 282/280/682
f 284/281/683 283/295/683 334/267/683
f 302/283/684 236/294/684 284/281/684
f 302/283/685 333/282/685 330/262/685
f 300/270/686 301/284/686 330/262/686
f 339/285/687 340/288/687 337/286/687
f 340/288/688 341/292/688 338/289/688
f 342/290/689 343/300/689 340/288/689
f 340/288/690 343/300/690 344/291/690
f 297/293/691 336/287/691 284/281/691
f 336/287/692 337/286/692 283/295/692
f 337/286/693 338/289/693 282/280/693
f 338/289/694 258/297/694 230/278/694
f 338/289/695 341/292/695 259/296/695
f 344/291/696 260/299/696 259/296/696
f 344/291/697 285/301/697 234/298/697
f 343/300/698 286/302/698 285/301/698
f 342/290/699 287/315/699 286/302/699
f 237/303/700 287/315/700 342/290/700
f 299/304/701 342/290/701 339/285/701
f 298/305/702 339/285/702 336/287/702
f 348/306/703 349/309/703 346/307/703
f 349/309/704 350/313/704 347/310/704
f 348/306/705 351/321/705 352/311/705
f 349/309/706 352/311/706 353/312/706
f 294/314/707 345/308/707 287/315/707
f 345/308/708 346/307/708 286/302/708
f 346/307/709 347/310/709 285/301/709
f 347/310/710 267/317/710 234/298/710
f 347/310/711 350/313/711 268/316/711
f 353/312/712 269/319/712 268/316/712
f 353/312/713 288/320/713 232/318/713
f 352/311/714 289/322/714 288/320/714
f 351/321/715 290/324/715 289/322/715
f 296/323/716 238/334/716 290/324/716
f 295/325/717 296/323/717 351/321/717
f 295/325/718 348/306/718 345/308/718
f 354/326/719 357/330/719 358/327/719
f 358/327/720 359/333/720 356/329/720
f 357/330/721 360/340/721 361/331/721
f 358/327/722 361/331/722 362/332/722
f 238/334/723 291/345/723 354/326/723
f 354/326/724 355/328/724 289/322/724
f 355/328/725 356/329/725 288/320/725
f 356/329/726 276/336/726 232/318/726
f 356/329/727 359/333/727 277/335/727
f 362/332/728 278/338/728 277/335/728
f 362/332/729 248/339/729 228/337/729
f 361/331/730 247/341/730 248/339/730
f 360/340/731 246/343/731 247/341/731
f 293/342/732 235/483/732 246/343/732
f 292/344/733 293/342/733 360/340/733
f 291/345/734 292/344/734 357/330/734
f 366/346/735 367/349/735 364/347/735
f 367/349/736 368/353/736 365/350/736
f 366/346/737 369/365/737 370/351/737
f 367/349/738 370/351/738 371/352/738
f 243/354/739 363/348/739 257/355/739
f 363/348/740 364/347/740 256/357/740
f 364/347/741 365/350/741 255/358/741
f 365/350/742 266/360/742 233/359/742
f 368/353/743 265/362/743 266/360/743
f 368/353/744 371/352/744 264/361/744
f 371/352/745 275/364/745 231/363/745
f 370/351/746 274/366/746 275/364/746
f 369/365/747 273/368/747 274/366/747
f 245/367/748 227/517/748 273/368/748
f 244/369/749 245/367/749 369/365/749
f 244/369/750 366/346/750 363/348/750
f 372/370/751 375/375/751 376/371/751
f 376/371/752 377/377/752 374/373/752
f 378/374/753 379/386/753 376/371/753
f 376/371/754 379/386/754 380/376/754
f 234/298/755 267/317/755 372/370/755
f 260/378/756 372/370/756 373/372/756
f 373/372/757 374/373/757 258/380/757
f 374/373/758 251/382/758 230/381/758
f 377/377/759 250/384/759 251/382/759
f 377/377/760 380/376/760 249/383/760
f 380/376/761 278/387/761 228/385/761
f 379/386/762 277/535/762 278/387/762
f 276/388/763 277/535/763 379/386/763
f 232/318/764 276/388/764 378/374/764
f 269/319/765 378/374/765 375/375/765
f 267/317/766 268/316/766 375/375/766
f 381/389/767 384/394/767 385/390/767
f 382/391/768 385/390/768 386/392/768
f 384/394/769 387/403/769 388/395/769
f 385/390/770 388/395/770 389/396/770
f 231/363/771 275/407/771 381/389/771
f 272/397/772 381/389/772 382/391/772
f 271/398/773 382/391/773 383/393/773
f 270/399/774 383/393/774 291/345/774
f 383/393/775 386/392/775 292/344/775
f 386/392/776 389/396/776 293/342/776
f 281/400/777 235/483/777 293/342/777
f 280/401/778 281/400/778 389/396/778
f 279/402/779 280/401/779 388/395/779
f 227/404/780 279/402/780 387/403/780
f 273/405/781 387/403/781 384/394/781
f 274/406/782 384/394/782 381/389/782
f 390/408/783 393/414/783 394/409/783
f 391/410/784 394/409/784 395/411/784
f 396/413/785 397/415/785 394/409/785
f 397/415/786 398/419/786 395/411/786
f 233/359/787 266/360/787 390/408/787
f 263/416/788 390/408/788 391/410/788
f 262/417/789 391/410/789 392/412/789
f 261/418/790 392/412/790 294/314/790
f 392/412/791 395/411/791 295/325/791
f 398/419/792 296/323/792 295/325/792
f 270/399/793 238/334/793 296/323/793
f 271/398/794 270/399/794 398/419/794
f 272/397/795 271/398/795 397/415/795
f 231/363/796 272/397/796 396/413/796
f 265/362/797 264/361/797 396/413/797
f 265/362/798 393/414/798 390/408/798
f 402/420/799 403/423/799 400/421/799
f 403/423/800 404/427/800 401/424/800
f 405/425/801 406/426/801 403/423/801
f 406/426/802 407/432/802 404/427/802
f 229/428/803 257/435/803 399/422/803
f 254/429/804 399/422/804 400/421/804
f 253/430/805 400/421/805 401/424/805
f 252/431/806 401/424/806 297/293/806
f 404/427/807 298/305/807 297/293/807
f 407/432/808 299/304/808 298/305/808
f 261/418/809 237/303/809 299/304/809
f 262/417/810 261/418/810 407/432/810
f 263/416/811 262/417/811 406/426/811
f 233/359/812 263/416/812 405/425/812
f 256/434/813 255/433/813 405/425/813
f 257/435/814 256/434/814 402/420/814
f 411/436/815 412/439/815 409/437/815
f 412/439/816 413/442/816 410/440/816
f 411/436/817 414/449/817 415/441/817
f 415/441/818 416/444/818 413/442/818
f 236/294/819 320/453/819 408/438/819
f 408/438/820 409/437/820 253/430/820
f 409/437/821 410/440/821 254/429/821
f 410/440/822 315/443/822 229/428/822
f 413/442/823 316/445/823 315/443/823
f 416/444/824 317/447/824 316/445/824
f 308/446/825 239/472/825 317/447/825
f 307/448/826 308/446/826 416/444/826
f 414/449/827 306/451/827 307/448/827
f 318/450/828 241/470/828 306/451/828
f 319/452/829 318/450/829 414/449/829
f 320/453/830 319/452/830 411/436/830
f 417/454/831 420/459/831 421/455/831
f 421/455/832 422/461/832 419/457/832
f 423/458/833 424/471/833 421/455/833
f 421/455/834 424/471/834 425/460/834
f 240/462/835 305/475/835 417/454/835
f 309/463/836 417/454/836 418/456/836
f 418/456/837 419/457/837 311/465/837
f 419/457/838 312/467/838 242/466/838
f 422/461/393 313/469/393 312/467/393
f 422/461/394 425/460/394 314/468/394
f 425/460/839 306/451/839 241/470/839
f 424/471/840 307/448/840 306/451/840
f 308/446/841 307/448/841 424/471/841
f 239/472/842 308/446/842 423/458/842
f 303/473/843 423/458/843 420/459/843
f 305/475/844 304/474/844 420/459/844
f 426/476/845 429/481/845 430/477/845
f 427/478/846 430/477/846 431/479/846
f 429/481/847 432/490/847 433/482/847
f 433/482/848 434/485/848 431/479/848
f 227/404/849 326/494/849 426/476/849
f 279/402/850 426/476/850 427/478/850
f 280/401/851 427/478/851 428/480/851
f 428/480/852 321/484/852 235/483/852
f 431/479/853 322/486/853 321/484/853
f 434/485/854 323/488/854 322/486/854
f 311/487/855 242/536/855 323/488/855
f 310/489/856 311/487/856 434/485/856
f 432/490/857 309/492/857 310/489/857
f 324/491/858 240/537/858 309/492/858
f 325/493/859 324/491/859 432/490/859
f 326/494/860 325/493/860 429/481/860
f 438/495/861 439/501/861 436/496/861
f 436/496/862 439/501/862 440/498/862
f 441/500/863 442/504/863 439/501/863
f 439/501/864 442/504/864 443/502/864
f 321/503/865 435/497/865 300/270/865
f 435/497/866 436/496/866 301/284/866
f 301/284/867 436/496/867 437/499/867
f 302/283/868 437/499/868 320/453/868
f 437/499/869 440/498/869 319/452/869
f 440/498/870 443/502/870 318/450/870
f 443/502/871 314/468/871 241/470/871
f 442/504/872 313/469/872 314/468/872
f 312/467/873 313/469/873 442/504/873
f 242/466/874 312/467/874 441/500/874
f 323/505/875 441/500/875 438/495/875
f 322/506/876 438/495/876 435/497/876
f 447/507/877 448/513/877 445/508/877
f 445/508/878 448/513/878 449/510/878
f 450/512/879 451/521/879 448/513/879
f 448/513/880 451/521/880 452/514/880
f 315/515/881 444/509/881 243/354/881
f 444/509/882 445/508/882 244/369/882
f 244/369/883 445/508/883 446/511/883
f 245/367/884 446/511/884 326/516/884
f 446/511/885 449/510/885 325/518/885
f 449/510/886 452/514/886 324/519/886
f 452/514/887 305/522/887 240/520/887
f 451/521/888 304/538/888 305/522/888
f 303/523/889 304/538/889 451/521/889
f 239/524/890 303/523/890 450/512/890
f 317/525/891 450/512/891 447/507/891
f 316/526/892 447/507/892 444/509/892
