# Blender v3.1.2 OBJ File: ''
# www.blender.org
mtllib свёрнутыйдом.mtl
o Cube.109
v -0.990000 0.990000 -1.000000
v -1.000000 0.990000 -0.990000
v -0.990000 1.000000 -0.990000
v 1.000000 0.990000 0.990000
v 0.990000 1.000000 0.990000
v 0.990000 0.990000 1.000000
v 0.990000 1.000000 -0.990000
v 1.000000 0.990000 -0.990000
v 0.990000 0.990000 -1.000000
v -1.000000 -0.990000 0.990000
v -0.990000 -1.000000 0.990000
v -0.990000 -0.990000 1.000000
v 0.990000 -1.000000 0.990000
v 1.000000 -0.990000 0.990000
v 0.990000 -0.990000 1.000000
v -0.990000 1.000000 0.990000
v -1.000000 0.990000 0.990000
v -0.990000 0.990000 1.000000
v -0.990000 -0.990000 -1.000000
v -0.990000 -1.000000 -0.990000
v -1.000000 -0.990000 -0.990000
v 0.990000 -0.990000 -1.000000
v 1.000000 -0.990000 -0.990000
v 0.990000 -1.000000 -0.990000
v -1.033358 1.081536 1.045237
v -1.035237 1.087959 1.035237
v -1.045237 1.081680 1.033283
v -1.035237 -0.010127 -1.035237
v -1.045237 -0.003847 -1.033283
v -1.033358 -0.003704 -1.045237
v -1.045237 -0.003705 1.033358
v -1.035237 -0.010127 1.035237
v -1.033283 -0.003848 1.045237
v -1.035237 1.087959 -1.035237
v -1.033283 1.081680 -1.045237
v -1.045237 1.081537 -1.033358
v 1.045237 -0.003704 -1.033358
v 1.035237 -0.010127 -1.035237
v 1.033283 -0.003847 -1.045237
v 1.033358 1.081537 -1.045237
v 1.035237 1.087959 -1.035237
v 1.045237 1.081680 -1.033283
v 1.045237 -0.003848 1.033283
v 1.033358 -0.003705 1.045237
v 1.035237 -0.010127 1.035237
v 1.045237 1.081536 1.033358
v 1.035237 1.087959 1.035237
v 1.033283 1.081680 1.045237
v -1.120043 1.148395 -0.089583
v -1.130043 1.147698 -0.088381
v -1.119318 1.158395 -0.088733
v 1.130043 1.147698 0.088381
v 1.119318 1.158395 0.088733
v 1.120043 1.148395 0.089583
v 1.120043 1.148395 -0.089583
v 1.119346 1.158395 -0.088381
v 1.130043 1.147670 -0.088733
v -1.119318 -1.101691 0.088733
v -1.120043 -1.091691 0.089583
v -1.130043 -1.090994 0.088381
v 1.120043 -1.091691 0.089583
v 1.119346 -1.101691 0.088381
v 1.130043 -1.090966 0.088733
v -1.119346 1.158395 0.088381
v -1.130043 1.147670 0.088733
v -1.120043 1.148395 0.089583
v -1.120043 -1.091691 -0.089583
v -1.119346 -1.101691 -0.088381
v -1.130043 -1.090966 -0.088733
v 1.120043 -1.091691 -0.089583
v 1.130043 -1.090994 -0.088381
v 1.119318 -1.101691 -0.088733
v -0.089583 1.147803 1.120041
v -0.088380 1.147103 1.130043
v -0.088733 1.157801 1.119318
v 0.089583 1.147804 -1.120040
v 0.088380 1.147104 -1.130043
v 0.088733 1.157801 -1.119317
v -0.089583 1.147804 -1.120040
v -0.088381 1.157801 -1.119345
v -0.088732 1.147076 -1.130043
v 0.089583 -1.091100 1.120040
v 0.088380 -1.090400 1.130043
v 0.088733 -1.101097 1.119317
v 0.088381 -1.101097 -1.119346
v 0.088732 -1.090371 -1.130043
v 0.089583 -1.091099 -1.120041
v 0.088732 1.147075 1.130043
v 0.089583 1.147803 1.120041
v 0.088381 1.157801 1.119346
v -0.089583 -1.091100 1.120040
v -0.088381 -1.101097 1.119345
v -0.088732 -1.090371 1.130043
v -0.089583 -1.091099 -1.120041
v -0.088380 -1.090399 -1.130043
v -0.088733 -1.101097 -1.119318
v -0.077223 1.374649 0.684805
v -0.077176 1.389013 0.700016
v -0.079733 1.386083 0.688117
v -0.079733 1.827152 0.256953
v -0.077223 1.838587 0.260266
v -0.077176 1.824223 0.245055
v -0.079733 1.172291 0.008414
v -0.076890 1.167454 -0.004205
v -0.076935 1.160101 0.002712
v 0.077176 1.167512 -0.004183
v 0.079733 1.172291 0.008414
v 0.077223 1.160120 0.002771
v 0.076935 1.838568 0.260207
v 0.079733 1.827152 0.256953
v 0.076890 1.824281 0.245077
v 0.076935 1.374668 0.684864
v 0.079733 1.386083 0.688117
v 0.076890 1.388955 0.699994
v 0.077176 2.045723 0.949254
v 0.079733 2.040945 0.936657
v 0.077223 2.053116 0.942300
v -0.077223 1.848397 -0.157636
v -0.077176 1.864105 -0.171456
v -0.079733 1.852110 -0.168947
v -0.079733 1.436731 -0.624911
v -0.077223 1.440444 -0.636222
v -0.077176 1.424736 -0.622401
v -0.076890 1.152525 0.025192
v -0.076935 1.159180 0.032783
v -0.079733 1.165307 0.020801
v 0.079733 1.165307 0.020801
v 0.077223 1.159240 0.032766
v 0.077176 1.152550 0.025134
v 0.076890 1.424761 -0.622459
v 0.076935 1.440384 -0.636205
v 0.079733 1.436731 -0.624911
v 0.076935 1.848457 -0.157652
v 0.079733 1.852110 -0.168947
v 0.076890 1.864080 -0.171398
v 0.079733 2.123534 -0.814660
v 0.077223 2.129602 -0.826625
v 0.077176 2.136292 -0.818992
v -0.076935 2.053134 0.942359
v -0.079733 2.040945 0.936657
v -0.076890 2.045782 0.949276
v -0.076935 2.129662 -0.826641
v -0.079733 2.123534 -0.814660
v -0.076890 2.136316 -0.819050
vt 0.623750 0.251250
vt 0.623750 0.498750
vt 0.376250 0.498750
vt 0.623750 0.501250
vt 0.376250 0.748750
vt 0.376250 0.501250
vt 0.373750 0.501250
vt 0.373750 0.748750
vt 0.126250 0.748750
vt 0.623570 0.001430
vt 0.623538 0.248579
vt 0.376430 0.248570
vt 0.623750 0.001250
vt 0.376250 0.248750
vt 0.376250 0.001250
vt 0.873750 0.501250
vt 0.626250 0.748750
vt 0.626250 0.501250
vt 0.623570 0.751430
vt 0.623538 0.998579
vt 0.376430 0.998570
vt 0.373804 0.501196
vt 0.373804 0.748804
vt 0.126196 0.748804
vt 0.623570 0.501430
vt 0.623538 0.748579
vt 0.376430 0.748570
vt 0.623570 0.251430
vt 0.623538 0.498579
vt 0.376430 0.498570
vt 0.376462 0.251421
vt 0.376462 0.501421
vt 0.623750 0.248750
vt 0.623750 0.751250
vt 0.376250 0.998750
vt 0.376250 0.751250
vt 0.376250 0.251250
vt 0.126250 0.501250
vt 0.623750 0.998750
vt 0.623750 0.748750
vt 0.873804 0.501196
vt 0.873804 0.748804
vt 0.626196 0.748804
vt 0.626196 0.501196
vt 0.126196 0.501196
vt 0.376462 0.751421
vt 0.376462 0.001421
vt 0.623750 0.250000
vt 0.624375 0.250625
vt 0.625000 0.748750
vt 0.625625 0.749375
vt 0.625000 0.501250
vt 0.626250 0.500000
vt 0.375000 0.001250
vt 0.376250 0.000000
vt 0.375000 0.748750
vt 0.373750 0.750000
vt 0.625000 0.001250
vt 0.624375 0.000625
vt 0.375000 0.251250
vt 0.376250 0.250000
vt 0.375625 0.499375
vt 0.375000 0.498750
vt 0.873579 0.750000
vt 0.873804 0.750000
vt 0.875000 0.748570
vt 0.375000 0.248804
vt 0.375316 0.249684
vt 0.375000 0.001196
vt 0.376430 0.000000
vt 0.625000 0.251196
vt 0.624684 0.250316
vt 0.376462 0.500000
vt 0.375937 0.499063
vt 0.625000 0.498804
vt 0.623570 0.500000
vt 0.376462 0.750000
vt 0.375937 0.749063
vt 0.625000 0.748579
vt 0.625715 0.749285
vt 0.625000 0.498750
vt 0.625000 0.251250
vt 0.625000 0.248750
vt 0.623538 0.000000
vt 0.625000 0.248804
vt 0.625000 0.001196
vt 0.626430 0.750000
vt 0.126430 0.750000
vt 0.623750 0.000000
vt 0.873750 0.748750
vt 0.626250 0.750000
vt 0.126250 0.750000
vt 0.375000 0.251196
vt 0.373579 0.750000
vt 0.873750 0.750000
vt 0.375000 0.248750
vt 0.375000 0.498804
vt 0.873814 0.501186
vt 0.873817 0.748323
vt 0.626186 0.748814
vt 0.623894 0.251106
vt 0.623894 0.498894
vt 0.376106 0.498894
vt 0.623814 0.501186
vt 0.376186 0.748814
vt 0.376183 0.501677
vt 0.373814 0.501186
vt 0.373817 0.748323
vt 0.126186 0.748814
vt 0.623814 0.001186
vt 0.376186 0.248814
vt 0.376183 0.001677
vt 0.126183 0.501677
vt 0.626183 0.501677
vt 0.623817 0.248323
vt 0.623894 0.751106
vt 0.376106 0.998894
vt 0.376106 0.751106
vt 0.376106 0.251106
vt 0.623894 0.998894
vt 0.623817 0.748323
vt 0.623817 0.250000
vt 0.624407 0.250593
vt 0.625000 0.748323
vt 0.626099 0.748901
vt 0.625000 0.498817
vt 0.623814 0.500000
vt 0.126106 0.750000
vt 0.125010 0.749990
vt 0.373894 0.750000
vt 0.373817 0.750000
vt 0.375000 0.748814
vt 0.625000 0.001677
vt 0.623901 0.001099
vt 0.375000 0.251183
vt 0.376186 0.250000
vt 0.375592 0.499408
vt 0.375000 0.498814
vt 0.625000 0.251186
vt 0.625000 0.248814
vt 0.375000 0.248323
vt 0.375000 0.001186
vt 0.376106 0.000000
vt 0.873894 0.750000
vt 0.626106 0.750000
vt 0.623894 0.000000
vt 0.873814 0.501186
vt 0.873817 0.748323
vt 0.626186 0.748814
vt 0.623893 0.251106
vt 0.623894 0.498894
vt 0.376106 0.498894
vt 0.623813 0.501187
vt 0.623816 0.748322
vt 0.376187 0.748813
vt 0.379349 0.004349
vt 0.620650 0.004347
vt 0.620651 0.245651
vt 0.623813 0.001187
vt 0.376187 0.248813
vt 0.376184 0.001678
vt 0.373814 0.501186
vt 0.373817 0.748323
vt 0.126186 0.748814
vt 0.626183 0.501677
vt 0.371065 0.503935
vt 0.128935 0.746065
vt 0.129386 0.503913
vt 0.871065 0.503935
vt 0.870614 0.746086
vt 0.628935 0.746065
vt 0.620651 0.504349
vt 0.620650 0.745653
vt 0.379349 0.745651
vt 0.379350 0.245653
vt 0.620991 0.754009
vt 0.621013 0.995543
vt 0.379008 0.995992
vt 0.379350 0.504347
vt 0.371065 0.503935
vt 0.128935 0.746065
vt 0.129386 0.503913
vt 0.871065 0.503935
vt 0.870614 0.746087
vt 0.628934 0.746066
vt 0.620651 0.504349
vt 0.620650 0.745653
vt 0.379349 0.745651
vt 0.620991 0.754008
vt 0.621013 0.995543
vt 0.379009 0.995991
vt 0.620991 0.254009
vt 0.379008 0.495992
vt 0.378987 0.254457
vt 0.379350 0.504347
vt 0.623816 0.248322
vt 0.623894 0.751106
vt 0.376106 0.998894
vt 0.376106 0.751106
vt 0.376106 0.251106
vt 0.126183 0.501677
vt 0.376184 0.501678
vt 0.623894 0.998894
vt 0.370614 0.746087
vt 0.629386 0.503913
vt 0.379349 0.004349
vt 0.620650 0.004347
vt 0.620651 0.245651
vt 0.620992 0.254008
vt 0.379008 0.495992
vt 0.378987 0.254457
vt 0.378987 0.754457
vt 0.621013 0.495543
vt 0.370614 0.746087
vt 0.629386 0.503913
vt 0.379350 0.245653
vt 0.378987 0.754457
vt 0.621013 0.495543
vt 0.623816 0.250000
vt 0.624407 0.250594
vt 0.623894 0.750000
vt 0.623816 0.750000
vt 0.625000 0.748814
vt 0.625000 0.498817
vt 0.623813 0.500000
vt 0.126106 0.750000
vt 0.125010 0.749990
vt 0.375000 0.748323
vt 0.376100 0.748900
vt 0.623813 1.000000
vt 0.625000 0.998894
vt 0.625000 0.998817
vt 0.375000 0.251183
vt 0.376187 0.250000
vt 0.376106 0.500000
vt 0.376184 0.500000
vt 0.375000 0.501186
vt 0.129008 0.750000
vt 0.126627 0.748374
vt 0.623390 0.250000
vt 0.625000 0.250000
vt 0.382087 0.250000
vt 0.378987 0.250000
vt 0.377464 0.250000
vt 0.381761 0.493239
vt 0.377545 0.497455
vt 0.625000 0.501702
vt 0.629457 0.500000
vt 0.375000 0.748298
vt 0.370543 0.750000
vt 0.629008 0.747561
vt 0.631682 0.743318
vt 0.372522 0.996065
vt 0.376536 0.998464
vt 0.875000 0.501702
vt 0.875000 0.500000
vt 0.377464 0.250000
vt 0.382087 0.250000
vt 0.375000 0.503935
vt 0.379009 0.500000
vt 0.625000 0.495614
vt 0.623390 0.500000
vt 0.375000 0.746087
vt 0.376904 0.748096
vt 0.617913 0.750000
vt 0.622455 0.752545
vt 0.625000 0.003913
vt 0.625000 0.006994
vt 0.621013 0.000000
vt 0.875000 0.743006
vt 0.875000 0.747574
vt 0.629008 0.750000
vt 0.625000 0.251186
vt 0.875000 0.501678
vt 0.375000 0.498814
vt 0.375000 0.003935
vt 0.375000 0.254386
vt 0.379008 0.000000
vt 0.873894 0.750000
vt 0.626106 0.750000
vt 0.373894 0.750000
vt 0.125000 0.748322
vt 0.870992 0.500000
vt 0.625000 0.495614
vt 0.625000 0.253935
vt 0.376184 1.000000
vt 0.375000 0.003935
vt 0.375000 0.254386
vt 0.625000 0.246065
vt 0.379008 0.000000
vt 0.629008 0.750000
vt 0.375000 0.754386
vt 0.375000 0.996065
vt 0.870543 0.750000
vt 0.875000 0.748813
vt 0.375000 0.246087
vt 0.375000 0.496065
vt 0.125000 0.501187
vt 0.629457 0.500000
vt 0.375000 0.246087
vt 0.375000 0.496065
vt 0.621013 0.000000
vt 0.870543 0.750000
vn 0.0000 0.0000 -1.0000
vn 1.0000 0.0000 0.0000
vn 0.0000 -1.0000 -0.0000
vn -1.0000 -0.0000 0.0000
vn 0.0000 1.0000 0.0000
vn -0.0000 -0.0000 1.0000
vn -0.4606 0.4606 -0.7588
vn -0.7588 0.4606 -0.4606
vn -0.4606 0.7588 -0.4606
vn 0.7588 0.4606 0.4606
vn 0.4606 0.7588 0.4606
vn 0.4606 0.4606 0.7588
vn 0.4606 0.7588 -0.4606
vn 0.7588 0.4606 -0.4606
vn 0.4606 0.4606 -0.7588
vn -0.7588 -0.4606 0.4606
vn -0.4606 -0.7588 0.4606
vn -0.4606 -0.4606 0.7588
vn 0.4606 -0.7588 0.4606
vn 0.7588 -0.4606 0.4606
vn 0.4606 -0.4606 0.7588
vn -0.4606 0.7588 0.4606
vn -0.7588 0.4606 0.4606
vn -0.4606 0.4606 0.7588
vn -0.4606 -0.4606 -0.7588
vn -0.4606 -0.7588 -0.4606
vn -0.7588 -0.4606 -0.4606
vn 0.4606 -0.4606 -0.7588
vn 0.7588 -0.4606 -0.4606
vn 0.4606 -0.7588 -0.4606
vn -0.4364 0.5640 0.7011
vn -0.3827 0.8382 0.3884
vn -0.6975 0.5705 0.4336
vn -0.3828 -0.8382 -0.3884
vn -0.6975 -0.5705 -0.4336
vn -0.4364 -0.5640 -0.7011
vn -0.7011 -0.5640 0.4364
vn -0.3884 -0.8382 0.3827
vn -0.4336 -0.5705 0.6975
vn -0.3884 0.8382 -0.3827
vn -0.4336 0.5705 -0.6975
vn -0.7011 0.5640 -0.4364
vn 0.7011 -0.5640 -0.4364
vn 0.3884 -0.8382 -0.3827
vn 0.4336 -0.5705 -0.6975
vn 0.4364 0.5640 -0.7011
vn 0.3827 0.8382 -0.3884
vn 0.6975 0.5705 -0.4336
vn 0.6975 -0.5705 0.4336
vn 0.4364 -0.5640 0.7011
vn 0.3827 -0.8382 0.3884
vn 0.7011 0.5640 0.4364
vn 0.3884 0.8382 0.3827
vn 0.4336 0.5705 0.6975
vn -0.0836 0.0609 -0.9946
vn -0.4735 0.4010 -0.7842
vn -0.4030 0.4436 -0.8005
vn 0.4735 0.4010 0.7842
vn 0.4030 0.4436 0.8005
vn 0.0836 0.0609 0.9946
vn 0.0609 0.0836 -0.9946
vn 0.4010 0.4735 -0.7842
vn 0.4436 0.4030 -0.8005
vn -0.4030 -0.4436 0.8005
vn -0.0836 -0.0609 0.9946
vn -0.4735 -0.4010 0.7842
vn 0.0609 -0.0836 0.9946
vn 0.4010 -0.4735 0.7842
vn 0.4436 -0.4030 0.8005
vn -0.4010 0.4735 0.7842
vn -0.4436 0.4030 0.8005
vn -0.0609 0.0836 0.9946
vn -0.0609 -0.0836 -0.9946
vn -0.4010 -0.4735 -0.7842
vn -0.4436 -0.4030 -0.8005
vn 0.0836 -0.0609 -0.9946
vn 0.4735 -0.4010 -0.7842
vn 0.4030 -0.4436 -0.8005
vn 0.0000 -0.9539 0.3000
vn 0.0000 0.9539 -0.3000
vn -0.0000 0.9539 -0.3001
vn 0.0000 -0.3548 0.9349
vn 0.0000 0.2663 0.9639
vn -0.0000 -0.2663 -0.9639
vn -0.0000 0.9219 0.3875
vn 0.0000 -0.9219 -0.3875
vn 0.0000 0.3548 -0.9349
vn -0.9946 0.0609 0.0836
vn -0.7842 0.4010 0.4735
vn -0.8005 0.4436 0.4030
vn 0.9946 0.0609 -0.0836
vn 0.7842 0.4010 -0.4735
vn 0.8005 0.4436 -0.4030
vn -0.9946 0.0836 -0.0609
vn -0.7842 0.4735 -0.4010
vn -0.8005 0.4030 -0.4436
vn 0.9946 -0.0609 0.0836
vn 0.7842 -0.4010 0.4735
vn 0.8005 -0.4436 0.4030
vn 0.7842 -0.4735 -0.4010
vn 0.8005 -0.4030 -0.4436
vn 0.9946 -0.0836 -0.0609
vn 0.8005 0.4030 0.4436
vn 0.9946 0.0836 0.0609
vn 0.7842 0.4735 0.4010
vn -0.9946 -0.0836 0.0609
vn -0.7842 -0.4735 0.4010
vn -0.8005 -0.4030 0.4436
vn -0.9946 -0.0609 -0.0836
vn -0.7842 -0.4010 -0.4735
vn -0.8005 -0.4436 -0.4030
vn -0.7531 -0.5213 0.4013
vn -0.7527 -0.4299 0.4986
vn -0.9518 -0.2226 0.2111
vn -0.9518 0.2226 -0.2111
vn -0.7531 0.5213 -0.4013
vn -0.7527 0.4299 -0.4986
vn -0.9906 -0.0937 -0.0993
vn -0.7137 -0.4208 -0.5599
vn -0.7153 -0.5291 -0.4565
vn 0.7218 -0.4201 -0.5500
vn 0.9924 -0.0841 -0.0896
vn 0.7234 -0.5190 -0.4553
vn 0.7397 0.5360 -0.4069
vn 0.9420 0.2437 -0.2307
vn 0.7396 0.4362 -0.5126
vn 0.7397 -0.5360 0.4069
vn 0.9420 -0.2437 0.2307
vn 0.7396 -0.4362 0.5126
vn 0.7218 0.4201 0.5501
vn 0.9924 0.0841 0.0896
vn 0.7234 0.5190 0.4553
vn -0.7531 0.3827 0.5351
vn -0.7527 0.4832 0.4471
vn -0.9518 0.2031 0.2299
vn -0.9518 -0.2031 -0.2299
vn -0.7531 -0.3827 -0.5351
vn -0.7527 -0.4832 -0.4471
vn -0.7137 -0.5744 0.4009
vn -0.7153 -0.4749 0.5127
vn -0.9906 -0.1025 0.0901
vn 0.9924 -0.0925 0.0809
vn 0.7234 -0.4733 0.5026
vn 0.7218 -0.5645 0.4005
vn 0.7396 -0.4970 -0.4539
vn 0.7397 -0.3877 -0.5500
vn 0.9420 -0.2220 -0.2517
vn 0.7397 0.3878 0.5500
vn 0.9420 0.2220 0.2517
vn 0.7396 0.4970 0.4539
vn 0.9924 0.0925 -0.0809
vn 0.7234 0.4733 -0.5026
vn 0.7218 0.5645 -0.4005
vn -0.7153 0.5291 0.4566
vn -0.9906 0.0937 0.0993
vn -0.7137 0.4208 0.5599
vn -0.7153 0.4749 -0.5127
vn -0.9906 0.1025 -0.0901
vn -0.7137 0.5743 -0.4009
usemtl Material.011
s 1
f 1/1/1 9/2/1 22/3/1
f 8/4/2 14/5/2 23/6/2
f 24/7/3 13/8/3 11/9/3
f 27/10/4 36/11/4 29/12/4
f 17/13/4 21/14/4 10/15/4
f 3/16/5 5/17/5 7/18/5
f 48/19/6 25/20/6 33/21/6
f 38/22/3 45/23/3 32/24/3
f 42/25/2 46/26/2 43/27/2
f 35/28/1 40/29/1 39/30/1
f 35/28/1 39/30/1 30/31/1
f 42/25/2 43/27/2 37/32/2
f 17/13/4 2/33/4 21/14/4
f 6/34/6 12/35/6 15/36/6
f 1/1/1 22/3/1 19/37/1
f 24/7/3 11/9/3 20/38/3
f 6/34/6 18/39/6 12/35/6
f 8/4/2 4/40/2 14/5/2
f 34/41/5 26/42/5 47/43/5
f 34/41/5 47/43/5 41/44/5
f 38/22/3 32/24/3 28/45/3
f 48/19/6 33/21/6 44/46/6
f 27/10/4 29/12/4 31/47/4
f 1/1/7 2/48/8 3/49/9
f 4/50/10 5/17/11 6/51/12
f 7/18/13 8/52/14 9/53/15
f 10/15/16 11/54/17 12/55/18
f 13/8/19 14/56/20 15/57/21
f 16/58/22 17/13/23 18/59/24
f 19/37/25 20/60/26 21/61/27
f 22/3/28 23/62/29 24/63/30
f 25/64/31 26/65/32 27/66/33
f 28/67/34 29/12/35 30/68/36
f 31/47/37 32/69/38 33/70/39
f 34/71/40 35/28/41 36/72/42
f 37/73/43 38/74/44 39/30/45
f 40/29/46 41/75/47 42/76/48
f 43/27/49 44/77/50 45/78/51
f 46/79/52 47/43/53 48/80/54
f 7/81/13 1/1/7 3/82/9
f 17/13/23 3/83/9 2/33/8
f 19/37/25 2/33/8 1/1/7
f 22/3/28 20/60/26 19/37/25
f 31/47/37 25/84/31 27/10/33
f 34/85/40 27/10/33 26/86/32
f 40/29/46 37/32/43 39/30/45
f 43/27/49 38/22/44 37/32/43
f 46/26/52 44/46/50 43/27/49
f 23/6/29 9/2/15 8/4/14
f 24/7/30 14/5/20 13/8/19
f 48/87/54 26/42/32 25/64/31
f 45/23/51 33/88/39 32/24/38
f 8/4/14 5/17/11 4/40/10
f 15/36/21 4/40/10 6/34/12
f 18/89/24 10/15/16 12/55/18
f 32/69/38 29/12/35 28/67/34
f 36/11/42 30/31/36 29/12/35
f 41/75/47 35/28/41 34/71/40
f 16/90/22 6/91/12 5/17/11
f 13/8/19 12/92/18 11/9/17
f 21/14/27 11/54/17 10/15/16
f 39/30/45 28/93/34 30/31/36
f 47/43/53 42/25/48 41/44/47
f 3/16/5 16/90/5 5/17/5
f 7/81/13 9/2/15 1/1/7
f 17/13/23 16/58/22 3/83/9
f 19/37/25 21/14/27 2/33/8
f 22/3/28 24/63/30 20/60/26
f 31/47/37 33/70/39 25/84/31
f 34/85/40 36/11/42 27/10/33
f 40/29/46 42/25/48 37/32/43
f 43/27/49 45/23/51 38/22/44
f 46/26/52 48/19/54 44/46/50
f 23/6/29 22/3/28 9/2/15
f 24/7/30 23/6/29 14/5/20
f 48/87/54 47/43/53 26/42/32
f 45/23/51 44/94/50 33/88/39
f 8/4/14 7/18/13 5/17/11
f 15/36/21 14/5/20 4/40/10
f 18/89/24 17/13/23 10/15/16
f 32/69/38 31/47/37 29/12/35
f 36/11/42 35/28/41 30/31/36
f 41/75/47 40/29/46 35/28/41
f 16/90/22 18/95/24 6/91/12
f 13/8/19 15/57/21 12/92/18
f 21/14/27 20/96/26 11/54/17
f 39/30/45 38/97/44 28/93/34
f 47/43/53 46/26/52 42/25/48
usemtl Material.012
f 51/98/5 64/99/5 53/100/5
f 49/101/1 55/102/1 70/103/1
f 57/104/2 63/105/2 71/106/2
f 72/107/3 62/108/3 58/109/3
f 65/110/4 69/111/4 60/112/4
f 72/107/3 58/109/3 68/113/3
f 51/98/5 53/100/5 56/114/5
f 65/110/4 50/115/4 69/111/4
f 54/116/6 59/117/6 61/118/6
f 49/101/1 70/103/1 67/119/1
f 54/116/6 66/120/6 59/117/6
f 57/104/2 52/121/2 63/105/2
f 49/101/55 50/122/56 51/123/57
f 52/124/58 53/100/59 54/125/60
f 55/102/61 56/126/62 57/127/63
f 58/109/64 59/128/65 60/129/66
f 61/130/67 62/131/68 63/132/69
f 64/133/70 65/110/71 66/134/72
f 67/119/73 68/135/74 69/136/75
f 70/103/76 71/137/77 72/138/78
f 51/139/57 55/102/61 49/101/55
f 50/115/56 64/133/70 51/140/57
f 49/101/55 69/111/75 50/115/56
f 67/119/73 72/138/78 68/135/74
f 60/112/66 68/141/74 58/142/64
f 52/121/58 56/114/62 53/100/59
f 54/116/60 63/105/69 52/121/58
f 59/143/65 65/110/71 60/112/66
f 57/104/63 70/103/76 55/102/61
f 62/108/68 71/106/77 63/105/69
f 53/100/59 66/144/72 54/145/60
f 58/109/64 61/130/67 59/128/65
f 51/139/57 56/126/62 55/102/61
f 50/115/56 65/110/71 64/133/70
f 49/101/55 67/119/73 69/111/75
f 67/119/73 70/103/76 72/138/78
f 60/112/66 69/111/75 68/141/74
f 52/121/58 57/104/63 56/114/62
f 54/116/60 61/118/67 63/105/69
f 59/143/65 66/146/72 65/110/71
f 57/104/63 71/106/77 70/103/76
f 62/108/68 72/107/78 71/106/77
f 53/100/59 64/99/70 66/144/72
f 58/109/64 62/108/68 61/130/67
usemtl Material.013
f 75/147/5 90/148/5 78/149/5
f 73/150/4 79/151/4 94/152/4
f 81/153/1 77/154/1 86/155/1
f 99/156/4 140/157/4 100/158/4
f 88/159/6 93/160/6 83/161/6
f 96/162/3 85/163/3 84/164/3
f 75/147/5 78/149/5 80/165/5
f 108/166/79 97/167/79 105/168/79
f 101/169/80 139/170/81 117/171/81
f 110/172/2 116/173/2 113/174/2
f 99/156/4 100/158/4 103/175/4
f 115/176/82 141/177/82 98/178/82
f 110/172/2 113/174/2 107/179/2
f 128/180/83 118/181/83 125/182/83
f 122/183/84 142/184/84 137/185/84
f 132/186/2 136/187/2 134/188/2
f 138/189/85 144/190/85 119/191/85
f 123/192/86 129/193/86 124/194/86
f 132/186/2 134/188/2 127/195/2
f 88/159/6 74/196/6 93/160/6
f 76/197/2 82/198/2 87/199/2
f 73/150/4 94/152/4 91/200/4
f 96/162/3 84/164/3 92/201/3
f 81/153/1 86/155/1 95/202/1
f 76/197/2 89/203/2 82/198/2
f 108/166/79 112/204/79 97/167/79
f 101/169/80 117/171/81 109/205/80
f 120/206/4 143/207/4 121/208/4
f 102/209/87 106/210/87 104/211/87
f 115/176/82 98/178/82 114/212/82
f 102/209/87 111/213/87 106/210/87
f 128/180/83 133/214/83 118/181/83
f 122/183/84 137/185/84 131/215/84
f 120/206/4 121/208/4 126/216/4
f 138/189/85 119/191/85 135/217/85
f 123/192/86 130/218/86 129/193/86
f 73/150/88 74/219/89 75/220/90
f 76/221/91 77/222/92 78/223/93
f 79/151/94 80/224/95 81/225/96
f 82/226/97 83/227/98 84/164/99
f 85/228/100 86/155/101 87/229/102
f 88/230/103 89/231/104 90/232/105
f 91/200/106 92/233/107 93/234/108
f 94/235/109 95/236/110 96/237/111
f 97/167/112 98/238/113 99/239/114
f 100/240/115 101/241/116 102/209/117
f 103/242/118 104/243/119 105/244/120
f 106/210/121 107/245/122 108/246/123
f 109/205/124 110/247/125 111/248/126
f 112/204/127 113/249/128 114/250/129
f 115/251/130 116/252/131 117/171/132
f 118/253/133 119/191/134 120/254/135
f 121/255/136 122/183/137 123/256/138
f 124/194/139 125/257/140 126/258/141
f 127/195/142 128/259/143 129/260/144
f 130/218/145 131/261/146 132/262/147
f 133/263/148 134/188/149 135/264/150
f 136/265/151 137/266/152 138/189/153
f 139/267/154 140/268/155 141/269/156
f 142/184/157 143/270/158 144/271/159
f 139/170/154 115/272/130 117/171/132
f 75/273/90 79/151/94 73/150/88
f 74/274/89 90/148/105 75/147/90
f 73/150/88 93/160/108 74/196/89
f 91/200/106 96/275/111 92/233/107
f 103/175/118 97/276/112 99/156/114
f 106/210/121 105/277/120 104/211/119
f 123/192/138 126/216/141 121/208/136
f 130/218/145 127/195/142 129/193/144
f 127/195/142 133/214/148 128/180/143
f 136/187/151 135/217/150 134/188/149
f 98/278/113 140/157/155 99/156/114
f 143/270/158 122/183/137 121/255/136
f 78/149/93 89/279/104 76/280/91
f 84/164/99 87/281/102 82/226/97
f 83/282/98 92/201/107 84/164/99
f 131/215/146 123/283/138 122/183/137
f 102/209/117 103/175/118 100/158/115
f 109/284/124 102/209/117 101/285/116
f 77/154/92 80/165/95 78/149/93
f 76/197/91 86/155/101 77/154/92
f 82/198/97 88/230/103 83/286/98
f 111/213/126 107/179/122 106/210/121
f 107/179/122 112/204/127 108/166/123
f 116/173/131 114/212/129 113/174/128
f 126/216/141 118/287/133 120/206/135
f 129/193/144 125/288/140 124/194/139
f 140/157/155 101/289/116 100/158/115
f 119/290/134 143/207/158 120/206/135
f 131/215/146 136/187/151 132/186/147
f 142/184/157 138/291/153 137/185/152
f 81/153/96 94/152/109 79/151/94
f 133/292/148 119/191/134 118/293/133
f 85/163/100 95/202/110 86/155/101
f 112/204/127 98/238/113 97/167/112
f 109/205/124 116/173/131 110/172/125
f 139/170/154 141/294/156 115/272/130
f 75/273/90 80/224/95 79/151/94
f 74/274/89 88/295/103 90/148/105
f 73/150/88 91/200/106 93/160/108
f 91/200/106 94/152/109 96/275/111
f 103/175/118 105/296/120 97/276/112
f 106/210/121 108/297/123 105/277/120
f 123/192/138 124/194/139 126/216/141
f 130/218/145 132/186/147 127/195/142
f 127/195/142 134/188/149 133/214/148
f 136/187/151 138/189/153 135/217/150
f 98/278/113 141/269/156 140/157/155
f 143/270/158 142/184/157 122/183/137
f 78/149/93 90/148/105 89/279/104
f 84/164/99 85/163/100 87/281/102
f 83/282/98 93/298/108 92/201/107
f 131/215/146 130/299/145 123/283/138
f 102/209/117 104/211/119 103/175/118
f 109/284/124 111/213/126 102/209/117
f 77/154/92 81/153/96 80/165/95
f 76/197/91 87/199/102 86/155/101
f 82/198/97 89/203/104 88/230/103
f 111/213/126 110/172/125 107/179/122
f 107/179/122 113/174/128 112/204/127
f 116/173/131 115/176/130 114/212/129
f 126/216/141 125/300/140 118/287/133
f 129/193/144 128/301/143 125/288/140
f 140/157/155 139/267/154 101/289/116
f 119/290/134 144/302/159 143/207/158
f 131/215/146 137/185/152 136/187/151
f 142/184/157 144/303/159 138/291/153
f 81/153/96 95/202/110 94/152/109
f 133/292/148 135/217/150 119/191/134
f 85/163/100 96/162/111 95/202/110
f 112/204/127 114/250/129 98/238/113
f 109/205/124 117/171/132 116/173/131
