# Blender v3.1.2 OBJ File: ''
# www.blender.org
mtllib СемкаТрахатель(Black)(cemka).mtl
o Cube.001
v -0.266824 1.844983 0.152274
v -0.148155 2.615971 0.087451
v -0.266824 1.844983 -0.139231
v -0.148155 2.615970 -0.074408
v 0.266824 1.844983 0.152274
v 0.148155 2.615970 0.087451
v 0.266824 1.844983 -0.139231
v 0.148155 2.615970 -0.074408
v -0.321149 1.788753 -0.081612
v -0.349652 1.760507 0.006522
v -0.321149 1.788753 0.094656
v -0.275995 2.001763 0.157284
v -0.252958 2.230477 0.144700
v -0.199515 2.459190 0.115507
v -0.154361 2.672201 0.052878
v -0.156264 2.700446 0.006522
v -0.154361 2.672201 -0.039835
v -0.199515 2.459190 -0.102463
v -0.252958 2.230477 -0.131656
v -0.275995 2.001763 -0.144240
v 0.161344 1.788753 -0.168905
v -0.000000 1.760507 -0.184475
v -0.161344 1.788753 -0.168905
v -0.084863 2.672201 -0.077798
v -0.000000 2.700446 -0.078837
v 0.084863 2.672201 -0.077798
v 0.199515 2.459190 -0.102463
v 0.252958 2.230477 -0.131656
v 0.275995 2.001763 -0.144240
v 0.321149 1.788753 0.094656
v 0.349652 1.760507 0.006522
v 0.321149 1.788753 -0.081612
v 0.154361 2.672201 -0.039835
v 0.156264 2.700446 0.006522
v 0.154361 2.672201 0.052878
v 0.199515 2.459190 0.115507
v 0.252958 2.230477 0.144700
v 0.275995 2.001763 0.157284
v -0.161344 1.788753 0.181949
v 0.000000 1.760507 0.197519
v 0.161344 1.788753 0.181949
v 0.084863 2.672201 0.090842
v 0.000000 2.700446 0.091881
v -0.084863 2.672201 0.090842
v -0.359779 1.986723 0.088893
v -0.324443 2.230477 0.082039
v -0.245253 2.474230 0.067485
v -0.390919 1.973629 0.006522
v -0.348378 2.230477 0.006522
v -0.257966 2.487324 0.006522
v -0.359779 1.986723 -0.075849
v -0.324443 2.230477 -0.068995
v -0.245253 2.474230 -0.054441
v -0.150794 1.986723 -0.190007
v -0.138246 2.230477 -0.170705
v -0.111604 2.474230 -0.127447
v -0.000000 1.973629 -0.207018
v -0.000000 2.230477 -0.183779
v -0.000000 2.487324 -0.134392
v 0.150794 1.986723 -0.190007
v 0.138246 2.230477 -0.170705
v 0.111603 2.474230 -0.127447
v 0.359779 1.986723 -0.075849
v 0.324443 2.230477 -0.068995
v 0.245253 2.474230 -0.054441
v 0.390919 1.973629 0.006522
v 0.348378 2.230477 0.006522
v 0.257966 2.487324 0.006522
v 0.359779 1.986723 0.088893
v 0.324443 2.230477 0.082039
v 0.245253 2.474230 0.067485
v 0.150794 1.986723 0.203051
v 0.138246 2.230477 0.183748
v 0.111604 2.474230 0.140491
v 0.000000 1.973629 0.220061
v 0.000000 2.230477 0.196823
v 0.000000 2.487324 0.147435
v -0.150794 1.986723 0.203051
v -0.138246 2.230477 0.183748
v -0.111603 2.474230 0.140491
v -0.188462 1.668434 -0.096425
v -0.000000 1.627696 -0.105308
v 0.188462 1.668434 -0.096425
v -0.204723 1.627696 0.006522
v 0.000000 1.583228 0.006522
v 0.204723 1.627696 0.006522
v -0.188462 1.668434 0.109469
v 0.000000 1.627696 0.118352
v 0.188462 1.668434 0.109469
v 0.073936 2.792519 -0.033865
v 0.000000 2.833257 -0.032682
v -0.073936 2.792519 -0.033865
v 0.071769 2.833257 0.006522
v -0.000000 2.877726 0.006522
v -0.071769 2.833257 0.006522
v 0.073936 2.792519 0.046909
v -0.000000 2.833257 0.045726
v -0.073936 2.792519 0.046909
vt 0.437500 0.062500
vt 0.500000 0.125000
vt 0.437500 0.125000
vt 0.562500 0.062500
vt 0.500000 0.062500
vt 0.437500 0.187500
vt 0.562500 0.187500
vt 0.500000 0.187500
vt 0.375000 0.000000
vt 0.375000 0.062500
vt 0.437500 0.000000
vt 0.500000 0.000000
vt 0.625000 0.000000
vt 0.562500 0.000000
vt 0.625000 0.062500
vt 0.562500 0.125000
vt 0.625000 0.187500
vt 0.625000 0.250000
vt 0.562500 0.250000
vt 0.500000 0.250000
vt 0.437500 0.250000
vt 0.375000 0.250000
vt 0.375000 0.187500
vt 0.375000 0.125000
vt 0.437500 0.312500
vt 0.500000 0.375000
vt 0.437500 0.375000
vt 0.562500 0.312500
vt 0.500000 0.312500
vt 0.437500 0.437500
vt 0.562500 0.437500
vt 0.500000 0.437500
vt 0.375000 0.312500
vt 0.625000 0.312500
vt 0.562500 0.375000
vt 0.625000 0.437500
vt 0.625000 0.500000
vt 0.562500 0.500000
vt 0.500000 0.500000
vt 0.437500 0.500000
vt 0.375000 0.500000
vt 0.375000 0.437500
vt 0.375000 0.375000
vt 0.437500 0.562500
vt 0.500000 0.625000
vt 0.437500 0.625000
vt 0.562500 0.562500
vt 0.500000 0.562500
vt 0.437500 0.687500
vt 0.562500 0.687500
vt 0.500000 0.687500
vt 0.375000 0.562500
vt 0.625000 0.562500
vt 0.562500 0.625000
vt 0.625000 0.687500
vt 0.625000 0.750000
vt 0.562500 0.750000
vt 0.500000 0.750000
vt 0.437500 0.750000
vt 0.375000 0.750000
vt 0.375000 0.687500
vt 0.375000 0.625000
vt 0.437500 0.812500
vt 0.500000 0.875000
vt 0.437500 0.875000
vt 0.562500 0.812500
vt 0.500000 0.812500
vt 0.437500 0.937500
vt 0.562500 0.937500
vt 0.500000 0.937500
vt 0.375000 0.812500
vt 0.625000 0.812500
vt 0.562500 0.875000
vt 0.625000 0.937500
vt 0.625000 1.000000
vt 0.562500 1.000000
vt 0.500000 1.000000
vt 0.437500 1.000000
vt 0.375000 1.000000
vt 0.375000 0.937500
vt 0.375000 0.875000
vt 0.187500 0.562500
vt 0.250000 0.625000
vt 0.187500 0.625000
vt 0.312500 0.562500
vt 0.250000 0.562500
vt 0.187500 0.687500
vt 0.312500 0.687500
vt 0.250000 0.687500
vt 0.187500 0.500000
vt 0.125000 0.562500
vt 0.125000 0.500000
vt 0.250000 0.500000
vt 0.312500 0.500000
vt 0.312500 0.625000
vt 0.312500 0.750000
vt 0.250000 0.750000
vt 0.187500 0.750000
vt 0.125000 0.687500
vt 0.125000 0.750000
vt 0.125000 0.625000
vt 0.750000 0.562500
vt 0.687500 0.625000
vt 0.687500 0.562500
vt 0.812500 0.625000
vt 0.750000 0.625000
vt 0.750000 0.687500
vt 0.687500 0.687500
vt 0.687500 0.500000
vt 0.750000 0.500000
vt 0.812500 0.562500
vt 0.812500 0.500000
vt 0.875000 0.562500
vt 0.875000 0.625000
vt 0.812500 0.687500
vt 0.875000 0.687500
vt 0.812500 0.750000
vt 0.750000 0.750000
vt 0.687500 0.750000
vt 0.625000 0.625000
vt 0.625000 0.125000
vt 0.625000 0.375000
vt 0.625000 0.875000
vt 0.875000 0.500000
vt 0.875000 0.750000
vn -0.9320 0.1544 0.3278
vn -0.9059 0.3114 0.2871
vn -0.9320 0.1544 -0.3278
vn -0.9059 0.3114 -0.2871
vn -0.6680 -0.1089 0.7361
vn -0.6404 0.1142 0.7595
vn -0.6381 0.2508 0.7280
vn -0.6290 0.3319 0.7030
vn -0.8672 0.4181 0.2706
vn -0.8672 0.4181 -0.2706
vn -0.6290 0.3319 -0.7030
vn -0.6381 0.2508 -0.7280
vn -0.6404 0.1142 -0.7595
vn -0.6680 -0.1089 -0.7361
vn -0.9182 -0.1778 -0.3539
vn -0.9182 -0.1778 0.3539
vn -0.1040 0.0896 -0.9905
vn -0.0925 0.1838 -0.9786
vn 0.1040 0.0896 -0.9905
vn 0.0925 0.1838 -0.9786
vn -0.3112 -0.0843 -0.9466
vn -0.3322 0.0914 -0.9388
vn -0.3162 0.1925 -0.9290
vn -0.3052 0.2637 -0.9151
vn -0.0897 0.2537 -0.9631
vn 0.0897 0.2537 -0.9631
vn 0.3052 0.2637 -0.9151
vn 0.3162 0.1925 -0.9290
vn 0.3322 0.0914 -0.9388
vn 0.3112 -0.0843 -0.9466
vn 0.1136 -0.1045 -0.9880
vn -0.1136 -0.1045 -0.9880
vn 0.9320 0.1544 -0.3278
vn 0.9059 0.3114 -0.2871
vn 0.9320 0.1544 0.3278
vn 0.9059 0.3114 0.2871
vn 0.6680 -0.1089 -0.7361
vn 0.6404 0.1142 -0.7595
vn 0.6381 0.2508 -0.7280
vn 0.6290 0.3319 -0.7030
vn 0.8672 0.4181 -0.2706
vn 0.8672 0.4181 0.2706
vn 0.6290 0.3319 0.7030
vn 0.6381 0.2508 0.7280
vn 0.6404 0.1142 0.7595
vn 0.6680 -0.1089 0.7361
vn 0.9182 -0.1778 0.3539
vn 0.9182 -0.1778 -0.3539
vn 0.1040 0.0896 0.9905
vn 0.0925 0.1838 0.9786
vn -0.1040 0.0896 0.9905
vn -0.0925 0.1838 0.9786
vn 0.3112 -0.0843 0.9466
vn 0.3322 0.0914 0.9388
vn 0.3162 0.1925 0.9290
vn 0.3052 0.2637 0.9151
vn 0.0897 0.2537 0.9631
vn -0.0897 0.2537 0.9631
vn -0.3052 0.2637 0.9151
vn -0.3162 0.1925 0.9290
vn -0.3322 0.0914 0.9388
vn -0.3112 -0.0843 0.9466
vn -0.1136 -0.1045 0.9880
vn 0.1136 -0.1045 0.9880
vn -0.1957 -0.9009 -0.3874
vn 0.2133 -0.9079 -0.3610
vn -0.1957 -0.9009 0.3874
vn 0.2133 -0.9079 0.3610
vn -0.4394 -0.3998 -0.8044
vn -0.1672 -0.4808 -0.8607
vn 0.1495 -0.5063 -0.8493
vn 0.4419 -0.3877 -0.8090
vn 0.6276 -0.6849 -0.3702
vn 0.6276 -0.6849 0.3702
vn 0.4419 -0.3877 0.8090
vn 0.1495 -0.5063 0.8493
vn -0.1672 -0.4808 0.8607
vn -0.4394 -0.3998 0.8044
vn -0.6363 -0.6507 0.4143
vn -0.6363 -0.6507 -0.4143
vn 0.3571 0.6671 -0.6538
vn -0.3792 0.6119 -0.6941
vn 0.3571 0.6671 0.6538
vn -0.3792 0.6119 0.6941
vn 0.4310 0.4376 -0.7891
vn 0.1280 0.3504 -0.9278
vn -0.1635 0.3238 -0.9319
vn -0.4505 0.3420 -0.8247
vn -0.7558 0.4808 -0.4445
vn -0.7558 0.4808 0.4445
vn -0.4505 0.3420 0.8247
vn -0.1635 0.3238 0.9319
vn 0.1280 0.3504 0.9278
vn 0.4311 0.4376 0.7891
vn 0.7688 0.5316 0.3554
vn 0.7688 0.5316 -0.3554
vn -0.9432 0.1451 0.2989
vn -0.9111 0.3207 0.2589
vn -0.9432 0.1451 -0.2989
vn -0.9111 0.3207 -0.2589
vn -0.6245 -0.0614 0.7786
vn -0.6554 0.1072 0.7477
vn -0.6625 0.2452 0.7078
vn -0.6460 0.3468 0.6800
vn -0.8646 0.4126 0.2869
vn -0.8646 0.4126 -0.2869
vn -0.6460 0.3468 -0.6800
vn -0.6625 0.2452 -0.7078
vn -0.6554 0.1072 -0.7477
vn -0.6245 -0.0614 -0.7786
vn -0.9131 -0.1673 -0.3718
vn -0.9131 -0.1673 0.3718
vn -0.0938 0.0834 -0.9921
vn -0.0830 0.1882 -0.9786
vn 0.0938 0.0834 -0.9921
vn 0.0830 0.1882 -0.9786
vn -0.3482 -0.0503 -0.9361
vn -0.3211 0.0842 -0.9433
vn -0.2992 0.1983 -0.9334
vn -0.2886 0.2694 -0.9188
vn -0.0954 0.2511 -0.9633
vn 0.0954 0.2511 -0.9633
vn 0.2886 0.2694 -0.9188
vn 0.2992 0.1983 -0.9334
vn 0.3211 0.0842 -0.9433
vn 0.3482 -0.0503 -0.9361
vn 0.1200 -0.0989 -0.9878
vn -0.1200 -0.0989 -0.9878
vn 0.9432 0.1451 -0.2989
vn 0.9111 0.3207 -0.2589
vn 0.9432 0.1451 0.2989
vn 0.9111 0.3207 0.2589
vn 0.6245 -0.0614 -0.7786
vn 0.6554 0.1072 -0.7477
vn 0.6625 0.2452 -0.7078
vn 0.6460 0.3468 -0.6800
vn 0.8646 0.4126 -0.2869
vn 0.8646 0.4126 0.2869
vn 0.6460 0.3468 0.6800
vn 0.6625 0.2452 0.7078
vn 0.6554 0.1072 0.7477
vn 0.6245 -0.0614 0.7786
vn 0.9131 -0.1673 0.3718
vn 0.9131 -0.1673 -0.3718
vn 0.0938 0.0834 0.9921
vn 0.0830 0.1882 0.9786
vn -0.0938 0.0834 0.9921
vn -0.0830 0.1882 0.9786
vn 0.3482 -0.0503 0.9361
vn 0.3211 0.0842 0.9433
vn 0.2992 0.1983 0.9334
vn 0.2886 0.2694 0.9188
vn 0.0954 0.2511 0.9633
vn -0.0954 0.2511 0.9633
vn -0.2886 0.2694 0.9188
vn -0.2992 0.1983 0.9334
vn -0.3211 0.0842 0.9433
vn -0.3482 -0.0503 0.9361
vn -0.1200 -0.0989 0.9878
vn 0.1200 -0.0989 0.9878
vn -0.2133 -0.9079 -0.3610
vn 0.1957 -0.9009 -0.3874
vn -0.2133 -0.9079 0.3610
vn 0.1957 -0.9009 0.3874
vn -0.4419 -0.3877 -0.8090
vn -0.1495 -0.5063 -0.8493
vn 0.1672 -0.4808 -0.8607
vn 0.4394 -0.3998 -0.8044
vn 0.6363 -0.6507 -0.4143
vn 0.6363 -0.6507 0.4143
vn 0.4394 -0.3998 0.8044
vn 0.1672 -0.4808 0.8607
vn -0.1495 -0.5063 0.8493
vn -0.4419 -0.3877 0.8090
vn -0.6276 -0.6849 0.3702
vn -0.6276 -0.6849 -0.3702
vn 0.3792 0.6119 -0.6941
vn -0.3571 0.6671 -0.6538
vn 0.3792 0.6119 0.6941
vn -0.3571 0.6671 0.6538
vn 0.4505 0.3420 -0.8247
vn 0.1635 0.3238 -0.9319
vn -0.1280 0.3504 -0.9278
vn -0.4311 0.4376 -0.7891
vn -0.7688 0.5316 -0.3554
vn -0.7688 0.5316 0.3554
vn -0.4311 0.4376 0.7891
vn -0.1280 0.3504 0.9278
vn 0.1635 0.3238 0.9319
vn 0.4505 0.3420 0.8247
vn 0.7558 0.4808 0.4445
vn 0.7558 0.4808 -0.4445
usemtl None
s off
f 45/1/1 49/2/1 48/3/1
f 47/4/2 49/2/2 46/5/2
f 49/2/3 51/6/3 48/3/3
f 49/2/4 53/7/4 52/8/4
f 1/9/5 45/1/5 11/10/5
f 12/11/6 46/5/6 45/1/6
f 13/12/7 47/4/7 46/5/7
f 2/13/8 47/4/8 14/14/8
f 15/15/9 50/16/9 47/4/9
f 50/16/10 17/17/10 53/7/10
f 53/7/11 4/18/11 18/19/11
f 53/7/12 19/20/12 52/8/12
f 52/8/13 20/21/13 51/6/13
f 51/6/14 3/22/14 9/23/14
f 48/3/15 9/23/15 10/24/15
f 11/10/16 48/3/16 10/24/16
f 54/25/17 58/26/17 57/27/17
f 56/28/18 58/26/18 55/29/18
f 58/26/19 60/30/19 57/27/19
f 58/26/20 62/31/20 61/32/20
f 3/22/21 54/25/21 23/33/21
f 20/21/22 55/29/22 54/25/22
f 18/19/23 55/29/23 19/20/23
f 4/18/24 56/28/24 18/19/24
f 24/34/25 59/35/25 56/28/25
f 59/35/26 26/36/26 62/31/26
f 62/31/27 8/37/27 27/38/27
f 61/32/28 27/38/28 28/39/28
f 61/32/29 29/40/29 60/30/29
f 60/30/30 7/41/30 21/42/30
f 57/27/31 21/42/31 22/43/31
f 23/33/32 57/27/32 22/43/32
f 63/44/33 67/45/33 66/46/33
f 65/47/34 67/45/34 64/48/34
f 67/45/35 69/49/35 66/46/35
f 67/45/36 71/50/36 70/51/36
f 7/41/37 63/44/37 32/52/37
f 29/40/38 64/48/38 63/44/38
f 28/39/39 65/47/39 64/48/39
f 8/37/40 65/47/40 27/38/40
f 33/53/41 68/54/41 65/47/41
f 68/54/42 35/55/42 71/50/42
f 71/50/43 6/56/43 36/57/43
f 71/50/44 37/58/44 70/51/44
f 70/51/45 38/59/45 69/49/45
f 69/49/46 5/60/46 30/61/46
f 66/46/47 30/61/47 31/62/47
f 32/52/48 66/46/48 31/62/48
f 72/63/49 76/64/49 75/65/49
f 74/66/50 76/64/50 73/67/50
f 76/64/51 78/68/51 75/65/51
f 76/64/52 80/69/52 79/70/52
f 5/60/53 72/63/53 41/71/53
f 38/59/54 73/67/54 72/63/54
f 36/57/55 73/67/55 37/58/55
f 6/56/56 74/66/56 36/57/56
f 42/72/57 77/73/57 74/66/57
f 77/73/58 44/74/58 80/69/58
f 80/69/59 2/75/59 14/76/59
f 79/70/60 14/76/60 13/77/60
f 79/70/61 12/78/61 78/68/61
f 78/68/62 1/79/62 39/80/62
f 75/65/63 39/80/63 40/81/63
f 41/71/64 75/65/64 40/81/64
f 81/82/65 85/83/65 84/84/65
f 83/85/66 85/83/66 82/86/66
f 85/83/67 87/87/67 84/84/67
f 85/83/68 89/88/68 88/89/68
f 23/90/69 9/91/69 3/92/69
f 22/93/70 81/82/70 23/90/70
f 22/93/71 83/85/71 82/86/71
f 21/94/72 32/52/72 83/85/72
f 83/85/73 31/62/73 86/95/73
f 31/62/74 89/88/74 86/95/74
f 30/61/75 41/96/75 89/88/75
f 89/88/76 40/97/76 88/89/76
f 87/87/77 40/97/77 39/98/77
f 11/99/78 39/98/78 1/100/78
f 10/101/79 87/87/79 11/99/79
f 81/82/80 10/101/80 9/91/80
f 91/102/81 93/103/81 90/104/81
f 91/102/82 95/105/82 94/106/82
f 93/103/83 97/107/83 96/108/83
f 95/105/84 97/107/84 94/106/84
f 26/109/85 33/53/85 8/37/85
f 25/110/86 90/104/86 26/109/86
f 25/110/87 92/111/87 91/102/87
f 24/112/88 17/113/88 92/111/88
f 92/111/89 16/114/89 95/105/89
f 16/114/90 98/115/90 95/105/90
f 15/116/91 44/117/91 98/115/91
f 98/115/92 43/118/92 97/107/92
f 96/108/93 43/118/93 42/119/93
f 35/55/94 42/119/94 6/56/94
f 34/120/95 96/108/95 35/55/95
f 90/104/96 34/120/96 33/53/96
f 45/1/97 46/5/97 49/2/97
f 47/4/98 50/16/98 49/2/98
f 49/2/99 52/8/99 51/6/99
f 49/2/100 50/16/100 53/7/100
f 1/9/101 12/11/101 45/1/101
f 12/11/102 13/12/102 46/5/102
f 13/12/103 14/14/103 47/4/103
f 2/13/104 15/15/104 47/4/104
f 15/15/105 16/121/105 50/16/105
f 50/16/106 16/121/106 17/17/106
f 53/7/107 17/17/107 4/18/107
f 53/7/108 18/19/108 19/20/108
f 52/8/109 19/20/109 20/21/109
f 51/6/110 20/21/110 3/22/110
f 48/3/111 51/6/111 9/23/111
f 11/10/112 45/1/112 48/3/112
f 54/25/113 55/29/113 58/26/113
f 56/28/114 59/35/114 58/26/114
f 58/26/115 61/32/115 60/30/115
f 58/26/116 59/35/116 62/31/116
f 3/22/117 20/21/117 54/25/117
f 20/21/118 19/20/118 55/29/118
f 18/19/119 56/28/119 55/29/119
f 4/18/120 24/34/120 56/28/120
f 24/34/121 25/122/121 59/35/121
f 59/35/122 25/122/122 26/36/122
f 62/31/123 26/36/123 8/37/123
f 61/32/124 62/31/124 27/38/124
f 61/32/125 28/39/125 29/40/125
f 60/30/126 29/40/126 7/41/126
f 57/27/127 60/30/127 21/42/127
f 23/33/128 54/25/128 57/27/128
f 63/44/129 64/48/129 67/45/129
f 65/47/130 68/54/130 67/45/130
f 67/45/131 70/51/131 69/49/131
f 67/45/132 68/54/132 71/50/132
f 7/41/133 29/40/133 63/44/133
f 29/40/134 28/39/134 64/48/134
f 28/39/135 27/38/135 65/47/135
f 8/37/136 33/53/136 65/47/136
f 33/53/137 34/120/137 68/54/137
f 68/54/138 34/120/138 35/55/138
f 71/50/139 35/55/139 6/56/139
f 71/50/140 36/57/140 37/58/140
f 70/51/141 37/58/141 38/59/141
f 69/49/142 38/59/142 5/60/142
f 66/46/143 69/49/143 30/61/143
f 32/52/144 63/44/144 66/46/144
f 72/63/145 73/67/145 76/64/145
f 74/66/146 77/73/146 76/64/146
f 76/64/147 79/70/147 78/68/147
f 76/64/148 77/73/148 80/69/148
f 5/60/149 38/59/149 72/63/149
f 38/59/150 37/58/150 73/67/150
f 36/57/151 74/66/151 73/67/151
f 6/56/152 42/72/152 74/66/152
f 42/72/153 43/123/153 77/73/153
f 77/73/154 43/123/154 44/74/154
f 80/69/155 44/74/155 2/75/155
f 79/70/156 80/69/156 14/76/156
f 79/70/157 13/77/157 12/78/157
f 78/68/158 12/78/158 1/79/158
f 75/65/159 78/68/159 39/80/159
f 41/71/160 72/63/160 75/65/160
f 81/82/161 82/86/161 85/83/161
f 83/85/162 86/95/162 85/83/162
f 85/83/163 88/89/163 87/87/163
f 85/83/164 86/95/164 89/88/164
f 23/90/165 81/82/165 9/91/165
f 22/93/166 82/86/166 81/82/166
f 22/93/167 21/94/167 83/85/167
f 21/94/168 7/41/168 32/52/168
f 83/85/169 32/52/169 31/62/169
f 31/62/170 30/61/170 89/88/170
f 30/61/171 5/60/171 41/96/171
f 89/88/172 41/96/172 40/97/172
f 87/87/173 88/89/173 40/97/173
f 11/99/174 87/87/174 39/98/174
f 10/101/175 84/84/175 87/87/175
f 81/82/176 84/84/176 10/101/176
f 91/102/177 94/106/177 93/103/177
f 91/102/178 92/111/178 95/105/178
f 93/103/179 94/106/179 97/107/179
f 95/105/180 98/115/180 97/107/180
f 26/109/181 90/104/181 33/53/181
f 25/110/182 91/102/182 90/104/182
f 25/110/183 24/112/183 92/111/183
f 24/112/184 4/124/184 17/113/184
f 92/111/185 17/113/185 16/114/185
f 16/114/186 15/116/186 98/115/186
f 15/116/187 2/125/187 44/117/187
f 98/115/188 44/117/188 43/118/188
f 96/108/189 97/107/189 43/118/189
f 35/55/190 96/108/190 42/119/190
f 34/120/191 93/103/191 96/108/191
f 90/104/192 93/103/192 34/120/192
