# Blender v3.1.2 OBJ File: ''
# www.blender.org
mtllib СупИзСемиЗалуп(Main).mtl
o Circle
v -0.000000 -0.218659 -0.934990
v -0.182407 -0.218659 -0.917024
v -0.357805 -0.218659 -0.863818
v -0.519452 -0.218659 -0.777415
v -0.661137 -0.218659 -0.661137
v -0.777415 -0.218659 -0.519452
v -0.863818 -0.218659 -0.357805
v -0.917024 -0.218659 -0.182407
v -0.934990 -0.218659 0.000000
v -0.917024 -0.218659 0.182407
v -0.863818 -0.218659 0.357805
v -0.777415 -0.218659 0.519452
v -0.661137 -0.218659 0.661137
v -0.519452 -0.218659 0.777415
v -0.357805 -0.218659 0.863818
v -0.182407 -0.218659 0.917024
v 0.000000 -0.218659 0.934990
v 0.182407 -0.218659 0.917024
v 0.357805 -0.218659 0.863818
v 0.519452 -0.218659 0.777415
v 0.661137 -0.218659 0.661138
v 0.777415 -0.218659 0.519453
v 0.863818 -0.218659 0.357805
v 0.917024 -0.218659 0.182407
v 0.934990 -0.218659 -0.000000
v 0.917024 -0.218659 -0.182407
v 0.863818 -0.218659 -0.357805
v 0.777416 -0.218659 -0.519452
v 0.661138 -0.218659 -0.661137
v 0.519452 -0.218659 -0.777415
v 0.357805 -0.218659 -0.863818
v 0.182407 -0.218659 -0.917024
vt 0.000000 0.000000
vt 0.000000 0.000000
vt 0.000000 0.000000
vt 0.000000 0.000000
vt 0.000000 0.000000
vt 0.000000 0.000000
vt 0.000000 0.000000
vt 0.000000 0.000000
vt 0.000000 0.000000
vt 0.000000 0.000000
vt 0.000000 0.000000
vt 0.000000 0.000000
vt 0.000000 0.000000
vt 0.000000 0.000000
vt 0.000000 0.000000
vt 0.000000 0.000000
vt 0.000000 0.000000
vt 0.000000 0.000000
vt 0.000000 0.000000
vt 0.000000 0.000000
vt 0.000000 0.000000
vt 0.000000 0.000000
vt 0.000000 0.000000
vt 0.000000 0.000000
vt 0.000000 0.000000
vt 0.000000 0.000000
vt 0.000000 0.000000
vt 0.000000 0.000000
vt 0.000000 0.000000
vt 0.000000 0.000000
vt 0.000000 0.000000
vt 0.000000 0.000000
vn 0.0000 1.0000 -0.0000
usemtl Material.001
s 1
f 29/1/1 1/2/1 17/3/1
f 1/2/1 2/4/1 5/5/1
f 2/4/1 3/6/1 5/5/1
f 3/6/1 4/7/1 5/5/1
f 5/5/1 6/8/1 7/9/1
f 7/9/1 8/10/1 9/11/1
f 9/11/1 10/12/1 13/13/1
f 10/12/1 11/14/1 13/13/1
f 11/14/1 12/15/1 13/13/1
f 13/13/1 14/16/1 15/17/1
f 15/17/1 16/18/1 17/3/1
f 17/3/1 18/19/1 19/20/1
f 19/20/1 20/21/1 21/22/1
f 21/22/1 22/23/1 23/24/1
f 23/24/1 24/25/1 21/22/1
f 24/25/1 25/26/1 21/22/1
f 25/26/1 26/27/1 29/1/1
f 26/27/1 27/28/1 29/1/1
f 27/28/1 28/29/1 29/1/1
f 29/1/1 30/30/1 31/31/1
f 31/31/1 32/32/1 29/1/1
f 32/32/1 1/2/1 29/1/1
f 5/5/1 7/9/1 1/2/1
f 7/9/1 9/11/1 1/2/1
f 13/13/1 15/17/1 17/3/1
f 17/3/1 19/20/1 25/26/1
f 19/20/1 21/22/1 25/26/1
f 9/11/1 13/13/1 1/2/1
f 13/13/1 17/3/1 1/2/1
f 25/26/1 29/1/1 17/3/1
