# Blender v3.1.2 OBJ File: ''
# www.blender.org
mtllib СупИзСемиЗалуп(Red).mtl
o Icosphere
v -0.000000 -1.090000 0.000000
v 0.788732 -0.487469 0.573041
v -0.301263 -0.487469 0.927208
v -0.974925 -0.487465 0.000000
v -0.301263 -0.487469 -0.927208
v 0.788732 -0.487469 -0.573041
v -0.177077 -0.927213 0.544995
v 0.463602 -0.927213 0.336823
v 0.286527 -0.573054 0.881823
v 0.927206 -0.573052 -0.000000
v 0.463602 -0.927213 -0.336823
v -0.573045 -0.927210 0.000000
v -0.750126 -0.573052 0.544997
v -0.177077 -0.927213 -0.544995
v -0.750126 -0.573052 -0.544997
v 0.286527 -0.573054 -0.881823
v 1.034942 -0.019957 0.334805
v 1.034942 -0.019957 -0.334805
v 0.001391 -0.019957 1.087748
v 0.638238 -0.019957 0.880824
v -1.034082 -0.019956 0.337451
v -0.640488 -0.019957 0.879189
v -0.640488 -0.019957 -0.879189
v -1.034082 -0.019956 -0.337451
v 0.638238 -0.019957 -0.880824
v 0.001391 -0.019957 -1.087748
v 0.000000 -1.000000 0.000000
v 0.723607 -0.447220 0.525725
v -0.276388 -0.447220 0.850649
v -0.894426 -0.447216 0.000000
v -0.276388 -0.447220 -0.850649
v 0.723607 -0.447220 -0.525725
v -0.162456 -0.850654 0.499995
v 0.425323 -0.850654 0.309011
v 0.262869 -0.525738 0.809012
v 0.850648 -0.525736 0.000000
v 0.425323 -0.850654 -0.309011
v -0.525730 -0.850652 0.000000
v -0.688189 -0.525736 0.499997
v -0.162456 -0.850654 -0.499995
v -0.688189 -0.525736 -0.499997
v 0.262869 -0.525738 -0.809012
v 0.951058 0.000000 0.309013
v 0.951058 0.000000 -0.309013
v 0.000000 0.000000 1.000000
v 0.587786 0.000000 0.809017
v -0.951058 0.000000 0.309013
v -0.587786 0.000000 0.809017
v -0.587786 0.000000 -0.809017
v -0.951058 0.000000 -0.309013
v 0.587786 0.000000 -0.809017
v 0.000000 0.000000 -1.000000
vt 0.181819 0.000000
vt 0.227273 0.078731
vt 0.136365 0.078731
vt 0.272728 0.157461
vt 0.318182 0.078731
vt 0.363637 0.157461
vt 0.909091 0.000000
vt 0.954545 0.078731
vt 0.863636 0.078731
vt 0.727273 0.000000
vt 0.772727 0.078731
vt 0.681818 0.078731
vt 0.545455 0.000000
vt 0.590909 0.078731
vt 0.500000 0.078731
vt 0.318182 0.236191
vt 0.090910 0.157461
vt 0.181819 0.157461
vt 0.136365 0.236191
vt 0.818182 0.157461
vt 0.909091 0.157461
vt 0.863636 0.236191
vt 0.636364 0.157461
vt 0.727273 0.157461
vt 0.681818 0.236191
vt 0.454546 0.157461
vt 0.545455 0.157461
vt 0.500000 0.236191
vt 0.227273 0.236191
vt 0.045455 0.236191
vt 0.772727 0.236191
vt 0.590909 0.236191
vt 0.409092 0.236191
vt 0.954545 0.236191
vt 1.000000 0.157461
vt 0.409092 0.078731
vt 0.363637 0.000000
vt 0.181819 0.000000
vt 0.136365 0.078731
vt 0.227273 0.078731
vt 0.272728 0.157461
vt 0.363637 0.157461
vt 0.318182 0.078731
vt 0.909091 0.000000
vt 0.863636 0.078731
vt 0.954545 0.078731
vt 0.727273 0.000000
vt 0.681818 0.078731
vt 0.772727 0.078731
vt 0.545455 0.000000
vt 0.500000 0.078731
vt 0.590909 0.078731
vt 0.318182 0.236191
vt 0.090910 0.157461
vt 0.136365 0.236191
vt 0.181819 0.157461
vt 0.818182 0.157461
vt 0.863636 0.236191
vt 0.909091 0.157461
vt 0.636364 0.157461
vt 0.681818 0.236191
vt 0.727273 0.157461
vt 0.454546 0.157461
vt 0.500000 0.236191
vt 0.545455 0.157461
vt 0.227273 0.236191
vt 0.045455 0.236191
vt 0.772727 0.236191
vt 0.590909 0.236191
vt 0.409092 0.236191
vt 0.954545 0.236191
vt 1.000000 0.157461
vt 0.409092 0.078731
vt 0.363637 0.000000
vn -0.0000 -1.0000 0.0000
vn 0.4253 -0.8507 0.3090
vn -0.1625 -0.8507 0.5000
vn 0.7230 -0.4486 0.5253
vn 0.8493 -0.5280 0.0000
vn -0.5257 -0.8507 0.0000
vn -0.1625 -0.8507 -0.5000
vn 0.4253 -0.8507 -0.3090
vn 0.8417 0.4730 0.2604
vn -0.2762 -0.4486 0.8500
vn 0.2624 -0.5280 0.8077
vn 0.0125 0.4730 0.8810
vn -0.8937 -0.4486 -0.0000
vn -0.6871 -0.5280 0.4992
vn -0.8340 0.4730 0.2841
vn -0.2762 -0.4486 -0.8500
vn -0.6871 -0.5280 -0.4992
vn -0.5279 0.4730 -0.7054
vn 0.7230 -0.4486 -0.5253
vn 0.2624 -0.5280 -0.8077
vn 0.5077 0.4730 -0.7200
vn 0.5077 0.4730 0.7200
vn -0.5279 0.4730 0.7054
vn -0.8340 0.4730 -0.2841
vn 0.0125 0.4730 -0.8810
vn 0.8417 0.4730 -0.2604
vn 0.0000 1.0000 0.0000
vn 0.1625 0.8507 -0.5000
vn -0.4253 0.8507 -0.3090
vn -0.7236 0.4472 -0.5257
vn -0.8506 0.5257 -0.0000
vn 0.5257 0.8507 0.0000
vn 0.1625 0.8507 0.5000
vn -0.4253 0.8507 0.3090
vn -0.4014 0.9080 -0.1197
vn 0.2764 0.4472 -0.8506
vn -0.0102 0.9080 -0.4187
vn -0.2629 0.5257 -0.8090
vn 0.8944 0.4472 0.0000
vn 0.3951 0.9080 -0.1391
vn 0.6882 0.5257 -0.5000
vn 0.2764 0.4472 0.8506
vn 0.2544 0.9080 0.3328
vn 0.6882 0.5257 0.5000
vn -0.7236 0.4472 0.5257
vn -0.2379 0.9080 0.3447
vn -0.2629 0.5257 0.8090
vn -0.2379 0.9080 -0.3447
vn 0.2544 0.9080 -0.3328
vn 0.3951 0.9080 0.1391
vn -0.0102 0.9080 0.4187
vn -0.4014 0.9080 0.1197
usemtl None
s 1
f 1/1/1 8/2/2 7/3/3
f 2/4/4 8/5/2 10/6/5
f 1/7/1 7/8/3 12/9/6
f 1/10/1 12/11/6 14/12/7
f 1/13/1 14/14/7 11/15/8
f 2/4/4 10/6/5 17/16/9
f 3/17/10 9/18/11 19/19/12
f 4/20/13 13/21/14 21/22/15
f 5/23/16 15/24/17 23/25/18
f 6/26/19 16/27/20 25/28/21
f 2/4/4 17/16/9 20/29/22
f 3/17/10 19/19/12 22/30/23
f 4/20/13 21/22/15 24/31/24
f 5/23/16 23/25/18 26/32/25
f 6/26/19 25/28/21 18/33/26
f 25/28/21 16/27/20 26/32/25
f 16/27/20 5/23/16 26/32/25
f 23/25/18 15/24/17 24/31/24
f 15/24/17 4/20/13 24/31/24
f 21/22/15 13/21/14 22/34/23
f 13/21/14 3/35/10 22/34/23
f 19/19/12 9/18/11 20/29/22
f 9/18/11 2/4/4 20/29/22
f 17/16/9 10/6/5 18/33/26
f 10/6/5 6/26/19 18/33/26
f 11/15/8 16/27/20 6/26/19
f 11/15/8 14/14/7 16/27/20
f 14/14/7 5/23/16 16/27/20
f 14/12/7 15/24/17 5/23/16
f 14/12/7 12/11/6 15/24/17
f 12/11/6 4/20/13 15/24/17
f 12/9/6 13/21/14 4/20/13
f 12/9/6 7/8/3 13/21/14
f 7/8/3 3/35/10 13/21/14
f 10/6/5 11/36/8 6/26/19
f 10/6/5 8/5/2 11/36/8
f 8/5/2 1/37/1 11/36/8
f 7/3/3 9/18/11 3/17/10
f 7/3/3 8/2/2 9/18/11
f 8/2/2 2/4/4 9/18/11
f 27/38/27 33/39/28 34/40/29
f 28/41/30 36/42/31 34/43/29
f 27/44/27 38/45/32 33/46/28
f 27/47/27 40/48/33 38/49/32
f 27/50/27 37/51/34 40/52/33
f 28/41/30 43/53/35 36/42/31
f 29/54/36 45/55/37 35/56/38
f 30/57/39 47/58/40 39/59/41
f 31/60/42 49/61/43 41/62/44
f 32/63/45 51/64/46 42/65/47
f 28/41/30 46/66/48 43/53/35
f 29/54/36 48/67/49 45/55/37
f 30/57/39 50/68/50 47/58/40
f 31/60/42 52/69/51 49/61/43
f 32/63/45 44/70/52 51/64/46
f 51/64/46 52/69/51 42/65/47
f 42/65/47 52/69/51 31/60/42
f 49/61/43 50/68/50 41/62/44
f 41/62/44 50/68/50 30/57/39
f 47/58/40 48/71/49 39/59/41
f 39/59/41 48/71/49 29/72/36
f 45/55/37 46/66/48 35/56/38
f 35/56/38 46/66/48 28/41/30
f 43/53/35 44/70/52 36/42/31
f 36/42/31 44/70/52 32/63/45
f 37/51/34 32/63/45 42/65/47
f 37/51/34 42/65/47 40/52/33
f 40/52/33 42/65/47 31/60/42
f 40/48/33 31/60/42 41/62/44
f 40/48/33 41/62/44 38/49/32
f 38/49/32 41/62/44 30/57/39
f 38/45/32 30/57/39 39/59/41
f 38/45/32 39/59/41 33/46/28
f 33/46/28 39/59/41 29/72/36
f 36/42/31 32/63/45 37/73/34
f 36/42/31 37/73/34 34/43/29
f 34/43/29 37/73/34 27/74/27
f 33/39/28 29/54/36 35/56/38
f 33/39/28 35/56/38 34/40/29
f 34/40/29 35/56/38 28/41/30
f 18/33/26 51/64/46 44/70/52
f 26/32/25 49/61/43 52/69/51
f 21/22/15 50/68/50 24/31/24
f 19/19/12 48/67/49 22/30/23
f 17/16/9 46/66/48 20/29/22
f 26/32/25 51/64/46 25/28/21
f 24/31/24 49/61/43 23/25/18
f 21/22/15 48/71/49 47/58/40
f 19/19/12 46/66/48 45/55/37
f 18/33/26 43/53/35 17/16/9
f 18/33/26 25/28/21 51/64/46
f 26/32/25 23/25/18 49/61/43
f 21/22/15 47/58/40 50/68/50
f 19/19/12 45/55/37 48/67/49
f 17/16/9 43/53/35 46/66/48
f 26/32/25 52/69/51 51/64/46
f 24/31/24 50/68/50 49/61/43
f 21/22/15 22/34/23 48/71/49
f 19/19/12 20/29/22 46/66/48
f 18/33/26 44/70/52 43/53/35
