# Blender v3.1.2 OBJ File: ''
# www.blender.org
mtllib фанатка.mtl
o Cube.002
v -0.088232 0.108016 0.050532
v -0.088232 0.363032 0.062013
v -0.088232 0.113078 -0.061911
v -0.088232 0.368095 -0.050431
v 0.088232 0.108016 0.050532
v 0.088232 0.363032 0.062013
v 0.088232 0.113078 -0.061911
v 0.088232 0.368095 -0.050431
v 0.159211 0.705155 -0.135904
v 0.137986 0.469176 -0.101654
v 0.162279 0.739267 0.101029
v 0.141054 0.503288 0.135278
v -0.141054 0.732162 -0.135904
v -0.162279 0.496183 -0.101654
v -0.137986 0.766274 0.101029
v -0.159211 0.530295 0.135278
v -0.125874 0.328883 0.138201
v -0.125874 0.495503 0.054192
v -0.125874 0.253439 -0.011432
v -0.125874 0.420058 -0.095441
v 0.125874 0.328883 0.138201
v 0.125874 0.495503 0.054192
v 0.125874 0.253439 -0.011432
v 0.125874 0.420058 -0.095441
v 0.036316 -0.138594 0.064240
v 0.049087 0.152283 0.064240
v 0.036316 -0.138594 -0.064139
v 0.049087 0.152283 -0.064139
v 0.181875 -0.144985 0.064240
v 0.194646 0.145892 0.064240
v 0.181875 -0.144985 -0.064139
v 0.194646 0.145892 -0.064139
v -0.175772 -0.142243 0.064240
v -0.186786 0.148706 0.064240
v -0.175772 -0.142243 -0.064139
v -0.186786 0.148706 -0.064139
v -0.030177 -0.136731 0.064240
v -0.041191 0.154218 0.064240
v -0.030177 -0.136731 -0.064139
v -0.041191 0.154218 -0.064139
v -0.215221 -0.492891 0.106805
v -0.191570 -0.201734 0.064240
v -0.215221 -0.492891 -0.063254
v -0.191570 -0.201734 -0.064139
v -0.022218 -0.492891 0.106805
v -0.045870 -0.201734 0.064240
v -0.022218 -0.492891 -0.063254
v -0.045870 -0.201734 -0.064139
v 0.027701 -0.500459 0.049984
v 0.051352 -0.206424 0.061307
v 0.027701 -0.469402 -0.117215
v 0.051352 -0.182980 -0.064914
v 0.220704 -0.500459 0.049984
v 0.197052 -0.206424 0.061307
v 0.220704 -0.469402 -0.117215
v 0.197052 -0.182980 -0.064914
v 0.137084 0.367442 -0.123611
v 0.149335 0.425785 0.263718
v 0.159977 0.476465 -0.140757
v 0.172229 0.534808 0.246572
v 0.248679 0.344008 -0.123611
v 0.260930 0.402351 0.263718
v 0.271572 0.453031 -0.140757
v 0.283824 0.511374 0.246572
v 0.148214 0.426243 0.277788
v 0.144821 0.475686 0.675236
v 0.171586 0.537543 0.260284
v 0.173606 0.612765 0.653677
v 0.262140 0.402320 0.277788
v 0.285135 0.446221 0.675236
v 0.285512 0.513620 0.260284
v 0.313920 0.583301 0.653677
v -0.021825 0.082095 0.050284
v -0.090493 0.165745 0.074211
v -0.125874 0.088657 -0.111197
v -0.125874 0.212081 -0.065326
v 0.021825 0.082095 0.050284
v 0.090493 0.165745 0.074211
v 0.125874 0.088657 -0.111197
v 0.125874 0.212081 -0.065326
v -0.074258 0.068917 -0.053772
v -0.108184 0.204686 0.056560
v 0.074258 0.068917 -0.053772
v 0.108184 0.204686 0.056560
v -0.254077 0.344869 -0.123611
v -0.265048 0.403466 0.263718
v -0.274577 0.454367 -0.140757
v -0.285547 0.512964 0.246572
v -0.141996 0.365852 -0.123611
v -0.152966 0.424449 0.263718
v -0.162495 0.475350 -0.140757
v -0.173466 0.533947 0.246572
v -0.266258 0.403461 0.277788
v -0.288285 0.447856 0.675236
v -0.287186 0.515247 0.260284
v -0.314060 0.585533 0.653677
v -0.151836 0.424882 0.277788
v -0.147360 0.474239 0.675236
v -0.172763 0.536668 0.260284
v -0.173135 0.611916 0.653677
v 0.000000 0.715530 -0.308584
v 0.060202 0.715530 -0.302654
v 0.118090 0.715530 -0.285094
v 0.171440 0.715530 -0.256578
v 0.218202 0.715530 -0.218202
v 0.256578 0.715530 -0.171440
v 0.285094 0.715530 -0.118090
v 0.302654 0.715530 -0.060202
v 0.308584 0.715530 0.000000
v 0.302654 0.715530 0.060202
v 0.285094 0.715530 0.118090
v 0.256578 0.715530 0.171440
v 0.218202 0.715530 0.218202
v 0.171440 0.715530 0.256578
v 0.118090 0.715530 0.285094
v 0.060202 0.715530 0.302654
v -0.000000 0.715530 0.308584
v -0.060202 0.715530 0.302654
v -0.118090 0.715530 0.285094
v -0.171440 0.715530 0.256578
v -0.218202 0.715530 0.218202
v -0.256578 0.715530 0.171440
v -0.285094 0.715530 0.118090
v -0.302654 0.715530 0.060202
v -0.308584 0.715530 0.000000
v -0.302654 0.715530 -0.060202
v -0.285094 0.715530 -0.118090
v -0.256578 0.715530 -0.171440
v -0.218202 0.715530 -0.218202
v -0.171440 0.715530 -0.256578
v -0.118090 0.715530 -0.285094
v -0.060202 0.715530 -0.302654
v 0.000000 0.874331 0.000000
v 0.000000 0.706638 -0.304008
v 0.059309 0.706638 -0.298166
v 0.116339 0.706638 -0.280867
v 0.168898 0.706638 -0.252773
v 0.214966 0.706638 -0.214966
v 0.252773 0.706638 -0.168898
v 0.280867 0.706638 -0.116339
v 0.298166 0.706638 -0.059309
v 0.304008 0.706638 0.000000
v 0.298166 0.706638 0.059309
v 0.280867 0.706638 0.116339
v 0.252773 0.706638 0.168898
v 0.214966 0.706638 0.214966
v 0.168898 0.706638 0.252773
v 0.116339 0.706638 0.280867
v 0.059309 0.706638 0.298166
v -0.000000 0.706638 0.304008
v -0.059309 0.706638 0.298166
v -0.116339 0.706638 0.280867
v -0.168898 0.706638 0.252773
v -0.214966 0.706638 0.214966
v -0.252773 0.706638 0.168898
v -0.280867 0.706638 0.116339
v -0.298166 0.706638 0.059309
v -0.304008 0.706638 0.000000
v -0.298166 0.706638 -0.059309
v -0.280867 0.706638 -0.116339
v -0.252773 0.706638 -0.168898
v -0.214966 0.706638 -0.214966
v -0.168898 0.706638 -0.252773
v -0.116339 0.706638 -0.280867
v -0.059309 0.706638 -0.298166
v 0.000000 0.864331 0.000000
vt 0.625000 0.000000
vt 0.375000 0.250000
vt 0.375000 0.000000
vt 0.625000 0.250000
vt 0.375000 0.500000
vt 0.625000 0.500000
vt 0.375000 0.750000
vt 0.625000 0.750000
vt 0.375000 1.000000
vt 0.125000 0.750000
vt 0.125000 0.500000
vt 0.875000 0.500000
vt 0.625000 0.500000
vt 0.875000 0.750000
vt 0.625000 0.750000
vt 0.375000 0.750000
vt 0.625000 1.000000
vt 0.375000 1.000000
vt 0.625000 0.000000
vt 0.375000 0.250000
vt 0.375000 0.000000
vt 0.375000 0.500000
vt 0.125000 0.750000
vt 0.125000 0.500000
vt 0.625000 0.250000
vt 0.625000 0.000000
vt 0.375000 0.250000
vt 0.375000 0.000000
vt 0.625000 0.250000
vt 0.375000 0.500000
vt 0.625000 0.750000
vt 0.375000 0.750000
vt 0.375000 1.000000
vt 0.125000 0.750000
vt 0.125000 0.500000
vt 0.875000 0.500000
vt 0.625000 0.500000
vt 0.625000 0.000000
vt 0.375000 0.250000
vt 0.375000 0.000000
vt 0.625000 0.250000
vt 0.375000 0.500000
vt 0.625000 0.750000
vt 0.375000 0.750000
vt 0.625000 1.000000
vt 0.375000 1.000000
vt 0.125000 0.750000
vt 0.125000 0.500000
vt 0.625000 0.500000
vt 0.875000 0.750000
vt 0.625000 0.000000
vt 0.375000 0.250000
vt 0.375000 0.000000
vt 0.625000 0.500000
vt 0.375000 0.500000
vt 0.625000 0.750000
vt 0.375000 0.750000
vt 0.375000 1.000000
vt 0.125000 0.500000
vt 0.125000 0.750000
vt 0.875000 0.500000
vt 0.625000 0.000000
vt 0.375000 0.250000
vt 0.375000 0.000000
vt 0.625000 0.500000
vt 0.375000 0.500000
vt 0.625000 0.750000
vt 0.375000 0.750000
vt 0.375000 1.000000
vt 0.125000 0.750000
vt 0.125000 0.500000
vt 0.875000 0.500000
vt 0.375000 0.000000
vt 0.625000 0.250000
vt 0.375000 0.250000
vt 0.375000 0.500000
vt 0.625000 0.500000
vt 0.375000 0.750000
vt 0.625000 0.750000
vt 0.375000 1.000000
vt 0.125000 0.750000
vt 0.125000 0.500000
vt 0.875000 0.500000
vt 0.375000 0.000000
vt 0.625000 0.250000
vt 0.375000 0.250000
vt 0.375000 0.500000
vt 0.625000 0.500000
vt 0.375000 0.750000
vt 0.625000 1.000000
vt 0.375000 1.000000
vt 0.125000 0.500000
vt 0.125000 0.750000
vt 0.875000 0.500000
vt 0.625000 0.750000
vt 0.375000 0.000000
vt 0.625000 0.250000
vt 0.375000 0.250000
vt 0.375000 0.500000
vt 0.625000 0.500000
vt 0.375000 0.750000
vt 0.625000 1.000000
vt 0.375000 1.000000
vt 0.125000 0.500000
vt 0.125000 0.750000
vt 0.875000 0.500000
vt 0.625000 0.750000
vt 0.375000 0.125000
vt 0.625000 0.250000
vt 0.375000 0.250000
vt 0.375000 0.500000
vt 0.625000 0.625000
vt 0.375000 0.750000
vt 0.375000 0.625000
vt 0.625000 0.750000
vt 0.375000 1.000000
vt 0.125000 0.750000
vt 0.125000 0.625000
vt 0.875000 0.625000
vt 0.875000 0.500000
vt 0.625000 0.500000
vt 0.125000 0.500000
vt 0.375000 0.000000
vt 0.625000 0.125000
vt 0.375000 0.000000
vt 0.625000 0.250000
vt 0.375000 0.250000
vt 0.625000 0.500000
vt 0.375000 0.500000
vt 0.375000 0.750000
vt 0.625000 0.750000
vt 0.375000 1.000000
vt 0.125000 0.750000
vt 0.125000 0.500000
vt 0.875000 0.750000
vt 0.375000 0.000000
vt 0.625000 0.250000
vt 0.375000 0.250000
vt 0.625000 0.500000
vt 0.375000 0.500000
vt 0.375000 0.750000
vt 0.625000 0.750000
vt 0.375000 1.000000
vt 0.125000 0.750000
vt 0.125000 0.500000
vt 0.875000 0.750000
vt 0.250000 0.490000
vt 0.250000 0.250000
vt 0.296822 0.485388
vt 0.341844 0.471731
vt 0.383337 0.449553
vt 0.419706 0.419706
vt 0.449553 0.383337
vt 0.471731 0.341844
vt 0.485388 0.296822
vt 0.490000 0.250000
vt 0.485388 0.203178
vt 0.471731 0.158156
vt 0.449553 0.116663
vt 0.419706 0.080294
vt 0.383337 0.050447
vt 0.341844 0.028269
vt 0.296822 0.014612
vt 0.250000 0.010000
vt 0.203178 0.014612
vt 0.158156 0.028269
vt 0.116663 0.050447
vt 0.080294 0.080294
vt 0.050447 0.116663
vt 0.028269 0.158156
vt 0.014612 0.203178
vt 0.010000 0.250000
vt 0.014612 0.296822
vt 0.028269 0.341844
vt 0.050447 0.383337
vt 0.080294 0.419706
vt 0.116663 0.449553
vt 0.158156 0.471731
vt 0.203178 0.485388
vt 0.250000 0.490000
vt 0.296822 0.485388
vt 0.250000 0.250000
vt 0.341844 0.471731
vt 0.383337 0.449553
vt 0.419706 0.419706
vt 0.449553 0.383337
vt 0.471731 0.341844
vt 0.485388 0.296822
vt 0.490000 0.250000
vt 0.485388 0.203178
vt 0.471731 0.158156
vt 0.449553 0.116663
vt 0.419706 0.080294
vt 0.383337 0.050447
vt 0.341844 0.028269
vt 0.296822 0.014612
vt 0.250000 0.010000
vt 0.203178 0.014612
vt 0.158156 0.028269
vt 0.116663 0.050447
vt 0.080294 0.080294
vt 0.050447 0.116663
vt 0.028269 0.158156
vt 0.014612 0.203178
vt 0.010000 0.250000
vt 0.014612 0.296822
vt 0.028269 0.341844
vt 0.050447 0.383337
vt 0.080294 0.419706
vt 0.116663 0.449553
vt 0.158156 0.471731
vt 0.203178 0.485388
vt 0.625000 1.000000
vt 0.875000 0.750000
vt 0.875000 0.500000
vt 0.625000 1.000000
vt 0.875000 0.750000
vt 0.875000 0.500000
vt 0.625000 0.250000
vt 0.625000 1.000000
vt 0.875000 0.750000
vt 0.625000 0.250000
vt 0.625000 1.000000
vt 0.875000 0.750000
vt 0.625000 0.000000
vt 0.625000 1.000000
vt 0.875000 0.750000
vt 0.625000 0.000000
vt 0.875000 0.750000
vt 0.625000 0.000000
vt 0.875000 0.750000
vt 0.625000 1.000000
vt 0.875000 0.750000
vt 0.625000 0.000000
vt 0.625000 0.000000
vt 0.625000 1.000000
vt 0.875000 0.500000
vt 0.625000 0.000000
vt 0.625000 1.000000
vt 0.875000 0.500000
vn -1.0000 0.0000 0.0000
vn 0.0000 0.0450 -0.9990
vn 1.0000 0.0000 0.0000
vn 0.0000 -0.0450 0.9990
vn 0.0000 -0.9990 -0.0450
vn 0.0000 0.9990 0.0450
vn 0.0887 0.9857 -0.1431
vn 0.0128 0.1425 0.9897
vn -0.9960 0.0896 -0.0000
vn -0.0887 -0.9857 0.1431
vn 0.9960 -0.0896 0.0000
vn -0.0128 -0.1425 -0.9897
vn 0.0000 -0.4502 -0.8929
vn 0.0000 0.4502 0.8929
vn 0.0000 -0.8929 0.4502
vn 0.0000 0.8929 -0.4502
vn -0.9990 0.0439 0.0000
vn -0.0000 0.0000 -1.0000
vn 0.9990 -0.0439 0.0000
vn 0.0000 -0.0000 1.0000
vn -0.0439 -0.9990 0.0000
vn 0.0439 0.9990 0.0000
vn -0.9993 -0.0378 0.0000
vn 0.9993 0.0378 0.0000
vn 0.0378 -0.9993 0.0000
vn -0.0378 0.9993 0.0000
vn -0.9967 0.0810 0.0000
vn 0.0000 -0.0030 -1.0000
vn 0.9967 0.0810 0.0000
vn 0.0000 0.1447 0.9895
vn 0.0000 -1.0000 -0.0000
vn 0.0000 1.0000 0.0000
vn -0.9967 0.0796 0.0148
vn 0.0000 0.1796 -0.9837
vn 0.9967 0.0796 0.0148
vn 0.0000 -0.0385 0.9993
vn 0.0000 -0.9832 -0.1826
vn 0.0000 0.9832 0.1826
vn -0.9787 0.2055 0.0000
vn 0.2031 0.9673 -0.1521
vn 0.9787 -0.2055 -0.0000
vn -0.2031 -0.9673 0.1521
vn -0.0313 -0.1489 -0.9884
vn 0.0313 0.1489 0.9884
vn -0.9792 0.2004 -0.0333
vn 0.2020 0.9618 -0.1849
vn 0.9770 -0.2104 -0.0333
vn -0.2040 -0.9717 0.1191
vn -0.7618 -0.2257 0.6072
vn 0.0000 0.3484 -0.9374
vn 0.7261 -0.5337 0.4335
vn 0.0000 -0.2750 0.9614
vn 0.0000 -0.9921 0.1256
vn 0.0000 0.4128 0.9108
vn 0.0000 0.9982 0.0606
vn 0.0000 -0.9457 -0.3251
vn 0.7618 -0.2257 0.6072
vn -0.7261 -0.5337 0.4335
vn -0.9829 -0.1840 0.0000
vn -0.1819 0.9715 -0.1521
vn 0.9829 0.1840 0.0000
vn 0.1819 -0.9715 0.1521
vn 0.0280 -0.1495 -0.9884
vn -0.0280 0.1495 0.9884
vn -0.9814 -0.1889 -0.0333
vn -0.1808 0.9660 -0.1849
vn 0.9833 0.1789 -0.0333
vn 0.1827 -0.9759 0.1191
vn 0.0450 0.8883 -0.4571
vn 0.1333 0.8883 -0.4395
vn 0.2165 0.8883 -0.4051
vn 0.2914 0.8883 -0.3551
vn 0.3551 0.8883 -0.2914
vn 0.4051 0.8883 -0.2165
vn 0.4395 0.8883 -0.1333
vn 0.4571 0.8883 -0.0450
vn 0.4571 0.8883 0.0450
vn 0.4395 0.8883 0.1333
vn 0.4051 0.8883 0.2165
vn 0.3551 0.8883 0.2914
vn 0.2914 0.8883 0.3551
vn 0.2165 0.8883 0.4051
vn 0.1333 0.8883 0.4395
vn 0.0450 0.8883 0.4571
vn -0.0450 0.8883 0.4571
vn -0.1333 0.8883 0.4395
vn -0.2165 0.8883 0.4051
vn -0.2914 0.8883 0.3551
vn -0.3551 0.8883 0.2914
vn -0.4051 0.8883 0.2165
vn -0.4395 0.8883 0.1333
vn -0.4571 0.8883 0.0450
vn -0.4571 0.8883 -0.0450
vn -0.4395 0.8883 -0.1333
vn -0.4051 0.8883 -0.2165
vn -0.3551 0.8883 -0.2914
vn -0.2914 0.8883 -0.3551
vn -0.2165 0.8883 -0.4051
vn -0.1333 0.8883 -0.4395
vn -0.0450 0.8883 -0.4571
vn -0.0453 -0.8868 0.4600
vn -0.1342 -0.8868 0.4423
vn -0.2179 -0.8868 0.4076
vn -0.2932 -0.8868 0.3573
vn -0.3573 -0.8868 0.2932
vn -0.4076 -0.8868 0.2179
vn -0.4423 -0.8868 0.1342
vn -0.4600 -0.8868 0.0453
vn -0.4600 -0.8868 -0.0453
vn -0.4423 -0.8868 -0.1342
vn -0.4076 -0.8868 -0.2179
vn -0.3573 -0.8868 -0.2932
vn -0.2932 -0.8868 -0.3573
vn -0.2179 -0.8868 -0.4076
vn -0.1342 -0.8868 -0.4423
vn -0.0453 -0.8868 -0.4600
vn 0.0453 -0.8868 -0.4600
vn 0.1342 -0.8868 -0.4423
vn 0.2179 -0.8868 -0.4076
vn 0.2932 -0.8868 -0.3573
vn 0.3573 -0.8868 -0.2932
vn 0.4076 -0.8868 -0.2179
vn 0.4423 -0.8868 -0.1342
vn 0.4600 -0.8868 -0.0453
vn 0.4600 -0.8868 0.0453
vn 0.4423 -0.8868 0.1342
vn 0.4076 -0.8868 0.2179
vn 0.3573 -0.8868 0.2932
vn 0.2932 -0.8868 0.3573
vn 0.2179 -0.8868 0.4076
vn 0.1342 -0.8868 0.4423
vn 0.0453 -0.8868 0.4600
vn 0.0872 -0.4558 -0.8858
vn 0.2584 -0.4558 -0.8517
vn 0.4196 -0.4558 -0.7850
vn 0.5647 -0.4558 -0.6880
vn 0.6880 -0.4558 -0.5647
vn 0.7850 -0.4558 -0.4196
vn 0.8517 -0.4558 -0.2584
vn 0.8858 -0.4558 -0.0872
vn 0.8858 -0.4558 0.0872
vn 0.8517 -0.4558 0.2584
vn 0.7850 -0.4558 0.4196
vn 0.6880 -0.4558 0.5647
vn 0.5647 -0.4558 0.6880
vn 0.4196 -0.4558 0.7850
vn 0.2584 -0.4558 0.8517
vn 0.0872 -0.4558 0.8858
vn -0.0872 -0.4558 0.8858
vn -0.2584 -0.4558 0.8517
vn -0.4196 -0.4558 0.7850
vn -0.5647 -0.4558 0.6880
vn -0.6880 -0.4558 0.5647
vn -0.7850 -0.4558 0.4196
vn -0.8517 -0.4558 0.2584
vn -0.8858 -0.4558 0.0872
vn -0.8858 -0.4558 -0.0872
vn -0.8517 -0.4558 -0.2584
vn -0.7850 -0.4558 -0.4196
vn -0.6880 -0.4558 -0.5646
vn -0.5647 -0.4558 -0.6880
vn -0.4196 -0.4558 -0.7850
vn -0.2584 -0.4558 -0.8517
vn -0.0872 -0.4558 -0.8858
vn -0.9373 -0.3286 0.1161
vn 0.7654 -0.5197 -0.3795
vn 0.9373 -0.3286 0.1161
vn -0.7654 -0.5198 -0.3795
vn 0.6880 -0.4558 -0.5646
vn -0.6880 -0.4558 -0.5647
usemtl Material
s off
f 2/1/1 3/2/1 1/3/1
f 4/4/2 7/5/2 3/2/2
f 8/6/3 5/7/3 7/5/3
f 6/8/4 1/9/4 5/7/4
f 7/5/5 1/10/5 3/11/5
f 4/12/6 6/8/6 8/6/6
f 9/13/7 15/14/7 11/15/7
f 12/16/8 15/17/8 16/18/8
f 15/19/9 14/20/9 16/21/9
f 10/22/10 16/23/10 14/24/10
f 10/22/11 11/15/11 12/16/11
f 13/25/12 10/22/12 14/20/12
f 18/26/1 19/27/1 17/28/1
f 20/29/13 23/30/13 19/27/13
f 23/30/3 22/31/3 21/32/3
f 22/31/14 17/33/14 21/32/14
f 23/30/15 17/34/15 19/35/15
f 20/36/16 22/31/16 24/37/16
f 26/38/17 27/39/17 25/40/17
f 28/41/18 31/42/18 27/39/18
f 31/42/19 30/43/19 29/44/19
f 29/44/20 26/45/20 25/46/20
f 31/42/21 25/47/21 27/48/21
f 32/49/22 26/50/22 30/43/22
f 34/51/23 35/52/23 33/53/23
f 35/52/18 40/54/18 39/55/18
f 39/55/24 38/56/24 37/57/24
f 38/56/20 33/58/20 37/57/20
f 35/59/25 37/57/25 33/60/25
f 36/61/26 38/56/26 40/54/26
f 42/62/27 43/63/27 41/64/27
f 43/63/28 48/65/28 47/66/28
f 47/66/29 46/67/29 45/68/29
f 46/67/30 41/69/30 45/68/30
f 47/66/31 41/70/31 43/71/31
f 44/72/32 46/67/32 48/65/32
f 49/73/33 52/74/33 51/75/33
f 52/74/34 55/76/34 51/75/34
f 56/77/35 53/78/35 55/76/35
f 54/79/36 49/80/36 53/78/36
f 55/76/37 49/81/37 51/82/37
f 52/83/38 54/79/38 56/77/38
f 57/84/39 60/85/39 59/86/39
f 60/85/40 63/87/40 59/86/40
f 64/88/41 61/89/41 63/87/41
f 61/89/42 58/90/42 57/91/42
f 59/92/43 61/89/43 57/93/43
f 60/94/44 62/95/44 64/88/44
f 65/96/45 68/97/45 67/98/45
f 68/97/46 71/99/46 67/98/46
f 72/100/47 69/101/47 71/99/47
f 69/101/48 66/102/48 65/103/48
f 67/104/43 69/101/43 65/105/43
f 68/106/44 70/107/44 72/100/44
f 81/108/49 76/109/49 75/110/49
f 76/109/50 79/111/50 75/110/50
f 84/112/51 77/113/51 83/114/51
f 78/115/52 73/116/52 77/113/52
f 83/114/53 73/117/53 81/118/53
f 82/119/54 78/115/54 84/112/54
f 76/120/55 84/112/55 80/121/55
f 79/111/56 81/118/56 75/122/56
f 80/121/57 83/114/57 79/111/57
f 73/123/58 82/124/58 81/108/58
f 85/125/59 88/126/59 87/127/59
f 87/127/60 92/128/60 91/129/60
f 92/128/61 89/130/61 91/129/61
f 90/131/62 85/132/62 89/130/62
f 91/129/63 85/133/63 87/134/63
f 92/128/64 86/135/64 90/131/64
f 93/136/65 96/137/65 95/138/65
f 95/138/66 100/139/66 99/140/66
f 100/139/67 97/141/67 99/140/67
f 98/142/68 93/143/68 97/141/68
f 99/140/63 93/144/63 95/145/63
f 100/139/64 94/146/64 98/142/64
f 101/147/69 133/148/69 102/149/69
f 102/149/70 133/148/70 103/150/70
f 103/150/71 133/148/71 104/151/71
f 104/151/72 133/148/72 105/152/72
f 105/152/73 133/148/73 106/153/73
f 106/153/74 133/148/74 107/154/74
f 107/154/75 133/148/75 108/155/75
f 108/155/76 133/148/76 109/156/76
f 109/156/77 133/148/77 110/157/77
f 110/157/78 133/148/78 111/158/78
f 111/158/79 133/148/79 112/159/79
f 112/159/80 133/148/80 113/160/80
f 113/160/81 133/148/81 114/161/81
f 114/161/82 133/148/82 115/162/82
f 115/162/83 133/148/83 116/163/83
f 116/163/84 133/148/84 117/164/84
f 117/164/85 133/148/85 118/165/85
f 118/165/86 133/148/86 119/166/86
f 119/166/87 133/148/87 120/167/87
f 120/167/88 133/148/88 121/168/88
f 121/168/89 133/148/89 122/169/89
f 122/169/90 133/148/90 123/170/90
f 123/170/91 133/148/91 124/171/91
f 124/171/92 133/148/92 125/172/92
f 125/172/93 133/148/93 126/173/93
f 126/173/94 133/148/94 127/174/94
f 127/174/95 133/148/95 128/175/95
f 128/175/96 133/148/96 129/176/96
f 129/176/97 133/148/97 130/177/97
f 130/177/98 133/148/98 131/178/98
f 131/178/99 133/148/99 132/179/99
f 132/179/100 133/148/100 101/147/100
f 134/180/101 135/181/101 166/182/101
f 135/181/102 136/183/102 166/182/102
f 136/183/103 137/184/103 166/182/103
f 137/184/104 138/185/104 166/182/104
f 138/185/105 139/186/105 166/182/105
f 139/186/106 140/187/106 166/182/106
f 140/187/107 141/188/107 166/182/107
f 141/188/108 142/189/108 166/182/108
f 142/189/109 143/190/109 166/182/109
f 143/190/110 144/191/110 166/182/110
f 144/191/111 145/192/111 166/182/111
f 145/192/112 146/193/112 166/182/112
f 146/193/113 147/194/113 166/182/113
f 147/194/114 148/195/114 166/182/114
f 148/195/115 149/196/115 166/182/115
f 149/196/116 150/197/116 166/182/116
f 150/197/117 151/198/117 166/182/117
f 151/198/118 152/199/118 166/182/118
f 152/199/119 153/200/119 166/182/119
f 153/200/120 154/201/120 166/182/120
f 154/201/121 155/202/121 166/182/121
f 155/202/122 156/203/122 166/182/122
f 156/203/123 157/204/123 166/182/123
f 157/204/124 158/205/124 166/182/124
f 158/205/125 159/206/125 166/182/125
f 159/206/126 160/207/126 166/182/126
f 160/207/127 161/208/127 166/182/127
f 161/208/128 162/209/128 166/182/128
f 162/209/129 163/210/129 166/182/129
f 163/210/130 164/211/130 166/182/130
f 164/211/131 165/212/131 166/182/131
f 165/212/132 134/180/132 166/182/132
f 102/149/133 134/180/133 101/147/133
f 103/150/134 135/181/134 102/149/134
f 104/151/135 136/183/135 103/150/135
f 105/152/136 137/184/136 104/151/136
f 106/153/137 138/185/137 105/152/137
f 107/154/138 139/186/138 106/153/138
f 108/155/139 140/187/139 107/154/139
f 109/156/140 141/188/140 108/155/140
f 110/157/141 142/189/141 109/156/141
f 110/157/142 144/191/142 143/190/142
f 111/158/143 145/192/143 144/191/143
f 112/159/144 146/193/144 145/192/144
f 113/160/145 147/194/145 146/193/145
f 114/161/146 148/195/146 147/194/146
f 115/162/147 149/196/147 148/195/147
f 116/163/148 150/197/148 149/196/148
f 118/165/149 150/197/149 117/164/149
f 119/166/150 151/198/150 118/165/150
f 120/167/151 152/199/151 119/166/151
f 121/168/152 153/200/152 120/167/152
f 122/169/153 154/201/153 121/168/153
f 123/170/154 155/202/154 122/169/154
f 124/171/155 156/203/155 123/170/155
f 124/171/156 158/205/156 157/204/156
f 125/172/157 159/206/157 158/205/157
f 126/173/158 160/207/158 159/206/158
f 127/174/159 161/208/159 160/207/159
f 128/175/160 162/209/160 161/208/160
f 129/176/161 163/210/161 162/209/161
f 130/177/162 164/211/162 163/210/162
f 131/178/163 165/212/163 164/211/163
f 132/179/164 134/180/164 165/212/164
f 2/1/1 4/4/1 3/2/1
f 4/4/2 8/6/2 7/5/2
f 8/6/3 6/8/3 5/7/3
f 6/8/4 2/213/4 1/9/4
f 7/5/5 5/7/5 1/10/5
f 4/12/6 2/214/6 6/8/6
f 9/13/7 13/215/7 15/14/7
f 12/16/8 11/15/8 15/17/8
f 15/19/9 13/25/9 14/20/9
f 10/22/10 12/16/10 16/23/10
f 10/22/11 9/13/11 11/15/11
f 13/25/12 9/13/12 10/22/12
f 18/26/1 20/29/1 19/27/1
f 20/29/13 24/37/13 23/30/13
f 23/30/3 24/37/3 22/31/3
f 22/31/14 18/216/14 17/33/14
f 23/30/15 21/32/15 17/34/15
f 20/36/16 18/217/16 22/31/16
f 26/38/17 28/41/17 27/39/17
f 28/41/18 32/49/18 31/42/18
f 31/42/19 32/49/19 30/43/19
f 29/44/20 30/43/20 26/45/20
f 31/42/21 29/44/21 25/47/21
f 32/49/22 28/218/22 26/50/22
f 34/51/23 36/219/23 35/52/23
f 35/52/18 36/219/18 40/54/18
f 39/55/24 40/54/24 38/56/24
f 38/56/20 34/220/20 33/58/20
f 35/59/25 39/55/25 37/57/25
f 36/61/26 34/221/26 38/56/26
f 42/62/27 44/222/27 43/63/27
f 43/63/28 44/222/28 48/65/28
f 47/66/29 48/65/29 46/67/29
f 46/67/30 42/223/30 41/69/30
f 47/66/31 45/68/31 41/70/31
f 44/72/32 42/224/32 46/67/32
f 49/73/33 50/225/33 52/74/33
f 52/74/34 56/77/34 55/76/34
f 56/77/35 54/79/35 53/78/35
f 54/79/36 50/226/36 49/80/36
f 55/76/37 53/78/37 49/81/37
f 52/83/38 50/227/38 54/79/38
f 57/84/39 58/228/39 60/85/39
f 60/85/40 64/88/40 63/87/40
f 64/88/41 62/95/41 61/89/41
f 61/89/42 62/95/42 58/90/42
f 59/92/43 63/87/43 61/89/43
f 60/94/44 58/229/44 62/95/44
f 65/96/45 66/230/45 68/97/45
f 68/97/46 72/100/46 71/99/46
f 72/100/47 70/107/47 69/101/47
f 69/101/48 70/107/48 66/102/48
f 67/104/43 71/99/43 69/101/43
f 68/106/44 66/231/44 70/107/44
f 81/108/165 82/124/165 76/109/165
f 76/109/50 80/121/50 79/111/50
f 84/112/166 78/115/166 77/113/166
f 78/115/52 74/232/52 73/116/52
f 83/114/53 77/113/53 73/117/53
f 82/119/54 74/233/54 78/115/54
f 76/120/55 82/119/55 84/112/55
f 79/111/56 83/114/56 81/118/56
f 80/121/167 84/112/167 83/114/167
f 73/123/168 74/234/168 82/124/168
f 85/125/59 86/235/59 88/126/59
f 87/127/60 88/126/60 92/128/60
f 92/128/61 90/131/61 89/130/61
f 90/131/62 86/236/62 85/132/62
f 91/129/63 89/130/63 85/133/63
f 92/128/64 88/237/64 86/135/64
f 93/136/65 94/238/65 96/137/65
f 95/138/66 96/137/66 100/139/66
f 100/139/67 98/142/67 97/141/67
f 98/142/68 94/239/68 93/143/68
f 99/140/63 97/141/63 93/144/63
f 100/139/64 96/240/64 94/146/64
f 102/149/133 135/181/133 134/180/133
f 103/150/134 136/183/134 135/181/134
f 104/151/135 137/184/135 136/183/135
f 105/152/136 138/185/136 137/184/136
f 106/153/169 139/186/169 138/185/169
f 107/154/138 140/187/138 139/186/138
f 108/155/139 141/188/139 140/187/139
f 109/156/140 142/189/140 141/188/140
f 110/157/141 143/190/141 142/189/141
f 110/157/142 111/158/142 144/191/142
f 111/158/143 112/159/143 145/192/143
f 112/159/144 113/160/144 146/193/144
f 113/160/145 114/161/145 147/194/145
f 114/161/146 115/162/146 148/195/146
f 115/162/147 116/163/147 149/196/147
f 116/163/148 117/164/148 150/197/148
f 118/165/149 151/198/149 150/197/149
f 119/166/150 152/199/150 151/198/150
f 120/167/151 153/200/151 152/199/151
f 121/168/152 154/201/152 153/200/152
f 122/169/153 155/202/153 154/201/153
f 123/170/154 156/203/154 155/202/154
f 124/171/155 157/204/155 156/203/155
f 124/171/156 125/172/156 158/205/156
f 125/172/157 126/173/157 159/206/157
f 126/173/158 127/174/158 160/207/158
f 127/174/159 128/175/159 161/208/159
f 128/175/170 129/176/170 162/209/170
f 129/176/161 130/177/161 163/210/161
f 130/177/162 131/178/162 164/211/162
f 131/178/163 132/179/163 165/212/163
f 132/179/164 101/147/164 134/180/164
