# Blender v3.1.2 OBJ File: ''
# www.blender.org
mtllib piramid.mtl
o Cube
v 0.000000 5.921532 0.000000
v 3.675957 -1.430383 -3.675957
v 3.675957 -1.430383 3.675957
v -3.675957 -1.430383 -3.675957
v -3.675957 -1.430383 3.675957
vt 1.000000 0.277778
vt 0.500000 1.277778
vt 0.000000 0.277778
vt 1.000000 0.277778
vt 1.000000 1.000000
vt 0.000000 0.000000
vt 0.000000 1.000000
vt 1.000000 0.277778
vt 0.000000 0.277778
vt 0.000000 0.277778
vt 1.000000 0.000000
vn 0.0000 0.4472 0.8944
vn -0.8944 0.4472 0.0000
vn 0.0000 -1.0000 0.0000
vn 0.8944 0.4472 0.0000
vn 0.0000 0.4472 -0.8944
usemtl Material
s off
f 3/1/1 1/2/1 5/3/1
f 5/3/2 1/2/2 4/4/2
f 2/5/3 5/6/3 4/7/3
f 2/8/4 1/2/4 3/9/4
f 4/10/5 1/2/5 2/8/5
f 2/5/3 3/11/3 5/6/3
