# ProBuilder 5.0.7
# https://unity3d.com/unity/features/worldbuilding/probuilder
# 18.11.2023 11:36:06

mtllib ./Cubffffe.mtl
o Cubffffe

g Cube
v 0.1427994 -0.008153915 0.1114082
v -0.1427994 -0.008153915 0.1114082
v 0.1427994 8.065771 0.1114082
v -0.1427994 8.065771 0.1114082
v -0.1427994 -0.008153915 -0.1114082
v -0.1427994 8.065771 -0.1114082
v 0.1427994 -0.008153915 -0.1114082
v 0.1427994 8.065771 -0.1114082

vt 0.1427994 -0.008153915
vt -0.1427994 -0.008153915
vt 0.1427994 8.065771
vt -0.1427994 8.065771
vt 0.1114082 -0.008153915
vt -0.1114082 -0.008153915
vt 0.1114082 8.065771
vt -0.1114082 8.065771
vt -0.1427994 0.1114082
vt 0.1427994 0.1114082
vt -0.1427994 -0.1114082
vt 0.1427994 -0.1114082

vn 0 0 1
vn -1 0 0
vn 0 0 -1
vn 1 0 0
vn 0 1 0
vn 0 -1 0

usemtl box_2d
f 3/3/1 4/4/1 2/2/1 1/1/1
f 4/7/2 6/8/2 5/6/2 2/5/2
f 6/3/3 8/4/3 7/2/3 5/1/3
f 8/7/4 3/8/4 1/6/4 7/5/4
f 8/11/5 6/12/5 4/10/5 3/9/5
f 1/10/6 2/9/6 5/11/6 7/12/6

