# Blender v3.1.2 OBJ File: ''
# www.blender.org
mtllib FivePlatform.mtl
o Cylinder.001
v -0.000000 -0.627439 -6.856165
v -0.000000 0.627439 -6.856165
v 6.520601 -0.627439 -2.118671
v 6.520601 0.627439 -2.118671
v 4.029952 -0.627439 5.546754
v 4.029952 0.627439 5.546754
v -4.029953 -0.627439 5.546754
v -4.029953 0.627439 5.546754
v -6.520600 -0.627439 -2.118673
v -6.520600 0.627439 -2.118672
v 0.000000 -0.627439 -8.714767
v 8.288237 -0.627439 -2.693011
v 8.288237 0.627439 -2.693011
v 0.000000 0.627439 -8.714767
v 5.122412 -0.627439 7.050396
v 5.122412 0.627439 7.050396
v -5.122413 -0.627439 7.050395
v -5.122413 0.627439 7.050395
v -8.288237 -0.627439 -2.693012
v -8.288237 0.627439 -2.693012
v 1.528962 -0.510666 -3.069144
v 1.528962 0.510666 -3.069144
v 3.418831 -0.589295 0.421302
v 3.418831 0.589295 0.421302
v 3.013527 -0.589295 1.668698
v 3.013527 0.589295 1.668698
v -3.036937 -0.527577 1.596653
v -3.036937 0.527577 1.596653
v -2.437284 -0.567365 -2.409209
v -2.437284 0.567365 -2.409209
v 2.446455 0.510666 -2.402547
v 2.446455 -0.510666 -2.402547
v 0.735873 -0.599811 3.381691
v 0.735873 0.599811 3.381691
v -1.538132 -0.567365 -3.062482
v 1.003858 -0.810000 -0.326173
v 3.121303 0.810000 -1.014173
v -1.538132 0.567365 -3.062482
v -0.000000 -0.810000 -1.055519
v -0.000000 0.810000 -3.281932
v -3.395422 0.527577 0.493346
v -3.395422 -0.527577 0.493346
v -0.735873 0.599811 3.381691
v -0.735873 -0.599811 3.381691
v -1.003858 -0.810000 -0.326173
v -3.121303 0.810000 -1.014173
v 1.929071 0.810000 2.655139
v 0.620418 -0.810000 0.853933
v -0.620419 -0.810000 0.853932
v -1.929072 0.810000 2.655139
v 9.859498 0.589295 2.514002
v 9.859498 -0.589295 2.514002
v 9.454196 -0.589295 3.761398
v 9.454196 0.589295 3.761398
v 5.509512 -0.510666 -8.547903
v 6.427005 -0.510666 -7.881307
v 6.427005 0.510666 -7.881307
v 5.509512 0.510666 -8.547903
v -5.518684 -0.567365 -8.541240
v -5.518684 0.567365 -8.541240
v -6.417836 0.567365 -7.887967
v -6.417836 -0.567365 -7.887967
v -9.477605 0.527577 3.689351
v -9.477605 -0.527577 3.689351
v -9.836090 -0.527577 2.586044
v -9.836090 0.527577 2.586044
v 0.735873 0.599811 10.153810
v 0.735873 -0.599811 10.153810
v -0.735873 -0.599811 10.153810
v -0.735873 0.599811 10.153810
v 0.000000 -0.810000 -4.180000
v 3.975416 -0.810000 -1.291691
v 2.456942 -0.810000 3.381691
v -2.456943 -0.810000 3.381691
v -3.975416 -0.810000 -1.291692
v -0.000000 -10.077459 -1.055519
v 1.003858 -10.077459 -0.326173
v 0.620418 -10.077459 0.853933
v -0.620419 -10.077459 0.853932
v -1.003858 -10.077459 -0.326173
v -0.000000 -23.593973 -0.000000
v 3.975416 0.810000 -1.291691
v 0.000000 0.810000 -4.180000
v 2.456942 0.810000 3.381691
v -2.456943 0.810000 3.381691
v -3.975416 0.810000 -1.291692
v 2.404496 0.092155 -0.781268
v -0.000000 0.092155 -2.528237
v 1.486060 0.092155 2.045387
v -1.486060 0.092155 2.045386
v -2.404496 0.092155 -0.781268
v 3.121303 0.092155 -1.014173
v -0.000000 0.092155 -3.281932
v 1.929071 0.092155 2.655139
v -1.929072 0.092155 2.655139
v -3.121303 0.092155 -1.014173
v 2.404496 1.234711 -0.781268
v -0.000000 1.234711 -2.528237
v 1.486060 1.234711 2.045387
v -1.486060 1.234711 2.045386
v -2.404496 1.234711 -0.781268
vt 1.000000 0.500000
vt 1.000000 1.000000
vt 0.800000 1.000000
vt 0.800000 0.500000
vt 0.600000 1.000000
vt 0.600000 0.500000
vt 0.400000 1.000000
vt 0.400000 0.500000
vt 0.070426 0.308347
vt 0.139017 0.097245
vt 0.639017 0.097245
vt 0.570426 0.308347
vt 0.200000 1.000000
vt 0.200000 0.500000
vt 0.000000 1.000000
vt 0.000000 0.500000
vt 0.250000 0.438815
vt 0.750000 0.438815
vt 0.929574 0.308347
vt 0.750000 0.490000
vt 0.978254 0.324164
vt 0.429574 0.308347
vt 0.478254 0.324164
vt 0.250000 0.490000
vt 0.860983 0.097245
vt 0.891068 0.055836
vt 0.360983 0.097245
vt 0.391068 0.055836
vt 0.608932 0.055836
vt 0.108932 0.055836
vt 0.521746 0.324164
vt 0.021746 0.324164
vt 0.613775 0.604458
vt 0.786225 0.604458
vt 0.786225 0.604458
vt 0.613775 0.604458
vt 0.812183 0.592387
vt 0.987817 0.592387
vt 0.987817 0.592387
vt 0.812183 0.592387
vt 0.786225 0.895542
vt 0.786225 0.895542
vt 0.429214 0.308230
vt 0.250000 0.438436
vt 0.250000 0.438436
vt 0.429214 0.308230
vt 0.408555 0.935127
vt 0.408555 0.564873
vt 0.408555 0.564873
vt 0.408555 0.935127
vt 0.211495 0.912832
vt 0.211495 0.587168
vt 0.211495 0.587168
vt 0.211495 0.912832
vt 0.655378 0.119764
vt 0.596898 0.299746
vt 0.596898 0.299746
vt 0.655378 0.119764
vt 0.800000 0.500000
vt 0.800000 1.000000
vt 0.600000 0.500000
vt 0.613775 0.895542
vt 0.600000 1.000000
vt 1.000000 0.500000
vt 0.812183 0.907613
vt 0.987817 0.907613
vt 1.000000 1.000000
vt 0.013026 0.598780
vt 0.013026 0.901220
vt 0.000000 1.000000
vt 0.000000 0.500000
vt 0.186974 0.901220
vt 0.186974 0.598780
vt 0.200000 0.500000
vt 0.200000 1.000000
vt 0.388505 0.912832
vt 0.388505 0.587168
vt 0.400000 0.500000
vt 0.400000 1.000000
vt 0.591445 0.935127
vt 0.591445 0.564873
vt 0.987817 0.907613
vt 0.812183 0.907613
vt 0.613775 0.895542
vt 0.591445 0.564873
vt 0.591445 0.935127
vt 0.388505 0.587168
vt 0.388505 0.912832
vt 0.186974 0.598780
vt 0.186974 0.901220
vt 0.013026 0.901220
vt 0.013026 0.598780
vt 0.903102 0.299746
vt 0.750000 0.410981
vt 0.750000 0.490000
vt 0.978254 0.324164
vt 0.844622 0.119764
vt 0.891068 0.055836
vt 0.608932 0.055836
vt 0.521746 0.324164
vt 0.750000 0.410981
vt 0.596898 0.299746
vt 0.844622 0.119764
vt 0.903102 0.299746
vt 0.844622 0.119764
vt 0.750000 0.410981
vt 0.655378 0.119764
vt 0.903102 0.299746
vt 0.478254 0.324164
vt 0.250000 0.490000
vt 0.360760 0.097552
vt 0.391068 0.055836
vt 0.139240 0.097552
vt 0.108932 0.055836
vt 0.070786 0.308230
vt 0.021746 0.324164
vt 0.250000 0.395162
vt 0.111943 0.294858
vt 0.111943 0.294858
vt 0.250000 0.395162
vt 0.139240 0.097552
vt 0.070786 0.308230
vt 0.360760 0.097552
vt 0.388057 0.294858
vt 0.335324 0.132562
vt 0.164676 0.132562
vt 0.388057 0.294858
vt 0.164676 0.132562
vt 0.335324 0.132562
vn 0.5878 0.0000 -0.8090
vn 0.9511 0.0000 0.3090
vn -0.0000 0.0000 1.0000
vn 0.9511 0.0000 -0.3090
vn -0.9511 0.0000 0.3090
vn -0.5878 0.0000 -0.8090
vn 0.5878 -0.0000 0.8090
vn 0.0000 -1.0000 0.0000
vn 0.0000 1.0000 0.0000
vn 0.0000 0.0000 -1.0000
vn -0.9511 0.0000 -0.3090
vn -0.5878 0.0000 0.8090
vn 0.3090 0.0000 -0.9511
vn -1.0000 0.0000 0.0000
vn -0.3090 0.0000 -0.9511
vn 0.8090 0.0000 -0.5878
vn 0.3090 0.0000 0.9511
vn -0.8090 0.0000 0.5878
vn 1.0000 0.0000 0.0000
vn -0.8090 0.0000 -0.5878
vn -0.3090 0.0000 0.9511
vn 0.8090 0.0000 0.5878
vn -0.5866 -0.0631 -0.8074
vn -0.0000 -0.0631 0.9980
vn 0.5866 -0.0631 -0.8074
vn -0.9492 -0.0631 0.3084
vn 0.9492 -0.0631 0.3084
usemtl None
s off
f 11/1/1 14/2/1 13/3/1 12/4/1
f 12/4/2 13/3/2 16/5/2 15/6/2
f 15/6/3 16/5/3 18/7/3 17/8/3
f 10/9/4 8/10/4 7/11/4 9/12/4
f 17/8/5 18/7/5 20/13/5 19/14/5
f 19/14/6 20/13/6 14/15/6 11/16/6
f 2/17/7 10/9/7 9/12/7 1/18/7
f 3/19/8 1/18/8 11/20/8 12/21/8
f 2/17/9 4/22/9 13/23/9 14/24/9
f 5/25/8 3/19/8 12/21/8 15/26/8
f 4/22/9 6/27/9 16/28/9 13/23/9
f 7/11/8 5/25/8 15/26/8 17/29/8
f 6/27/9 8/10/9 18/30/9 16/28/9
f 9/12/8 7/11/8 17/29/8 19/31/8
f 8/10/9 10/9/9 20/32/9 18/30/9
f 1/18/8 9/12/8 19/31/8 11/20/8
f 10/9/9 2/17/9 14/24/9 20/32/9
f 8/10/10 6/27/10 5/25/10 7/11/10
f 6/27/11 4/22/11 3/19/11 5/25/11
f 4/22/12 2/17/12 1/18/12 3/19/12
f 25/33/8 23/34/8 52/35/8 53/36/8
f 32/37/8 21/38/8 55/39/8 56/40/8
f 23/34/13 24/41/13 51/42/13 52/35/13
f 37/43/12 40/44/12 93/45/12 92/46/12
f 43/47/14 44/48/14 69/49/14 70/50/14
f 41/51/15 42/52/15 65/53/15 66/54/15
f 49/55/5 45/56/5 80/57/5 79/58/5
f 24/41/2 23/34/2 72/59/2 82/60/2
f 23/34/2 25/33/2 73/61/2 72/59/2
f 26/62/2 24/41/2 82/60/2 84/63/2
f 25/33/2 26/62/2 84/63/2 73/61/2
f 21/38/1 32/37/1 72/59/1 71/64/1
f 31/65/1 22/66/1 83/67/1 82/60/1
f 22/66/1 21/38/1 71/64/1 83/67/1
f 32/37/1 31/65/1 82/60/1 72/59/1
f 35/68/6 38/69/6 83/70/6 71/71/6
f 30/72/6 29/73/6 75/74/6 86/75/6
f 29/73/6 35/68/6 71/71/6 75/74/6
f 38/69/6 30/72/6 86/75/6 83/70/6
f 28/76/5 27/77/5 74/78/5 85/79/5
f 27/77/5 42/52/5 75/74/5 74/78/5
f 41/51/5 28/76/5 85/79/5 86/75/5
f 42/52/5 41/51/5 86/75/5 75/74/5
f 34/80/3 33/81/3 73/61/3 84/63/3
f 33/81/3 44/48/3 74/78/3 73/61/3
f 43/47/3 34/80/3 84/63/3 85/79/3
f 44/48/3 43/47/3 85/79/3 74/78/3
f 55/39/1 58/82/1 57/83/1 56/40/1
f 52/35/2 51/42/2 54/84/2 53/36/2
f 68/85/3 67/86/3 70/50/3 69/49/3
f 64/87/5 63/88/5 66/54/5 65/53/5
f 62/89/6 61/90/6 60/91/6 59/92/6
f 38/69/16 35/68/16 59/92/16 60/91/16
f 22/66/9 31/65/9 57/83/9 58/82/9
f 27/77/17 28/76/17 63/88/17 64/87/17
f 24/41/9 26/62/9 54/84/9 51/42/9
f 29/73/18 30/72/18 61/90/18 62/89/18
f 33/81/19 34/80/19 67/86/19 68/85/19
f 21/38/20 22/66/20 58/82/20 55/39/20
f 42/52/8 27/77/8 64/87/8 65/53/8
f 26/62/21 25/33/21 53/36/21 54/84/21
f 35/68/8 29/73/8 62/89/8 59/92/8
f 44/48/8 33/81/8 68/85/8 69/49/8
f 31/65/22 32/37/22 56/40/22 57/83/22
f 28/76/9 41/51/9 66/54/9 63/88/9
f 30/72/9 38/69/9 60/91/9 61/90/9
f 34/80/9 43/47/9 70/50/9 67/86/9
f 36/93/8 39/94/8 71/95/8 72/96/8
f 48/97/8 36/93/8 72/96/8 73/98/8
f 49/55/8 48/97/8 73/98/8 74/99/8
f 45/56/8 49/55/8 74/99/8 75/100/8
f 39/94/8 45/56/8 75/100/8 71/95/8
f 80/57/23 76/101/23 81/102/23
f 36/93/2 48/97/2 78/103/2 77/104/2
f 45/56/6 39/94/6 76/101/6 80/57/6
f 48/97/3 49/55/3 79/58/3 78/103/3
f 39/94/1 36/93/1 77/104/1 76/101/1
f 78/103/24 79/58/24 81/105/24
f 76/101/25 77/104/25 81/106/25
f 79/58/26 80/57/26 81/107/26
f 77/104/27 78/103/27 81/108/27
f 40/44/9 37/43/9 82/109/9 83/110/9
f 37/43/9 47/111/9 84/112/9 82/109/9
f 47/111/9 50/113/9 85/114/9 84/112/9
f 50/113/9 46/115/9 86/116/9 85/114/9
f 46/115/9 40/44/9 83/110/9 86/116/9
f 88/117/6 91/118/6 101/119/6 98/120/6
f 46/115/4 50/113/4 95/121/4 96/122/4
f 47/111/11 37/43/11 92/46/11 94/123/11
f 40/44/7 46/115/7 96/122/7 93/45/7
f 50/113/10 47/111/10 94/123/10 95/121/10
f 88/117/9 87/124/9 92/46/9 93/45/9
f 87/124/9 89/125/9 94/123/9 92/46/9
f 89/125/9 90/126/9 95/121/9 94/123/9
f 90/126/9 91/118/9 96/122/9 95/121/9
f 91/118/9 88/117/9 93/45/9 96/122/9
f 97/127/9 98/120/9 101/119/9 100/128/9 99/129/9
f 90/126/3 89/125/3 99/129/3 100/128/3
f 87/124/1 88/117/1 98/120/1 97/127/1
f 91/118/5 90/126/5 100/128/5 101/119/5
f 89/125/2 87/124/2 97/127/2 99/129/2
