# Blender v3.1.2 OBJ File: ''
# www.blender.org
mtllib form.mtl
o Cube
v 1.000000 1.000000 -1.000000
v 1.000000 -1.000000 -1.000000
v 1.000000 1.000000 1.000000
v 1.000000 -1.000000 1.000000
v -1.000000 1.000000 -1.000000
v -1.000000 -1.000000 -1.000000
v -1.000000 1.000000 1.000000
v -1.000000 -1.000000 1.000000
v 0.817903 -0.817903 1.000000
v -0.817903 0.817903 1.000000
v 0.817903 0.817903 1.000000
v -0.817903 -0.817903 1.000000
v -0.817903 -0.817903 -1.000000
v 0.817903 0.817903 -1.000000
v -0.817903 0.817903 -1.000000
v 0.817903 -0.817903 -1.000000
vt 0.625000 0.500000
vt 0.875000 0.500000
vt 0.875000 0.750000
vt 0.625000 0.750000
vt 0.375000 0.750000
vt 0.625000 1.000000
vt 0.375000 1.000000
vt 0.397762 0.977238
vt 0.602238 0.977238
vt 0.602238 0.772762
vt 0.397762 0.772762
vt 0.375000 0.000000
vt 0.625000 0.000000
vt 0.625000 0.250000
vt 0.375000 0.250000
vt 0.125000 0.500000
vt 0.375000 0.500000
vt 0.125000 0.750000
vt 0.602238 0.272762
vt 0.397762 0.477238
vt 0.602238 0.477238
vt 0.397762 0.272762
vt 0.625000 0.736265
vt 0.875000 0.736264
vt 0.875000 0.513736
vt 0.625000 0.513736
vt 0.625000 0.013736
vt 0.375000 0.013736
vt 0.375000 0.236264
vt 0.625000 0.236264
vt 0.125000 0.513736
vt 0.125000 0.736265
vt 0.375000 0.736264
vt 0.375000 0.513736
vn 0.0000 1.0000 0.0000
vn 0.0000 0.0000 1.0000
vn -1.0000 0.0000 0.0000
vn 0.0000 -1.0000 0.0000
vn 1.0000 0.0000 0.0000
vn 0.0000 0.0000 -1.0000
usemtl Material
s off
f 1/1/1 5/2/1 7/3/1 3/4/1
f 4/5/2 3/4/2 7/6/2 8/7/2 12/8/2 10/9/2 11/10/2 9/11/2
f 12/8/2 8/7/2 4/5/2 9/11/2
f 8/12/3 7/13/3 5/14/3 6/15/3
f 6/16/4 2/17/4 4/5/4 8/18/4
f 2/17/5 1/1/5 3/4/5 4/5/5
f 15/19/6 5/14/6 1/1/6 2/17/6 16/20/6 14/21/6
f 16/20/6 2/17/6 6/15/6 5/14/6 15/19/6 13/22/6
f 11/23/4 10/24/4 15/25/4 14/26/4
f 10/27/5 12/28/5 13/29/5 15/30/5
f 13/31/1 12/32/1 9/33/1 16/34/1
f 16/34/3 9/33/3 11/23/3 14/26/3
