# Blender v3.1.2 OBJ File: ''
# www.blender.org
mtllib Fragment.mtl
o Cube
v 0.256642 0.100000 -0.516897
v 0.409863 0.100000 -0.409863
v 0.322027 0.100000 -0.481948
v 0.481948 0.100000 -0.322027
v 0.568496 0.100000 -0.113081
v 0.579634 0.100000 0.000000
v 0.535512 0.100000 -0.221816
v 0.579634 -0.100000 0.000000
v 0.256642 -0.100000 -0.516897
v 0.409863 -0.100000 -0.409863
v 0.322027 -0.100000 -0.481948
v 0.535512 -0.100000 -0.221816
v 0.568496 -0.100000 -0.113081
v 0.481948 -0.100000 -0.322027
v 1.782540 0.100000 0.000000
v 0.789249 0.100000 -1.589606
v 0.990326 0.100000 -1.482128
v 1.260446 0.100000 -1.260446
v 1.748289 0.100000 -0.347756
v 1.646853 0.100000 -0.682149
v 1.482128 0.100000 -0.990326
v 1.782540 -0.100000 0.000000
v 0.789249 -0.100000 -1.589606
v 0.990326 -0.100000 -1.482128
v 1.260446 -0.100000 -1.260446
v 1.748289 -0.100000 -0.347756
v 1.646853 -0.100000 -0.682149
v 1.482128 -0.100000 -0.990326
vt 0.875000 0.551299
vt 0.875000 0.685388
vt 0.863288 0.689757
vt 0.846372 0.698767
vt 0.831344 0.709747
vt 0.818792 0.722273
vt 0.809116 0.735865
vt 0.802546 0.750000
vt 0.652182 0.750000
vt 0.662268 0.706530
vt 0.681613 0.664732
vt 0.714952 0.626209
vt 0.764826 0.592444
vt 0.829652 0.564734
vt 0.625000 0.777182
vt 0.625000 0.927546
vt 0.375000 0.927546
vt 0.375000 0.777182
vt 0.375000 0.198701
vt 0.375000 0.064612
vt 0.625000 0.064612
vt 0.625000 0.198701
vt 0.347818 0.750000
vt 0.197454 0.750000
vt 0.190884 0.735865
vt 0.181208 0.722273
vt 0.168656 0.709747
vt 0.153628 0.698767
vt 0.136712 0.689757
vt 0.125000 0.685388
vt 0.125000 0.551299
vt 0.170348 0.564734
vt 0.235174 0.592444
vt 0.285049 0.626209
vt 0.318387 0.664731
vt 0.337733 0.706530
vt 0.906250 0.706869
vt 0.906250 0.793131
vt 0.926640 0.793131
vt 0.926640 0.706869
vt 0.875000 0.706869
vt 0.875000 0.793131
vt 0.843750 0.793131
vt 0.843750 0.706869
vt 0.812500 0.793131
vt 0.812500 0.706869
vt 0.781250 0.793131
vt 0.781250 0.706869
vt 0.750000 0.793131
vt 0.750000 0.706869
vt 0.926640 0.764025
vt 0.906250 0.764025
vt 0.906250 0.735975
vt 0.926640 0.735975
vt 0.875000 0.764025
vt 0.875000 0.735975
vt 0.843750 0.764025
vt 0.843750 0.735975
vt 0.812500 0.764025
vt 0.812500 0.735975
vt 0.781250 0.764025
vt 0.781250 0.735975
vt 0.750000 0.764025
vt 0.750000 0.735975
vn 0.0000 1.0000 0.0000
vn 0.0000 0.0000 1.0000
vn -0.8957 0.0000 -0.4447
vn 0.0000 -1.0000 -0.0000
vn -0.4714 0.0000 0.8819
vn -0.6344 0.0000 0.7730
vn -0.7730 0.0000 0.6344
vn -0.8819 0.0000 0.4714
vn -0.9569 0.0000 0.2903
vn -0.9952 0.0000 0.0980
vn 0.4714 0.0000 -0.8819
vn 0.6344 0.0000 -0.7730
vn 0.7730 0.0000 -0.6344
vn 0.8819 0.0000 -0.4714
vn 0.9569 0.0000 -0.2903
vn 0.9952 0.0000 -0.0980
usemtl Material
s off
f 16/1/1 1/2/1 3/3/1 2/4/1 4/5/1 7/6/1 5/7/1 6/8/1 15/9/1 19/10/1 20/11/1 21/12/1 18/13/1 17/14/1
f 15/15/2 6/16/2 8/17/2 22/18/2
f 23/19/3 9/20/3 1/21/3 16/22/3
f 22/23/4 8/24/4 13/25/4 12/26/4 14/27/4 10/28/4 11/29/4 9/30/4 23/31/4 24/32/4 25/33/4 28/34/4 27/35/4 26/36/4
f 11/37/5 3/38/5 1/39/5 9/40/5
f 10/41/6 2/42/6 3/38/6 11/37/6
f 4/43/7 2/42/7 10/41/7 14/44/7
f 7/45/8 4/43/8 14/44/8 12/46/8
f 5/47/9 7/45/9 12/46/9 13/48/9
f 6/49/10 5/47/10 13/48/10 8/50/10
f 16/51/11 17/52/11 24/53/11 23/54/11
f 17/52/12 18/55/12 25/56/12 24/53/12
f 25/56/13 18/55/13 21/57/13 28/58/13
f 28/58/14 21/57/14 20/59/14 27/60/14
f 27/60/15 20/59/15 19/61/15 26/62/15
f 26/62/16 19/61/16 15/63/16 22/64/16
