<?xml version="1.0" encoding="UTF-8"?>
<!DOCTYPE svg PUBLIC "-//W3C//DTD SVG 1.1//EN" "http://www.w3.org/Graphics/SVG/1.1/DTD/svg11.dtd">
<svg xmlns="http://www.w3.org/2000/svg" version="1.1" width="230px" height="318px" style="shape-rendering:geometricPrecision; text-rendering:geometricPrecision; image-rendering:optimizeQuality; fill-rule:evenodd; clip-rule:evenodd" xmlns:xlink="http://www.w3.org/1999/xlink">
<g><path style="opacity:1" fill="#642617" d="M 60.5,-0.5 C 96.5,-0.5 132.5,-0.5 168.5,-0.5C 168.5,3.16667 168.5,6.83333 168.5,10.5C 172.833,10.5 177.167,10.5 181.5,10.5C 181.5,14.1667 181.5,17.8333 181.5,21.5C 185.5,21.5 189.5,21.5 193.5,21.5C 193.5,25.1667 193.5,28.8333 193.5,32.5C 197.5,32.5 201.5,32.5 205.5,32.5C 205.5,36.1667 205.5,39.8333 205.5,43.5C 209.5,43.5 213.5,43.5 217.5,43.5C 217.5,54.5 217.5,65.5 217.5,76.5C 221.5,76.5 225.5,76.5 229.5,76.5C 229.5,102.167 229.5,127.833 229.5,153.5C 225.5,153.5 221.5,153.5 217.5,153.5C 217.5,156.833 217.5,160.167 217.5,163.5C 213.5,163.5 209.5,163.5 205.5,163.5C 205.5,160.167 205.5,156.833 205.5,153.5C 201.5,153.5 197.5,153.5 193.5,153.5C 193.5,160.5 193.5,167.5 193.5,174.5C 189.5,174.5 185.5,174.5 181.5,174.5C 181.5,170.833 181.5,167.167 181.5,163.5C 169.167,163.5 156.833,163.5 144.5,163.5C 144.5,167.167 144.5,170.833 144.5,174.5C 152.5,174.5 160.5,174.5 168.5,174.5C 168.5,178.167 168.5,181.833 168.5,185.5C 176.833,185.5 185.167,185.5 193.5,185.5C 193.5,189.167 193.5,192.833 193.5,196.5C 189.5,196.5 185.5,196.5 181.5,196.5C 181.5,200.167 181.5,203.833 181.5,207.5C 185.5,207.5 189.5,207.5 193.5,207.5C 193.5,214.833 193.5,222.167 193.5,229.5C 197.5,229.5 201.5,229.5 205.5,229.5C 205.5,222.167 205.5,214.833 205.5,207.5C 209.5,207.5 213.5,207.5 217.5,207.5C 217.5,225.833 217.5,244.167 217.5,262.5C 209.5,262.5 201.5,262.5 193.5,262.5C 193.5,273.5 193.5,284.5 193.5,295.5C 185.167,295.5 176.833,295.5 168.5,295.5C 168.5,299.167 168.5,302.833 168.5,306.5C 172.833,306.5 177.167,306.5 181.5,306.5C 181.5,310.167 181.5,313.833 181.5,317.5C 161.167,317.5 140.833,317.5 120.5,317.5C 120.5,302.833 120.5,288.167 120.5,273.5C 116.5,273.5 112.5,273.5 108.5,273.5C 108.5,288.167 108.5,302.833 108.5,317.5C 92.5,317.5 76.5,317.5 60.5,317.5C 60.5,313.833 60.5,310.167 60.5,306.5C 64.5,306.5 68.5,306.5 72.5,306.5C 72.5,302.833 72.5,299.167 72.5,295.5C 64.1667,295.5 55.8333,295.5 47.5,295.5C 47.5,284.5 47.5,273.5 47.5,262.5C 39.5,262.5 31.5,262.5 23.5,262.5C 23.5,244.167 23.5,225.833 23.5,207.5C 27.5,207.5 31.5,207.5 35.5,207.5C 35.5,214.833 35.5,222.167 35.5,229.5C 39.5,229.5 43.5,229.5 47.5,229.5C 47.5,222.167 47.5,214.833 47.5,207.5C 51.8333,207.5 56.1667,207.5 60.5,207.5C 60.5,214.833 60.5,222.167 60.5,229.5C 60.5,233.167 60.5,236.833 60.5,240.5C 100.833,240.5 141.167,240.5 181.5,240.5C 181.5,236.833 181.5,233.167 181.5,229.5C 181.5,225.833 181.5,222.167 181.5,218.5C 177.167,218.5 172.833,218.5 168.5,218.5C 168.5,214.833 168.5,211.167 168.5,207.5C 168.5,203.833 168.5,200.167 168.5,196.5C 164.5,196.5 160.5,196.5 156.5,196.5C 156.5,192.833 156.5,189.167 156.5,185.5C 152.5,185.5 148.5,185.5 144.5,185.5C 144.5,189.167 144.5,192.833 144.5,196.5C 128.5,196.5 112.5,196.5 96.5,196.5C 96.5,192.833 96.5,189.167 96.5,185.5C 92.5,185.5 88.5,185.5 84.5,185.5C 84.5,181.833 84.5,178.167 84.5,174.5C 88.5,174.5 92.5,174.5 96.5,174.5C 96.5,170.833 96.5,167.167 96.5,163.5C 76.1667,163.5 55.8333,163.5 35.5,163.5C 35.5,160.167 35.5,156.833 35.5,153.5C 31.5,153.5 27.5,153.5 23.5,153.5C 23.5,156.833 23.5,160.167 23.5,163.5C 19.5,163.5 15.5,163.5 11.5,163.5C 11.5,160.167 11.5,156.833 11.5,153.5C 7.5,153.5 3.5,153.5 -0.5,153.5C -0.5,131.5 -0.5,109.5 -0.5,87.5C 3.5,87.5 7.5,87.5 11.5,87.5C 11.5,76.5 11.5,65.5 11.5,54.5C 15.5,54.5 19.5,54.5 23.5,54.5C 23.5,47.1667 23.5,39.8333 23.5,32.5C 27.5,32.5 31.5,32.5 35.5,32.5C 35.5,28.8333 35.5,25.1667 35.5,21.5C 39.5,21.5 43.5,21.5 47.5,21.5C 47.5,17.8333 47.5,14.1667 47.5,10.5C 51.8333,10.5 56.1667,10.5 60.5,10.5C 60.5,6.83333 60.5,3.16667 60.5,-0.5 Z"/></g>
<g><path style="opacity:1" fill="#fee8ab" d="M 168.5,131.5 C 168.5,127.833 168.5,124.167 168.5,120.5C 160.5,120.5 152.5,120.5 144.5,120.5C 144.5,127.833 144.5,135.167 144.5,142.5C 144.5,146.167 144.5,149.833 144.5,153.5C 140.5,153.5 136.5,153.5 132.5,153.5C 132.5,160.5 132.5,167.5 132.5,174.5C 124.5,174.5 116.5,174.5 108.5,174.5C 108.5,167.5 108.5,160.5 108.5,153.5C 96.5,153.5 84.5,153.5 72.5,153.5C 72.5,149.833 72.5,146.167 72.5,142.5C 72.5,135.167 72.5,127.833 72.5,120.5C 64.1667,120.5 55.8333,120.5 47.5,120.5C 47.5,124.167 47.5,127.833 47.5,131.5C 43.5,131.5 39.5,131.5 35.5,131.5C 35.5,116.833 35.5,102.167 35.5,87.5C 39.5,87.5 43.5,87.5 47.5,87.5C 47.5,80.1667 47.5,72.8333 47.5,65.5C 51.8333,65.5 56.1667,65.5 60.5,65.5C 60.5,61.8333 60.5,58.1667 60.5,54.5C 68.5,54.5 76.5,54.5 84.5,54.5C 84.5,58.1667 84.5,61.8333 84.5,65.5C 88.5,65.5 92.5,65.5 96.5,65.5C 96.5,69.1667 96.5,72.8333 96.5,76.5C 100.5,76.5 104.5,76.5 108.5,76.5C 108.5,72.8333 108.5,69.1667 108.5,65.5C 124.5,65.5 140.5,65.5 156.5,65.5C 156.5,69.1667 156.5,72.8333 156.5,76.5C 160.5,76.5 164.5,76.5 168.5,76.5C 168.5,87.5 168.5,98.5 168.5,109.5C 172.833,109.5 177.167,109.5 181.5,109.5C 181.5,105.833 181.5,102.167 181.5,98.5C 185.5,98.5 189.5,98.5 193.5,98.5C 193.5,94.8333 193.5,91.1667 193.5,87.5C 197.5,87.5 201.5,87.5 205.5,87.5C 205.5,94.8333 205.5,102.167 205.5,109.5C 201.5,109.5 197.5,109.5 193.5,109.5C 193.5,113.167 193.5,116.833 193.5,120.5C 189.5,120.5 185.5,120.5 181.5,120.5C 181.5,124.167 181.5,127.833 181.5,131.5C 177.167,131.5 172.833,131.5 168.5,131.5 Z"/></g>
<g><path style="opacity:1" fill="#3f1a06" d="M 72.5,76.5 C 76.5,76.5 80.5,76.5 84.5,76.5C 84.5,87.5 84.5,98.5 84.5,109.5C 80.5,109.5 76.5,109.5 72.5,109.5C 72.5,98.5 72.5,87.5 72.5,76.5 Z"/></g>
<g><path style="opacity:1" fill="#3f1a06" d="M 132.5,76.5 C 136.5,76.5 140.5,76.5 144.5,76.5C 144.5,87.5 144.5,98.5 144.5,109.5C 140.5,109.5 136.5,109.5 132.5,109.5C 132.5,98.5 132.5,87.5 132.5,76.5 Z"/></g>
<g><path style="opacity:1" fill="#feb4ed" d="M 72.5,142.5 C 64.1667,142.5 55.8333,142.5 47.5,142.5C 47.5,138.833 47.5,135.167 47.5,131.5C 47.5,127.833 47.5,124.167 47.5,120.5C 55.8333,120.5 64.1667,120.5 72.5,120.5C 72.5,127.833 72.5,135.167 72.5,142.5 Z"/></g>
<g><path style="opacity:1" fill="#3f1a06" d="M 96.5,131.5 C 92.5,131.5 88.5,131.5 84.5,131.5C 84.5,127.833 84.5,124.167 84.5,120.5C 88.5,120.5 92.5,120.5 96.5,120.5C 96.5,124.167 96.5,127.833 96.5,131.5 Z"/></g>
<g><path style="opacity:1" fill="#3f1a06" d="M 120.5,131.5 C 120.5,127.833 120.5,124.167 120.5,120.5C 124.5,120.5 128.5,120.5 132.5,120.5C 132.5,124.167 132.5,127.833 132.5,131.5C 128.5,131.5 124.5,131.5 120.5,131.5 Z"/></g>
<g><path style="opacity:1" fill="#feb4ed" d="M 168.5,131.5 C 168.5,135.167 168.5,138.833 168.5,142.5C 160.5,142.5 152.5,142.5 144.5,142.5C 144.5,135.167 144.5,127.833 144.5,120.5C 152.5,120.5 160.5,120.5 168.5,120.5C 168.5,124.167 168.5,127.833 168.5,131.5 Z"/></g>
<g><path style="opacity:1" fill="#3f1a06" d="M 96.5,131.5 C 104.5,131.5 112.5,131.5 120.5,131.5C 120.5,135.167 120.5,138.833 120.5,142.5C 112.5,142.5 104.5,142.5 96.5,142.5C 96.5,138.833 96.5,135.167 96.5,131.5 Z"/></g>
<g><path style="opacity:1" fill="#642617" d="M 84.5,185.5 C 84.5,189.167 84.5,192.833 84.5,196.5C 80.5,196.5 76.5,196.5 72.5,196.5C 72.5,200.167 72.5,203.833 72.5,207.5C 68.5,207.5 64.5,207.5 60.5,207.5C 60.5,203.833 60.5,200.167 60.5,196.5C 56.1667,196.5 51.8333,196.5 47.5,196.5C 47.5,192.833 47.5,189.167 47.5,185.5C 59.8333,185.5 72.1667,185.5 84.5,185.5 Z"/></g>
<g><path style="opacity:1" fill="#31e03d" d="M 84.5,185.5 C 88.5,185.5 92.5,185.5 96.5,185.5C 96.5,189.167 96.5,192.833 96.5,196.5C 112.5,196.5 128.5,196.5 144.5,196.5C 144.5,192.833 144.5,189.167 144.5,185.5C 148.5,185.5 152.5,185.5 156.5,185.5C 156.5,189.167 156.5,192.833 156.5,196.5C 160.5,196.5 164.5,196.5 168.5,196.5C 168.5,200.167 168.5,203.833 168.5,207.5C 136.5,207.5 104.5,207.5 72.5,207.5C 72.5,203.833 72.5,200.167 72.5,196.5C 76.5,196.5 80.5,196.5 84.5,196.5C 84.5,192.833 84.5,189.167 84.5,185.5 Z"/></g>
<g><path style="opacity:1" fill="#642617" d="M 47.5,196.5 C 47.5,200.167 47.5,203.833 47.5,207.5C 43.5,207.5 39.5,207.5 35.5,207.5C 35.5,203.833 35.5,200.167 35.5,196.5C 39.5,196.5 43.5,196.5 47.5,196.5 Z"/></g>
<g><path style="opacity:1" fill="#31e03d" d="M 47.5,196.5 C 51.8333,196.5 56.1667,196.5 60.5,196.5C 60.5,200.167 60.5,203.833 60.5,207.5C 56.1667,207.5 51.8333,207.5 47.5,207.5C 47.5,203.833 47.5,200.167 47.5,196.5 Z"/></g>
<g><path style="opacity:1" fill="#31e03d" d="M 193.5,196.5 C 193.5,200.167 193.5,203.833 193.5,207.5C 189.5,207.5 185.5,207.5 181.5,207.5C 181.5,203.833 181.5,200.167 181.5,196.5C 185.5,196.5 189.5,196.5 193.5,196.5 Z"/></g>
<g><path style="opacity:1" fill="#642617" d="M 193.5,196.5 C 197.5,196.5 201.5,196.5 205.5,196.5C 205.5,200.167 205.5,203.833 205.5,207.5C 201.5,207.5 197.5,207.5 193.5,207.5C 193.5,203.833 193.5,200.167 193.5,196.5 Z"/></g>
<g><path style="opacity:1" fill="#31e03d" d="M 35.5,207.5 C 39.5,207.5 43.5,207.5 47.5,207.5C 47.5,214.833 47.5,222.167 47.5,229.5C 43.5,229.5 39.5,229.5 35.5,229.5C 35.5,222.167 35.5,214.833 35.5,207.5 Z"/></g>
<g><path style="opacity:1" fill="#fee7ac" d="M 60.5,207.5 C 64.5,207.5 68.5,207.5 72.5,207.5C 104.5,207.5 136.5,207.5 168.5,207.5C 168.5,211.167 168.5,214.833 168.5,218.5C 172.833,218.5 177.167,218.5 181.5,218.5C 181.5,222.167 181.5,225.833 181.5,229.5C 141.167,229.5 100.833,229.5 60.5,229.5C 60.5,222.167 60.5,214.833 60.5,207.5 Z"/></g>
<g><path style="opacity:1" fill="#31e03d" d="M 193.5,207.5 C 197.5,207.5 201.5,207.5 205.5,207.5C 205.5,214.833 205.5,222.167 205.5,229.5C 201.5,229.5 197.5,229.5 193.5,229.5C 193.5,222.167 193.5,214.833 193.5,207.5 Z"/></g>
<g><path style="opacity:1" fill="#31e03d" d="M 60.5,229.5 C 100.833,229.5 141.167,229.5 181.5,229.5C 181.5,233.167 181.5,236.833 181.5,240.5C 141.167,240.5 100.833,240.5 60.5,240.5C 60.5,236.833 60.5,233.167 60.5,229.5 Z"/></g>
<g><path style="opacity:1" fill="#fee8ab" d="M 35.5,240.5 C 39.5,240.5 43.5,240.5 47.5,240.5C 47.5,244.167 47.5,247.833 47.5,251.5C 43.5,251.5 39.5,251.5 35.5,251.5C 35.5,247.833 35.5,244.167 35.5,240.5 Z"/></g>
<g><path style="opacity:1" fill="#fee8ab" d="M 193.5,240.5 C 197.5,240.5 201.5,240.5 205.5,240.5C 205.5,244.167 205.5,247.833 205.5,251.5C 201.5,251.5 197.5,251.5 193.5,251.5C 193.5,247.833 193.5,244.167 193.5,240.5 Z"/></g>
</svg>
