# Blender v3.1.2 OBJ File: ''
# www.blender.org
mtllib мило-котик.mtl
o Cube_Cube.006
v -1.000000 -1.000000 1.000000
v -1.000000 1.000000 1.000000
v -1.000000 -1.000000 -1.000000
v -1.000000 1.000000 -1.000000
v 1.000000 -1.000000 1.000000
v 1.000000 1.000000 1.000000
v 1.000000 -1.000000 -1.000000
v 1.000000 1.000000 -1.000000
v -0.034727 2.009169 1.000000
v -0.034727 2.009169 -1.000000
v 0.034727 2.009169 1.000000
v 0.034727 2.009169 -1.000000
v -0.034727 2.205396 1.000000
v -0.034727 2.205396 -1.000000
v 0.034727 2.205396 1.000000
v 0.034727 2.205396 -1.000000
v -0.902729 1.000000 -1.000000
v 0.917795 1.000000 -1.000000
v 0.917794 1.000000 1.000000
v -0.902729 1.000000 1.000000
v 0.000773 1.978609 -1.000000
v 0.000774 1.978609 1.000000
v -0.008239 1.976356 -0.076988
v -0.008239 1.976356 0.076988
v -0.726743 1.285683 -0.863836
v -0.942950 1.059645 -0.871303
v -0.831970 1.175672 -0.696545
v 0.936835 1.066038 -0.925192
v 0.711106 1.302031 -0.926576
v 0.808882 1.199809 -0.762666
v 0.941646 1.363054 -0.888685
v -0.963354 1.340358 -0.822959
v -0.187299 1.000000 -1.000000
v 0.193479 1.000000 -1.000000
v -0.009302 0.583824 -1.000000
v 0.015482 1.394949 -0.626630
v 0.570043 0.486561 -1.000000
v -0.587161 0.489629 -1.000000
v -0.589865 -0.691270 -1.000000
v 0.591673 -0.694337 -1.000000
v 0.302386 -0.693586 -1.000000
v 0.288868 0.487307 -1.000000
v -0.289737 0.488984 -1.000000
v -0.287028 -0.691944 -1.000000
v -0.184876 0.198124 -1.000000
v 0.575437 0.192103 -1.000000
v 0.292221 0.194346 -1.000000
v -0.286420 0.199357 -1.000000
v -0.587821 0.201315 -1.000000
v 0.138276 -0.393258 -1.000000
v 0.298962 -0.394510 -1.000000
v -0.293195 -0.389579 -1.000000
v -0.589170 -0.387589 -1.000000
v 0.586223 -0.396749 -1.000000
v 0.026858 -0.392308 -1.000000
v -0.032644 -0.391801 -1.000000
v -0.046216 -0.692615 -1.000000
v 0.021407 -0.692803 -1.000000
v 0.714948 -0.786617 -1.000000
v 0.763316 -0.822824 -1.000000
v -0.727479 -0.794859 -1.000000
v -0.778267 -0.833090 -1.000000
v 0.873079 -0.774195 -1.000000
v 0.919043 -0.425411 -1.000000
v 0.829819 -0.420004 -1.000000
v 0.773040 -0.763380 -1.000000
v -0.778911 -0.776899 -1.000000
v -0.857320 -0.468671 -1.000000
v -0.943840 -0.460560 -1.000000
v -0.849209 -0.803936 -1.000000
v 0.448591 -0.893160 -1.000000
v 0.086288 -0.785010 -1.000000
v -0.132715 -0.782306 -1.000000
v -0.438239 -0.895864 -1.000000
v -0.454461 -0.966161 -1.000000
v -0.097567 -0.852604 -1.000000
v -0.024565 -0.766084 -1.000000
v 0.053843 -0.841789 -1.000000
v 0.445887 -0.963457 -1.000000
v -0.880713 1.124711 -0.773301
v -0.957630 1.261605 -0.836522
v -0.034727 2.009169 0.689736
v -0.034727 2.009169 0.340171
v -0.034727 2.009169 -0.043617
v -0.034727 2.009169 -0.443353
v -0.034727 2.009169 -0.899341
v -1.000000 -1.000000 -0.451432
v -1.000000 -1.000000 -0.124468
v -1.000000 -1.000000 0.207945
v -1.000000 -1.000000 0.503615
v -1.000000 -1.000000 0.899271
v -0.851305 1.155457 -0.501317
v -0.896878 1.107812 -0.041188
v -0.938073 1.064744 0.374741
v -0.977486 1.023538 0.772685
v -0.732132 1.280049 1.000000
v -0.973661 1.027537 -0.940583
v -1.000000 -0.346755 1.000000
v -1.000000 0.505521 1.000000
v -0.034727 2.205396 0.606235
v -0.034727 2.205396 0.254063
v -0.034727 2.205396 -0.130540
v -0.034727 2.205396 -0.530905
v -0.034727 2.205396 -0.990828
v -1.000000 1.000000 0.783013
v -1.000000 1.000000 0.403420
v -1.000000 1.000000 0.006915
v -1.000000 1.000000 -0.428839
v -1.000000 1.000000 -0.715706
v -1.000000 1.000000 -0.929500
v -1.000000 0.466042 -1.000000
v -0.784688 1.299073 -0.853825
v -0.832469 1.175149 -1.000000
v -0.429306 1.596647 -1.000000
v -0.709538 1.303671 -0.853512
v -1.000000 -1.000000 -0.712164
v -1.000000 -0.288661 -1.000000
vt 0.375000 0.250000
vt 0.400602 0.277717
vt 0.380193 0.317968
vt 0.397634 0.361282
vt 0.410926 0.369722
vt 0.399303 0.380620
vt 0.380618 0.430689
vt 0.402253 0.470414
vt 0.375000 0.500000
vt 0.125000 0.500000
vt 0.375000 0.750000
vt 0.125000 0.750000
vt 0.125000 0.737409
vt 0.125000 0.687952
vt 0.125000 0.650993
vt 0.125000 0.609442
vt 0.125000 0.568571
vt 0.125000 0.535979
vt 0.625000 0.500000
vt 0.625000 0.489724
vt 0.625000 0.376307
vt 0.625000 0.500000
vt 0.625000 0.250000
vt 0.625000 0.250000
vt 0.625000 0.500000
vt 0.625000 0.262159
vt 0.625000 0.375002
vt 0.625000 0.760276
vt 0.625000 0.873693
vt 0.625000 0.874997
vt 0.625000 0.250000
vt 0.625000 0.250000
vt 0.625000 0.250000
vt 0.625000 1.000000
vt 0.625000 0.750000
vt 0.625000 0.987841
vt 0.625000 0.399185
vt 0.625000 0.377353
vt 0.625000 0.351588
vt 0.625000 0.509351
vt 0.625000 0.509178
vt 0.625000 0.513914
vt 0.405792 0.484159
vt 0.447847 0.489910
vt 0.449690 0.478780
vt 0.409366 0.471650
vt 0.407822 0.464368
vt 0.422017 0.448959
vt 0.454807 0.448278
vt 0.519690 0.446930
vt 0.552135 0.446255
vt 0.552217 0.411108
vt 0.552402 0.332024
vt 0.552473 0.301605
vt 0.520705 0.301522
vt 0.455816 0.301354
vt 0.422355 0.301267
vt 0.406466 0.284065
vt 0.407532 0.277662
vt 0.443435 0.267916
vt 0.443181 0.257059
vt 0.402625 0.268878
vt 0.463917 0.250000
vt 0.558255 0.250000
vt 0.572978 0.373837
vt 0.519937 0.411528
vt 0.520353 0.351890
vt 0.422280 0.333714
vt 0.455597 0.333281
vt 0.455352 0.368911
vt 0.422206 0.366025
vt 0.520489 0.332438
vt 0.455053 0.412370
vt 0.455191 0.392285
vt 0.422099 0.412798
vt 0.455296 0.377048
vt 0.422186 0.375098
vt 0.391427 0.430984
vt 0.408028 0.384429
vt 0.408425 0.355782
vt 0.390979 0.319461
vt 0.625000 0.049221
vt 0.625000 0.038783
vt 0.625000 0.000000
vt 0.625000 0.000000
vt 0.625000 0.000000
vt 0.625000 0.750000
vt 0.625000 1.000000
vt 0.563190 1.000000
vt 0.456656 1.000000
vt 0.375000 1.000000
vt 0.625000 1.000000
vt 0.625000 0.750000
vt 0.625000 1.000000
vt 0.375000 0.214021
vt 0.375000 0.181429
vt 0.625000 0.242573
vt 0.375000 0.140558
vt 0.625000 0.241187
vt 0.625000 0.212068
vt 0.625000 0.232979
vt 0.625000 0.231728
vt 0.625000 0.227870
vt 0.625000 0.233913
vt 0.625000 0.229565
vt 0.375000 0.099007
vt 0.625000 0.214463
vt 0.625000 0.231689
vt 0.625000 0.221663
vt 0.625000 0.237418
vt 0.625000 0.248854
vt 0.375000 0.062048
vt 0.625000 0.178605
vt 0.625000 0.187665
vt 0.625000 0.529667
vt 0.875000 0.500000
vt 0.875000 0.501146
vt 0.875000 0.558637
vt 0.875000 0.608683
vt 0.875000 0.656758
vt 0.875000 0.700779
vt 0.875000 0.750000
vt 0.375000 0.012591
vt 0.625000 0.124136
vt 0.625000 0.180419
vt 0.625000 0.191363
vt 0.625000 0.130148
vt 0.375000 0.000000
vt 0.456656 0.000000
vt 0.625000 0.074572
vt 0.625000 0.130452
vt 0.625000 0.141318
vt 0.625000 0.078157
vt 0.563190 0.000000
vt 0.625000 0.027123
vt 0.625000 0.082479
vt 0.625000 0.093242
vt 0.625000 0.028414
vt 0.625000 0.000000
vn 0.0000 0.0000 -1.0000
vn 0.0000 -1.0000 0.0000
vn 0.7347 -0.6783 0.0055
vn -0.7297 -0.6837 0.0088
vn 0.0000 0.0000 1.0000
vn -0.7297 -0.6837 -0.0088
vn 0.7347 -0.6783 -0.0055
vn 0.0000 0.6870 -0.7267
vn 0.0000 0.6870 0.7267
vn 0.1303 0.1189 -0.9843
vn -1.0000 0.0000 0.0000
vn -0.7226 0.6912 0.0000
vn 0.2761 0.7141 0.6433
vn -0.1323 0.1589 -0.9784
vn -0.7815 -0.1606 0.6029
vn 1.0000 0.0000 0.0000
vn 0.7226 0.6912 0.0000
vn 0.0000 1.0000 0.0000
vn -0.2941 0.7223 0.6259
vn 0.7435 -0.0934 0.6622
usemtl Material.007
s off
f 3/1/1 62/2/1 75/3/1 76/4/1 77/5/1 78/6/1 79/7/1 60/8/1 7/9/1
f 3/10/2 7/9/2 5/11/2 1/12/2 91/13/2 90/14/2 89/15/2 88/16/2 87/17/2 116/18/2
f 8/19/1 18/20/1 21/21/1 12/22/1
f 12/22/1 10/23/1 14/24/1 16/25/1
f 17/26/3 21/21/3 23/27/3
f 19/28/4 22/29/4 24/30/4
f 10/23/1 21/21/1 17/26/1 4/31/1 113/32/1 114/33/1
f 9/34/5 22/29/5 11/35/5
f 12/22/1 21/21/1 10/23/1
f 18/20/6 23/27/6 21/21/6
f 24/30/7 22/29/7 20/36/7
f 23/27/8 18/20/8 34/37/8 36/38/8 33/39/8 17/26/8
f 20/36/9 19/28/9 24/30/9
f 28/40/10 29/41/10 31/42/10
f 7/9/1 60/8/1 63/43/1 64/44/1 65/45/1 66/46/1 59/47/1 40/48/1 54/49/1 46/50/1 37/51/1 42/52/1 43/53/1 38/54/1 49/55/1 53/56/1 39/57/1 61/58/1 67/59/1 68/60/1 69/61/1 70/62/1 62/2/1 3/1/1 117/63/1 111/64/1 4/31/1 17/26/1 33/39/1 35/65/1 34/37/1 18/20/1 8/19/1
f 42/52/1 47/66/1 45/67/1 43/53/1
f 44/68/1 52/69/1 56/70/1 57/71/1
f 49/55/1 48/72/1 52/69/1 53/56/1
f 45/67/1 48/72/1 43/53/1
f 54/49/1 51/73/1 47/66/1 46/50/1
f 50/74/1 51/73/1 41/75/1
f 55/76/1 50/74/1 41/75/1 58/77/1
f 59/47/1 71/78/1 72/79/1 58/77/1 41/75/1 40/48/1
f 57/71/1 73/80/1 74/81/1 61/58/1 39/57/1 44/68/1
usemtl Material.001
f 34/37/1 35/65/1 33/39/1
f 33/39/8 36/38/8 34/37/8
f 38/54/1 43/53/1 48/72/1 49/55/1
f 41/75/1 51/73/1 54/49/1 40/48/1
f 46/50/1 47/66/1 42/52/1 37/51/1
f 45/67/1 47/66/1 51/73/1 50/74/1
f 53/56/1 52/69/1 44/68/1 39/57/1
f 50/74/1 55/76/1 56/70/1 52/69/1 48/72/1 45/67/1
f 57/71/1 56/70/1 55/76/1
f 58/77/1 57/71/1 55/76/1
f 62/2/1 70/62/1 69/61/1 68/60/1 67/59/1 61/58/1
f 59/47/1 66/46/1 65/45/1 64/44/1 63/43/1 60/8/1
f 60/8/1 79/7/1 78/6/1 77/5/1 76/4/1 75/3/1 62/2/1 61/58/1 74/81/1 73/80/1 57/71/1 58/77/1 72/79/1 71/78/1 59/47/1
f 100/82/11 82/83/11 9/84/11 13/85/11
f 82/83/12 96/86/12 9/84/12
usemtl Material.005
f 5/11/5 6/87/5 19/28/5 20/36/5 2/88/5 99/89/5 98/90/5 1/91/5
f 2/88/5 20/36/5 22/29/5 9/34/5 96/92/5
f 9/34/5 11/35/5 15/93/5 13/94/5
f 11/35/5 22/29/5 19/28/5 6/87/5
f 116/95/11 117/63/11 3/1/11
usemtl Material.024
f 87/96/11 111/64/11 117/63/11 116/95/11
usemtl Material.008
f 4/31/12 97/97/12 113/32/12
f 88/98/11 110/99/11 4/31/11 111/64/11 87/96/11
f 110/99/12 97/97/12 4/31/12
usemtl Material.025
f 27/100/13 25/101/13 112/102/13 32/103/13
f 26/104/14 81/105/14 112/102/14 25/101/14
f 89/106/11 109/107/11 110/99/11 88/98/11
f 112/102/14 81/105/14 32/103/14
f 113/32/12 97/97/12 26/104/12 25/101/12 115/108/12 114/33/12
f 80/109/15 81/105/15 26/104/15
f 109/107/12 80/109/12 26/104/12 97/97/12 110/99/12
usemtl Material.026
f 10/23/11 86/110/11 104/111/11 14/24/11
f 32/103/15 81/105/15 80/109/15 27/100/15
f 90/112/11 108/113/11 109/107/11 89/106/11
f 108/113/12 92/114/12 27/100/12 80/109/12 109/107/12
f 114/33/12 115/108/12 25/101/12 27/100/12 92/114/12 86/110/12 10/23/12
usemtl Material.027
f 7/9/16 8/19/16 6/87/16 5/11/16
f 11/35/16 12/22/16 16/25/16 15/93/16
f 6/87/17 30/115/17 29/41/17 8/19/17 12/22/17 11/35/17
f 16/25/18 14/116/18 104/117/18 103/118/18 102/119/18 101/120/18 100/121/18 13/122/18 15/93/18
f 8/19/17 29/41/17 28/40/17 30/115/17 6/87/17
f 30/115/19 31/42/19 29/41/19
f 31/42/20 30/115/20 28/40/20
f 91/123/11 107/124/11 108/113/11 90/112/11
f 104/111/11 86/110/11 85/125/11 103/126/11
f 86/110/12 92/114/12 93/127/12 85/125/12
f 107/124/12 93/127/12 92/114/12 108/113/12
usemtl Material.028
f 1/128/11 98/129/11 106/130/11 107/124/11 91/123/11
f 103/126/11 85/125/11 84/131/11 102/132/11
f 85/125/12 93/127/12 94/133/12 84/131/12
f 106/130/12 94/133/12 93/127/12 107/124/12
usemtl Material.029
f 106/130/11 98/129/11 99/134/11 105/135/11
f 102/132/11 84/131/11 83/136/11 101/137/11
f 84/131/12 94/133/12 95/138/12 83/136/12
f 105/135/12 95/138/12 94/133/12 106/130/12
usemtl Material.030
f 2/139/12 95/138/12 105/135/12
f 105/135/11 99/134/11 2/139/11
f 101/137/11 83/136/11 82/83/11 100/82/11
f 83/136/12 95/138/12 2/139/12 96/86/12 82/83/12
o Cube.001_Cube.007
v -1.000000 -3.276763 0.581485
v -0.472237 -1.276763 0.554875
v -1.000000 -3.276763 -0.581485
v -0.472237 -1.276763 -0.554875
v 1.000000 -3.276763 0.581485
v 0.472237 -1.276763 0.554875
v 1.000000 -3.276763 -0.581485
v 0.472237 -1.276763 -0.554875
v -2.018449 -1.276763 1.000000
v -2.018449 -1.276763 -1.000000
v 2.018449 -1.276763 -1.000000
v 2.018449 -1.276763 1.000000
v -0.472237 -0.868766 0.554875
v -0.472237 -0.868766 -0.554875
v 0.472237 -0.868766 0.554875
v 0.472237 -0.868766 -0.554875
v -1.718644 -4.933415 1.056930
v -1.718644 -4.933415 -1.279543
v 1.718644 -4.933415 1.056930
v 1.718644 -4.933415 -1.279543
v -0.453278 -4.933415 1.056930
v 0.447213 -4.933415 1.056930
v 0.447213 -4.933415 -1.279543
v -0.453278 -4.933415 -1.279543
v 0.130568 -4.200610 0.843169
v -0.003988 -3.877892 0.749203
v 0.130568 -4.193245 -0.975374
v -0.003988 -3.885257 -0.840765
v 2.319302 -6.374285 1.272220
v 2.319302 -6.374285 -0.707680
v 1.047871 -6.374285 1.272220
v 1.047871 -6.374285 -0.707680
v -2.358054 -6.376931 1.272220
v -2.358054 -6.376931 -0.707680
v -1.092688 -6.376931 1.272220
v -1.092687 -6.376931 -0.707680
v -2.065317 -6.388557 0.386154
v -2.065317 -6.388557 -0.297385
v -1.385424 -6.388557 0.386154
v -1.385424 -6.388557 -0.297385
v -2.233512 -6.702449 0.386154
v -2.233512 -6.702449 -0.297385
v -1.553619 -6.702449 0.386154
v -1.553619 -6.702449 -0.297385
v -2.374133 -6.679198 0.699662
v -2.374133 -6.679198 -0.587428
v -1.412998 -6.679198 0.699662
v -1.412997 -6.679198 -0.587428
v -2.730706 -7.492831 0.699662
v -2.730706 -7.492831 -0.587428
v -1.769571 -7.492831 0.699662
v -1.769570 -7.492831 -0.587428
v 2.029982 -6.363072 0.399184
v 2.029982 -6.363072 -0.310414
v 1.337191 -6.363072 0.399184
v 1.337191 -6.363072 -0.310414
v 2.177993 -6.706470 0.399184
v 2.177993 -6.706470 -0.310414
v 1.485202 -6.706470 0.399184
v 1.485202 -6.706470 -0.310414
v 2.372877 -6.672831 0.698717
v 2.372877 -6.672831 -0.591155
v 1.290318 -6.672831 0.698717
v 1.290318 -6.672831 -0.591155
v 2.621806 -7.497827 0.698717
v 2.621806 -7.497827 -0.591155
v 1.539246 -7.497827 0.698717
v 1.539246 -7.497827 -0.591155
v -2.730706 -7.903227 0.699662
v -2.730706 -7.903227 -0.587428
v -1.769571 -7.903227 0.699662
v -1.769570 -7.903227 -0.587428
v 2.621806 -7.894767 0.698717
v 2.621806 -7.894767 -0.591155
v 1.539246 -7.894767 0.698717
v 1.539246 -7.894767 -0.591155
v 3.402230 -7.497827 0.698717
v 3.402230 -7.497827 -0.591155
v 3.402230 -7.894767 0.698717
v 3.402230 -7.894767 -0.591155
v -3.457308 -7.492831 0.699662
v -3.457308 -7.492831 -0.587428
v -3.457308 -7.903227 0.699662
v -3.457308 -7.903227 -0.587428
v 1.663241 -4.805697 -1.225727
v -0.398914 -4.805696 1.019695
v 1.663241 -4.805697 1.020276
v 0.392575 -4.805697 -1.227058
v -1.663241 -4.805697 1.020276
v -0.398532 -4.805696 -1.226078
v 0.392026 -4.805697 1.019675
v -1.663241 -4.805697 -1.225727
v -0.310625 -4.600617 -1.140228
v -0.311620 -4.600616 0.959906
v 1.575428 -4.603266 -1.140429
v -1.573509 -4.598844 0.960911
v 0.305212 -4.601482 -1.143137
v 0.303784 -4.601480 0.960104
v -1.573509 -4.598844 -1.138566
v 1.575428 -4.603266 0.962180
v 1.398509 -4.195425 -0.968578
v 1.488132 -4.402029 -1.055634
v 0.217601 -4.402030 0.901923
v -0.140068 -4.197586 0.842407
v -0.227090 -4.402030 0.902010
v -1.488133 -4.402030 0.904427
v -1.400215 -4.199357 0.846261
v 0.132261 -4.197204 -0.977000
v 0.219886 -4.402029 -1.061172
v 0.129150 -4.197208 0.842178
v 1.398509 -4.195425 0.845133
v 1.488133 -4.402029 0.904427
v -0.137866 -4.197582 -0.971510
v -0.225501 -4.402029 -1.057095
v -1.488132 -4.402029 -1.055634
v -1.400214 -4.199356 -0.970235
v -1.519341 -1.276763 -1.000000
v -1.157884 -1.276763 -1.000000
v -1.157884 -1.276763 1.000000
v -1.519342 -1.276763 1.000000
v -1.157884 -1.276763 -0.752260
v -1.519341 -1.276763 -0.856316
v 1.094982 -3.090240 -0.620516
v -1.519342 -1.276763 0.856317
v -1.157884 -1.276763 0.752260
v 1.094982 -3.090240 0.620516
v 1.468914 -1.276763 1.000000
v -0.010109 -2.474880 0.749285
v 1.468913 -1.276763 -0.841799
v 0.159669 -2.337347 0.778065
v 1.468913 -1.276763 -1.000000
v 0.159669 -2.337347 -0.778065
v -0.010109 -2.474880 -0.749285
v 1.468914 -1.276763 0.841799
v -0.012634 -2.198648 -0.807088
v -0.180781 -2.339391 0.777637
v 1.088753 -1.276763 1.000000
v 1.088752 -1.276763 -1.000000
v 1.088753 -1.276763 0.732358
v -1.089856 -3.100307 0.618409
v -1.089856 -3.100307 -0.618410
v -0.180781 -2.339391 -0.777637
v -0.012635 -2.198648 0.807088
v 1.088753 -1.276763 -0.732358
v 0.003921 -2.211976 0.804300
v -1.542216 -2.211975 0.804300
v 0.314435 -2.211975 0.804300
v 1.542216 -2.211975 -0.804300
v -0.028556 -2.211975 0.804300
v -0.028556 -2.211975 -0.804300
v -1.542216 -2.211975 -0.804300
v 0.003921 -2.211975 -0.804300
v 0.314435 -2.211975 -0.804300
v -0.341282 -2.211975 -0.804300
v -0.341282 -2.211975 0.804300
v 1.542216 -2.211975 0.804300
v 0.974549 -1.372354 -0.979997
v -1.961724 -1.388158 0.976690
v 1.353428 -1.370315 0.980424
v 1.972507 -1.366983 -0.981121
v 0.974549 -1.372355 0.979997
v -1.382946 -1.385043 0.977342
v -1.025757 -1.383120 -0.977744
v -1.382946 -1.385042 -0.977342
v 1.972506 -1.366983 0.981121
v 1.353428 -1.370315 -0.980424
v -1.961724 -1.388157 -0.976690
v -1.025758 -1.383120 0.977744
v 1.542216 -2.211975 -0.495668
v 1.542216 -2.211975 0.404681
v 1.972507 -1.366983 -0.498372
v -1.542216 -2.211975 -0.495668
v -1.542216 -2.211975 0.404681
v -1.961724 -1.388157 -0.498304
v -1.961724 -1.388158 0.399409
v 1.972506 -1.366983 0.399349
v 1.894309 -2.854421 -0.495668
v 1.894308 -2.854421 0.404681
v 2.710615 -2.634652 0.399349
v 2.710616 -2.634652 -0.498372
v 1.847102 -2.846132 -0.541714
v 1.847102 -2.846132 0.451140
v 2.747280 -2.603783 0.445260
v 2.747280 -2.603783 -0.544696
v 2.168982 -3.910057 -0.322222
v 2.168982 -3.910057 0.229551
v 2.660762 -3.902487 0.226449
v 2.660762 -3.902487 -0.323794
v -1.958296 -2.829711 -0.495668
v -1.958296 -2.829711 0.404681
v -2.672792 -2.419573 -0.498304
v -2.672792 -2.419573 0.399409
v -1.920019 -2.851683 -0.543689
v -1.920019 -2.851683 0.453126
v -2.711069 -2.397601 -0.546607
v -2.711069 -2.397601 0.447289
v -2.002748 -3.908253 -0.543689
v -2.002748 -3.908253 0.453126
v -2.914860 -3.907030 -0.546607
v -2.914860 -3.907030 0.447289
v 1.948813 -3.913446 -0.541714
v 1.948813 -3.913446 0.451140
v 2.880932 -3.899098 0.445260
v 2.880932 -3.899098 -0.544696
v 2.171216 -4.055145 -0.322222
v 2.171216 -4.055144 0.229551
v 2.662996 -4.047575 0.226449
v 2.662996 -4.047575 -0.323794
v 2.106927 -4.070223 -0.394289
v 2.106927 -4.070222 0.302232
v 2.727718 -4.060667 0.298316
v 2.727718 -4.060667 -0.396275
v 2.115651 -4.636992 -0.394289
v 2.115651 -4.636992 0.302232
v 2.736442 -4.627438 0.298316
v 2.736442 -4.627437 -0.396275
v -2.235676 -3.903156 -0.290241
v -2.235676 -3.903156 0.197442
v -2.681919 -3.902557 -0.291669
v -2.681919 -3.902557 0.194587
v -2.235864 -4.043419 -0.290241
v -2.235864 -4.043419 0.197442
v -2.682107 -4.042820 -0.291669
v -2.682107 -4.042820 0.194587
v -2.161655 -4.034205 -0.370972
v -2.161655 -4.034205 0.278885
v -2.756292 -4.033408 -0.372874
v -2.756291 -4.033408 0.275080
v -2.162432 -4.613530 -0.370972
v -2.162432 -4.613530 0.278885
v -2.757069 -4.612733 -0.372874
v -2.757068 -4.612733 0.275080
v -2.859694 -3.498432 -0.546607
v -2.874167 -3.605627 -0.546607
v -2.887489 -3.704298 -0.546607
v -2.900190 -3.798371 -0.546607
v -1.970899 -3.501486 -0.543689
v -1.978585 -3.599657 -0.543689
v -1.986779 -3.704298 -0.543689
v -1.994649 -3.804816 -0.543689
v 1.937786 -3.797740 -0.541714
v 1.928882 -3.704298 -0.541714
v 1.919235 -3.603070 -0.541714
v 1.909959 -3.505734 -0.541714
v 2.870474 -3.797740 -0.544696
v 2.860832 -3.704298 -0.544696
v 2.850387 -3.603070 -0.544696
v 2.840344 -3.505734 -0.544696
v -0.868617 -4.599833 -1.139493
v -0.624404 -1.380960 -0.978196
v 1.101600 -1.574314 -0.937735
v -0.741187 -4.198430 -0.970901
v -0.933970 -4.805697 -1.225929
v -0.837815 -1.276763 -1.000000
v -0.972870 -6.106436 -0.814840
v -0.886568 -5.911601 -0.892025
v -0.797208 -5.709866 -0.971945
v -0.679333 -5.443751 -1.077368
v 0.785364 -2.841008 -0.672670
v 0.697527 -3.036643 -0.631732
v 0.776743 -1.537922 -0.945350
v 1.067787 -2.211975 -0.804300
v -0.805821 -4.402029 -1.056424
v -0.974515 -4.933415 -1.279543
v 0.589719 -3.276763 -0.581485
v -2.022505 -5.619404 -1.007782
v -2.092357 -5.777101 -0.945309
v -2.177195 -5.968630 -0.869433
v -1.128457 -5.418330 -1.087440
v -1.603171 -5.602403 -1.014517
v -1.641923 -5.805851 -0.933919
v -1.700051 -5.999612 -0.857159
v 1.341992 -1.601244 -0.932100
v 0.489445 -3.500099 -0.675942
v -0.547175 -3.587291 -0.712331
v -1.865471 -5.264888 1.106367
v -1.789298 -5.092921 1.080719
v -1.718644 -4.933415 1.019894
v -1.713688 -4.921990 1.053651
v -1.430231 -4.805697 1.020169
v -1.180741 -4.805697 1.020054
v -0.955477 -4.198732 0.844901
v -1.172086 -4.199036 0.845564
v -1.104212 -4.599503 0.960537
v -1.342303 -4.599169 0.960727
v -0.780156 -3.276763 0.581485
v -0.614121 -3.276763 0.581485
v -0.774643 -3.094208 0.619686
v -1.461852 -4.933415 1.056930
v -1.228153 -4.933415 1.056930
v -1.258440 -4.402030 0.903987
v -1.030923 -4.402030 0.903551
v -0.592581 -2.946724 0.650548
v -1.733110 -2.495388 -0.495668
v -1.958296 -2.829711 0.252192
v -2.131807 -2.730111 0.403401
v -1.929555 -2.973467 0.453126
v -2.414883 -2.045471 0.399409
v -2.386503 -2.004306 -0.498304
v -1.920019 -2.851683 0.248244
v -2.142269 -2.724106 0.451486
v -1.937939 -2.334894 -0.496515
v -1.815906 -2.086760 -0.496637
v -2.026234 -1.913690 -0.497517
v -2.185406 -2.185138 -0.497443
v -2.255279 -2.499877 0.401919
v -2.019578 -2.228317 0.402193
v -2.157023 -2.031813 0.400736
v -2.332321 -2.229579 0.400528
v -2.416777 -2.048219 -0.139145
v -2.215219 -1.755857 -0.189917
v -2.248854 -1.804644 0.106265
v -2.404304 -2.030126 0.150673
v -1.817692 -2.620963 -0.187262
v -1.670667 -2.402681 -0.140371
v -1.756990 -2.530841 0.219959
v -1.943405 -2.807603 0.192616
v -1.921067 -2.865061 0.256313
v -1.928063 -2.847065 0.236362
vt 0.375000 0.750000
vt 0.475235 0.837843
vt 0.416255 0.933259
vt 0.375000 0.951765
vt 0.854916 0.709461
vt 0.645084 0.709461
vt 0.645084 0.709461
vt 0.854916 0.709461
vt 0.645084 0.540539
vt 0.854916 0.540539
vt 0.645084 0.540539
vt 0.854916 0.540539
vt 0.375000 0.000000
vt 0.375000 0.003963
vt 0.375000 0.250000
vt 0.375000 0.250000
vt 0.375000 0.000000
vt 0.375000 0.500000
vt 0.375000 0.750000
vt 0.375000 0.500000
vt 0.375000 0.959510
vt 0.375000 0.885274
vt 0.375000 0.875414
vt 0.375000 0.863145
vt 0.375000 0.407527
vt 0.375000 0.500000
vt 0.375000 0.500000
vt 0.375000 0.407527
vt 0.375000 0.842473
vt 0.375000 0.846053
vt 0.375000 0.904029
vt 0.375000 0.907968
vt 0.217032 0.750000
vt 0.217032 0.500000
vt 0.282527 0.500000
vt 0.282527 0.750000
vt 0.375000 0.500000
vt 0.375000 0.750000
vt 0.375000 0.750000
vt 0.375000 0.342032
vt 0.375000 0.345999
vt 0.375000 0.403982
vt 0.375000 0.407527
vt 0.375000 0.842473
vt 0.282527 0.500000
vt 0.282527 0.750000
vt 0.217032 0.500000
vt 0.217032 0.750000
vt 0.217032 0.750000
vt 0.217032 0.500000
vt 0.217032 0.500000
vt 0.217032 0.500000
vt 0.217032 0.500000
vt 0.217032 0.500000
vt 0.375000 0.964326
vt 0.375000 1.000000
vt 0.375000 1.000000
vt 0.375000 0.907968
vt 0.375000 0.907968
vt 0.375000 1.000000
vt 0.375000 1.000000
vt 0.375000 0.907968
vt 0.375000 0.250000
vt 0.375000 0.342032
vt 0.375000 0.342032
vt 0.375000 0.250000
vt 0.375000 0.000000
vt 0.375000 0.000000
vt 0.375000 1.000000
vt 0.375000 0.907968
vt 0.375000 0.250000
vt 0.375000 0.000000
vt 0.217032 0.750000
vt 0.217032 0.500000
vt 0.375000 0.342032
vt 0.217032 0.500000
vt 0.217032 0.750000
vt 0.217032 0.750000
vt 0.217032 0.500000
vt 0.375000 0.250000
vt 0.375000 0.000000
vt 0.375000 0.342032
vt 0.375000 0.907968
vt 0.375000 1.000000
vt 0.375000 1.000000
vt 0.375000 0.907968
vt 0.375000 0.342032
vt 0.375000 0.250000
vt 0.375000 0.000000
vt 0.375000 0.750000
vt 0.375000 0.750000
vt 0.375000 0.500000
vt 0.282527 0.500000
vt 0.282527 0.750000
vt 0.375000 0.842473
vt 0.282527 0.750000
vt 0.282527 0.500000
vt 0.282527 0.500000
vt 0.282527 0.750000
vt 0.375000 0.842473
vt 0.375000 0.407527
vt 0.375000 0.407527
vt 0.375000 0.500000
vt 0.375000 0.500000
vt 0.375000 0.407527
vt 0.375000 0.842473
vt 0.375000 0.750000
vt 0.282527 0.750000
vt 0.282527 0.500000
vt 0.282527 0.500000
vt 0.282527 0.750000
vt 0.375000 0.750000
vt 0.375000 0.842473
vt 0.125000 0.500000
vt 0.217032 0.500000
vt 0.217032 0.750000
vt 0.125000 0.750000
vt 0.375000 0.250000
vt 0.375000 0.250000
vt 0.375000 0.250000
vt 0.375000 0.342032
vt 0.375000 0.500000
vt 0.375000 0.750000
vt 0.375000 0.842473
vt 0.375000 0.407527
vt 0.375000 0.500000
vt 0.375000 0.750000
vt 0.375000 0.500000
vt 0.375000 0.750000
vt 0.375000 0.000000
vt 0.375000 0.000000
vt 0.375000 1.000000
vt 0.375000 1.000000
vt 0.125000 0.750000
vt 0.125000 0.500000
vt 0.375000 0.500000
vt 0.375000 0.750000
vt 0.375000 0.963375
vt 0.375000 0.398315
vt 0.375000 0.352368
vt 0.375000 0.358536
vt 0.375000 0.392780
vt 0.375000 0.897704
vt 0.375000 0.851778
vt 0.375000 0.857369
vt 0.375000 0.891579
vt 0.375000 0.500000
vt 0.375000 0.750000
vt 0.375000 0.750000
vt 0.375000 0.500000
vt 0.375000 0.387095
vt 0.375000 0.364886
vt 0.375000 0.374586
vt 0.375000 0.386985
vt 0.375000 0.960690
vt 0.375000 0.961956
vt 0.398315 0.750000
vt 0.398315 0.500000
vt 0.508099 0.500000
vt 0.508099 0.547966
vt 0.508098 0.687893
vt 0.508098 0.750000
vt 0.429469 0.472966
vt 0.508099 0.470619
vt 0.632138 0.514408
vt 0.632138 0.735592
vt 0.625000 0.750000
vt 0.625000 0.500000
vt 0.625000 0.784032
vt 0.613306 0.788234
vt 0.613723 0.750000
vt 0.659032 0.750000
vt 0.659032 0.500000
vt 0.625000 0.442425
vt 0.613051 0.438367
vt 0.611975 0.339617
vt 0.625000 0.323115
vt 0.613723 0.675879
vt 0.508098 0.687893
vt 0.508098 0.687893
vt 0.613723 0.675879
vt 0.613723 0.675879
vt 0.584440 0.468341
vt 0.587806 0.452604
vt 0.613306 0.461766
vt 0.613723 0.500000
vt 0.508098 0.826035
vt 0.492427 0.831666
vt 0.613723 0.561505
vt 0.625000 0.465968
vt 0.508099 0.547966
vt 0.613723 0.561505
vt 0.613723 0.561505
vt 0.508098 0.687893
vt 0.613723 0.675879
vt 0.613723 0.561505
vt 0.613723 0.561505
vt 0.613722 0.561505
vt 0.613722 0.561505
vt 0.613722 0.561505
vt 0.508099 0.547966
vt 0.588774 0.589340
vt 0.588774 0.653276
vt 0.588774 0.653276
vt 0.588774 0.589340
vt 0.533047 0.659615
vt 0.533047 0.659615
vt 0.508098 0.547966
vt 0.508099 0.547966
vt 0.508099 0.547966
vt 0.508099 0.547966
vt 0.508099 0.547966
vt 0.508098 0.062107
vt 0.533106 0.064966
vt 0.537031 0.065415
vt 0.508098 0.062107
vt 0.611076 0.073882
vt 0.611076 0.188775
vt 0.611076 0.188775
vt 0.611076 0.188775
vt 0.611076 0.188775
vt 0.611076 0.188775
vt 0.611076 0.188775
vt 0.611076 0.073882
vt 0.611076 0.073882
vt 0.611076 0.188775
vt 0.508099 0.202034
vt 0.508099 0.202034
vt 0.508098 0.085806
vt 0.508098 0.091641
vt 0.508098 0.090867
vt 0.508099 0.202034
vt 0.508099 0.202034
vt 0.611076 0.188775
vt 0.508099 0.202034
vt 0.508099 0.089734
vt 0.508098 0.062107
vt 0.508098 0.062107
vt 0.508099 0.202034
vt 0.508099 0.202034
vt 0.508099 0.202034
vt 0.533047 0.582197
vt 0.588774 0.653276
vt 0.588774 0.589340
vt 0.533047 0.659615
vt 0.533047 0.582197
vt 0.588774 0.653276
vt 0.588774 0.589340
vt 0.533047 0.659615
vt 0.533047 0.582197
vt 0.533047 0.582197
vt 0.508098 0.062107
vt 0.508098 0.062107
vt 0.508099 0.202034
vt 0.611076 0.073882
vt 0.611076 0.073882
vt 0.611076 0.073882
vt 0.508098 0.062107
vt 0.611076 0.188775
vt 0.611076 0.188775
vt 0.508099 0.202034
vt 0.611076 0.188775
vt 0.508099 0.202034
vt 0.508098 0.062107
vt 0.611076 0.073882
vt 0.375000 0.279951
vt 0.375000 0.342032
vt 0.375000 0.342032
vt 0.375000 0.283687
vt 0.375000 0.250000
vt 0.375000 0.285702
vt 0.375000 0.342032
vt 0.375000 0.342032
vt 0.375000 0.308548
vt 0.375000 0.304122
vt 0.375000 0.448715
vt 0.405015 0.473696
vt 0.375000 0.307138
vt 0.375000 0.308652
vt 0.375000 0.309978
vt 0.375000 0.313785
vt 0.375000 0.432013
vt 0.592355 0.431339
vt 0.375000 0.305356
vt 0.801885 0.500000
vt 0.637076 0.524375
vt 0.682575 0.500000
vt 0.375000 0.000000
vt 0.375000 0.000000
vt 0.375000 0.981323
vt 0.375000 0.982313
vt 0.375000 1.000000
vt 0.375000 1.000000
vt 0.375000 1.000000
vt 0.375000 1.000000
vt 0.375000 0.981257
vt 0.375000 0.980252
vt 0.375000 1.000000
vt 0.375000 1.000000
vt 0.375000 0.979231
vt 0.375000 0.972520
vt 0.375000 1.000000
vt 0.375000 1.000000
vt 0.397819 0.963084
vt 0.611076 0.188775
vt 0.577272 0.193127
vt 0.580093 0.192764
vt 0.545748 0.197186
vt 0.540854 0.197816
vt 0.508099 0.202034
vt 0.562170 0.068290
vt 0.556937 0.067691
vt 0.585264 0.070931
vt 0.589358 0.071399
vt 0.611076 0.073882
vt 0.611076 0.105716
vt 0.611076 0.111400
vt 0.611076 0.149306
vt 0.611076 0.142808
vt 0.508099 0.154103
vt 0.508099 0.146816
vt 0.508098 0.090815
vt 0.508098 0.095065
vt 0.375000 0.000000
vt 0.397057 0.000000
vt 0.397057 0.250000
vt 0.375000 0.250000
vt 0.375000 0.000000
vt 0.375000 0.250000
vt 0.375000 0.250000
vt 0.375000 0.000000
vt 0.375000 0.000000
vt 0.375000 0.250000
vt 0.375000 0.250000
vt 0.375000 0.000000
vt 0.375000 0.863014
vt 0.821706 0.750000
vt 0.863822 0.727438
vt 0.868517 0.736914
vt 0.844091 0.750000
vt 0.863822 0.522562
vt 0.868517 0.513086
vt 0.625000 0.969091
vt 0.611465 0.957229
vt 0.611705 0.935170
vt 0.625000 0.946706
vt 0.821706 0.500000
vt 0.844091 0.500000
vt 0.492427 0.418334
vt 0.475235 0.412157
vt 0.492172 0.397315
vt 0.508098 0.402724
vt 0.508099 0.404735
vt 0.492172 0.852685
vt 0.397057 1.000000
vt 0.637076 0.725625
vt 0.625000 0.807575
vt 0.613051 0.811633
vt 0.509764 0.403290
vt 0.508099 0.383357
vt 0.611465 0.292771
vt 0.611705 0.314830
vt 0.682575 0.750000
vt 0.509764 0.846710
vt 0.508098 0.847276
vt 0.508098 0.845265
vt 0.508099 0.866643
vt 0.508099 0.423965
vt 0.625000 0.280909
vt 0.625000 0.303294
vt 0.375000 0.250000
vt 0.875000 0.750000
vt 0.875000 0.500000
vt 0.508098 1.000000
vt 0.508098 0.000000
vt 0.508098 0.062107
vt 0.508099 0.202034
vt 0.508099 0.250000
vt 0.611076 1.000000
vt 0.611076 0.250000
vt 0.611076 0.188775
vt 0.625000 0.250000
vt 0.611076 0.073882
vt 0.611076 0.000000
vt 0.625000 0.000000
vt 0.625000 1.000000
vn 0.0000 -0.2048 0.9788
vn 0.0000 0.0000 1.0000
vn 0.0000 1.0000 0.0000
vn 0.0000 0.0000 -1.0000
vn 1.0000 0.0000 0.0000
vn -1.0000 0.0000 0.0000
vn -0.9143 0.4050 0.0000
vn 0.9174 0.3980 -0.0000
vn -0.0003 0.2734 0.9619
vn 0.0000 -0.9996 0.0282
vn 0.0000 0.2800 0.9600
vn 0.0000 -1.0000 0.0000
vn 0.9230 0.3848 0.0000
vn -0.0005 0.3831 -0.9237
vn 0.0000 0.1478 0.9890
vn 0.0000 -0.3689 -0.9295
vn -0.9230 -0.3848 -0.0000
vn 0.0397 -0.9992 0.0000
vn 0.9143 -0.4050 0.0000
vn -0.0000 0.1475 0.9891
vn 0.0000 -0.9996 -0.0283
vn 0.0000 -0.9999 0.0131
vn -0.0397 -0.9992 0.0000
vn 0.0000 0.9973 -0.0740
vn -0.8814 0.4723 0.0000
vn 0.8814 -0.4723 0.0000
vn 0.9159 -0.4014 0.0000
vn 0.1631 0.9866 0.0000
vn -0.1631 0.9866 -0.0000
vn 0.0000 0.9968 0.0799
vn -0.9159 0.4014 0.0000
vn 0.9183 0.3958 0.0000
vn -0.0387 -0.9992 0.0000
vn 0.0387 -0.9992 0.0000
vn 0.0000 -0.9999 -0.0128
vn 0.1701 0.9854 0.0000
vn -0.9183 -0.3958 0.0000
vn 0.0000 0.9938 -0.1116
vn 0.0000 0.9929 0.1190
vn -0.1701 0.9854 0.0000
vn 0.9574 0.2889 0.0000
vn -0.9574 -0.2889 0.0000
vn -0.0002 0.2779 0.9606
vn 0.0002 0.2786 0.9604
vn 0.0005 0.3844 -0.9232
vn -0.0058 0.3831 -0.9237
vn 0.0001 0.2800 0.9600
vn 0.0004 0.2797 0.9601
vn -0.0196 0.3930 -0.9194
vn -0.0015 0.2773 0.9608
vn 0.0015 0.2780 0.9606
vn 0.0033 0.3854 -0.9227
vn 0.8911 -0.4538 -0.0000
vn 0.0000 -0.2048 -0.9788
vn -0.2405 0.8835 -0.4020
vn 0.0058 0.0033 1.0000
vn -0.8769 -0.4806 -0.0000
vn -0.6441 0.7650 0.0000
vn 0.8642 0.5032 0.0000
vn -0.0029 -0.0017 -1.0000
vn 0.0063 0.0006 1.0000
vn 0.9947 0.1026 -0.0000
vn -0.2368 0.8845 0.4020
vn 0.1729 0.9849 0.0000
vn 0.9999 0.0154 0.0000
vn 0.0063 0.0001 1.0000
vn -0.0032 -0.0003 -1.0000
vn -0.9955 -0.0949 -0.0000
vn 0.4978 0.8673 0.0000
vn -0.9910 0.1338 0.0000
vn -0.0014 -0.9998 0.0188
vn 0.0034 -0.0004 -1.0000
vn 0.9969 -0.0781 -0.0000
vn -0.0067 0.0007 1.0000
vn 0.0154 -0.9999 0.0000
vn 0.1983 0.9801 0.0000
vn -0.0139 0.9814 0.1913
vn -0.9999 -0.0154 0.0000
vn -0.2283 0.9736 -0.0000
vn 1.0000 -0.0013 0.0000
vn -0.0219 -0.9998 0.0000
vn -0.0012 -0.9998 -0.0188
vn 0.0192 -0.9998 0.0000
vn 0.0021 0.9934 -0.1143
vn -0.0064 0.0000 1.0000
vn -1.0000 0.0013 0.0000
vn 0.1259 0.9920 0.0000
vn 0.0010 0.9934 0.1143
vn -0.1232 0.9924 0.0000
vn -0.0013 -1.0000 0.0000
vn 0.0033 -0.0003 -1.0000
vn 0.0032 -0.0003 -1.0000
vn -0.0000 -0.3683 -0.9297
vn -0.0009 0.3869 -0.9221
vn 0.0009 0.3921 -0.9199
vn -0.0001 0.3866 -0.9222
vn -0.9174 0.3980 0.0000
vn 0.0002 0.2762 0.9611
vn 0.0015 0.2756 0.9613
vn 0.0013 0.2750 0.9614
vn 0.0027 -0.0018 -1.0000
vn -0.0053 0.0036 1.0000
vn -0.8233 0.5676 0.0000
vn 0.8294 -0.5586 -0.0000
vn -0.8911 -0.4538 0.0000
vn -0.0023 0.3831 -0.9237
vn -0.0008 0.2776 0.9607
vn 0.0008 0.2783 0.9605
vn -0.0005 0.3879 -0.9217
vn 0.0017 0.3848 -0.9230
vn 0.0003 0.2800 0.9600
vn -0.0126 0.3831 -0.9236
vn -0.0023 0.2770 0.9609
vn 0.0022 0.2777 0.9607
vn -0.0013 0.3882 -0.9216
vn 0.0048 0.3860 -0.9225
vn -0.0032 -0.0000 -1.0000
vn -0.0157 0.9814 -0.1913
vn 0.0032 -0.0000 -1.0000
vn 0.0033 -0.0004 -1.0000
vn -0.0013 0.3871 -0.9220
vn -0.0005 0.3868 -0.9222
vn 0.0022 0.2761 0.9611
vn 0.0022 0.2753 0.9613
vn 0.0008 0.2767 0.9610
vn 0.0008 0.2759 0.9612
vn -0.0004 0.3889 -0.9213
vn -0.0001 0.3877 -0.9218
vn -0.0009 0.3880 -0.9216
vn 0.0002 0.2769 0.9609
vn 0.0015 0.2764 0.9610
vn 0.0014 0.2745 0.9616
usemtl Material.001
s off
f 122/140/21 245/141/21 410/142/21 404/143/21
f 119/144/22 123/145/22 132/146/22 130/147/22
f 133/148/23 131/149/23 130/147/23 132/146/23
f 125/150/24 121/151/24 131/149/24 133/148/24
f 123/145/25 125/150/25 133/148/25 132/146/25
f 121/151/26 119/144/26 130/147/26 131/149/26
f 134/152/27 395/153/27 383/154/27 384/155/27 394/156/27
f 124/157/28 122/140/28 228/158/28 218/159/28
f 122/140/29 404/143/29 399/160/29 221/161/29 143/162/29 227/163/29 228/158/29
f 149/164/30 147/165/30 171/166/30 173/167/30
f 139/168/31 208/169/31 203/170/31 138/171/31
f 138/172/32 141/173/32 140/174/32 139/175/32
f 137/176/33 136/177/33 146/178/33 147/165/33
f 141/179/34 207/180/34 205/181/34 140/182/34
f 136/177/35 139/168/35 148/183/35 146/178/35
f 140/182/36 137/176/36 147/165/36 149/164/36
f 139/175/37 140/174/37 149/184/37 148/185/37
f 153/186/38 152/187/38 156/188/38 157/189/38
f 141/173/39 138/172/39 152/187/39 153/186/39 372/190/39 373/191/39 374/192/39 375/193/39
f 138/171/40 407/194/40 393/195/40 150/196/40 152/197/40
f 156/198/22 154/199/22 158/200/22 160/201/22
f 151/202/41 153/203/41 157/204/41 155/205/41
f 152/197/42 150/196/42 154/199/42 156/198/42
f 150/206/43 151/202/43 155/205/43 154/207/43
f 160/201/44 158/200/44 162/208/44 164/209/44
f 154/207/45 155/205/45 159/210/45 158/211/45
f 157/189/46 156/188/46 160/212/46 161/213/46
f 155/205/24 157/204/24 161/214/24 159/210/24
f 165/215/47 164/216/47 168/217/47 169/218/47
f 158/211/48 159/210/48 163/219/48 162/220/48
f 161/213/49 160/212/49 164/216/49 165/215/49
f 159/210/50 161/214/50 165/221/50 163/219/50
f 168/222/22 166/223/22 186/224/22 188/225/22
f 163/219/24 165/221/24 169/226/24 167/227/24
f 164/209/22 162/208/22 166/223/22 168/222/22
f 162/220/51 163/219/51 167/227/51 166/228/51
f 171/166/52 170/229/52 174/230/52 175/231/52
f 147/165/53 146/178/53 170/229/53 171/166/53
f 148/185/54 149/184/54 173/232/54 172/233/54
f 146/178/55 148/183/55 172/234/55 170/229/55
f 176/235/56 177/236/56 181/237/56 180/238/56
f 172/233/57 173/232/57 177/236/57 176/235/57
f 170/229/22 172/234/22 176/239/22 174/230/22
f 173/167/24 171/166/24 175/231/24 177/240/24
f 181/241/24 179/242/24 183/243/24 185/244/24
f 174/230/58 176/239/58 180/245/58 178/246/58
f 177/240/59 175/231/59 179/242/59 181/241/59
f 175/231/60 174/230/60 178/246/60 179/242/60
f 184/247/26 185/248/26 193/249/26 192/250/26
f 179/242/61 178/246/61 182/251/61 183/243/61
f 180/238/62 181/237/62 185/248/62 184/247/62
f 178/246/22 180/245/22 184/252/22 182/251/22
f 187/253/32 189/254/32 188/255/32 186/256/32
f 167/227/24 187/257/24 201/258/24 199/259/24
f 169/218/25 168/217/25 188/255/25 189/254/25
f 167/227/24 169/226/24 189/260/24 187/257/24
f 192/250/32 193/249/32 191/261/32 190/262/32
f 182/251/22 184/252/22 192/263/22 190/262/22
f 185/244/24 183/243/24 191/261/24 193/264/24
f 190/262/32 191/261/32 197/265/32 196/266/32
f 195/267/25 194/268/25 196/266/25 197/265/25
f 191/261/24 183/243/24 195/267/24 197/265/24
f 183/243/23 182/251/23 194/268/23 195/267/23
f 182/251/22 190/262/22 196/266/22 194/268/22
f 198/269/26 199/259/26 201/258/26 200/270/26
f 166/228/23 167/227/23 199/259/23 198/269/23
f 186/224/22 166/223/22 198/271/22 200/272/22
f 187/253/32 186/256/32 200/273/32 201/274/32
f 202/275/28 204/276/28 136/177/28 137/176/28
f 204/276/63 208/169/63 139/168/63 136/177/63
f 203/170/64 398/277/64 407/194/64 138/171/64
f 205/181/65 202/275/65 137/176/65 140/182/65
f 214/278/66 210/279/66 231/280/66 226/281/66
f 211/282/67 215/283/67 220/284/67 222/285/67
f 221/161/68 227/163/68 143/162/68
f 219/286/28 229/287/28 217/288/28 212/289/28
f 225/290/69 230/291/69 145/292/69 144/293/69
f 229/287/70 220/284/70 215/283/70 217/288/70
f 222/285/71 409/294/71 401/295/71 211/282/71
f 226/281/72 219/286/72 212/289/72 214/278/72
f 243/296/73 240/297/73 265/298/73 286/299/73 287/300/73 273/301/73
f 240/297/74 376/302/74 379/303/74 265/298/74
f 246/304/23 251/305/23 129/306/23 128/307/23
f 244/308/21 276/309/21 282/310/21 129/306/21
f 251/305/23 244/311/23 129/306/23
f 248/312/23 246/304/23 128/307/23
f 255/313/74 274/314/74 367/315/74 371/316/74
f 296/317/75 295/318/75 299/319/75 300/320/75
f 273/301/73 287/300/73 293/321/73 282/310/73
f 265/298/74 379/303/74 390/322/74 368/323/74 283/324/74 277/325/74
f 273/301/21 264/326/21 247/327/21 243/296/21
f 282/310/73 293/321/73 288/328/73 277/325/73 128/307/73 129/306/73
f 277/325/74 283/324/74 248/329/74 128/307/74
f 282/310/21 276/309/21 264/326/21 273/301/21
f 288/328/73 286/299/73 265/298/73 277/325/73
f 293/321/76 287/300/76 295/318/76 296/317/76
f 287/300/77 286/299/77 294/330/77 295/318/77
f 297/331/78 296/317/78 300/320/78 301/332/78
f 288/328/79 293/321/79 296/317/79 297/331/79
f 286/299/80 288/328/80 297/331/80 294/330/80
f 300/320/81 299/319/81 319/333/81 320/334/81
f 301/332/82 300/320/82 320/334/82 321/335/82 362/336/82 363/337/82 364/338/82 365/339/82
f 294/330/83 297/331/83 301/332/83 298/340/83
f 295/318/84 294/330/84 298/340/84 299/319/84
f 305/341/85 304/342/85 324/343/85 325/344/85
f 304/342/86 303/345/86 323/346/86 324/343/86
f 298/340/87 301/332/87 365/339/87 361/347/87
f 299/319/88 298/340/88 361/347/88 360/348/88 359/349/88 358/350/88 318/351/88 319/333/88
f 307/352/89 413/353/89 418/354/89 311/355/89
f 313/356/90 312/357/90 350/358/90 351/359/90 352/360/90 353/361/90 316/362/90 317/363/90
f 309/364/89 308/365/89 312/357/89 313/356/89
f 308/365/89 306/366/89 310/367/89 312/357/89
f 306/366/89 412/368/89 436/369/89 417/370/89 310/367/89
f 316/362/91 314/371/91 334/372/91 336/373/91
f 312/357/92 310/367/92 354/374/92 350/358/92
f 310/367/93 417/370/93 435/375/93 414/376/93 315/377/93 314/371/93 357/378/93 356/379/93 355/380/93 354/374/93
f 311/355/94 418/354/94 313/356/94 317/363/94 315/377/94 414/376/94
f 302/381/95 303/345/95 319/333/95 318/351/95
f 304/342/95 305/341/95 321/335/95 320/334/95
f 305/341/95 302/381/95 318/351/95 321/335/95
f 303/345/95 304/342/95 320/334/95 319/333/95
f 325/344/96 324/343/96 328/382/96 329/383/96
f 324/343/97 323/346/97 327/384/97 328/382/97
f 303/345/98 302/381/98 322/385/98 323/346/98
f 329/383/85 328/382/85 332/386/85 333/387/85
f 328/382/86 327/384/86 331/388/86 332/386/86
f 323/346/99 322/385/99 326/389/99 327/384/99
f 330/390/95 333/387/95 331/388/95
f 332/386/95 331/388/95 333/387/95
f 327/384/98 326/389/98 330/390/98 331/388/98
f 334/372/100 335/391/100 339/392/100 338/393/100
f 314/371/101 315/377/101 335/391/101 334/372/101
f 315/377/102 317/363/102 337/394/102 335/391/102
f 317/363/103 316/362/103 336/373/103 337/394/103
f 339/392/104 341/395/104 345/396/104 343/397/104
f 335/391/105 337/394/105 341/395/105 339/392/105
f 337/394/106 336/373/106 340/398/106 341/395/106
f 341/395/107 340/398/107 344/399/107 345/396/107
f 340/398/108 338/393/108 342/400/108 344/399/108
f 338/393/109 339/392/109 343/397/109 342/400/109
f 348/401/110 346/402/110 347/403/110 349/404/110
f 342/400/100 343/397/100 347/403/100 346/402/100
f 343/397/105 345/396/105 349/404/105 347/403/105
f 345/396/106 344/399/106 348/401/106 349/404/106
f 351/359/111 355/380/111 356/379/111 352/360/111
f 353/361/112 357/378/112 314/371/112 316/362/112
f 360/348/87 364/338/87 363/337/87 359/349/87
f 358/350/87 362/336/87 321/335/87 318/351/87
f 383/154/113 387/405/113 374/406/113 373/407/113 388/408/113 384/155/113
f 385/409/113 389/410/113 372/411/113 153/203/113 151/202/113
f 375/412/113 386/413/113 381/414/113 141/179/113
f 382/415/74 377/416/74 124/157/74
f 366/417/114 380/418/114 231/280/114 210/279/114
f 369/419/115 392/420/115 391/421/115 382/415/115 124/157/115 218/159/115 225/290/115 144/293/115 145/292/115 230/291/115
f 378/422/74 367/315/74 274/314/74
f 381/414/116 370/423/116 207/180/116 141/179/116
f 371/424/23 261/425/23 255/426/23
f 393/427/27 385/409/27 151/202/27 150/206/27
f 396/428/117 395/153/117 134/152/117
f 406/429/118 397/430/118 206/431/118 396/432/118 134/433/118
f 394/434/40 406/429/40 134/433/40
f 402/435/119 408/436/119 223/437/119 213/438/119
f 400/439/120 403/440/120 118/441/120 224/442/120
f 403/440/21 405/443/21 118/441/21
f 416/444/121 422/445/121 421/446/121 420/447/121 419/448/121 411/449/121 306/366/121 308/365/121
f 413/353/122 423/450/122 424/451/122 425/452/122 426/453/122 415/454/122 309/364/122
f 415/454/123 430/455/123 429/456/123 428/457/123 427/458/123 416/444/123 308/365/123 309/364/123
f 411/449/124 431/459/124 432/460/124 433/461/124 434/462/124 412/368/124 306/366/124
f 414/376/93 435/375/93 417/370/93 311/355/93
f 418/354/89 413/353/89 309/364/89 313/356/89
f 417/370/89 436/369/89 412/368/89 307/352/89 311/355/89
usemtl Material.004
f 118/463/125 257/464/125 258/465/125 120/466/125
f 124/157/73 240/297/73 243/296/73 122/140/73
f 205/181/126 207/180/126 210/279/126 214/278/126
f 203/170/67 208/169/67 215/283/67 211/282/67
f 213/467/117 216/468/117 209/469/117 206/470/117
f 212/289/28 217/288/28 204/276/28 202/275/28
f 217/288/127 215/283/127 208/169/127 204/276/127
f 211/282/128 401/295/128 398/277/128 203/170/128
f 216/468/129 366/417/129 370/423/129 209/469/129
f 214/278/130 212/289/130 202/275/130 205/181/130
f 224/471/117 233/472/117 232/473/117 223/474/117
f 222/285/131 220/284/131 142/475/131 227/163/131 221/161/131
f 218/159/28 228/158/28 229/287/28 219/286/28
f 226/281/132 231/280/132 230/291/132 225/290/132
f 228/158/133 227/163/133 142/475/133 220/284/133 229/287/133
f 221/161/134 399/160/134 409/294/134 222/285/134
f 233/472/135 369/419/135 380/418/135 232/473/135
f 225/290/136 218/159/136 219/286/136 226/281/136
f 236/476/23 242/477/23 241/478/23 237/479/23
f 242/477/23 238/480/23 239/481/23 241/478/23
f 237/482/21 279/483/21 285/484/21 236/485/21
f 238/480/23 235/486/23 234/487/23 239/481/23
f 124/157/74 377/416/74 376/302/74 240/297/74
f 249/488/74 250/489/74 259/490/74 267/491/74 269/492/74
f 248/329/74 283/324/74 274/314/74 255/313/74
f 118/441/21 405/443/21 410/142/21 245/141/21 253/493/21 257/494/21
f 247/327/21 245/141/21 122/140/21 243/296/21
f 250/489/74 120/466/74 258/465/74 259/490/74
f 261/425/23 256/495/23 251/305/23 246/304/23
f 254/496/21 278/497/21 276/309/21 244/308/21
f 252/498/74 267/491/74 271/499/74 281/500/74 280/501/74
f 256/495/23 254/502/23 244/311/23 251/305/23
f 255/426/23 261/425/23 246/304/23 248/312/23
f 260/503/21 266/504/21 262/505/21
f 266/504/21 272/506/21 253/493/21
f 269/492/74 267/491/74 252/498/74
f 264/326/21 262/505/21 247/327/21
f 269/492/74 270/507/74 249/488/74
f 271/499/74 267/491/74 259/490/74
f 262/505/21 266/504/21 253/493/21 245/141/21 247/327/21
f 285/484/21 279/483/21 272/506/21 266/504/21 260/503/21
f 276/309/21 278/497/21 260/503/21 262/505/21 264/326/21
f 274/314/74 283/324/74 368/323/74 378/422/74
f 280/501/74 281/500/74 234/508/74 235/509/74
f 302/381/137 305/341/137 325/344/137 322/385/137
f 322/385/138 325/344/138 329/383/138 326/389/138
f 326/389/137 329/383/137 333/387/137 330/390/137
f 336/373/139 334/372/139 338/393/139 340/398/139
f 344/399/139 342/400/139 346/402/139 348/401/139
f 350/358/140 354/374/140 355/380/140 351/359/140
f 352/360/112 356/379/112 357/378/112 353/361/112
f 361/347/87 365/339/87 364/338/87 360/348/87
f 359/349/87 363/337/87 362/336/87 358/350/87
f 376/302/74 377/416/74 250/489/74 249/488/74
f 380/418/141 369/419/141 230/291/141 231/280/141
f 378/422/74 368/323/74 270/507/74 269/492/74 252/498/74
f 370/423/142 366/417/142 210/279/142 207/180/142
f 409/294/143 399/160/143 400/439/143 408/436/143
f 408/436/144 400/439/144 224/442/144 223/437/144
f 398/277/145 401/295/145 402/435/145 397/430/145
f 397/430/146 402/435/146 213/438/146 206/431/146
usemtl Material.030
f 120/466/74 250/489/74 377/416/74 382/415/74
f 120/466/147 382/415/147 391/421/147 392/420/147 369/419/147 233/472/147
f 119/144/23 121/151/23 238/480/23 242/477/23
f 121/151/23 125/150/23 261/425/23 371/424/23 235/486/23 238/480/23
f 125/150/23 123/145/23 256/495/23 261/425/23
f 123/145/23 119/144/23 242/477/23 236/476/23 254/502/23 256/495/23
f 118/463/117 120/466/117 233/472/117 224/471/117
f 135/510/113 381/414/113 386/413/113 375/412/113 374/406/113 387/405/113 383/154/113
f 206/470/117 209/469/117 135/510/117 395/153/117 396/428/117
f 209/469/148 370/423/148 381/414/148 135/510/148
f 223/474/117 232/473/117 216/468/117 213/467/117
f 232/473/149 380/418/149 366/417/149 216/468/149
f 237/479/23 241/478/23 126/511/23
f 241/478/23 239/481/23 127/512/23 126/511/23
f 236/485/21 285/484/21 278/497/21 254/496/21
f 239/481/23 234/487/23 127/512/23
f 257/494/21 253/493/21 272/506/21 263/513/21
f 258/465/125 257/464/125 263/514/125 290/515/125 289/516/125 268/517/125
f 259/490/74 258/465/74 268/517/74 271/499/74
f 263/513/21 272/506/21 279/483/21 275/518/21
f 271/499/74 268/517/74 284/519/74 281/500/74
f 268/517/125 289/516/125 291/520/125 284/519/125
f 280/501/74 367/315/74 378/422/74 252/498/74
f 281/500/74 284/519/74 127/521/74 234/508/74
f 284/519/125 291/520/125 292/522/125 275/523/125 126/524/125 127/521/125
f 278/497/21 285/484/21 260/503/21
f 275/518/21 279/483/21 237/482/21 126/525/21
f 291/520/121 289/516/121 411/449/121 419/448/121 420/447/121 421/446/121 422/445/121 416/444/121
f 292/522/125 290/515/125 263/514/125 275/523/125
f 290/515/122 292/522/122 415/454/122 426/453/122 425/452/122 424/451/122 423/450/122 413/353/122 307/352/122
f 292/522/123 291/520/123 416/444/123 427/458/123 428/457/123 429/456/123 430/455/123 415/454/123
f 289/516/124 290/515/124 307/352/124 412/368/124 434/462/124 433/461/124 432/460/124 431/459/124 411/449/124
f 384/155/113 388/408/113 373/407/113 372/411/113 389/410/113 385/409/113
f 368/323/74 390/322/74 379/303/74 270/507/74
f 379/303/74 376/302/74 249/488/74 270/507/74
f 371/316/74 367/315/74 280/501/74 235/509/74
f 394/156/27 384/155/27 385/409/27 393/427/27
f 383/154/27 395/153/27 135/510/27
f 407/194/150 398/277/150 397/430/150 406/429/150
f 393/195/40 407/194/40 406/429/40 394/434/40
f 401/295/151 409/294/151 408/436/151 402/435/151
f 399/160/152 404/143/152 403/440/152 400/439/152
f 404/143/21 405/443/21 403/440/21
f 404/143/21 410/142/21 405/443/21
