# MagicaVoxel @ Ephtracy

# group
o 

# material
mtllib Gate.mtl
usemtl palette

# normals
vn -1 0 0
vn 1 0 0
vn 0 0 1
vn 0 0 -1
vn 0 -1 0
vn 0 1 0

# texcoords
vt 0.427734 0.5
vt 0.708984 0.5
vt 0.990234 0.5

# verts
v -1.5 0 -1.4
v -1.5 0 -2
v -1.5 0.5 -1.4
v -1.5 0.5 -2
v -1.3 0.5 -1.5
v -1.3 0.5 -2
v -1.3 0.7 -1.6
v -1.3 0.7 -1.7
v -1.3 0.7 -1.8
v -1.3 0.7 -1.9
v -1.3 2.6 -1.6
v -1.3 2.6 -1.7
v -1.3 2.6 -1.8
v -1.3 2.6 -1.9
v -1.3 2.9 -1.5
v -1.3 2.9 -2
v -1.2 2.9 -1.6
v -1.2 2.9 -2
v -1.2 3.3 -1.6
v -1.2 3.3 -2
v 0.7 0 -1.4
v 0.7 0 -2
v 0.7 0.5 -1.4
v 0.7 0.5 -2
v 0.7 2.7 -1.7
v 0.7 2.7 -2
v 0.7 2.9 -1.8
v 0.7 2.9 -2
v 0.7 3 -1.7
v 0.7 3 -1.8
v 0.7 3.1 -1.7
v 0.7 3.1 -1.8
v 0.7 3.3 -1.7
v 0.7 3.3 -1.8
v 0.9 0.5 -1.5
v 0.9 0.5 -2
v 0.9 0.7 -1.6
v 0.9 0.7 -1.7
v 0.9 0.7 -1.8
v 0.9 0.7 -1.9
v 0.9 2.6 -1.6
v 0.9 2.6 -1.7
v 0.9 2.6 -1.8
v 0.9 2.6 -1.9
v 0.9 2.7 -1.6
v 0.9 2.7 -2
v 0.9 2.9 -1.5
v 0.9 2.9 -1.6
v -0.9 0.5 -1.5
v -0.9 0.5 -2
v -0.9 0.7 -1.6
v -0.9 0.7 -1.7
v -0.9 0.7 -1.8
v -0.9 0.7 -1.9
v -0.9 2.6 -1.6
v -0.9 2.6 -1.7
v -0.9 2.6 -1.8
v -0.9 2.6 -1.9
v -0.9 2.7 -1.6
v -0.9 2.7 -2
v -0.9 2.9 -1.5
v -0.9 2.9 -1.6
v -0.7 0 -1.4
v -0.7 0 -2
v -0.7 0.5 -1.4
v -0.7 0.5 -2
v -0.7 2.7 -1.7
v -0.7 2.7 -2
v -0.7 2.9 -1.8
v -0.7 2.9 -2
v -0.7 3 -1.7
v -0.7 3 -1.8
v -0.7 3.1 -1.7
v -0.7 3.1 -1.8
v -0.7 3.3 -1.7
v -0.7 3.3 -1.8
v 1.2 2.9 -1.6
v 1.2 2.9 -2
v 1.2 3.3 -1.6
v 1.2 3.3 -2
v 1.3 0.5 -1.5
v 1.3 0.5 -2
v 1.3 0.7 -1.6
v 1.3 0.7 -1.7
v 1.3 0.7 -1.8
v 1.3 0.7 -1.9
v 1.3 2.6 -1.6
v 1.3 2.6 -1.7
v 1.3 2.6 -1.8
v 1.3 2.6 -1.9
v 1.3 2.9 -1.5
v 1.3 2.9 -2
v 1.5 0 -1.4
v 1.5 0 -2
v 1.5 0.5 -1.4
v 1.5 0.5 -2
v -1.5 0 -1.4
v -1.5 0.5 -1.4
v -0.7 0 -1.4
v -0.7 0.5 -1.4
v 0.7 0 -1.4
v 0.7 0.5 -1.4
v 1.5 0 -1.4
v 1.5 0.5 -1.4
v -1.3 0.5 -1.5
v -1.3 2.9 -1.5
v -0.9 0.5 -1.5
v -0.9 2.9 -1.5
v 0.9 0.5 -1.5
v 0.9 2.9 -1.5
v 1.3 0.5 -1.5
v 1.3 2.9 -1.5
v -1.2 2.9 -1.6
v -1.2 3.3 -1.6
v -1.1 3 -1.6
v -1.1 3.1 -1.6
v -0.9 2.7 -1.6
v -0.9 2.9 -1.6
v 0.9 2.7 -1.6
v 0.9 2.9 -1.6
v 1.1 3 -1.6
v 1.1 3.1 -1.6
v 1.2 2.9 -1.6
v 1.2 3.3 -1.6
v -1.3 0.7 -1.7
v -1.3 2.6 -1.7
v -1.1 0.7 -1.7
v -1.1 2.6 -1.7
v -1 0.7 -1.7
v -1 2.6 -1.7
v -0.9 0.7 -1.7
v -0.9 2.6 -1.7
v 0.9 0.7 -1.7
v 0.9 2.6 -1.7
v 1 0.7 -1.7
v 1 2.6 -1.7
v 1.1 0.7 -1.7
v 1.1 2.6 -1.7
v 1.3 0.7 -1.7
v 1.3 2.6 -1.7
v -0.7 2.9 -1.8
v -0.7 3 -1.8
v -0.7 3.1 -1.8
v -0.7 3.3 -1.8
v 0.7 2.9 -1.8
v 0.7 3 -1.8
v 0.7 3.1 -1.8
v 0.7 3.3 -1.8
v -1.3 0.7 -1.9
v -1.3 2.6 -1.9
v -0.9 0.7 -1.9
v -0.9 2.6 -1.9
v 0.9 0.7 -1.9
v 0.9 2.6 -1.9
v 1.3 0.7 -1.9
v 1.3 2.6 -1.9
v -1.3 0.7 -1.6
v -1.3 2.6 -1.6
v -0.9 0.7 -1.6
v -0.9 2.6 -1.6
v 0.9 0.7 -1.6
v 0.9 2.6 -1.6
v 1.3 0.7 -1.6
v 1.3 2.6 -1.6
v -0.7 2.7 -1.7
v -0.7 3 -1.7
v -0.7 3.1 -1.7
v -0.7 3.3 -1.7
v 0.7 2.7 -1.7
v 0.7 3 -1.7
v 0.7 3.1 -1.7
v 0.7 3.3 -1.7
v -1.3 0.7 -1.8
v -1.3 2.6 -1.8
v -1.1 0.7 -1.8
v -1.1 2.6 -1.8
v -1 0.7 -1.8
v -1 2.6 -1.8
v -0.9 0.7 -1.8
v -0.9 2.6 -1.8
v 0.9 0.7 -1.8
v 0.9 2.6 -1.8
v 1 0.7 -1.8
v 1 2.6 -1.8
v 1.1 0.7 -1.8
v 1.1 2.6 -1.8
v 1.3 0.7 -1.8
v 1.3 2.6 -1.8
v -1.5 0 -2
v -1.5 0.5 -2
v -1.3 0.5 -2
v -1.3 2.9 -2
v -1.2 2.9 -2
v -1.2 3.3 -2
v -0.9 0.5 -2
v -0.9 2.7 -2
v -0.7 0 -2
v -0.7 0.5 -2
v -0.7 2.7 -2
v -0.7 2.9 -2
v 0.7 0 -2
v 0.7 0.5 -2
v 0.7 2.7 -2
v 0.7 2.9 -2
v 0.9 0.5 -2
v 0.9 2.7 -2
v 1.2 2.9 -2
v 1.2 3.3 -2
v 1.3 0.5 -2
v 1.3 2.9 -2
v 1.5 0 -2
v 1.5 0.5 -2
v -1.5 0 -1.4
v -0.7 0 -1.4
v 0.7 0 -1.4
v 1.5 0 -1.4
v -1.5 0 -2
v -0.7 0 -2
v 0.7 0 -2
v 1.5 0 -2
v -1.3 2.6 -1.6
v -0.9 2.6 -1.6
v 0.9 2.6 -1.6
v 1.3 2.6 -1.6
v -1.3 2.6 -1.7
v -1.1 2.6 -1.7
v -1 2.6 -1.7
v -0.9 2.6 -1.7
v 0.9 2.6 -1.7
v 1 2.6 -1.7
v 1.1 2.6 -1.7
v 1.3 2.6 -1.7
v -1.3 2.6 -1.8
v -1.1 2.6 -1.8
v -1 2.6 -1.8
v -0.9 2.6 -1.8
v 0.9 2.6 -1.8
v 1 2.6 -1.8
v 1.1 2.6 -1.8
v 1.3 2.6 -1.8
v -1.3 2.6 -1.9
v -0.9 2.6 -1.9
v 0.9 2.6 -1.9
v 1.3 2.6 -1.9
v -0.9 2.7 -1.6
v 0.9 2.7 -1.6
v -0.7 2.7 -1.7
v 0.7 2.7 -1.7
v -0.9 2.7 -2
v -0.7 2.7 -2
v 0.7 2.7 -2
v 0.9 2.7 -2
v -0.7 2.9 -1.8
v 0.7 2.9 -1.8
v -0.7 2.9 -2
v 0.7 2.9 -2
v -1.5 0.5 -1.4
v -0.7 0.5 -1.4
v 0.7 0.5 -1.4
v 1.5 0.5 -1.4
v -1.3 0.5 -1.5
v -0.9 0.5 -1.5
v 0.9 0.5 -1.5
v 1.3 0.5 -1.5
v -1.5 0.5 -2
v -1.3 0.5 -2
v -0.9 0.5 -2
v -0.7 0.5 -2
v 0.7 0.5 -2
v 0.9 0.5 -2
v 1.3 0.5 -2
v 1.5 0.5 -2
v -1.3 0.7 -1.6
v -0.9 0.7 -1.6
v 0.9 0.7 -1.6
v 1.3 0.7 -1.6
v -1.3 0.7 -1.7
v -1.1 0.7 -1.7
v -1 0.7 -1.7
v -0.9 0.7 -1.7
v 0.9 0.7 -1.7
v 1 0.7 -1.7
v 1.1 0.7 -1.7
v 1.3 0.7 -1.7
v -1.3 0.7 -1.8
v -1.1 0.7 -1.8
v -1 0.7 -1.8
v -0.9 0.7 -1.8
v 0.9 0.7 -1.8
v 1 0.7 -1.8
v 1.1 0.7 -1.8
v 1.3 0.7 -1.8
v -1.3 0.7 -1.9
v -0.9 0.7 -1.9
v 0.9 0.7 -1.9
v 1.3 0.7 -1.9
v -1.3 2.9 -1.5
v -0.9 2.9 -1.5
v 0.9 2.9 -1.5
v 1.3 2.9 -1.5
v -1.2 2.9 -1.6
v -0.9 2.9 -1.6
v 0.9 2.9 -1.6
v 1.2 2.9 -1.6
v -1.3 2.9 -2
v -1.2 2.9 -2
v 1.2 2.9 -2
v 1.3 2.9 -2
v -1.2 3.3 -1.6
v 1.2 3.3 -1.6
v -0.7 3.3 -1.7
v 0.7 3.3 -1.7
v -0.7 3.3 -1.8
v 0.7 3.3 -1.8
v -1.2 3.3 -2
v 1.2 3.3 -2

# faces
f 3/3/1 2/3/1 1/3/1
f 4/3/1 2/3/1 3/3/1
f 7/3/1 6/3/1 5/3/1
f 8/3/1 6/3/1 7/3/1
f 9/3/1 6/3/1 8/3/1
f 10/3/1 6/3/1 9/3/1
f 11/3/1 7/3/1 5/3/1
f 12/3/1 9/3/1 8/3/1
f 13/3/1 9/3/1 12/3/1
f 14/3/1 6/3/1 10/3/1
f 15/3/1 13/3/1 12/3/1
f 15/3/1 14/3/1 13/3/1
f 15/3/1 11/3/1 5/3/1
f 15/3/1 12/3/1 11/3/1
f 16/3/1 6/3/1 14/3/1
f 16/3/1 14/3/1 15/3/1
f 19/3/1 18/3/1 17/3/1
f 20/3/1 18/3/1 19/3/1
f 23/3/1 22/3/1 21/3/1
f 24/3/1 22/3/1 23/3/1
f 27/3/1 26/3/1 25/3/1
f 28/3/1 26/3/1 27/3/1
f 29/3/1 27/3/1 25/3/1
f 30/3/1 27/3/1 29/3/1
f 31/3/1 30/3/1 29/3/1
f 32/3/1 30/3/1 31/3/1
f 33/3/1 32/3/1 31/3/1
f 34/3/1 32/3/1 33/3/1
f 37/3/1 36/3/1 35/3/1
f 38/3/1 36/3/1 37/3/1
f 39/3/1 36/3/1 38/3/1
f 40/3/1 36/3/1 39/3/1
f 41/3/1 37/3/1 35/3/1
f 42/3/1 39/3/1 38/3/1
f 43/3/1 39/3/1 42/3/1
f 44/3/1 36/3/1 40/3/1
f 45/3/1 43/3/1 42/3/1
f 45/3/1 44/3/1 43/3/1
f 45/3/1 41/3/1 35/3/1
f 45/3/1 42/3/1 41/3/1
f 46/3/1 36/3/1 44/3/1
f 46/3/1 44/3/1 45/3/1
f 47/3/1 45/3/1 35/3/1
f 48/3/1 45/3/1 47/3/1
f 49/3/2 50/3/2 51/3/2
f 51/3/2 50/3/2 52/3/2
f 52/3/2 50/3/2 53/3/2
f 53/3/2 50/3/2 54/3/2
f 49/3/2 51/3/2 55/3/2
f 52/3/2 53/3/2 56/3/2
f 56/3/2 53/3/2 57/3/2
f 54/3/2 50/3/2 58/3/2
f 56/3/2 57/3/2 59/3/2
f 57/3/2 58/3/2 59/3/2
f 49/3/2 55/3/2 59/3/2
f 55/3/2 56/3/2 59/3/2
f 58/3/2 50/3/2 60/3/2
f 59/3/2 58/3/2 60/3/2
f 49/3/2 59/3/2 61/3/2
f 61/3/2 59/3/2 62/3/2
f 63/3/2 64/3/2 65/3/2
f 65/3/2 64/3/2 66/3/2
f 67/3/2 68/3/2 69/3/2
f 69/3/2 68/3/2 70/3/2
f 67/3/2 69/3/2 71/3/2
f 71/3/2 69/3/2 72/3/2
f 71/3/2 72/3/2 73/3/2
f 73/3/2 72/3/2 74/3/2
f 73/3/2 74/3/2 75/3/2
f 75/3/2 74/3/2 76/3/2
f 77/3/2 78/3/2 79/3/2
f 79/3/2 78/3/2 80/3/2
f 81/3/2 82/3/2 83/3/2
f 83/3/2 82/3/2 84/3/2
f 84/3/2 82/3/2 85/3/2
f 85/3/2 82/3/2 86/3/2
f 81/3/2 83/3/2 87/3/2
f 84/3/2 85/3/2 88/3/2
f 88/3/2 85/3/2 89/3/2
f 86/3/2 82/3/2 90/3/2
f 88/3/2 89/3/2 91/3/2
f 89/3/2 90/3/2 91/3/2
f 81/3/2 87/3/2 91/3/2
f 87/3/2 88/3/2 91/3/2
f 90/3/2 82/3/2 92/3/2
f 91/3/2 90/3/2 92/3/2
f 93/3/2 94/3/2 95/3/2
f 95/3/2 94/3/2 96/3/2
f 99/3/3 98/3/3 97/3/3
f 100/3/3 98/3/3 99/3/3
f 103/3/3 102/3/3 101/3/3
f 104/3/3 102/3/3 103/3/3
f 107/3/3 106/3/3 105/3/3
f 108/3/3 106/3/3 107/3/3
f 111/3/3 110/3/3 109/3/3
f 112/3/3 110/3/3 111/3/3
f 115/3/3 114/3/3 113/3/3
f 116/3/3 114/3/3 115/3/3
f 118/3/3 115/3/3 113/3/3
f 119/3/3 118/3/3 117/3/3
f 120/3/3 115/3/3 118/3/3
f 120/3/3 118/3/3 119/3/3
f 121/2/3 116/2/3 115/2/3
f 121/3/3 115/3/3 120/3/3
f 122/3/3 114/3/3 116/3/3
f 122/2/3 116/2/3 121/2/3
f 123/3/3 121/3/3 120/3/3
f 123/3/3 122/3/3 121/3/3
f 124/3/3 114/3/3 122/3/3
f 124/3/3 122/3/3 123/3/3
f 127/3/3 126/3/3 125/3/3
f 128/3/3 126/3/3 127/3/3
f 129/1/3 128/1/3 127/1/3
f 130/1/3 128/1/3 129/1/3
f 131/3/3 130/3/3 129/3/3
f 132/3/3 130/3/3 131/3/3
f 135/3/3 134/3/3 133/3/3
f 136/3/3 134/3/3 135/3/3
f 137/1/3 136/1/3 135/1/3
f 138/1/3 136/1/3 137/1/3
f 139/3/3 138/3/3 137/3/3
f 140/3/3 138/3/3 139/3/3
f 145/3/3 142/3/3 141/3/3
f 146/2/3 143/2/3 142/2/3
f 146/3/3 142/3/3 145/3/3
f 147/3/3 144/3/3 143/3/3
f 147/2/3 143/2/3 146/2/3
f 148/3/3 144/3/3 147/3/3
f 151/3/3 150/3/3 149/3/3
f 152/3/3 150/3/3 151/3/3
f 155/3/3 154/3/3 153/3/3
f 156/3/3 154/3/3 155/3/3
f 157/3/4 158/3/4 159/3/4
f 159/3/4 158/3/4 160/3/4
f 161/3/4 162/3/4 163/3/4
f 163/3/4 162/3/4 164/3/4
f 165/3/4 166/3/4 169/3/4
f 166/2/4 167/2/4 170/2/4
f 169/3/4 166/3/4 170/3/4
f 167/3/4 168/3/4 171/3/4
f 170/2/4 167/2/4 171/2/4
f 171/3/4 168/3/4 172/3/4
f 173/3/4 174/3/4 175/3/4
f 175/3/4 174/3/4 176/3/4
f 175/1/4 176/1/4 177/1/4
f 177/1/4 176/1/4 178/1/4
f 177/3/4 178/3/4 179/3/4
f 179/3/4 178/3/4 180/3/4
f 181/3/4 182/3/4 183/3/4
f 183/3/4 182/3/4 184/3/4
f 183/1/4 184/1/4 185/1/4
f 185/1/4 184/1/4 186/1/4
f 185/3/4 186/3/4 187/3/4
f 187/3/4 186/3/4 188/3/4
f 189/3/4 190/3/4 191/3/4
f 191/3/4 192/3/4 193/3/4
f 189/3/4 191/3/4 195/3/4
f 193/3/4 194/3/4 195/3/4
f 191/3/4 193/3/4 195/3/4
f 195/3/4 194/3/4 196/3/4
f 189/3/4 195/3/4 197/3/4
f 197/3/4 195/3/4 198/3/4
f 196/3/4 194/3/4 199/3/4
f 199/3/4 194/3/4 200/3/4
f 200/3/4 194/3/4 204/3/4
f 201/3/4 202/3/4 205/3/4
f 203/3/4 204/3/4 206/3/4
f 204/3/4 194/3/4 207/3/4
f 205/3/4 206/3/4 207/3/4
f 206/3/4 204/3/4 207/3/4
f 207/3/4 194/3/4 208/3/4
f 201/3/4 205/3/4 209/3/4
f 205/3/4 207/3/4 209/3/4
f 209/3/4 207/3/4 210/3/4
f 201/3/4 209/3/4 211/3/4
f 211/3/4 209/3/4 212/3/4
f 217/3/5 214/3/5 213/3/5
f 218/3/5 214/3/5 217/3/5
f 219/3/5 216/3/5 215/3/5
f 220/3/5 216/3/5 219/3/5
f 225/3/5 222/3/5 221/3/5
f 226/3/5 222/3/5 225/3/5
f 227/3/5 222/3/5 226/3/5
f 228/3/5 222/3/5 227/3/5
f 229/3/5 224/3/5 223/3/5
f 230/3/5 224/3/5 229/3/5
f 231/3/5 224/3/5 230/3/5
f 232/3/5 224/3/5 231/3/5
f 241/3/5 234/3/5 233/3/5
f 241/3/5 235/3/5 234/3/5
f 241/3/5 236/3/5 235/3/5
f 242/3/5 236/3/5 241/3/5
f 243/3/5 240/3/5 239/3/5
f 243/3/5 239/3/5 238/3/5
f 243/3/5 238/3/5 237/3/5
f 244/3/5 240/3/5 243/3/5
f 247/3/5 246/3/5 245/3/5
f 248/3/5 246/3/5 247/3/5
f 249/3/5 247/3/5 245/3/5
f 250/3/5 247/3/5 249/3/5
f 251/3/5 246/3/5 248/3/5
f 252/3/5 246/3/5 251/3/5
f 255/3/5 254/3/5 253/3/5
f 256/3/5 254/3/5 255/3/5
f 257/3/6 258/3/6 261/3/6
f 261/3/6 258/3/6 262/3/6
f 259/3/6 260/3/6 263/3/6
f 263/3/6 260/3/6 264/3/6
f 257/3/6 261/3/6 265/3/6
f 265/3/6 261/3/6 266/3/6
f 262/3/6 258/3/6 267/3/6
f 267/3/6 258/3/6 268/3/6
f 259/3/6 263/3/6 269/3/6
f 269/3/6 263/3/6 270/3/6
f 264/3/6 260/3/6 271/3/6
f 271/3/6 260/3/6 272/3/6
f 273/3/6 274/3/6 277/3/6
f 277/3/6 274/3/6 278/3/6
f 278/3/6 274/3/6 279/3/6
f 279/3/6 274/3/6 280/3/6
f 275/3/6 276/3/6 281/3/6
f 281/3/6 276/3/6 282/3/6
f 282/3/6 276/3/6 283/3/6
f 283/3/6 276/3/6 284/3/6
f 285/3/6 286/3/6 293/3/6
f 286/3/6 287/3/6 293/3/6
f 287/3/6 288/3/6 293/3/6
f 293/3/6 288/3/6 294/3/6
f 291/3/6 292/3/6 295/3/6
f 290/3/6 291/3/6 295/3/6
f 289/3/6 290/3/6 295/3/6
f 295/3/6 292/3/6 296/3/6
f 297/3/6 298/3/6 301/3/6
f 301/3/6 298/3/6 302/3/6
f 299/3/6 300/3/6 303/3/6
f 303/3/6 300/3/6 304/3/6
f 297/3/6 301/3/6 305/3/6
f 305/3/6 301/3/6 306/3/6
f 304/3/6 300/3/6 307/3/6
f 307/3/6 300/3/6 308/3/6
f 309/3/6 310/3/6 311/3/6
f 311/3/6 310/3/6 312/3/6
f 309/3/6 311/3/6 313/3/6
f 312/3/6 310/3/6 314/3/6
f 309/3/6 313/3/6 315/3/6
f 313/3/6 314/3/6 315/3/6
f 314/3/6 310/3/6 316/3/6
f 315/3/6 314/3/6 316/3/6
